<?xml version="1.0" encoding="utf-8"?>
<!-- Generator: Adobe Illustrator 25.4.1, SVG Export Plug-In . SVG Version: 6.00 Build 0)  -->
<svg version="1.1" id="Capa_1" xmlns="http://www.w3.org/2000/svg" xmlns:xlink="http://www.w3.org/1999/xlink" x="0px" y="0px"
	 viewBox="0 0 560 560" style="enable-background:new 0 0 560 560;" xml:space="preserve">
<style type="text/css">
	.st0{fill:#EA600A;}
</style>
<g id="BASSS_URA">
	<path class="st0" d="M164.1,212.8c0.9,0,1.8-0.1,2.7,0.1c2.4,0.6,3.7,2.7,3.4,5.1c-0.3,2.1-2.2,3.8-4.5,3.8
		c-3.4,0-6.7,0.1-10.1,0.1c-3.7,0-7.5,0.1-11.2,0.1c-3.8,0-7.6,0-11.4,0.1c-6.2,0.1-12.4,0.1-18.6,0.2c-5.3,0-10.6,0.1-15.8,0.1
		c-1,0-1.9,0-2.8,0c-2.7-0.1-4.7-2-4.7-4.6c0-2.5,2-4.5,4.7-4.5c4.2-0.1,8.3-0.1,12.5-0.1c4.7,0,9.4-0.1,14.1-0.1
		c5.2,0,10.5-0.1,15.7-0.1c7.1-0.1,14.1-0.1,21.2-0.2C160.7,212.8,162.4,212.8,164.1,212.8"/>
	<path class="st0" d="M115.1,206c-0.1-5.4,4.2-9.7,9.6-9.7c3.8,0,7.7,0,11.5-0.1c4.9-0.1,8.9,2.7,10,7.2c0.4,1.8,0.7,3.6-0.1,5.4
		c-0.9,1.9-3.2,3.1-5.2,2.6c-2.2-0.5-3.7-2.4-3.7-4.6c0-1.2,0.2-1.1-1.1-1.1c-3.6,0-7.2,0-10.7,0c-0.6,0-0.8,0.2-0.8,0.8
		c0,0.7-0.1,1.4-0.3,2c-0.7,2.1-3,3.5-5.1,3.2c-2.2-0.3-3.9-2.2-4-4.4C115.1,206.8,115.1,206.4,115.1,206"/>
	<path class="st0" d="M167.5,229.7c-1.8-1.3-3.9-1.8-6.1-1.8c-20.1,0-40.2,0-60.2,0c-0.7,0-1.5,0-2.2,0c-5.3,0.2-9.4,4.3-9.4,9.7
		c0,2.2,0.2,4.3,0.3,6.5c0.3,6.7,0.6,13.5,0.9,20.2c0.3,6.8,0.6,13.5,1,20.3c0.2,5.7,0.5,11.4,0.7,17.1c0.4,9.3,0.8,18.6,1.3,27.9
		c0.1,1.7,0,3.4,0.5,5c1.1,3.6,4.5,6.9,9.6,6.9c17.3,0,34.7,0,52,0c1,0,1.9,0,2.9-0.1c4.6-0.4,8.3-4.2,8.5-8.8
		c0.3-7.4,0.7-14.8,1-22.1c0.4-8.3,0.8-16.6,1.1-24.9c0.2-4.4,0.4-8.8,0.6-13.2c0.1-3,0.3-6.1,0.4-9.1c0.2-4.9,0.4-9.7,0.6-14.5
		c0.2-3.6,0.4-7.1,0.5-10.7C171.5,234.6,170.2,231.8,167.5,229.7z M101,284c-0.2-5.1-0.4-10.2-0.6-15.3c-0.1-3.2-0.3-6.5-0.5-9.7
		c-0.2-5.1-0.4-10.2-0.6-15.3l2.8,60.9C101.7,297.8,101.3,290.9,101,284z M102.8,322.2c-0.2-4.6-0.4-9.2-0.6-13.9l1,22.9
		C103.1,328.2,102.9,325.2,102.8,322.2z M114.9,324.9h-5v-78.8h5V324.9z M133,324.9h-5v-78.8h5V324.9z M151.1,324.9h-5v-78.8h5
		V324.9z M159.1,302c-0.4,7.6-0.7,15.3-1.1,22.9l1.6-34C159.4,294.3,159.2,298.1,159.1,302z M160.3,274.7c-0.1,2.1-0.2,4.2-0.3,6.7
		l0.4-8.1C160.4,273.8,160.4,274.2,160.3,274.7z"/>
	<path class="st0" d="M262.5,212.8c0.9,0,1.8-0.1,2.7,0.1c2.4,0.6,3.7,2.7,3.4,5.1c-0.3,2.1-2.2,3.8-4.5,3.8
		c-3.4,0-6.7,0.1-10.1,0.1c-3.7,0-7.5,0.1-11.2,0.1c-3.8,0-7.6,0-11.4,0.1c-6.2,0.1-12.4,0.1-18.6,0.2c-5.3,0-10.6,0.1-15.8,0.1
		c-1,0-1.9,0-2.8,0c-2.7-0.1-4.7-2-4.7-4.6c0-2.5,2-4.5,4.7-4.5c4.2-0.1,8.3-0.1,12.5-0.1c4.7,0,9.4-0.1,14.1-0.1
		c5.2,0,10.5-0.1,15.7-0.1c7.1-0.1,14.1-0.1,21.2-0.2C259.2,212.8,260.9,212.8,262.5,212.8"/>
	<path class="st0" d="M213.6,206c-0.1-5.4,4.2-9.7,9.6-9.7c3.8,0,7.7,0,11.5-0.1c4.9-0.1,8.9,2.7,10,7.2c0.4,1.8,0.7,3.6-0.1,5.4
		c-0.9,1.9-3.2,3.1-5.2,2.6c-2.2-0.5-3.7-2.4-3.7-4.6c0-1.2,0.2-1.1-1.1-1.1c-3.6,0-7.2,0-10.7,0c-0.6,0-0.8,0.2-0.8,0.8
		c0,0.7-0.1,1.4-0.3,2c-0.7,2.1-3,3.5-5.1,3.2c-2.2-0.3-3.9-2.2-4-4.4C213.6,206.8,213.6,206.4,213.6,206"/>
	<path class="st0" d="M266,229.7c-1.8-1.3-3.9-1.8-6.1-1.8c-20.1,0-40.2,0-60.2,0c-0.7,0-1.5,0-2.2,0c-5.3,0.2-9.4,4.3-9.4,9.7
		c0,2.2,0.2,4.3,0.3,6.5c0.3,6.7,0.6,13.5,0.9,20.2c0.3,6.8,0.6,13.5,1,20.3c0.2,5.7,0.5,11.4,0.7,17.1c0.4,9.3,0.8,18.6,1.3,27.9
		c0.1,1.7,0,3.4,0.5,5c1.1,3.6,4.5,6.9,9.6,6.9c17.3,0,34.7,0,52,0c1,0,1.9,0,2.9-0.1c4.6-0.4,8.3-4.2,8.5-8.8
		c0.3-7.4,0.7-14.8,1-22.1c0.4-8.3,0.8-16.6,1.1-24.9c0.2-4.4,0.4-8.8,0.6-13.2c0.1-3,0.3-6.1,0.4-9.1c0.2-4.9,0.4-9.7,0.6-14.5
		c0.2-3.6,0.4-7.1,0.5-10.7C269.9,234.6,268.7,231.8,266,229.7z M199.5,284c-0.2-5.1-0.4-10.2-0.6-15.3c-0.1-3.2-0.3-6.5-0.5-9.7
		c-0.2-5.1-0.4-10.2-0.6-15.3l2.8,60.9C200.2,297.8,199.8,290.9,199.5,284z M201.2,322.2c-0.2-4.6-0.4-9.2-0.6-13.9l1,22.9
		C201.6,328.2,201.4,325.2,201.2,322.2z M213.4,324.9h-5v-78.8h5V324.9z M231.5,324.9h-5v-78.8h5V324.9z M249.5,324.9h-5v-78.8h5
		V324.9z M257.5,302c-0.4,7.6-0.7,15.3-1.1,22.9l1.6-34C257.9,294.3,257.7,298.1,257.5,302z M258.8,274.7c-0.1,2.1-0.2,4.2-0.3,6.7
		l0.4-8.1C258.8,273.8,258.8,274.2,258.8,274.7z"/>
	<path class="st0" d="M361,212.8c0.9,0,1.8-0.1,2.7,0.1c2.4,0.6,3.7,2.7,3.4,5.1c-0.3,2.1-2.2,3.8-4.5,3.8c-3.4,0-6.7,0.1-10.1,0.1
		c-3.7,0-7.5,0.1-11.2,0.1c-3.8,0-7.6,0-11.4,0.1c-6.2,0.1-12.4,0.1-18.6,0.2c-5.3,0-10.6,0.1-15.8,0.1c-1,0-1.9,0-2.8,0
		c-2.7-0.1-4.7-2-4.7-4.6c0-2.5,2-4.5,4.7-4.5c4.2-0.1,8.3-0.1,12.5-0.1c4.7,0,9.4-0.1,14.1-0.1c5.2,0,10.5-0.1,15.7-0.1
		c7.1-0.1,14.1-0.1,21.2-0.2C357.7,212.8,359.3,212.8,361,212.8"/>
	<path class="st0" d="M312.1,206c-0.1-5.4,4.2-9.7,9.6-9.7c3.8,0,7.7,0,11.5-0.1c4.9-0.1,8.9,2.7,10,7.2c0.4,1.8,0.7,3.6-0.1,5.4
		c-0.9,1.9-3.2,3.1-5.2,2.6c-2.2-0.5-3.7-2.4-3.7-4.6c0-1.2,0.2-1.1-1.1-1.1c-3.6,0-7.2,0-10.7,0c-0.6,0-0.8,0.2-0.8,0.8
		c0,0.7-0.1,1.4-0.3,2c-0.7,2.1-3,3.5-5.1,3.2c-2.2-0.3-3.9-2.2-4-4.4C312.1,206.8,312.1,206.4,312.1,206"/>
	<path class="st0" d="M364.4,229.7c-1.8-1.3-3.9-1.8-6.1-1.8c-20.1,0-40.2,0-60.2,0c-0.7,0-1.5,0-2.2,0c-5.3,0.2-9.4,4.3-9.4,9.7
		c0,2.2,0.2,4.3,0.3,6.5c0.3,6.7,0.6,13.5,0.9,20.2c0.3,6.8,0.6,13.5,1,20.3c0.2,5.7,0.5,11.4,0.7,17.1c0.4,9.3,0.8,18.6,1.3,27.9
		c0.1,1.7,0,3.4,0.5,5c1.1,3.6,4.5,6.9,9.6,6.9c17.3,0,34.7,0,52,0c1,0,1.9,0,2.9-0.1c4.6-0.4,8.3-4.2,8.5-8.8
		c0.3-7.4,0.7-14.8,1-22.1c0.4-8.3,0.8-16.6,1.1-24.9c0.2-4.4,0.4-8.8,0.6-13.2c0.1-3,0.3-6.1,0.4-9.1c0.2-4.9,0.4-9.7,0.6-14.5
		c0.2-3.6,0.4-7.1,0.5-10.7C368.4,234.6,367.2,231.8,364.4,229.7z M298,284c-0.2-5.1-0.4-10.2-0.6-15.3c-0.1-3.2-0.3-6.5-0.5-9.7
		c-0.2-5.1-0.4-10.2-0.6-15.3l2.8,60.9C298.6,297.8,298.3,290.9,298,284z M299.7,322.2c-0.2-4.6-0.4-9.2-0.6-13.9l1,22.9
		C300,328.2,299.8,325.2,299.7,322.2z M311.9,324.9h-5v-78.8h5V324.9z M329.9,324.9h-5v-78.8h5V324.9z M348,324.9h-5v-78.8h5V324.9z
		 M356,302c-0.4,7.6-0.7,15.3-1.1,22.9l1.6-34C356.4,294.3,356.2,298.1,356,302z M357.3,274.7c-0.1,2.1-0.2,4.2-0.3,6.7l0.4-8.1
		C357.3,273.8,357.3,274.2,357.3,274.7z"/>
	<path class="st0" d="M459.5,212.8c0.9,0,1.8-0.1,2.7,0.1c2.4,0.6,3.7,2.7,3.4,5.1c-0.3,2.1-2.2,3.8-4.5,3.8
		c-3.4,0-6.7,0.1-10.1,0.1c-3.7,0-7.5,0.1-11.2,0.1c-3.8,0-7.6,0-11.4,0.1c-6.2,0.1-12.4,0.1-18.6,0.2c-5.3,0-10.6,0.1-15.8,0.1
		c-1,0-1.9,0-2.8,0c-2.7-0.1-4.7-2-4.7-4.6c0-2.5,2-4.5,4.7-4.5c4.2-0.1,8.3-0.1,12.5-0.1c4.7,0,9.4-0.1,14.1-0.1
		c5.2,0,10.5-0.1,15.7-0.1c7.1-0.1,14.1-0.1,21.2-0.2C456.2,212.8,457.8,212.8,459.5,212.8"/>
	<path class="st0" d="M410.5,206c-0.1-5.4,4.2-9.7,9.6-9.7c3.8,0,7.7,0,11.5-0.1c4.9-0.1,8.9,2.7,10,7.2c0.4,1.8,0.7,3.6-0.1,5.4
		c-0.9,1.9-3.2,3.1-5.2,2.6c-2.2-0.5-3.7-2.4-3.7-4.6c0-1.2,0.2-1.1-1.1-1.1c-3.6,0-7.2,0-10.7,0c-0.6,0-0.8,0.2-0.8,0.8
		c0,0.7-0.1,1.4-0.3,2c-0.7,2.1-3,3.5-5.1,3.2c-2.2-0.3-3.9-2.2-4-4.4C410.5,206.8,410.5,206.4,410.5,206"/>
	<path class="st0" d="M462.9,229.7c-1.8-1.3-3.9-1.8-6.1-1.8c-20.1,0-40.2,0-60.2,0c-0.7,0-1.5,0-2.2,0c-5.3,0.2-9.4,4.3-9.4,9.7
		c0,2.2,0.2,4.3,0.3,6.5c0.3,6.7,0.6,13.5,0.9,20.2c0.3,6.8,0.6,13.5,1,20.3c0.2,5.7,0.5,11.4,0.7,17.1c0.4,9.3,0.8,18.6,1.3,27.9
		c0.1,1.7,0,3.4,0.5,5c1.1,3.6,4.5,6.9,9.6,6.9c17.3,0,34.7,0,52,0c1,0,1.9,0,2.9-0.1c4.6-0.4,8.3-4.2,8.5-8.8
		c0.3-7.4,0.7-14.8,1-22.1c0.4-8.3,0.8-16.6,1.1-24.9c0.2-4.4,0.4-8.8,0.6-13.2c0.1-3,0.3-6.1,0.4-9.1c0.2-4.9,0.4-9.7,0.6-14.5
		c0.2-3.6,0.4-7.1,0.5-10.7C466.9,234.6,465.7,231.8,462.9,229.7z M396.4,284c-0.2-5.1-0.4-10.2-0.6-15.3c-0.1-3.2-0.3-6.5-0.5-9.7
		c-0.2-5.1-0.4-10.2-0.6-15.3l2.8,60.9C397.1,297.8,396.7,290.9,396.4,284z M398.2,322.2c-0.2-4.6-0.4-9.2-0.6-13.9l1,22.9
		C398.5,328.2,398.3,325.2,398.2,322.2z M410.3,324.9h-5v-78.8h5V324.9z M428.4,324.9h-5v-78.8h5V324.9z M446.5,324.9h-5v-78.8h5
		V324.9z M454.5,302c-0.4,7.6-0.7,15.3-1.1,22.9l1.6-34C454.8,294.3,454.7,298.1,454.5,302z M455.8,274.7c-0.1,2.1-0.2,4.2-0.3,6.7
		l0.4-8.1C455.8,273.8,455.8,274.2,455.8,274.7z"/>
</g>
<path class="st0" d="M280,528.8C142.8,528.8,31.2,417.2,31.2,280S142.8,31.2,280,31.2S528.8,142.8,528.8,280S417.2,528.8,280,528.8z
	 M280,50.1C153.3,50.1,50.1,153.3,50.1,280S153.3,509.9,280,509.9S509.9,406.8,509.9,280S406.7,50.1,280,50.1z"/>
</svg>
