<?xml version="1.0" encoding="utf-8"?>
<!-- Generator: Adobe Illustrator 25.4.1, SVG Export Plug-In . SVG Version: 6.00 Build 0)  -->
<svg version="1.1" id="Capa_1" xmlns="http://www.w3.org/2000/svg" xmlns:xlink="http://www.w3.org/1999/xlink" x="0px" y="0px"
	 viewBox="0 0 560 560" style="enable-background:new 0 0 560 560;" xml:space="preserve">
<style type="text/css">
	.st0{fill:#EA600A;}
</style>
<g id="HERRAMIENTAS">
	<polygon class="st0" points="214.3,188.1 216.1,188.1 216.6,188.1 216.9,188.1 217.4,188.1 217.9,188.1 218.9,188.2 219.6,188.3 
		221.6,188.5 222,188.5 222.6,188.6 223.9,188.7 225,189 229.3,189.9 230.2,190.2 230.9,190.8 231.4,191.4 231.5,192.2 231.2,193 
		230.6,193.6 229.9,194.1 228.9,194.2 224.5,194.8 223.9,194.8 223.2,195 222.5,195.2 222,195.3 220.3,195.6 220,195.7 219.7,195.8 
		219.1,196.1 218.5,196.2 218.1,196.4 216.9,196.7 216,197.2 215.4,197.3 215,197.4 213.9,198 212.9,198.5 212.8,198.5 211.3,199.4 
		210.9,199.7 210.5,199.9 210.2,200.2 209.9,200.4 208.8,201.2 207.7,202.1 207.4,202.3 206.7,203 205.9,203.7 205.6,204.1 
		205.3,204.3 204.6,205 203.6,206.4 202.9,207.4 202.2,208.4 201.9,208.9 201.7,209.4 201.5,209.7 201.3,209.9 201.2,210.2 
		201.1,210.4 201,210.8 200.8,211.1 200.8,211.3 201.7,211.8 202.6,212.4 236.8,238.7 234.5,244.8 230.6,244 229.2,243.7 
		227.7,243.7 225.5,243.8 223.3,244.4 221.5,245.3 219.8,246.5 188.8,222.9 188.4,222.4 188,222.1 186.4,222.7 186.4,223.8 186,225 
		185.1,226.4 184.1,227.8 182.6,229.3 180.9,231 179.1,232.6 177.1,234.3 174.9,236 172.7,237.6 170.6,239.2 168.4,240.9 
		143.8,222.1 147,219.7 150,217.4 152.8,215.3 155.3,213.5 157.8,211.8 160.1,210.5 162.1,209.4 164.1,208.7 165.9,208.4 
		167.6,208.4 169,206.6 170.3,204.9 171.9,203.6 175.4,200.9 177.1,199.8 179.1,198.9 181.2,198.2 183.3,197.8 183.9,197.4 
		184.6,197 186.2,196.1 186.3,196 186.4,195.9 186.4,195.9 188,195 189.6,194.2 191.1,193.5 192.2,193 192.4,192.9 193.4,192.5 
		195.3,191.8 197.2,191.1 197.3,191 199.8,190.3 202.3,189.6 203,189.4 203.9,189.2 205,189 207.3,188.7 209.5,188.4 211.6,188.2 
		212.4,188.1 	"/>
	<polygon class="st0" points="387.2,194.5 409.6,194.5 409.6,203.1 407.4,202.8 405.2,202.9 403.2,203.4 401.2,204.3 399.5,205.6 
		397.9,207.2 382.7,227 367.8,224.1 363.1,213 387.2,213 	"/>
	<polygon class="st0" points="223.5,214 236.8,214 233.8,227 	"/>
	<path class="st0" d="M241.3,270.3l-1.4,0.1l-1.3,0.5l-1.1,0.7l-0.9,1l-0.6,1.2l-8.1,23.7h11.5l7.3-21l0.1-1.3l-0.1-1.2l-0.6-1.1
		l-0.8-1l-1.1-0.8l-1.3-0.6L241.3,270.3z M223.5,265.7l-1.4,0.1l-1.3,0.5l-1.2,0.7l-0.9,0.9l-0.6,1.2l-9.7,28.3h11.5l8.8-25.6
		l0.2-1.2l-0.1-1.2l-0.5-1.1l-0.8-1l-1.1-0.8l-1.4-0.5L223.5,265.7z M262.9,168.6l9,2.3l-2.1,14.2l-5.4,9.1l-0.7-0.1l-21.1,61.3
		l7.7,2l1.2,0.4l1.1,0.8l0.8,0.9l0.4,1.1l0.1,1.1l-0.2,1.2l-0.6,1.2l-0.9,0.8l-1.1,0.7l0.4,2v2.1l-0.4,2.2l-8.7,25.3h20.2L251,287.2
		l4.4-12.9l0.6-2l0.1-2l-0.1-2l1.1-1.5l0.9-1.7l0.3-1.6V262l-0.5-1.6l-0.8-1.6l-1.1-1.4l-1.3-1.2l-1.6-0.9l-1.8-0.6l-3.3-0.8
		l1.3-3.8l49.3,42.6l1.4,1.5l1.1,1.5l0.8,1.6h3.9l-0.8-1.8l-1.1-1.8l-1.3-1.7l-1.6-1.5l-8.6-7.5l35.8-36.9l1.6-1.6l-1.6-3.1
		l-1.4-3.3l-0.9-3.3l-0.5-3.4l-0.3-3.4l0.1-3.4l0.6-3.4l0.9-3.4l1.3-3.3l1.7-3.3l2-3.1l2.5-3l2.6-2.7l3-2.3l3.2-2.2l3.5-1.8l3.5-1.6
		l3.8-1.2l3.9-1l4-0.6l4.1-0.3l1,0.1l0.9,0.3l0.8,0.6l0.6,0.7l0.3,0.9v0.8l-0.2,0.9l-0.5,0.8l-17.8,19.5l9.7,18.6l23.2,3.9
		l17.9-19.5l0.7-0.6l0.9-0.4l1-0.2l1,0.1l1,0.3l0.8,0.5l0.5,0.7l0.4,0.8l0.7,3.5l0.2,3.6l-0.2,3.5l-0.5,3.4l-0.9,3.4l-1.3,3.3
		l-1.7,3.2l-2.1,3l-2.3,2.9l-2.7,2.7l-3,2.5l-3.2,2.1l-3.5,1.9l-3.5,1.5l-3.7,1.2l-3.8,0.9l-3.8,0.6l-3.9,0.3l-3.9-0.1l-4-0.4
		L357,263l-1.4,1.8l-27.8,32.6H387v-33.3h-2.6l3.8-1.2l3.7-1.5l3.6-1.8l3.4-2l3.2-2.3l3-2.5l2.7-2.7l1.2-1.4v48.8h7.2v66.9l-0.3,4.1
		l-0.8,4l-1.2,3.9l-1.7,3.7l-2.1,3.5l-2.5,3.3l-2.8,3.1l-3.2,2.7l-3.5,2.5l-3.8,2.1l-4,1.8l-4.4,1.5l-4.4,1l-4.7,0.7l-4.9,0.3H207.9
		l-4.8-0.3l-4.7-0.7l-4.5-1l-4.3-1.5l-4-1.8l-3.8-2.1l-3.5-2.5l-3.2-2.8l-2.9-3.1l-2.4-3.3l-2.2-3.5l-1.7-3.7l-1.2-3.9l-0.8-4
		l-0.2-4.1v-66.9h7.1v-48l6.7-5.8l2.8-2.5l2.5-2.5l2.2-2.4l2-2.3l2-2.4l23.5,21l-0.7,0.9l-0.5,0.7l-0.4,0.6l-0.4,0.8l-0.4,1
		l-2.6,7.7H193v33.3H204l11.8-34.4l0.7-1.6l1-1.4l1.2-1.3l1.3-1.2l-0.4-1l-0.2-1.1l0.2-1.2l0.6-1.1l0.8-0.9l1.1-0.7l1.3-0.5l1.4-0.1
		l1.3,0.2l8.1,2l21-61.3l-0.7-0.1l1.2-10.2L262.9,168.6z"/>
	<polygon class="st0" points="265.3,214 320.8,214 320.1,217.7 319.9,221.4 320.1,225 320.7,228.7 321.7,232.3 323.2,235.9 
		298.8,259.5 284.1,259.5 256.7,237.3 	"/>
</g>
<path class="st0" d="M280,528.8C142.8,528.8,31.2,417.2,31.2,280S142.8,31.2,280,31.2S528.8,142.8,528.8,280S417.2,528.8,280,528.8z
	 M280,50.1C153.3,50.1,50.1,153.3,50.1,280S153.3,509.9,280,509.9S509.9,406.8,509.9,280S406.7,50.1,280,50.1z"/>
</svg>
