<?xml version="1.0" encoding="utf-8"?>
<!-- Generator: Adobe Illustrator 25.4.1, SVG Export Plug-In . SVG Version: 6.00 Build 0)  -->
<svg version="1.1" id="Capa_1" xmlns="http://www.w3.org/2000/svg" xmlns:xlink="http://www.w3.org/1999/xlink" x="0px" y="0px"
	 viewBox="0 0 560 560" style="enable-background:new 0 0 560 560;" xml:space="preserve">
<style type="text/css">
	.st0{fill:#EA600A;}
</style>
<g id="RELOJ">
	<path class="st0" d="M208.6,399.2c-2.3-4.7-6.6-9.2-10.7-8.6c-6.7,1-12.2,6.3-13.4,12.9c-1.2,6.4,5.2,7.6,9.8,7
		C201.2,409.6,205.5,404.7,208.6,399.2 M376.9,403.7c-1.5-6.3-5.6-12.2-12.3-13.4c-4.3-0.8-12.5,4-12.2,7.4
		c0.6,6.9,7.6,11.2,14.8,13.1C372.2,412.1,375.5,408.9,376.9,403.7 M194.9,174.6c-18.1-1.4-31.1,6.9-30.4,19.5
		c0.1,2.4,0.4,5,2.8,5.8c1.2,0.4,3.7-1.1,4.9-2.4C179.8,190.1,187.2,182.5,194.9,174.6 M393.8,200.2c4.7-19.1-6.5-29.2-27.2-24.7
		C375.5,183.6,384.5,191.7,393.8,200.2 M305.8,153c7,0.1,9.1-4.5,4.5-11.7c-9-13.9-23.2-15.3-38.5-13.6c-10,1.1-22.6,11.7-25.4,21
		c-1.2,4.1,1.8,6.7,4.8,5.7C269.2,148.3,287.3,150.2,305.8,153 M280,398.9c63.9,3.5,123.1-46.8,125.3-111.1
		C407.7,212.3,348,168,281,165c-63.9-2.9-127.1,54.6-126.4,117.2C155.3,345.3,217,405,280,398.9 M188.4,159.6
		c4.8-1.3,10.2,0.8,15.4,2.7c14.9,5.4,24.5,0.9,27.4-13.3c5-24.4,27.2-39.2,56.2-37.5c21.8,1.2,40.2,19.3,42,41.1
		c0.7,8,16.8,15.5,24.9,11.2c11.6-6.1,23.8-6.3,35.4-1.9c19,7.2,27.1,28.5,17.6,46.6c-3.4,6.4-2.6,10.8,0.5,16.7
		c14.5,27.7,15.2,56.8,9.5,86.6c-4.6,24.1-16.9,44.4-34.5,62c-4.7,4.6-3.8,7.4,0.6,11.2c9.4,8.1,9.6,18.6,6.1,28.7
		c-3.6,10.4-15.5,10.3-24.4,12.5c-5.3,1.3-11.3-2.6-14.9-7.4c-8.3-11-17.3-14.4-32.6-9.3c-24.3,8.1-50.2,7.4-74.9-0.2
		c-11.6-3.6-20-3.2-27.9,6.1c-4.8,5.7-11.6,9-20.1,9.6c-11.7,0.9-18.3-4.3-23.2-13.1c-4.9-8.6-3.3-16.7,3.7-22.9
		c8.4-7.4,6.6-12.3-0.5-19.8c-33.6-35.5-42-76.9-29.9-122.5c0.7-2.6,1.3-5.3,2.5-7.7c6.7-13.5,8.9-25.6,3.6-41.7
		C144,177,164,159.6,188.4,159.6"/>
	<path class="st0" d="M384,270.4c-6.1-43.1-43.2-81-97-85.3c-65.3-5.1-112.9,49-112.3,97.8c0.6,51.6,50.5,100.2,105.7,97.8
		C330.1,381.5,393.7,338.8,384,270.4z M288.6,284.2c0,5.1-0.4,10.8-7.6,11.1c-7.4,0.3-8-5.2-8.1-10.5c0-19.9,0-39.9,0-59.8
		c0-5.3,0.8-10.7,8.1-10.5c7.3,0.2,7.5,6,7.5,11c0.1,9.6,0,19.2,0,28.8h0C288.7,264.3,288.7,274.2,288.6,284.2z"/>
</g>
<path class="st0" d="M280,528.8C142.8,528.8,31.2,417.2,31.2,280S142.8,31.2,280,31.2S528.8,142.8,528.8,280S417.2,528.8,280,528.8z
	 M280,50.1C153.3,50.1,50.1,153.3,50.1,280S153.3,509.9,280,509.9S509.9,406.8,509.9,280S406.7,50.1,280,50.1z"/>
</svg>
