<?xml version="1.0" encoding="utf-8"?>
<!-- Generator: Adobe Illustrator 25.4.1, SVG Export Plug-In . SVG Version: 6.00 Build 0)  -->
<svg version="1.1" id="Capa_1" xmlns="http://www.w3.org/2000/svg" xmlns:xlink="http://www.w3.org/1999/xlink" x="0px" y="0px"
	 viewBox="0 0 560 560" style="enable-background:new 0 0 560 560;" xml:space="preserve">
<style type="text/css">
	.st0{clip-path:url(#SVGID_00000165226814815335044450000002546714484059898007_);fill:#EA600A;}
	.st1{clip-path:url(#SVGID_00000177486390031038521490000002163706313354108604_);fill:#EA600A;}
	.st2{clip-path:url(#SVGID_00000067930757481995404520000004305163103212518319_);fill:#EA600A;}
	.st3{fill:#EA600A;}
	.st4{fill:#EB600A;}
</style>
<g id="ENGR">
	<g>
		<g>
			<g>
				<defs>
					<path id="SVGID_1_" d="M40.7,280c0,132.2,107.1,239.3,239.3,239.3S519.3,412.2,519.3,280S412.2,40.7,280,40.7
						S40.7,147.8,40.7,280"/>
				</defs>
				<clipPath id="SVGID_00000020363536529939131850000017130326173347645350_">
					<use xlink:href="#SVGID_1_"  style="overflow:visible;"/>
				</clipPath>
				<path style="clip-path:url(#SVGID_00000020363536529939131850000017130326173347645350_);fill:#EA600A;" d="M201.9,286.9
					c27.7,0.1,50.3-22.4,50.4-50.1c0.1-27.6-22.5-50.3-50.2-50.4c-27.6-0.1-50.3,22.5-50.4,50.2
					C151.7,264.3,174.1,286.9,201.9,286.9 M101.6,177.9c4.1,0.8,9.2,1.6,14.3,2.7c5.1,1.2,9.2,0,12.6-4.2c2.6-3.3,5.6-6.3,8.6-9.3
					c3.5-3.4,4.5-7.2,3.1-11.8c-1.3-4.6-2.6-9.3-3.8-14c-1.3-5.2,0.1-8.8,4.8-11.2c6.4-3.2,12.9-6.3,19.5-9.2
					c4.7-2.1,8.7-0.8,11.7,3.5c3,4.1,5.8,8.4,8.6,12.6c2.5,3.8,6,5.5,10.5,5c4.7-0.6,9.4-0.6,14.1-0.5c4.1,0.1,7.2-1.7,9.2-5.2
					c2.5-4.3,4.9-8.6,7.5-12.9c3.3-5.5,6.9-6.8,12.9-4.7c6.2,2.3,12.3,4.6,18.4,7c5.9,2.3,7.7,5.8,6.6,12c-0.8,4.3-1.6,8.6-2.5,12.8
					c-1.1,5.1-0.1,9.3,4.2,12.6c3.6,2.7,6.7,5.9,9.8,9.2c3.2,3.5,7,4.4,11.5,3.1c4.5-1.3,9.1-2.5,13.7-3.7c5.6-1.4,9.4,0.3,11.9,5.5
					c2.9,6.2,5.8,12.4,8.6,18.6c2.4,5.4,1.4,9.2-3.5,12.6c-4.1,2.9-8.2,5.7-12.3,8.4c-3.8,2.5-5.6,5.9-5.1,10.4
					c0.5,4.7,0.6,9.4,0.5,14.2c-0.1,4.3,1.8,7.4,5.4,9.4c4.2,2.4,8.5,4.7,12.7,7.1c5.5,3.2,6.8,6.9,4.6,12.8
					c-2.2,6.1-4.5,12.1-6.8,18.1c-2.4,6.1-5.7,8-12.2,6.9c-4.4-0.8-8.8-1.7-13.2-2.6c-5-1.1-9,0.1-12.3,4.2c-2.5,3.1-5.2,6-8.2,8.7
					c-4,3.7-5.2,7.9-3.5,13.1c1.3,4,2.3,8.1,3.4,12.2c1.6,6.3,0,9.8-6,12.6c-5.9,2.8-11.9,5.6-17.9,8.3c-5.5,2.5-9.4,1.4-12.9-3.6
					c-2.8-4-5.5-8-8.2-12c-2.5-3.8-5.8-5.5-10.4-5.2c-4.6,0.3-9.2,0.3-13.8,0.3c-4.5,0-7.8,1.9-10.1,5.8c-2.4,4.2-4.8,8.4-7.3,12.6
					c-3.1,5-6.8,6.4-12.3,4.4c-6.3-2.3-12.6-4.6-18.8-7.1c-5.8-2.3-7.7-5.8-6.5-12c0.9-4.8,1.8-9.5,2.7-14.3
					c0.9-4.3-0.4-7.8-3.7-10.7c-3.4-3-6.6-6-9.8-9.2c-3.1-3.1-6.7-4-10.9-2.8c-4.6,1.3-9.1,2.5-13.7,3.7c-6.3,1.7-9.9,0-12.7-5.9
					c-2.8-6-5.6-11.9-8.3-17.9c-2.5-5.5-1.3-9.5,3.6-12.9c3.9-2.7,7.8-5.3,11.8-7.9c4.1-2.6,5.9-6.3,5.2-11.1
					c-0.6-4.5-0.5-8.9-0.4-13.4c0-4.4-1.8-7.6-5.6-9.8c-4.3-2.4-8.6-4.9-12.9-7.5c-5.1-3.1-6.4-6.8-4.4-12.4
					c2.3-6.4,4.7-12.8,7.2-19.2C93.1,179.5,95.8,177.8,101.6,177.9"/>
			</g>
		</g>
		<g>
			<g>
				<defs>
					<path id="SVGID_00000150799512068409087010000013777730016100275897_" d="M40.7,280c0,132.2,107.1,239.3,239.3,239.3
						S519.3,412.2,519.3,280S412.2,40.7,280,40.7S40.7,147.8,40.7,280"/>
				</defs>
				<clipPath id="SVGID_00000095305592921925427180000003486228765420431264_">
					<use xlink:href="#SVGID_00000150799512068409087010000013777730016100275897_"  style="overflow:visible;"/>
				</clipPath>
				<path style="clip-path:url(#SVGID_00000095305592921925427180000003486228765420431264_);fill:#EA600A;" d="M205.3,456.4
					c16.4,0.4,30-13,30.3-29.7c0.3-16.1-13.2-29.8-29.7-30.1c-16.1-0.3-29.9,12.9-30.1,29.7C175.6,443,188.9,456.2,205.3,456.4
					 M162.7,368.9c1.3-0.1,2.4,0.5,3.5,1.2c1.6,1.1,3.4,2.1,4.8,3.5c3.7,3.4,7.3,2.7,11.9,1.4c7.5-2.2,10.4-6.7,11.1-14.1
					c0.5-6.1,2-6.8,8.3-6.9c3,0,6,0,8.9,0c4.9,0,6.3,1.2,7.2,6.1c0.5,2.4,0.8,4.9,1.2,7.3c0.4,2.8,1.9,4.8,4.6,5.8
					c0.9,0.3,2,0.5,2.8,1c6.2,4.4,11.3,2.3,16.6-2.1c5.1-4.2,6.7-3.8,11.4,0.9c2.3,2.3,4.6,4.6,6.8,6.9c2.3,2.4,2.6,5,0.7,7.7
					c-0.2,0.3-0.4,0.7-0.6,0.9c-6.8,6.2-6.6,13.1-2.3,20.6c1.4,2.5,2.9,4.2,5.8,4.6c2.8,0.4,5.6,0.9,8.4,1.5
					c2.9,0.6,4.6,2.4,4.6,5.4c0,4.2,0.1,8.4,0,12.7c-0.1,3.3-1.8,5.3-5.1,5.8c-2.2,0.4-4.4,1-6.6,1.1c-4.5,0.2-6.3,2.9-8.4,6.6
					c-4,7.1-2.8,12.6,2.3,18.4c3.5,4.1,3,6.1-0.8,9.9c-2.4,2.4-4.7,4.8-7.1,7.1c-3,2.9-5.1,3.1-8.6,0.8c-1.9-1.3-3.9-2.6-5.7-4.1
					c-2.8-2.4-5.8-2.6-9-1c-0.1,0.1-0.2,0.1-0.3,0.2c-7.3,1.7-10.9,6-11.4,13.8c-0.4,6.8-2,7.5-8.9,7.5c-3.2,0-6.5,0-9.7,0
					s-5.1-1.6-5.7-4.8c-0.5-2.8-1-5.6-1.4-8.4c-0.4-3-1.9-5-4.8-6c-0.9-0.3-2-0.5-2.8-1c-6-4.3-10.9-2.3-16,1.9
					c-5.8,4.6-7,4.2-12.2-1c-2.1-2.1-4.2-4.2-6.3-6.3c-2.5-2.5-2.7-5.2-0.7-8c0.2-0.2,0.3-0.4,0.4-0.6c6.5-6.1,6.7-12.8,2.4-20.3
					c-1.6-2.7-3.1-4.6-6.3-5.1c-2.7-0.4-5.4-1-8.1-1.4c-3.2-0.5-4.8-2.5-4.9-5.6c-0.1-4.2-0.2-8.4,0-12.7c0.1-3.3,2-5.2,5.3-5.7
					c0.4,0,0.7-0.1,1.1-0.2c14.5-2.5,10-1,15.9-13.3c1.1-2.3,0.9-4.6-0.6-6.7c-1.7-2.4-3.4-4.9-5.1-7.3c-1.7-2.5-1.7-4.9,0.4-7.1
					c3.1-3.2,6.3-6.4,9.5-9.5C160,369.3,161.2,368.8,162.7,368.9"/>
			</g>
		</g>
		<g>
			<g>
				<defs>
					<path id="SVGID_00000106849693407462572230000005079178921156964245_" d="M40.7,280c0,132.2,107.1,239.3,239.3,239.3
						S519.3,412.2,519.3,280S412.2,40.7,280,40.7S40.7,147.8,40.7,280"/>
				</defs>
				<clipPath id="SVGID_00000181057839952370942510000018228144811517706658_">
					<use xlink:href="#SVGID_00000106849693407462572230000005079178921156964245_"  style="overflow:visible;"/>
				</clipPath>
				<path style="clip-path:url(#SVGID_00000181057839952370942510000018228144811517706658_);fill:#EA600A;" d="M336.7,368.3
					c0.1-11.4-8.9-20.6-20.4-20.7c-11.2-0.2-20.6,9.2-20.6,20.6c0,11.3,9.1,20.3,20.7,20.5C327.5,388.8,336.6,379.7,336.7,368.3
					 M340.3,411.9c-2.5-0.2-3.7-1.9-5.1-3.3c-4.1-3.8-9.2-4.3-13.7-1.4c-1.9,1.3-2.2,3.5-2.9,5.5c-1.8,5.7-2.5,6.1-8.6,5.1
					c-8.4-1.4-8.6-0.3-8.9-9.8c-0.2-5.7-8.1-10.3-13.2-7.6c-7.8,4.1-7.3,3.8-12.4-3.1c-4.1-5.5-4.1-5.5,0.6-10.5
					c5.4-5.7,3.3-14-4.1-16.3c-6.5-2-6.5-2-5.5-8.9c0.2-1.1,0.5-2.2,0.5-3.3c0.2-4,2.4-5.4,6.1-5.1c4.3,0.4,7.3-0.8,9.9-4.9
					c2.5-4.1,1.8-7.3-0.2-11c-2.4-4.3-2.1-5.1,1.7-8c0.1-0.1,0.2-0.2,0.3-0.2c6.9-4.9,6.7-7.4,14.3,0.3c3.5,3.6,12.9,1,14.5-3.7
					c2.7-8.1,1.6-8.7,11.8-6.9c6,1.1,6.1,1.1,6.2,7c0.2,8.9,7.4,13.2,15.1,9.1c5.2-2.7,5.5-2.6,9.1,2.1c0.3,0.4,0.6,0.8,0.9,1.2
					c4.6,6.2,4.6,6.2-0.6,11.7c-4.8,5.1-2.7,13.6,4,15.7c6.7,2.2,6.7,2.2,5.7,9.1c-0.1,0.7-0.1,1.5-0.3,2.2
					c-0.9,5.7-1.3,6.1-7.1,6.2c-5.7,0.1-10.2,3.8-11.1,9.2c-0.4,2.5,1.3,4.4,2.3,6.5c2.1,4.4,2.1,5.3-1.9,8.1
					C345.3,408.8,343.2,411.3,340.3,411.9"/>
			</g>
		</g>
	</g>
	<polygon class="st3" points="488,391.7 261,391.7 261,67.7 394,67.7 394,61.9 255.2,61.9 255.2,397.4 488,397.4 	"/>
	<g id="Capa_2">
		<path class="st4" d="M256.9,111.7l241.1,241.1c0.7-2.1,1.4-4.3,2-6.4L256.9,103.2V111.7z"/>
		<polygon class="st4" points="256.9,163.3 256.9,171.8 481.4,396.3 485.7,392.1 		"/>
		<path class="st4" d="M474.6,157.8L256.9,375.5v8.5l220.9-220.9C476.8,161.3,475.7,159.5,474.6,157.8z"/>
		<path class="st4" d="M448.5,123.8L258.2,314.1v8.5l194.3-194.3C451.2,126.7,449.8,125.2,448.5,123.8z"/>
		<path class="st4" d="M416.8,95.4L256.9,255.3v8.5L421.6,99C420.1,97.8,418.4,96.6,416.8,95.4z"/>
		<path class="st4" d="M277.9,64h-8.5l239.3,239.3c0.3-2.6,0.5-5.2,0.6-7.8L277.9,64z"/>
		<path class="st4" d="M338,64h-8.5l177,177c-0.6-3.5-1.3-7.1-2.1-10.6L338,64z"/>
		<polygon class="st4" points="386.4,65.6 256.9,195.1 256.9,203.6 394.9,65.6 		"/>
		<polygon class="st4" points="326.3,65.6 256.9,134.9 256.9,143.4 334.8,65.6 		"/>
		<polygon class="st4" points="267.8,64 256.9,74.9 256.9,83.3 276.2,64 		"/>
		<path class="st4" d="M298.1,394.5h8.5L497,204.1c-0.7-2.1-1.5-4.2-2.3-6.2L298.1,394.5z"/>
		<polygon class="st4" points="309.5,396.3 256.9,343.7 256.9,352.2 301,396.3 		"/>
		<polygon class="st4" points="367.9,394.5 256.9,283.6 256.9,292.1 359.4,394.5 		"/>
		<polygon class="st4" points="429.8,396.3 256.9,223.5 256.9,232 421.3,396.3 		"/>
		<path class="st4" d="M356.3,396.3h8.5l143.5-143.5c-0.3-2.5-0.6-5-1-7.5L356.3,396.3z"/>
		<path class="st4" d="M416.5,396.3h8.5l82.4-82.4c0.5-3.2,0.9-6.5,1.2-9.7L416.5,396.3z"/>
	</g>
</g>
<path class="st3" d="M280,528.8C142.8,528.8,31.2,417.2,31.2,280S142.8,31.2,280,31.2S528.8,142.8,528.8,280S417.2,528.8,280,528.8z
	 M280,50.1C153.3,50.1,50.1,153.3,50.1,280S153.3,509.9,280,509.9S509.9,406.8,509.9,280S406.7,50.1,280,50.1z"/>
</svg>
