<?xml version="1.0" encoding="utf-8"?>
<!-- Generator: Adobe Illustrator 25.4.1, SVG Export Plug-In . SVG Version: 6.00 Build 0)  -->
<svg version="1.1" id="Capa_1" xmlns="http://www.w3.org/2000/svg" xmlns:xlink="http://www.w3.org/1999/xlink" x="0px" y="0px"
	 viewBox="0 0 560 560" style="enable-background:new 0 0 560 560;" xml:space="preserve">
<style type="text/css">
	.st0{fill:#EA600A;}
</style>
<g id="LAPIZ">
	<path class="st0" d="M307.8,170.4c-2.8,4.1-5.6,8.1-8.6,12 M244.4,291.8c1.4,0,2.4-0.5,3.2-1.6 M231.7,355.8c0-0.5,0.1-1.1,0-1.6
		c-0.4-1.4,1.1-3.8-1-4.1c-2.3-0.4-5-1.1-6.8,1.9c-2.5,4.1-5.3,8.1-8.2,12c-1.2,1.6-0.9,2.6,0.7,3.7c5,3.7,12.5,1.4,14.6-4.5
		C231.9,360.7,231.6,358.2,231.7,355.8 M251,355.8c0,1.3,0,2.6,0,3.9c0.2,5.1,3.8,9.1,8.6,9.6c5.2,0.5,9.6-2.5,10.5-7.8
		c0.6-3.3,0.2-6.8,0.3-10.3c0-1.5-1-1.4-2-1.4c-3.9,0-7.7,0-11.6,0C251,349.9,251,349.9,251,355.8 M178.3,366.8
		c5.1-2.7,9.3-5.4,13.8-7.3c4.7-2,7.2-5.8,9.9-9.7c0.8-1.1,0.6-1.6-0.6-2.1c-4.8-2.1-8.9-5.1-12.1-9.3c-0.4-0.6-1-1.5-1.7-0.6
		c-2.1,2.8-5.3,5.1-6,8.6C180,352.9,179.4,359.5,178.3,366.8 M250.5,250.8c-8.9,12.5-17.8,25-26.7,37.5 M426.6,310.8L426.6,310.8
		c0,18.5,0.1,37,0,55.5c0,2.4,0.7,3.1,3.1,3c4.4-0.2,8.8-0.2,13.2,0c2.6,0.1,3.2-0.6,3.2-3.2c-0.1-16.8-0.1-33.5-0.1-50.3
		c0-19.9,0-39.8,0.1-59.7c0-2.6-0.7-3.3-3.2-3.1c-4.3,0.2-8.6,0.2-12.9,0c-2.6-0.1-3.4,0.6-3.4,3.3
		C426.6,274.5,426.6,292.6,426.6,310.8 M252,214.5c-2.2,0.4-3.8,0.4-5.3,1.1c-11.3,5-22.6,9.9-33.9,14.8c-2.4,1-4.2,2.5-5.6,4.6
		c-17.1,26.9-34.2,53.9-51.3,80.8c-1.8,2.8-2.2,5.8-0.9,8.9c1.3,3.2,3.8,5.3,7.2,5.8c3.5,0.5,6.6,0.1,9-3.3
		c4.6-6.6,9.9-12.8,14.6-19.3c19.4-26.9,38.6-54,57.9-81C246.4,223,249.4,219.4,252,214.5 M270.4,291.5c4.3,0.5,7.8-0.1,11.4-0.7
		c11.7-1.9,21.7-7.2,30.2-15.4c2.3-2.2,5-3.3,8.2-2.7c4,0.8,6.8,3,7.9,7.1c1.1,3.9-0.2,7.2-3,9.9c-14.4,13.9-31.7,21.1-51.6,21.4
		c-19.9,0.3-39.8,0.1-59.7,0.1c-6.4,0-11.2,4.3-11.1,10c0.1,5.6,4.6,9.4,11.2,9.4c20.7,0,41.5,0.1,62.3-0.1c4.7,0,8.8,1,12.9,3.3
		c23.8,13.6,49.1,19,76.4,15c14.3-2.1,27.6-6.8,40.3-13.5c1.2-0.7,1.6-1.4,1.6-2.8c0-19.3,0-38.5,0-57.8c0-1.9-0.6-2.3-2.4-2.3
		c-4.4,0.1-8.8-0.1-13.2,0.1c-4.1,0.2-7.7-0.9-11.4-2.6c-22.7-11-45.4-21.8-68.2-32.7c-2-0.9-3.1-1-4.4,1.1
		c-3.7,5.7-7.7,11.1-11.6,16.7C287.6,266.9,279.2,279,270.4,291.5 M407.2,356.3c-39.3,17.2-78.2,17.8-117.2,0.1
		c-0.6,2.9-0.2,5.7-0.7,8.4c-4.2,21.4-28.1,31.1-45.7,18.4c-1.8-1.3-2.7-1.4-4.5,0c-11.6,8.8-28.1,7.2-38.3-3.6
		c-1.4-1.5-2.3-1.5-4-0.6c-8.5,4.7-17,9.2-25.5,13.8c-3.7,2-7.3,2.4-10.9,0c-3.7-2.4-4.7-6-4.1-10.1c1.3-9.4,2.8-18.8,4.3-28.2
		c0.5-2.8,0.3-4.4-3.2-5.2c-19.3-4.2-28.6-26.6-18.1-43.3c17.1-27.1,34.4-54,51.4-81.1c4.8-7.7,12.2-11.4,20.2-14.7
		c9.5-4,19-8.1,28.3-12.3c7.5-3.3,15-3.4,22.5-0.5c2.1,0.8,2.9,0.4,4.1-1.2c10.7-15.1,21.4-30.1,32.1-45.2c4.5-6.3,9.7-7.2,16-2.8
		c9.8,6.9,19.7,13.8,29.6,20.7c5.5,3.9,6.5,9.2,2.6,14.8c-7.9,11.4-15.8,22.8-23.9,34.1c-1.3,1.9-1,2.4,0.9,3.3
		c21.9,10.4,43.7,20.9,65.6,31.4c1,0.5,1.9,0.8,3.1,0.8c4.4-0.1,8.8-0.1,13.2,0c1.9,0.1,2.4-0.6,2.3-2.4c-0.1-2.5-0.1-4.9,0-7.4
		c0.1-5.5,4.2-9.5,9.7-9.5c12.5,0,25,0,37.4,0c7.1,0,11,3.8,11,10.9c0,34.4,0,68.8,0,103.3c0,10,0,20,0,30c0,6.6-4,10.7-10.6,10.7
		c-12.3,0-24.5,0-36.8,0c-6.6,0-10.7-4-10.7-10.6C407.2,370.9,407.2,363.8,407.2,356.3"/>
</g>
<path class="st0" d="M280,528.8C142.8,528.8,31.2,417.2,31.2,280S142.8,31.2,280,31.2S528.8,142.8,528.8,280S417.2,528.8,280,528.8z
	 M280,50.1C153.3,50.1,50.1,153.3,50.1,280S153.3,509.9,280,509.9S509.9,406.8,509.9,280S406.7,50.1,280,50.1z"/>
</svg>
