<?xml version="1.0" encoding="utf-8"?>
<!-- Generator: Adobe Illustrator 25.4.1, SVG Export Plug-In . SVG Version: 6.00 Build 0)  -->
<svg version="1.1" id="Capa_1" xmlns="http://www.w3.org/2000/svg" xmlns:xlink="http://www.w3.org/1999/xlink" x="0px" y="0px"
	 viewBox="0 0 560 560" style="enable-background:new 0 0 560 560;" xml:space="preserve">
<style type="text/css">
	.st0{fill:#EA600A;}
</style>
<g id="RADIO">
	<path class="st0" d="M336.3,307.9c-1.4,4.2-2.5,4.7-6.8,3.3c-28.5-9.2-56.9-18.5-85.4-27.7c-4.3-1.4-4.9-2.5-3.6-6.7
		c3.6-11.2,7.3-22.5,10.9-33.7c1.4-4.2,2.3-4.7,6.5-3.3c14.4,4.7,28.8,9.4,43.3,14.1c14.2,4.6,28.4,9.2,42.7,13.9
		c4.2,1.4,4.7,2.3,3.3,6.5C343.7,285.5,340,296.7,336.3,307.9 M305.9,389.3c-1.9,3.2-3.8,6.4-6.1,9.4c-0.9,1.1-1.7,1.4-3.1,1
		c-26-8.5-52-16.9-78-25.3c-1.4-0.5-1.8-1.2-1.9-2.6c-0.2-4.2,0.1-8.3,0.8-12.4c0.3-1.9,0.8-2.1,2.5-1.5c9.4,3.1,18.7,6.1,28.1,9.2
		c4.9,1.6,9.9,3.2,14.8,4.8c13.6,4.4,27.2,8.9,40.9,13.2C306.6,385.9,307.6,386.5,305.9,389.3 M220.3,385.9
		c22.8,7.4,45.4,14.8,68.3,22.2C265.2,424.1,230.4,413.2,220.3,385.9 M242.8,311.2c-4.9-1.5-7.7-7-6.1-12c1.6-5,6.8-7.8,11.8-6.4
		c5,1.5,7.9,7.2,6.3,12.2C253.2,309.9,247.7,312.7,242.8,311.2 M307,360.2c2.6,0.8,3.5,2,3.5,4.6c0,3,0.1,6.1-0.1,9.1
		c-0.1,2.1-0.8,2.2-2.6,1.6c-14.1-4.7-28.2-9.2-42.3-13.8c-13.7-4.5-27.4-9-41.2-13.3c-2.5-0.8-2.9-1.6-1.2-3.6
		c0.1-0.1,0.2-0.4,0.3-0.5c5.3-9.1,5.8-9.3,15.7-6.1C261.8,345.6,284.4,353,307,360.2 M241,327.9c19.8-13.1,53.4-5.8,65.3,21.2
		C284.3,342,262.7,334.9,241,327.9 M368.8,268.4c2.3-7.2,0.1-13.9-5.8-17.2c-2.1-1.2-4.5-1.8-6.8-2.5c-1.5-0.4-1.9-1.1-1.3-2.6
		c0.7-1.9,1.3-3.9,1.9-5.8c1.2-3.8,0.4-5.3-3.2-6.5c-5-1.7-10.1-3.3-15.1-4.9c-3.8-1.2-5.3-0.4-6.5,3.2c-0.7,1.9-1.4,3.8-1.9,5.8
		c-0.4,1.7-1.1,2-2.8,1.4c-10.4-3.5-20.9-6.9-31.4-10.2c-1.6-0.5-1.9-1.1-1.5-2.8c1.4-5.1,0.5-9.8-3.4-13.4
		c-1.6-1.5-1.5-2.7-0.9-4.4c6.9-21.2,13.8-42.4,20.7-63.6c1.3-4,2.6-7.9,3.9-11.9c1.1-3.5,0.2-6.5-2.5-8.4
		c-4.3-3.2-9.7-1.2-11.7,4.6c-2.8,8.5-5.5,17-8.3,25.6c-5.4,16.6-10.7,33.1-16.2,49.6c-0.3,1-0.1,2.3-2,2.5
		c-5.8,0.6-9.8,3.8-11.8,9.2c-0.5,1.4-1.1,2-2.6,1.3c-0.7-0.4-1.6-0.5-2.3-0.8c-9.4-3.9-17.2,1.5-20,10
		c-18,55.9-36.2,111.7-54.4,167.6c-3.2,9.8,0.3,16.7,10.1,19.9c33.7,11,67.4,21.9,101,32.8c10,3.3,16.8-0.2,20.1-10.3
		c9-27.8,18-55.6,27.1-83.3c4-12.5,8.1-25,12.2-37.5C358.6,299.9,363.7,284.2,368.8,268.4"/>
</g>
<path class="st0" d="M280,528.8C142.8,528.8,31.2,417.2,31.2,280S142.8,31.2,280,31.2S528.8,142.8,528.8,280S417.2,528.8,280,528.8z
	 M280,50.1C153.3,50.1,50.1,153.3,50.1,280S153.3,509.9,280,509.9S509.9,406.8,509.9,280S406.7,50.1,280,50.1z"/>
</svg>
