<?xml version="1.0" encoding="utf-8"?>
<!-- Generator: Adobe Illustrator 25.4.1, SVG Export Plug-In . SVG Version: 6.00 Build 0)  -->
<svg version="1.1" id="Capa_1" xmlns="http://www.w3.org/2000/svg" xmlns:xlink="http://www.w3.org/1999/xlink" x="0px" y="0px"
	 viewBox="0 0 560 560" style="enable-background:new 0 0 560 560;" xml:space="preserve">
<style type="text/css">
	.st0{fill:#EA600A;}
</style>
<g id="CANDADO">
	<path class="st0" d="M261.5,356.1c-1.6,0.1-3.5-0.2-4.5,1.6c-0.6,1.1-0.2,2.3,0.6,2.9c5,3.5,7.8,8.7,11.1,13.6
		c1.8,2.8,3.4,1.2,4.4-1.2C275.8,365.8,269.1,356.1,261.5,356.1 M217.6,420.3c0-4.1-1.9-6.9-5.9-7.8c-5-1.1-7.7,2.1-8.8,6.2
		c-1.2,4.6-2.6,8.8-5.9,12.3c-1.4,1.5-3.1,3.6-1.1,5.5c2.3,2.2,4.3,0,5.9-1.6c3.5-3.4,6.5-7,11.8-8
		C216.7,426.3,217.3,423.2,217.6,420.3 M250.3,400.2c0-1.2-0.5-2.1-1.5-2.6c-9.5-4.7-15.5-12.3-18.5-22.3c-0.3-1.1-1.1-2.1-2.3-1.8
		c-4.2,1.1-5.5,5.1-7.8,8c-1.7,2.1-1.3,4.6,0.7,6.3c6.8,6,13.7,12.1,20.8,17.7C244.8,407.8,250.4,404.1,250.3,400.2 M260.7,278.3
		c-7.9,0-12.2,4.1-12.3,11.9c-0.1,7.2,5,12.3,12.3,12.4c7.4,0.1,12.7-4.8,12.9-11.9C273.8,283.3,268.6,278.3,260.7,278.3
		 M299.5,289.1c-0.4,7.5,4.4,12.9,11.5,13.2c6.7,0.3,13.3-5.4,13.5-11.7c0.3-7.3-4.6-12.9-11.6-13.3
		C305.2,276.7,299.9,281.4,299.5,289.1 M324.7,368.7c-0.1-6.6-6.6-13.6-12.7-13.5c-7,0-12.7,6.4-12.4,14.1
		c0.2,7.2,5.1,12.1,12.1,12.1C318.9,381.4,324.7,375.7,324.7,368.7 M261.1,341.9c7.4,0,12.5-5.3,12.6-13c0-6.4-6.1-12.9-12.4-13.2
		c-6.4-0.2-12.9,6.5-12.8,13.2C248.5,336.7,253.6,342,261.1,341.9 M299.5,327.9c-0.1,7.3,5.3,13.6,11.9,13.9
		c6.6,0.3,13.2-6.5,13.2-13.6c0-6.2-6.2-12.5-12.7-12.8C305.2,315.2,299.7,320.7,299.5,327.9 M285.2,203.2
		c31.9,0.8,53.5-24.8,53-51.9c-0.5-30.4-21.7-52.5-53.2-52.9c-27.8-0.3-51.8,21.1-52.2,52.8C232.5,180,256.6,204.5,285.2,203.2
		 M229.2,316.3c0.6-9.7-1.1-21.7,0.8-33.5c2.5-15.6,12.3-24.8,27.2-28.3c4.7-1.1,6.7-3,6.3-7.6c0-0.6-0.1-1.3,0-1.9
		c2.1-15.8,0.5-29.5-18.2-34.2c-24.4-18-36.1-42.3-30.8-71.9c5.3-29.2,23.6-49.8,52.9-56.8c29.6-7.1,58.3,2,77.6,30.3
		c24,35.2,9.8,87.7-31.6,104.3c-4.6,1.8-6.6,4.7-6.4,9.7c0.3,7.2,0.1,14.4,0.1,21.7c0,3.8,1.5,5.8,5.5,6.3
		c15.6,2.2,29.8,18.4,29.2,35.6c-1,25.9-0.7,51.8-0.1,77.7c0.3,16-15.5,34-33.4,33.2c-11.3-0.5-22.5,0.1-33.8-0.1
		c-4.5-0.1-7.7,1.1-10.1,5.1c-1.4,2.3-3.4,4.4-5.2,6.4c-2.4,2.7-3,5-1,8.5c3.5,6,2.1,12.7-2.6,18.1c-9.9,11.3-19.8,22.7-29.6,34.2
		c-7.6,8.9-14.7,9.8-23.4,2.3c-15.8-13.5-31.5-27.1-47.2-40.8c-6.4-5.6-7-13.9-1.4-20.4c10.8-12.6,21.6-25,32.5-37.5
		c4.3-4.9,9.8-6.3,15.6-3.6c4.5,2.1,6.9,0.9,9.7-2.5c2.7-3.3,5.5-6.7,9-8.9c6.8-4.3,9-9.9,8.5-17.7
		C228.8,335.4,229.2,326.9,229.2,316.3"/>
</g>
<path class="st0" d="M280,528.8C142.8,528.8,31.2,417.2,31.2,280S142.8,31.2,280,31.2S528.8,142.8,528.8,280S417.2,528.8,280,528.8z
	 M280,50.1C153.3,50.1,50.1,153.3,50.1,280S153.3,509.9,280,509.9S509.9,406.8,509.9,280S406.7,50.1,280,50.1z"/>
</svg>
