<?xml version="1.0" encoding="utf-8"?>
<!-- Generator: Adobe Illustrator 25.4.1, SVG Export Plug-In . SVG Version: 6.00 Build 0)  -->
<svg version="1.1" id="Capa_1" xmlns="http://www.w3.org/2000/svg" xmlns:xlink="http://www.w3.org/1999/xlink" x="0px" y="0px"
	 viewBox="0 0 560 560" style="enable-background:new 0 0 560 560;" xml:space="preserve">
<style type="text/css">
	.st0{fill:#EA600A;}
</style>
<g id="ESCUDO_OK">
	<path class="st0" d="M205.6,280.1c-0.2,40.2,32.6,73.5,73.1,73.5c20,0,37.3-7,51.5-21c15.9-15.7,23.1-35,21.9-57.2
		c-2-35.8-31.6-68.4-72.6-68.8C238.4,206.1,205.4,239.4,205.6,280.1 M403.8,230.2c0,9.7,0.1,18.2-0.1,26.7
		c-0.1,4.1-0.5,8.1-0.9,12.2c-0.3,3.2-0.4,6.4-0.8,9.5c-0.5,5-1.4,10-2.2,15c-2.1,13.7-5.6,27-10.8,40c-7.8,19.5-19,36.8-34,51.5
		c-12.1,11.8-25.8,21.2-40.8,29c-8.9,4.6-18.1,8.4-27.5,11.9c-5.2,1.9-10.3,2-15.6,0.1c-9.9-3.6-19.5-7.6-28.8-12.5
		c-14.4-7.5-27.8-16.7-39.5-28.1c-9-8.7-16.7-18.5-23.2-29.2c-5.3-8.9-9.8-18.1-13.2-27.9c-3.3-9.1-5.8-18.4-7.6-27.9
		c-1.2-6.4-2.1-12.9-3-19.4c-0.8-5.6-0.9-11.3-1.4-17c-1.3-14.7-0.6-29.5-0.6-44.3c0-5.1-0.1-10.1,0.1-15.2
		c0.7-12.8,6.2-22.9,17.9-29c3.7-1.9,7.7-2.6,11.8-3.2c3.3-0.5,6.5-0.4,9.8-0.9c6.6-0.9,13.1-2,19.6-3.7c11-2.9,21.4-7.2,31.1-13.2
		c7.1-4.4,13.7-9.5,19.8-15.2c2.2-2,4.3-4,7.1-5.2c7.1-3.3,13.7-2.2,19.8,2.6c3.8,3,7.1,6.5,10.9,9.5c9.1,7.2,19,13,29.8,17.2
		c7.4,2.9,14.9,5,22.7,6.4c5.4,1,10.8,1.6,16.3,2c4.9,0.3,9.8,1,14.4,3.1c6.6,3,11.6,7.6,15,13.9c2.7,5,3.9,10.5,4,16.1
		C403.9,214,404,222.7,403.8,230.2"/>
	<path class="st0" d="M241.9,288.4c-0.3,2.4,1.1,4.7,3,6.6c1.9,1.9,3.9,3.9,5.8,5.8c2.9,2.9,5.8,5.9,8.8,8.8c2.8,2.7,6.1,3.7,9.9,2
		c1.6-0.7,2.7-1.8,3.9-3c4-4,8.1-8.1,12.1-12.2c8.7-8.7,17.4-17.5,26.2-26.2c2.7-2.7,3.5-5.7,2.7-9.3c-1.3-5.7-8.9-8.2-13.6-4.5
		c-2,1.6-3.7,3.6-5.5,5.4c-9.6,9.6-19.1,19.2-28.7,28.8c-0.5,0.5-0.8,0.5-1.2,0c-0.4-0.4-0.8-0.8-1.1-1.1c-2.6-2.6-5.1-5.1-7.7-7.7
		c-2.8-2.7-6.1-3-9.5-1.7C243.8,281.5,241.9,284.2,241.9,288.4 M334.8,280c-0.1,30.9-25.2,56-55.9,56.1c-30.4,0.1-56-24.6-56.1-56.3
		c0-30,25-57.6,58.9-55.9C311.7,225.5,334.6,250.2,334.8,280"/>
</g>
<path class="st0" d="M280,528.8C142.8,528.8,31.2,417.2,31.2,280S142.8,31.2,280,31.2S528.8,142.8,528.8,280S417.2,528.8,280,528.8z
	 M280,50.1C153.3,50.1,50.1,153.3,50.1,280S153.3,509.9,280,509.9S509.9,406.8,509.9,280S406.7,50.1,280,50.1z"/>
</svg>
