<?xml version="1.0" encoding="utf-8"?>
<!-- Generator: Adobe Illustrator 25.4.1, SVG Export Plug-In . SVG Version: 6.00 Build 0)  -->
<svg version="1.1" id="Capa_1" xmlns="http://www.w3.org/2000/svg" xmlns:xlink="http://www.w3.org/1999/xlink" x="0px" y="0px"
	 viewBox="0 0 560 560" style="enable-background:new 0 0 560 560;" xml:space="preserve">
<style type="text/css">
	.st0{fill:#EA600A;}
	.st1{fill:#FFFFFF;}
</style>
<g id="Capa_4">
	<path class="st0" d="M204.4,522h-14.6v-20.3c-2.4-45.1-22.8-63.7-34.8-70.8c-14.7-8.7-18.2-9.4-29.8-11.8
		c-3.5-0.7-7.6-1.5-12.8-2.7l-7-1.6c-9.8-2.1-19.9-4.3-29.5-8.7c-14.6-6.6-24.8-17.3-28-29.4c-3.3-12.7,2.2-25.6,6.6-35.9
		c0.6-1.4,1.2-2.9,1.8-4.3c0.9-2.1,0.6-4.6-0.7-6.5c-0.4-0.6-1-1.2-1.7-2c-1.1-1.2-2.5-2.8-3.6-4.8c-3.1-5.3-3.2-11.9-0.3-17.3
		c0.6-1.2,1.5-2.4,2.6-3.5c-0.4-0.5-0.7-1-1-1.5c-3.8-6.7-2.9-13.9,2.3-17.9c4.8-3.8,8.9-7.3,10-11.1c0.1-0.5,0.2-0.8,0.2-1.2
		c-5.3-3.4-10.6-7.1-14.7-12.3c-6.2-7.7-8-17.3-4.8-25.1c3-7.5,9.9-12,14.9-15.3c3.6-2.4,7.3-4.6,10.8-6.7l1.3-0.8
		c10.7-6.4,20.8-12.4,28.1-21.1c5.7-6.7,8.9-15.1,12.3-24l0.1-0.3c1.4-3.6,3-7.8,4.8-11.7c8.8-19.5,22.6-35.8,36.1-51.6
		c15.3-18.1,43.7-34.8,52-39.5c42.9-24.3,77.6-25.1,115.2-23.7c43.3,1.6,85,14.7,117.5,36.8c22.8,15.5,42.2,36.5,56,60.6
		c13.8,24.1,21.8,50.9,23.1,77.5c1.3,26.6-4.2,54-15.6,79.1c-11.4,25.1-28.8,47.6-50.1,65.1c-17.7,14.5-28.3,24.4-43.7,41
		c-26.2,28.1-32.1,71-14.5,104.4l2.2,4.2l-13.2,6.2l-2-3.8c-20.4-38.6-13.6-88.2,16.6-120.6c16-17.2,26.9-27.4,45.1-42.3
		c19.6-16.1,35.6-36.8,46.1-60c10.6-23.2,15.5-48.3,14.4-72.6c-1.2-24.3-8.5-48.9-21.2-71.2c-12.7-22.2-30.6-41.5-51.6-55.9
		c-30.2-20.5-69.1-32.7-109.6-34.2c-42.8-1.6-71.2,1.3-107.3,21.8c-7.8,4.4-34.3,20.1-48.1,36.3l-0.1,0.1
		c-12.7,15-25.9,30.5-33.8,48.1c-1.6,3.4-3,7.2-4.3,10.8l-0.2,0.5c-3.7,9.6-7.5,19.5-14.8,28.1c-8.9,10.5-20.5,17.5-31.7,24.2
		c-3.6,2.1-7.7,4.6-11.7,7.2c-4.4,2.9-8.2,5.7-9.5,8.8c-1.5,3.7,0.6,8.2,2.8,11c3.5,4.3,8.9,7.7,13.7,10.7c1.5,0.9,2.5,2.3,3,3.9
		c1.3,4.2,1.4,7.5,0.4,11.3c-2.2,8.1-8.9,13.9-13.9,17.8c0.1,0.2,0.2,0.4,0.3,0.7c0.5,0.9,1.6,1.6,2.7,1.7c3.7,0.4,6.6,3.4,6.6,7
		c0.1,3.7-2.7,6.8-6.4,7.2c-1.6,0.2-3.8,1.7-4.3,2.7c-0.6,1.1-0.6,2.5,0,3.6c0.4,0.6,1.1,1.4,1.8,2.3l0.1,0.2c0.8,0.9,1.9,2,2.8,3.4
		c4,5.8,4.8,13.4,2.2,19.9c-0.6,1.5-1.2,2.9-1.8,4.4l-0.1,0.1c-4,9.3-8.1,18.8-6,26.9c2.1,7.9,9.3,15.2,19.9,20
		c8.4,3.8,18.2,5.9,26.8,7.7l6.9,1.5c4.4,1,8.1,1.8,12.3,2.6c12.5,2.6,17.7,3.6,34.5,13.6c15.7,9.3,27.2,24,34.3,43.7
		c4.2,11.5,6.8,24.9,7.5,38.8l0,0.4V522z M66.2,300.8C66.2,300.8,66.2,300.8,66.2,300.8C66.2,300.8,66.2,300.8,66.2,300.8z
		 M63.1,294C63.1,294,63.1,294,63.1,294C63.1,294,63.1,294,63.1,294z"/>
	<path class="st0" d="M184.3,242.2c-7.1,0-14-1.4-20.6-4.1c-12.7-5.3-23.4-15.8-29.4-28.6c-0.8-1.8-0.9-3.7-0.2-5.5
		c0.7-1.8,2.1-3.2,3.9-4c3.7-1.5,7.9,0.1,9.6,3.6c4.5,9.7,12.5,17.5,21.9,21.4c9.2,3.9,19.8,3.9,29.1,0.2c3.7-1.5,7.9,0.2,9.5,3.8
		c0.8,1.7,0.8,3.7,0.1,5.5c-0.7,1.8-2.2,3.3-4.1,4C197.9,240.8,191.1,242.2,184.3,242.2z M200.8,230C200.8,230,200.8,230,200.8,230
		C200.8,230,200.8,230,200.8,230z"/>
	<g>
		<path class="st0" d="M111.5,131c-0.7,1.2-1.4,2.3-2.1,3.5l-0.4,0.7l4.4,2.3l0.4-0.6c0.7-1.1,1.3-2.3,2-3.4l0.4-0.7l-4.4-2.4
			L111.5,131z"/>
		<path class="st0" d="M115.9,124.1c-0.8,1.1-1.5,2.3-2.2,3.4l-0.4,0.7l4.3,2.4l0.4-0.6c0.7-1.1,1.4-2.2,2.2-3.3l0.4-0.7l-4.3-2.5
			L115.9,124.1z"/>
		<path class="st0" d="M120.7,117.4c-0.8,1-1.6,2.1-2.4,3.3l-0.5,0.6l4.2,2.6l0.4-0.6c0.8-1.1,1.5-2.2,2.3-3.2l0.5-0.6l-4.1-2.7
			L120.7,117.4z"/>
		<path class="st0" d="M107.4,138.1c-0.6,1.2-1.3,2.4-1.9,3.6l-0.4,0.7l4.5,2.1l0.3-0.7c0.6-1.2,1.2-2.3,1.8-3.5l0.4-0.7l-4.5-2.1
			L107.4,138.1z"/>
		<path class="st0" d="M97.4,160.3c-0.5,1.3-0.9,2.5-1.3,3.8l-0.2,0.7l4.8,1.4l0.5-1.4c0.3-1,0.7-2,1.1-3l0.3-0.7l-4.8-1.6
			L97.4,160.3z"/>
		<path class="st0" d="M100.4,152.7c-0.5,1.2-1,2.5-1.5,3.8l-0.3,0.7l4.7,1.7l0.3-0.7c0.5-1.2,1-2.5,1.5-3.7l0.3-0.7l-4.7-1.7
			L100.4,152.7z"/>
		<path class="st0" d="M103.7,145.5c-0.6,1.2-1.1,2.3-1.6,3.5l-0.3,0.7l4.6,1.9l0.3-0.7c0.6-1.4,1.2-2.6,1.7-3.6l0.3-0.7l-4.6-1.9
			L103.7,145.5z"/>
		<path class="st0" d="M125.7,110.9c-0.9,1.1-1.7,2.2-2.6,3.2l-0.5,0.6l4.1,2.8l0.4-0.6c0.6-0.8,1.2-1.6,1.8-2.3l1.2-1.4l-4-2.9
			L125.7,110.9z"/>
		<path class="st0" d="M162.1,77c-1.1,0.8-2.3,1.6-3.4,2.4l-0.6,0.5l3.1,3.8l0.6-0.4c1.1-0.8,2.2-1.6,3.3-2.4l0.7-0.5l-3-3.8
			L162.1,77z"/>
		<path class="st0" d="M155.4,82c-1.1,0.8-2.2,1.7-3.3,2.6l-0.6,0.5l3.3,3.6l1-0.8c0.9-0.7,1.9-1.5,2.8-2.2l0.6-0.5l-3.2-3.7
			L155.4,82z"/>
		<path class="st0" d="M169.7,72l-1.7,1.1c-0.8,0.5-1.6,1-2.4,1.5l-0.7,0.4l2.9,3.9l0.6-0.4c1.2-0.8,2.3-1.6,3.4-2.2l0.7-0.4
			L169.7,72z"/>
		<path class="st0" d="M136.7,98.5c-1,1-1.9,2-2.9,3l-0.6,0.6l3.8,3.1l0.5-0.5c0.9-1,1.9-1.9,2.8-2.9l0.6-0.6l-3.7-3.2L136.7,98.5z"
			/>
		<path class="st0" d="M131.1,104.6c-0.9,1-1.8,2.1-2.7,3.1l-0.5,0.6l3.9,3l0.5-0.6c0.8-1,1.7-1.9,2.5-2.9l0.7-0.7l-3.9-3.1
			L131.1,104.6z"/>
		<path class="st0" d="M142.7,92.8c-1,0.9-2,1.9-3,2.9l-0.6,0.6l3.7,3.3l0.5-0.5c1-0.9,1.9-1.9,2.9-2.8l0.6-0.5l-3.6-3.4L142.7,92.8
			z"/>
		<path class="st0" d="M148.9,87.2c-1.1,0.9-2.1,1.8-3.2,2.7l-0.6,0.5l3.5,3.5l0.5-0.5c0.9-0.8,1.9-1.7,2.9-2.5l0.8-0.6l-3.4-3.5
			L148.9,87.2z"/>
	</g>
	<g>
		<path class="st0" d="M365.5,416c-0.6,1.2-1.1,2.5-1.7,3.7l-0.3,0.7l4.7,1.7l0.3-0.7c0.6-1.4,1.1-2.5,1.6-3.6l0.3-0.7l-4.6-1.9
			L365.5,416z"/>
		<path class="st0" d="M369.2,408.7c-0.6,1-1.2,2.2-1.9,3.6l-0.4,0.7l4.5,2.1l0.3-0.6c0.5-1.1,1.2-2.3,1.8-3.5l0.4-0.7l-4.5-2.2
			L369.2,408.7z"/>
		<path class="st0" d="M362.3,423.6c-0.4,1.2-0.9,2.6-1.3,3.9l-0.2,0.7l4.8,1.4l0.2-0.7c0.4-1.3,0.8-2.5,1.3-3.7l0.3-0.7l-4.8-1.6
			L362.3,423.6z"/>
		<path class="st0" d="M373.5,401.6c-0.8,1.1-1.5,2.3-2.2,3.5l-0.4,0.7l4.4,2.3l0.4-0.6c0.7-1.1,1.4-2.2,2.1-3.4l0.4-0.7l-4.3-2.5
			L373.5,401.6z"/>
		<path class="st0" d="M378.1,394.8c-0.8,1.1-1.6,2.2-2.4,3.4l-0.4,0.7l4.3,2.6l0.4-0.6c0.7-1.1,1.5-2.2,2.3-3.3l0.5-0.6l-4.1-2.7
			L378.1,394.8z"/>
		<path class="st0" d="M362.2,463.1l-0.1-0.8l-5,0.6l0.1,0.8c0.2,1.3,0.4,2.7,0.7,4l0.1,0.7l4.9-0.8l-0.1-0.7
			C362.5,465.6,362.3,464.4,362.2,463.1z"/>
		<path class="st0" d="M361.6,451.6c0-1.3,0.1-2.5,0.2-3.8l0.1-0.8l-5-0.4l-0.1,0.7c-0.1,1.3-0.2,2.7-0.2,4.1l0,0.8l5,0.2
			L361.6,451.6z"/>
		<path class="st0" d="M361.8,459.3c-0.1-1.4-0.2-2.7-0.2-3.8l0-0.7l-5,0.1l0,0.8c0,1.6,0.1,2.9,0.2,4.1l0.1,0.7l5-0.3L361.8,459.3z
			"/>
		<path class="st0" d="M383.2,388.3c-0.8,1-1.7,2.1-2.6,3.2l-0.5,0.6l4.1,2.8l0.4-0.6c0.8-1,1.6-2.1,2.5-3.2l0.5-0.6l-4-2.9
			L383.2,388.3z"/>
		<path class="st0" d="M358,439.3c-0.3,1.5-0.5,2.8-0.7,4l-0.1,0.8l5,0.6l0.1-0.7c0.2-1.3,0.4-2.6,0.6-3.8l0.1-0.7l-4.9-0.8
			L358,439.3z"/>
		<path class="st0" d="M359.8,431.3c-0.3,1.2-0.7,2.6-1,4l-0.2,0.7l4.9,1l0.2-0.7c0.2-1.1,0.6-2.4,1-3.8l0.2-0.7l-4.9-1.2
			L359.8,431.3z"/>
		<path class="st0" d="M394.1,376c-0.5,0.5-0.9,1-1.4,1.5c-0.5,0.5-1,1-1.4,1.5l-0.6,0.6l3.8,3.1l0.5-0.5c0.9-1,1.8-2,2.7-2.9
			l0.6-0.6l-3.8-3.2L394.1,376z"/>
		<polygon class="st0" points="427.1,346 430.5,349.5 434.8,345.9 431.4,342.4 		"/>
		<path class="st0" d="M443.3,332.2c-0.5,0.4-1,0.9-1.5,1.3c-0.5,0.4-1,0.9-1.5,1.3l-0.6,0.5l3.4,3.5l0.5-0.5c1-0.9,2-1.7,3-2.6
			l0.7-0.6l-3.4-3.5L443.3,332.2z"/>
		<path class="st0" d="M437.1,337.5c-1,0.9-2.1,1.8-3.1,2.7l-0.6,0.5l3.4,3.5l0.5-0.4c0.8-0.7,1.6-1.4,2.4-2l1.3-1.2l-3.4-3.5
			L437.1,337.5z"/>
		<path class="st0" d="M449.4,326.8c-1,0.9-2,1.8-2.9,2.6l-0.6,0.5l3.5,3.5l0.5-0.5c1-0.9,2.1-1.8,3.1-2.8l0.6-0.5l-3.5-3.4
			L449.4,326.8z"/>
		<path class="st0" d="M387.9,382.8c-0.7,0.8-1.4,1.6-2,2.4l-0.5,0.6l4,2.9l0.5-0.5c0.8-1,1.7-2,2.5-2.9l0.6-0.7l-3.9-3.1
			L387.9,382.8z"/>
		<path class="st0" d="M456,320.7l-0.5,0.5c-0.9,0.8-1.7,1.6-2.6,2.4l-1,0.9l3.5,3.4l0.5-0.5c1-0.9,2-1.9,3-2.8l0.6-0.5L456,320.7z"
			/>
		<path class="st0" d="M400,370.1c-1,1-2,1.9-2.9,2.9l-0.6,0.6l3.7,3.3l0.6-0.6c0.9-0.9,1.9-1.9,2.8-2.8l0.6-0.6l-3.6-3.3L400,370.1
			z"/>
		<path class="st0" d="M406,364.5c-1,0.9-2,1.9-3,2.8l-0.6,0.5l3.6,3.4l0.5-0.5c1-0.9,2-1.9,3-2.8l0.6-0.5l-3.6-3.4L406,364.5z"/>
		<path class="st0" d="M418.3,353.5c-0.5,0.4-1,0.9-1.6,1.3c-0.5,0.4-1,0.9-1.6,1.3l-0.6,0.5l3.5,3.5l0.5-0.5c1-0.9,2-1.8,3.1-2.7
			l0.6-0.5l-3.4-3.5L418.3,353.5z"/>
		<path class="st0" d="M424.6,348.1c-1,0.9-2.1,1.8-3.1,2.7l-0.6,0.5l3.4,3.5l4.3-3.6l-3.4-3.5L424.6,348.1z"/>
		<path class="st0" d="M412.1,358.9c-0.4,0.3-0.8,0.7-1.2,1c-0.4,0.3-0.8,0.7-1.1,1l-1.4,1.2l3.5,3.4l1.5-1.3
			c0.7-0.6,1.4-1.3,2.1-1.9l0.6-0.5l-3.5-3.5L412.1,358.9z"/>
	</g>
	<g>
		<path class="st0" d="M154.7,435.5c-1.4-0.9-2.6-1.6-3.7-2.3l-0.6-0.3l-2.6,4.1l0.7,0.4c1.4,0.8,2.4,1.4,3.4,2.1l0.6,0.4l2.9-3.9
			L154.7,435.5z"/>
		<path class="st0" d="M135.4,426.3l-0.7-0.2l-1.8,4.5l0.7,0.3c1.3,0.5,2.7,1,3.9,1.4l0.7,0.2l1.9-4.4l-0.7-0.3
			C138.2,427.3,136.9,426.8,135.4,426.3z"/>
		<path class="st0" d="M117,425.7l0.7,0.2c1.3,0.4,2.7,0.8,4,1.1l0.7,0.2l1.5-4.6l-5.5-1.6L117,425.7z"/>
		<path class="st0" d="M127.3,423.7l-0.7-0.2L125,428l0.7,0.2c1.3,0.4,2.7,0.8,4,1.2l0.7,0.2l1.7-4.6l-0.7-0.2
			C130,424.5,128.6,424.1,127.3,423.7z"/>
		<path class="st0" d="M161.5,440.8c-1.1-1-2.3-2-3.3-2.8l-0.6-0.4l-3.2,3.7l0.6,0.5c1,0.8,2,1.6,3,2.5l0.5,0.5l3.5-3.4L161.5,440.8
			z"/>
		<path class="st0" d="M147.2,431.2c-1.1-0.6-2.4-1.1-3.9-1.8l-0.7-0.3l-2.1,4.3l0.7,0.3c1.2,0.5,2.4,1.1,3.7,1.7l0.6,0.3l2.4-4.3
			L147.2,431.2z"/>
		<path class="st0" d="M181.4,476.7c-0.4-1.4-0.8-2.6-1.2-3.9l-0.2-0.7l-4.8,1.3l0.2,0.7c0.3,0.8,0.5,1.6,0.7,2.5l0.6,2l4.8-1.2
			L181.4,476.7z"/>
		<path class="st0" d="M183.5,484.4c-0.3-1.3-0.7-2.6-1-3.8l-0.2-0.7l-4.9,1.2l0.2,0.8c0.4,1.3,0.7,2.5,1,3.8l0.2,0.7l4.1-0.9
			l0.7-0.2L183.5,484.4z"/>
		<path class="st0" d="M167.4,447c-0.7-0.9-1.7-2.1-2.8-3.2l-0.5-0.5l-3.8,3.1l0.5,0.6c0.9,1,1.8,2,2.6,3l0.4,0.5l4-2.8L167.4,447z"
			/>
		<path class="st0" d="M178.5,467.7c-0.3-0.9-0.6-1.8-1-2.6l-0.3-0.7l-4.7,1.7l0.3,0.7c0.5,1.2,0.9,2.4,1.4,3.7l0.2,0.7l4.8-1.5
			L178.5,467.7z"/>
		<path class="st0" d="M175.9,461.3c-0.5-1.1-1.1-2.3-1.8-3.7l-0.3-0.6l-4.5,2.1l0.4,0.7c0.5,1,1.1,2.1,1.7,3.5l0.3,0.7l4.6-1.9
			L175.9,461.3z"/>
		<path class="st0" d="M172.1,454c-0.6-1.1-1.3-2.2-2.3-3.5l-0.4-0.6l-4.3,2.5l0.5,0.7c0.7,1.1,1.4,2.2,2.1,3.3l0.4,0.6l4.4-2.3
			L172.1,454z"/>
	</g>
	<path class="st0" d="M341.8,64.7c55.6,8.6,105.5,44.4,129.1,92.5c10.4,21.1,15.9,44.9,11.8,67.8c-4.1,22.9-18.7,44.8-40.8,55.3
		c-18.7,8.9-40.7,9-61.6,6.8c-64-6.6-125.4-33.2-172.2-74.7c-14.8-13.1-28.6-28.2-34.3-46.6C155.6,107.8,241,71,289.4,64.3
		C306.8,61.9,324.5,62,341.8,64.7"/>
	<path class="st1" d="M370.1,147.8h-37.8v-35.6c0-3.1-2.7-5.7-6-5.7h-21.9c-3.3,0-6.1,2.6-6.1,5.7v35.6h-37.8c-3.3,0-6,2.5-6,5.7
		V174c0,3.1,2.7,5.7,6,5.7h37.8v35.6c0,3.1,2.7,5.7,6.1,5.7h21.9c3.3,0,6-2.5,6-5.7v-35.6h37.8c3.3,0,6-2.5,6-5.7v-20.6
		C376.1,150.3,373.4,147.8,370.1,147.8"/>
</g>
</svg>
