<?xml version="1.0" encoding="utf-8"?>
<!-- Generator: Adobe Illustrator 25.4.1, SVG Export Plug-In . SVG Version: 6.00 Build 0)  -->
<svg version="1.1" id="Capa_1" xmlns="http://www.w3.org/2000/svg" xmlns:xlink="http://www.w3.org/1999/xlink" x="0px" y="0px"
	 viewBox="0 0 560 560" style="enable-background:new 0 0 560 560;" xml:space="preserve">
<style type="text/css">
	.st0{fill:#EA600A;}
</style>
<g id="Capa_6">
	<path class="st0" d="M200,68.4L200,68.4c-40.3,0-80.6,0-120.9,0c-2.2,0-4.4,0-6.6,0c-1.4,0-2,0.4-1.9,1.9
		c0.2,7.4,0.2,14.9,0.2,22.3c0,11.3,0,22.7,0,34c0,2.5,0.8,3.6,3.4,3.4c2.7-0.2,5.4,0,8-0.1c4.1-0.2,4-0.2,4-4.2
		c0-12.7,0-25.3,0-37.9c0-4.2,2.4-7,6.1-7.4c4.8-0.5,7.6,1.4,8.8,5.7c0.4,1.5,0.4,2.9,0.4,4.4c0,11.9-0.1,23.8-0.1,35.7
		c0,3.6,0.2,3.7,3.8,3.7c5.2,0,10.4-0.1,15.5,0.1c2.7,0.1,3.4-1,3.4-3.4c-0.1-8.4-0.1-16.9,0-25.4c0-4.6-0.3-9.3,0.3-13.9
		c0.6-4.6,3.7-7.3,8-7.2c2.9,0.1,7.1,3.7,7,8.3c-0.3,10.3-0.1,20.6-0.1,30.9c0,2.8,0,5.6,0,8.3c0,1.7,0.7,2.2,2.4,2.2
		c5.5-0.2,11-0.2,16.6-0.3c3.6-0.1,4-0.4,3.9-4c-0.1-7.8-0.3-15.6-0.3-23.4c0-5-0.2-10,0.3-15c0.5-4.2,3.8-7.1,8.2-6.9
		c3.8,0.2,6.4,3.2,6.6,7.2c0.5,13.1,0.7,26.1,0,39.2c-0.1,2.5,1,3.3,3.2,3.3c5.2,0,10.4,0,15.5,0c4,0,4.2-0.2,4.2-4.3
		c0-12.4,0-24.9,0-37.3c0-1.9,0.2-3.7,1.6-5.2c2.2-2.6,5.7-3.8,8.4-2.8c3.2,1.2,5.2,4,5.2,7.8c0,12.7,0.1,25.4,0,38.2
		c0,2.7,1,3.6,3.6,3.7c5.4,0.2,10.7-0.6,16.1-0.5c2.4,0.1,3-0.9,3-3.1c0-4.8,0.3-9.6,0.4-14.5c0.1-4.3,2.9-7.1,7.2-7.1
		c4.5,0,7.1,2.4,7.5,6.8c0.5,5.1,0.4,10.2,0.4,15.3c0,2.3,0.9,3.2,3.2,3c5-0.5,10-0.4,15-0.4c3.3,0,4-0.7,4.1-4.1
		c0.1-4.1,0.1-8.3,0.5-12.5c0.5-5.1,3.4-8.5,7.8-8.3c4.3,0.2,7.3,3.7,7.4,8.8c0,4.5,0.1,8.9,0,13.4c0,2,0.6,2.8,2.7,2.9
		c4.4,0.2,8.7,0.4,13,0.3c5.8,0,5.8,0,5.8-6c0-4-0.1-8,0.1-12c0.3-4.5,3.1-6.9,7.8-7.1c4.2-0.2,6.6,1.8,7.4,6.2
		c0.2,1.3,0.3,2.6,0.3,3.9c0.1,3.9,0.1,7.8,0,11.7c0,1.8,0.6,2.7,2.5,2.9c3.1,0.4,6.3,0.3,9.4,0.3c4.8,0,5-0.1,5-5
		c0-7.4-0.3-14.8-0.3-22.3c0-10.2,0.2-20.4,0.3-30.6c0-3.7,0-3.7-3.8-3.7c-6.5,0-13.1,0-19.6,0C281.1,68.4,240.5,68.4,200,68.4
		 M310,145.6c4.6,2,8.9,3.7,13.1,5.7c7.2,3.3,15,5.4,21.4,10.3c10.7,8.3,16.2,19.2,16.2,32.7c0.1,52.5,0,104.9,0,157.4
		c0,14.7,0,29.4,0,44c0,3.5-0.7,6.4-4.4,7.9c-4.8,2-9.9-0.7-10.6-5.8c-0.2-1.4-0.1-2.8-0.1-4.2c0-50.1,0-100.3,0-150.4
		c0-5.3,0-5.3-5.3-5.3c-58.8,0-117.6,0-176.4,0c-4,0-7.7,0.6-11,3.6c-3.6,3.5-5.1,7.6-5.1,12.5c0,10.9,0,21.9,0,32.9
		c0,34.6,0.1,69.3,0,103.9c-0.1,8.8,5.8,17.1,16.7,17c45.2-0.2,90.4-0.1,135.6-0.2c3.3,0,5.8,0.8,7.5,3.7c3,4.9,0.2,10.8-5.4,11.6
		c-0.9,0.1-1.8,0.1-2.8,0.1c-45.4,0-90.8-0.2-136.1,0.1c-14.7,0.1-26.3-11.1-29.4-22c-0.5-1.7-0.7-3.5-0.7-5.2
		c0-48.4,0-96.8,0-145.1c0-4.3,1-8.2,3.2-11.9c6.3-10.6,15.3-16.3,27.8-16c8.7,0.2,17.4,0,26.1,0c50,0,100,0,150,0
		c0.9,0,1.9-0.1,2.8,0c1.9,0.1,2.7-0.7,2.7-2.6c-0.1-9,0.6-18.1-0.3-27c-1-10.7-5.9-19.1-17.1-23.1c-16.8-6-33.3-12.7-50-19.1
		c-4-1.5-8-2.8-12-4.3c-3.1-1.2-6.2-1.6-9.5-1.6c-34.8,0-69.7,0-104.5,0c-2.8,0-5.3,0.6-7.8,1.6c-16,6.4-32,13-48.2,19.1
		c-4.2,1.6-8.5,3.2-12.5,5.4c-9.3,5.2-14.1,13.6-14.1,24.2c-0.2,26.5,0,53.1,0,79.7c0,65.8,0,131.6-0.1,197.5c0,7.2,2.4,13,8.5,17.1
		c2.6,1.7,5.4,2.4,8.4,2.4c32.3,0,64.5,0,96.8,0c36.7,0,73.4,0,110.1,0c2,0,4-0.1,6.1,0.4c3.1,0.9,5.4,3.9,5.5,7.2
		c0.1,3.3-1.9,6.1-5.2,7.1c-1.4,0.5-2.9,0.5-4.4,0.5c-69.6,0-139.2,0-208.8,0c-17.6,0-31.5-13.7-31.6-31.4
		C55,440.6,55,405.6,55,370.7c0-59.1,0.1-118.1,0-177.2c0-15.8,7.6-27.2,20.2-35.2c6.7-4.3,14.6-6.6,22.2-9.4c1.7-0.6,3.5-1.1,5-2.3
		c0.4-0.3,0.7-0.6,0.6-1.1c-0.2-0.5-0.7-0.6-1.1-0.6c-0.8,0-1.7,0-2.5,0c-11.8,0-23.7,0-35.5,0c-5.8,0-8.2-2.5-8.3-8.3
		c0-24.7,0-49.4,0-74.1c0-6,2.3-8.5,8.3-8.7c32.3-1,64.5-0.3,96.8-0.4c50.8-0.1,101.7,0.1,152.5-0.1c13-0.1,26,0,39,0.5
		c5.1,0.2,7.3,2.1,7.7,7.1c0.2,2.2,0.3,4.4,0.3,6.7c0,22,0,44,0,66c0,9.6-1.8,11.4-11.3,11.3c-11.7,0-23.5,0-35.2,0
		C312.6,144.8,311.5,144.5,310,145.6"/>
	<path class="st0" d="M443.4,491.7L443.4,491.7c6.5,0,12.9,0.1,19.4,0c11.3-0.2,20.8-7.9,24.2-16.7c2.5-6.4,3-13.1,2-20.2
		c-1.6-12-13.8-22-25.2-22.4c-11.7-0.4-23.5-0.1-35.2-0.2c-1.9,0-2.3,0.5-1.3,2.2c3.4,5.8,5.3,12,5.9,18.9
		c1.1,13.5-2.8,25.2-11.1,35.7c-0.5,0.6-1.5,1.1-1,2c0.5,0.9,1.5,0.6,2.3,0.6C430.1,491.7,436.8,491.7,443.4,491.7 M375.1,432.2
		c-8.7,0-17.3,0-26,0c-1.9,0-3.9,0-5.8,0.5c-14.1,3.2-23.3,15.3-22.9,30c0.4,14.2,12.2,29.2,29.2,29c12-0.2,24-0.4,36,0.2
		c7,0.3,12.6-1.8,17.7-6.1c0.8-0.7,1.7-1.4,2.6-2.1c16.3-12.7,14.9-37.4,2.8-49.2c-1.6-1.5-3.1-2.3-5.3-2.2
		C394,432.2,384.6,432.2,375.1,432.2 M405.7,506.8c-18.4,0-36.8,0.1-55.2,0c-12.6,0-23.7-4.1-32.3-13.5
		c-7.5-8.2-11.8-17.7-12.7-29.2c-1.9-24.1,16.7-44,38.9-47.1c2.1-0.3,4.2-0.6,6.3-0.6c27.5,0,54.9-0.2,82.4,0.1
		c10.3,0.1,20.5-0.1,30.7,0.5c16.7,1.1,33.9,12.7,39.2,31.6c5.8,20.7-1.8,41.2-19.7,52.2c-6.8,4.2-14.4,5.8-22.2,6
		c-9.3,0.1-18.5,0-27.7,0C424.2,506.8,414.9,506.8,405.7,506.8"/>
	<path class="st0" d="M418.1,335.2c1.4,1.1,2.5,1.9,3.5,2.7c7.7,6.1,13.9,13.3,17.5,22.6c3.2,8.1,3.6,16.6,2.9,25.2
		c-0.1,1-0.6,2.2,0.2,2.9c0.9,0.8,1.9-0.1,2.8-0.5c3.4-1.3,6.7-2.6,10-4c6.9-2.9,14-5.2,19.9-10.2c7.3-6.2,10.9-14.3,10.8-23.5
		c-0.2-20-21.9-35.1-41.5-26.7C435.6,327.4,427.4,331.9,418.1,335.2 M454.6,306.1c20-0.9,39.4,13.5,44.6,33.1
		c5.6,21.2-3.7,41.5-23.3,52c-8.6,4.6-17.9,7.5-26.7,11.6c-5.2,2.4-10.4,4.8-15.7,7.1c-4.1,1.8-7.4,1.4-10.1-1.6
		c-2.6-2.9-2-6.2-0.6-9.4c5.3-12.7,6.2-25.4-0.4-37.9c-4.6-8.8-12.4-13.8-21.8-16.2c-2.1-0.6-4.1-0.2-6.2,0.7
		c-6.1,2.6-12.1,5.4-18.1,8.3c-4.1,2-8.6,0.6-10.2-2.9c-2-4.3-0.5-8.5,3.9-10.7c10.1-5,20.6-9.2,30.8-14.1
		c12-5.7,24.5-10.3,36.3-16.5C442.6,306.8,448.7,306,454.6,306.1"/>
</g>
</svg>
