<?xml version="1.0" encoding="utf-8"?>
<!-- Generator: Adobe Illustrator 25.4.1, SVG Export Plug-In . SVG Version: 6.00 Build 0)  -->
<svg version="1.1" id="Capa_1" xmlns="http://www.w3.org/2000/svg" xmlns:xlink="http://www.w3.org/1999/xlink" x="0px" y="0px"
	 viewBox="0 0 560 560" style="enable-background:new 0 0 560 560;" xml:space="preserve">
<style type="text/css">
	.st0{fill:#EA600A;}
</style>
<g id="Capa_5">
	<path class="st0" d="M233.5,288c0.1,24.7,21.7,45.8,46.7,45.5c24.7-0.3,45.9-21.3,45.8-45.7c0-24.7-21.3-45.8-46.3-45.9
		C254.9,241.9,233.4,263.3,233.5,288 M279.5,227.3c25.7-0.1,47.9,14.8,57,38.3c9.3,24,2.8,50.7-16.4,67.9c-6.3,5.6-6.2,5.4,1.6,9.4
		c32.9,16.8,52.2,43,55.8,80c0.4,4,0.6,7.8-5.3,7.4c-4.5-0.3-9.1,1.4-9.8-6.4c-3.6-41.8-37.8-73.8-79.4-75.3
		c-42.2-1.5-78.4,28.1-85.3,69.8c-0.2,1.2-0.3,2.5-0.4,3.7c-0.6,7.4-5.9,10.5-13.2,7.9c-3.6-1.3-2.2-4.1-2-6.3
		c3.4-37.6,22.6-64.3,56.4-81.1c7.3-3.6,7.4-3.5,1.1-8.9c-19.5-17.2-26.1-43.6-17-67.7C231.4,242.8,254.1,227.4,279.5,227.3"/>
	<path class="st0" d="M195,186.5c21.7-0.3,37.4,7.8,49.7,22.8c1.4,1.7,6.4,4.6,1.5,6.9c-3.9,1.8-7.7,9.2-13.3,2.3
		c-1.1-1.4-2.4-2.6-3.6-3.8c-14.4-14.4-35.8-17.8-53.5-8.4c-18.2,9.7-28.2,30.6-23.9,50c4.5,20,21.7,34.9,42,36.2
		c5.5,0.3,10.9,9,8.5,13.8c-1.2,2.3-3.6,1.3-5.4,1.3c-27.7,0.6-49.9,12-66.8,33.8c-9.6,12.4-14.8,26.7-16,42.2
		c-0.6,8.4-6.3,5-10.3,5.5c-5.7,0.8-5.1-3.4-4.8-6.8c3.9-36.7,22.5-63.4,55.7-79.9c8.4-4.1,8.4-4.1,1.6-10.1
		c-18.8-16.6-25.4-43-16.6-66.4C148.7,201.8,170.9,186.5,195,186.5"/>
	<path class="st0" d="M368.1,186.5c20.7,0.2,42.5,15.2,51.5,38.8c8.9,23.4,2.1,50.4-16.9,67.2c-6.4,5.7-6.4,5.6,1.2,9.3
		c32.5,15.9,51.1,42,56.3,77.4c1.4,9.3,0,10.1-9.3,10c-6.1-0.1-5.2-4.2-5.7-7.7c-5.3-38.2-31.1-65.5-69-72.9c-3.9-0.8-8-0.6-12-1.2
		c-2.6-0.4-7.9,2.2-6.6-3.7c0.9-4.2-2.1-10.7,7-11.3c25.4-1.7,43.5-21.3,43.6-45.9c0-18.4-12-35.6-29.5-42.4
		c-17.5-6.8-36.8-2-50.4,12.2c-2.2,2.3-3.1,7.1-8.7,4c-9.6-5.3-10.1-6-2.4-14.1C329.7,193,344.7,186.1,368.1,186.5"/>
	<path class="st0" d="M441.9,240.6c-1.8-6.3,1.6-10.7,7.7-15.5c21.5-16.8,23.2-47.9,4.6-67.8c-17.6-18.9-47.5-18.8-66.9,0
		c-2.6,2.5-4,8-10,4.6c-8.5-4.7-8.8-5.2-1.9-12.5c17.5-18.6,43.2-25.3,66.1-16.3c24.6,9.7,38,28.4,39.3,54.6
		c0.9,19.3-7.1,35.6-22.2,47.9c-5,4.1-4.7,5.7,1,8.3c34.6,16.1,53.7,43.2,57.5,80.9c0.3,2.8,1.8,6.6-3.3,6.4
		c-3.9-0.1-9.1,2.5-9.9-5.2c-2.1-20.9-10.4-38.9-25.9-53.6c-8-7.5-17.1-13.1-27.1-17.3C441.9,251.5,441.9,251.6,441.9,240.6"/>
	<path class="st0" d="M138,129.3c19.4,0.6,35.1,7.3,47.3,21.4c1.8,2.1,6.3,4,3,7.8c-3.7,4.3-10.3,4.7-13.5,1.1
		c-8.7-10-19.7-15.1-32.8-16.4c-28.2-2.8-53.7,25.4-48.8,53.2c2.4,13.7,9.1,24.1,20.6,31.3c4.8,3,3.6,6.9,4.3,11
		c1.5,9.7-1.7,14.1-11.5,18.2c-30.1,12.7-47.8,35.8-50.5,68.8c-0.6,6.8-4.4,5.7-8.7,5.9c-6.2,0.4-4.7-3.9-4.4-7.1
		c3.2-36.4,21.9-62.5,54.2-79.3c8.7-4.5,8.8-4.3,2-10.7c-22.2-20.5-26.7-53-10.4-78C100.3,138.5,117.7,130.4,138,129.3"/>
	<path class="st0" d="M282.2,129.4c22.9,1.1,41.8,12.3,52.6,35.7c2,4.4,3.2,7.7-3.2,10.3c-5.9,2.4-6.9,0.2-8.9-4.4
		c-7.6-17.6-24.7-28.1-44.3-27.5c-20.5,0.6-34.3,11-42.2,29.3c-1.1,2.5-1.6,6-5.4,3.4c-3-2-9.7-1.1-7.2-7.9
		c3.2-9.1,8.3-17,15.6-23.3C250.6,134.9,264,129.4,282.2,129.4"/>
</g>
</svg>
