<?xml version="1.0" encoding="utf-8"?>
<!-- Generator: Adobe Illustrator 25.4.1, SVG Export Plug-In . SVG Version: 6.00 Build 0)  -->
<svg version="1.1" id="Capa_1" xmlns="http://www.w3.org/2000/svg" xmlns:xlink="http://www.w3.org/1999/xlink" x="0px" y="0px"
	 viewBox="0 0 560 560" style="enable-background:new 0 0 560 560;" xml:space="preserve">
<style type="text/css">
	.st0{fill:#EA600A;}
</style>
<g id="Capa_7">
	<path class="st0" d="M156.9,505.9c-4.7,0-9.1-1.2-13.5-2.7c-7.4-2.4-13.2-7.2-16.3-13.8c-3-6.4-3.2-13.7-0.4-20.7l5.8-14.4
		c14-35.2,28.1-70.3,42.2-105.5c2.9-7.3,7.3-13.9,13.1-19.5c14.8-14.4,29.6-28.8,44.5-43.1c-0.5-13.5-0.5-28.1-0.4-42.6l0-26.2
		c0-12.8,0-25.5,0.1-38.3c0.1-10.3,3.6-19.1,10.6-26.2c9.5-9.8,20.8-17.3,34.5-23.1c9.5-4,19.3-3.2,28.2,2.4
		c24.1,15,48.1,30,72.1,45.1c8.3,5.2,13.2,13,14.4,22.5l9.6,77.9c1.1,8.6-2,17-8.3,22.8c-6.4,5.9-14.9,8.2-23.5,6.4
		c-11.6-2.4-20.3-12.5-21.6-25c-2.3-22-4.8-44-7.2-66c-0.4-3.2-2-4.2-2.5-4.5c-8.9-5.1-17.9-10.1-27-15.1l-0.1,21.8
		c-0.1,19-0.2,37.9-0.1,56.9c0,11.1-3.9,20.3-12.2,28c-15.8,14.9-31.4,29.8-47,44.8L229.7,369c-3,2.9-5.2,6.2-6.6,10.1L184,486.5
		c-3.5,9.5-10.6,15.9-20.6,18.6C161.1,505.7,159,505.9,156.9,505.9z M288.7,141.6c-2.1,0-4.2,0.5-6.5,1.4c-12,5-21.7,11.5-29.8,19.9
		c-4.4,4.5-6.5,9.9-6.6,16.4c-0.1,12.7-0.1,25.4-0.1,38.2l0,26.2c0,14.5,0,29,0,43.6c0,3.6-1.3,6.6-3.9,9.2
		c-14.9,14.4-29.7,28.7-44.5,43.1c-4.3,4.2-7.6,9.1-9.8,14.6c-14.1,35.1-28.1,70.3-42.2,105.4l-5.8,14.4c-1.3,3.3-1.3,6.5,0,9.4
		c1.4,2.9,4.2,5.2,7.8,6.4c4.7,1.5,8.5,2.5,12.1,1.6c5.5-1.5,9-4.6,10.9-9.7l39.1-107.5c2.2-6.1,5.6-11.1,10.2-15.5l21.8-20.8
		c15.7-15,31.4-30,47.1-44.9c5.4-5.1,7.7-10.5,7.7-17.7c-0.1-19,0-38,0.1-57l0.1-26.5c0.4-4.6,2.6-8.2,6-10.1
		c3.4-1.8,7.6-1.7,11.5,0.5c10.3,5.6,20.5,11.2,30.7,17.1c5.4,3.1,8.8,8.6,9.5,15.2c2.4,22,4.9,44,7.2,66
		c0.7,6.4,4.8,11.5,10.4,12.6c4.2,0.9,8-0.2,11-3c3-2.7,4.4-6.6,3.9-10.6l-9.6-77.9c-0.7-5.3-3.3-9.4-7.9-12.3
		c-24-15.1-48-30.1-72.1-45C294.5,142.5,291.7,141.6,288.7,141.6z"/>
	<path class="st0" d="M388.9,493.9c-9.3,0-17.3-4.1-22.8-11.7c-5-6.9-9.8-13.9-14.7-20.8L275,352.6c-4.7-6.8-3.9-13.8,2.3-19.4
		l22.5-20.1c1.4-1.2,5.5-5.1,11-4.3c5.4,0.7,8.4,5.1,9.4,6.6L414,454.5c2.8,4.2,4.2,8.8,4.2,14c0,2-0.4,4.3-1.1,6.5
		c-3.6,10.4-12,16.9-23.5,18.5C392,493.8,390.5,493.9,388.9,493.9z M308.9,324l-22.2,19.7l20.3,29.9l56,79.7
		c4.8,6.9,9.6,13.8,14.6,20.6c3.3,4.6,8,6.5,14.1,5.6c6.4-0.9,10.1-3.7,12-9c0.2-0.7,0.3-1.5,0.3-1.8l7.1-0.1l-7.1,0
		c0-2.5-0.5-4.4-1.8-6.3L308.9,324z"/>
	<path class="st0" d="M258,130.4c-24.6,0-44.8-19.3-45.1-43.3c-0.2-11.6,4.3-22.7,12.6-31.2c8.3-8.5,19.4-13.3,31.2-13.5
		c11.8,0,24.6,4.4,33.3,13c8.3,8.1,12.9,19,13,30.7l0,0c0.1,11.7-4.5,22.8-12.9,31.2c-8.4,8.4-19.6,13-31.4,13.1
		C258.3,130.4,258.2,130.4,258,130.4z M257.2,56.7c-0.1,0-0.3,0-0.4,0c-8,0.1-15.5,3.4-21.2,9.2c-5.6,5.7-8.6,13.2-8.5,21.1
		c0.2,16.2,14,29.3,30.9,29.3c0.1,0,0.3,0,0.4,0c8.2-0.1,15.8-3.3,21.6-9c5.7-5.7,8.8-13.1,8.7-21l0,0c-0.1-7.9-3.2-15.2-8.7-20.7
		C274,59.8,266,56.7,257.2,56.7z"/>
	<path class="st0" d="M165.7,304.1c-7.8,0-13.2-3.4-16.6-6.7c-4.5-4.4-9.2-12.1-5.8-24c1.6-5.2,4.4-9.7,8.6-13.3l56.3-48
		c1.4-1.2,5.4-4.6,10.8-2.4c4,1.6,6,5,5.9,9.9v33.2c0,6.6-2.6,12.4-7.8,16.7L184.9,297c-3.5,3-7.4,5.1-11.6,6.2
		C170.6,303.8,168,304.1,165.7,304.1z M210.8,228.7l-49.6,42.3c-2.1,1.8-3.5,3.9-4.2,6.4c-1.6,5.4,0.2,8,2,9.8
		c1.9,1.8,4.8,3.7,10.7,2.2c2-0.5,4-1.6,5.9-3.2l32.4-27.4c1.9-1.6,2.7-3.4,2.7-5.8V228.7z"/>
	<rect x="63.3" y="501.8" class="st0" width="433.4" height="15.7"/>
</g>
</svg>
