<?xml version="1.0" encoding="utf-8"?>
<!-- Generator: Adobe Illustrator 25.4.1, SVG Export Plug-In . SVG Version: 6.00 Build 0)  -->
<svg version="1.1" id="Capa_1" xmlns="http://www.w3.org/2000/svg" xmlns:xlink="http://www.w3.org/1999/xlink" x="0px" y="0px"
	 viewBox="0 0 560 560" style="enable-background:new 0 0 560 560;" xml:space="preserve">
<style type="text/css">
	.st0{fill:#EB600A;}
</style>
<g id="Capa_10">
	<g>
		<path class="st0" d="M515.3,88.2c-1.5-3.7-5-4-7.7-4.2c-0.4,0-0.8-0.1-1.2-0.1c-2.7-0.3-5.6,0-8.4,0.3c-5,0.5-9.8,1-12.7-2
			c-3.1-3.2-2.6-8-2.1-13c0.3-2.9,0.6-5.9,0.3-8.7c-0.1-0.7-0.1-1.4-0.1-2.2c0-2.7,0.1-6.5-4.7-8.1c-5.7-1.9-9.3,1.7-11.9,4.3
			c-2,2-4.1,4.2-6,6.2c-4.9,5.2-10.1,10.5-15.7,15c-16.3,12.9-23.1,28.8-20.7,48.5c0.3,2.1,0.1,4.3-0.4,6.2
			c-0.8,2.9-2.3,4.8-4.1,5.4c-1.9,0.6-4.2-0.3-6.6-2.3c-38.9-33.9-86.6-50.5-141.7-49.1c-45.8-0.6-99.1,20.9-132.6,53.6
			c-28.8,28.1-48.2,59.4-57.5,93.1c-9.3,33.5-9,70.1,1,108.9c6.7,26,19.9,50.7,39.2,73.5c0.3,0.4,0.7,0.8,1.1,1.2
			c1.7,1.7,2.2,2.5,1.4,3.8c-0.6,1-1.6,1.1-3.8,1.1c-0.4,0-0.8,0-1.2,0c-2.9,0.1-5.9,0.2-8.8,0c-14.4-1.1-26.3,3.8-36.5,14.7
			c-5.8,6.2-12.1,12.3-18.2,18.2c-3,2.9-6.1,5.9-9.1,8.8c-0.3,0.3-0.7,0.6-1,1c-2.7,2.5-6,5.6-4.1,10.5c2.1,5.4,7.1,5.4,11.1,5.5
			c0.4,0,0.9,0,1.3,0c11,0.3,16.5,0.4,19,2.8c2.5,2.4,2.8,7.6,3.2,18.1c0,0.3,0,0.6,0,0.9c0.1,3.2,0.2,7.7,4.9,9.6
			c1,0.4,2,0.6,2.9,0.6c3.1,0,5.5-2.3,7.3-4l0.1-0.1c3.2-3.1,6.4-6.3,9.5-9.4c5.6-5.6,11.3-11.4,17.3-16.6
			c12.9-11.3,18.4-24.1,16.9-39.2c-0.6-6,1.6-10.9,7.1-15.7c14.9-13.1,29.9-26.8,44.3-39.9c4.5-4.1,9-8.2,13.5-12.3
			c2-1.8,3.9-3.7,5.7-5.5c1.2-1.1,2.3-2.3,3.5-3.4c4-3.7,4.6-8,1.6-11.6c-1.4-1.8-3.1-2.8-5-3c-2.3-0.2-4.8,0.8-7.5,3
			c-0.5,0.4-1,0.8-1.6,1.3c-2.1,1.7-4.2,3.4-6,5.4c-1.8,2.1-3.4,3.1-4.8,3.1c-1.5-0.1-3.2-1.4-5.2-4.1c-15.2-20.3-23.6-42.2-25-65
			c-2.8-45.9,15.2-81.7,55-109.6c41.4-29,106.2-26.2,144.5,6.2c2.2,1.9,3.2,3.3,3.3,4.6c0,1.2-0.9,2.6-2.7,4.2
			c-8.4,7.7-15.5,14.7-21.9,21.4c-3.9,4.1-6.4,4.3-11.5,1c-23.9-15.4-49.2-17.6-75.2-6.6c-33.3,14.1-51.1,47.1-45.3,84.1
			c4.8,30.7,32.6,57.8,63.4,61.9c38.5,5,71.2-12.6,85.3-46.1c7.2-17.3,7.8-35.6,1.7-54.6c-0.9-2.8-3.1-9.5-9.8-7.8
			c-7.2,1.8-5.8,8.4-4.9,12.3c0.1,0.6,0.3,1.3,0.5,1.9c0.1,0.3,0.2,0.7,0.3,1c6.8,25.1,0.6,46.4-18.5,63.3
			c-18.2,16.1-39.8,20.3-62.2,12c-23.4-8.6-37.4-25.7-40.6-49.4c-3.4-25,6.4-45.6,28.3-59.6c20.4-13.1,42-13.7,64.3-1.9
			c3.5,1.9,5.3,3.5,5.4,5c0.2,1.4-1.1,3.3-3.7,5.5c-5.4,4.5-10.3,9.8-14.8,14.7c-3.6,4-7.1,5-12.6,3.6c-10.7-2.6-22.2,2.1-27.2,11.2
			c-5.4,9.8-3.9,23.4,3.4,31c7.4,7.6,19.2,9.5,30.1,4.8c10.2-4.4,16-15.5,13.6-25.8c-1.6-6.9,0.7-10.7,5.6-15.5
			c44.7-43.4,83.7-81.5,119.1-116.5c5.7-5.7,11.1-7.9,18.1-7.4c13.3,0.9,22.8-1.7,29.9-8.4c8.7-8.1,17.2-16.5,25.5-24.7
			c3.5-3.4,7-6.9,10.5-10.3C515.8,95.3,516.8,91.8,515.3,88.2z M468.3,90c0.7,8.9,7.1,8.9,12.2,8.9c0.5,0,1,0,1.5,0
			c0.5,0,1.1,0,1.6,0c2.6-0.1,3.4,0,3.8,1.3c0.3,0.9-0.4,1.6-1.9,2.9c-0.4,0.4-0.8,0.7-1.2,1.1c-5.1,5-10.2,10.1-15.3,15.2
			c-5.3,5.3-12,7.7-21.9,7.8l-0.2,0c-2.3,0.3-3.9,0-5-0.9c-1.5-1.3-2.2-3.8-2.3-7.9c-0.2-11.5,2.9-19.2,9.9-24.9
			c1.4-1.1,2.6-2.4,3.7-3.6c1.3-1.4,2.5-2.7,4-3.8c1.4-1,2.5-2.4,3.6-3.8c2-2.6,3.3-3.9,4.8-3.9c0.4,0,0.8,0.1,1.3,0.3
			c1.9,0.8,1.9,2.8,1.5,6.8C468.3,87,468.1,88.5,468.3,90z M91.4,470.6c-1.4-8-7.3-8.2-12-8.3c-0.8,0-1.6,0-2.3-0.1
			c-0.2,0-0.4,0-0.6,0c-0.6,0-1.3,0.1-1.9,0.1c-2.7,0.2-3.6,0.1-4.1-1.2c-0.5-1.3,0.1-2,2.3-3.7c0.6-0.5,1.3-1,1.9-1.6
			c4.2-4.2,8.7-8.7,13.2-13.2c5.9-5.8,13.1-8.5,21.3-8.2l0.1,0c5.4,0,8.1,0.2,9.3,1.3c1.2,1.2,1.3,4.5,1.3,9.3c0,7.7-2.7,13.9-8,19
			c-1.4,1.3-2.8,2.7-4.1,4.1c-1.8,1.9-3.7,3.8-5.7,5.5c-1.2,1-2.2,2.3-3.2,3.6c-2.3,2.8-3.9,4.7-5.7,4.2c-2-0.6-2.1-1.9-1.6-5.9
			C91.5,473.9,91.7,472.2,91.4,470.6z M142.3,262.5c-6.6,39,2.3,74.4,26.5,105.3c4.5,5.8,4.2,8.7-1.2,13.1
			c-8.3,6.9-17.1,14.4-25.1,22.4c-1.9,1.9-3.4,2.8-4.7,2.7c-1.3-0.1-2.8-1.2-4.9-3.8c-28.3-34.8-43.1-75.4-42.9-117.5
			c1.2-86,60.2-160.3,143.4-180.5c59.9-14.6,116.1-1.6,166.9,38.5c3,2.3,4.4,4.2,4.4,6c0,1.7-1.3,3.7-4.2,6.2
			c-8.3,7.3-16.2,15.2-24.2,23.3c-3.7,3.7-5.7,3.9-9.7,0.8c-20.8-16.6-43.4-26.8-67.1-30.2c-23.2-3.4-47.6-0.2-72.5,9.2
			C180.2,176,150.9,212.1,142.3,262.5z M278.1,294.1c-4.8-0.1-8.1-2.9-8.9-7.5c-0.8-5.1,0.8-8.3,5.1-10c-0.3,1-0.7,2-1.1,3.1
			c-1.4,3.2-3.1,7.2,1.5,10.8c3.7,3,6.8,1.1,9.3-0.4c1-0.6,1.9-1.2,2.9-1.5C286,292.4,283.2,294.2,278.1,294.1z"/>
		<path class="st0" d="M514.6,462.7c-0.3-0.3-0.7-0.6-1-0.9l-4.6-4.6c-8.8-8.7-17.9-17.8-27-26.6c-7.8-7.5-17.2-11.3-27.9-11.1
			c-5.3,0.1-9.7,0.1-13.8,0c-0.5,0-0.9,0-1.4,0c-2.7,0-4.2,0-5-1.9c-0.7-1.6,0-2.6,1.9-4.5c0.5-0.5,0.9-1,1.3-1.5
			c23.7-30.4,38.3-62.7,43.6-96c5.2-33.3,1.2-68.4-12-104.5c-5.3-14.6-13.3-29-24.3-44.1c-4.1-5.6-8.4-6.8-12.8-3.7
			c-5.4,3.8-2.5,9-0.6,12.4c0.5,0.9,1.2,1.8,1.8,2.5c0.4,0.5,0.8,1,1.2,1.5c24.1,35,33.8,72.4,32.4,125l0,0
			c-0.7,27.7-16,64.1-39.9,95.1c-2.6,3.4-4.8,5.1-6.8,5.2c-2,0.1-4.3-1.2-7.3-4.2c-7.3-7.2-15.6-13.8-23.4-19.9
			c-4.9-3.8-5.8-6.1-1.3-12.1c34.7-46.4,39-96.8,12.7-149.7c-0.3-0.6-0.6-1.2-0.8-1.8c-1.6-3.4-3.5-7.7-7.2-8.9
			c-2-0.7-4.2-0.4-6.5,0.9c-2.4,1.3-3.9,2.9-4.4,4.9c-0.8,3.3,1.4,6.6,3.4,9.5c0.7,1,1.3,1.9,1.7,2.7c25.4,46.4,18.7,101-17,139.2
			c-4.1,4.4-6.3,7.4-6.1,10.6c0.2,3.3,2.9,6.2,7.8,10.4c4.7,4,9.4,8,14,12.1c10.3,8.9,21,18.2,31.8,26.9c5.3,4.3,7.4,8.8,7.1,15.6
			c-0.4,9.3,0.3,21.2,9.1,30.4c9.2,9.5,18.8,18.9,28.1,28c2.5,2.5,5,4.9,7.5,7.4c1.5,1.4,3.7,3.7,6.7,3.7c0.9,0,1.8-0.2,2.8-0.6
			c4.5-2,4.9-6.2,5.2-9.3c0.2-2.6-0.1-5.4-0.4-8.1c-0.6-5-1.1-9.8,2-12.6c3.4-3,8.6-2.5,14.1-1.9c2.7,0.3,5.5,0.6,8.1,0.4
			c3.4-0.2,9.2-0.5,11.2-6C520.2,467.9,516.9,464.9,514.6,462.7z M468.6,477.2c0.2,2.7,0.1,3.9-1.4,4.5c-1.4,0.5-2.2-0.2-3.7-2.2
			c-0.5-0.7-1-1.3-1.6-1.9c-2.7-2.5-5.4-5.2-8-7.8c-2.4-2.4-4.9-5-7.5-7.4c-6.7-6.3-7.4-14.2-6.3-24.2c0.3-3,1.6-3.7,3.9-3.7
			c0.6,0,1.3,0,2,0.1c1.4,0.1,2.6,0.2,3.8-0.1c9.3-0.5,16.5,2.3,22.7,8.8c1.1,1.2,2.3,2.3,3.4,3.3c1.8,1.6,3.4,3.2,4.8,4.9
			c1.1,1.4,2.6,2.5,4,3.6c3.3,2.5,4.7,3.9,4,5.9c-0.7,1.8-2.6,1.8-6.6,1.3c-1.6-0.2-3.3-0.4-4.8-0.2c-8.6,0.8-8.7,7-8.8,12l0,0.9
			C468.5,475.8,468.5,476.5,468.6,477.2z"/>
		<path class="st0" d="M404.3,432.7c-4.3-5.5-9.5-2-12.9,0.4l-0.4,0.3c-0.4,0.3-0.9,0.6-1.3,0.9c-0.6,0.4-1.2,0.9-1.9,1.3
			c-59.6,39.8-123.3,45.5-189.4,16.8c-12.1-5.2-23-12.5-32-18.8c-2.6-1.8-6.6-3.8-10.8-0.1c-3,2.6-3.7,5.6-2.1,8.7
			c1.6,3.1,4.3,5,6.9,6.8l0.7,0.5c35.6,24,74.6,35.9,119.3,36.4c1.2,0.1,2.4,0.1,3.7,0.1c7.5,0,16.1-1.3,24.5-2.5l2.4-0.4
			c31.5-4.7,61.6-17,89.3-36.7c3.5-2.5,5.4-5,5.8-7.6C406.5,436.7,405.9,434.6,404.3,432.7z"/>
		<path class="st0" d="M356.8,388.1c-3-4.3-7.2-4.7-12.4-1.1c-0.7,0.5-1.4,0.9-2.2,1.3c-0.4,0.2-0.7,0.4-1.1,0.6
			c-42,23.1-84.6,22.7-126.7-1c-0.5-0.3-1-0.6-1.5-0.9c-4-2.4-9.4-5.6-13.4,0.6c-1.4,2.2-1.8,4.2-1.4,6.1c0.8,3.4,4.3,5.4,7.4,7.1
			c0.4,0.2,0.8,0.4,1.1,0.6c21.4,12.6,44.5,19.5,65.4,19.5c0.3,0,0.5,0,0.8,0c19,0.1,32-1.4,44.8-5.2c12.5-3.6,24.2-8.8,34.6-15.4
			c2.1-1.4,5.4-3.4,6-6.6C358.7,392,358.2,390.1,356.8,388.1z"/>
	</g>
</g>
</svg>
