<?xml version="1.0" encoding="utf-8"?>
<!-- Generator: Adobe Illustrator 25.4.1, SVG Export Plug-In . SVG Version: 6.00 Build 0)  -->
<svg version="1.1" id="Capa_1" xmlns="http://www.w3.org/2000/svg" xmlns:xlink="http://www.w3.org/1999/xlink" x="0px" y="0px"
	 viewBox="0 0 560 560" style="enable-background:new 0 0 560 560;" xml:space="preserve">
<style type="text/css">
	.st0{fill:#EA600A;}
</style>
<g id="Capa_12">
	<path class="st0" d="M429.8,90c-35.7-0.1-72.1,0-107.2,0c-27.8,0-55.6,0-83.4,0c-13.5,0-27.1,0-40.8,0c-22.9,0-46.1,0-68.9,0.1
		c-16,0-18.8,2.9-19,19.3l0,2.1c-0.1,13.2-0.2,26.9,0.1,40.4c0.3,13.6,4.1,17.3,17.5,17.3c96.6,0.2,196.2,0.2,304.2,0.1
		c12.7,0,16.5-3.7,17.1-16.5c0.6-13.1,0.6-27.4,0.2-43.6C448.9,93.1,445.8,90.1,429.8,90z M425.6,145.1c-2.9,3-7.5,4.4-14.3,4.4
		c-0.1,0-0.1,0-0.2,0c-60.1-0.3-121.1-0.3-180.2-0.3c-27.1,0-54.1,0-81.2,0c-17,0-18.5-3.1-19.4-20.3c-0.3-6.8,0.9-11.4,3.9-14.5
		c4-4.2,10.5-4.6,15.8-4.5c31.3,0.4,63.2,0.3,94,0.3c24.2-0.1,48.4-0.1,72.6,0c31,0.1,63.1,0.2,94.7-0.3c6.6-0.1,11.1,1.2,14,4.1
		c3.7,3.6,4.5,9,4.6,15.9C429.9,135.2,429.4,141.2,425.6,145.1z"/>
	<path class="st0" d="M146,185.8c-7.9,1.1-10.5,6-9.3,17.4c8.1,74.8,16.5,155,26.6,252.1c1.1,10.5,5.5,14.7,15.9,14.7
		c0.1,0,0.3,0,0.4,0c24.1-0.3,48.6-0.2,72.3-0.2c9.4,0,18.8,0,28.2,0l31.8,0c21.2,0,42.4,0,63.6,0c17.8,0,19.4-1.4,21.3-19.1
		c2-18.6,4-37.2,6-55.8c3-27.4,6-55.8,8.9-83.6c3.6-35.2,7-70,10.9-111.4c0.3-3.6,0.2-8.4-2.4-11.4c-1.6-1.9-4.1-2.9-7.3-3
		c-7.1-0.3-11.1,4-12,13.3c-1.6,15.6-3.1,31.2-4.7,46.8c-3.7,36.7-7.5,74.6-11.3,111.9c-2.6,25.4-5.3,50.4-8.1,74.3
		c-0.9,8-2.1,17.9-15.7,17.9c-0.1,0-0.1,0-0.2,0c-53.6-0.2-108-0.2-163.6,0c-9.1,0-13.5-4-14.3-13.1c-2.2-25.2-4.8-52-8-81.9
		c-4.5-42.8-9.3-86.2-14-128.2l-2.9-26.6c-0.5-4.5-1.5-10.1-4.7-12.6c-1.3-1-3-1.6-5.1-1.6C147.5,185.6,146.8,185.7,146,185.8z"/>
</g>
</svg>
