<?xml version="1.0" encoding="UTF-8"?>
<svg width="300px" height="300px" viewBox="0 0 300 300" version="1.1" xmlns="http://www.w3.org/2000/svg" xmlns:xlink="http://www.w3.org/1999/xlink">
    <title>Delimitación entre peatones y vehículos</title>
    <defs>
        <linearGradient x1="50%" y1="0%" x2="50%" y2="100%" id="linearGradient-1">
            <stop stop-color="#656A75" offset="0%"></stop>
            <stop stop-color="#2A313F" offset="100%"></stop>
        </linearGradient>
        <path d="M82.4267749,3.55271368e-14 C83.6413116,3.61922084e-14 84.6644091,0.90732033 84.8095711,2.11315091 L89.3768947,40.0529647 C89.535317,41.3689467 88.5969296,42.5641876 87.2809476,42.72261 C87.1866071,42.733967 87.0916754,42.7397113 86.9966539,42.7398125 L70.1462503,42.757 L69.6784935,36.3907985 C69.6577445,36.1086944 69.4442325,35.884027 69.172616,35.8419146 L69.0801099,35.8348101 L65.9553191,35.8348101 C65.6414201,35.8348101 65.3805753,36.0767568 65.3570119,36.3897701 L65.3570119,36.3897701 L64.8762503,42.763 L24.5962503,42.806 L24.1253586,36.3907985 C24.1046096,36.1086944 23.8910976,35.884027 23.6194811,35.8419146 L23.526975,35.8348101 L20.4021841,35.8348101 C20.0882852,35.8348101 19.8274404,36.0767568 19.803877,36.3897701 L19.803877,36.3897701 L19.3202503,42.811 L2.70280568,42.8295641 C1.37732303,42.8309754 0.301662948,41.7576035 0.300251644,40.4321209 C0.30015064,40.3372583 0.305674042,40.2424731 0.316792777,40.1482644 L4.80512912,2.11869889 C4.9477333,0.91041715 5.97191875,3.53065458e-14 7.18858663,3.55271368e-14 L82.4267749,3.55271368e-14 Z" id="path-2"></path>
        <path d="M82.4267749,3.55271368e-14 C83.6413116,3.61922084e-14 84.6644091,0.90732033 84.8095711,2.11315091 L89.3768947,40.0529647 C89.535317,41.3689467 88.5969296,42.5641876 87.2809476,42.72261 C87.1866071,42.733967 87.0916754,42.7397113 86.9966539,42.7398125 L70.1462503,42.757 L69.6784935,36.3907985 C69.6577445,36.1086944 69.4442325,35.884027 69.172616,35.8419146 L69.0801099,35.8348101 L65.9553191,35.8348101 C65.6414201,35.8348101 65.3805753,36.0767568 65.3570119,36.3897701 L65.3570119,36.3897701 L64.8762503,42.763 L24.5962503,42.806 L24.1253586,36.3907985 C24.1046096,36.1086944 23.8910976,35.884027 23.6194811,35.8419146 L23.526975,35.8348101 L20.4021841,35.8348101 C20.0882852,35.8348101 19.8274404,36.0767568 19.803877,36.3897701 L19.803877,36.3897701 L19.3202503,42.811 L2.70280568,42.8295641 C1.37732303,42.8309754 0.301662948,41.7576035 0.300251644,40.4321209 C0.30015064,40.3372583 0.305674042,40.2424731 0.316792777,40.1482644 L4.80512912,2.11869889 C4.9477333,0.91041715 5.97191875,3.53065458e-14 7.18858663,3.55271368e-14 L82.4267749,3.55271368e-14 Z" id="path-4"></path>
        <path d="M82.4267749,3.55271368e-14 C83.6413116,3.61922084e-14 84.6644091,0.90732033 84.8095711,2.11315091 L89.3768947,40.0529647 C89.535317,41.3689467 88.5969296,42.5641876 87.2809476,42.72261 C87.1866071,42.733967 87.0916754,42.7397113 86.9966539,42.7398125 L70.1462503,42.757 L69.6784935,36.3907985 C69.6577445,36.1086944 69.4442325,35.884027 69.172616,35.8419146 L69.0801099,35.8348101 L65.9553191,35.8348101 C65.6414201,35.8348101 65.3805753,36.0767568 65.3570119,36.3897701 L65.3570119,36.3897701 L64.8762503,42.763 L24.5962503,42.806 L24.1253586,36.3907985 C24.1046096,36.1086944 23.8910976,35.884027 23.6194811,35.8419146 L23.526975,35.8348101 L20.4021841,35.8348101 C20.0882852,35.8348101 19.8274404,36.0767568 19.803877,36.3897701 L19.803877,36.3897701 L19.3202503,42.811 L2.70280568,42.8295641 C1.37732303,42.8309754 0.301662948,41.7576035 0.300251644,40.4321209 C0.30015064,40.3372583 0.305674042,40.2424731 0.316792777,40.1482644 L4.80512912,2.11869889 C4.9477333,0.91041715 5.97191875,3.53065458e-14 7.18858663,3.55271368e-14 L82.4267749,3.55271368e-14 Z" id="path-6"></path>
        <path d="M82.4267749,3.55271368e-14 C83.6413116,3.61922084e-14 84.6644091,0.90732033 84.8095711,2.11315091 L89.3768947,40.0529647 C89.535317,41.3689467 88.5969296,42.5641876 87.2809476,42.72261 C87.1866071,42.733967 87.0916754,42.7397113 86.9966539,42.7398125 L70.1462503,42.757 L69.6784935,36.3907985 C69.6577445,36.1086944 69.4442325,35.884027 69.172616,35.8419146 L69.0801099,35.8348101 L65.9553191,35.8348101 C65.6414201,35.8348101 65.3805753,36.0767568 65.3570119,36.3897701 L65.3570119,36.3897701 L64.8762503,42.763 L24.5962503,42.806 L24.1253586,36.3907985 C24.1046096,36.1086944 23.8910976,35.884027 23.6194811,35.8419146 L23.526975,35.8348101 L20.4021841,35.8348101 C20.0882852,35.8348101 19.8274404,36.0767568 19.803877,36.3897701 L19.803877,36.3897701 L19.3202503,42.811 L2.70280568,42.8295641 C1.37732303,42.8309754 0.301662948,41.7576035 0.300251644,40.4321209 C0.30015064,40.3372583 0.305674042,40.2424731 0.316792777,40.1482644 L4.80512912,2.11869889 C4.9477333,0.91041715 5.97191875,3.53065458e-14 7.18858663,3.55271368e-14 L82.4267749,3.55271368e-14 Z" id="path-8"></path>
        <polygon id="path-10" points="0.00120854634 0.465961756 109.337053 0.465961756 109.337053 41.7939496 0.00120854634 41.7939496"></polygon>
        <polygon id="path-12" points="0.117550985 0.166376546 80.5457729 0.166376546 80.5457729 5.11873089 0.117550985 5.11873089"></polygon>
        <polygon id="path-14" points="0.14542841 0.967105639 1.91084605 0.967105639 1.91084605 7.98204574 0.14542841 7.98204574"></polygon>
        <path d="M-1.42108547e-14,1.46771239 L-1.42108547e-14,13.5948035 C-1.42108547e-14,14.4058724 0.653957854,15.0625159 1.46099824,15.0625159 L30.3600269,15.0625159 C31.3644632,15.0625159 32.0009643,13.9801955 31.5188886,13.0966139 L25.1323926,1.40057093 C24.6597167,0.538474537 23.7573354,1.59872116e-14 22.77707,1.59872116e-14 L1.46099824,1.59872116e-14 C0.653957854,1.59872116e-14 -1.42108547e-14,0.656643512 -1.42108547e-14,1.46771239" id="path-16"></path>
    </defs>
    <g id="Delimitación-entre-peatones-y-vehículos" stroke="none" stroke-width="1" fill="none" fill-rule="evenodd">
        <rect fill="#F9FDFF" x="0" y="0" width="300" height="300"></rect>
        <polygon id="Path-65" fill="#EDF7FF" points="0 64.9746094 37.391222 90.5821719 86.5557854 102.610645 124.50511 128.472656 188.736328 137.313413 265 163.191895 300 147.171875 300 250 0 253.799176"></polygon>
        <rect id="Rectangle-Copy-10" fill="url(#linearGradient-1)" x="0" y="245" width="300" height="55"></rect>
        <g id="Group-5" transform="translate(21.000000, 111.200000)">
            <g id="Group-Copy-2">
                <rect id="Rectangle" fill="#272A30" x="18.674625" y="20.3431315" width="3.33701289" height="130.874571"></rect>
                <rect id="Rectangle" stroke="#000000" stroke-width="1.08" fill="#FFFFFF" x="0.54" y="0.54" width="39.606263" height="52.92" rx="3.24"></rect>
                <circle id="Oval" stroke="#E62D36" stroke-width="3.24" cx="20.3431315" cy="18.4842256" r="11.9865234"></circle>
                <text id="E" font-family="OpenSans-ExtraBold, Open Sans" font-size="18.36" font-weight="600" fill="#000000">
                    <tspan x="14.9431315" y="25.630749">E</tspan>
                </text>
            </g>
            <g id="Group-4" transform="translate(9.633600, 35.121600)">
                <path d="M8.27071299,4.80370323 L7.94318771,4.15285183 L6.93681732,2.09252224 C6.58829684,1.52845103 5.96823831,1.15053731 5.25860022,1.15053731 C5.25160182,1.15053731 5.24600309,1.15193699 5.23900469,1.15193699 L5.23760501,1.15053731 L2.35706222,1.15053731 L2.35706222,1.26531111 L1.07291953e-12,1.26531111 L1.07291953e-12,-1.24344979e-14 L2.35706222,-1.24344979e-14 L2.35706222,0.291133529 L7.20135697,0.296732251 L8.139143,1.52845103 L16.0921285,1.52985071 L16.0977272,1.5228523 L16.1103243,1.52985071 L16.1159231,1.52985071 L16.1159231,1.53265007 L21.3479293,4.24523074 L21.1141827,4.77430994 L17.3709288,5.61869937 L16.287583,9.2777274 L13.5871204,10.1812396 L12.2708354,10.1812396 L9.94170377,10.1812396 L7.774683,10.1812396 L5.55362527,8.23140651 L3.49744955,9.44315922 L3.63739143,9.60293525 L1.81953258,10.7355069 L0.174869118,10.7355069 L0.106976523,10.7241953 L0.0986631444,10.2052767 L0.0986631444,5.31584748 L0.0986631444,5.04295567 L3.29931402,5.04295567 L3.29931402,4.26952658 L3.86600935,2.63641762 L5.94989633,2.63641762 L6.86021132,5.04295567 L8.08920584,5.04295567 L8.27071299,4.80370323 Z M6.20622552,4.22569422 L5.71296503,2.86547706 L4.12788079,2.86547706 L3.6914284,4.22569422 L6.20622552,4.22569422 Z" id="Shape" fill="#000000"></path>
                <g id="Group-3" transform="translate(1.859320, 6.828204)">
                    <circle id="Oval" stroke="#FFFFFF" stroke-width="0.72" fill="#000000" cx="3.07789388" cy="3.07789388" r="3.07789388"></circle>
                    <circle id="Oval" fill="#FFFFFF" cx="3.07789388" cy="3.07789388" r="1"></circle>
                    <circle id="Oval-Copy-2" stroke="#FFFFFF" stroke-width="0.72" fill="#000000" cx="14.7863173" cy="3.07789388" r="3.07789388"></circle>
                    <circle id="Oval-Copy-3" fill="#FFFFFF" cx="14.7863173" cy="3.07789388" r="1"></circle>
                </g>
            </g>
        </g>
        <g id="Group-4" transform="translate(-24.000000, 164.000000)">
            <rect id="Rectangle" fill="#5F636D" x="18.57625" y="61.8138924" width="184" height="13.92"></rect>
            <g id="Group-3" transform="translate(34.576250, 61.813892)">
                <g id="Group" transform="translate(114.806562, 0.000000)">
                    <circle id="Oval" fill="#272A30" cx="18.1248" cy="18.1248" r="18.1248"></circle>
                    <circle id="Oval" fill="#FFE94D" cx="18.1248" cy="18.1248" r="7.9872"></circle>
                </g>
                <g id="Group-2" transform="translate(-0.000000, 0.000000)">
                    <circle id="Oval-Copy" fill="#272A30" cx="18.1248" cy="18.1248" r="18.1248"></circle>
                    <circle id="Oval-Copy-2" fill="#FFE94D" cx="18.1248" cy="18.1248" r="7.9872"></circle>
                </g>
            </g>
            <rect id="Rectangle" fill="#454A55" x="79.0056696" y="69.2568504" width="56.96" height="4.48"></rect>
            <rect id="Rectangle" fill="#272A30" x="129.45625" y="42.3603342" width="12" height="19.4535582"></rect>
            <rect id="Rectangle" fill="#D8D8D8" x="133.669375" y="11.3836776" width="3.57375" height="30.9766566"></rect>
            <rect id="Rectangle" fill="#BABABA" x="133.15875" y="36.9144182" width="4.595" height="5.44591606"></rect>
            <rect id="Rectangle-Copy" fill="#BABABA" x="133.15875" y="10.6667619" width="4.595" height="5.44591606"></rect>
            <polygon id="Path-85" fill="#FFE94D" points="18.57625 61.8138924 -1.67688086e-12 53.5616358 18.57625 19.07625 126.50875 19.07625 139.805 -2.13162821e-14 180.49625 -2.13162821e-14 180.49625 3.3425 141.45625 3.3425 115.4025 61.8138924"></polygon>
            <g id="Group-5" transform="translate(141.456250, 4.853892)">
                <path d="M-5.5067062e-13,56.96 L-5.5067062e-13,2.13162821e-14 L39.04,2.13162821e-14 L56.24,34.7064418 L56.24,56.96 L-5.5067062e-13,56.96 Z" id="Combined-Shape" fill="#FFE94D"></path>
                <path d="M2.87258712,23.7696384 L2.87258712,4.57342181 C2.87258712,4.15987099 3.20783629,3.82462181 3.62138712,3.82462181 L17.7909871,3.82462181 C18.2045379,3.82462181 18.5397871,4.15987099 18.5397871,4.57342181 L18.5397871,22.3591111 C17.701627,22.3247148 16.8548377,22.3072059 16.0005574,22.3072059 C11.3400019,22.3072059 6.90239649,22.8283204 2.87258712,23.7696384 L2.87258712,23.7696384 Z M46.9342187,32.0605258 L30.9396875,32.0605258 C26.7933355,25.8661997 23.256064,22.6656371 20.327873,22.4588379 L20.327873,4.57342181 C20.327873,4.15987099 20.6631222,3.82462181 21.076673,3.82462181 L37.6265289,3.82462181 C37.9090638,3.82462181 38.167544,3.9836506 38.2949175,4.23584499 L50.5396875,28.48 L46.9342187,32.0605258 Z" id="Shape" fill="#272A30"></path>
                <line x1="19.0305435" y1="3.89389944" x2="19.0305435" y2="56.96" id="Line-4" stroke="#D1BC2A" stroke-width="0.5" transform="translate(19.225744, 30.383484) scale(-1, 1) translate(-19.225744, -30.383484) "></line>
                <rect id="Rectangle" fill="#272A30" x="21.6865625" y="31.3247071" width="5.01957481" height="1.6" rx="0.8"></rect>
                <rect id="Rectangle" fill="#474C58" x="0" y="52.1247071" width="57.6" height="4.83529287"></rect>
                <path d="M52.4408194,41.7247071 L56.24,41.7247071 L56.24,41.7247071 L56.24,47.2332209 L52.4408194,47.2332209 C50.9196853,47.2332209 49.6865625,46.0000981 49.6865625,44.478964 C49.6865625,42.9578299 50.9196853,41.7247071 52.4408194,41.7247071 Z" id="Rectangle" fill="#FF6060"></path>
            </g>
            <rect id="Rectangle" fill="#7C828F" x="75.8856696" y="63.8109343" width="63.2" height="5.44591606"></rect>
            <rect id="Rectangle" fill="#FFE94D" x="15.1428125" y="14.7729732" width="111.300391" height="4.4"></rect>
            <line x1="29.1428125" y1="26.3603342" x2="15.1428125" y2="52.7603342" id="Line-49" stroke="#D1BC2A" stroke-width="1.6" stroke-linecap="round"></line>
            <line x1="42.1999554" y1="26.3603342" x2="28.1999554" y2="52.7603342" id="Line-49-Copy" stroke="#D1BC2A" stroke-width="1.6" stroke-linecap="round"></line>
            <line x1="55.2570982" y1="26.3603342" x2="41.2570982" y2="52.7603342" id="Line-49-Copy-2" stroke="#D1BC2A" stroke-width="1.6" stroke-linecap="round"></line>
            <line x1="68.3142411" y1="26.3603342" x2="54.3142411" y2="52.7603342" id="Line-49-Copy-3" stroke="#D1BC2A" stroke-width="1.6" stroke-linecap="round"></line>
            <line x1="81.3713839" y1="26.3603342" x2="67.3713839" y2="52.7603342" id="Line-49-Copy-4" stroke="#D1BC2A" stroke-width="1.6" stroke-linecap="round"></line>
            <line x1="94.4285268" y1="26.3603342" x2="80.4285268" y2="52.7603342" id="Line-49-Copy-5" stroke="#D1BC2A" stroke-width="1.6" stroke-linecap="round"></line>
            <line x1="107.48567" y1="26.3603342" x2="93.4856696" y2="52.7603342" id="Line-49-Copy-6" stroke="#D1BC2A" stroke-width="1.6" stroke-linecap="round"></line>
            <line x1="120.542813" y1="26.3603342" x2="106.542812" y2="52.7603342" id="Line-49-Copy-7" stroke="#D1BC2A" stroke-width="1.6" stroke-linecap="round"></line>
            <line x1="126.443203" y1="19.1729732" x2="18.57625" y2="19.1729732" id="Line-50" stroke="#D1BC2A" stroke-width="0.56"></line>
        </g>
        <g id="Group-2" transform="translate(-53.500000, 229.500000)">
            <g id="Rectangle" transform="translate(211.000000, 0.000000)">
                <rect fill="#A36C00" x="19.3051828" y="34.6369341" width="5.30741071" height="6.6"></rect>
                <rect id="Rectangle-Copy-2" fill="#A36C00" x="64.8" y="34.6369341" width="5.30741071" height="6.6"></rect>
                <mask id="mask-3" fill="white">
                    <use xlink:href="#path-2"></use>
                </mask>
                <use id="Mask" fill="#FFB116" xlink:href="#path-2"></use>
                <rect fill="#D08E0C" mask="url(#mask-3)" x="0" y="25.0592677" width="89.6103656" height="17.7702978"></rect>
            </g>
            <g id="Rectangle-Copy-4" transform="translate(316.800000, 0.000000)">
                <rect id="Rectangle" fill="#A36C00" x="19.3051828" y="34.6369341" width="5.30741071" height="6.6"></rect>
                <mask id="mask-5" fill="white">
                    <use xlink:href="#path-4"></use>
                </mask>
                <use id="Mask" fill="#FFB116" xlink:href="#path-4"></use>
                <rect id="Rectangle" fill="#D08E0C" mask="url(#mask-5)" x="0" y="25.0592677" width="89.6103656" height="17.7702978"></rect>
            </g>
            <g id="Rectangle-Copy-3" transform="translate(105.800000, 0.000000)">
                <rect id="Rectangle" fill="#A36C00" x="19.3051828" y="34.6369341" width="5.30741071" height="6.6"></rect>
                <rect id="Rectangle-Copy-2" fill="#A36C00" x="64.8" y="34.6369341" width="5.30741071" height="6.6"></rect>
                <mask id="mask-7" fill="white">
                    <use xlink:href="#path-6"></use>
                </mask>
                <use id="Mask" fill="#FFB116" xlink:href="#path-6"></use>
                <rect id="Rectangle" fill="#D08E0C" mask="url(#mask-7)" x="0" y="25.0592677" width="89.6103656" height="17.7702978"></rect>
            </g>
            <g id="Rectangle-Copy-5">
                <rect id="Rectangle-Copy-2" fill="#A36C00" x="64.8" y="34.6369341" width="5.30741071" height="6.6"></rect>
                <mask id="mask-9" fill="white">
                    <use xlink:href="#path-8"></use>
                </mask>
                <use id="Mask" fill="#FFB116" xlink:href="#path-8"></use>
                <rect id="Rectangle" fill="#D08E0C" mask="url(#mask-9)" x="0" y="25.0592677" width="89.6103656" height="17.7702978"></rect>
            </g>
        </g>
        <g id="Group" transform="translate(243.500000, 82.500000)">
            <rect id="Rectangle" fill="#272A30" x="24.2078473" y="26.370726" width="4.32575745" height="169.652221"></rect>
            <rect id="Rectangle" stroke="#000000" stroke-width="1.4" fill="#FFFFFF" x="0.7" y="0.7" width="51.341452" height="68.6" rx="4.2"></rect>
            <g id="parking" transform="translate(26.370726, 55.060447) scale(-1, 1) translate(-26.370726, -55.060447) translate(9.570726, 46.660447)" fill="#000000" fill-rule="nonzero">
                <path d="M7.9716,9.60855 C6.1131,9.60855 4.60845,11.11425 4.60845,12.9717 C4.60845,14.83125 6.11415,16.3359 7.9716,16.3359 C9.828,16.3359 11.33475,14.8302 11.33475,12.9717 C11.33475,11.11425 9.828,9.60855 7.9716,9.60855 Z M7.9716,13.98705 C7.413,13.98705 6.9552,13.53135 6.9552,12.9717 C6.9552,12.41205 7.413,11.95635 7.9716,11.95635 C8.52915,11.95635 8.9859,12.41205 8.9859,12.9717 C8.9859,13.53135 8.52915,13.98705 7.9716,13.98705 Z" id="Shape"></path>
                <path d="M32.4597,10.21545 L31.90845,5.74035 C31.80135,4.88145 31.0506,4.25145 30.18435,4.2987 L28.98,4.36485 L25.23675,0.9933 C24.8766,0.66885 24.4104,0.49035 23.9253,0.49035 L16.32225,0.4893 C14.616,0.4893 12.9612,1.07205 11.63085,2.14095 L7.3899,5.5503 L1.68525,6.9741 C0.95235,7.15785 0.43785,7.8162 0.43785,8.57115 L0.43785,10.2144 C0.19635,10.21545 0,10.4118 0,10.6533 L0,12.82785 C0,13.1376 0.25095,13.38855 0.5607,13.38855 L3.78105,13.38855 C3.7674,13.2489 3.73905,13.11555 3.73905,12.97275 C3.73905,10.63545 5.63325,8.7423 7.97055,8.7423 C10.30785,8.7423 12.201,10.6365 12.201,12.97275 C12.201,13.1166 12.1716,13.24995 12.15795,13.38855 L21.07665,13.38855 C21.063,13.2489 21.03465,13.11555 21.03465,12.97275 C21.03465,10.63545 22.92885,8.7423 25.2651,8.7423 C27.60345,8.7423 29.49555,10.6365 29.49555,12.97275 C29.49555,13.1166 29.4672,13.24995 29.4525,13.38855 L32.45655,13.38855 C32.7663,13.38855 33.0173017,13.1376 33.0173017,12.82785 L33.0173017,10.7772 C33.02145,10.46745 32.76945,10.21545 32.4597,10.21545 Z M21.17535,4.71555 L10.56825,5.25315 L12.59895,3.6204 C13.7025,2.7321 15.0738,2.2491 16.49025,2.2491 L21.17535,2.2491 L21.17535,4.71555 Z M22.9383,4.62525 L22.9383,2.25015 L23.62815,2.25015 C23.86755,2.25015 24.0975,2.33835 24.27495,2.499 L26.44005,4.4478 L22.9383,4.62525 Z" id="Shape"></path>
                <path d="M25.2672,9.60855 C23.4087,9.60855 21.90405,11.11425 21.90405,12.9717 C21.90405,14.83125 23.4108,16.3359 25.2672,16.3359 C27.1236,16.3359 28.6303505,14.8302 28.6303505,12.9717 C28.6314,11.11425 27.1236,9.60855 25.2672,9.60855 Z M25.2672,13.98705 C24.7086,13.98705 24.25185,13.53135 24.25185,12.9717 C24.25185,12.41205 24.7086,11.95635 25.2672,11.95635 C25.82475,11.95635 26.28255,12.41205 26.28255,12.9717 C26.28255,13.53135 25.8258,13.98705 25.2672,13.98705 Z" id="Shape"></path>
            </g>
            <circle id="Oval" stroke="#E62D36" stroke-width="4.2" cx="26.370726" cy="23.9610332" r="15.5380859"></circle>
            <text id="E" font-family="OpenSans-ExtraBold, Open Sans" font-size="23.8" font-weight="600" fill="#000000">
                <tspan x="19.370726" y="32.2991191">E</tspan>
            </text>
        </g>
        <g id="Group-13" transform="translate(223.000000, 7.000000)">
            <path d="M5.1277704,-2.07168062e-16 L64.8722296,2.07168062e-16 C66.6552671,-1.2037061e-16 67.3018396,0.185651222 67.9536914,0.534265408 C68.6055433,0.882879593 69.1171204,1.39445674 69.4657346,2.04630859 C69.8143488,2.69816044 70,3.34473292 70,5.1277704 L70,64.8722296 C70,66.6552671 69.8143488,67.3018396 69.4657346,67.9536914 C69.1171204,68.6055433 68.6055433,69.1171204 67.9536914,69.4657346 C67.3018396,69.8143488 66.6552671,70 64.8722296,70 L5.1277704,70 C3.34473292,70 2.69816044,69.8143488 2.04630859,69.4657346 C1.39445674,69.1171204 0.882879593,68.6055433 0.534265408,67.9536914 C0.185651222,67.3018396 8.02470732e-17,66.6552671 -1.38112041e-16,64.8722296 L1.38112041e-16,5.1277704 C-8.02470732e-17,3.34473292 0.185651222,2.69816044 0.534265408,2.04630859 C0.882879593,1.39445674 1.39445674,0.882879593 2.04630859,0.534265408 C2.69816044,0.185651222 3.34473292,1.2037061e-16 5.1277704,-2.07168062e-16 Z" id="Rectangle-Copy-7" fill="#FF6060"></path>
            <g id="Group-10" transform="translate(20.077256, 14.598573)" fill="#FFFFFF">
                <path d="M21.994,20.2953051 L24.648,30.9503051 L28.6892308,30.9503125 L31.0892308,37.0796875 L31.0892308,38.0926562 L-1.70530257e-13,38.0926562 L-1.70530257e-13,37.0796875 L1.8190024,30.9503125 L6.44,30.9503051 L9.093,20.2953051 L21.994,20.2953051 Z M19.37,9.75930508 L20.631,14.8223051 L10.457,14.8223051 L11.718,9.75930508 L19.37,9.75930508 Z M16.0086779,0.480683665 C16.6978865,0.652354683 17.2360187,1.19048689 17.4076897,1.87969554 L18.409,5.90130508 L12.679,5.90130508 L13.681541,1.87969554 C13.9378357,0.850747988 14.9797303,0.224389038 16.0086779,0.480683665 Z" id="Combined-Shape"></path>
            </g>
        </g>
        <g id="Group-6" transform="translate(234.400000, 263.200000) scale(-1, 1) translate(-234.400000, -263.200000) translate(179.200000, 234.400000)">
            <g id="Group-Copy-4">
                <g id="Group-3" transform="translate(0.000000, 0.285405)">
                    <mask id="mask-11" fill="white">
                        <use xlink:href="#path-10"></use>
                    </mask>
                    <g id="Clip-2"></g>
                    <path d="M89.4390091,16.7313841 C86.222933,15.9592573 83.5305604,13.7717884 82.1514747,10.7665365 C80.0002622,6.07603387 77.9564761,0.46569319 74.181783,0.46569319 L28.5887008,0.46569319 C24.2809045,0.46569319 20.5626103,2.98752656 18.8290177,6.63465085 C17.127653,10.2132908 15.2476921,13.7033041 12.9245974,16.8911808 C11.8825619,18.321294 10.4631914,19.4318138 8.83702513,20.1233708 C8.83702513,20.1233708 0.00120854634,24.8340159 0.00120854634,29.8723113 L0.00120854634,40.8647117 C0.00120854634,41.3776725 0.41614279,41.7939496 0.929103571,41.7939496 L107.671945,41.7939496 C108.591783,41.7939496 109.337053,41.0473365 109.337053,40.1288413 L109.337053,28.6919644 C109.337053,25.1012389 107.153613,22.0207886 104.04362,20.7061588 C101.846752,19.7769209 94.3336218,17.9050169 89.4390091,16.7313841" id="Fill-1" fill="#5391C3" mask="url(#mask-11)"></path>
                </g>
                <path d="M1.06929495,37.3650503 C0.479792898,37.3650503 0.00040284878,37.8430975 0.00040284878,38.4339424 L0.00040284878,41.2485125 C0.00040284878,41.8380146 0.479792898,42.3174046 1.06929495,42.3174046 L4.01009104,42.3174046 C4.56870802,40.4857855 5.48048909,38.8072489 6.67023582,37.3650503 L1.06929495,37.3650503 Z" id="Fill-6" fill="#404040"></path>
                <path d="M108.26749,37.3650503 L28.9089656,37.3650503 C30.0987124,38.8072489 31.0104934,40.4857855 31.5691104,42.3174046 L108.26749,42.3174046 C108.858335,42.3174046 109.337725,41.8380146 109.337725,41.2485125 L109.337725,38.4339424 C109.337725,37.8430975 108.858335,37.3650503 108.26749,37.3650503" id="Fill-8" fill="#404040"></path>
                <path d="M7.80438942,47.0311714 L27.7736035,47.0311714 C26.9115071,44.9793283 25.4276807,43.2564784 23.5651765,42.0788171 L12.0128164,42.0788171 C10.1503122,43.2564784 8.66917147,44.9793283 7.80438942,47.0311714" id="Fill-4" fill="#7E7E7E"></path>
                <path d="M47.4860686,42.1450186 L28.7428576,42.1450186 L28.7213724,42.1235333 C22.7753244,35.6497534 16.3592861,37.1134373 16.297516,37.1308941 L16.2156034,37.1496937 L16.2156034,20.6033515 L16.226346,20.5858947 L18.0834789,17.8156379 L18.1962766,17.8908363 L16.3498863,20.6449792 L16.3498863,36.98184 C17.1287273,36.8341288 23.1754875,35.904891 28.8005993,42.0107356 L47.3517856,42.0107356 L47.3517856,4.23157701 L47.4860686,4.23157701 L47.4860686,42.1450186 Z" id="Fill-28" fill="#445B76"></path>
                <g id="Group-10" transform="translate(28.791415, 41.913112)">
                    <mask id="mask-13" fill="white">
                        <use xlink:href="#path-12"></use>
                    </mask>
                    <g id="Clip-9"></g>
                </g>
                <path d="M17.7891307,35.5150676 C11.809512,35.5150676 6.96189834,40.3626813 6.96189834,46.3436428 C6.96189834,52.3246044 11.809512,57.1722181 17.7891307,57.1722181 C23.7700923,57.1722181 28.617706,52.3246044 28.617706,46.3436428 C28.617706,40.3626813 23.7700923,35.5150676 17.7891307,35.5150676" id="Fill-11" fill="#272A30"></path>
                <path d="M17.7891307,41.8725585 C15.3196677,41.8725585 13.3175093,43.8733741 13.3175093,46.34418 C13.3175093,48.813643 15.3196677,50.8158014 17.7891307,50.8158014 C20.2599366,50.8158014 22.2607522,48.813643 22.2607522,46.34418 C22.2607522,43.8733741 20.2599366,41.8725585 17.7891307,41.8725585" id="Fill-13" fill="#5E626B"></path>
                <path d="M90.2480638,35.5371853 C84.2671022,35.5371853 79.4194885,40.384799 79.4194885,46.3657605 C79.4194885,52.3467221 84.2671022,57.1943358 90.2480638,57.1943358 C96.2276825,57.1943358 101.075296,52.3467221 101.075296,46.3657605 C101.075296,40.384799 96.2276825,35.5371853 90.2480638,35.5371853" id="Fill-15" fill="#272A30"></path>
                <path d="M90.2480638,41.8946762 C87.7772579,41.8946762 85.7764423,43.8954918 85.7764423,46.3662977 C85.7764423,48.8357607 87.7772579,50.8379191 90.2480638,50.8379191 C92.7175268,50.8379191 94.7196852,48.8357607 94.7196852,46.3662977 C94.7196852,43.8954918 92.7175268,41.8946762 90.2480638,41.8946762" id="Fill-17" fill="#5E626B"></path>
                <g id="Group-21" transform="translate(107.426341, 29.827649)">
                    <mask id="mask-15" fill="white">
                        <use xlink:href="#path-14"></use>
                    </mask>
                    <g id="Clip-20"></g>
                    <path d="M1.9112489,7.98204574 L1.9112489,7.98204574 L1.9112489,0.967105639 C0.93501202,0.967105639 0.14542841,1.75803208 0.14542841,2.73426896 L0.14542841,6.21622525 C0.14542841,7.1911193 0.93501202,7.98204574 1.9112489,7.98204574" id="Fill-19" fill="#B6605D" mask="url(#mask-15)"></path>
                </g>
                <path d="M5.17512972,26.9960245 C4.84210806,26.9960245 4.57085655,27.267276 4.57085655,27.6002976 L4.57085655,29.7259964 C4.57085655,30.059018 4.84210806,30.3302695 5.17512972,30.3302695 L10.4336491,30.3302695 C10.7666708,30.3302695 11.0379223,30.059018 11.0379223,29.7259964 L11.0379223,27.6002976 C11.0379223,27.267276 10.7666708,26.9960245 10.4336491,26.9960245 L5.17512972,26.9960245 Z M10.4336491,30.4645525 L5.17512972,30.4645525 C4.76690962,30.4645525 4.43657362,30.1342165 4.43657362,29.7259964 L4.43657362,27.6002976 C4.43657362,27.1920775 4.76690962,26.8617415 5.17512972,26.8617415 L10.4336491,26.8617415 C10.8418692,26.8617415 11.1722052,27.1920775 11.1722052,27.6002976 L11.1722052,29.7259964 C11.1722052,30.1342165 10.8418692,30.4645525 10.4336491,30.4645525 L10.4336491,30.4645525 Z" id="Fill-22" fill="#445B76"></path>
                <path d="M52.5203355,22.3658149 L49.9904452,22.3658149 C49.7594785,22.3658149 49.5728252,22.1778188 49.5728252,21.9468521 L49.5728252,21.8327116 C49.5728252,21.601745 49.7594785,21.4150917 49.9904452,21.4150917 L52.5203355,21.4150917 C52.7513021,21.4150917 52.9392982,21.601745 52.9392982,21.8327116 L52.9392982,21.9468521 C52.9392982,22.1778188 52.7513021,22.3658149 52.5203355,22.3658149" id="Fill-24" fill="#445B76"></path>
                <path d="M21.0859109,22.3658149 L18.5546777,22.3658149 C18.3237111,22.3658149 18.1370578,22.1778188 18.1370578,21.9468521 L18.1370578,21.8327116 C18.1370578,21.601745 18.3237111,21.4150917 18.5546777,21.4150917 L21.0859109,21.4150917 C21.3155347,21.4150917 21.5035308,21.601745 21.5035308,21.8327116 L21.5035308,21.9468521 C21.5035308,22.1778188 21.3155347,22.3658149 21.0859109,22.3658149" id="Fill-26" fill="#445B76"></path>
                <path d="M79.1487742,42.1450186 L47.4190614,42.1450186 L47.4190614,42.0107356 L79.1071465,42.0107356 C79.3407988,41.850939 81.9082883,40.0864613 83.6929084,38.3394404 L83.6929084,21.4372484 L81.2033029,18.3165132 L81.3080436,18.231915 L83.8258485,21.3902494 L83.8258485,38.3958393 L83.8070489,38.4173245 C81.9351449,40.2529721 79.1930875,42.1154763 79.1662309,42.1329331 L79.1487742,42.1450186 Z" id="Fill-30" fill="#445B76"></path>
                <path d="M101.368436,37.2184076 C98.7230621,34.0090456 94.7214309,31.9598882 90.2484666,31.9598882 C85.7755023,31.9598882 81.7725283,34.0090456 79.1284974,37.2184076 C77.9387507,38.6606062 77.0283125,40.3391428 76.4696955,42.1707619 L80.2631882,42.1707619 C81.1266274,40.117576 82.6091109,38.3960688 84.4716151,37.2184076 C86.1447804,36.1589153 88.1214251,35.5371853 90.2484666,35.5371853 C92.3741653,35.5371853 94.35081,36.1589153 96.0253181,37.2184076 C97.8864795,38.3960688 99.3703058,40.117576 100.232402,42.1707619 L104.025895,42.1707619 C103.467278,40.3391428 102.558183,38.6606062 101.368436,37.2184076" id="Fill-32" fill="#8F9091"></path>
                <path d="M28.9093685,37.1962899 C26.2653376,33.9869279 22.2623636,31.9377705 17.7893993,31.9377705 C13.316435,31.9377705 9.31346096,33.9869279 6.66943013,37.1962899 C5.48102622,38.6384885 4.56924515,40.3170251 4.01062818,42.1486442 L7.80412086,42.1486442 C8.66890291,40.0954583 10.1500436,38.3739511 12.0125478,37.1962899 C13.6857131,36.1367976 15.6637006,35.5150676 17.7893993,35.5150676 C19.9164409,35.5150676 21.8930855,36.1367976 23.5662508,37.1962899 C25.4274122,38.3739511 26.9112385,40.0954583 27.7733349,42.1486442 L31.5681704,42.1486442 C31.0095534,40.3170251 30.0991152,38.6384885 28.9093685,37.1962899" id="Fill-34" fill="#8F9091"></path>
                <polygon id="Fill-36" fill="#445B76" points="50.5140143 4.29804706 44.3745989 4.29804706 44.0321774 4.16376414 50.9584908 4.16376414"></polygon>
                <path d="M18.2965859,17.1689313 L22.4929274,9.05018556 C23.1965699,7.68855668 24.2332341,6.5283522 25.5048934,5.6796841 C26.9846913,4.69136176 28.7223124,4.16362985 30.4988755,4.16362985 L43.9177684,4.16362985 C44.6925808,4.16362985 45.3210249,4.79475961 45.3210249,5.57360059 L45.3210249,17.8175179 C45.3210249,18.595016 44.6925808,19.2261458 43.9177684,19.2261458 L19.5413886,19.2261458 C18.4899533,19.2261458 17.8118245,18.1062261 18.2965859,17.1689313" id="Fill-38" fill="#272A30"></path>
                <g id="Group-4" transform="translate(49.572422, 4.163898)">
                    <mask id="mask-17" fill="white">
                        <use xlink:href="#path-16"></use>
                    </mask>
                    <use id="Mask" fill="#272A30" xlink:href="#path-16"></use>
                </g>
            </g>
        </g>
    </g>
</svg>