<?xml version="1.0" encoding="UTF-8"?>
<svg width="300px" height="300px" viewBox="0 0 300 300" version="1.1" xmlns="http://www.w3.org/2000/svg" xmlns:xlink="http://www.w3.org/1999/xlink">
    <title>Comunicación efectiva zona segura de trabajo</title>
    <defs>
        <linearGradient x1="50%" y1="0%" x2="50%" y2="100%" id="linearGradient-1">
            <stop stop-color="#656A75" offset="0%"></stop>
            <stop stop-color="#2A313F" offset="100%"></stop>
        </linearGradient>
        <path d="M4.13095272,-1.42108547e-14 L16.2034625,-1.42108547e-14 C18.4126015,-1.37629378e-13 20.2034625,1.790861 20.2034625,4 L20.2034625,9.76171875 L20.2034625,9.76171875 C19.9470845,18.4167079 19.9470845,24.953329 20.2034625,29.371582 C20.2417532,30.03146 20.2864059,30.6551676 20.3374204,31.2427048 C20.6240716,34.5439959 18.1802166,37.4525922 14.8789249,37.739236 C14.7063259,37.7542224 14.5331589,37.7617261 14.3599105,37.7617261 L6.00000735,37.7617261 C2.68629451,37.761734 -5.17179803e-07,35.0754389 -5.17179803e-07,31.7617261 C-5.17179803e-07,31.6170924 0.00522920123,31.472506 0.0156783885,31.3282503 C0.0601101167,30.7148503 0.0985348938,30.0626275 0.13095272,29.371582 C0.332654095,25.0719469 0.332654095,18.5353258 0.13095272,9.76171875 L0.13095272,4 C0.13095272,1.790861 1.92181372,-1.38050425e-14 4.13095272,-1.42108547e-14 Z" id="path-2"></path>
        <rect id="path-4" x="0" y="0" width="6" height="2.23828125"></rect>
        <path d="M35.0088009,3.53047312 C39.0684283,3.69248856 42.9842199,7.65657505 45.8955196,10.1505903 C47.5501204,11.5680327 48.6270553,13.4431648 49.9746212,15.3976606 C56.7224841,25.1846925 57,41.1580577 57,51.8006481 C57,62.627905 57,70.627905 57,75.8006481 C57,88.5383617 57,102.371695 57,117.300648 L35.0088009,123.808738 C26.9748381,126.309845 16.4719045,124.973815 3.5,119.800648 C3.5,104.471776 3.5,90.6384423 3.5,78.3006481 C3.5,72.2024148 2.66960029,57.5703643 1.00880087,34.4044966 C0.812442538,25.9111702 2.44067727,15.8591488 8.5,10.3006481 C14.206477,5.06582935 21.811003,0.176944339 30.5024316,0.00675829701 C31.2013174,-0.00692651964 31.9005011,0 32.5988888,0.0280444933 L35.0088009,3.53047312 Z" id="path-6"></path>
        <path d="M17.0044004,1.76523656 C19.0342142,1.84624428 20.9921099,3.82828752 22.4477598,5.07529516 C23.2750602,5.78401637 23.8135277,6.72158239 24.4873106,7.69883031 C27.861242,12.5923462 27.9228575,19.5203518 27.9228575,24.841647 C27.9228575,30.8255977 27.9228575,35.1107588 27.9228575,37.6971303 C27.9228575,44.0659871 27.9485716,51.0613804 28,58.6833103 L17.0044004,61.9043692 C12.1570194,62.3435799 6.49035269,61.2698936 0.00440043284,58.6833103 L0.00440043284,17.2022483 C-0.0937787308,12.9555851 1.45252227,7.8545455 4.48218364,5.07529516 C7.33542213,2.45788578 10.4055015,0.0884721696 14.7512158,0.0033791485 C15.1006587,-0.00346325982 15.4502506,-7.10542736e-15 15.7994444,0.0140222467 L17.0044004,1.76523656 Z" id="path-8"></path>
    </defs>
    <g id="Comunicación-efectiva-zona-segura-de-trabajo" stroke="none" stroke-width="1" fill="none" fill-rule="evenodd">
        <rect fill="#F7FEFF" x="0" y="0" width="300" height="300"></rect>
        <rect id="Rectangle-Copy-10" fill="url(#linearGradient-1)" x="0" y="245" width="300" height="55"></rect>
        <polygon id="Rectangle-Copy" fill="#272A30" points="48.9062618 224.229825 83.8457149 219.558949 74.5315548 326.290372 52.8809688 326.290372 52.8809688 267.229825"></polygon>
        <polygon id="Rectangle" fill="#434750" points="38 223.5 75.1873825 219.558949 66.0088009 326.290372 44.3582149 326.290372 44.3582149 267.229825 41.5695959 237.061408 41.345185 234.63364"></polygon>
        <g id="Group-7" transform="translate(85.080077, 127.569302) rotate(10.000000) translate(-85.080077, -127.569302) translate(58.080077, 73.069302)">
            <path d="M17.8946957,54.65208 C14.5045016,50.2922143 8.22183689,49.5061401 3.86197119,52.8963342 C-0.497894509,56.2865282 -1.28396871,62.569193 2.10622533,66.9290587 L31.5592531,102.825859 L36.7956376,107.195635 C39.7638682,109.672632 44.1780968,109.274408 46.6550931,106.306177 C46.7829665,106.152944 46.9042281,105.994312 47.0185455,105.830716 L47.3502687,105.355999 C50.4001238,100.991458 51.9447036,95.7519649 51.7501015,90.4309724 L50.4415773,54.65208 L50.4415773,54.65208 L39.2970461,54.65208 L30.1281007,54.65208 L31.5592531,74.6421318 L17.8946957,54.65208 Z" id="Path-12" fill="#4980AC" fill-rule="nonzero"></path>
            <path d="M34.2951113,54.6819878 L34.2951113,51.6519892 C35.6193917,50.7767571 37.093466,50.2833857 38.7173341,50.171875 C40.3412023,50.0603741 42.7002111,49.8937074 45.7943605,49.671875 C45.5644253,50.7774738 45.4217957,51.6541653 45.3664717,52.3019494 C45.3111477,52.9497334 45.3111477,53.7430796 45.3664717,54.6819878 L34.2951113,54.6819878 Z" id="Path-13" fill="#FDDFA5"></path>
            <g id="Group-5" transform="translate(32.631975, 0.000000)">
                <g id="Group-3" transform="translate(3.548921, 0.000000)">
                    <rect id="Rectangle" fill="#767E8E" x="0" y="9" width="3.71875" height="4.23828125"></rect>
                    <path d="M1.859375,0 C2.67438603,-1.49715097e-16 3.33508301,0.66069698 3.33508301,1.47570801 L3.33508301,9 L3.33508301,9 L0.383666992,9 L0.383666992,1.47570801 C0.383666992,0.66069698 1.04436397,1.49715097e-16 1.859375,0 Z" id="Rectangle-Copy-2" fill="#535C6F"></path>
                </g>
                <g id="Rectangle-+-Rectangle-Copy-3-Mask" transform="translate(0.000000, 12.410156)">
                    <g id="Rectangle" transform="translate(0.000000, -0.000000)">
                        <mask id="mask-3" fill="white">
                            <use xlink:href="#path-2"></use>
                        </mask>
                        <use id="Mask" fill="#949AA6" xlink:href="#path-2"></use>
                        <path d="M0,11.380863 L1.82821834,11.380863 C2.30282772,13.880863 2.54013241,16.380863 2.54013241,18.880863 C2.54013241,21.380863 2.30282772,23.880863 1.82821834,26.380863 L0,26.380863 L0,11.380863 Z" fill="#3D4453" mask="url(#mask-3)"></path>
                        <path d="M17.8201352,11.380863 L19.6483536,11.380863 C20.1229629,13.880863 20.3602676,16.380863 20.3602676,18.880863 C20.3602676,21.380863 20.1229629,23.880863 19.6483536,26.380863 L17.8201352,26.380863 L17.8201352,11.380863 Z" id="Rectangle-Copy-3" fill="#3D4453" mask="url(#mask-3)" transform="translate(19.090201, 18.880863) scale(-1, 1) translate(-19.090201, -18.880863) "></path>
                        <rect fill="#3D4453" mask="url(#mask-3)" x="-3.41060513e-13" y="32.7617188" width="20.3602676" height="5.00000735"></rect>
                        <g id="Group-4" mask="url(#mask-3)">
                            <g transform="translate(7.500000, 35.761719)">
                                <mask id="mask-5" fill="white">
                                    <use xlink:href="#path-4"></use>
                                </mask>
                                <use id="Mask" stroke="none" fill="#272A30" fill-rule="evenodd" xlink:href="#path-4"></use>
                                <g id="Group-4" stroke="none" stroke-width="1" fill="none" fill-rule="evenodd" mask="url(#mask-5)">
                                    <g transform="translate(1.353243, 0.487061)" fill="#DAC846">
                                        <rect id="Rectangle" x="0" y="0" width="1" height="2.00000735"></rect>
                                        <rect id="Rectangle-Copy-4" x="2.22277832" y="0" width="1" height="2.00000735"></rect>
                                    </g>
                                </g>
                            </g>
                        </g>
                    </g>
                </g>
                <rect id="Rectangle" fill="#272A30" x="1.82821834" y="18.171875" width="17" height="4"></rect>
                <path d="M15.6612872,33.4238806 C15.8269726,33.4238806 15.9612872,33.5581952 15.9612872,33.7238806 C15.9612872,33.8658967 15.8626071,33.9848648 15.7300744,34.0159574 L15.6612872,34.0238806 L4.9951495,34.0238806 C4.82946407,34.0238806 4.6951495,33.8895661 4.6951495,33.7238806 C4.6951495,33.5818645 4.79382959,33.4628964 4.92636225,33.4318038 L4.9951495,33.4238806 L15.6612872,33.4238806 Z M15.6612872,32.1060095 C15.8269726,32.1060095 15.9612872,32.2403241 15.9612872,32.4060095 C15.9612872,32.5480256 15.8626071,32.6669937 15.7300744,32.6980863 L15.6612872,32.7060095 L4.9951495,32.7060095 C4.82946407,32.7060095 4.6951495,32.571695 4.6951495,32.4060095 C4.6951495,32.2639935 4.79382959,32.1450253 4.92636225,32.1139327 L4.9951495,32.1060095 L15.6612872,32.1060095 Z M15.6612872,30.7881384 C15.8269726,30.7881384 15.9612872,30.922453 15.9612872,31.0881384 C15.9612872,31.2301545 15.8626071,31.3491226 15.7300744,31.3802152 L15.6612872,31.3881384 L4.9951495,31.3881384 C4.82946407,31.3881384 4.6951495,31.2538239 4.6951495,31.0881384 C4.6951495,30.9461224 4.79382959,30.8271543 4.92636225,30.7960617 L4.9951495,30.7881384 L15.6612872,30.7881384 Z M15.6612872,29.4465857 C15.8269726,29.4465857 15.9612872,29.5809003 15.9612872,29.7465857 C15.9612872,29.8886018 15.8626071,30.0075699 15.7300744,30.0386625 L15.6612872,30.0465857 L4.9951495,30.0465857 C4.82946407,30.0465857 4.6951495,29.9122711 4.6951495,29.7465857 C4.6951495,29.6045696 4.79382959,29.4856015 4.92636225,29.4545089 L4.9951495,29.4465857 L15.6612872,29.4465857 Z" id="Combined-Shape" fill="#272A30" fill-rule="nonzero"></path>
            </g>
            <path d="M33.4116265,38.3233332 L37.3106555,33.1073454 L38.8465325,31.4599435 L39.5413503,31.6877755 C40.3480179,31.9522832 40.7875253,32.8206424 40.5230176,33.6273099 C40.522817,33.6279216 40.522616,33.6285332 40.5224147,33.6291446 C40.2016017,34.6033901 39.8461316,35.5658794 39.4566826,36.514776 L38.0996435,39.821216 C37.9654119,40.1482727 37.9202716,40.5050659 37.9688211,40.8552475 L38.3818829,43.8346104 C38.6989109,46.1212934 38.3014565,48.4500757 37.2439286,50.5021627 L36.8483317,51.2698012 L36.8483317,51.2698012 L32.6790267,51.6256664 L31.6200336,48.0016767 C31.2396571,46.6999869 31.0465621,45.3507674 31.0465621,43.9946396 C31.0465621,42.6400758 31.26015,41.2939837 31.6794574,40.0059525 L32.4598117,37.6088548 C32.6059477,37.1599532 32.758434,36.7131438 32.9172248,36.2685611 L34.6092666,31.5311787 L34.6092666,31.5311787 L33.4116265,38.3233332 Z" id="Path-14" fill="#FDDFA5" transform="translate(35.823256, 41.542805) rotate(-10.000000) translate(-35.823256, -41.542805) "></path>
        </g>
        <g id="Path-8" transform="translate(27.000000, 107.000000)">
            <mask id="mask-7" fill="white">
                <use xlink:href="#path-6"></use>
            </mask>
            <use id="Mask" fill="#FFB116" xlink:href="#path-6"></use>
            <path d="M20.7159076,1.82336634 L21.8268204,2.93427905 C24.0441431,5.1516018 27.0222184,6.43326756 30.1475653,6.52516417 L30.5088009,6.53047312 L31.7661602,6.53047312 C34.1108826,6.53047312 36.3637467,5.63953304 38.0721476,4.04512793 L38.3016941,3.82336634 L39.7159076,5.2375799 C39.4286442,5.52484338 39.1274359,5.79495602 38.8138739,6.0472588 L40.0463968,6.98848085 C49.0880719,15.1578587 54.3234408,26.7094115 54.5186835,38.8762002 L54.5241662,39.4560251 L54.6538038,84.6855512 L54.6538038,121.029301 L52.6538038,121.029301 L52.6538079,84.6884175 L52.5241744,39.4617576 C52.4908453,27.8338784 47.6306081,16.7510284 39.1814375,8.90300952 L38.7698109,8.52580253 L37.0471891,7.21295672 C35.5352868,8.01736627 33.8474827,8.47216766 32.1096286,8.52523134 L31.7661602,8.53047312 L30.5088009,8.53047312 C26.8525731,8.53047312 23.3409311,7.12812611 20.6929783,4.62129449 L20.4126068,4.34849261 L19.3016941,3.2375799 L20.7159076,1.82336634 Z" id="Combined-Shape" fill="#FFFFFF" fill-rule="nonzero" mask="url(#mask-7)"></path>
        </g>
        <path d="M234.756594,254.946835 L228.386317,256.836826 C226.774407,257.315061 225.46434,258.495084 224.820801,260.048409 L224.820801,260.048409 L224.820801,260.048409 C224.820801,260.803485 225.432911,261.415596 226.187988,261.415596 L239.986816,261.415596 L239.986816,261.415596 L246.277596,261.415596 L245.581887,254.946835 L234.756594,254.946835 Z" id="Path-16-Copy" fill="#000000"></path>
        <path d="M238.576418,256.855532 L232.206141,258.745523 C230.594232,259.223758 229.284164,260.403781 228.640625,261.957106 L228.640625,261.957106 L228.640625,261.957106 C228.640625,262.712183 229.252736,263.324293 230.007812,263.324293 L243.806641,263.324293 L243.806641,263.324293 L247.870789,263.324293 C248.975358,263.324293 249.870789,262.428863 249.870789,261.324293 C249.870789,261.252851 249.866961,261.181461 249.859321,261.110428 L249.401711,256.855532 L249.401711,256.855532 L238.576418,256.855532 Z" id="Path-16" fill="#222222"></path>
        <path d="M212.731445,171.27643 L212.731445,182.27643 L228.224603,182.27643 C230.933522,182.27643 233.23907,180.303946 233.658331,177.627669 L237.987497,149.993212 C236.665129,147.472002 235.078435,146.066408 233.227415,145.77643 C231.789077,145.551103 230.306704,146.624262 228.780295,148.995907 C227.962268,150.266909 227.391725,151.681014 227.098681,153.16383 L223.519143,171.27643 L223.519143,171.27643 L212.731445,171.27643 Z" id="Path-15" fill="#FFE94D" fill-rule="nonzero"></path>
        <g id="Group-2-Copy" transform="translate(229.750000, 183.035357) scale(-1, 1) translate(-229.750000, -183.035357) translate(204.750000, 108.535357)">
            <polygon id="Rectangle-Copy" fill="#272A30" points="7.62231206 89.9974041 25.0920386 87.320175 20.4349585 146.577736 9.60966557 146.577736 9.60966557 114.643928"></polygon>
            <polygon id="Rectangle" fill="#434750" points="4.65257959 89.5097137 20.7628724 87.320175 16.1735816 148.495956 5.34828862 148.495956 5.6799348 119.483741"></polygon>
            <g id="Path-8" transform="translate(-0.000000, 30.634763)">
                <mask id="mask-9" fill="white">
                    <use xlink:href="#path-8"></use>
                </mask>
                <use id="Mask" fill="#FFB116" xlink:href="#path-8"></use>
                <path d="M9.85795382,0.911683171 L10.4134102,1.46713952 C11.4969887,2.55071806 12.9439266,3.18739735 14.4678354,3.25855139 L14.7544004,3.26523656 L15.3830801,3.26523656 C16.5270204,3.26523656 17.6272315,2.84110327 18.4734734,2.07992086 L18.650847,1.91168317 L19.3579538,2.61878995 C19.1238487,2.85289511 18.8712209,3.06421909 18.603515,3.25133508 L18.8355979,3.50254345 C23.0713179,8.09447388 25.4702254,14.0770387 25.5875234,20.3120142 L25.5920386,20.7921064 L25.5920386,59.932717 L24.5920386,59.932717 L24.5920386,20.7921064 C24.5920386,14.7980223 22.3948886,9.01783125 18.4262144,4.54069923 L18.1005563,4.18056553 L17.7116202,3.76027796 C17.0704947,4.05205494 16.3755201,4.22292192 15.6618253,4.258328 L15.3830801,4.26523656 L14.7544004,4.26523656 C12.9606496,4.26523656 11.2364994,3.59017522 9.92160484,2.38074223 L9.70630339,2.1742463 L9.15084704,1.61878995 L9.85795382,0.911683171 Z" id="Combined-Shape" fill="#FFFFFF" fill-rule="nonzero" mask="url(#mask-9)"></path>
            </g>
            <path d="M17.5,84.44915 L12.6615713,86.4904098 L7.3129939,88.6874312 C4.30656478,75.8756474 2.63558309,69.0567997 2.30004883,68.2308883 C1.69377342,66.7385525 1.3129939,64.6409445 1.3129939,62.699078 C1.3129939,59.0377879 1.3129939,56.0917411 1.3129939,53.8609375 C1.3129939,51.8120009 1.3129939,48.6362196 1.3129939,44.3335937 C1.3129939,41.0198853 3.99928568,38.3335937 7.3129939,38.3335937 C10.6267027,38.3335937 13.3129939,41.0198853 13.3129939,44.3335937 C13.0142979,51.339825 12.7971571,56.6434545 12.6615713,60.2444824 C12.6523964,60.4881589 12.6523964,60.9515859 12.6615713,61.6347634 L12.6615713,63.8287109 L17.5,84.44915 Z" id="Path" fill="#FFE94D"></path>
            <g id="Group" transform="translate(2.579107, 0.000000)">
                <path d="M14.8394292,0 C18.6058535,0 22.0157108,1.52664511 24.483962,3.99489632 C24.9288379,4.43977213 24.0197282,5.89737136 24.4,6.4 C26.1295449,8.68604567 28.4788584,10.5518624 28.4788584,13.6394292 L28.4788584,13.6394292 L1.2,13.6394292 C1.2,6.10658045 7.30658045,0 14.8394292,0 Z" id="Combined-Shape" fill="#FFE94D"></path>
                <path d="M1.30841041,13.6394292 L28.4,13.6394292 L28.4,13.6394292 L30.5494021,13.6394292 C31.2720172,13.6394292 31.8578125,14.2252245 31.8578125,14.9478396 C31.8578125,15.6704547 31.2720172,16.25625 30.5494021,16.25625 L1.30841041,16.25625 C0.585795294,16.25625 -5.77638986e-16,15.6704547 0,14.9478396 C-8.84948288e-17,14.2252245 0.585795294,13.6394292 1.30841041,13.6394292 Z" id="Rectangle" fill="#FDDE00"></path>
                <path d="M7.42529297,25.4 L16.871875,25.4 C16.2380573,30.0277781 15.9474323,32.510592 16,32.848442 C16.0443689,33.1335989 15.1749558,33.4801655 13.3917608,33.8881419 L13.3917605,33.8881406 C12.6859529,34.049622 11.9516016,34.0384087 11.2510534,33.8554528 C10.1150896,33.5587833 9.39692235,33.3236324 9.09655172,33.15 C8.71163193,32.9274931 8.15454568,32.5108264 7.42529297,31.9 C7.63427119,31.0670498 7.76425166,30.2015713 7.81523437,29.3035645 C7.86621709,28.4055576 7.73623662,27.1043694 7.42529297,25.4 Z" id="Rectangle" fill="#F5D087"></path>
                <path d="M8.4,16.25625 L25.34375,16.25625 L25.0046387,19.1468262 C25.0046387,22.1429479 25.0046387,26.4394292 22.5102539,29.2579102 C22.4373255,29.3403141 22.3664692,29.4240569 22.2976849,29.5091386 C21.1245428,30.9602422 19.295665,31.7175543 17.4400858,31.5206034 L14.4,31.1979293 L14.4,31.1979293 C9.87423526,29.9703902 8.4,28.2927946 8.4,25.2 L8.4,16.25625 Z" id="Rectangle" fill="#FDDFA5"></path>
                <polygon id="Rectangle" fill="#8C6D2F" points="8.4 16.25625 11.675293 16.25625 10.7451172 18.2890625 10.7451172 21.0890625 8.4 21.0890625"></polygon>
                <path d="M2.8,16.25625 L8.74682027,16.25625 L8.74682027,17.7291793 L8.4,27.6 C8.01846441,28.5138005 6.96838705,28.9452864 6.05458656,28.5637509 C5.6675924,28.4021707 5.34947911,28.1100507 5.15557532,27.7381987 L4.86264648,27.1764449 C3.50759772,24.5778487 2.8,21.6904986 2.8,18.759823 L2.8,16.25625 L2.8,16.25625 Z" id="Rectangle" fill="#8C6D2F"></path>
                <rect id="Rectangle" fill="#FDDFA5" x="6.21523438" y="18.2890625" width="3.2" height="5.6" rx="1.6"></rect>
            </g>
            <path d="M12.6098264,86.4578432 L16.4784536,85.1600906 L17.3872772,87.7362731 C18.0814355,89.7038644 17.0490818,91.8616235 15.0814801,92.5557524 C14.9394872,92.6058446 14.7946267,92.647403 14.6476736,92.6802054 C14.6476736,92.6802054 14.6476736,92.6802054 14.6476736,92.6802054 C14.6476736,92.6802054 14.6476736,92.6802054 14.6476736,92.6802054 C12.3940113,93.1832607 10.1250599,91.9000729 9.39478429,89.7094666 L8.76607457,87.8235531 L8.76607457,87.8235531 L12.6098264,86.4578432 Z" id="Rectangle" fill="#FDDFA5" transform="translate(13.184796, 88.974571) rotate(-4.000000) translate(-13.184796, -88.974571) "></path>
            <path d="M43.965051,66.4143861 L47.8336782,65.1166335 L48.7425018,67.692816 C49.4366601,69.6604074 48.4043064,71.8181665 46.4367047,72.5122954 C46.2947119,72.5623876 46.1498513,72.603946 46.0028982,72.6367484 C46.0028982,72.6367484 46.0028982,72.6367484 46.0028982,72.6367484 C46.0028982,72.6367484 46.0028982,72.6367484 46.0028982,72.6367484 C43.7492359,73.1398037 41.4802845,71.8566159 40.7500089,69.6660096 L40.1212992,67.7800961 L40.1212992,67.7800961 L43.965051,66.4143861 Z" id="Rectangle-Copy-5" fill="#FDDFA5" transform="translate(44.540021, 68.931114) rotate(-71.000000) translate(-44.540021, -68.931114) "></path>
        </g>
        <g id="Group-2" transform="translate(30.000000, 95.429825)">
            <path d="M33,118.8983 L23.3231426,122.98082 L12.6259878,127.374862 C6.61312956,101.751295 3.27116617,88.1135994 2.60009766,86.4617765 C1.38754685,83.4771049 0.625987807,79.2818889 0.625987807,75.3981559 C0.625987807,68.0755759 0.625987807,62.1834823 0.625987807,57.721875 C0.625987807,53.6240017 0.625987807,47.2724392 0.625987807,38.6671875 C0.625987807,32.0397705 5.99857137,26.6671875 12.6259878,26.6671875 C19.2534054,26.6671875 24.6259878,32.0397705 24.6259878,38.6671875 C24.0285958,52.67965 23.5943141,63.2869091 23.3231426,70.4889648 C23.3047928,70.9763178 23.3047928,71.9031719 23.3231426,73.2695269 L23.3231426,77.6574219 L33,118.8983 Z" id="Path" fill="#4980AC"></path>
            <g id="Group" transform="translate(17.158215, 0.000000)" fill="#F5D087">
                <path d="M0.850585938,0.8 L19.74375,0.8 C18.4761146,10.0555561 17.8948646,15.0211841 18,15.696884 C18.0887378,16.2671977 16.3499117,16.960331 12.7835215,17.7762837 L12.7835209,17.7762812 C11.3719058,18.099244 9.90320315,18.0768175 8.50210688,17.7109057 C6.23017918,17.1175666 4.7938447,16.6472647 4.19310343,16.3 C3.42326385,15.8549862 2.30909136,15.0216529 0.850585938,13.8 C1.26854238,12.1340997 1.52850332,10.4031426 1.63046875,8.60712891 C1.73243418,6.81111517 1.47247325,4.20873887 0.850585938,0.8 Z" id="Rectangle"></path>
            </g>
            <path d="M23.2196528,122.915686 L30.9569072,120.320181 L32.7745642,125.472574 C34.1628441,129.407752 32.0981449,133.723253 28.1629569,135.111506 C27.8789722,135.21169 27.5892522,135.294806 27.2953472,135.360411 C27.2953472,135.360411 27.2953472,135.360411 27.2953472,135.360411 C27.2953472,135.360411 27.2953472,135.360411 27.2953472,135.360411 C22.7880371,136.366518 18.250149,133.800151 16.7895777,129.418961 L15.5321491,125.647106 L15.5321491,125.647106 L23.2196528,122.915686 Z" id="Rectangle" fill="#FDDFA5" transform="translate(24.369592, 127.949142) rotate(-4.000000) translate(-24.369592, -127.949142) "></path>
        </g>
        <g id="Group-8" transform="translate(69.017958, 78.566895) rotate(11.000000) translate(-69.017958, -78.566895) translate(37.017958, 46.566895)">
            <path d="M29.6788584,0 C37.2117071,0 44.0314217,3.05329022 48.9679241,7.98979263 C49.8576757,8.87954426 48.0394563,11.7947427 48.8,12.8 C52.2590897,17.3720913 56.9577167,21.1037248 56.9577167,27.2788584 L56.9577167,27.2788584 L2.4,27.2788584 C2.4,12.2131609 14.6131609,0 29.6788584,0 Z" id="Combined-Shape" fill="#FFE94D"></path>
            <path d="M2.61682082,27.2788584 L56.8,27.2788584 L56.8,27.2788584 L61.0988042,27.2788584 C62.5440344,27.2788584 63.715625,28.4504489 63.715625,29.8956792 C63.715625,31.3409094 62.5440344,32.5125 61.0988042,32.5125 L2.61682082,32.5125 C1.17159059,32.5125 -9.4414012e-14,31.3409094 -9.23705556e-14,29.8956792 C-9.25475453e-14,28.4504489 1.17159059,27.2788584 2.61682082,27.2788584 Z" id="Rectangle" fill="#FDDE00"></path>
            <path d="M16.8,32.5125 L50.6875,32.5125 L50.0092773,38.2936523 C50.0092773,44.2858958 50.0092773,52.8788584 45.0205078,58.5158203 C44.87465,58.6806294 44.7329364,58.8481162 44.5953669,59.0182807 C42.249079,61.9204835 38.5913245,63.435108 34.8801671,63.0412064 L28.8,62.3958586 L28.8,62.3958586 C19.7484705,59.9407804 16.8,56.5855892 16.8,50.4 L16.8,32.5125 Z" id="Rectangle" fill="#FDDFA5"></path>
            <polygon id="Rectangle" fill="#8C6D2F" points="16.8 32.5125 23.3505859 32.5125 21.4902344 36.578125 21.4902344 42.178125 16.8 42.178125"></polygon>
            <path d="M5.6,32.5125 L17.4936405,32.5125 L17.4936405,35.4583586 L16.8,55.2 C16.0369288,57.027601 13.9367741,57.8905729 12.1091731,57.1275017 C11.3351848,56.8043414 10.6989582,56.2201015 10.3111506,55.4763974 L9.72529297,54.3528898 C7.01519543,49.1556974 5.6,43.3809973 5.6,37.519646 L5.6,32.5125 L5.6,32.5125 Z" id="Rectangle" fill="#8C6D2F"></path>
            <rect id="Rectangle" fill="#FDDFA5" x="12.4304688" y="36.578125" width="6.4" height="11.2" rx="3.2"></rect>
        </g>
        <path d="M113,69 C118.056347,69 122.133712,73.2945156 122.133712,78.5668945 C122.133712,79.1191793 121.685997,79.5668945 121.133712,79.5668945 C120.581427,79.5668945 120.133712,79.1191793 120.133712,78.5668945 C120.133712,74.376543 116.927903,71 113,71 C112.447715,71 112,70.5522847 112,70 C112,69.4477153 112.447715,69 113,69 Z M114.487665,62.1569404 C122.392908,62.1569404 128.779759,68.8839402 128.779759,77.1569404 C128.779759,77.7092252 128.332044,78.1569404 127.779759,78.1569404 C127.227474,78.1569404 126.779759,77.7092252 126.779759,77.1569404 C126.779759,69.9659676 121.264464,64.1569404 114.487665,64.1569404 C113.93538,64.1569404 113.487665,63.7092252 113.487665,63.1569404 C113.487665,62.6046557 113.93538,62.1569404 114.487665,62.1569404 Z M117.066856,54.8734932 C128.118251,54.8734932 137.055562,64.2867845 137.055562,75.8734932 C137.055562,76.4257779 136.607846,76.8734932 136.055562,76.8734932 C135.503277,76.8734932 135.055562,76.4257779 135.055562,75.8734932 C135.055562,65.3688119 126.989806,56.8734932 117.066856,56.8734932 C116.514571,56.8734932 116.066856,56.4257779 116.066856,55.8734932 C116.066856,55.3212084 116.514571,54.8734932 117.066856,54.8734932 Z" id="Combined-Shape" fill="#46BD8D" fill-rule="nonzero"></path>
        <polygon id="Line-9" fill="#606570" fill-rule="nonzero" points="212 158.85995 212 176.534755 208 176.534755 208 158.85995"></polygon>
        <g id="Group-6" transform="translate(197.000000, 138.534755)">
            <circle id="Oval" fill="#FF6060" cx="12.75" cy="12.75" r="12.75"></circle>
            <circle id="Oval" stroke="#FFFFFF" stroke-width="2" cx="12.75" cy="12.75" r="9.75"></circle>
        </g>
        <g id="Group-9" transform="translate(223.000000, 7.000000)">
            <path d="M5.1277704,-2.07168062e-16 L64.8722296,2.07168062e-16 C66.6552671,-1.2037061e-16 67.3018396,0.185651222 67.9536914,0.534265408 C68.6055433,0.882879593 69.1171204,1.39445674 69.4657346,2.04630859 C69.8143488,2.69816044 70,3.34473292 70,5.1277704 L70,64.8722296 C70,66.6552671 69.8143488,67.3018396 69.4657346,67.9536914 C69.1171204,68.6055433 68.6055433,69.1171204 67.9536914,69.4657346 C67.3018396,69.8143488 66.6552671,70 64.8722296,70 L5.1277704,70 C3.34473292,70 2.69816044,69.8143488 2.04630859,69.4657346 C1.39445674,69.1171204 0.882879593,68.6055433 0.534265408,67.9536914 C0.185651222,67.3018396 8.02470732e-17,66.6552671 -1.38112041e-16,64.8722296 L1.38112041e-16,5.1277704 C-8.02470732e-17,3.34473292 0.185651222,2.69816044 0.534265408,2.04630859 C0.882879593,1.39445674 1.39445674,0.882879593 2.04630859,0.534265408 C2.69816044,0.185651222 3.34473292,1.2037061e-16 5.1277704,-2.07168062e-16 Z" id="Rectangle" fill="#46BD8D"></path>
            <g id="Group-5-Copy" transform="translate(17.000000, 16.000000)" fill="#FFFFFF">
                <path d="M17.7140791,7.10542736e-14 C27.4972948,7.10542736e-14 35.4281581,7.93086334 35.4281581,17.7140791 C35.4281581,27.4972948 27.4972948,35.4281581 17.7140791,35.4281581 C7.93086334,35.4281581 -5.68434189e-14,27.4972948 -5.68434189e-14,17.7140791 C-5.68434189e-14,7.93086334 7.93086334,7.10542736e-14 17.7140791,7.10542736e-14 Z M22.6147322,11.3056636 L15.5569628,20.2882792 L12.5394248,17.7736642 C11.7439056,17.1107315 10.5615968,17.2182141 9.89866416,18.0137333 C9.23573151,18.8092525 9.34321413,19.9915613 10.1387333,20.654494 L14.6387333,24.404494 C15.4504842,25.080953 16.6605969,24.9533679 17.3134259,24.1224945 L25.5634259,13.6224945 C26.2032011,12.8082352 26.0617538,11.6295073 25.2474945,10.9897322 C24.4332352,10.349957 23.2545073,10.4914043 22.6147322,11.3056636 Z" id="Combined-Shape"></path>
            </g>
        </g>
    </g>
</svg>