<?xml version="1.0" encoding="UTF-8"?>
<svg width="300px" height="300px" viewBox="0 0 300 300" version="1.1" xmlns="http://www.w3.org/2000/svg" xmlns:xlink="http://www.w3.org/1999/xlink">
    <title>Dise침o de layout para zonas de trabajos simult치neos</title>
    <defs>
        <linearGradient x1="50%" y1="0%" x2="50%" y2="100%" id="linearGradient-1">
            <stop stop-color="#656A75" offset="0%"></stop>
            <stop stop-color="#2A313F" offset="100%"></stop>
        </linearGradient>
        <path d="M137.377958,3.55271368e-14 C139.402186,3.11584893e-14 141.107349,1.51220055 141.349285,3.52191818 L148.961491,66.7549412 C149.225528,68.9482445 147.661549,70.9403127 145.468246,71.20435 C145.311012,71.2232784 145.152792,71.2328522 144.994423,71.2330208 L116.910417,71.263 L116.130823,60.6513308 C116.095354,60.1691015 115.721927,59.7875723 115.252683,59.731729 L115.133516,59.7246834 L109.925532,59.7246834 C109.402367,59.7246834 108.967625,60.127928 108.928353,60.6496168 L108.928353,60.6496168 L108.128417,71.272 L40.9944171,71.343 L40.208931,60.6513308 C40.1734626,60.1691015 39.8000358,59.7875723 39.3307919,59.731729 L39.2116249,59.7246834 L34.0036402,59.7246834 C33.4804753,59.7246834 33.0457339,60.127928 33.0064617,60.6496168 L33.0064617,60.6496168 L32.2004171,71.353 L4.50467613,71.3826068 C2.29553838,71.384959 0.50277158,69.5960058 0.500419407,67.3868681 C0.500251066,67.2287638 0.509456736,67.0707886 0.527987962,66.9137739 L8.00854853,3.53116482 C8.24622216,1.51736192 9.95319792,3.67878123e-14 11.9809777,3.55271368e-14 L137.377958,3.55271368e-14 Z" id="path-2"></path>
        <path d="M137.377958,3.55271368e-14 C139.402186,3.11584893e-14 141.107349,1.51220055 141.349285,3.52191818 L148.961491,66.7549412 C149.225528,68.9482445 147.661549,70.9403127 145.468246,71.20435 C145.311012,71.2232784 145.152792,71.2328522 144.994423,71.2330208 L116.910417,71.263 L116.130823,60.6513308 C116.095354,60.1691015 115.721927,59.7875723 115.252683,59.731729 L115.133516,59.7246834 L109.925532,59.7246834 C109.402367,59.7246834 108.967625,60.127928 108.928353,60.6496168 L108.928353,60.6496168 L108.128417,71.272 L40.9944171,71.343 L40.208931,60.6513308 C40.1734626,60.1691015 39.8000358,59.7875723 39.3307919,59.731729 L39.2116249,59.7246834 L34.0036402,59.7246834 C33.4804753,59.7246834 33.0457339,60.127928 33.0064617,60.6496168 L33.0064617,60.6496168 L32.2004171,71.353 L4.50467613,71.3826068 C2.29553838,71.384959 0.50277158,69.5960058 0.500419407,67.3868681 C0.500251066,67.2287638 0.509456736,67.0707886 0.527987962,66.9137739 L8.00854853,3.53116482 C8.24622216,1.51736192 9.95319792,3.67878123e-14 11.9809777,3.55271368e-14 L137.377958,3.55271368e-14 Z" id="path-4"></path>
    </defs>
    <g id="Dise침o-de-layout-para-zonas-de-trabajos-simult치neos" stroke="none" stroke-width="1" fill="none" fill-rule="evenodd">
        <rect fill="#FFFFFF" x="0" y="0" width="300" height="300"></rect>
        <polygon id="Path-65" fill="#EDF7FF" points="0 64.9746094 37.391222 90.5821719 86.5557854 102.610645 124.50511 128.472656 188.736328 137.313413 265 163.191895 300 147.171875 300 250 0 253.799176"></polygon>
        <rect id="Rectangle-Copy-10" fill="url(#linearGradient-1)" x="0" y="245" width="300" height="55"></rect>
        <g id="Group" transform="translate(45.500000, 104.983609)">
            <rect id="Rectangle" fill="#272A30" x="17.2913195" y="18.8362329" width="3.08982675" height="121.180158"></rect>
            <rect id="Rectangle" stroke="#000000" fill="#FFFFFF" x="0.5" y="0.5" width="36.6724657" height="49" rx="3"></rect>
            <g id="parking" transform="translate(18.836233, 39.328891) scale(-1, 1) translate(-18.836233, -39.328891) translate(6.836233, 33.328891)" fill="#000000" fill-rule="nonzero">
                <path d="M5.694,6.86325 C4.3665,6.86325 3.29175,7.93875 3.29175,9.2655 C3.29175,10.59375 4.36725,11.6685 5.694,11.6685 C7.02,11.6685 8.09625,10.593 8.09625,9.2655 C8.09625,7.93875 7.02,6.86325 5.694,6.86325 Z M5.694,9.99075 C5.295,9.99075 4.968,9.66525 4.968,9.2655 C4.968,8.86575 5.295,8.54025 5.694,8.54025 C6.09225,8.54025 6.4185,8.86575 6.4185,9.2655 C6.4185,9.66525 6.09225,9.99075 5.694,9.99075 Z" id="Shape"></path>
                <path d="M23.1855,7.29675 L22.79175,4.10025 C22.71525,3.48675 22.179,3.03675 21.56025,3.0705 L20.7,3.11775 L18.02625,0.7095 C17.769,0.47775 17.436,0.35025 17.0895,0.35025 L11.65875,0.3495 C10.44,0.3495 9.258,0.76575 8.30775,1.52925 L5.2785,3.9645 L1.20375,4.9815 C0.68025,5.11275 0.31275,5.583 0.31275,6.12225 L0.31275,7.296 C0.14025,7.29675 0,7.437 0,7.6095 L0,9.16275 C0,9.384 0.17925,9.56325 0.4005,9.56325 L2.70075,9.56325 C2.691,9.4635 2.67075,9.36825 2.67075,9.26625 C2.67075,7.59675 4.02375,6.2445 5.69325,6.2445 C7.36275,6.2445 8.715,7.5975 8.715,9.26625 C8.715,9.369 8.694,9.46425 8.68425,9.56325 L15.05475,9.56325 C15.045,9.4635 15.02475,9.36825 15.02475,9.26625 C15.02475,7.59675 16.37775,6.2445 18.0465,6.2445 C19.71675,6.2445 21.06825,7.5975 21.06825,9.26625 C21.06825,9.369 21.048,9.46425 21.0375,9.56325 L23.18325,9.56325 C23.4045,9.56325 23.583787,9.384 23.583787,9.16275 L23.583787,7.698 C23.58675,7.47675 23.40675,7.29675 23.1855,7.29675 Z M15.12525,3.36825 L7.54875,3.75225 L8.99925,2.586 C9.7875,1.9515 10.767,1.6065 11.77875,1.6065 L15.12525,1.6065 L15.12525,3.36825 Z M16.3845,3.30375 L16.3845,1.60725 L16.87725,1.60725 C17.04825,1.60725 17.2125,1.67025 17.33925,1.785 L18.88575,3.177 L16.3845,3.30375 Z" id="Shape"></path>
                <path d="M18.048,6.86325 C16.7205,6.86325 15.64575,7.93875 15.64575,9.2655 C15.64575,10.59375 16.722,11.6685 18.048,11.6685 C19.374,11.6685 20.4502504,10.593 20.4502504,9.2655 C20.451,7.93875 19.374,6.86325 18.048,6.86325 Z M18.048,9.99075 C17.649,9.99075 17.32275,9.66525 17.32275,9.2655 C17.32275,8.86575 17.649,8.54025 18.048,8.54025 C18.44625,8.54025 18.77325,8.86575 18.77325,9.2655 C18.77325,9.66525 18.447,9.99075 18.048,9.99075 Z" id="Shape"></path>
            </g>
            <circle id="Oval" stroke="#E62D36" stroke-width="3" cx="18.8362329" cy="17.1150237" r="11.0986328"></circle>
            <text id="E" font-family="OpenSans-ExtraBold, Open Sans" font-size="17" font-weight="600" fill="#000000">
                <tspan x="13.8362329" y="23.2136565">E</tspan>
            </text>
        </g>
        <g id="Group-11" transform="translate(223.000000, 7.000000)">
            <path d="M5.1277704,-2.07168062e-16 L64.8722296,2.07168062e-16 C66.6552671,-1.2037061e-16 67.3018396,0.185651222 67.9536914,0.534265408 C68.6055433,0.882879593 69.1171204,1.39445674 69.4657346,2.04630859 C69.8143488,2.69816044 70,3.34473292 70,5.1277704 L70,64.8722296 C70,66.6552671 69.8143488,67.3018396 69.4657346,67.9536914 C69.1171204,68.6055433 68.6055433,69.1171204 67.9536914,69.4657346 C67.3018396,69.8143488 66.6552671,70 64.8722296,70 L5.1277704,70 C3.34473292,70 2.69816044,69.8143488 2.04630859,69.4657346 C1.39445674,69.1171204 0.882879593,68.6055433 0.534265408,67.9536914 C0.185651222,67.3018396 8.02470732e-17,66.6552671 -1.38112041e-16,64.8722296 L1.38112041e-16,5.1277704 C-8.02470732e-17,3.34473292 0.185651222,2.69816044 0.534265408,2.04630859 C0.882879593,1.39445674 1.39445674,0.882879593 2.04630859,0.534265408 C2.69816044,0.185651222 3.34473292,1.2037061e-16 5.1277704,-2.07168062e-16 Z" id="Rectangle" fill="#46BD8D"></path>
            <g id="Group-5-Copy" transform="translate(17.000000, 16.000000)" fill="#FFFFFF">
                <path d="M17.7140791,7.10542736e-14 C27.4972948,7.10542736e-14 35.4281581,7.93086334 35.4281581,17.7140791 C35.4281581,27.4972948 27.4972948,35.4281581 17.7140791,35.4281581 C7.93086334,35.4281581 -5.68434189e-14,27.4972948 -5.68434189e-14,17.7140791 C-5.68434189e-14,7.93086334 7.93086334,7.10542736e-14 17.7140791,7.10542736e-14 Z M22.6147322,11.3056636 L15.5569628,20.2882792 L12.5394248,17.7736642 C11.7439056,17.1107315 10.5615968,17.2182141 9.89866416,18.0137333 C9.23573151,18.8092525 9.34321413,19.9915613 10.1387333,20.654494 L14.6387333,24.404494 C15.4504842,25.080953 16.6605969,24.9533679 17.3134259,24.1224945 L25.5634259,13.6224945 C26.2032011,12.8082352 26.0617538,11.6295073 25.2474945,10.9897322 C24.4332352,10.349957 23.2545073,10.4914043 22.6147322,11.3056636 Z" id="Combined-Shape"></path>
            </g>
        </g>
        <g id="Group-2" transform="translate(173.000000, 200.500000)">
            <g id="Group-Copy">
                <rect id="Rectangle" fill="#A36C00" x="32.1753047" y="57.7282235" width="8.84568452" height="11"></rect>
                <rect id="Rectangle-Copy-2" fill="#A36C00" x="108" y="57.7282235" width="8.84568452" height="11"></rect>
                <g id="Rectangle">
                    <mask id="mask-3" fill="white">
                        <use xlink:href="#path-2"></use>
                    </mask>
                    <use id="Mask" fill="#FFB116" xlink:href="#path-2"></use>
                    <rect fill="#D08E0C" mask="url(#mask-3)" x="0" y="41.7654462" width="149.350609" height="29.617163"></rect>
                </g>
            </g>
        </g>
        <g id="Group-2-Copy" transform="translate(1.000000, 200.500000)">
            <g id="Group-Copy">
                <rect id="Rectangle" fill="#A36C00" x="32.1753047" y="57.7282235" width="8.84568452" height="11"></rect>
                <rect id="Rectangle-Copy-2" fill="#A36C00" x="108" y="57.7282235" width="8.84568452" height="11"></rect>
                <g id="Rectangle">
                    <mask id="mask-5" fill="white">
                        <use xlink:href="#path-4"></use>
                    </mask>
                    <use id="Mask" fill="#FFB116" xlink:href="#path-4"></use>
                    <rect fill="#D08E0C" mask="url(#mask-5)" x="0" y="41.7654462" width="149.350609" height="29.617163"></rect>
                </g>
            </g>
        </g>
        <g id="Group-5" transform="translate(163.000000, 88.000000)">
            <g id="Group-Copy-2">
                <rect id="Rectangle" fill="#272A30" x="43.2282987" y="47.0905821" width="7.72456688" height="302.950395"></rect>
                <rect id="Rectangle" stroke="#000000" stroke-width="2.5" fill="#FFFFFF" x="1.25" y="1.25" width="91.6811643" height="122.5" rx="7.5"></rect>
                <circle id="Oval" stroke="#E62D36" stroke-width="7.5" cx="47.0905821" cy="42.7875592" r="27.746582"></circle>
                <text id="E" font-family="OpenSans-ExtraBold, Open Sans" font-size="42.5" font-weight="600" fill="#000000">
                    <tspan x="34.5905821" y="58.0341412">E</tspan>
                </text>
            </g>
            <g id="Group-4" transform="translate(22.300000, 81.300000)">
                <path d="M19.145169,11.1196834 L18.3870086,9.61308293 L16.0574475,4.84380148 C15.2506871,3.53808108 13.8153665,2.66328081 12.1726857,2.66328081 C12.1564857,2.66328081 12.1435257,2.66652081 12.1273257,2.66652081 L12.1240857,2.66328081 L5.45616255,2.66328081 L5.45616255,2.92896089 L1.07291953e-12,2.92896089 L1.07291953e-12,-1.24344979e-14 L5.45616255,-1.24344979e-14 L5.45616255,0.673920206 L16.6698078,0.68688021 L18.8406088,3.53808108 L37.2502974,3.54132108 L37.2632574,3.52512108 L37.2924174,3.54132108 L37.3053774,3.54132108 L37.3053774,3.54780108 L49.4165031,9.826923 L48.8754228,11.0516434 L40.2104834,13.0062485 L37.7027384,21.4762208 L31.4516676,23.5676843 L28.4047116,23.5676843 L23.0132032,23.5676843 L17.9969514,23.5676843 L12.8556141,19.0541817 L8.09594804,21.8591649 L8.41988758,22.2290168 L4.21188097,24.8507105 L0.404789624,24.8507105 L0.247630841,24.8245262 L0.228386908,23.6233258 L0.228386908,12.3052025 L0.228386908,11.6735085 L7.63730098,11.6735085 L7.63730098,9.88316338 L8.94909572,6.10281856 L13.7729082,6.10281856 L15.8801188,11.6735085 L18.7250135,11.6735085 L19.145169,11.1196834 Z M14.3662628,9.78169958 L13.2244561,6.63304874 L9.5552796,6.63304874 L8.54497314,9.78169958 L14.3662628,9.78169958 Z" id="Shape" fill="#000000"></path>
                <g id="Group-3" transform="translate(4.303983, 15.806027)">
                    <circle id="Oval" stroke="#FFFFFF" stroke-width="1.2" fill="#000000" cx="7.12475435" cy="7.12475435" r="7.12475435"></circle>
                    <circle id="Oval" fill="#FFFFFF" cx="7.12475435" cy="7.12475435" r="1.64110214"></circle>
                    <circle id="Oval-Copy-2" stroke="#FFFFFF" stroke-width="1.2" fill="#000000" cx="34.2275864" cy="7.12475435" r="7.12475435"></circle>
                    <circle id="Oval-Copy-3" fill="#FFFFFF" cx="34.2275864" cy="7.12475435" r="1.64110214"></circle>
                </g>
            </g>
        </g>
    </g>
</svg>