<?xml version="1.0" encoding="UTF-8"?>
<svg width="300px" height="300px" viewBox="0 0 300 300" version="1.1" xmlns="http://www.w3.org/2000/svg" xmlns:xlink="http://www.w3.org/1999/xlink">
    <title>Rejas de seguridad</title>
    <defs>
        <polygon id="path-1" points="9.05941988e-13 156 37.7808906 156 37.7808906 145 9.05941988e-13 145"></polygon>
        <filter x="-4.0%" y="-13.6%" width="107.9%" height="127.3%" filterUnits="objectBoundingBox" id="filter-2">
            <feOffset dx="0" dy="-3" in="SourceAlpha" result="shadowOffsetInner1"></feOffset>
            <feComposite in="shadowOffsetInner1" in2="SourceAlpha" operator="arithmetic" k2="-1" k3="1" result="shadowInnerInner1"></feComposite>
            <feColorMatrix values="0 0 0 0 0   0 0 0 0 0   0 0 0 0 0  0 0 0 0.5 0" type="matrix" in="shadowInnerInner1"></feColorMatrix>
        </filter>
        <polygon id="path-3" points="9.05941988e-13 180 37.7808906 180 37.7808906 169 9.05941988e-13 169"></polygon>
        <filter x="-4.0%" y="-13.6%" width="107.9%" height="127.3%" filterUnits="objectBoundingBox" id="filter-4">
            <feOffset dx="0" dy="-3" in="SourceAlpha" result="shadowOffsetInner1"></feOffset>
            <feComposite in="shadowOffsetInner1" in2="SourceAlpha" operator="arithmetic" k2="-1" k3="1" result="shadowInnerInner1"></feComposite>
            <feColorMatrix values="0 0 0 0 0   0 0 0 0 0   0 0 0 0 0  0 0 0 0.5 0" type="matrix" in="shadowInnerInner1"></feColorMatrix>
        </filter>
    </defs>
    <g id="Rejas-de-seguridad" stroke="none" stroke-width="1" fill="none" fill-rule="evenodd">
        <rect fill="#F9FDFF" x="0" y="0" width="300" height="300"></rect>
        <rect id="Rectangle" fill="#FFFFFF" x="-1.8189894e-12" y="25.6278417" width="300" height="274.5"></rect>
        <g id="Group-3" transform="translate(0.000000, 51.877842)" fill="#E8F5FF">
            <rect id="Rectangle" x="0" y="216" width="300" height="5.05305996"></rect>
            <rect id="Rectangle-Copy" x="0" y="0" width="300" height="5.05305996"></rect>
        </g>
        <g id="Group-2" transform="translate(37.780891, 79.677842)">
            <rect id="Rectangle" fill="#272A30" x="5.61528754" y="3.93145368" width="224" height="161.2"></rect>
            <path d="M56.4738813,38.1663359 C70.753048,29.4381089 85.9835167,30.6216516 102.165288,41.7169641 C108.773111,46.2477332 131.928846,83.0066782 149.864506,102.163058 C156.599199,109.35612 164.916126,114.157213 174.815288,116.566336" id="Path-81" stroke="#4980AC" stroke-width="4"></path>
            <g id="Group" transform="translate(144.095288, 53.388053)">
                <circle id="Oval" fill="#EEF7FF" cx="30.72" cy="30.72" r="30.72"></circle>
                <circle id="Oval" stroke="#4980AC" stroke-width="0.5" cx="30.72" cy="30.72" r="28.08"></circle>
                <circle id="Oval" fill="#BEDBF5" cx="30.72" cy="30.72" r="13.92"></circle>
            </g>
            <g id="Group" transform="translate(20.015288, 32.908053)">
                <circle id="Oval" fill="#EEF7FF" cx="51.2" cy="51.2" r="51.2"></circle>
                <circle id="Oval" stroke="#4980AC" stroke-width="0.8" cx="51.2" cy="51.2" r="46.8"></circle>
                <circle id="Oval" fill="#BEDBF5" cx="51.2" cy="51.2" r="23.2"></circle>
            </g>
            <path d="M117.615288,165.187555 L5.61528754,165.187555 L5.61528754,3.0285518 L117.615288,3.0285518 L117.615288,165.187555 Z M20.6652875,151.765552 L10.4142875,151.765552 L10.4152875,160.387555 L20.6652875,160.387552 L20.6652875,151.765552 Z M34.1152875,151.765552 L22.2652875,151.765552 L22.2652875,160.387552 L34.1152875,160.387552 L34.1152875,151.765552 Z M47.5652875,151.765552 L35.7152875,151.765552 L35.7152875,160.387552 L47.5652875,160.387552 L47.5652875,151.765552 Z M61.0152875,151.765552 L49.1652875,151.765552 L49.1652875,160.387552 L61.0152875,160.387552 L61.0152875,151.765552 Z M74.4652875,151.765552 L62.6152875,151.765552 L62.6152875,160.387552 L74.4652875,160.387552 L74.4652875,151.765552 Z M87.9152875,151.765552 L76.0652875,151.765552 L76.0652875,160.387552 L87.9152875,160.387552 L87.9152875,151.765552 Z M101.365288,151.765552 L89.5152875,151.765552 L89.5152875,160.387552 L101.365288,160.387552 L101.365288,151.765552 Z M112.815288,151.765552 L102.965288,151.765552 L102.965288,160.387552 L112.815288,160.387555 L112.815288,151.765552 Z M20.6652875,140.565552 L10.4142875,140.565552 L10.4142875,150.165552 L20.6652875,150.165552 L20.6652875,140.565552 Z M34.1152875,140.565552 L22.2652875,140.565552 L22.2652875,150.165552 L34.1152875,150.165552 L34.1152875,140.565552 Z M47.5652875,140.565552 L35.7152875,140.565552 L35.7152875,150.165552 L47.5652875,150.165552 L47.5652875,140.565552 Z M61.0152875,140.565552 L49.1652875,140.565552 L49.1652875,150.165552 L61.0152875,150.165552 L61.0152875,140.565552 Z M74.4652875,140.565552 L62.6152875,140.565552 L62.6152875,150.165552 L74.4652875,150.165552 L74.4652875,140.565552 Z M87.9152875,140.565552 L76.0652875,140.565552 L76.0652875,150.165552 L87.9152875,150.165552 L87.9152875,140.565552 Z M101.365288,140.565552 L89.5152875,140.565552 L89.5152875,150.165552 L101.365288,150.165552 L101.365288,140.565552 Z M112.815288,140.565552 L102.965288,140.565552 L102.965288,150.165552 L112.815288,150.165552 L112.815288,140.565552 Z M34.1152875,129.365552 L22.2652875,129.365552 L22.2652875,138.965552 L34.1152875,138.965552 L34.1152875,129.365552 Z M47.5652875,129.365552 L35.7152875,129.365552 L35.7152875,138.965552 L47.5652875,138.965552 L47.5652875,129.365552 Z M61.0152875,129.365552 L49.1652875,129.365552 L49.1652875,138.965552 L61.0152875,138.965552 L61.0152875,129.365552 Z M74.4652875,129.365552 L62.6152875,129.365552 L62.6152875,138.965552 L74.4652875,138.965552 L74.4652875,129.365552 Z M87.9152875,129.365552 L76.0652875,129.365552 L76.0652875,138.965552 L87.9152875,138.965552 L87.9152875,129.365552 Z M101.365288,129.365552 L89.5152875,129.365552 L89.5152875,138.965552 L101.365288,138.965552 L101.365288,129.365552 Z M112.815288,129.365552 L102.965288,129.365552 L102.965288,138.965552 L112.815288,138.965552 L112.815288,129.365552 Z M20.6652875,129.365552 L10.4142875,129.365552 L10.4142875,138.965552 L20.6652875,138.965552 L20.6652875,129.365552 Z M47.5652875,118.165552 L35.7152875,118.165552 L35.7152875,127.765552 L47.5652875,127.765552 L47.5652875,118.165552 Z M61.0152875,118.165552 L49.1652875,118.165552 L49.1652875,127.765552 L61.0152875,127.765552 L61.0152875,118.165552 Z M74.4652875,118.165552 L62.6152875,118.165552 L62.6152875,127.765552 L74.4652875,127.765552 L74.4652875,118.165552 Z M87.9152875,118.165552 L76.0652875,118.165552 L76.0652875,127.765552 L87.9152875,127.765552 L87.9152875,118.165552 Z M101.365288,118.165552 L89.5152875,118.165552 L89.5152875,127.765552 L101.365288,127.765552 L101.365288,118.165552 Z M112.815288,118.165552 L102.965288,118.165552 L102.965288,127.765552 L112.815288,127.765552 L112.815288,118.165552 Z M20.6652875,118.165552 L10.4142875,118.165552 L10.4142875,127.765552 L20.6652875,127.765552 L20.6652875,118.165552 Z M34.1152875,118.165552 L22.2652875,118.165552 L22.2652875,127.765552 L34.1152875,127.765552 L34.1152875,118.165552 Z M47.5652875,106.965552 L35.7152875,106.965552 L35.7152875,116.565552 L47.5652875,116.565552 L47.5652875,106.965552 Z M61.0152875,106.965552 L49.1652875,106.965552 L49.1652875,116.565552 L61.0152875,116.565552 L61.0152875,106.965552 Z M74.4652875,106.965552 L62.6152875,106.965552 L62.6152875,116.565552 L74.4652875,116.565552 L74.4652875,106.965552 Z M87.9152875,106.965552 L76.0652875,106.965552 L76.0652875,116.565552 L87.9152875,116.565552 L87.9152875,106.965552 Z M34.1152875,106.965552 L22.2652875,106.965552 L22.2652875,116.565552 L34.1152875,116.565552 L34.1152875,106.965552 Z M112.815288,106.965552 L102.965288,106.965552 L102.965288,116.565552 L112.815288,116.565552 L112.815288,106.965552 Z M20.6652875,106.965552 L10.4142875,106.965552 L10.4142875,116.565552 L20.6652875,116.565552 L20.6652875,106.965552 Z M101.365288,106.965552 L89.5152875,106.965552 L89.5152875,116.565552 L101.365288,116.565552 L101.365288,106.965552 Z M47.5652875,95.7655518 L35.7152875,95.7655518 L35.7152875,105.365552 L47.5652875,105.365552 L47.5652875,95.7655518 Z M74.4652875,95.7655518 L62.6152875,95.7655518 L62.6152875,105.365552 L74.4652875,105.365552 L74.4652875,95.7655518 Z M87.9152875,95.7655518 L76.0652875,95.7655518 L76.0652875,105.365552 L87.9152875,105.365552 L87.9152875,95.7655518 Z M101.365288,95.7655518 L89.5152875,95.7655518 L89.5152875,105.365552 L101.365288,105.365552 L101.365288,95.7655518 Z M112.815288,95.7655518 L102.965288,95.7655518 L102.965288,105.365552 L112.815288,105.365552 L112.815288,95.7655518 Z M20.6652875,95.7655518 L10.4142875,95.7655518 L10.4142875,105.365552 L20.6652875,105.365552 L20.6652875,95.7655518 Z M34.1152875,95.7655518 L22.2652875,95.7655518 L22.2652875,105.365552 L34.1152875,105.365552 L34.1152875,95.7655518 Z M61.0152875,95.7655518 L49.1652875,95.7655518 L49.1652875,105.365552 L61.0152875,105.365552 L61.0152875,95.7655518 Z M34.1152875,84.5655518 L22.2652875,84.5655518 L22.2652875,94.1655518 L34.1152875,94.1655518 L34.1152875,84.5655518 Z M61.0152875,84.5655518 L49.1652875,84.5655518 L49.1652875,94.1655518 L61.0152875,94.1655518 L61.0152875,84.5655518 Z M74.4652875,84.5655518 L62.6152875,84.5655518 L62.6152875,94.1655518 L74.4652875,94.1655518 L74.4652875,84.5655518 Z M87.9152875,84.5655518 L76.0652875,84.5655518 L76.0652875,94.1655518 L87.9152875,94.1655518 L87.9152875,84.5655518 Z M101.365288,84.5655518 L89.5152875,84.5655518 L89.5152875,94.1655518 L101.365288,94.1655518 L101.365288,84.5655518 Z M112.815288,84.5655518 L102.965288,84.5655518 L102.965288,94.1655518 L112.815288,94.1655518 L112.815288,84.5655518 Z M20.6652875,84.5655518 L10.4142875,84.5655518 L10.4142875,94.1655518 L20.6652875,94.1655518 L20.6652875,84.5655518 Z M47.5652875,84.5655518 L35.7152875,84.5655518 L35.7152875,94.1655518 L47.5652875,94.1655518 L47.5652875,84.5655518 Z M47.5652875,73.3655518 L35.7152875,73.3655518 L35.7152875,82.9655518 L47.5652875,82.9655518 L47.5652875,73.3655518 Z M61.0152875,73.3655518 L49.1652875,73.3655518 L49.1652875,82.9655518 L61.0152875,82.9655518 L61.0152875,73.3655518 Z M74.4652875,73.3655518 L62.6152875,73.3655518 L62.6152875,82.9655518 L74.4652875,82.9655518 L74.4652875,73.3655518 Z M34.1152875,73.3655518 L22.2652875,73.3655518 L22.2652875,82.9655518 L34.1152875,82.9655518 L34.1152875,73.3655518 Z M101.365288,73.3655518 L89.5152875,73.3655518 L89.5152875,82.9655518 L101.365288,82.9655518 L101.365288,73.3655518 Z M112.815288,73.3655518 L102.965288,73.3655518 L102.965288,82.9655518 L112.815288,82.9655518 L112.815288,73.3655518 Z M20.6652875,73.3655518 L10.4142875,73.3655518 L10.4142875,82.9655518 L20.6652875,82.9655518 L20.6652875,73.3655518 Z M87.9152875,73.3655518 L76.0652875,73.3655518 L76.0652875,82.9655518 L87.9152875,82.9655518 L87.9152875,73.3655518 Z M61.0152875,62.1655518 L49.1652875,62.1655518 L49.1652875,71.7655518 L61.0152875,71.7655518 L61.0152875,62.1655518 Z M34.1152875,62.1655518 L22.2652875,62.1655518 L22.2652875,71.7655518 L34.1152875,71.7655518 L34.1152875,62.1655518 Z M101.365288,62.1655518 L89.5152875,62.1655518 L89.5152875,71.7655518 L101.365288,71.7655518 L101.365288,62.1655518 Z M112.815288,62.1655518 L102.965288,62.1655518 L102.965288,71.7655518 L112.815288,71.7655518 L112.815288,62.1655518 Z M20.6652875,62.1655518 L10.4142875,62.1655518 L10.4142875,71.7655518 L20.6652875,71.7655518 L20.6652875,62.1655518 Z M87.9152875,62.1655518 L76.0652875,62.1655518 L76.0652875,71.7655518 L87.9152875,71.7655518 L87.9152875,62.1655518 Z M47.5652875,62.1655518 L35.7152875,62.1655518 L35.7152875,71.7655518 L47.5652875,71.7655518 L47.5652875,62.1655518 Z M74.4652875,62.1655518 L62.6152875,62.1655518 L62.6152875,71.7655518 L74.4652875,71.7655518 L74.4652875,62.1655518 Z M61.0152875,50.9655518 L49.1652875,50.9655518 L49.1652875,60.5655518 L61.0152875,60.5655518 L61.0152875,50.9655518 Z M34.1152875,50.9655518 L22.2652875,50.9655518 L22.2652875,60.5655518 L34.1152875,60.5655518 L34.1152875,50.9655518 Z M101.365288,50.9655518 L89.5152875,50.9655518 L89.5152875,60.5655518 L101.365288,60.5655518 L101.365288,50.9655518 Z M112.815288,50.9655518 L102.965288,50.9655518 L102.965288,60.5655518 L112.815288,60.5655518 L112.815288,50.9655518 Z M20.6652875,50.9655518 L10.4142875,50.9655518 L10.4142875,60.5655518 L20.6652875,60.5655518 L20.6652875,50.9655518 Z M87.9152875,50.9655518 L76.0652875,50.9655518 L76.0652875,60.5655518 L87.9152875,60.5655518 L87.9152875,50.9655518 Z M47.5652875,50.9655518 L35.7152875,50.9655518 L35.7152875,60.5655518 L47.5652875,60.5655518 L47.5652875,50.9655518 Z M74.4652875,50.9655518 L62.6152875,50.9655518 L62.6152875,60.5655518 L74.4652875,60.5655518 L74.4652875,50.9655518 Z M34.1152875,39.7655518 L22.2652875,39.7655518 L22.2652875,49.3655518 L34.1152875,49.3655518 L34.1152875,39.7655518 Z M101.365288,39.7655518 L89.5152875,39.7655518 L89.5152875,49.3655518 L101.365288,49.3655518 L101.365288,39.7655518 Z M112.815288,39.7655518 L102.965288,39.7655518 L102.965288,49.3655518 L112.815288,49.3655518 L112.815288,39.7655518 Z M20.6652875,39.7655518 L10.4142875,39.7655518 L10.4142875,49.3655518 L20.6652875,49.3655518 L20.6652875,39.7655518 Z M61.0152875,39.7655518 L49.1652875,39.7655518 L49.1652875,49.3655518 L61.0152875,49.3655518 L61.0152875,39.7655518 Z M47.5652875,39.7655518 L35.7152875,39.7655518 L35.7152875,49.3655518 L47.5652875,49.3655518 L47.5652875,39.7655518 Z M74.4652875,39.7655518 L62.6152875,39.7655518 L62.6152875,49.3655518 L74.4652875,49.3655518 L74.4652875,39.7655518 Z M87.9152875,39.7655518 L76.0652875,39.7655518 L76.0652875,49.3655518 L87.9152875,49.3655518 L87.9152875,39.7655518 Z M34.1152875,28.5655518 L22.2652875,28.5655518 L22.2652875,38.1655518 L34.1152875,38.1655518 L34.1152875,28.5655518 Z M20.6652875,28.5655518 L10.4142875,28.5655518 L10.4142875,38.1655518 L20.6652875,38.1655518 L20.6652875,28.5655518 Z M61.0152875,28.5655518 L49.1652875,28.5655518 L49.1652875,38.1655518 L61.0152875,38.1655518 L61.0152875,28.5655518 Z M47.5652875,28.5655518 L35.7152875,28.5655518 L35.7152875,38.1655518 L47.5652875,38.1655518 L47.5652875,28.5655518 Z M74.4652875,28.5655518 L62.6152875,28.5655518 L62.6152875,38.1655518 L74.4652875,38.1655518 L74.4652875,28.5655518 Z M87.9152875,28.5655518 L76.0652875,28.5655518 L76.0652875,38.1655518 L87.9152875,38.1655518 L87.9152875,28.5655518 Z M101.365288,28.5655518 L89.5152875,28.5655518 L89.5152875,38.1655518 L101.365288,38.1655518 L101.365288,28.5655518 Z M112.815288,28.5655518 L102.965288,28.5655518 L102.965288,38.1655518 L112.815288,38.1655518 L112.815288,28.5655518 Z M34.1152875,17.3655518 L22.2652875,17.3655518 L22.2652875,26.9655518 L34.1152875,26.9655518 L34.1152875,17.3655518 Z M101.365288,17.3655518 L89.5152875,17.3655518 L89.5152875,26.9655518 L101.365288,26.9655518 L101.365288,17.3655518 Z M112.815288,17.3655518 L102.965288,17.3655518 L102.965288,26.9655518 L112.815288,26.9655518 L112.815288,17.3655518 Z M20.6652875,17.3655518 L10.4142875,17.3655518 L10.4142875,26.9655518 L20.6652875,26.9655518 L20.6652875,17.3655518 Z M47.5652875,17.3655518 L35.7152875,17.3655518 L35.7152875,26.9655518 L47.5652875,26.9655518 L47.5652875,17.3655518 Z M61.0152875,17.3655518 L49.1652875,17.3655518 L49.1652875,26.9655518 L61.0152875,26.9655518 L61.0152875,17.3655518 Z M74.4652875,17.3655518 L62.6152875,17.3655518 L62.6152875,26.9655518 L74.4652875,26.9655518 L74.4652875,17.3655518 Z M87.9152875,17.3655518 L76.0652875,17.3655518 L76.0652875,26.9655518 L87.9152875,26.9655518 L87.9152875,17.3655518 Z M20.6652875,7.8275518 L10.4152875,7.8285518 L10.4142875,15.7655518 L20.6652875,15.7655518 L20.6652875,7.8275518 Z M34.1152875,7.8275518 L22.2652875,7.8275518 L22.2652875,15.7655518 L34.1152875,15.7655518 L34.1152875,7.8275518 Z M47.5652875,7.8275518 L35.7152875,7.8275518 L35.7152875,15.7655518 L47.5652875,15.7655518 L47.5652875,7.8275518 Z M61.0152875,7.8275518 L49.1652875,7.8275518 L49.1652875,15.7655518 L61.0152875,15.7655518 L61.0152875,7.8275518 Z M74.4652875,7.8275518 L62.6152875,7.8275518 L62.6152875,15.7655518 L74.4652875,15.7655518 L74.4652875,7.8275518 Z M87.9152875,7.8275518 L76.0652875,7.8275518 L76.0652875,15.7655518 L87.9152875,15.7655518 L87.9152875,7.8275518 Z M101.365288,7.8275518 L89.5152875,7.8275518 L89.5152875,15.7655518 L101.365288,15.7655518 L101.365288,7.8275518 Z M112.815288,7.8285518 L102.965288,7.8275518 L102.965288,15.7655518 L112.815288,15.7655518 L112.815288,7.8285518 Z" id="Combined-Shape" fill="#FFB116" fill-rule="nonzero"></path>
            <path d="M229.615288,165.187555 L117.615288,165.187555 L117.615288,3.0285518 L229.615288,3.0285518 L229.615288,165.187555 Z M132.665288,151.765552 L122.414288,151.765552 L122.415288,160.387555 L132.665288,160.387552 L132.665288,151.765552 Z M146.115288,151.765552 L134.265288,151.765552 L134.265288,160.387552 L146.115288,160.387552 L146.115288,151.765552 Z M159.565288,151.765552 L147.715288,151.765552 L147.715288,160.387552 L159.565288,160.387552 L159.565288,151.765552 Z M173.015288,151.765552 L161.165288,151.765552 L161.165288,160.387552 L173.015288,160.387552 L173.015288,151.765552 Z M186.465288,151.765552 L174.615288,151.765552 L174.615288,160.387552 L186.465288,160.387552 L186.465288,151.765552 Z M199.915288,151.765552 L188.065288,151.765552 L188.065288,160.387552 L199.915288,160.387552 L199.915288,151.765552 Z M213.365288,151.765552 L201.515288,151.765552 L201.515288,160.387552 L213.365288,160.387552 L213.365288,151.765552 Z M224.815288,151.765552 L214.965288,151.765552 L214.965288,160.387552 L224.815288,160.387555 L224.815288,151.765552 Z M132.665288,140.565552 L122.414288,140.565552 L122.414288,150.165552 L132.665288,150.165552 L132.665288,140.565552 Z M146.115288,140.565552 L134.265288,140.565552 L134.265288,150.165552 L146.115288,150.165552 L146.115288,140.565552 Z M159.565288,140.565552 L147.715288,140.565552 L147.715288,150.165552 L159.565288,150.165552 L159.565288,140.565552 Z M173.015288,140.565552 L161.165288,140.565552 L161.165288,150.165552 L173.015288,150.165552 L173.015288,140.565552 Z M186.465288,140.565552 L174.615288,140.565552 L174.615288,150.165552 L186.465288,150.165552 L186.465288,140.565552 Z M199.915288,140.565552 L188.065288,140.565552 L188.065288,150.165552 L199.915288,150.165552 L199.915288,140.565552 Z M213.365288,140.565552 L201.515288,140.565552 L201.515288,150.165552 L213.365288,150.165552 L213.365288,140.565552 Z M224.815288,140.565552 L214.965288,140.565552 L214.965288,150.165552 L224.815288,150.165552 L224.815288,140.565552 Z M146.115288,129.365552 L134.265288,129.365552 L134.265288,138.965552 L146.115288,138.965552 L146.115288,129.365552 Z M159.565288,129.365552 L147.715288,129.365552 L147.715288,138.965552 L159.565288,138.965552 L159.565288,129.365552 Z M173.015288,129.365552 L161.165288,129.365552 L161.165288,138.965552 L173.015288,138.965552 L173.015288,129.365552 Z M186.465288,129.365552 L174.615288,129.365552 L174.615288,138.965552 L186.465288,138.965552 L186.465288,129.365552 Z M199.915288,129.365552 L188.065288,129.365552 L188.065288,138.965552 L199.915288,138.965552 L199.915288,129.365552 Z M213.365288,129.365552 L201.515288,129.365552 L201.515288,138.965552 L213.365288,138.965552 L213.365288,129.365552 Z M224.815288,129.365552 L214.965288,129.365552 L214.965288,138.965552 L224.815288,138.965552 L224.815288,129.365552 Z M132.665288,129.365552 L122.414288,129.365552 L122.414288,138.965552 L132.665288,138.965552 L132.665288,129.365552 Z M159.565288,118.165552 L147.715288,118.165552 L147.715288,127.765552 L159.565288,127.765552 L159.565288,118.165552 Z M173.015288,118.165552 L161.165288,118.165552 L161.165288,127.765552 L173.015288,127.765552 L173.015288,118.165552 Z M186.465288,118.165552 L174.615288,118.165552 L174.615288,127.765552 L186.465288,127.765552 L186.465288,118.165552 Z M199.915288,118.165552 L188.065288,118.165552 L188.065288,127.765552 L199.915288,127.765552 L199.915288,118.165552 Z M213.365288,118.165552 L201.515288,118.165552 L201.515288,127.765552 L213.365288,127.765552 L213.365288,118.165552 Z M224.815288,118.165552 L214.965288,118.165552 L214.965288,127.765552 L224.815288,127.765552 L224.815288,118.165552 Z M132.665288,118.165552 L122.414288,118.165552 L122.414288,127.765552 L132.665288,127.765552 L132.665288,118.165552 Z M146.115288,118.165552 L134.265288,118.165552 L134.265288,127.765552 L146.115288,127.765552 L146.115288,118.165552 Z M159.565288,106.965552 L147.715288,106.965552 L147.715288,116.565552 L159.565288,116.565552 L159.565288,106.965552 Z M173.015288,106.965552 L161.165288,106.965552 L161.165288,116.565552 L173.015288,116.565552 L173.015288,106.965552 Z M186.465288,106.965552 L174.615288,106.965552 L174.615288,116.565552 L186.465288,116.565552 L186.465288,106.965552 Z M199.915288,106.965552 L188.065288,106.965552 L188.065288,116.565552 L199.915288,116.565552 L199.915288,106.965552 Z M146.115288,106.965552 L134.265288,106.965552 L134.265288,116.565552 L146.115288,116.565552 L146.115288,106.965552 Z M224.815288,106.965552 L214.965288,106.965552 L214.965288,116.565552 L224.815288,116.565552 L224.815288,106.965552 Z M132.665288,106.965552 L122.414288,106.965552 L122.414288,116.565552 L132.665288,116.565552 L132.665288,106.965552 Z M213.365288,106.965552 L201.515288,106.965552 L201.515288,116.565552 L213.365288,116.565552 L213.365288,106.965552 Z M159.565288,95.7655518 L147.715288,95.7655518 L147.715288,105.365552 L159.565288,105.365552 L159.565288,95.7655518 Z M186.465288,95.7655518 L174.615288,95.7655518 L174.615288,105.365552 L186.465288,105.365552 L186.465288,95.7655518 Z M199.915288,95.7655518 L188.065288,95.7655518 L188.065288,105.365552 L199.915288,105.365552 L199.915288,95.7655518 Z M213.365288,95.7655518 L201.515288,95.7655518 L201.515288,105.365552 L213.365288,105.365552 L213.365288,95.7655518 Z M224.815288,95.7655518 L214.965288,95.7655518 L214.965288,105.365552 L224.815288,105.365552 L224.815288,95.7655518 Z M132.665288,95.7655518 L122.414288,95.7655518 L122.414288,105.365552 L132.665288,105.365552 L132.665288,95.7655518 Z M146.115288,95.7655518 L134.265288,95.7655518 L134.265288,105.365552 L146.115288,105.365552 L146.115288,95.7655518 Z M173.015288,95.7655518 L161.165288,95.7655518 L161.165288,105.365552 L173.015288,105.365552 L173.015288,95.7655518 Z M146.115288,84.5655518 L134.265288,84.5655518 L134.265288,94.1655518 L146.115288,94.1655518 L146.115288,84.5655518 Z M173.015288,84.5655518 L161.165288,84.5655518 L161.165288,94.1655518 L173.015288,94.1655518 L173.015288,84.5655518 Z M186.465288,84.5655518 L174.615288,84.5655518 L174.615288,94.1655518 L186.465288,94.1655518 L186.465288,84.5655518 Z M199.915288,84.5655518 L188.065288,84.5655518 L188.065288,94.1655518 L199.915288,94.1655518 L199.915288,84.5655518 Z M213.365288,84.5655518 L201.515288,84.5655518 L201.515288,94.1655518 L213.365288,94.1655518 L213.365288,84.5655518 Z M224.815288,84.5655518 L214.965288,84.5655518 L214.965288,94.1655518 L224.815288,94.1655518 L224.815288,84.5655518 Z M132.665288,84.5655518 L122.414288,84.5655518 L122.414288,94.1655518 L132.665288,94.1655518 L132.665288,84.5655518 Z M159.565288,84.5655518 L147.715288,84.5655518 L147.715288,94.1655518 L159.565288,94.1655518 L159.565288,84.5655518 Z M159.565288,73.3655518 L147.715288,73.3655518 L147.715288,82.9655518 L159.565288,82.9655518 L159.565288,73.3655518 Z M173.015288,73.3655518 L161.165288,73.3655518 L161.165288,82.9655518 L173.015288,82.9655518 L173.015288,73.3655518 Z M186.465288,73.3655518 L174.615288,73.3655518 L174.615288,82.9655518 L186.465288,82.9655518 L186.465288,73.3655518 Z M146.115288,73.3655518 L134.265288,73.3655518 L134.265288,82.9655518 L146.115288,82.9655518 L146.115288,73.3655518 Z M213.365288,73.3655518 L201.515288,73.3655518 L201.515288,82.9655518 L213.365288,82.9655518 L213.365288,73.3655518 Z M224.815288,73.3655518 L214.965288,73.3655518 L214.965288,82.9655518 L224.815288,82.9655518 L224.815288,73.3655518 Z M132.665288,73.3655518 L122.414288,73.3655518 L122.414288,82.9655518 L132.665288,82.9655518 L132.665288,73.3655518 Z M199.915288,73.3655518 L188.065288,73.3655518 L188.065288,82.9655518 L199.915288,82.9655518 L199.915288,73.3655518 Z M173.015288,62.1655518 L161.165288,62.1655518 L161.165288,71.7655518 L173.015288,71.7655518 L173.015288,62.1655518 Z M146.115288,62.1655518 L134.265288,62.1655518 L134.265288,71.7655518 L146.115288,71.7655518 L146.115288,62.1655518 Z M213.365288,62.1655518 L201.515288,62.1655518 L201.515288,71.7655518 L213.365288,71.7655518 L213.365288,62.1655518 Z M224.815288,62.1655518 L214.965288,62.1655518 L214.965288,71.7655518 L224.815288,71.7655518 L224.815288,62.1655518 Z M132.665288,62.1655518 L122.414288,62.1655518 L122.414288,71.7655518 L132.665288,71.7655518 L132.665288,62.1655518 Z M199.915288,62.1655518 L188.065288,62.1655518 L188.065288,71.7655518 L199.915288,71.7655518 L199.915288,62.1655518 Z M159.565288,62.1655518 L147.715288,62.1655518 L147.715288,71.7655518 L159.565288,71.7655518 L159.565288,62.1655518 Z M186.465288,62.1655518 L174.615288,62.1655518 L174.615288,71.7655518 L186.465288,71.7655518 L186.465288,62.1655518 Z M173.015288,50.9655518 L161.165288,50.9655518 L161.165288,60.5655518 L173.015288,60.5655518 L173.015288,50.9655518 Z M146.115288,50.9655518 L134.265288,50.9655518 L134.265288,60.5655518 L146.115288,60.5655518 L146.115288,50.9655518 Z M213.365288,50.9655518 L201.515288,50.9655518 L201.515288,60.5655518 L213.365288,60.5655518 L213.365288,50.9655518 Z M224.815288,50.9655518 L214.965288,50.9655518 L214.965288,60.5655518 L224.815288,60.5655518 L224.815288,50.9655518 Z M132.665288,50.9655518 L122.414288,50.9655518 L122.414288,60.5655518 L132.665288,60.5655518 L132.665288,50.9655518 Z M199.915288,50.9655518 L188.065288,50.9655518 L188.065288,60.5655518 L199.915288,60.5655518 L199.915288,50.9655518 Z M159.565288,50.9655518 L147.715288,50.9655518 L147.715288,60.5655518 L159.565288,60.5655518 L159.565288,50.9655518 Z M186.465288,50.9655518 L174.615288,50.9655518 L174.615288,60.5655518 L186.465288,60.5655518 L186.465288,50.9655518 Z M146.115288,39.7655518 L134.265288,39.7655518 L134.265288,49.3655518 L146.115288,49.3655518 L146.115288,39.7655518 Z M213.365288,39.7655518 L201.515288,39.7655518 L201.515288,49.3655518 L213.365288,49.3655518 L213.365288,39.7655518 Z M224.815288,39.7655518 L214.965288,39.7655518 L214.965288,49.3655518 L224.815288,49.3655518 L224.815288,39.7655518 Z M132.665288,39.7655518 L122.414288,39.7655518 L122.414288,49.3655518 L132.665288,49.3655518 L132.665288,39.7655518 Z M173.015288,39.7655518 L161.165288,39.7655518 L161.165288,49.3655518 L173.015288,49.3655518 L173.015288,39.7655518 Z M159.565288,39.7655518 L147.715288,39.7655518 L147.715288,49.3655518 L159.565288,49.3655518 L159.565288,39.7655518 Z M186.465288,39.7655518 L174.615288,39.7655518 L174.615288,49.3655518 L186.465288,49.3655518 L186.465288,39.7655518 Z M199.915288,39.7655518 L188.065288,39.7655518 L188.065288,49.3655518 L199.915288,49.3655518 L199.915288,39.7655518 Z M146.115288,28.5655518 L134.265288,28.5655518 L134.265288,38.1655518 L146.115288,38.1655518 L146.115288,28.5655518 Z M132.665288,28.5655518 L122.414288,28.5655518 L122.414288,38.1655518 L132.665288,38.1655518 L132.665288,28.5655518 Z M173.015288,28.5655518 L161.165288,28.5655518 L161.165288,38.1655518 L173.015288,38.1655518 L173.015288,28.5655518 Z M159.565288,28.5655518 L147.715288,28.5655518 L147.715288,38.1655518 L159.565288,38.1655518 L159.565288,28.5655518 Z M186.465288,28.5655518 L174.615288,28.5655518 L174.615288,38.1655518 L186.465288,38.1655518 L186.465288,28.5655518 Z M199.915288,28.5655518 L188.065288,28.5655518 L188.065288,38.1655518 L199.915288,38.1655518 L199.915288,28.5655518 Z M213.365288,28.5655518 L201.515288,28.5655518 L201.515288,38.1655518 L213.365288,38.1655518 L213.365288,28.5655518 Z M224.815288,28.5655518 L214.965288,28.5655518 L214.965288,38.1655518 L224.815288,38.1655518 L224.815288,28.5655518 Z M146.115288,17.3655518 L134.265288,17.3655518 L134.265288,26.9655518 L146.115288,26.9655518 L146.115288,17.3655518 Z M213.365288,17.3655518 L201.515288,17.3655518 L201.515288,26.9655518 L213.365288,26.9655518 L213.365288,17.3655518 Z M224.815288,17.3655518 L214.965288,17.3655518 L214.965288,26.9655518 L224.815288,26.9655518 L224.815288,17.3655518 Z M132.665288,17.3655518 L122.414288,17.3655518 L122.414288,26.9655518 L132.665288,26.9655518 L132.665288,17.3655518 Z M159.565288,17.3655518 L147.715288,17.3655518 L147.715288,26.9655518 L159.565288,26.9655518 L159.565288,17.3655518 Z M173.015288,17.3655518 L161.165288,17.3655518 L161.165288,26.9655518 L173.015288,26.9655518 L173.015288,17.3655518 Z M186.465288,17.3655518 L174.615288,17.3655518 L174.615288,26.9655518 L186.465288,26.9655518 L186.465288,17.3655518 Z M199.915288,17.3655518 L188.065288,17.3655518 L188.065288,26.9655518 L199.915288,26.9655518 L199.915288,17.3655518 Z M132.665288,7.8275518 L122.415288,7.8285518 L122.414288,15.7655518 L132.665288,15.7655518 L132.665288,7.8275518 Z M146.115288,7.8275518 L134.265288,7.8275518 L134.265288,15.7655518 L146.115288,15.7655518 L146.115288,7.8275518 Z M159.565288,7.8275518 L147.715288,7.8275518 L147.715288,15.7655518 L159.565288,15.7655518 L159.565288,7.8275518 Z M173.015288,7.8275518 L161.165288,7.8275518 L161.165288,15.7655518 L173.015288,15.7655518 L173.015288,7.8275518 Z M186.465288,7.8275518 L174.615288,7.8275518 L174.615288,15.7655518 L186.465288,15.7655518 L186.465288,7.8275518 Z M199.915288,7.8275518 L188.065288,7.8275518 L188.065288,15.7655518 L199.915288,15.7655518 L199.915288,7.8275518 Z M213.365288,7.8275518 L201.515288,7.8275518 L201.515288,15.7655518 L213.365288,15.7655518 L213.365288,7.8275518 Z M224.815288,7.8285518 L214.965288,7.8275518 L214.965288,15.7655518 L224.815288,15.7655518 L224.815288,7.8285518 Z" id="Combined-Shape-Copy" fill="#FFB116" fill-rule="nonzero"></path>
            <line x1="117.615288" y1="3.93145368" x2="117.615288" y2="165.187555" id="Line-40" stroke="#E79E0C" stroke-width="0.8"></line>
            <polygon id="Rectangle" fill="#E69D0C" points="-9.08162434e-13 2.84217094e-14 5.61528754 3.0285518 5.61528754 165.131454 0.000284362627 160.387555"></polygon>
            <polygon id="Rectangle" fill="#FFD583" points="3.41060513e-13 -4.02439997e-14 226.213725 -4.04121181e-14 229.615288 3.0285518 5.61528754 3.0285518"></polygon>
        </g>
        <g id="Path-82" fill-rule="nonzero">
            <use fill="#979797" xlink:href="#path-1"></use>
            <use fill="black" fill-opacity="1" filter="url(#filter-2)" xlink:href="#path-1"></use>
        </g>
        <g id="Path-82-Copy" fill-rule="nonzero">
            <use fill="#979797" xlink:href="#path-3"></use>
            <use fill="black" fill-opacity="1" filter="url(#filter-4)" xlink:href="#path-3"></use>
        </g>
        <path d="M228.12777,7 L287.87223,7 C289.655267,7 290.30184,7.18565122 290.953691,7.53426541 C291.605543,7.88287959 292.11712,8.39445674 292.465735,9.04630859 C292.814349,9.69816044 293,10.3447329 293,12.1277704 L293,71.8722296 C293,73.6552671 292.814349,74.3018396 292.465735,74.9536914 C292.11712,75.6055433 291.605543,76.1171204 290.953691,76.4657346 C290.30184,76.8143488 289.655267,77 287.87223,77 L228.12777,77 C226.344733,77 225.69816,76.8143488 225.046309,76.4657346 C224.394457,76.1171204 223.88288,75.6055433 223.534265,74.9536914 C223.185651,74.3018396 223,73.6552671 223,71.8722296 L223,12.1277704 C223,10.3447329 223.185651,9.69816044 223.534265,9.04630859 C223.88288,8.39445674 224.394457,7.88287959 225.046309,7.53426541 C225.69816,7.18565122 226.344733,7 228.12777,7 Z" id="Rectangle" fill="#737E92"></path>
        <path d="M263.419375,35.191707 C263.419375,32.1986688 260.993038,29.772332 258,29.772332 C255.006962,29.772332 252.580625,32.1986688 252.580625,35.191707 L252.580625,35.191707 L252.580625,38.929207 L248.095625,38.929207 L248.095625,35.191707 C248.095625,29.7216717 252.529965,25.287332 258,25.287332 C263.470035,25.287332 267.904375,29.7216717 267.904375,35.191707 L267.904375,35.191707 L267.904375,38.929207 L270.257144,38.929207 L270.257144,58.712668 L245.742856,58.712668 L245.742856,38.929207 L263.419375,38.929207 Z" id="Combined-Shape" fill="#FFFFFF" fill-rule="nonzero"></path>
    </g>
</svg>