<?xml version="1.0" encoding="UTF-8"?>
<svg width="300px" height="300px" viewBox="0 0 300 300" version="1.1" xmlns="http://www.w3.org/2000/svg" xmlns:xlink="http://www.w3.org/1999/xlink">
    <title>Estados acero de perforación</title>
    <defs>
        <path d="M28.5198811,1.0658141e-14 C33.8532144,1.0658141e-14 39.1865478,1.0546875 44.5198811,3.1640625 L56.8976866,56.6308976 C56.9204905,56.707745 56.938405,56.7849323 56.9513527,56.8624401 L57.0198811,57.1640625 L56.9764988,57.1640625 C56.9764988,61.0920896 44.2263256,64.2763847 28.4981899,64.2763847 C12.7700543,64.2763847 0.0198810871,61.0920896 0.0198810871,57.1640625 C0.0198810871,56.882107 0.0855754751,56.6039835 0.21335006,56.3305947 L12.5198811,3.1640625 C17.8532144,1.0546875 23.1865478,1.0658141e-14 28.5198811,1.0658141e-14 Z" id="path-1"></path>
        <path d="M25.667893,1.0658141e-14 C30.467893,1.0658141e-14 35.267893,0.94921875 40.067893,2.84765625 L51.2084134,50.9694803 C51.2276053,51.0343849 51.2429221,51.0995586 51.2543061,51.1649872 L51.317893,51.4476563 L51.2788489,51.4476563 C51.2788489,54.9828806 39.8036931,57.8487462 25.6483709,57.8487462 C11.4930488,57.8487462 0.0178929784,54.9828806 0.0178929784,51.4476563 C0.0178929784,51.1951402 0.0764396919,50.9460393 0.190327948,50.7011539 L11.267893,2.84765625 C16.067893,0.94921875 20.867893,1.0658141e-14 25.667893,1.0658141e-14 Z" id="path-3"></path>
        <ellipse id="path-5" cx="13.725" cy="23.8081936" rx="13.725" ry="23.8081936"></ellipse>
        <rect id="path-7" x="12.0070593" y="0" width="3.02707156" height="7.56990071"></rect>
        <filter x="-16.5%" y="-6.6%" width="133.0%" height="113.2%" filterUnits="objectBoundingBox" id="filter-8">
            <feOffset dx="1" dy="0" in="SourceAlpha" result="shadowOffsetInner1"></feOffset>
            <feComposite in="shadowOffsetInner1" in2="SourceAlpha" operator="arithmetic" k2="-1" k3="1" result="shadowInnerInner1"></feComposite>
            <feColorMatrix values="0 0 0 0 0.682352941   0 0 0 0 0.607843137   0 0 0 0 0.462745098  0 0 0 1 0" type="matrix" in="shadowInnerInner1"></feColorMatrix>
        </filter>
        <rect id="path-9" x="1.9447943" y="34.6692532" width="5.9215039" height="4.19786093"></rect>
        <filter x="-8.4%" y="-11.9%" width="116.9%" height="123.8%" filterUnits="objectBoundingBox" id="filter-10">
            <feOffset dx="0" dy="1" in="SourceAlpha" result="shadowOffsetInner1"></feOffset>
            <feComposite in="shadowOffsetInner1" in2="SourceAlpha" operator="arithmetic" k2="-1" k3="1" result="shadowInnerInner1"></feComposite>
            <feColorMatrix values="0 0 0 0 0.684216486   0 0 0 0 0.60678702   0 0 0 0 0.464153794  0 0 0 1 0" type="matrix" in="shadowInnerInner1"></feColorMatrix>
        </filter>
        <rect id="path-11" x="19.5543019" y="34.8798583" width="6.27881644" height="4.19786093"></rect>
        <filter x="-8.0%" y="-11.9%" width="115.9%" height="123.8%" filterUnits="objectBoundingBox" id="filter-12">
            <feOffset dx="0" dy="1" in="SourceAlpha" result="shadowOffsetInner1"></feOffset>
            <feComposite in="shadowOffsetInner1" in2="SourceAlpha" operator="arithmetic" k2="-1" k3="1" result="shadowInnerInner1"></feComposite>
            <feColorMatrix values="0 0 0 0 0.682352941   0 0 0 0 0.607843137   0 0 0 0 0.462745098  0 0 0 1 0" type="matrix" in="shadowInnerInner1"></feColorMatrix>
        </filter>
        <ellipse id="path-13" cx="15.25" cy="26.4535485" rx="15.25" ry="26.4535485"></ellipse>
        <rect id="path-15" x="13.341177" y="0" width="3.36341284" height="8.41100078"></rect>
        <filter x="-14.9%" y="-5.9%" width="129.7%" height="111.9%" filterUnits="objectBoundingBox" id="filter-16">
            <feOffset dx="1" dy="0" in="SourceAlpha" result="shadowOffsetInner1"></feOffset>
            <feComposite in="shadowOffsetInner1" in2="SourceAlpha" operator="arithmetic" k2="-1" k3="1" result="shadowInnerInner1"></feComposite>
            <feColorMatrix values="0 0 0 0 0.682352941   0 0 0 0 0.607843137   0 0 0 0 0.462745098  0 0 0 1 0" type="matrix" in="shadowInnerInner1"></feColorMatrix>
        </filter>
        <rect id="path-17" x="2.16088256" y="38.5213925" width="6.57944878" height="4.66428993"></rect>
        <filter x="-7.6%" y="-10.7%" width="115.2%" height="121.4%" filterUnits="objectBoundingBox" id="filter-18">
            <feOffset dx="0" dy="1" in="SourceAlpha" result="shadowOffsetInner1"></feOffset>
            <feComposite in="shadowOffsetInner1" in2="SourceAlpha" operator="arithmetic" k2="-1" k3="1" result="shadowInnerInner1"></feComposite>
            <feColorMatrix values="0 0 0 0 0.684216486   0 0 0 0 0.60678702   0 0 0 0 0.464153794  0 0 0 1 0" type="matrix" in="shadowInnerInner1"></feColorMatrix>
        </filter>
        <rect id="path-19" x="21.7270021" y="38.7553981" width="6.97646271" height="4.66428993"></rect>
        <filter x="-7.2%" y="-10.7%" width="114.3%" height="121.4%" filterUnits="objectBoundingBox" id="filter-20">
            <feOffset dx="0" dy="1" in="SourceAlpha" result="shadowOffsetInner1"></feOffset>
            <feComposite in="shadowOffsetInner1" in2="SourceAlpha" operator="arithmetic" k2="-1" k3="1" result="shadowInnerInner1"></feComposite>
            <feColorMatrix values="0 0 0 0 0.682352941   0 0 0 0 0.607843137   0 0 0 0 0.462745098  0 0 0 1 0" type="matrix" in="shadowInnerInner1"></feColorMatrix>
        </filter>
    </defs>
    <g id="Estados-acero-de-perforación" stroke="none" stroke-width="1" fill="none" fill-rule="evenodd">
        <rect fill="#FFFFFF" x="0" y="0" width="300" height="300"></rect>
        <g id="Group-2" transform="translate(203.890001, 55.645276)">
            <path d="M69,103.735303 L69,228.512166 L68.8651851,228.584549 C68.9544293,228.83723 69,229.093043 69,229.351513 C69,234.110115 53.5538239,237.967724 34.5,237.967724 L34.5,237.967724 L34.5,237.967724 L33.9294794,237.96657 C15.1387972,237.890482 -7.10542736e-15,234.062529 -7.10542736e-15,229.351513 C-7.10542736e-15,229.093043 0.0455706565,228.83723 0.134814852,228.584549 C0.0900052177,228.561454 0.0450026088,228.536834 -2.13162821e-14,228.512166 L-2.13162821e-14,103.735303 L69,103.735303 Z" id="Combined-Shape" fill="#9ABAD0"></path>
            <line x1="12" y1="70.7353025" x2="57" y2="70.7353025" id="Line-31" stroke="#979797"></line>
            <line x1="12" y1="103.735303" x2="57" y2="103.735303" id="Line-31-Copy" stroke="#979797"></line>
            <ellipse id="Oval-Copy" fill="#D8EFFF" cx="34.5" cy="103.735303" rx="34.5" ry="8.61621094"></ellipse>
            <path d="M12,70.7353025 L57,70.7353025 L57,103.735303 C57,106.838739 46.9264069,109.354571 34.5,109.354571 C22.0735931,109.354571 12,106.838739 12,103.735303 L12,103.735303 L12,70.7353025 Z" id="Combined-Shape" fill="#9ABAD0"></path>
            <g id="Group" transform="translate(0.000000, 53.502881)">
                <path d="M0,8.73242188 L28.8127243,8.73272896 C30.6628972,8.65608601 32.562803,8.61621094 34.5,8.61621094 C36.437197,8.61621094 38.3371028,8.65608601 40.1872757,8.73272896 L69,8.73242188 L69,17.2324219 C69,21.9910238 53.5538239,25.8486328 34.5,25.8486328 C15.4461761,25.8486328 0,21.9910238 0,17.2324219 L0,17.2324219 L0,8.73242188 Z" id="Combined-Shape" fill="#9ABAD0"></path>
                <ellipse id="Oval-Copy-3" fill="#D8EFFF" cx="34.5" cy="8.61621094" rx="34.5" ry="8.61621094"></ellipse>
            </g>
            <ellipse id="Oval-Copy-4" fill="#EFEFEF" cx="34.5086806" cy="4.00777746" rx="16.0474625" ry="4.00777746"></ellipse>
            <g id="Combined-Shape" transform="translate(5.980119, 0.571240)">
                <mask id="mask-2" fill="white">
                    <use xlink:href="#path-1"></use>
                </mask>
                <use id="Mask" fill="#9ABAD0" xlink:href="#path-1"></use>
                <path d="M1,51.9541156 C1,55.3619838 13.3811438,58.4541156 28.5285617,58.4541156 C43.6759796,58.4541156 56.0571234,55.3619838 56.0571234,51.9541156 L56.0571234,51.9541156 L57.0571234,51.9541156 C57.0571234,56.2782338 44.3406382,59.4541156 28.5285617,59.4541156 C12.7164852,59.4541156 9.66338121e-13,56.2782338 9.66338121e-13,51.9541156 L9.66338121e-13,51.9541156 Z M3.00204012,44.0900071 C3.00204012,47.2217329 14.48684,50.0900071 28.5285617,50.0900071 C42.5702834,50.0900071 54.0550833,47.2217329 54.0550833,44.0900071 L54.0550833,44.0900071 L55.0550833,44.0900071 C55.0550833,48.137983 43.234942,51.0900071 28.5285617,51.0900071 C13.8221814,51.0900071 2.00204012,48.137983 2.00204012,44.0900071 L2.00204012,44.0900071 Z M3.00204012,36.2258986 C3.00204012,39.3576244 14.48684,43.7407227 28.5285617,43.7407227 C42.5702834,43.7407227 54.0550833,39.3576244 54.0550833,36.2258986 L54.0550833,36.2258986 L55.0550833,36.2258986 C55.0550833,40.2738745 43.234942,44.7407227 28.5285617,44.7407227 C13.8221814,44.7407227 2.00204012,40.2738745 2.00204012,36.2258986 L2.00204012,36.2258986 Z M3.00204012,28.3617901 C3.00204012,31.493516 14.48684,35.8959961 28.5285617,35.8959961 C42.5702834,35.8959961 54.0550833,31.493516 54.0550833,28.3617901 L54.0550833,28.3617901 L55.0550833,28.3617901 C55.0550833,32.409766 43.234942,36.8959961 28.5285617,36.8959961 C13.8221814,36.8959961 2.00204012,32.409766 2.00204012,28.3617901 L2.00204012,28.3617901 Z M3.00204012,20.4976816 C3.00204012,23.6294075 14.48684,28.5820313 28.5285617,28.5820313 C42.5702834,28.5820313 54.0550833,23.6294075 54.0550833,20.4976816 L54.0550833,20.4976816 L55.0550833,20.4976816 C55.0550833,24.5456576 43.234942,29.5820313 28.5285617,29.5820313 C13.8221814,29.5820313 2.00204012,24.5456576 2.00204012,20.4976816 L2.00204012,20.4976816 Z M3.00204012,12.6335732 C3.00204012,15.765299 14.48684,20.8500977 28.5285617,20.8500977 C42.5702834,20.8500977 54.0550833,15.765299 54.0550833,12.6335732 L54.0550833,12.6335732 L55.0550833,12.6335732 C55.0550833,16.6815491 43.234942,21.8500977 28.5285617,21.8500977 C13.8221814,21.8500977 2.00204012,16.6815491 2.00204012,12.6335732 L2.00204012,12.6335732 Z M3.00204012,4.76946469 C3.00204012,7.90119052 14.4564683,13.3349609 28.4981899,13.3349609 C42.5399116,13.3349609 54.0550833,7.90119052 54.0550833,4.76946469 L54.0550833,4.76946469 L55.0550833,4.76946469 C55.0550833,8.8174406 43.2045702,14.3349609 28.4981899,14.3349609 C13.7918097,14.3349609 2.00204012,8.8174406 2.00204012,4.76946469 L2.00204012,4.76946469 Z" fill="#668BA5" fill-rule="nonzero" mask="url(#mask-2)"></path>
            </g>
            <ellipse id="Oval-Copy-4" fill="#EBF0F6" cx="34.5086806" cy="4.00777746" rx="16.0474625" ry="4.00777746"></ellipse>
        </g>
        <g id="Group-2-Copy" transform="translate(26.785576, 18.025585)">
            <path d="M30.5365315,214.169913 C13.6249175,214.101434 -7.10542736e-15,210.656276 -7.10542736e-15,206.416362 C-7.10542736e-15,206.184066 0.0408980738,205.954156 0.120994024,205.727056 C0.0807446809,205.705166 0.0403723404,205.683079 -2.13162821e-14,205.660949 L-2.13162821e-14,93.3617723 L62.1,93.3617723 L62.1,205.660949 L61.979006,205.727056 C62.0591019,205.954156 62.1,206.184066 62.1,206.416362 C62.1,210.699104 48.1984415,214.170952 31.05,214.170952 L31.05,214.170952 Z" id="Combined-Shape" fill="#9ABAD0"></path>
            <line x1="10.8" y1="63.6617723" x2="51.3" y2="63.6617723" id="Line-31" stroke="#979797" stroke-width="0.9"></line>
            <line x1="10.8" y1="93.3617723" x2="51.3" y2="93.3617723" id="Line-31-Copy" stroke="#979797" stroke-width="0.9"></line>
            <ellipse id="Oval-Copy" fill="#D8EFFF" cx="31.05" cy="93.3617723" rx="31.05" ry="7.75458984"></ellipse>
            <path d="M10.8,63.6617723 L51.3,63.6617723 L51.3,93.3617723 C51.3,96.1548647 42.2337662,98.4191135 31.05,98.4191135 C19.8662338,98.4191135 10.8,96.1548647 10.8,93.3617723 L10.8,93.3617723 L10.8,63.6617723 Z" id="Combined-Shape" fill="#9ABAD0"></path>
            <g id="Group" transform="translate(0.000000, 48.152593)">
                <path d="M0,7.85917969 L25.9433015,7.85896578 C27.6047193,7.79030737 29.3106581,7.75458984 31.05,7.75458984 C32.7893419,7.75458984 34.4952807,7.79030737 36.1566985,7.85896578 L62.1,7.85917969 L62.1,15.5091797 C62.1,19.7919214 48.1984415,23.2637695 31.05,23.2637695 C13.9015585,23.2637695 0,19.7919214 0,15.5091797 L0,15.5091797 L0,7.85917969 Z" id="Combined-Shape" fill="#9ABAD0"></path>
                <ellipse id="Oval-Copy-3" fill="#D8EFFF" cx="31.05" cy="7.75458984" rx="31.05" ry="7.75458984"></ellipse>
            </g>
            <ellipse id="Oval-Copy-4" fill="#EFEFEF" cx="31.0578126" cy="3.60699971" rx="14.4427163" ry="3.60699971"></ellipse>
            <g id="Combined-Shape" transform="translate(5.382107, 0.514116)">
                <mask id="mask-4" fill="white">
                    <use xlink:href="#path-3"></use>
                </mask>
                <use id="Mask" fill="#9ABAD0" xlink:href="#path-3"></use>
                <path d="M0.9,46.758704 C0.9,49.8257854 12.0430294,52.608704 25.6757055,52.608704 C39.3083816,52.608704 50.4514111,49.8257854 50.4514111,46.758704 L50.4514111,46.758704 L51.3514111,46.758704 C51.3514111,50.6504105 39.9065744,53.508704 25.6757055,53.508704 C11.4448367,53.508704 9.66338121e-13,50.6504105 9.66338121e-13,46.758704 L9.66338121e-13,46.758704 Z M2.70183611,39.6810064 C2.70183611,42.4995596 13.038156,45.0810064 25.6757055,45.0810064 C38.313255,45.0810064 48.649575,42.4995596 48.649575,39.6810064 L48.649575,39.6810064 L49.549575,39.6810064 C49.549575,43.3241847 38.9114478,45.9810064 25.6757055,45.9810064 C12.4399633,45.9810064 1.80183611,43.3241847 1.80183611,39.6810064 L1.80183611,39.6810064 Z M2.70183611,32.6033087 C2.70183611,35.421862 13.038156,39.3666504 25.6757055,39.3666504 C38.313255,39.3666504 48.649575,35.421862 48.649575,32.6033087 L48.649575,32.6033087 L49.549575,32.6033087 C49.549575,36.2464871 38.9114478,40.2666504 25.6757055,40.2666504 C12.4399633,40.2666504 1.80183611,36.2464871 1.80183611,32.6033087 L1.80183611,32.6033087 Z M2.70183611,25.5256111 C2.70183611,28.3441644 13.038156,32.3063965 25.6757055,32.3063965 C38.313255,32.3063965 48.649575,28.3441644 48.649575,25.5256111 L48.649575,25.5256111 L49.549575,25.5256111 C49.549575,29.1687894 38.9114478,33.2063965 25.6757055,33.2063965 C12.4399633,33.2063965 1.80183611,29.1687894 1.80183611,25.5256111 L1.80183611,25.5256111 Z M2.70183611,18.4479135 C2.70183611,21.2664667 13.038156,25.7238281 25.6757055,25.7238281 C38.313255,25.7238281 48.649575,21.2664667 48.649575,18.4479135 L48.649575,18.4479135 L49.549575,18.4479135 C49.549575,22.0910918 38.9114478,26.6238281 25.6757055,26.6238281 C12.4399633,26.6238281 1.80183611,22.0910918 1.80183611,18.4479135 L1.80183611,18.4479135 Z M2.70183611,11.3702159 C2.70183611,14.1887691 13.038156,18.7650879 25.6757055,18.7650879 C38.313255,18.7650879 48.649575,14.1887691 48.649575,11.3702159 L48.649575,11.3702159 L49.549575,11.3702159 C49.549575,15.0133942 38.9114478,19.6650879 25.6757055,19.6650879 C12.4399633,19.6650879 1.80183611,15.0133942 1.80183611,11.3702159 L1.80183611,11.3702159 Z M2.70183611,4.29251822 C2.70183611,7.11107147 13.0108214,12.0014648 25.6483709,12.0014648 C38.2859204,12.0014648 48.649575,7.11107147 48.649575,4.29251822 L48.649575,4.29251822 L49.549575,4.29251822 C49.549575,7.93569654 38.8841132,12.9014648 25.6483709,12.9014648 C12.4126287,12.9014648 1.80183611,7.93569654 1.80183611,4.29251822 L1.80183611,4.29251822 Z" fill="#668BA5" fill-rule="nonzero" mask="url(#mask-4)"></path>
            </g>
            <ellipse id="Oval-Copy-4" fill="#D8EFFF" cx="31.0578126" cy="3.60699971" rx="14.4427163" ry="3.60699971"></ellipse>
        </g>
        <g id="Group-4-Copy" transform="translate(150.000000, 180.645276) rotate(20.000000) translate(-150.000000, -180.645276) translate(108.150000, 150.495276)">
            <g id="Group-3" transform="translate(41.850000, 30.150000) rotate(-10.000000) translate(-41.850000, -30.150000) translate(3.600000, 6.300000)">
                <path d="M13.725,47.6163873 L13.725,0 L62.8191185,0 L62.8198353,0.0151856645 C70.1707404,0.467060416 76.05,10.9466322 76.05,23.8081936 C76.05,36.6697551 70.1707404,47.1493268 62.8198353,47.6012016 L62.8191185,47.6163873 L13.725,47.6163873 Z" id="Combined-Shape" fill="#EBDAB9"></path>
                <g id="Rectangle-Copy-4-+-Rectangle-Copy-5-Mask">
                    <mask id="mask-6" fill="white">
                        <use xlink:href="#path-5"></use>
                    </mask>
                    <use id="Mask" fill="#FFF5E2" xlink:href="#path-5"></use>
                    <g id="Rectangle-Copy-6" mask="url(#mask-6)" transform="translate(13.520595, 3.784950) scale(-1, 1) translate(-13.520595, -3.784950) ">
                        <use fill="#D6C3A0" fill-rule="evenodd" xlink:href="#path-7"></use>
                        <use fill="black" fill-opacity="1" filter="url(#filter-8)" xlink:href="#path-7"></use>
                    </g>
                    <g id="Rectangle-Copy-4" mask="url(#mask-6)" transform="translate(4.905546, 36.768184) rotate(-33.000000) translate(-4.905546, -36.768184) ">
                        <use fill="#D6C3A0" fill-rule="evenodd" xlink:href="#path-9"></use>
                        <use fill="black" fill-opacity="1" filter="url(#filter-10)" xlink:href="#path-9"></use>
                    </g>
                    <g id="Rectangle-Copy-5" mask="url(#mask-6)" transform="translate(22.693710, 36.978789) scale(-1, 1) rotate(-33.000000) translate(-22.693710, -36.978789) ">
                        <use fill="#D6C3A0" fill-rule="evenodd" xlink:href="#path-11"></use>
                        <use fill="black" fill-opacity="1" filter="url(#filter-12)" xlink:href="#path-11"></use>
                    </g>
                </g>
                <ellipse id="Oval" fill="#A59473" cx="13.725" cy="23.8081936" rx="9.59842874" ry="16.65"></ellipse>
                <ellipse id="Oval" fill="#D6C3A0" cx="8.79016113" cy="5.4273767" rx="1" ry="1.44247518"></ellipse>
                <ellipse id="Oval-Copy-16" fill="#D6C3A0" cx="17.7402832" cy="5.4273767" rx="1" ry="1.44247518"></ellipse>
                <ellipse id="Oval-Copy-17" fill="#D6C3A0" cx="22.1710693" cy="9.87705932" rx="1" ry="1.44247518"></ellipse>
                <ellipse id="Oval-Copy-18" fill="#D6C3A0" cx="24.22771" cy="16.0285242" rx="1" ry="1.44247518"></ellipse>
                <ellipse id="Oval-Copy-19" fill="#D6C3A0" cx="25.4922363" cy="22.4075248" rx="1" ry="1.44247518"></ellipse>
                <ellipse id="Oval-Copy-20" fill="#D6C3A0" cx="25.12771" cy="28.7865255" rx="1" ry="1.44247518"></ellipse>
                <ellipse id="Oval-Copy-8" fill="#D6C3A0" cx="4.87265625" cy="9.87705932" rx="1" ry="1.44247518"></ellipse>
                <ellipse id="Oval-Copy-12" fill="#D6C3A0" cx="7.89016113" cy="41.2900655" rx="1" ry="1.44247518"></ellipse>
                <ellipse id="Oval-Copy-13" fill="#D6C3A0" cx="11.3262451" cy="44.1750159" rx="1" ry="1.44247518"></ellipse>
                <ellipse id="Oval-Copy-14" fill="#D6C3A0" cx="15.4426025" cy="44.1750159" rx="1" ry="1.44247518"></ellipse>
                <ellipse id="Oval-Copy-15" fill="#D6C3A0" cx="18.8786865" cy="41.597843" rx="1" ry="1.44247518"></ellipse>
            </g>
            <ellipse id="Oval-Copy-9" fill="#D6C3A0" cx="6.45776367" cy="22.3285242" rx="1" ry="1.44247518"></ellipse>
            <ellipse id="Oval-Copy-10" fill="#D6C3A0" cx="5.55776367" cy="28.7075248" rx="1" ry="1.44247518"></ellipse>
            <ellipse id="Oval-Copy-11" fill="#D6C3A0" cx="6.00776367" cy="35.0865255" rx="1" ry="1.44247518"></ellipse>
        </g>
        <g id="Group-2" transform="translate(25.500000, 169.000000)">
            <rect id="Rectangle" fill="#4980AC" x="7.99400866" y="13.062537" width="101.011983" height="132.5" rx="3"></rect>
            <rect id="Rectangle" fill="#FFFFFF" x="14.5" y="18.9262346" width="88" height="114.125074"></rect>
            <path d="M40.2154257,10.4262346 L76.7845743,10.4262346 C80.0982828,10.4262346 82.7845743,13.1125261 82.7845743,16.4262346 L82.7845743,23.4262346 L82.7845743,23.4262346 L34.2154257,23.4262346 L34.2154257,16.4262346 C34.2154257,13.1125261 36.9017172,10.4262346 40.2154257,10.4262346 Z" id="Rectangle" fill="#ADADAD"></path>
            <circle id="Oval" stroke="#ADADAD" stroke-width="4" cx="58.5" cy="6.5312685" r="4.5312685"></circle>
            <rect id="Rectangle" fill="#DFDFDF" x="20.5" y="45.9563141" width="47.5" height="1.5" rx="0.75"></rect>
            <rect id="Rectangle-Copy-14" fill="#9A9A9A" x="38.5" y="29.6532027" width="40" height="1.5" rx="0.75"></rect>
            <rect id="Rectangle-Copy" fill="#DFDFDF" x="20.5" y="62.2594256" width="47.5" height="1.5" rx="0.75"></rect>
            <rect id="Rectangle-Copy-2" fill="#DFDFDF" x="20.5" y="78.562537" width="47.5" height="1.5" rx="0.75"></rect>
            <rect id="Rectangle-Copy-3" fill="#DFDFDF" x="20.5" y="94.8656484" width="47.5" height="1.5" rx="0.75"></rect>
            <rect id="Rectangle-Copy-4" fill="#DFDFDF" x="20.5" y="111.16876" width="47.5" height="1.5" rx="0.75"></rect>
            <rect id="Rectangle-Copy-5" stroke="#DFDFDF" x="89.6234415" y="42.564027" width="8.28457427" height="8.28457427"></rect>
            <rect id="Rectangle-Copy-7" stroke="#DFDFDF" x="89.6234415" y="58.8671384" width="8.28457427" height="8.28457427"></rect>
            <rect id="Rectangle-Copy-9" stroke="#DFDFDF" x="89.6234415" y="75.1702499" width="8.28457427" height="8.28457427"></rect>
            <rect id="Rectangle-Copy-11" stroke="#DFDFDF" x="89.6234415" y="91.4733613" width="8.28457427" height="8.28457427"></rect>
            <rect id="Rectangle-Copy-13" stroke="#DFDFDF" x="89.6234415" y="107.776473" width="8.28457427" height="8.28457427"></rect>
            <polyline id="Path-6" stroke="#46BD8D" stroke-width="2" stroke-linecap="round" stroke-linejoin="round" points="74.9948191 48.1083865 77.0979276 50.2114951 82.0051809 43.2011332"></polyline>
            <polyline id="Path-6-Copy" stroke="#46BD8D" stroke-width="2" stroke-linecap="round" stroke-linejoin="round" points="74.9948191 64.411498 77.0979276 66.5146065 82.0051809 59.5042446"></polyline>
            <polyline id="Path-6-Copy-2" stroke="#46BD8D" stroke-width="2" stroke-linecap="round" stroke-linejoin="round" points="74.9948191 80.7146094 77.0979276 82.8177179 82.0051809 75.8073561"></polyline>
            <polyline id="Path-6-Copy-3" stroke="#46BD8D" stroke-width="2" stroke-linecap="round" stroke-linejoin="round" points="74.9948191 97.0177208 77.0979276 99.1208294 82.0051809 92.1104675"></polyline>
            <polyline id="Path-6-Copy-4" stroke="#46BD8D" stroke-width="2" stroke-linecap="round" stroke-linejoin="round" points="74.9948191 113.320832 77.0979276 115.423941 82.0051809 108.413579"></polyline>
            <path d="M11.3869581,91.4937433 L12,83.562537 L12,83.562537 C12,81.2153268 13.9027898,79.312537 16.25,79.312537 C18.5972102,79.312537 20.5,81.2153268 20.5,83.562537 C20.1409322,87.5948907 20.1409322,92.074045 20.5,97 C21.0386017,104.388932 23,109.905453 23,114 C23,114.187721 22.5050773,116.318129 22.5,116.5 C22.2734735,124.614286 17.0223057,122 10,122 C5.81133821,122 3.02674887,124.018316 1.5,119.5 C0.409779035,116.27356 1.13686838e-13,107.067307 1.13686838e-13,103.5 C1.13686838e-13,101.317251 0.459780108,96.1973351 1.37934032,88.1402528 C2.44369114,83.1225989 4.71630375,78.4404355 8,74.5 L8,82.3304823 C8,85.3699702 8.46190912,88.3918083 9.36990752,91.2925024 L9.5,91.7080961 C9.6595409,92.2177659 10.2020433,92.5016014 10.7117131,92.3420605 C11.0890657,92.2239386 11.356486,91.8879758 11.3869581,91.4937433 Z" id="Path" fill="#FFE1A6"></path>
            <rect id="Rectangle" fill="#FFFFFF" x="1.13686838e-13" y="114" width="24" height="8"></rect>
            <rect id="Rectangle-Copy-6" fill="#FFB116" x="5.68434189e-14" y="122" width="24" height="9"></rect>
        </g>
        <g id="Group-4" transform="translate(106.638044, 35.000000)">
            <g id="Group-3" transform="translate(46.500000, 33.500000) rotate(-10.000000) translate(-46.500000, -33.500000) translate(4.000000, 7.000000)">
                <path d="M15.25,52.907097 L15.25,0 L69.7990206,0 L69.7994954,0.0168531988 C77.9673178,0.518650395 84.5,12.1627371 84.5,26.4535485 C84.5,40.7443598 77.9673178,52.3884466 69.7994954,52.8902438 L69.7990206,52.907097 L15.25,52.907097 Z" id="Combined-Shape" fill="#EBDAB9"></path>
                <g id="Rectangle-Copy-4-+-Rectangle-Copy-5-Mask">
                    <mask id="mask-14" fill="white">
                        <use xlink:href="#path-13"></use>
                    </mask>
                    <use id="Mask" fill="#FFF5E2" xlink:href="#path-13"></use>
                    <g id="Rectangle-Copy-6" mask="url(#mask-14)" transform="translate(15.022883, 4.205500) scale(-1, 1) translate(-15.022883, -4.205500) ">
                        <use fill="#D6C3A0" fill-rule="evenodd" xlink:href="#path-15"></use>
                        <use fill="black" fill-opacity="1" filter="url(#filter-16)" xlink:href="#path-15"></use>
                    </g>
                    <g id="Rectangle-Copy-4" mask="url(#mask-14)" transform="translate(5.450607, 40.853537) rotate(-33.000000) translate(-5.450607, -40.853537) ">
                        <use fill="#D6C3A0" fill-rule="evenodd" xlink:href="#path-17"></use>
                        <use fill="black" fill-opacity="1" filter="url(#filter-18)" xlink:href="#path-17"></use>
                    </g>
                    <g id="Rectangle-Copy-5" mask="url(#mask-14)" transform="translate(25.215233, 41.087543) scale(-1, 1) rotate(-33.000000) translate(-25.215233, -41.087543) ">
                        <use fill="#D6C3A0" fill-rule="evenodd" xlink:href="#path-19"></use>
                        <use fill="black" fill-opacity="1" filter="url(#filter-20)" xlink:href="#path-19"></use>
                    </g>
                </g>
                <ellipse id="Oval" fill="#A59473" cx="15.25" cy="26.4535485" rx="10.6649208" ry="18.5"></ellipse>
                <ellipse id="Oval" fill="#D6C3A0" cx="9.7668457" cy="6.03041856" rx="1" ry="1.6027502"></ellipse>
                <ellipse id="Oval-Copy-16" fill="#D6C3A0" cx="19.7114258" cy="6.03041856" rx="1" ry="1.6027502"></ellipse>
                <ellipse id="Oval-Copy-17" fill="#D6C3A0" cx="24.6345215" cy="10.9745104" rx="1" ry="1.6027502"></ellipse>
                <ellipse id="Oval-Copy-18" fill="#D6C3A0" cx="26.9196777" cy="17.8094713" rx="1" ry="1.6027502"></ellipse>
                <ellipse id="Oval-Copy-19" fill="#D6C3A0" cx="28.324707" cy="24.8972498" rx="1" ry="1.6027502"></ellipse>
                <ellipse id="Oval-Copy-20" fill="#D6C3A0" cx="27.9196777" cy="31.9850283" rx="1" ry="1.6027502"></ellipse>
                <ellipse id="Oval-Copy-8" fill="#D6C3A0" cx="5.4140625" cy="10.9745104" rx="1" ry="1.6027502"></ellipse>
                <ellipse id="Oval-Copy-12" fill="#D6C3A0" cx="8.7668457" cy="45.8778506" rx="1" ry="1.6027502"></ellipse>
                <ellipse id="Oval-Copy-13" fill="#D6C3A0" cx="12.5847168" cy="49.083351" rx="1" ry="1.6027502"></ellipse>
                <ellipse id="Oval-Copy-14" fill="#D6C3A0" cx="17.1584473" cy="49.083351" rx="1" ry="1.6027502"></ellipse>
                <ellipse id="Oval-Copy-15" fill="#D6C3A0" cx="20.9763184" cy="46.2198256" rx="1" ry="1.6027502"></ellipse>
            </g>
            <ellipse id="Oval-Copy-9" fill="#D6C3A0" cx="7.17529297" cy="24.8094713" rx="1" ry="1.6027502"></ellipse>
            <ellipse id="Oval-Copy-10" fill="#D6C3A0" cx="6.17529297" cy="31.8972498" rx="1" ry="1.6027502"></ellipse>
            <ellipse id="Oval-Copy-11" fill="#D6C3A0" cx="6.67529297" cy="38.9850283" rx="1" ry="1.6027502"></ellipse>
        </g>
        <g id="Group-5" transform="translate(223.000000, 7.000000)">
            <path d="M5.1277704,-2.07168062e-16 L64.8722296,2.07168062e-16 C66.6552671,-1.2037061e-16 67.3018396,0.185651222 67.9536914,0.534265408 C68.6055433,0.882879593 69.1171204,1.39445674 69.4657346,2.04630859 C69.8143488,2.69816044 70,3.34473292 70,5.1277704 L70,64.8722296 C70,66.6552671 69.8143488,67.3018396 69.4657346,67.9536914 C69.1171204,68.6055433 68.6055433,69.1171204 67.9536914,69.4657346 C67.3018396,69.8143488 66.6552671,70 64.8722296,70 L5.1277704,70 C3.34473292,70 2.69816044,69.8143488 2.04630859,69.4657346 C1.39445674,69.1171204 0.882879593,68.6055433 0.534265408,67.9536914 C0.185651222,67.3018396 8.02470732e-17,66.6552671 -1.38112041e-16,64.8722296 L1.38112041e-16,5.1277704 C-8.02470732e-17,3.34473292 0.185651222,2.69816044 0.534265408,2.04630859 C0.882879593,1.39445674 1.39445674,0.882879593 2.04630859,0.534265408 C2.69816044,0.185651222 3.34473292,1.2037061e-16 5.1277704,-2.07168062e-16 Z" id="Rectangle" fill="#46BD8D"></path>
            <g id="Group-5-Copy" transform="translate(17.000000, 16.000000)" fill="#FFFFFF">
                <path d="M17.7140791,7.10542736e-14 C27.4972948,7.10542736e-14 35.4281581,7.93086334 35.4281581,17.7140791 C35.4281581,27.4972948 27.4972948,35.4281581 17.7140791,35.4281581 C7.93086334,35.4281581 -5.68434189e-14,27.4972948 -5.68434189e-14,17.7140791 C-5.68434189e-14,7.93086334 7.93086334,7.10542736e-14 17.7140791,7.10542736e-14 Z M22.6147322,11.3056636 L15.5569628,20.2882792 L12.5394248,17.7736642 C11.7439056,17.1107315 10.5615968,17.2182141 9.89866416,18.0137333 C9.23573151,18.8092525 9.34321413,19.9915613 10.1387333,20.654494 L14.6387333,24.404494 C15.4504842,25.080953 16.6605969,24.9533679 17.3134259,24.1224945 L25.5634259,13.6224945 C26.2032011,12.8082352 26.0617538,11.6295073 25.2474945,10.9897322 C24.4332352,10.349957 23.2545073,10.4914043 22.6147322,11.3056636 Z" id="Combined-Shape"></path>
            </g>
        </g>
    </g>
</svg>