<?xml version="1.0" encoding="UTF-8"?>
<svg width="300px" height="300px" viewBox="0 0 300 300" version="1.1" xmlns="http://www.w3.org/2000/svg" xmlns:xlink="http://www.w3.org/1999/xlink">
    <title>Tubo interior</title>
    <defs>
        <path d="M74,0 L84,0 L84,20 L85,25.0024414 L73,25.0024414 L74,20 L74,0 Z" id="path-1"></path>
        <filter x="-12.5%" y="-6.0%" width="125.0%" height="112.0%" filterUnits="objectBoundingBox" id="filter-2">
            <feOffset dx="3" dy="-1" in="SourceAlpha" result="shadowOffsetInner1"></feOffset>
            <feComposite in="shadowOffsetInner1" in2="SourceAlpha" operator="arithmetic" k2="-1" k3="1" result="shadowInnerInner1"></feComposite>
            <feColorMatrix values="0 0 0 0 0.452818882   0 0 0 0 0.509599488   0 0 0 0 0.550894475  0 0 0 1 0" type="matrix" in="shadowInnerInner1"></feColorMatrix>
        </filter>
        <path d="M150,262.247803 L59,262.247803 C46.8497355,262.247803 37,252.398067 37,240.247803 C37,228.097538 46.8497355,218.247803 59,218.247803 L150,218.247803 L150,212.247803 L59,212.247803 C43.536027,212.247803 31,224.78383 31,240.247803 C31,255.711776 43.536027,268.247803 59,268.247803 L150,268.247803 L150,262.247803 Z" id="path-3"></path>
        <filter x="-0.4%" y="-0.9%" width="100.8%" height="101.8%" filterUnits="objectBoundingBox" id="filter-4">
            <feOffset dx="-1" dy="-1" in="SourceAlpha" result="shadowOffsetInner1"></feOffset>
            <feComposite in="shadowOffsetInner1" in2="SourceAlpha" operator="arithmetic" k2="-1" k3="1" result="shadowInnerInner1"></feComposite>
            <feColorMatrix values="0 0 0 0 0   0 0 0 0 0   0 0 0 0 0  0 0 0 0.5 0" type="matrix" in="shadowInnerInner1"></feColorMatrix>
        </filter>
        <path d="M74,41.6904297 L74,41.6904297 L74,41.6904297 L84,41.6904297 C85.2735733,42.8427399 86.000819,44.4796356 86.002255,46.1971354 L86.0463867,98.9824219 L86.0463867,98.9824219 L71.9536133,98.9824219 L71.997745,46.1971354 C71.999181,44.4796356 72.7264267,42.8427399 74,41.6904297 Z" id="path-5"></path>
        <filter x="-10.6%" y="-2.6%" width="121.3%" height="105.2%" filterUnits="objectBoundingBox" id="filter-6">
            <feOffset dx="3" dy="-1" in="SourceAlpha" result="shadowOffsetInner1"></feOffset>
            <feComposite in="shadowOffsetInner1" in2="SourceAlpha" operator="arithmetic" k2="-1" k3="1" result="shadowInnerInner1"></feComposite>
            <feColorMatrix values="0 0 0 0 0.452818882   0 0 0 0 0.509599488   0 0 0 0 0.550894475  0 0 0 1 0" type="matrix" in="shadowInnerInner1"></feColorMatrix>
        </filter>
        <path d="M70.994409,100.375435 L72.0201939,98.9824219 L72.0201939,98.9824219 L85.9608852,98.9824219 L86.9877157,100.372124 C88.1317029,101.920384 88.7491144,103.794658 88.7492831,105.719708 L88.7584839,210.755859 L88.7584839,210.755859 L69.2415161,210.755859 L69.2415161,105.712048 C69.2415161,103.791725 69.8557399,101.921745 70.994409,100.375435 Z" id="path-7"></path>
        <filter x="-7.7%" y="-1.3%" width="115.4%" height="102.7%" filterUnits="objectBoundingBox" id="filter-8">
            <feOffset dx="3" dy="0" in="SourceAlpha" result="shadowOffsetInner1"></feOffset>
            <feComposite in="shadowOffsetInner1" in2="SourceAlpha" operator="arithmetic" k2="-1" k3="1" result="shadowInnerInner1"></feComposite>
            <feColorMatrix values="0 0 0 0 0.450980392   0 0 0 0 0.509803922   0 0 0 0 0.549019608  0 0 0 1 0" type="matrix" in="shadowInnerInner1"></feColorMatrix>
        </filter>
        <polygon id="path-9" points="74 36.6879883 84 36.6879883 85 41.6904297 73 41.6904297"></polygon>
        <filter x="-12.5%" y="-30.0%" width="125.0%" height="160.0%" filterUnits="objectBoundingBox" id="filter-10">
            <feOffset dx="3" dy="-1" in="SourceAlpha" result="shadowOffsetInner1"></feOffset>
            <feComposite in="shadowOffsetInner1" in2="SourceAlpha" operator="arithmetic" k2="-1" k3="1" result="shadowInnerInner1"></feComposite>
            <feColorMatrix values="0 0 0 0 0.452818882   0 0 0 0 0.509599488   0 0 0 0 0.550894475  0 0 0 1 0" type="matrix" in="shadowInnerInner1"></feColorMatrix>
        </filter>
        <polygon id="path-11" points="150 -3.35134134 266.667812 326.519153 277.038306 322.851341 160.370495 -7.01915317"></polygon>
        <filter x="-1.2%" y="-0.4%" width="102.4%" height="100.9%" filterUnits="objectBoundingBox" id="filter-12">
            <feOffset dx="3" dy="1" in="SourceAlpha" result="shadowOffsetInner1"></feOffset>
            <feComposite in="shadowOffsetInner1" in2="SourceAlpha" operator="arithmetic" k2="-1" k3="1" result="shadowInnerInner1"></feComposite>
            <feColorMatrix values="0 0 0 0 0.941176471   0 0 0 0 0.964705882   0 0 0 0 0.984313725  0 0 0 1 0" type="matrix" in="shadowInnerInner1"></feColorMatrix>
        </filter>
        <rect id="path-13" x="70.4597168" y="210.755859" width="17.0805664" height="3.20800781"></rect>
        <filter x="-5.9%" y="-31.2%" width="111.7%" height="162.3%" filterUnits="objectBoundingBox" id="filter-14">
            <feOffset dx="2" dy="-1" in="SourceAlpha" result="shadowOffsetInner1"></feOffset>
            <feComposite in="shadowOffsetInner1" in2="SourceAlpha" operator="arithmetic" k2="-1" k3="1" result="shadowInnerInner1"></feComposite>
            <feColorMatrix values="0 0 0 0 0.450980392   0 0 0 0 0.509803922   0 0 0 0 0.549019608  0 0 0 1 0" type="matrix" in="shadowInnerInner1"></feColorMatrix>
        </filter>
        <path d="M70.2415161,213.963867 L87.7584839,213.963867 C88.3107686,213.963867 88.7584839,214.411582 88.7584839,214.963867 L88.7584839,219.208008 L88.7584839,219.208008 L69.2415161,219.208008 L69.2415161,214.963867 C69.2415161,214.411582 69.6892314,213.963867 70.2415161,213.963867 Z" id="path-15"></path>
        <filter x="-5.1%" y="-19.1%" width="110.2%" height="138.1%" filterUnits="objectBoundingBox" id="filter-16">
            <feOffset dx="2" dy="-1" in="SourceAlpha" result="shadowOffsetInner1"></feOffset>
            <feComposite in="shadowOffsetInner1" in2="SourceAlpha" operator="arithmetic" k2="-1" k3="1" result="shadowInnerInner1"></feComposite>
            <feColorMatrix values="0 0 0 0 0.450980392   0 0 0 0 0.509803922   0 0 0 0 0.549019608  0 0 0 1 0" type="matrix" in="shadowInnerInner1"></feColorMatrix>
        </filter>
        <rect id="path-17" x="69.2415161" y="107" width="19.5169678" height="103.5"></rect>
        <filter x="-7.7%" y="-1.4%" width="115.4%" height="102.9%" filterUnits="objectBoundingBox" id="filter-18">
            <feOffset dx="3" dy="0" in="SourceAlpha" result="shadowOffsetInner1"></feOffset>
            <feComposite in="shadowOffsetInner1" in2="SourceAlpha" operator="arithmetic" k2="-1" k3="1" result="shadowInnerInner1"></feComposite>
            <feColorMatrix values="0 0 0 0 0.860931839   0 0 0 0 0.613477443   0 0 0 0 0.121741143  0 0 0 1 0" type="matrix" in="shadowInnerInner1"></feColorMatrix>
        </filter>
        <path d="M69,219.208008 L89,219.208008 C90.1045695,219.208008 91,220.103438 91,221.208008 L91,231.637207 L91,231.637207 L67,231.637207 L67,221.208008 C67,220.103438 67.8954305,219.208008 69,219.208008 Z" id="path-19"></path>
        <filter x="-6.2%" y="-12.1%" width="112.5%" height="124.1%" filterUnits="objectBoundingBox" id="filter-20">
            <feOffset dx="3" dy="0" in="SourceAlpha" result="shadowOffsetInner1"></feOffset>
            <feComposite in="shadowOffsetInner1" in2="SourceAlpha" operator="arithmetic" k2="-1" k3="1" result="shadowInnerInner1"></feComposite>
            <feColorMatrix values="0 0 0 0 0.450980392   0 0 0 0 0.509803922   0 0 0 0 0.549019608  0 0 0 1 0" type="matrix" in="shadowInnerInner1"></feColorMatrix>
        </filter>
        <path d="M66.7905273,231.637207 L91.2094727,231.637207 C91.7617574,231.637207 92.2094727,232.084922 92.2094727,232.637207 L92.2094727,244.066406 L92.2094727,244.066406 L65.7905273,244.066406 L65.7905273,232.637207 C65.7905273,232.084922 66.2382426,231.637207 66.7905273,231.637207 Z" id="path-21"></path>
        <filter x="-5.7%" y="-12.1%" width="111.4%" height="124.1%" filterUnits="objectBoundingBox" id="filter-22">
            <feOffset dx="3" dy="0" in="SourceAlpha" result="shadowOffsetInner1"></feOffset>
            <feComposite in="shadowOffsetInner1" in2="SourceAlpha" operator="arithmetic" k2="-1" k3="1" result="shadowInnerInner1"></feComposite>
            <feColorMatrix values="0 0 0 0 0.857733243   0 0 0 0 0.267567662   0 0 0 0 0.267567662  0 0 0 1 0" type="matrix" in="shadowInnerInner1"></feColorMatrix>
        </filter>
        <path d="M88.7584839,267.350098 L88.7584839,300 L69.2415161,300 L69.2415161,267.350098 L67.3293443,265.223952 C66.3386491,264.122397 65.7905273,262.693259 65.7905273,261.21174 L65.7905273,253 L65.7905273,253 L92.2094727,253 L92.2094727,261.21174 C92.2094727,262.693259 91.6613509,264.122397 90.6706557,265.223952 L88.7584839,267.350098 L88.7584839,267.350098 Z" id="path-23"></path>
        <filter x="-7.6%" y="-4.3%" width="115.1%" height="108.5%" filterUnits="objectBoundingBox" id="filter-24">
            <feOffset dx="4" dy="0" in="SourceAlpha" result="shadowOffsetInner1"></feOffset>
            <feComposite in="shadowOffsetInner1" in2="SourceAlpha" operator="arithmetic" k2="-1" k3="1" result="shadowInnerInner1"></feComposite>
            <feColorMatrix values="0 0 0 0 0.450980392   0 0 0 0 0.509803922   0 0 0 0 0.549019608  0 0 0 1 0" type="matrix" in="shadowInnerInner1"></feColorMatrix>
        </filter>
        <polygon id="path-25" points="190.892652 -3.35134134 307.560464 326.519153 317.930959 322.851341 201.263147 -7.01915317"></polygon>
        <filter x="-1.2%" y="-0.4%" width="102.4%" height="100.9%" filterUnits="objectBoundingBox" id="filter-26">
            <feOffset dx="3" dy="1" in="SourceAlpha" result="shadowOffsetInner1"></feOffset>
            <feComposite in="shadowOffsetInner1" in2="SourceAlpha" operator="arithmetic" k2="-1" k3="1" result="shadowInnerInner1"></feComposite>
            <feColorMatrix values="0 0 0 0 0.941176471   0 0 0 0 0.964705882   0 0 0 0 0.984313725  0 0 0 1 0" type="matrix" in="shadowInnerInner1"></feColorMatrix>
        </filter>
        <circle id="path-27" cx="140.75" cy="119.75" r="1.75"></circle>
        <filter x="-8.6%" y="-8.6%" width="117.1%" height="134.3%" filterUnits="objectBoundingBox" id="filter-28">
            <feOffset dx="0" dy="0.6" in="SourceAlpha" result="shadowOffsetOuter1"></feOffset>
            <feColorMatrix values="0 0 0 0 0   0 0 0 0 0   0 0 0 0 0  0 0 0 0.5 0" type="matrix" in="shadowOffsetOuter1"></feColorMatrix>
        </filter>
        <circle id="path-29" cx="140.75" cy="141.116211" r="1.75"></circle>
        <filter x="-8.6%" y="-8.6%" width="117.1%" height="134.3%" filterUnits="objectBoundingBox" id="filter-30">
            <feOffset dx="0" dy="0.6" in="SourceAlpha" result="shadowOffsetOuter1"></feOffset>
            <feColorMatrix values="0 0 0 0 0   0 0 0 0 0   0 0 0 0 0  0 0 0 0.5 0" type="matrix" in="shadowOffsetOuter1"></feColorMatrix>
        </filter>
        <circle id="path-31" cx="140.75" cy="164.25" r="1.75"></circle>
        <filter x="-8.6%" y="-8.6%" width="117.1%" height="134.3%" filterUnits="objectBoundingBox" id="filter-32">
            <feOffset dx="0" dy="0.6" in="SourceAlpha" result="shadowOffsetOuter1"></feOffset>
            <feColorMatrix values="0 0 0 0 0   0 0 0 0 0   0 0 0 0 0  0 0 0 0.5 0" type="matrix" in="shadowOffsetOuter1"></feColorMatrix>
        </filter>
        <circle id="path-33" cx="140.75" cy="190.75" r="1.75"></circle>
        <filter x="-8.6%" y="-8.6%" width="117.1%" height="134.3%" filterUnits="objectBoundingBox" id="filter-34">
            <feOffset dx="0" dy="0.6" in="SourceAlpha" result="shadowOffsetOuter1"></feOffset>
            <feColorMatrix values="0 0 0 0 0   0 0 0 0 0   0 0 0 0 0  0 0 0 0.5 0" type="matrix" in="shadowOffsetOuter1"></feColorMatrix>
        </filter>
        <circle id="path-35" cx="140.75" cy="214.109863" r="1.75"></circle>
        <filter x="-8.6%" y="-8.6%" width="117.1%" height="134.3%" filterUnits="objectBoundingBox" id="filter-36">
            <feOffset dx="0" dy="0.6" in="SourceAlpha" result="shadowOffsetOuter1"></feOffset>
            <feColorMatrix values="0 0 0 0 0   0 0 0 0 0   0 0 0 0 0  0 0 0 0.5 0" type="matrix" in="shadowOffsetOuter1"></feColorMatrix>
        </filter>
        <circle id="path-37" cx="140.75" cy="241.997803" r="1.75"></circle>
        <filter x="-8.6%" y="-8.6%" width="117.1%" height="134.3%" filterUnits="objectBoundingBox" id="filter-38">
            <feOffset dx="0" dy="0.6" in="SourceAlpha" result="shadowOffsetOuter1"></feOffset>
            <feColorMatrix values="0 0 0 0 0   0 0 0 0 0   0 0 0 0 0  0 0 0 0.5 0" type="matrix" in="shadowOffsetOuter1"></feColorMatrix>
        </filter>
    </defs>
    <g id="Tubo-interior" stroke="none" stroke-width="1" fill="none" fill-rule="evenodd">
        <rect fill="#2C3740" x="0" y="0" width="300" height="300"></rect>
        <path d="M69,48.9824219 C75.1472162,48.9824219 80.2978974,53.2490953 81.6521713,58.9825699 L93,58.9824219 C100.179702,58.9824219 106,64.8027201 106,71.9824219 L123,71.9824219 C130.179702,71.9824219 136,77.8027201 136,84.9824219 C136,92.1621236 130.179702,97.9824219 123,97.9824219 L13,97.9824219 C5.82029825,97.9824219 8.79259876e-16,92.1621236 0,84.9824219 C-8.79259876e-16,77.8027201 5.82029825,71.9824219 13,71.9824219 L17,71.9824219 L17,71.9824219 C17,64.8027201 22.8202983,58.9824219 30,58.9824219 L40.3478287,58.9825699 C41.7021026,53.2490953 46.8527838,48.9824219 53,48.9824219 L69,48.9824219 Z" id="Combined-Shape" fill="#425360"></path>
        <path d="M221.120123,138 C227.267339,138 232.41802,142.266673 233.772294,148.000148 L258.120123,148 C265.299825,148 271.120123,153.820298 271.120123,161 L306.120123,161 C313.299825,161 319.120123,166.820298 319.120123,174 C319.120123,181.179702 313.299825,187 306.120123,187 L116.120123,187 C108.940421,187 103.120123,181.179702 103.120123,174 C103.120123,166.820298 108.940421,161 116.120123,161 L130.120123,161 L130.120123,161 C130.120123,153.820298 135.940421,148 143.120123,148 L167.467952,148.000148 C168.822226,142.266673 173.972907,138 180.120123,138 L221.120123,138 Z" id="Combined-Shape-Copy" fill="#425360" transform="translate(211.120123, 162.500000) scale(-1, 1) translate(-211.120123, -162.500000) "></path>
        <g id="Combined-Shape">
            <use fill="#919CA4" fill-rule="evenodd" xlink:href="#path-1"></use>
            <use fill="black" fill-opacity="1" filter="url(#filter-2)" xlink:href="#path-1"></use>
        </g>
        <g id="Path" fill-rule="nonzero">
            <use fill="#7C8B96" xlink:href="#path-3"></use>
            <use fill="black" fill-opacity="1" filter="url(#filter-4)" xlink:href="#path-3"></use>
        </g>
        <g id="Path">
            <use fill="#919CA4" fill-rule="evenodd" xlink:href="#path-5"></use>
            <use fill="black" fill-opacity="1" filter="url(#filter-6)" xlink:href="#path-5"></use>
        </g>
        <g id="Path">
            <use fill="#919CA4" fill-rule="evenodd" xlink:href="#path-7"></use>
            <use fill="black" fill-opacity="1" filter="url(#filter-8)" xlink:href="#path-7"></use>
        </g>
        <g id="Rectangle-Copy-2" transform="translate(79.000000, 39.189209) scale(1, -1) translate(-79.000000, -39.189209) ">
            <use fill="#919CA4" fill-rule="evenodd" xlink:href="#path-9"></use>
            <use fill="black" fill-opacity="1" filter="url(#filter-10)" xlink:href="#path-9"></use>
        </g>
        <rect id="Rectangle" fill="#FF6060" x="73" y="25.0024414" width="12" height="11.6855469"></rect>
        <polyline id="Shape" stroke="#FF6060" points="85 27.5197754 87.0927734 27.5197754 87.0927734 34.1706543 85 34.1706543"></polyline>
        <polyline id="Shape-Copy" stroke="#FF6060" transform="translate(71.953613, 30.845215) scale(-1, 1) translate(-71.953613, -30.845215) " points="70.9072266 27.5197754 73 27.5197754 73 34.1706543 70.9072266 34.1706543"></polyline>
        <g id="Line-35-Copy" fill-rule="nonzero">
            <use fill="#D4E0EA" xlink:href="#path-11"></use>
            <use fill="black" fill-opacity="1" filter="url(#filter-12)" xlink:href="#path-11"></use>
        </g>
        <g id="Rectangle">
            <use fill="#919CA4" fill-rule="evenodd" xlink:href="#path-13"></use>
            <use fill="black" fill-opacity="1" filter="url(#filter-14)" xlink:href="#path-13"></use>
        </g>
        <g id="Rectangle-Copy-8">
            <use fill="#919CA4" fill-rule="evenodd" xlink:href="#path-15"></use>
            <use fill="black" fill-opacity="1" filter="url(#filter-16)" xlink:href="#path-15"></use>
        </g>
        <g id="Rectangle">
            <use fill="#FFB116" fill-rule="evenodd" xlink:href="#path-17"></use>
            <use fill="black" fill-opacity="1" filter="url(#filter-18)" xlink:href="#path-17"></use>
        </g>
        <line x1="74.5" y1="41.6904297" x2="83.5" y2="41.6904297" id="Line-33" stroke="#76848E" stroke-linecap="square"></line>
        <line x1="74" y1="19.6726074" x2="84" y2="19.6726074" id="Line-33-Copy" stroke="#76848E"></line>
        <rect id="Rectangle" fill="#C73D3D" x="78" y="27.5197754" width="1" height="6.65087891"></rect>
        <g id="Rectangle">
            <use fill="#919CA4" fill-rule="evenodd" xlink:href="#path-19"></use>
            <use fill="black" fill-opacity="1" filter="url(#filter-20)" xlink:href="#path-19"></use>
        </g>
        <g id="Rectangle-Copy-3">
            <use fill="#FF6060" fill-rule="evenodd" xlink:href="#path-21"></use>
            <use fill="black" fill-opacity="1" filter="url(#filter-22)" xlink:href="#path-21"></use>
        </g>
        <rect id="Rectangle" fill="#919CA4" x="68.6207581" y="244.066406" width="20.7584839" height="2.93359375"></rect>
        <rect id="Rectangle" fill="#73828C" x="68.6207581" y="244.066406" width="10.3792419" height="2.93359375"></rect>
        <rect id="Rectangle" fill="#FF9292" x="74.9287872" y="236.38501" width="8.14242554" height="2.93359375"></rect>
        <rect id="Rectangle" fill="#919CA4" x="71.25" y="247" width="15.5" height="6"></rect>
        <rect id="Rectangle-Copy-4" fill="#73828C" x="71.25" y="247" width="8.14242554" height="6"></rect>
        <line x1="71.25" y1="247.487061" x2="86.75" y2="247.487061" id="Line-34" stroke="#5C6C76"></line>
        <line x1="71.25" y1="252.512939" x2="86.75" y2="252.512939" id="Line-34-Copy" stroke="#5C6C76"></line>
        <g id="Path">
            <use fill="#919CA4" fill-rule="evenodd" xlink:href="#path-23"></use>
            <use fill="black" fill-opacity="1" filter="url(#filter-24)" xlink:href="#path-23"></use>
        </g>
        <path d="M108.25,112 L163.75,112 C165.406854,112 166.75,113.343146 166.75,115 L166.75,288 L166.75,288 L105.25,288 L105.25,115 C105.25,113.343146 106.593146,112 108.25,112 Z" id="Rectangle-Copy-7" fill="#627686"></path>
        <path d="M136.5,112 L192,112 C193.656854,112 195,113.343146 195,115 L195,288 L195,288 L133.5,288 L133.5,115 C133.5,113.343146 134.843146,112 136.5,112 Z" id="Rectangle" fill="#D4E0EA"></path>
        <path d="M155.5,-64 L186,-64 L186,-64 L186,112 L142.5,112 L142.5,-51 C142.5,-58.1797017 148.320298,-64 155.5,-64 Z" id="Rectangle-Copy-5" fill="#D4E0EA"></path>
        <g id="Line-35" fill-rule="nonzero">
            <use fill="#D4E0EA" xlink:href="#path-25"></use>
            <use fill="black" fill-opacity="1" filter="url(#filter-26)" xlink:href="#path-25"></use>
        </g>
        <rect id="Rectangle" fill="#B2C0CB" x="142.5" y="108.621582" width="43.5" height="3.37841797"></rect>
        <path d="M116.5,277 L133.5,277 L133.5,277 L133.5,288 L109.5,288 L109.5,284 C109.5,280.134007 112.634007,277 116.5,277 Z" id="Rectangle" fill="#C5D9E8"></path>
        <g id="Oval">
            <use fill="black" fill-opacity="1" filter="url(#filter-28)" xlink:href="#path-27"></use>
            <use fill="#F2F6F9" fill-rule="evenodd" xlink:href="#path-27"></use>
        </g>
        <g id="Oval-Copy">
            <use fill="black" fill-opacity="1" filter="url(#filter-30)" xlink:href="#path-29"></use>
            <use fill="#F2F6F9" fill-rule="evenodd" xlink:href="#path-29"></use>
        </g>
        <g id="Oval-Copy-2">
            <use fill="black" fill-opacity="1" filter="url(#filter-32)" xlink:href="#path-31"></use>
            <use fill="#F2F6F9" fill-rule="evenodd" xlink:href="#path-31"></use>
        </g>
        <path d="M86.1444068,29.3466373 C86.7155575,28.8673849 87.5670776,28.9418832 88.04633,29.513034 L88.04633,29.513034 L90.4849333,32.4197659 L91.1992569,32.2938213 C92.2073097,32.1160744 92.822118,32.1288015 93.484598,32.3458214 C94.1174766,32.5531443 94.6607447,32.9335448 95.0720217,33.4573475 C95.5025353,34.0056499 95.7247717,34.5790278 95.9025186,35.5870806 L96.5790111,39.4236602 C96.756758,40.431713 96.7440309,41.0465213 96.5270109,41.7090014 C96.3196881,42.3418799 95.9392876,42.8851481 95.4154849,43.296425 C94.8671825,43.7269386 94.2938046,43.949175 93.2857518,44.1269219 L93.2489333,44.1327659 L92.9498457,45.8338931 C93.0721577,45.8601679 93.1933004,45.8933719 93.3160804,45.9335931 C93.948959,46.140916 94.4922271,46.5213164 94.9035041,47.0451191 C95.3340177,47.5934215 95.5562541,48.1667994 95.734001,49.1748522 L96.4104935,53.0114318 C96.5882404,54.0194847 96.5755133,54.6342929 96.3584933,55.296773 C96.1511705,55.9296515 95.77077,56.4729197 95.2469673,56.8841967 C94.8635731,57.1852284 94.4679186,57.3844262 93.9199693,57.5377861 L94.1906055,59.0681248 C94.7575822,59.024934 95.1973131,59.0768191 95.6603308,59.2284977 C96.2932094,59.4358206 96.8364775,59.8162211 97.2477545,60.3400238 C97.6782681,60.8883262 97.9005045,61.4617041 98.0782514,62.4697569 L98.7547439,66.3063365 C98.9324908,67.3143893 98.9197637,67.9291976 98.7027437,68.5916777 C98.4954209,69.2245562 98.1150204,69.7678244 97.5912177,70.1791013 C97.1843977,70.4985264 96.7637735,70.703293 96.1620412,70.8603015 L96.6949333,74.2337659 L96.7232713,74.2340059 C97.600104,74.2528054 98.1539668,74.3781593 98.7174697,74.6795239 C99.3047321,74.9935953 99.7736909,75.4625541 100.087762,76.0498166 C100.416524,76.664547 100.535818,77.2678049 100.535818,78.2914085 L100.535818,82.1871736 C100.535818,83.2107772 100.416524,83.8140351 100.087762,84.4287655 C99.7736909,85.016028 99.3047321,85.4849868 98.7174697,85.7990582 C98.2920802,86.026559 97.8721845,86.1537552 97.3146931,86.2105273 L97.2819548,88.0719458 C97.855827,88.1270381 98.2837934,88.2547202 98.7174697,88.4866528 C99.3047321,88.8007242 99.7736909,89.269683 100.087762,89.8569455 C100.416524,90.4716759 100.535818,91.0749338 100.535818,92.0985374 L100.535818,95.9943025 C100.535818,97.0179061 100.416524,97.6211641 100.087762,98.2358944 C99.7736909,98.8231569 99.3047321,99.2921157 98.7174697,99.6061871 C98.3779123,99.7877844 98.0418553,99.905471 97.636523,99.9744442 L97.8675895,101.282093 C98.4352065,101.23872 98.8752619,101.290568 99.3386404,101.442365 C99.971519,101.649688 100.514787,102.030088 100.926064,102.553891 C101.356578,103.102193 101.578814,103.675571 101.756561,104.683624 L102.433054,108.520204 C102.6108,109.528257 102.598073,110.143065 102.381053,110.805545 C102.17373,111.438423 101.79333,111.981692 101.269527,112.392969 C100.862916,112.71223 100.442514,112.91695 99.8412759,113.073927 L100.374933,116.447766 L100.401581,116.447873 C101.278414,116.466673 101.832276,116.592026 102.395779,116.893391 C102.983042,117.207462 103.452001,117.676421 103.766072,118.263684 C104.094833,118.878414 104.214127,119.481672 104.214127,120.505276 L104.214127,124.401041 C104.214127,125.424644 104.094833,126.027902 103.766072,126.642633 C103.452001,127.229895 102.983042,127.698854 102.395779,128.012925 C101.97039,128.240426 101.550494,128.367622 100.993003,128.424394 L100.961261,130.285909 C101.534632,130.341053 101.962354,130.468722 102.395779,130.70052 C102.983042,131.014591 103.452001,131.48355 103.766072,132.070813 C104.094833,132.685543 104.214127,133.288801 104.214127,134.312405 L104.214127,138.20817 C104.214127,139.231773 104.094833,139.835031 103.766072,140.449762 C103.452001,141.037024 102.983042,141.505983 102.395779,141.820054 C102.02073,142.020633 101.649951,142.143242 101.185378,142.20836 L101.409933,143.635766 L101.437453,143.63669 C102.314286,143.65549 102.868149,143.780844 103.431652,144.082208 C104.018914,144.39628 104.487873,144.865239 104.801944,145.452501 C105.130706,146.067232 105.25,146.670489 105.25,147.694093 L105.25,151.589858 C105.25,152.613462 105.130706,153.21672 104.801944,153.83145 C104.487873,154.418713 104.018914,154.887671 103.431652,155.201743 C103.006262,155.429244 102.586367,155.55644 102.028875,155.613212 L101.996137,157.47463 C102.570009,157.529723 102.997976,157.657405 103.431652,157.889337 C104.018914,158.203409 104.487873,158.672368 104.801944,159.25963 C105.130706,159.87436 105.25,160.477618 105.25,161.501222 L105.25,165.396987 C105.25,166.420591 105.130706,167.023849 104.801944,167.638579 C104.487873,168.225841 104.018914,168.6948 103.431652,169.008872 C103.181378,169.14272 102.933005,169.241848 102.657393,169.312341 L102.747933,169.885766 L102.775648,169.88669 C103.652481,169.90549 104.206343,170.030844 104.769846,170.332208 C105.357109,170.64628 105.826068,171.115239 106.140139,171.702501 C106.4689,172.317232 106.588194,172.920489 106.588194,173.944093 L106.588194,177.839858 C106.588194,178.863462 106.4689,179.46672 106.140139,180.08145 C105.826068,180.668713 105.357109,181.137671 104.769846,181.451743 C104.344708,181.679109 103.925057,181.80629 103.368057,181.863111 L103.335328,183.724726 C103.908699,183.779871 104.336421,183.907539 104.769846,184.139337 C105.357109,184.453409 105.826068,184.922368 106.140139,185.50963 C106.4689,186.12436 106.588194,186.727618 106.588194,187.751222 L106.588194,191.646987 C106.588194,192.670591 106.4689,193.273849 106.140139,193.888579 C105.826068,194.475841 105.357109,194.9448 104.769846,195.258872 C104.248739,195.537563 103.735875,195.665732 102.968211,195.698308 L102.591458,197.629161 C103.284019,197.918267 103.715281,198.211933 104.104041,198.645795 C104.548469,199.141781 104.828753,199.742852 104.923028,200.402116 C105.021712,201.092217 104.927486,201.699895 104.577392,202.661768 L103.244962,206.32259 C102.894869,207.284462 102.576443,207.810538 102.057258,208.275753 C101.561272,208.72018 100.960202,209.000464 100.300937,209.094739 C99.8620908,209.157494 99.4565757,209.142238 98.972112,209.032782 L98.624642,210.824078 C99.3166396,211.113054 99.7476817,211.406649 100.136262,211.84031 C100.58069,212.336296 100.860973,212.937366 100.955248,213.596631 C101.053933,214.286732 100.959706,214.89441 100.609613,215.856283 L99.2771831,219.517104 C98.92709,220.478977 98.6086639,221.005053 98.089479,221.470268 C97.5934929,221.914695 96.9924223,222.194979 96.3331574,222.289254 C95.8203917,222.36258 95.3531311,222.3294 94.7522651,222.16389 L94.4869333,223.523766 L94.7678034,223.758767 C95.5519293,224.416727 95.9373709,224.895878 96.1969579,225.542865 C96.4449458,226.160943 96.5027482,226.821627 96.3658559,227.473377 C96.2225606,228.155612 95.9261785,228.694415 95.2682187,229.478541 L92.7640692,232.46287 C92.1061095,233.246996 91.6269582,233.632437 90.9799713,233.892024 C90.4000505,234.124703 89.7826213,234.189953 89.1702559,234.08405 L89.1324206,236.288029 C89.300064,236.51042 89.4680411,236.771392 89.6494427,237.085589 L90.1795026,238.003679 C90.6913044,238.890146 90.8896217,239.47223 90.9122711,240.168983 C90.9339085,240.834603 90.7622577,241.475212 90.4107092,242.040837 C90.0427178,242.632918 89.5799281,243.037859 88.6934614,243.549661 L85.3196299,245.497543 C84.4331631,246.009345 83.8510794,246.207662 83.1543265,246.230312 C82.4887066,246.251949 81.8480969,246.080298 81.2824719,245.72875 C80.690391,245.360759 80.2854503,244.897969 79.7736485,244.011502 L79.2435886,243.093412 C78.7317868,242.206945 78.5334696,241.624861 78.5108201,240.928108 C78.4960961,240.475163 78.5708766,240.033799 78.730942,239.619763 L77.8024438,237.944174 C77.4409774,237.292071 77.6765846,236.470411 78.3286875,236.108944 C78.9807903,235.747478 79.8024506,235.983085 80.1639171,236.635188 L80.1639171,236.635188 L80.6832016,237.574364 C80.6985476,237.565418 80.7140231,237.556441 80.7296299,237.54743 L84.1034614,235.599548 C84.9899281,235.087746 85.5720119,234.889429 86.2687647,234.866779 L86.4569333,234.865766 L86.4979333,232.504766 L86.2321966,232.281853 C85.4480707,231.623894 85.0626291,231.144742 84.8030421,230.497755 C84.5550542,229.879678 84.4972518,229.218994 84.6341441,228.567243 C84.7774394,227.885009 85.0738215,227.346206 85.7317813,226.56208 L88.2359308,223.57775 C88.8938905,222.793625 89.3730418,222.408183 90.0200287,222.148596 C90.6381064,221.900608 91.2987906,221.842806 91.950541,221.979698 L92.0329333,221.998766 L92.1874459,221.202866 C91.7431135,220.974537 91.421226,220.724866 91.1241559,220.393332 C90.6797284,219.897346 90.3994446,219.296276 90.3051696,218.637011 C90.2064852,217.94691 90.3007117,217.339232 90.6508048,216.377359 L91.9832349,212.716538 C92.333328,211.754665 92.6517541,211.228589 93.170939,210.763374 C93.6669251,210.318947 94.2679957,210.038663 94.9272606,209.944388 C95.2994967,209.891158 95.6477523,209.894055 96.0405476,209.962959 L96.3974743,208.125315 C95.8230712,207.864004 95.440427,207.587739 95.0919352,207.198818 C94.6475077,206.702832 94.3672239,206.101761 94.2729489,205.442496 C94.1742644,204.752395 94.268491,204.144717 94.6185841,203.182845 L95.9510142,199.522023 C96.3011073,198.56015 96.6195334,198.034074 97.1387183,197.56886 C97.6347044,197.124432 98.235775,196.844148 98.8950399,196.749873 C99.267276,196.696643 99.6155316,196.69954 100.008327,196.768444 L100.23231,195.613627 C99.8601511,195.5432 99.5448852,195.429123 99.2265427,195.258872 C98.6392802,194.9448 98.1703214,194.475841 97.85625,193.888579 C97.5274886,193.273849 97.4081945,192.670591 97.4081945,191.646987 L97.4081945,187.751222 C97.4081945,186.727618 97.5274886,186.12436 97.85625,185.50963 C98.1703214,184.922368 98.6392802,184.453409 99.2265427,184.139337 C99.6524343,183.911568 100.072819,183.78434 100.631294,183.727667 L100.664052,181.866641 C100.089177,181.811653 99.6607211,181.683944 99.2265427,181.451743 C98.6392802,181.137671 98.1703214,180.668713 97.85625,180.08145 C97.5274886,179.46672 97.4081945,178.863462 97.4081945,177.839858 L97.4081945,173.944093 C97.4081945,172.920489 97.5274886,172.317232 97.85625,171.702501 C98.1703214,171.115239 98.6392802,170.64628 99.2265427,170.332208 C99.4873909,170.192705 99.7461735,170.090918 100.035882,170.019957 L99.9459333,169.454766 L99.8825465,169.45439 C99.0057138,169.43559 98.451851,169.310236 97.8883482,169.008872 C97.3010857,168.6948 96.8321269,168.225841 96.5180555,167.638579 C96.1892941,167.023849 96.07,166.420591 96.07,165.396987 L96.07,161.501222 C96.07,160.477618 96.1892941,159.87436 96.5180555,159.25963 C96.8321269,158.672368 97.3010857,158.203409 97.8883482,157.889337 C98.3142398,157.661568 98.7346248,157.53434 99.2930998,157.477667 L99.3258574,155.616641 C98.7509821,155.561653 98.3225266,155.433944 97.8883482,155.201743 C97.3010857,154.887671 96.8321269,154.418713 96.5180555,153.83145 C96.1892941,153.21672 96.07,152.613462 96.07,151.589858 L96.07,147.694093 C96.07,146.670489 96.1892941,146.067232 96.5180555,145.452501 C96.8321269,144.865239 97.3010857,144.39628 97.8883482,144.082208 C98.1492236,143.942691 98.408033,143.840897 98.6977787,143.769934 L98.4560439,142.248553 C97.7955786,142.203042 97.3274516,142.074074 96.8524756,141.820054 C96.2652132,141.505983 95.7962543,141.037024 95.4821829,140.449762 C95.1534215,139.835031 95.0341274,139.231773 95.0341274,138.20817 L95.0341274,134.312405 C95.0341274,133.288801 95.1534215,132.685543 95.4821829,132.070813 C95.7962543,131.48355 96.2652132,131.014591 96.8524756,130.70052 C97.2783672,130.472751 97.6987523,130.345523 98.2572273,130.28885 L98.2899848,128.427823 C97.7151095,128.372836 97.2866541,128.245127 96.8524756,128.012925 C96.2652132,127.698854 95.7962543,127.229895 95.4821829,126.642633 C95.1534215,126.027902 95.0341274,125.424644 95.0341274,124.401041 L95.0341274,120.505276 C95.0341274,119.481672 95.1534215,118.878414 95.4821829,118.263684 C95.7962543,117.676421 96.2652132,117.207462 96.8524756,116.893391 C97.1133238,116.753888 97.3721064,116.6521 97.6618154,116.581139 L97.1768269,113.522823 C96.6589386,113.552348 96.2449422,113.497891 95.8104389,113.355553 C95.1775604,113.14823 94.6342922,112.76783 94.2230152,112.244027 C93.7925016,111.695725 93.5702652,111.122347 93.3925183,110.114294 L92.7160258,106.277714 C92.5382789,105.269662 92.551006,104.654853 92.768026,103.992373 C92.9753489,103.359495 93.3557494,102.816226 93.879552,102.40495 C94.2627143,102.1041 94.658122,101.904961 95.2055558,101.751638 L94.9051516,100.042317 C94.1763392,100.004958 93.6791231,99.8762411 93.174166,99.6061871 C92.5869036,99.2921157 92.1179447,98.8231569 91.8038733,98.2358944 C91.4751119,97.6211641 91.3558178,97.0179061 91.3558178,95.9943025 L91.3558178,92.0985374 C91.3558178,91.0749338 91.4751119,90.4716759 91.8038733,89.8569455 C92.1179447,89.269683 92.5869036,88.8007242 93.174166,88.4866528 C93.6000577,88.2588835 94.0204427,88.1316556 94.5789177,88.074983 L94.6116752,86.2139563 C94.0367999,86.1589685 93.6083445,86.0312594 93.174166,85.7990582 C92.5869036,85.4849868 92.1179447,85.016028 91.8038733,84.4287655 C91.4751119,83.8140351 91.3558178,83.2107772 91.3558178,82.1871736 L91.3558178,78.2914085 C91.3558178,77.2678049 91.4751119,76.664547 91.8038733,76.0498166 C92.1179447,75.4625541 92.5869036,74.9935953 93.174166,74.6795239 C93.4350143,74.5400207 93.6937968,74.4382333 93.9835058,74.3672721 L93.4975341,71.3090116 C92.9801049,71.3384116 92.5663576,71.2839336 92.1321293,71.1416859 C91.4992508,70.934363 90.9559826,70.5539626 90.5447056,70.0301599 C90.114192,69.4818575 89.8919557,68.9084796 89.7142087,67.9004268 L89.0377162,64.0638472 C88.8599693,63.0557943 88.8726964,62.4409861 89.0897164,61.778506 C89.2970393,61.1456275 89.6774398,60.6023593 90.2012424,60.1910823 C90.5845465,59.8901214 90.980105,59.6909466 91.5278538,59.5376011 L91.2579194,58.0071302 C90.6907905,58.0503642 90.2509825,57.998488 89.7878789,57.8467813 C89.1550004,57.6394584 88.6117322,57.2590579 88.2004552,56.7352552 C87.7699416,56.1869528 87.5477053,55.6135749 87.3699583,54.6055221 L86.6934658,50.7689425 C86.5157189,49.7608897 86.528446,49.1460814 86.745466,48.4836013 C86.9527889,47.8507228 87.3331894,47.3074546 87.856992,46.8961777 C88.4052945,46.4656641 88.9786724,46.2434277 89.9867252,46.0656808 L90.1729333,46.0317659 L90.4635114,44.3857991 C90.2926607,44.3567856 90.1260926,44.3145999 89.9563965,44.2590096 C89.323518,44.0516867 88.7802498,43.6712863 88.3689728,43.1474836 C87.9384592,42.5991812 87.7162229,42.0258033 87.5384759,41.0177505 L86.8619834,37.1811709 C86.6842365,36.173118 86.6969636,35.5583098 86.9139836,34.8958297 C87.0958077,34.3407895 87.4107535,33.8546726 87.8388036,33.466067 L85.97801,31.2485606 C85.4987576,30.6774098 85.573256,29.8258897 86.1444068,29.3466373 Z M86.3564877,237.565354 C86.1582188,237.571799 85.985496,237.630646 85.4534614,237.937816 L82.0796299,239.885699 L81.9929333,239.935766 L83.4433447,242.551432 C83.5855496,242.807976 83.635344,243.090763 83.6037234,243.361448 C83.702766,243.310221 83.8224492,243.24425 83.9696299,243.159275 L87.3434614,241.211392 C87.875496,240.904222 88.0128204,240.784063 88.1175366,240.61558 C88.1874183,240.503143 88.2179977,240.38902 88.2136966,240.256706 C88.2072514,240.058437 88.1484044,239.885714 87.841234,239.353679 L87.3111741,238.435589 C87.2442657,238.3197 87.1862304,238.222539 87.1346358,238.140363 C86.904436,238.019237 86.7139493,237.830809 86.5878841,237.602238 C86.5165112,237.573856 86.4401343,237.562635 86.3564877,237.565354 Z M91.0254283,224.654424 C90.8413208,224.728292 90.6991414,224.842665 90.3042508,225.313277 L87.8001013,228.297606 C87.5147975,228.637618 87.3897155,228.815431 87.326886,228.961151 C87.5042095,228.878623 87.7031741,228.834465 87.9124291,228.838117 C88.6579,228.85113 89.251675,229.466002 89.2386627,230.211473 L89.2386627,230.211473 L89.2215048,231.240889 C89.3855036,231.353334 89.4889106,231.39431 89.6044519,231.418578 C89.7340085,231.44579 89.8517087,231.435493 89.9745717,231.386197 C90.1586792,231.312328 90.3008586,231.197956 90.6957492,230.727343 L93.1998987,227.743014 C93.5947894,227.272402 93.6827354,227.112522 93.7235116,226.918384 C93.7507235,226.788828 93.740426,226.671128 93.6911304,226.548264 C93.6703261,226.496412 93.6463089,226.447886 93.6120254,226.396103 C93.3129732,226.643102 92.9097081,226.758491 92.4991269,226.678682 C91.767241,226.536418 91.2892582,225.827779 91.4315224,225.095893 L91.4315224,225.095893 L91.5160861,224.656218 C91.4752993,224.641174 91.4361738,224.630575 91.3955481,224.622042 C91.2659915,224.59483 91.1482913,224.605128 91.0254283,224.654424 Z M95.3094728,212.617198 C95.1784224,212.635938 95.0713424,212.685871 94.972749,212.774215 C94.8250091,212.906597 94.7305219,213.062701 94.520405,213.639992 L93.1879749,217.300814 C93.0990539,217.545122 93.0427566,217.718334 93.0095242,217.851754 C93.3150346,217.483632 93.8045893,217.290935 94.3050123,217.388207 C95.0368982,217.530472 95.5148811,218.23911 95.3726168,218.970996 L95.3726168,218.970996 L95.2693645,219.501893 C95.638827,219.624731 95.7894562,219.639537 95.9509451,219.616444 C96.0819955,219.597704 96.1890756,219.547771 96.287669,219.459427 C96.4354089,219.327045 96.5298961,219.170941 96.740013,218.59365 L98.0724431,214.932828 C98.28256,214.355537 98.31052,214.175219 98.2824382,213.978843 C98.263698,213.847793 98.2137658,213.740713 98.1254213,213.64212 C98.1070684,213.621638 98.0882595,213.602179 98.0679356,213.583294 C97.8413961,214.191408 97.2033071,214.563265 96.5464955,214.435593 C95.8146096,214.293329 95.3366267,213.58469 95.4788909,212.852805 L95.4788909,212.852805 L95.5246811,212.613404 C95.4434582,212.604474 95.377427,212.607481 95.3094728,212.617198 Z M99.2772521,199.422683 C99.1462017,199.441424 99.0391217,199.491356 98.9405283,199.5797 C98.7927884,199.712082 98.6983012,199.868186 98.4881843,200.445477 L97.1557542,204.106299 C96.9456373,204.68359 96.9176772,204.863908 96.945759,205.060284 C96.9644993,205.191334 97.0144315,205.298414 97.1027759,205.397008 C97.1276477,205.424765 97.1533568,205.450642 97.1825392,205.47576 C97.4867586,205.196328 97.9154266,205.060183 98.3523808,205.145119 C98.9636525,205.263938 99.3978115,205.777837 99.4414247,206.37039 C99.6698824,206.434743 99.7909015,206.440208 99.9187244,206.421929 C100.049775,206.403189 100.156855,206.353257 100.255448,206.264912 C100.403188,206.13253 100.497675,205.976427 100.707792,205.399135 L102.040222,201.738313 C102.250339,201.161022 102.278299,200.980705 102.250218,200.784329 C102.231477,200.653278 102.181545,200.546198 102.093201,200.447605 C102.074848,200.427123 102.056039,200.407664 102.035715,200.388779 C101.809354,200.996789 101.171178,201.368768 100.514275,201.241079 C99.7823889,201.098814 99.304406,200.390176 99.4466702,199.65829 L99.4466702,199.65829 L99.4916415,199.418799 C99.4107934,199.409979 99.3449777,199.412999 99.2772521,199.422683 Z M103.272874,186.437789 L103.260146,186.516371 C103.129466,187.137088 102.573375,187.598019 101.915607,187.586537 C101.258195,187.575062 100.718757,187.095519 100.609412,186.471115 C100.570112,186.485083 100.534904,186.501491 100.49986,186.520233 C100.383122,186.582665 100.299578,186.666209 100.237146,186.782947 C100.143593,186.957875 100.108194,187.136881 100.108194,187.751222 L100.108194,191.646987 C100.108194,192.261328 100.143593,192.440334 100.237146,192.615262 C100.299578,192.732 100.383122,192.815544 100.49986,192.877976 C100.572123,192.916623 100.645082,192.945345 100.749139,192.965748 C100.914441,192.263229 101.606241,191.811832 102.32016,191.950604 C102.846472,192.052909 103.241483,192.448103 103.368958,192.934209 C103.414771,192.918424 103.455761,192.899779 103.496529,192.877976 C103.613267,192.815544 103.696811,192.732 103.759243,192.615262 C103.852796,192.440334 103.888194,192.261328 103.888194,191.646987 L103.888194,187.751222 C103.888194,187.136881 103.852796,186.957875 103.759243,186.782947 C103.696811,186.666209 103.613267,186.582665 103.496529,186.520233 C103.430347,186.484838 103.36358,186.457767 103.272874,186.437789 Z M103.13479,172.608008 L103.131231,172.647216 C103.057225,173.22703 102.609461,173.712974 102.00301,173.809026 C101.266605,173.925661 100.575079,173.423239 100.458444,172.686834 L100.466933,172.732766 L100.418341,172.764075 C100.342669,172.819383 100.28397,172.888265 100.237146,172.975818 C100.143593,173.150747 100.108194,173.329752 100.108194,173.944093 L100.108194,177.839858 C100.108194,178.454199 100.143593,178.633205 100.237146,178.808133 C100.299578,178.924871 100.383122,179.008415 100.49986,179.070847 C100.571187,179.108994 100.643193,179.137471 100.745114,179.157823 C100.889451,178.554621 101.436313,178.112368 102.080782,178.123617 C102.698978,178.134408 103.212854,178.559089 103.362883,179.128911 C103.411864,179.112613 103.454315,179.093423 103.496529,179.070847 C103.613267,179.008415 103.696811,178.924871 103.759243,178.808133 C103.852796,178.633205 103.888194,178.454199 103.888194,177.839858 L103.888194,173.944093 C103.888194,173.329752 103.852796,173.150747 103.759243,172.975818 C103.696811,172.85908 103.613267,172.775536 103.496529,172.713104 C103.40076,172.661886 103.303769,172.628099 103.13479,172.608008 Z M101.934833,160.187823 L101.921951,160.266371 C101.791272,160.887088 101.23518,161.348019 100.577412,161.336537 C99.9200002,161.325062 99.3805626,160.845519 99.2712177,160.221115 C99.2319179,160.235083 99.1967097,160.251491 99.1616651,160.270233 C99.0449275,160.332665 98.9613831,160.416209 98.8989511,160.532947 C98.8139031,160.691973 98.7769167,160.854368 98.7708947,161.344144 L98.77,165.396987 C98.77,166.011328 98.8053983,166.190334 98.8989511,166.365262 C98.9613831,166.482 99.0449275,166.565544 99.1616651,166.627976 C99.2558574,166.678351 99.3512318,166.711864 99.5151172,166.732068 L99.4002646,166.005752 C99.2836295,165.269347 99.7860523,164.577822 100.522457,164.461187 C101.258862,164.344551 101.950388,164.846974 102.067023,165.583379 L102.067023,165.583379 L102.225933,166.584766 L102.239853,166.577005 C102.315525,166.521697 102.374225,166.452815 102.421049,166.365262 C102.514602,166.190334 102.55,166.011328 102.55,165.396987 L102.55,161.501222 C102.55,160.886881 102.514602,160.707875 102.421049,160.532947 C102.358617,160.416209 102.275072,160.332665 102.158335,160.270233 C102.092189,160.234858 102.025461,160.207798 101.934833,160.187823 Z M101.796595,146.358008 L101.793036,146.397216 C101.719031,146.97703 101.271266,147.462974 100.664815,147.559026 C99.9284102,147.675661 99.2368845,147.173239 99.1202494,146.436834 L99.1289333,146.482766 L99.0801469,146.514075 C99.0044748,146.569383 98.9457751,146.638265 98.8989511,146.725818 C98.8139031,146.884844 98.7769167,147.04724 98.7708947,147.537015 L98.77,151.589858 C98.77,152.204199 98.8053983,152.383205 98.8989511,152.558133 C98.9613831,152.674871 99.0449275,152.758415 99.1616651,152.820847 C99.2328811,152.858934 99.3047728,152.887382 99.4064399,152.907727 C99.5512567,152.304621 100.098119,151.862368 100.742588,151.873617 C101.360427,151.884401 101.874067,152.308599 102.024429,152.877926 C102.073874,152.862521 102.116222,152.843369 102.158335,152.820847 C102.275072,152.758415 102.358617,152.674871 102.421049,152.558133 C102.514602,152.383205 102.55,152.204199 102.55,151.589858 L102.55,147.694093 C102.55,147.079752 102.514602,146.900747 102.421049,146.725818 C102.358617,146.60908 102.275072,146.525536 102.158335,146.463104 C102.062566,146.411886 101.965575,146.378099 101.796595,146.358008 Z M100.898961,132.999005 L100.886079,133.077554 C100.755399,133.69827 100.199308,134.159201 99.5415395,134.14772 C98.8841276,134.136245 98.34469,133.656701 98.2353451,133.032298 C98.1960454,133.046266 98.1608371,133.062674 98.1257925,133.081416 C98.009055,133.143848 97.9255105,133.227392 97.8630786,133.34413 C97.7695258,133.519058 97.7341274,133.698064 97.7341274,134.312405 L97.7341274,138.20817 C97.7341274,138.82251 97.7695258,139.001516 97.8630786,139.176445 C97.9118294,139.267601 97.9734536,139.338518 98.0537031,139.394947 C98.1193239,138.804901 98.5705342,138.308392 99.1842629,138.211187 C99.9206679,138.094551 100.612194,138.596974 100.728829,139.333379 L100.728829,139.333379 L100.761657,139.544143 C100.93006,139.524039 101.02687,139.490282 101.122462,139.439159 C101.2392,139.376727 101.322744,139.293182 101.385176,139.176445 C101.478729,139.001516 101.514127,138.82251 101.514127,138.20817 L101.514127,134.312405 C101.514127,133.698064 101.478729,133.519058 101.385176,133.34413 C101.322744,133.227392 101.2392,133.143848 101.122462,133.081416 C101.056317,133.046041 100.989588,133.018981 100.898961,132.999005 Z M100.760723,119.169191 L100.757164,119.208399 C100.683158,119.788213 100.235394,120.274157 99.6289426,120.370209 C98.8925376,120.486844 98.201012,119.984421 98.0843769,119.248016 L98.0929333,119.293766 L98.0442743,119.325258 C97.9686023,119.380565 97.9099025,119.449448 97.8630786,119.537001 C97.7695258,119.711929 97.7341274,119.890935 97.7341274,120.505276 L97.7341274,124.401041 C97.7341274,125.015381 97.7695258,125.194387 97.8630786,125.369316 C97.9255105,125.486053 98.009055,125.569598 98.1257925,125.63203 C98.1968865,125.670051 98.2686539,125.698467 98.370045,125.718805 C98.5153842,125.115803 99.0622461,124.67355 99.7067154,124.6848 C100.324911,124.69559 100.838787,125.120271 100.988816,125.690094 C101.037797,125.673796 101.080248,125.654606 101.122462,125.63203 C101.2392,125.569598 101.322744,125.486053 101.385176,125.369316 C101.478729,125.194387 101.514127,125.015381 101.514127,124.401041 L101.514127,120.505276 C101.514127,119.890935 101.478729,119.711929 101.385176,119.537001 C101.322744,119.420263 101.2392,119.336719 101.122462,119.274287 C101.026693,119.223069 100.929702,119.189282 100.760723,119.169191 Z M98.3375654,103.971799 L98.3438586,104.023232 C98.3983134,104.708778 97.9233682,105.336182 97.2323025,105.458036 C96.4980452,105.587505 95.7978564,105.097227 95.668387,104.36297 L95.6852421,104.439519 C95.632536,104.466339 95.5892314,104.495376 95.5469626,104.528565 C95.4428397,104.61032 95.3750718,104.707102 95.3338596,104.832907 C95.2721042,105.021424 95.2683276,105.203857 95.3750068,105.808864 L96.0514993,109.645444 C96.1581784,110.250451 96.224123,110.420591 96.3466305,110.576617 C96.4283853,110.680739 96.5251678,110.748507 96.6509731,110.789719 C96.8394893,110.851475 97.0219225,110.855252 97.62693,110.748572 L98.6709441,110.564484 C99.2759516,110.457805 99.4460911,110.391861 99.6021167,110.269353 C99.7062396,110.187599 99.7740075,110.090816 99.8152197,109.965011 C99.8769752,109.776494 99.8807517,109.594061 99.7740726,108.989054 L99.0975801,105.152474 C98.9909009,104.547467 98.9249563,104.377327 98.8024488,104.221302 C98.7206941,104.117179 98.6239115,104.049411 98.4981062,104.008199 C98.4469934,103.991455 98.3963277,103.978973 98.3375654,103.971799 Z M97.220651,90.7851381 L97.2077691,90.8636866 C97.0770894,91.4844033 96.5209983,91.9453341 95.8632299,91.9338527 C95.205818,91.9223776 94.6663804,91.4428342 94.5570355,90.8184308 C94.5176174,90.8324535 94.4824686,90.8488379 94.4474829,90.8675484 C94.3307454,90.9299804 94.2472009,91.0135248 94.184769,91.1302624 C94.0912162,91.3051909 94.0558178,91.4841967 94.0558178,92.0985374 L94.0558178,95.9943025 C94.0558178,96.6086432 94.0912162,96.787649 94.184769,96.9625775 C94.2472009,97.0793151 94.3307454,97.1628596 94.4474829,97.2252915 L94.49093,97.2469614 C94.5816528,96.6974797 95.0092298,96.2396584 95.5888333,96.1374587 C96.3230906,96.0079893 97.0232794,96.4982668 97.1527488,97.2325241 L97.1527488,97.2325241 L97.1678507,97.3180512 C97.2866134,97.2974373 97.3657921,97.2671992 97.4441527,97.2252915 C97.5608903,97.1628596 97.6444348,97.0793151 97.7068667,96.9625775 C97.8004195,96.787649 97.8358178,96.6086432 97.8358178,95.9943025 L97.8358178,92.0985374 C97.8358178,91.4841967 97.8004195,91.3051909 97.7068667,91.1302624 C97.6444348,91.0135248 97.5608903,90.9299804 97.4441527,90.8675484 C97.3780072,90.8321734 97.3112786,90.8051134 97.220651,90.7851381 Z M97.0814769,76.9552126 L97.0788542,76.9945318 C97.0048486,77.5743457 96.5570843,78.0602893 95.9506331,78.1563418 C95.214228,78.2729769 94.5227024,77.7705541 94.4060673,77.034149 L94.4149333,77.0797659 L94.3659647,77.1113908 C94.2902927,77.1666983 94.2315929,77.2355803 94.184769,77.3231335 C94.0912162,77.498062 94.0558178,77.6770678 94.0558178,78.2914085 L94.0558178,82.1871736 C94.0558178,82.8015143 94.0912162,82.9805201 94.184769,83.1554486 C94.2472009,83.2721862 94.3307454,83.3557306 94.4474829,83.4181626 C94.5186989,83.4562493 94.5905906,83.4846973 94.6922577,83.5050422 C94.8364646,82.9024297 95.3835771,82.4596769 96.0284058,82.4709324 C96.6462446,82.4817168 97.1598846,82.9059145 97.3102469,83.4752412 C97.3596916,83.4598361 97.4020403,83.4406845 97.4441527,83.4181626 C97.5608903,83.3557306 97.6444348,83.2721862 97.7068667,83.1554486 C97.8004195,82.9805201 97.8358178,82.8015143 97.8358178,82.1871736 L97.8358178,78.2914085 C97.8358178,77.6770678 97.8004195,77.498062 97.7068667,77.3231335 C97.6444348,77.2063959 97.5608903,77.1228515 97.4441527,77.0604195 C97.3482071,77.0091072 97.2510349,76.9752899 97.0814769,76.9552126 Z M94.6592558,61.7579322 L94.665549,61.8093648 C94.7200038,62.4949105 94.2450586,63.1223148 93.5539929,63.2441684 C92.8197356,63.3736377 92.1195468,62.8833602 91.9900774,62.1491029 L92.0069533,62.2256411 C91.9542378,62.2524644 91.9109273,62.2815049 91.868653,62.3146976 C91.7645301,62.3964523 91.6967622,62.4932349 91.6555501,62.6190402 C91.5937946,62.8075564 91.590018,62.9899896 91.6966972,63.5949971 L92.3731897,67.4315767 C92.4798688,68.0365842 92.5458134,68.2067237 92.668321,68.3627493 C92.7500757,68.4668722 92.8468583,68.5346401 92.9726635,68.5758523 C93.1611797,68.6376078 93.3436129,68.6413843 93.9486204,68.5347052 L94.9926345,68.3506173 C95.597642,68.2439382 95.7677815,68.1779936 95.9238072,68.055486 C96.02793,67.9737313 96.0956979,67.8769487 96.1369101,67.7511435 C96.1986656,67.5626273 96.2024421,67.3801941 96.095763,66.7751866 L95.4192705,62.938607 C95.3125913,62.3335994 95.2466467,62.16346 95.1241392,62.0074343 C95.0423845,61.9033115 94.9456019,61.8355436 94.8197967,61.7943314 C94.7686838,61.7775875 94.7180181,61.7651057 94.6592558,61.7579322 Z M92.4797759,48.500826 L92.4592449,48.6173096 C92.3297755,49.3515669 91.6295867,49.8418444 90.8953294,49.712375 C90.4067009,49.6262166 90.0261199,49.2873125 89.864328,48.853818 C89.7005228,48.9020208 89.6103227,48.9523306 89.5244026,49.019793 C89.4202797,49.1015477 89.3525118,49.1983303 89.3112997,49.3241355 C89.2495442,49.5126517 89.2457676,49.6950849 89.3524468,50.3000924 L90.0289393,54.136672 C90.1356184,54.7416796 90.201563,54.911819 90.3240706,55.0678447 C90.4058253,55.1719675 90.5026079,55.2397354 90.6284131,55.2809476 C90.6817615,55.2984239 90.7346228,55.311257 90.7967116,55.3182576 C90.7631478,54.6485342 91.2329554,54.0430651 91.9105237,53.9235915 C92.5880251,53.8041297 93.2365213,54.2123085 93.4344344,54.8529359 C93.4898305,54.8255804 93.5352624,54.7953602 93.5795568,54.7605814 C93.6836796,54.6788267 93.7514475,54.5820441 93.7926597,54.4562388 C93.8544152,54.2677226 93.8581917,54.0852894 93.7515126,53.4802819 L93.0750201,49.6437023 C92.9683409,49.0386948 92.9023963,48.8685553 92.7798888,48.7125297 C92.6990527,48.6095767 92.6035245,48.5421664 92.4797759,48.500826 Z M92.5247463,34.8813578 L92.5482521,34.9208849 C92.8472456,35.4730499 92.7277382,36.1774132 92.2279812,36.596759 C91.6568304,37.0760115 90.8053104,37.0015131 90.326058,36.4303623 L90.326058,36.4303623 L89.5812587,35.5427137 C89.5370676,35.5992113 89.5039061,35.6628298 89.4798173,35.7363639 C89.4180618,35.9248801 89.4142852,36.1073133 89.5209644,36.7123208 L90.1974569,40.5489004 C90.304136,41.1539079 90.3700806,41.3240474 90.4925882,41.480073 C90.5743429,41.5841959 90.6711255,41.6519638 90.7969307,41.693176 C90.840527,41.7074576 90.8837979,41.7186383 90.9320451,41.7260693 L90.9748831,41.4868635 C91.1043524,40.7526062 91.8045413,40.2623287 92.5387986,40.3917981 C93.0369914,40.479643 93.4228655,40.8302247 93.5790483,41.2759181 C93.6457926,41.2460593 93.69767,41.212386 93.7480744,41.1728097 C93.8521972,41.091055 93.9199651,40.9942724 93.9611773,40.8684672 C94.0229328,40.679951 94.0267093,40.4975178 93.9200302,39.8925103 L93.2435377,36.0559307 C93.1368585,35.4509231 93.0709139,35.2807837 92.9484064,35.124758 C92.8666517,35.0206352 92.7698691,34.9528673 92.6440639,34.9116551 C92.6052782,34.8989494 92.5667501,34.888698 92.5247463,34.8813578 Z" id="Combined-Shape" fill="#FFFFFF" fill-rule="nonzero"></path>
        <g id="Oval-Copy-3">
            <use fill="black" fill-opacity="1" filter="url(#filter-34)" xlink:href="#path-33"></use>
            <use fill="#F2F6F9" fill-rule="evenodd" xlink:href="#path-33"></use>
        </g>
        <path d="M134,210.5 L145,210.5 L145,210.5 L145,247 L134,247 C132.343146,247 131,245.656854 131,244 L131,213.5 C131,211.843146 132.343146,210.5 134,210.5 Z" id="Rectangle" fill="#C1D4E4"></path>
        <g id="Oval-Copy-4">
            <use fill="black" fill-opacity="1" filter="url(#filter-36)" xlink:href="#path-35"></use>
            <use fill="#F2F6F9" fill-rule="evenodd" xlink:href="#path-35"></use>
        </g>
        <g id="Oval-Copy-5">
            <use fill="black" fill-opacity="1" filter="url(#filter-38)" xlink:href="#path-37"></use>
            <use fill="#F2F6F9" fill-rule="evenodd" xlink:href="#path-37"></use>
        </g>
        <rect id="Rectangle" fill="#C4D4E1" x="99.6201231" y="287.835938" width="101" height="9.328125" rx="4.6640625"></rect>
        <g id="Group-11" transform="translate(223.000000, 7.000000)">
            <path d="M5.1277704,-2.07168062e-16 L64.8722296,2.07168062e-16 C66.6552671,-1.2037061e-16 67.3018396,0.185651222 67.9536914,0.534265408 C68.6055433,0.882879593 69.1171204,1.39445674 69.4657346,2.04630859 C69.8143488,2.69816044 70,3.34473292 70,5.1277704 L70,64.8722296 C70,66.6552671 69.8143488,67.3018396 69.4657346,67.9536914 C69.1171204,68.6055433 68.6055433,69.1171204 67.9536914,69.4657346 C67.3018396,69.8143488 66.6552671,70 64.8722296,70 L5.1277704,70 C3.34473292,70 2.69816044,69.8143488 2.04630859,69.4657346 C1.39445674,69.1171204 0.882879593,68.6055433 0.534265408,67.9536914 C0.185651222,67.3018396 8.02470732e-17,66.6552671 -1.38112041e-16,64.8722296 L1.38112041e-16,5.1277704 C-8.02470732e-17,3.34473292 0.185651222,2.69816044 0.534265408,2.04630859 C0.882879593,1.39445674 1.39445674,0.882879593 2.04630859,0.534265408 C2.69816044,0.185651222 3.34473292,1.2037061e-16 5.1277704,-2.07168062e-16 Z" id="Rectangle" fill="#46BD8D"></path>
            <g id="Group-5-Copy" transform="translate(17.000000, 16.000000)" fill="#FFFFFF">
                <path d="M17.7140791,7.10542736e-14 C27.4972948,7.10542736e-14 35.4281581,7.93086334 35.4281581,17.7140791 C35.4281581,27.4972948 27.4972948,35.4281581 17.7140791,35.4281581 C7.93086334,35.4281581 -5.68434189e-14,27.4972948 -5.68434189e-14,17.7140791 C-5.68434189e-14,7.93086334 7.93086334,7.10542736e-14 17.7140791,7.10542736e-14 Z M22.6147322,11.3056636 L15.5569628,20.2882792 L12.5394248,17.7736642 C11.7439056,17.1107315 10.5615968,17.2182141 9.89866416,18.0137333 C9.23573151,18.8092525 9.34321413,19.9915613 10.1387333,20.654494 L14.6387333,24.404494 C15.4504842,25.080953 16.6605969,24.9533679 17.3134259,24.1224945 L25.5634259,13.6224945 C26.2032011,12.8082352 26.0617538,11.6295073 25.2474945,10.9897322 C24.4332352,10.349957 23.2545073,10.4914043 22.6147322,11.3056636 Z" id="Combined-Shape"></path>
            </g>
        </g>
    </g>
</svg>