<svg xmlns="http://www.w3.org/2000/svg" viewBox="0 0 182 182"><defs><style>.cls-1{fill:#a1a5a7;}.cls-2{fill:#f49712;}.cls-3{fill:#fff;}.cls-4{fill:#234482;}.cls-5{fill:#b0d2f0;}.cls-6{fill:#d8d8d8;}.cls-7{fill:#ee7402;}</style></defs><g id="Capa_2" data-name="Capa 2"><g id="Capa_3" data-name="Capa 3"><path class="cls-1" d="M31.36,62.87c-2.89.37-6,1.68-6.75,4.69A3.54,3.54,0,0,0,27.08,72c1.66.37,2.77-.79,4-1.5,1-.55,2.37-.77,3.11.07.31.36.45.84.75,1.2,1,1.14,1.8-.41,2.75-1.56a16.1,16.1,0,0,1,3-3c1.21-.91,1.86,2.33,2,3.83.08,1.21,0,2.51.86,3.48a1.72,1.72,0,0,0,2.12.47c.65-.39.68-1.11.82-1.75a4.93,4.93,0,0,1,5.63-3.6c1.19.26,2.41,1.24,2.08,2.54a2.1,2.1,0,0,1-1.49,1.4c-1.24.34-2.61-1.41-3.56-.64-2.46,2,1.76,8.09-1.18,9.25-2.38,1-4.87-1.81-7.43-1.73-1.25,0-2.49.32-3.75.37a10.47,10.47,0,0,1-4.62-.86c-1.58-.69-3-1.78-4.69-2.14s-3.81.4-4.12,2.1c-.45.64.77,1,1.54,1.16a3.37,3.37,0,0,1,2.44,3.39A9.75,9.75,0,0,1,26,88.69c-.78.43-1.62,0-2.47-.45A3.62,3.62,0,0,0,20.87,88a2.84,2.84,0,0,0-.39,5.22c2,1,4.86-.24,6.31,1.43,1,1.2.55,3.19,1.51,4.46s2.6,1.24,4,.8,2.59-1.29,4-1.69c6.79-2,12.95,7.09,19.87,5.59,3.29-.71,5.61-3.69,7-6.78a3.56,3.56,0,0,1,1.19-1.73A2.64,2.64,0,0,1,65.82,95a7.31,7.31,0,0,1,6.59,5.59,3.75,3.75,0,0,0,.74,2,2.76,2.76,0,0,0,1.17.62,15.91,15.91,0,0,0,5,.74c.46-1.59,1-3.28,2.4-4.22C83.48,98.53,86,99,87.9,98c2.59-1.33,3.38-4.86,5.9-6.33a1.84,1.84,0,0,1,1.08-.31A2.36,2.36,0,0,1,96,92l7,5.6a2.82,2.82,0,0,0,4.09.07l4.67-2.76a3.55,3.55,0,0,0,1.33-1.12c.9-1.49-.7-3.35-2.05-4.28A5.75,5.75,0,0,1,109.58,88c-1.35-2-.16-3.15.83-4.22A21.54,21.54,0,0,0,116.06,71c.29-3.3-.66-7.28-3.77-8.43a3.78,3.78,0,0,0-3.6.44c-1,.78-.57,2.15-.81,3.39-.19,1-1.6,1.27-2.59,1.41a1.92,1.92,0,0,1-2.22-1.47,4.06,4.06,0,0,1,.71-1.93,5.86,5.86,0,0,0-1.06-6.11,12.41,12.41,0,0,0-5.49-3.44,2.51,2.51,0,0,0-1.61-.17c-.76.26-1.09,1.12-1.56,1.77A5,5,0,0,1,89,58.05a14.79,14.79,0,0,1-5-2.56L77.44,51a2,2,0,0,0-1.4-.5c-.8.16-1.05,1.15-1.36,1.9s-1.38,1.43-1.85.76c-.22-.61-.12-1.49-.67-1.84-1.79-1.14-3.8,2.74-5.9,1.86a2.71,2.71,0,0,1-1.45-1.67c-.58-1.69,0-3.39-.06-5.08-.12-3.77-3.17-6.77-6.31-8.86-2.77-1.86-5.94-3.4-9.42-2.73a6.12,6.12,0,0,0-3.37,1.84c-2.83,3.1-1.15,7.29,1,10.4-1.62.52-3.57,1.5-3.47,3.2.07,1.18,1.14,2,1.89,2.9s1.11,2.52.07,3.09c-.33.19-.75.2-1.08.4-.73.42-.78,1.45-1.24,2.16-.73,1.11-2.32,1.21-3.63,1a8.93,8.93,0,0,0-3.91-.2,7.08,7.08,0,0,1-.32-3.48c0-.51.46-1.27,0-1.53-1-.63-2.07,1.64-2.67,2.64a7.89,7.89,0,0,0-1.1,3.57A7.1,7.1,0,0,0,31.36,62.87Z"/><path class="cls-2" d="M90,19,65,31,40.19,19,13,32v81l27-13,25,12,24-12,27.93,13V33.22ZM18,105V35.15l21-10V94.93l-1.17.57ZM41,94.93V25L62.82,35.5l1.18.57V106L42.16,95.49Zm25,11V36.07l1.16-.56L88,25.51v69.4l-1.24.62Zm45.93-.75L91.11,95.47,90,95V24.65l21.93,11.59Z"/><rect class="cls-3" x="85.68" y="84.39" width="8.06" height="35" rx="2.82" transform="translate(-39.98 61.76) rotate(-31.44)"/><path class="cls-4" d="M96.35,119.36a4.33,4.33,0,0,1-3.7-2.06l-15.31-25a4.33,4.33,0,0,1,1.43-5.94l2.06-1.26a4.34,4.34,0,0,1,6,1.43l15.31,25a4.34,4.34,0,0,1-1.43,6l-2.06,1.26A4.31,4.31,0,0,1,96.35,119.36ZM83.09,87.41a1.32,1.32,0,0,0-.69.2l-2.06,1.26a1.33,1.33,0,0,0-.44,1.82l15.31,25a1.33,1.33,0,0,0,1.82.44l2.06-1.26a1.38,1.38,0,0,0,.6-.82,1.35,1.35,0,0,0-.16-1l-15.31-25a1.34,1.34,0,0,0-.82-.6A1.65,1.65,0,0,0,83.09,87.41Z"/><circle class="cls-4" cx="76.52" cy="79.57" r="19.5"/><circle class="cls-5" cx="76.52" cy="79.57" r="16.5"/><path class="cls-4" d="M72.13,90.2a1.5,1.5,0,0,1-.67-.16c-3.31-1.66-8.91-6.88-6.35-14.79S76,67.43,80,68.69a1.5,1.5,0,1,1-.89,2.86c-.36-.11-8.77-2.61-11.12,4.63-2.4,7.4,4.55,11,4.85,11.18a1.5,1.5,0,0,1-.68,2.84Z"/><path class="cls-6" d="M150.76,106.72h0A18.77,18.77,0,0,0,146,94.78a1.56,1.56,0,0,0-2.67.76c-.73,3.27-1.63,5.83-2.06,5.39-.65-.67.27-2.49.65-7.55a1.83,1.83,0,0,0-1.25-1.91,12.31,12.31,0,0,0-7,.09,1.81,1.81,0,0,0-1.2,1.89c.38,5,1.28,6.81.64,7.48-.42.44-1.3-2-2-5.25a1.56,1.56,0,0,0-2.67-.75,18.63,18.63,0,0,0-4.73,11.79h0a1.54,1.54,0,0,0-1.41.84,1.67,1.67,0,0,0,1.41,2.47h3.81a1.56,1.56,0,0,0,1.37.82h16.74A1.59,1.59,0,0,0,147,110h3.81a1.67,1.67,0,0,0,1.4-2.47A1.52,1.52,0,0,0,150.76,106.72Z"/><path class="cls-6" d="M147.35,111.9l-.29.31a1,1,0,0,1-.7.3H128a1,1,0,0,1-.7-.3l-.29-.31a.72.72,0,0,0-.51-.22h-.38a.49.49,0,0,0-.48.53c.44,6.64,5.42,11.88,11.52,11.88s11.08-5.24,11.52-11.88a.49.49,0,0,0-.48-.53h-.37A.73.73,0,0,0,147.35,111.9Z"/><path class="cls-6" d="M137.2,129.05c-11.67,0-21.13,2.6-21.13,5.79l.8,5h40.66l.8-5C158.33,131.65,148.87,129.05,137.2,129.05Z"/><path class="cls-6" d="M110.76,151.66H107.7a2,2,0,0,1-1.89-1.54l-.49-2a11.68,11.68,0,0,0,.4,9.22,4.57,4.57,0,0,0,4.15,2.78h.89a4.23,4.23,0,0,0,0-8.46Z"/><path class="cls-6" d="M163.64,151.66h3.06a2,2,0,0,0,1.89-1.54l.49-2a11.68,11.68,0,0,1-.4,9.22,4.57,4.57,0,0,1-4.15,2.78h-.89a4.23,4.23,0,0,1,0-8.46Z"/><path class="cls-7" d="M167.52,140.63l-.89.83-27.91.35-30.95-.35-.89-.83h-1.5l1.2,9.45a1.15,1.15,0,0,0,1,.75h3.06a5.06,5.06,0,0,1,0,10.12h-.89a5.1,5.1,0,0,1-1.89-.38l.39,3A11.69,11.69,0,0,0,119.74,174h34.92a11.68,11.68,0,0,0,11.44-10.4l.39-3a5.06,5.06,0,0,1-1.89.38h-.89a5.06,5.06,0,0,1,0-10.12h3.06a1.14,1.14,0,0,0,1-.75l1.2-9.45Z"/><path class="cls-7" d="M163,137.62a1.12,1.12,0,0,0-.77-.43l-2.84-.25c-.32.23-.59.39-.59.39l-.25,3.53h4.51l.2-2.35A1.34,1.34,0,0,0,163,137.62Z"/><path class="cls-7" d="M168.77,135.67a4.73,4.73,0,0,0-6.12-3.31,4.42,4.42,0,0,0-2.3,3.31,1,1,0,0,1-.18.51l2.14.19a1.79,1.79,0,0,1,1.29.72,2.14,2.14,0,0,1,.44,1.49l-.19,2.28h2.28S169.54,139,168.77,135.67Z"/><path class="cls-7" d="M111.2,137.39A1.08,1.08,0,0,1,112,137l2.75-.25a6.48,6.48,0,0,0,.57.39l.24,3.53h-4.37l-.19-2.35A1.33,1.33,0,0,1,111.2,137.39Z"/><path class="cls-7" d="M105.63,135.44c.74-3.31,4.45-4.13,5.93-3.31a4.43,4.43,0,0,1,2.23,3.31,1,1,0,0,0,.17.51l-2.07.19a1.77,1.77,0,0,0-1.26.72,2.23,2.23,0,0,0-.42,1.49l.19,2.28h-2.22S104.88,138.75,105.63,135.44Z"/><path d="M182,182H0V0H182ZM2,180H180V2H2Z"/></g></g></svg>