<?xml version="1.0" encoding="UTF-8"?>
<svg width="300px" height="300px" viewBox="0 0 300 300" version="1.1" xmlns="http://www.w3.org/2000/svg" xmlns:xlink="http://www.w3.org/1999/xlink">
    <title>Dispositivos de seguridad</title>
    <g id="Dispositivos-de-seguridad" stroke="none" stroke-width="1" fill="none" fill-rule="evenodd">
        <rect fill="#F9FDFF" x="0" y="0" width="300" height="300"></rect>
        <rect id="Rectangle" fill="#E8F5FF" x="0" y="88.7690845" width="300" height="5.05305996"></rect>
        <rect id="Rectangle-Copy-8" fill="#E8F5FF" x="0" y="254.5" width="300" height="5.05305996"></rect>
        <rect id="Rectangle" fill="#DDF0FF" x="0" y="0" width="33" height="300"></rect>
        <path d="M184.861317,74.5 L175.586548,60.8601813 C174.703913,59.5621445 172.936128,59.2253954 171.638091,60.1080311 C171.297743,60.3394602 171.011719,60.6420471 170.799794,60.9948703 C169.348414,63.4112022 169.032627,66.3433967 169.936231,69.0133524 L176.686513,88.9589844 L176.686513,88.9589844 L184.861317,125.417135 L176.686513,88.9589844 L163.959136,77.1035875 C163.06527,76.2709621 161.665672,76.3206075 160.833047,77.2144735 C160.569708,77.497181 160.385014,77.8439354 160.297352,78.2202148 C159.734069,80.6380477 159.951283,83.1721786 160.917815,85.4588832 L172.145985,112.023437 L172.145985,112.023437 L175.203114,129.020508 L170.283192,151.675781 L184.861317,154.181641 L197.037713,103.720703 L184.861317,74.5 Z" id="Path-77" fill="#F5D087"></path>
        <rect id="Rectangle-Copy" fill="#272A30" x="33" y="74.5" width="33" height="151"></rect>
        <path d="M66,74.5 L75.5,74.5 C78.8137085,74.5 81.5,77.1862915 81.5,80.5 L81.5,219.5 C81.5,222.813708 78.8137085,225.5 75.5,225.5 L66,225.5 L66,225.5 L66,74.5 Z" id="Rectangle-Copy-2" fill="#FFE94D"></path>
        <rect id="Rectangle" fill="#FFDC4D" x="81.5" y="131.5" width="13.5" height="37"></rect>
        <rect id="Rectangle-Copy-3" fill="#FF6060" x="95" y="131.5" width="13.5" height="37"></rect>
        <rect id="Rectangle-Copy-4" fill="#F53F3F" x="108.5" y="118.5" width="13.5" height="63" rx="6.75"></rect>
        <path d="M242.325848,247.306345 L227.488414,232.521968 C222.492227,227.543647 216.322784,223.903697 209.549216,221.937903 L204.955966,220.604871 C195.084354,217.739976 185.77792,213.201428 177.442255,207.187025 L160.560081,195.006088 L160.560081,195.006088 L138.288596,175.541244 L130.765117,169.364232 C128.470457,167.480244 128.012865,164.147328 129.714866,161.714619 C131.560018,159.077301 134.748322,157.724066 137.927169,158.229012 L142.305198,158.924442 C148.596913,159.923854 154.55886,162.411806 159.694664,166.181159 L165.054471,170.114915 C167.521921,171.925865 170.990249,171.393667 172.801199,168.926218 C173.332452,168.202377 173.679877,167.360295 173.813578,166.472432 L173.916203,165.790925 C174.741793,160.308445 174.020214,154.704349 171.83274,149.609828 L171.183377,148.097496 C169.399993,143.944081 166.880394,140.147302 163.746143,136.890341 L126.690165,98.3835783 C124.486804,96.0939534 122.356755,93.7348925 120.303242,91.3099668 L120.182948,91.1679161 C118.356314,89.0109039 118.363261,85.847608 120.199353,83.69864 C122.019474,81.5683641 125.140143,81.1248153 127.481753,82.6635737 L183.892165,119.732937 C185.999006,121.11742 187.940258,122.738768 189.677936,124.565252 L255.158696,193.392547 L255.158696,193.392547 L275.1963,210.773032 L242.325848,247.306345 Z" id="Path-41" fill="#FDDFA5" transform="translate(197.006957, 164.527999) rotate(40.000000) translate(-197.006957, -164.527999) "></path>
        <polygon id="Rectangle" fill="#4980AC" points="164.218739 255.127844 239.218739 250.212891 249.203114 304.175781 173.455067 312.810547"></polygon>
        <path d="M228.12777,7 L287.87223,7 C289.655267,7 290.30184,7.18565122 290.953691,7.53426541 C291.605543,7.88287959 292.11712,8.39445674 292.465735,9.04630859 C292.814349,9.69816044 293,10.3447329 293,12.1277704 L293,71.8722296 C293,73.6552671 292.814349,74.3018396 292.465735,74.9536914 C292.11712,75.6055433 291.605543,76.1171204 290.953691,76.4657346 C290.30184,76.8143488 289.655267,77 287.87223,77 L228.12777,77 C226.344733,77 225.69816,76.8143488 225.046309,76.4657346 C224.394457,76.1171204 223.88288,75.6055433 223.534265,74.9536914 C223.185651,74.3018396 223,73.6552671 223,71.8722296 L223,12.1277704 C223,10.3447329 223.185651,9.69816044 223.534265,9.04630859 C223.88288,8.39445674 224.394457,7.88287959 225.046309,7.53426541 C225.69816,7.18565122 226.344733,7 228.12777,7 Z" id="Rectangle" fill="#46BD8D"></path>
        <g id="Group-5-Copy" transform="translate(240.000000, 23.000000)" fill="#FFFFFF">
            <path d="M17.7140791,7.10542736e-14 C27.4972948,7.10542736e-14 35.4281581,7.93086334 35.4281581,17.7140791 C35.4281581,27.4972948 27.4972948,35.4281581 17.7140791,35.4281581 C7.93086334,35.4281581 -5.68434189e-14,27.4972948 -5.68434189e-14,17.7140791 C-5.68434189e-14,7.93086334 7.93086334,7.10542736e-14 17.7140791,7.10542736e-14 Z M22.6147322,11.3056636 L15.5569628,20.2882792 L12.5394248,17.7736642 C11.7439056,17.1107315 10.5615968,17.2182141 9.89866416,18.0137333 C9.23573151,18.8092525 9.34321413,19.9915613 10.1387333,20.654494 L14.6387333,24.404494 C15.4504842,25.080953 16.6605969,24.9533679 17.3134259,24.1224945 L25.5634259,13.6224945 C26.2032011,12.8082352 26.0617538,11.6295073 25.2474945,10.9897322 C24.4332352,10.349957 23.2545073,10.4914043 22.6147322,11.3056636 Z" id="Combined-Shape"></path>
        </g>
    </g>
</svg>