<?xml version="1.0" encoding="UTF-8"?>
<svg width="300px" height="300px" viewBox="0 0 300 300" version="1.1" xmlns="http://www.w3.org/2000/svg" xmlns:xlink="http://www.w3.org/1999/xlink">
    <title>Paso de zebra</title>
    <defs>
        <linearGradient x1="50%" y1="0%" x2="50%" y2="100%" id="linearGradient-1">
            <stop stop-color="#656A75" offset="0%"></stop>
            <stop stop-color="#2A313F" offset="100%"></stop>
        </linearGradient>
        <linearGradient x1="-50.825654%" y1="50%" x2="80.9042108%" y2="37.0566716%" id="linearGradient-2">
            <stop stop-color="#343C4C" offset="0%"></stop>
            <stop stop-color="#252B37" offset="100%"></stop>
        </linearGradient>
        <path d="M15.9036091,2.76523656 C17.859728,2.84624428 20.287941,5.76463902 21.6907417,7.01164665 C22.4880059,7.72036787 23.0069237,8.65793389 23.6562441,9.63518181 C26.9076808,14.5286977 25.6886322,21.9759291 25.6886322,27.2972244 C25.4823103,33.8993152 25.3791493,38.4935463 25.3791493,41.0799178 C25.3791493,47.4487747 25.7527662,53.6389101 26.5,59.6503241 L15.9036091,62.9043692 C12.0324691,64.1549224 6.97166325,63.4869074 0.721191406,60.9003241 C0.721191406,53.2358878 0.721191406,46.3192212 0.721191406,40.1503241 C0.721191406,37.1012074 0.801499221,28.9065921 0.962114851,15.5664783 C0.867500202,11.3198152 3.18538083,5.59417171 6.35880001,3.51523656 C9.5322192,1.43630142 10.0355176,1.43561894 13.7322291,1.00337915 C14.0686004,0.964048769 14.4058845,1.00008629 14.7424004,1.01402225 L15.9036091,2.76523656 Z" id="path-3"></path>
    </defs>
    <g id="Paso-de-zebra" stroke="none" stroke-width="1" fill="none" fill-rule="evenodd">
        <rect fill="#F9FDFF" x="0" y="0" width="300" height="300"></rect>
        <polygon id="Path-65" fill="#EDF7FF" points="0 64.9746094 37.391222 90.5821719 86.5557854 102.610645 124.50511 128.472656 188.736328 137.313413 265 163.191895 300 147.171875 300 250 0 253.799176"></polygon>
        <rect id="Rectangle-Copy-10" fill="url(#linearGradient-1)" x="0" y="237" width="300" height="63"></rect>
        <g id="Group" transform="translate(-0.525911, 237.000000)">
            <polygon id="Fill-132" fill="#FFFFFF" points="71.7222772 -1.0658141e-14 47.4421874 51 69.5149963 51 93.795086 -1.0658141e-14"></polygon>
            <polygon id="Fill-132-Copy" fill="url(#linearGradient-2)" points="0.52591067 0.299541635 0.52591067 63 18.4659107 63 53.3908013 2.04836148e-14"></polygon>
            <polygon id="Fill-132-Copy-2" fill="url(#linearGradient-2)" transform="translate(274.093465, 31.500000) scale(-1, 1) translate(-274.093465, -31.500000) " points="247.66102 0.299541635 247.66102 63 265.60102 63 300.525911 2.04836148e-14"></polygon>
            <polygon id="Fill-133" fill="#FFFFFF" points="108.806449 -1.0658141e-14 93.3554828 51 115.428292 51 128.671977 -1.0658141e-14"></polygon>
            <polygon id="Fill-134" fill="#FFFFFF" points="141.475683 -1.0658141e-14 139.268402 51 161.341211 51 159.13393 -1.0658141e-14"></polygon>
            <polygon id="Fill-135" fill="#FFFFFF" points="229.329544 -1.0658141e-14 253.609634 51 231.536825 51 207.256735 -1.0658141e-14"></polygon>
            <polygon id="Fill-136" fill="#FFFFFF" points="192.245358 -1.0658141e-14 207.696324 51 185.623515 51 172.37983 -1.0658141e-14"></polygon>
        </g>
        <g id="Group-7" transform="translate(115.717612, 111.000000)">
            <g id="Group-6" transform="translate(0.000000, 34.275091)">
                <path d="M37.440485,9.01488158 L31.1371596,0 L12.1462728,13.2786811 C9.76598952,14.9430069 8.0116084,17.3564979 7.162967,20.1341834 L2.3914575,35.7517959 L2.3914575,35.7517959 L12.9114262,38.9658679 L17.179191,24.9970605 C17.6361517,23.5013837 18.5808185,22.2018117 19.8625095,21.3056362 L37.440485,9.01488158 L37.440485,9.01488158 Z" id="Path-88" fill="#3F7096" fill-rule="nonzero"></path>
                <path d="M4.19857179,37.8955714 L8.75983302,35.766179 L10.250423,39.1501297 C11.0067473,40.8671363 10.2279571,42.8721659 8.51094929,43.6284874 C8.30839861,43.7177086 8.09761341,43.7869216 7.88159903,43.8351396 C7.88159903,43.8351396 7.88159903,43.8351396 7.88159903,43.8351396 C7.88159903,43.8351396 7.88159903,43.8351396 7.88159903,43.8351396 C5.62793668,44.3381949 3.35898533,43.0550071 2.62870971,40.8644008 L2,38.9784873 L2,38.9784873 L4.19857179,37.8955714 Z" id="Rectangle-Copy" fill="#FDDFA5" transform="translate(6.466687, 39.845018) rotate(42.000000) translate(-6.466687, -39.845018) "></path>
            </g>
            <path d="M23.224296,83.9933018 L17.7535458,112.266621 C17.7043497,112.520871 17.5901675,112.758053 17.4221127,112.955083 L7.58891205,131.834411 L18.7314114,141.973484 L30.161144,121.676018 C32.0097468,119.508689 32.3491899,116.754636 32.890347,113.957889 L39.4692782,87.6661351 L23.224296,83.9933018 Z" id="Path-90" fill="#191C20" fill-rule="nonzero"></path>
            <path d="M21.560253,89.7033479 L39.1750703,115.280152 C39.3860457,115.58649 39.4756787,115.960287 39.4265715,116.328989 L35.5199494,145.660334 L50.3886483,147.640686 L54.2952703,118.309341 C54.83545,114.253613 53.8494867,110.141842 51.5287581,106.772133 L40.1275724,80.2750911 L21.560253,89.7033479 Z" id="Path-89" fill="#272A30" fill-rule="nonzero"></path>
            <g id="Group-4" transform="translate(38.000000, 49.000000) rotate(4.000000) translate(-38.000000, -49.000000) translate(22.000000, 2.000000)">
                <g id="Path-8" transform="translate(0.000000, 29.564381)">
                    <mask id="mask-4" fill="white">
                        <use xlink:href="#path-3"></use>
                    </mask>
                    <use id="Mask" fill="#FFB116" xlink:href="#path-3"></use>
                    <path d="M8.00440043,2.26523656 L8.55985678,2.82069291 C9.80492717,4.0657633 11.493605,4.76523656 13.2544004,4.76523656 L13.8830801,4.76523656 C15.2413387,4.76523656 16.5439666,4.22567043 17.5044004,3.26523656 L17.5044004,3.26523656 L17.5044004,3.26523656" stroke="#FFFFFF" mask="url(#mask-4)"></path>
                </g>
                <g id="Group-2" transform="translate(0.000000, 0.000000)">
                    <g id="Group" transform="translate(8.079107, 24.929618)" fill="#F5D087">
                        <path d="M0.425292969,0.4 L9.871875,0.4 C9.23805732,5.02777805 8.94743232,7.51059205 9,7.84844198 C9.04436892,8.13359886 8.17495584,8.48016549 6.39176076,8.88814186 L6.39176047,8.88814062 C5.68595292,9.049622 4.95160157,9.03840874 4.25105344,8.85545285 C3.11508959,8.55878332 2.39692235,8.32363237 2.09655172,8.15 C1.71163193,7.92749311 1.15454568,7.51082644 0.425292969,6.9 C0.63427119,6.06704984 0.764251658,5.20157132 0.815234375,4.30356445 C0.866217092,3.40555759 0.736236623,2.10436943 0.425292969,0.4 Z" id="Rectangle"></path>
                    </g>
                    <g id="Group-3" transform="translate(-0.000000, 0.500000)">
                        <path d="M14.8394292,1.77635684e-15 C18.6058535,1.77635684e-15 22.0157108,1.52664511 24.483962,3.99489632 C24.9288379,4.43977213 24.0197282,5.89737136 24.4,6.4 C26.1295449,8.68604567 28.4788584,10.5518624 28.4788584,13.6394292 L28.4788584,13.6394292 L1.2,13.6394292 C1.2,6.10658045 7.30658045,1.77635684e-15 14.8394292,1.77635684e-15 Z" id="Combined-Shape" fill="#4980AC"></path>
                        <path d="M1.30841041,13.6394292 L28.4,13.6394292 L28.4,13.6394292 L30.5494021,13.6394292 C31.2720172,13.6394292 31.8578125,14.2252245 31.8578125,14.9478396 C31.8578125,15.6704547 31.2720172,16.25625 30.5494021,16.25625 L1.30841041,16.25625 C0.585795294,16.25625 3.61799156e-13,15.6704547 3.62376795e-13,14.9478396 C3.622883e-13,14.2252245 0.585795294,13.6394292 1.30841041,13.6394292 Z" id="Rectangle" fill="#5E9CCE"></path>
                        <path d="M8.4,16.25625 L25.34375,16.25625 L25.0046387,19.1468262 C25.0046387,22.1429479 25.0046387,26.4394292 22.5102539,29.2579102 C22.4373255,29.3403141 22.3664692,29.4240569 22.2976849,29.5091386 C21.1245428,30.9602422 19.295665,31.7175543 17.4400858,31.5206034 L14.4,31.1979293 L14.4,31.1979293 C9.87423526,29.9703902 8.4,28.2927946 8.4,25.2 L8.4,16.25625 Z" id="Rectangle" fill="#FDDFA5"></path>
                        <rect id="Rectangle" fill="#8C6D2F" x="7.81523438" y="16.25625" width="2.92988281" height="4.8328125"></rect>
                        <path d="M2.8,16.25625 L8.4,16.25625 L8.4,27.6 L7.32518725,27.538363 C4.78514748,27.3927001 2.8,25.2904493 2.8,22.7462364 L2.8,16.25625 L2.8,16.25625 Z" id="Rectangle" fill="#8C6D2F"></path>
                        <rect id="Rectangle" fill="#FDDFA5" x="6.21523437" y="18.2890625" width="3.2" height="5.6" rx="1.6"></rect>
                    </g>
                </g>
            </g>
            <path d="M66.2134003,72.2887515 L70.7746616,70.1593591 L72.2652515,73.5433098 C73.0215758,75.2603164 72.2427857,77.265346 70.5257778,78.0216675 C70.3232271,78.1108887 70.1124419,78.1801017 69.8964276,78.2283197 C69.8964276,78.2283197 69.8964276,78.2283197 69.8964276,78.2283197 C69.8964276,78.2283197 69.8964276,78.2283197 69.8964276,78.2283197 C67.6427652,78.731375 65.3738139,77.4481872 64.6435382,75.2575809 L64.0148285,73.3716674 L64.0148285,73.3716674 L66.2134003,72.2887515 Z" id="Rectangle" fill="#FDDFA5" transform="translate(68.481515, 74.238198) rotate(-44.000000) translate(-68.481515, -74.238198) "></path>
            <path d="M32.0150447,39.3847476 C29.1900484,40.5010826 27.8049048,43.6961629 28.9212398,46.5211592 L35.497316,63.1625716 C36.7025782,66.2126072 39.1036327,68.6364663 42.1421391,69.8705056 L64.3423864,78.8867707 L64.3423864,78.8867707 L68.4815151,68.6952245 L48.6600895,60.6450787 C46.8876274,59.9252224 45.4870123,58.5113046 44.7839427,56.7321172 L39.1514564,42.4785526 C38.0351214,39.6535563 34.8400411,38.2684126 32.0150447,39.3847476 Z" id="Path-87" fill="#4980AC" fill-rule="nonzero"></path>
            <path d="M35.6094749,145.498386 L54.7229914,147.316069 C56.6583191,147.500118 58.1364407,149.125477 58.1364407,151.069536 C58.1364407,152.963238 56.6012923,154.498386 54.7075907,154.498386 L37.8981482,154.498386 C36.241294,154.498386 34.8981482,153.15524 34.8981482,151.498386 C34.8981482,151.376674 34.9055551,151.255075 34.9203279,151.134262 L35.6094749,145.498386 L35.6094749,145.498386 Z" id="Rectangle" fill="#000000"></path>
            <path d="M2.87669327,136.514413 L24.1745163,140.993425 C25.3055313,141.231282 26.0346067,142.334896 25.8096437,143.468546 C25.5516265,144.768765 24.7453171,145.894507 23.5973376,146.557293 L18.6378565,149.420651 L18.6378565,149.420651 L4.4043912,146.123273 C2.90995107,145.777066 1.91744054,144.359226 2.10363129,142.83655 L2.87669327,136.514413 L2.87669327,136.514413 Z" id="Rectangle-Copy-2" fill="#000000" transform="translate(13.965805, 142.967532) rotate(30.000000) translate(-13.965805, -142.967532) "></path>
        </g>
        <g id="Group-5" transform="translate(14.500000, 75.000000)">
            <rect id="Rectangle" fill="#606570" x="29.4976536" y="5.59863281" width="4.57276893" height="156.1"></rect>
            <path d="M33.8813165,2.84025588 C32.8764684,2.26110843 31.7320034,2.14408396 30.6939635,2.42305837 C29.6559236,2.70203277 28.7243088,3.37700605 28.1451614,4.38185409 L2.66112336,48.5978577 C2.29350613,49.2356909 2.1,49.9589476 2.1,50.6951362 C2.1,51.8549341 2.57010101,52.9049341 3.33015152,53.6649846 C4.09020203,54.4250352 5.14020203,54.8951362 6.3,54.8951362 L57.2680761,54.8951362 C58.0042646,54.8951362 58.7275213,54.70163 59.3653545,54.3340128 C60.3702025,53.7548654 61.0451758,52.8232506 61.3241502,51.7852107 C61.6031246,50.7471708 61.4861002,49.6027058 60.9069527,48.5978577 L35.4229147,4.38185409 C35.0537013,3.7412515 34.521919,3.20946926 33.8813165,2.84025588 Z" id="Rectangle" stroke="#000000" stroke-width="4.2" fill="#FFE94D"></path>
            <g id="Group" transform="translate(20.284566, 18.700000)" fill="#000000">
                <polygon id="Fill-123" points="2.6335 20.1979307 0 25.7271307 2.3943 25.7271307 5.0255 20.1979307"></polygon>
                <polygon id="Fill-124" points="6.6539023 20.1622738 4.9795023 25.6914738 7.3715023 25.6914738 8.8067023 20.1622738"></polygon>
                <polygon id="Fill-125" points="10.1956769 20.1270378 9.9564769 25.6562378 12.3484769 25.6562378 12.1092769 20.1270378"></polygon>
                <polygon id="Fill-126" points="19.72043 20.1622738 22.35393 25.6914738 19.95963 25.6914738 17.32843 20.1622738"></polygon>
                <polygon id="Fill-127" points="15.7000369 20.1268285 17.3744369 25.6560285 14.9824369 25.6560285 13.5472369 20.1268285"></polygon>
                <g id="Group-131" transform="translate(3.162946, 0.000000)">
                    <path d="M5.8732984,9.3594061 C5.0199984,9.7849061 4.5323984,10.3093061 4.4403984,11.1442061 C4.3782984,11.7215061 4.1965984,12.2896061 4.0516984,12.8577061 C3.8952984,13.4649061 3.4950984,13.7340061 2.9637984,13.6213061 C2.4600984,13.5132061 2.2415984,13.1291061 2.3772984,12.5380061 C2.6095984,11.5398061 2.8395984,10.5370061 3.1132984,9.5480061 C3.1822984,9.3042061 3.3708984,9.0489061 3.5847984,8.8833061 C4.6795984,8.0369061 5.7973984,7.2089061 6.9197984,6.3901061 C8.0559984,5.5598061 9.3416984,5.8197061 10.0063984,6.9996061 C10.4617984,7.8115061 10.9309984,8.6165061 11.3449984,9.4468061 C11.5887984,9.9344061 11.9314984,10.2909061 12.4236984,10.5692061 C12.9986984,10.8981061 13.5483984,11.2615061 14.0957984,11.6249061 C14.6040984,11.9630061 14.7121984,12.4207061 14.4062984,12.8048061 C14.1210984,13.1636061 13.6219984,13.2234061 13.1274984,12.9221061 C12.2994984,12.4161061 11.4760984,11.9009061 10.6733984,11.3627061 C10.4594984,11.2201061 10.3030984,10.9901061 10.1581984,10.7762061 C9.9833984,10.5186061 9.8499984,10.2357061 9.6383984,9.8539061 C9.3669984,10.9418061 9.1093984,11.8940061 8.9069984,12.8554061 C8.8701984,13.0279061 9.0012984,13.2740061 9.1369984,13.4258061 C10.0109984,14.4010061 10.9125984,15.3532061 11.7888984,16.3238061 C11.9636984,16.5170061 12.1568984,16.7401061 12.2074984,16.9724061 C12.5225984,18.3869061 12.8238984,19.8037061 13.0814984,21.2274061 C13.2079984,21.9197061 12.7157984,22.4717061 11.9981984,22.5591061 C11.3265984,22.6396061 10.7561984,22.2578061 10.5928984,21.5563061 C10.3444984,20.4845061 10.1167984,19.4081061 9.9212984,18.3294061 C9.8384984,17.8740061 9.6498984,17.5129061 9.3048984,17.1817061 C8.6171984,16.5239061 7.9570984,15.8408061 7.1934984,15.0749061 C7.0209984,15.7580061 6.9036984,16.3537061 6.7196984,16.9310061 C6.5586984,17.4324061 6.3815984,17.9430061 6.1055984,18.3984061 C5.4109984,19.5461061 4.6611984,20.6685061 3.9251984,21.7978061 C3.4421984,22.5407061 2.7015984,22.7684061 2.0299984,22.3935061 C1.3859984,22.0324061 1.2686984,21.3470061 1.7286984,20.6087061 C1.7493984,20.5788061 1.7677984,20.5443061 1.7907984,20.5167061 C3.6169984,18.2627061 4.5070984,15.6821061 5.0130984,12.9497061 C5.2315984,11.7652061 5.5719984,10.6014061 5.8732984,9.3594061" id="Fill-128"></path>
                    <path d="M8.7811907,5.6101853 C7.7507907,5.6032853 6.9388907,4.8442853 6.9503907,3.8943853 C6.9595907,2.9490853 7.7990907,2.1923853 8.8225907,2.2061853 C9.8391907,2.2199853 10.6855907,3.0111853 10.6671907,3.9311853 C10.6464907,4.8764853 9.8138907,5.6170853 8.7811907,5.6101853" id="Fill-130"></path>
                </g>
            </g>
        </g>
        <g id="Group-11" transform="translate(223.000000, 7.000000)">
            <path d="M5.1277704,-2.07168062e-16 L64.8722296,2.07168062e-16 C66.6552671,-1.2037061e-16 67.3018396,0.185651222 67.9536914,0.534265408 C68.6055433,0.882879593 69.1171204,1.39445674 69.4657346,2.04630859 C69.8143488,2.69816044 70,3.34473292 70,5.1277704 L70,64.8722296 C70,66.6552671 69.8143488,67.3018396 69.4657346,67.9536914 C69.1171204,68.6055433 68.6055433,69.1171204 67.9536914,69.4657346 C67.3018396,69.8143488 66.6552671,70 64.8722296,70 L5.1277704,70 C3.34473292,70 2.69816044,69.8143488 2.04630859,69.4657346 C1.39445674,69.1171204 0.882879593,68.6055433 0.534265408,67.9536914 C0.185651222,67.3018396 8.02470732e-17,66.6552671 -1.38112041e-16,64.8722296 L1.38112041e-16,5.1277704 C-8.02470732e-17,3.34473292 0.185651222,2.69816044 0.534265408,2.04630859 C0.882879593,1.39445674 1.39445674,0.882879593 2.04630859,0.534265408 C2.69816044,0.185651222 3.34473292,1.2037061e-16 5.1277704,-2.07168062e-16 Z" id="Rectangle" fill="#46BD8D"></path>
            <g id="Group-5-Copy" transform="translate(17.000000, 16.000000)" fill="#FFFFFF">
                <path d="M17.7140791,7.10542736e-14 C27.4972948,7.10542736e-14 35.4281581,7.93086334 35.4281581,17.7140791 C35.4281581,27.4972948 27.4972948,35.4281581 17.7140791,35.4281581 C7.93086334,35.4281581 -5.68434189e-14,27.4972948 -5.68434189e-14,17.7140791 C-5.68434189e-14,7.93086334 7.93086334,7.10542736e-14 17.7140791,7.10542736e-14 Z M22.6147322,11.3056636 L15.5569628,20.2882792 L12.5394248,17.7736642 C11.7439056,17.1107315 10.5615968,17.2182141 9.89866416,18.0137333 C9.23573151,18.8092525 9.34321413,19.9915613 10.1387333,20.654494 L14.6387333,24.404494 C15.4504842,25.080953 16.6605969,24.9533679 17.3134259,24.1224945 L25.5634259,13.6224945 C26.2032011,12.8082352 26.0617538,11.6295073 25.2474945,10.9897322 C24.4332352,10.349957 23.2545073,10.4914043 22.6147322,11.3056636 Z" id="Combined-Shape"></path>
            </g>
        </g>
    </g>
</svg>