<?xml version="1.0" encoding="UTF-8"?>
<svg width="300px" height="300px" viewBox="0 0 300 300" version="1.1" xmlns="http://www.w3.org/2000/svg" xmlns:xlink="http://www.w3.org/1999/xlink">
    <title>Aislamiento, bloqueo y prueba de energía cero</title>
    <defs>
        <path d="M22.0093179,75.6958913 L22.0093179,71.3758913 C22.0093179,67.9163796 24.8138062,65.1118913 28.2733179,65.1118913 C31.7328295,65.1118913 34.5373179,67.9163796 34.5373179,71.3758913 L34.5373179,75.6958913 L39.7213179,75.6958913 L39.7213179,71.3758913 C39.7213179,65.0533355 34.5958737,59.9278913 28.2733179,59.9278913 C21.950762,59.9278913 16.8253179,65.0533355 16.8253179,71.3758913 L16.8253179,75.6958913 L22.0093179,75.6958913 Z" id="path-1"></path>
        <filter x="-2.2%" y="-3.2%" width="104.4%" height="106.3%" filterUnits="objectBoundingBox" id="filter-2">
            <feOffset dx="-1" dy="0" in="SourceAlpha" result="shadowOffsetInner1"></feOffset>
            <feComposite in="shadowOffsetInner1" in2="SourceAlpha" operator="arithmetic" k2="-1" k3="1" result="shadowInnerInner1"></feComposite>
            <feColorMatrix values="0 0 0 0 0.561933877   0 0 0 0 0.561933877   0 0 0 0 0.561933877  0 0 0 0.5 0" type="matrix" in="shadowInnerInner1"></feColorMatrix>
        </filter>
        <rect id="path-3" x="-6.50146603e-13" y="0" width="28.3349102" height="22.8667696"></rect>
        <rect id="path-5" x="40.1533179" y="0" width="2.16" height="12.6208301" rx="1.08"></rect>
        <filter x="-23.1%" y="-4.0%" width="146.3%" height="107.9%" filterUnits="objectBoundingBox" id="filter-6">
            <feOffset dx="-1" dy="0" in="SourceAlpha" result="shadowOffsetInner1"></feOffset>
            <feComposite in="shadowOffsetInner1" in2="SourceAlpha" operator="arithmetic" k2="-1" k3="1" result="shadowInnerInner1"></feComposite>
            <feColorMatrix values="0 0 0 0 0.780392157   0 0 0 0 0.780392157   0 0 0 0 0.780392157  0 0 0 1 0" type="matrix" in="shadowInnerInner1"></feColorMatrix>
        </filter>
        <path d="M7.30974604,0.098692238 C9.40182704,0.098692238 11.0977938,1.79465898 11.0977938,3.88673998 C11.0977938,4.82239667 10.7585644,5.67882211 10.1963866,6.33973545 L10.6355749,6.33869224 L10.6355749,17.448536 L0.408,17.448536 L0.408,6.33869224 L4.42310546,6.33973545 C3.86092763,5.67882211 3.5216983,4.82239667 3.5216983,3.88673998 C3.5216983,1.79465898 5.21766504,0.098692238 7.30974604,0.098692238 Z" id="path-7"></path>
        <path d="M-5.856,13.368 L-5.856,9.048 C-5.856,5.58848833 -3.05151167,2.784 0.408,2.784 C3.86751167,2.784 6.672,5.58848833 6.672,9.048 L6.672,13.368 L11.856,13.368 L11.856,9.048 C11.856,2.72544418 6.73055582,-2.4 0.408,-2.4 C-5.91455582,-2.4 -11.04,2.72544418 -11.04,9.048 L-11.04,13.368 L-5.856,13.368 Z" id="path-9"></path>
        <filter x="-2.2%" y="-3.2%" width="104.4%" height="106.3%" filterUnits="objectBoundingBox" id="filter-10">
            <feOffset dx="-1" dy="0" in="SourceAlpha" result="shadowOffsetInner1"></feOffset>
            <feComposite in="shadowOffsetInner1" in2="SourceAlpha" operator="arithmetic" k2="-1" k3="1" result="shadowInnerInner1"></feComposite>
            <feColorMatrix values="0 0 0 0 0.561933877   0 0 0 0 0.561933877   0 0 0 0 0.561933877  0 0 0 0.5 0" type="matrix" in="shadowInnerInner1"></feColorMatrix>
        </filter>
    </defs>
    <g id="Aislamiento,-bloqueo-y-prueba-de-energía-cero" stroke="none" stroke-width="1" fill="none" fill-rule="evenodd">
        <rect fill="#F9FDFF" x="0" y="0" width="300" height="300"></rect>
        <rect id="Rectangle" fill="#EDF7FF" x="0" y="140.655434" width="300" height="159.344566"></rect>
        <g id="Group-3" transform="translate(0.000000, 15.350000)">
            <rect id="Rectangle" fill="#B9E0FC" x="18" y="0" width="180" height="270"></rect>
            <g id="Group-9-Copy-2" transform="translate(66.150000, 71.100000)">
                <rect id="Rectangle" fill="#FFFFFF" x="0" y="0" width="83.7" height="41.4"></rect>
                <rect id="Rectangle-Copy-26" fill="#AAC2D4" x="2.64155273" y="2.76328125" width="16.8802734" height="1.83691406"></rect>
                <rect id="Rectangle-Copy-27" fill="#DDE8F0" x="2.64155273" y="6.91655273" width="78.75" height="1.83691406"></rect>
                <rect id="Rectangle-Copy-31" fill="#DDE8F0" x="2.64155273" y="23.5032715" width="78.75" height="1.83691406"></rect>
                <rect id="Rectangle-Copy-28" fill="#DDE8F0" x="2.64155273" y="11.0698242" width="78.75" height="1.83691406"></rect>
                <rect id="Rectangle-Copy-32" fill="#DDE8F0" x="2.64155273" y="27.656543" width="78.75" height="1.83691406"></rect>
                <rect id="Rectangle-Copy-29" fill="#DDE8F0" x="2.64155273" y="15.2230957" width="78.75" height="1.83691406"></rect>
                <rect id="Rectangle-Copy-33" fill="#DDE8F0" x="2.64155273" y="31.8098145" width="78.75" height="1.83691406"></rect>
                <rect id="Rectangle-Copy-30" fill="#DDE8F0" x="2.64155273" y="19.3763672" width="78.75" height="1.83691406"></rect>
                <rect id="Rectangle-Copy-34" fill="#DDE8F0" x="2.64155273" y="35.9630859" width="78.75" height="1.83691406"></rect>
            </g>
            <g id="Group" transform="translate(76.500000, 38.250000)">
                <rect id="Rectangle" stroke="#979797" stroke-width="0.9" fill="#000000" x="-0.45" y="-0.45" width="63.6923077" height="27.9" rx="1.8"></rect>
                <ellipse id="Oval" stroke="#FFFFFF" stroke-width="0.9" fill="#E62D36" cx="31.3961538" cy="13.5" rx="28.2868805" ry="8.775"></ellipse>
                <text id="PELIGRO" font-family="OpenSans-ExtraBold, Open Sans" font-size="9" font-weight="600" fill="#FFFFFF">
                    <tspan x="11.5961538" y="17.2">PELIGRO</tspan>
                </text>
            </g>
            <rect id="Rectangle-Copy-12" fill="#CBEAFF" x="18" y="0" width="179.917873" height="9"></rect>
            <rect id="Rectangle-Copy-14" fill="#CBEAFF" x="189" y="9" width="9" height="261"></rect>
            <rect id="Rectangle-Copy-15" fill="#CBEAFF" x="18" y="9" width="9" height="261"></rect>
            <rect id="Rectangle" fill="#05ABE8" x="14.4" y="40.4732123" width="3.6" height="37.8535754"></rect>
            <rect id="Rectangle-Copy-5" fill="#05ABE8" x="14.4" y="237.6" width="3.6" height="37.8535754"></rect>
            <rect id="Rectangle-Copy-3" fill="#A8CAE4" x="0" y="0" width="14.4" height="290"></rect>
            <path d="M0,49.5 L14.4,49.5 C15.8911688,49.5 17.1,50.7088312 17.1,52.2 L17.1,115.65 L17.1,115.65 L17.1,179.1 C17.1,180.591169 15.8911688,181.8 14.4,181.8 L0,181.8 L0,181.8 L0,49.5 Z" id="Rectangle" fill="#E9E9E9"></path>
            <rect id="Rectangle-Copy-3" fill="#DDF0FF" x="0" y="0" width="12" height="290"></rect>
            <rect id="Rectangle-Copy" fill="#FFFFFF" x="17.1" y="79.65" width="12.15" height="72"></rect>
            <path d="M29.25,95.85 L33.4775391,95.85 C35.2570312,102.45 36.1467773,109.05 36.1467773,115.65 C36.1467773,122.25 35.2570312,128.85 33.4775391,135.45 L29.25,135.45 L29.25,95.85 Z" id="Rectangle-Copy-2" fill="#4980AC"></path>
            <rect id="Rectangle" fill="#2B6391" transform="translate(37.618454, 119.310593) rotate(2.000000) translate(-37.618454, -119.310593) " x="35.819395" y="115.710593" width="3.59811854" height="7.2"></rect>
            <rect id="Rectangle" fill="#FFFFFF" x="17.1" y="59.4" width="1.8" height="11.7"></rect>
            <rect id="Rectangle-Copy-4" fill="#FFFFFF" x="17.1" y="160.2" width="1.8" height="11.7"></rect>
        </g>
        <g id="Group" transform="translate(159.839730, 88.800000)">
            <path d="M41.2333179,7.58557572 C44.857005,7.58557572 47.7945839,10.5231546 47.7945839,14.1468417 C47.7945839,14.3278546 47.7870932,14.50879 47.772131,14.6891835 L46.647978,28.242679 L46.647978,28.242679 L36.1303179,28.242679 L34.8007368,14.6795715 C34.4524766,11.1269551 37.0501205,7.96466977 40.6027369,7.61640951 C40.8123028,7.59586592 41.0227474,7.58557572 41.2333179,7.58557572 Z" id="Rectangle" fill="#A9B6C0"></path>
            <g id="Path" fill-rule="nonzero" transform="translate(28.273318, 67.811891) rotate(30.000000) translate(-28.273318, -67.811891) ">
                <use fill="#FFFFFF" xlink:href="#path-1"></use>
                <use fill="black" fill-opacity="1" filter="url(#filter-2)" xlink:href="#path-1"></use>
            </g>
            <g id="Rectangle-+-Rectangle-Copy-3-Mask" transform="translate(18.576000, 84.785228) rotate(30.000000) translate(-18.576000, -84.785228) translate(4.320000, 73.121228)">
                <mask id="mask-4" fill="white">
                    <use xlink:href="#path-3"></use>
                </mask>
                <use id="Mask" fill="#FFE94D" xlink:href="#path-3"></use>
                <rect id="Rectangle" fill="#D6C024" mask="url(#mask-4)" x="0" y="0" width="2.71945508" height="22.8667696"></rect>
                <rect id="Rectangle-Copy-3" fill="#D6C024" mask="url(#mask-4)" x="25.6154551" y="0" width="2.71945508" height="22.8667696"></rect>
            </g>
            <path d="M51.57031,28.242679 C53.0018321,28.242679 54.16231,29.4031569 54.16231,30.834679 L54.16231,73.410679 C54.16231,74.8422011 53.0018321,76.002679 51.57031,76.002679 L30.8653179,76.002679 C29.4337958,76.002679 28.2733179,74.8422011 28.2733179,73.410679 L28.2733179,30.834679 C28.2733179,29.4031569 29.4337958,28.242679 30.8653179,28.242679 L51.57031,28.242679 Z M35.1750639,62.4265835 C33.0829829,62.4265835 31.3870162,64.1225503 31.3870162,66.2146313 C31.3870162,68.3067123 33.0829829,70.002679 35.1750639,70.002679 C37.2671449,70.002679 38.9631116,68.3067123 38.9631116,66.2146313 C38.9631116,64.1225503 37.2671449,62.4265835 35.1750639,62.4265835 Z M47.2915718,62.4265835 C45.1994908,62.4265835 43.5035241,64.1225503 43.5035241,66.2146313 C43.5035241,68.3067123 45.1994908,70.002679 47.2915718,70.002679 C49.3836528,70.002679 51.0796196,68.3067123 51.0796196,66.2146313 C51.0796196,64.1225503 49.3836528,62.4265835 47.2915718,62.4265835 Z M35.1750639,48.0265835 C33.0829829,48.0265835 31.3870162,49.7225503 31.3870162,51.8146313 C31.3870162,53.9067123 33.0829829,55.602679 35.1750639,55.602679 C37.2671449,55.602679 38.9631116,53.9067123 38.9631116,51.8146313 C38.9631116,49.7225503 37.2671449,48.0265835 35.1750639,48.0265835 Z M47.2915718,48.0265835 C45.1994908,48.0265835 43.5035241,49.7225503 43.5035241,51.8146313 C43.5035241,53.9067123 45.1994908,55.602679 47.2915718,55.602679 C49.3836528,55.602679 51.0796196,53.9067123 51.0796196,51.8146313 C51.0796196,49.7225503 49.3836528,48.0265835 47.2915718,48.0265835 Z M35.1750639,33.6265835 C33.0829829,33.6265835 31.3870162,35.3225503 31.3870162,37.4146313 C31.3870162,39.5067123 33.0829829,41.202679 35.1750639,41.202679 C37.2671449,41.202679 38.9631116,39.5067123 38.9631116,37.4146313 C38.9631116,35.3225503 37.2671449,33.6265835 35.1750639,33.6265835 Z M47.2915718,33.6265835 C45.1994908,33.6265835 43.5035241,35.3225503 43.5035241,37.4146313 C43.5035241,39.5067123 45.1994908,41.202679 47.2915718,41.202679 C49.3836528,41.202679 51.0796196,39.5067123 51.0796196,37.4146313 C51.0796196,35.3225503 49.3836528,33.6265835 47.2915718,33.6265835 Z" id="Combined-Shape" fill="#FF6060"></path>
            <g id="Rectangle">
                <use fill="#8396A5" fill-rule="evenodd" xlink:href="#path-5"></use>
                <use fill="black" fill-opacity="1" filter="url(#filter-6)" xlink:href="#path-5"></use>
            </g>
            <g id="Group-5" transform="translate(47.223532, 92.525574) rotate(-10.000000) translate(-47.223532, -92.525574) translate(26.223532, 66.025574)">
                <path d="M33.12,0 L41.04,8.64 L41.04,52.56 L0,52.56 L0,8.64 L7.2,0 L33.12,0 Z M34.9305469,8.51899219 L5.45765625,8.51899219 L5.45765625,14.2789922 L34.9305469,14.2789922 L34.9305469,8.51899219 Z" id="Combined-Shape" fill="#FFFFFF"></path>
                <rect id="Rectangle" fill="#FF6060" x="24.48" y="22.0074609" width="10.8854297" height="10.8854297"></rect>
                <rect id="Rectangle-Copy" fill="#E62D36" x="5.04" y="35.8983984" width="30.3254297" height="3.08285156"></rect>
                <rect id="Rectangle" fill="#B8B8B8" x="5.21472656" y="17.28" width="29.8905469" height="1.6115625"></rect>
                <rect id="Rectangle-Copy-7" fill="#D8D8D8" x="5.21472656" y="22.0074609" width="16.56" height="1.6115625"></rect>
                <rect id="Rectangle-Copy-9" fill="#D8D8D8" x="5.21472656" y="28.1900391" width="16.56" height="1.6115625"></rect>
                <rect id="Rectangle-Copy-12" fill="#D8D8D8" x="5.21472656" y="43.5522656" width="29.8905469" height="1.6115625"></rect>
                <rect id="Rectangle-Copy-8" fill="#D8D8D8" x="5.21472656" y="25.09875" width="16.56" height="1.6115625"></rect>
                <rect id="Rectangle-Copy-13" fill="#D8D8D8" x="5.21472656" y="40.4609766" width="29.8905469" height="1.6115625"></rect>
                <rect id="Rectangle-Copy-11" fill="#D8D8D8" x="5.21472656" y="31.2813281" width="16.56" height="1.6115625"></rect>
                <rect id="Rectangle-Copy-14" fill="#D8D8D8" x="5.21472656" y="46.6435547" width="29.8905469" height="1.6115625"></rect>
            </g>
            <g id="Path" transform="translate(27.865318, 62.327891)">
                <mask id="mask-8" fill="white">
                    <use xlink:href="#path-7"></use>
                </mask>
                <use id="Mask" fill="#D8D8D8" opacity="0" xlink:href="#path-7"></use>
                <g fill-rule="nonzero" mask="url(#mask-8)" transform="translate(0.408000, 5.484000) rotate(30.000000) translate(-0.408000, -5.484000) ">
                    <use fill="#FFFFFF" xlink:href="#path-9"></use>
                    <use fill="black" fill-opacity="1" filter="url(#filter-10)" xlink:href="#path-9"></use>
                </g>
            </g>
        </g>
        <g id="Group-2" transform="translate(44.500000, 122.000000)">
            <path d="M16.6057292,33.6234778 L14.6125651,38.5731849 L14.0323277,40.5446458 C13.6590471,41.812934 13.660497,43.1621088 14.0365028,44.4295918 C14.3687894,45.5497011 15.4630309,46.2646661 16.6222866,46.1191136 L16.8454753,46.0910908 C18.3175484,45.906262 19.7341427,45.4132652 21.0029065,44.6442403 L22.8613444,43.5178014 L22.8613444,43.5178014 L22.8613444,44.8307733 C22.8613444,45.8344015 23.1647339,46.8145885 23.7317058,47.6427265 C24.2764063,48.4383342 25.1785372,48.9140052 26.1427417,48.9140052 L26.8574382,48.9140052 C28.2965716,48.9140052 29.6716932,48.3191163 30.6570783,47.2702497 L31.5014812,46.3714479 L31.5014812,46.3714479 L37.693864,44.1835364 L47.4113851,38.5731849 L55.7173015,30.4784583 L53.2329265,21.5292395 L47.4113851,16.1835364 L29.2592937,10.3456458 L20.0483562,13.399845 L14.168001,18.9510144 C10.1989275,22.6978969 6.84452671,27.0463232 4.22800733,31.8365736 L1.30891153,37.1807725 C0.494929135,38.6709887 0.508105436,40.475871 1.34375815,41.9540442 C2.11050007,43.3103222 3.76972689,43.8798369 5.20777346,43.2803328 L6.35584719,42.8017148 C8.76476866,41.7974647 10.8913237,40.2189477 12.5499468,38.2039067 L17.4694721,32.2272357 L17.4694721,32.2272357 L20.0483562,29.094181 L27.2484994,23.1807045 C28.5870032,22.0813916 30.0089483,21.0878053 31.5014812,20.208927 L31.5014812,20.208927 L31.5014812,20.208927" id="Path-42" fill="#F6DC24"></path>
            <polygon id="Path" fill="#4980AC" fill-rule="nonzero" points="105.5 53.55 82.78125 97.9238281 198.662109 197 262.749677 102.452454 227.842301 39.2421302 185.170426 119.708029"></polygon>
            <path d="M81.1025391,104 L72.9169911,83.9456547 C70.8928381,78.9865412 67.2490983,74.8589633 62.5793539,72.2353229 L60.3049075,70.9574523 C57.0160654,69.1096554 53.8344167,67.0772375 50.7752183,64.8699447 L35.7153483,54.0038489 L35.7153483,54.0038489 L20.8676921,41.0272864 L15.8520395,36.9092784 C14.3222657,35.6532862 14.0172045,33.4313424 15.1518718,31.8095364 C16.3819732,30.0513242 18.5075096,29.1491673 20.6267405,29.4857979 L23.5454265,29.9494185 C27.7399036,30.615693 31.7145344,32.2743274 35.1384042,34.7872292 L38.7116089,37.4097334 C40.3565752,38.6170336 42.668794,38.2622352 43.8760942,36.6172689 C44.230263,36.1347082 44.4618795,35.5733199 44.5510131,34.9814114 C45.1328943,31.1173197 44.1216466,27.182519 41.7487745,24.0778018 L40.5883952,22.5595364 C37.446271,18.448313 32.92253,15.6130351 27.8527583,14.5774106 L6.26355342,10.1672887 C4.17821409,9.7413073 2.29662949,8.62663188 0.921158887,7.00238408 L0.910222629,6.98946981 C-0.307533641,5.55146166 -0.302902051,3.44259775 0.921158887,2.00995244 C2.23732606,0.469505654 4.26858237,-0.262241105 6.26476051,0.0849550074 L52.9293334,8.20134398 C57.8016815,9.04879354 62.246382,11.5131922 65.5461732,15.1968486 L90.2896877,42.8187801 L90.2896877,42.8187801 L117.800781,56.2441406" id="Path-41" fill="#FFE94D"></path>
        </g>
        <path d="M280.947099,149.142107 L337.757813,122 L337.757813,122 L330,307.85 L269,307.85 L269,168.09059 C269,160.000438 273.647285,152.629695 280.947099,149.142107 Z" id="Rectangle" fill="#FFB116"></path>
        <g id="Group-11" transform="translate(223.000000, 7.000000)">
            <path d="M5.1277704,-2.07168062e-16 L64.8722296,2.07168062e-16 C66.6552671,-1.2037061e-16 67.3018396,0.185651222 67.9536914,0.534265408 C68.6055433,0.882879593 69.1171204,1.39445674 69.4657346,2.04630859 C69.8143488,2.69816044 70,3.34473292 70,5.1277704 L70,64.8722296 C70,66.6552671 69.8143488,67.3018396 69.4657346,67.9536914 C69.1171204,68.6055433 68.6055433,69.1171204 67.9536914,69.4657346 C67.3018396,69.8143488 66.6552671,70 64.8722296,70 L5.1277704,70 C3.34473292,70 2.69816044,69.8143488 2.04630859,69.4657346 C1.39445674,69.1171204 0.882879593,68.6055433 0.534265408,67.9536914 C0.185651222,67.3018396 8.02470732e-17,66.6552671 -1.38112041e-16,64.8722296 L1.38112041e-16,5.1277704 C-8.02470732e-17,3.34473292 0.185651222,2.69816044 0.534265408,2.04630859 C0.882879593,1.39445674 1.39445674,0.882879593 2.04630859,0.534265408 C2.69816044,0.185651222 3.34473292,1.2037061e-16 5.1277704,-2.07168062e-16 Z" id="Rectangle" fill="#46BD8D"></path>
            <g id="Group-5-Copy" transform="translate(17.000000, 16.000000)" fill="#FFFFFF">
                <path d="M17.7140791,7.10542736e-14 C27.4972948,7.10542736e-14 35.4281581,7.93086334 35.4281581,17.7140791 C35.4281581,27.4972948 27.4972948,35.4281581 17.7140791,35.4281581 C7.93086334,35.4281581 -5.68434189e-14,27.4972948 -5.68434189e-14,17.7140791 C-5.68434189e-14,7.93086334 7.93086334,7.10542736e-14 17.7140791,7.10542736e-14 Z M22.6147322,11.3056636 L15.5569628,20.2882792 L12.5394248,17.7736642 C11.7439056,17.1107315 10.5615968,17.2182141 9.89866416,18.0137333 C9.23573151,18.8092525 9.34321413,19.9915613 10.1387333,20.654494 L14.6387333,24.404494 C15.4504842,25.080953 16.6605969,24.9533679 17.3134259,24.1224945 L25.5634259,13.6224945 C26.2032011,12.8082352 26.0617538,11.6295073 25.2474945,10.9897322 C24.4332352,10.349957 23.2545073,10.4914043 22.6147322,11.3056636 Z" id="Combined-Shape"></path>
            </g>
        </g>
        <path d="M200.075684,91.0501953 L200.075684,95.5075684 L198,95.5075684 L198,91.0501953 L200.075684,91.0501953 Z M202.131836,95.5075684 L202.131836,91.0501953 L207.648193,91.0501953 L207.648193,88.0283203 L209.723877,88.0283203 L209.723877,95.5075684 L202.131836,95.5075684 Z" id="Combined-Shape" fill="#CBEAFF"></path>
    </g>
</svg>