<?xml version="1.0" encoding="UTF-8"?>
<svg width="300px" height="300px" viewBox="0 0 300 300" version="1.1" xmlns="http://www.w3.org/2000/svg" xmlns:xlink="http://www.w3.org/1999/xlink">
    <title>Funcionamiento balizas</title>
    <defs>
        <polygon id="path-1" points="4.4296875 0 66.4433594 0 71 5.97401495 71 60 0 60 0 5.97401495"></polygon>
        <path d="M10.75,0.518066406 L96.25,0.518066406 C99.3018304,2.19055395 101.72045,3.85722062 103.505859,5.51806641 C105.291269,7.17891219 106.455982,8.84557886 107,10.5180664 L0,10.5180664 C0.621794104,8.85680445 1.83142952,7.19013778 3.62890625,5.51806641 C5.42638298,3.84599503 7.8000809,2.17932836 10.75,0.518066406 Z" id="path-3"></path>
    </defs>
    <g id="Funcionamiento-balizas" stroke="none" stroke-width="1" fill="none" fill-rule="evenodd">
        <rect fill="#F9FDFF" x="0" y="0" width="300" height="300"></rect>
        <path d="M97.5,73 C103.647216,73 108.797897,77.2666734 110.152171,83.000148 L121.5,83 C128.679702,83 134.5,88.8202983 134.5,96 L151.5,96 C158.679702,96 164.5,101.820298 164.5,109 C164.5,116.179702 158.679702,122 151.5,122 L41.5,122 C34.3202983,122 28.5,116.179702 28.5,109 C28.5,101.820298 34.3202983,96 41.5,96 L45.5,96 L45.5,96 C45.5,88.8202983 51.3202983,83 58.5,83 L68.8478287,83.000148 C70.2021026,77.2666734 75.3527838,73 81.5,73 L97.5,73 Z" id="Combined-Shape" fill="#DFF6FF"></path>
        <path d="M221.120123,170.5 C227.267339,170.5 232.41802,174.766673 233.772294,180.500148 L258.120123,180.5 C265.299825,180.5 271.120123,186.320298 271.120123,193.5 L306.120123,193.5 C313.299825,193.5 319.120123,199.320298 319.120123,206.5 C319.120123,213.679702 313.299825,219.5 306.120123,219.5 L116.120123,219.5 C108.940421,219.5 103.120123,213.679702 103.120123,206.5 C103.120123,199.320298 108.940421,193.5 116.120123,193.5 L130.120123,193.5 L130.120123,193.5 C130.120123,186.320298 135.940421,180.5 143.120123,180.5 L167.467952,180.500148 C168.822226,174.766673 173.972907,170.5 180.120123,170.5 L221.120123,170.5 Z" id="Combined-Shape-Copy" fill="#DFF6FF" transform="translate(211.120123, 195.000000) scale(-1, 1) translate(-211.120123, -195.000000) "></path>
        <path d="M0,193.006927 L203.55153,193.006927 C207.995254,193.006927 212.210256,194.977225 215.060243,198.386661 L295.364461,294.45451 L295.364461,294.45451 L295.364461,300 L0,300 L0,193.006927 Z" id="Rectangle" fill="#4980AC"></path>
        <polygon id="Rectangle" fill-opacity="0.37" fill="#FFB116" points="0 112.222656 119 150 119 210 0 254.505859"></polygon>
        <polygon id="Rectangle-Copy" fill-opacity="0.37" fill="#FFB116" transform="translate(240.500000, 183.364258) scale(-1, 1) translate(-240.500000, -183.364258) " points="181 112.222656 300 150 300 210 181 254.505859"></polygon>
        <g id="Group" transform="translate(96.500000, 150.000000)">
            <g id="Rectangle" transform="translate(18.000000, 0.000000)">
                <mask id="mask-2" fill="white">
                    <use xlink:href="#path-1"></use>
                </mask>
                <use id="Mask" fill="#FFB116" xlink:href="#path-1"></use>
                <rect fill="#FFC146" mask="url(#mask-2)" x="0" y="0" width="71" height="7"></rect>
            </g>
            <rect id="Rectangle" fill="#EFA108" x="14.5" y="53" width="78" height="7"></rect>
            <rect id="Rectangle" fill="#272A30" x="10.75" y="60" width="85.5" height="19.0069272"></rect>
            <g id="Line-36-Copy" transform="translate(0.000000, 78.488861)">
                <mask id="mask-4" fill="white">
                    <use xlink:href="#path-3"></use>
                </mask>
                <use id="Mask" fill="#272A30" xlink:href="#path-3"></use>
                <line x1="9.54003906" y1="1" x2="97.5395508" y2="1" stroke="#1B1D22" mask="url(#mask-4)"></line>
            </g>
            <line x1="18" y1="52.5180664" x2="89" y2="52.5180664" id="Line-36" stroke="#CC8700"></line>
            <rect id="Rectangle" fill="#FFE9BE" x="36.0595703" y="11" width="3.14208984" height="17"></rect>
            <rect id="Rectangle-Copy-3" fill="#FFE9BE" x="30.6513672" y="14.6542969" width="3.14208984" height="17"></rect>
            <rect id="Rectangle-Copy-5" fill="#FFE9BE" x="41.4677734" y="14.6542969" width="3.14208984" height="17"></rect>
            <rect id="Rectangle-Copy-2" fill="#FFE9BE" x="36.0595703" y="30" width="3.14208984" height="5.16308594"></rect>
            <rect id="Rectangle-Copy-8" fill="#FFE9BE" x="36.0595703" y="37.1630859" width="3.14208984" height="8.1875"></rect>
            <rect id="Rectangle-Copy-4" fill="#FFE9BE" x="30.6513672" y="33.6542969" width="3.14208984" height="5.16308594"></rect>
            <rect id="Rectangle-Copy-7" fill="#FFE9BE" x="41.4677734" y="33.6542969" width="3.14208984" height="5.16308594"></rect>
        </g>
        <line x1="293" y1="294.5" x2="0" y2="294.5" id="Line-37" stroke="#275B84" stroke-linecap="round"></line>
        <path d="M228.12777,7 L287.87223,7 C289.655267,7 290.30184,7.18565122 290.953691,7.53426541 C291.605543,7.88287959 292.11712,8.39445674 292.465735,9.04630859 C292.814349,9.69816044 293,10.3447329 293,12.1277704 L293,71.8722296 C293,73.6552671 292.814349,74.3018396 292.465735,74.9536914 C292.11712,75.6055433 291.605543,76.1171204 290.953691,76.4657346 C290.30184,76.8143488 289.655267,77 287.87223,77 L228.12777,77 C226.344733,77 225.69816,76.8143488 225.046309,76.4657346 C224.394457,76.1171204 223.88288,75.6055433 223.534265,74.9536914 C223.185651,74.3018396 223,73.6552671 223,71.8722296 L223,12.1277704 C223,10.3447329 223.185651,9.69816044 223.534265,9.04630859 C223.88288,8.39445674 224.394457,7.88287959 225.046309,7.53426541 C225.69816,7.18565122 226.344733,7 228.12777,7 Z" id="Rectangle" fill="#FF9903"></path>
        <g id="Group-2" transform="translate(236.000000, 27.000000)" fill="#FFFFFF">
            <path d="M24.218647,20.6294662 C23.8281227,21.0199905 23.1949577,21.0199905 22.8044334,20.6294662 C22.4139092,20.2389419 22.4139092,19.6057769 22.8044334,19.2152527 C25.7674594,16.2522267 25.8881865,11.5978009 23.1107398,8.82035412 C22.7202155,8.42982983 22.7202155,7.79666485 23.1107398,7.40614056 C23.5012641,7.01561627 24.1344291,7.01561627 24.5249533,7.40614056 C28.1003308,10.981518 27.9467819,16.9013313 24.218647,20.6294662 Z M29.9151,24.331943 C29.5245757,24.7224673 28.8914107,24.7224673 28.5008865,24.331943 C28.1103622,23.9414187 28.1103622,23.3082537 28.5008865,22.9177294 C33.5856721,17.8329438 33.7933718,9.82543851 29.0014516,5.03351827 C28.6109273,4.64299398 28.6109273,4.009829 29.0014516,3.61930471 C29.3919759,3.22878042 30.0251409,3.22878042 30.4156652,3.61930471 C36.0055161,9.20915566 35.7649946,18.4820485 29.9151,24.331943 Z M36.6745105,29.276285 C36.2839862,29.6668093 35.6508212,29.6668093 35.260297,29.276285 C34.8697727,28.8857607 34.8697727,28.2525957 35.260297,27.8620714 C42.6882283,20.43414 42.9919755,8.72369228 35.97539,1.70710678 C35.5848657,1.31658249 35.5848657,0.683417511 35.97539,0.292893219 C36.3659143,-0.0976310729 36.9990793,-0.0976310729 37.3896036,0.292893219 C45.2041198,8.10740942 44.8675508,21.0832447 36.6745105,29.276285 Z" id="Shape" fill-rule="nonzero"></path>
            <path d="M2.4,21.6713893 C1.0745166,21.6713893 -3.0048607e-13,20.5968727 -3.00204306e-13,19.2713893 L-3.00204306e-13,10.6430205 C-3.00366631e-13,9.31753708 1.0745166,8.24302048 2.4,8.24302048 L6.62414062,8.24302048 L17.3115308,1.69867326 C17.8767263,1.35257985 18.6154719,1.53019715 18.9615653,2.09539262 C19.0782193,2.28589705 19.1393828,2.50518113 19.1381707,2.72856115 L19.0053962,27.1991032 C19.0018003,27.8618351 18.4616348,28.3961704 17.7989029,28.3925745 C17.5776638,28.3913741 17.3610631,28.3290343 17.1730346,28.2124434 L6.62414062,21.6713893 L2.4,21.6713893 Z" id="Combined-Shape"></path>
        </g>
        <path d="M118.442797,128.973195 C118.901402,128.66546 119.522642,128.787765 119.830377,129.246369 L119.830377,129.246369 L125.330377,137.442797 C125.638111,137.901402 125.515807,138.522642 125.057203,138.830377 C124.598598,139.138111 123.977358,139.015807 123.669623,138.557203 L123.669623,138.557203 L118.169623,130.360774 C117.861889,129.90217 117.984193,129.280929 118.442797,128.973195 Z M179.057203,128.973195 C179.515807,129.280929 179.638111,129.90217 179.330377,130.360774 L173.830377,138.557203 C173.522642,139.015807 172.901402,139.138111 172.442797,138.830377 C171.984193,138.522642 171.861889,137.901402 172.169623,137.442797 L177.669623,129.246369 C177.977358,128.787765 178.598598,128.66546 179.057203,128.973195 Z M148.682231,125.066895 C149.234515,125.066895 149.682231,125.51461 149.682231,126.066895 L149.682231,126.066895 L149.682231,135.566895 C149.682231,136.119179 149.234515,136.566895 148.682231,136.566895 C148.129946,136.566895 147.682231,136.119179 147.682231,135.566895 L147.682231,135.566895 L147.682231,126.066895 C147.682231,125.51461 148.129946,125.066895 148.682231,125.066895 Z" id="Combined-Shape" fill="#FFB116" fill-rule="nonzero"></path>
    </g>
</svg>