<?xml version="1.0" encoding="UTF-8"?>
<svg width="86px" height="87px" viewBox="0 0 86 87" version="1.1" xmlns="http://www.w3.org/2000/svg" xmlns:xlink="http://www.w3.org/1999/xlink">
    <title>9</title>
    <g id="Page-1" stroke="none" stroke-width="1" fill="none" fill-rule="evenodd">
        <g id="9" transform="translate(1.000000, 1.282278)">
            <polygon id="Fill-456" fill="#FFFFFF" points="-7.10542736e-15 84.081 84.081 84.081 84.081 0 -7.10542736e-15 0"></polygon>
            <polygon id="Stroke-457" stroke="#000000" stroke-width="1.007" points="-7.10542736e-15 84.081 84.081 84.081 84.081 0 -7.10542736e-15 0"></polygon>
            <polygon id="Fill-458" fill="#5F5E5E" points="17.063 69.991 19.577 69.991 19.577 35.993 17.063 35.993"></polygon>
            <g id="Group-473" transform="translate(4.150000, 10.875000)">
                <path d="M4.9015,0.9501 C4.9015,0.9501 1.6885,0.9501 1.6885,4.1631 L1.6885,22.7001 C1.6885,22.7001 1.6885,25.9141 4.9015,25.9141 L23.4385,25.9141 C23.4385,25.9141 26.6515,25.9141 26.6515,22.7001 L26.6515,4.1631 C26.6515,4.1631 26.6515,0.9501 23.4385,0.9501 L4.9015,0.9501 Z" id="Fill-459" fill="#FFFFFF"></path>
                <path d="M4.9015,0.9501 C4.9015,0.9501 1.6885,0.9501 1.6885,4.1631 L1.6885,22.7001 C1.6885,22.7001 1.6885,25.9141 4.9015,25.9141 L23.4385,25.9141 C23.4385,25.9141 26.6515,25.9141 26.6515,22.7001 L26.6515,4.1631 C26.6515,4.1631 26.6515,0.9501 23.4385,0.9501 L4.9015,0.9501 Z" id="Stroke-461" stroke="#5F5E5E" stroke-width="0.905"></path>
                <path d="M16.8199,14.8751 L16.8199,11.5881 C16.8199,11.5881 16.8199,10.5291 14.1879,10.5291 L14.1519,10.5291 C11.5209,10.5291 11.5209,11.5881 11.5209,11.5881 L11.5209,14.8751 C11.5209,14.8751 11.5209,15.4121 12.0569,15.4121 C12.0569,15.4121 12.5939,15.4121 12.5939,14.8751 L12.5939,12.5321 L12.7339,12.5321 L12.7339,19.7101 C12.7339,19.7101 12.7339,20.3821 13.3969,20.3821 C13.3969,20.3821 14.0599,20.3821 14.0599,19.7101 L14.0599,15.6251 L14.2809,15.6251 L14.2809,19.7101 C14.2809,20.3821 14.9429,20.3821 14.9429,20.3821 C15.6059,20.3821 15.6059,19.7101 15.6059,19.7101 L15.6059,12.5321 L15.7459,12.5321 L15.7459,14.8751 C15.7459,15.4121 16.2829,15.4121 16.2829,15.4121 C16.8199,15.4121 16.8199,14.8751 16.8199,14.8751" id="Fill-463" fill="#5F5E5E"></path>
                <path d="M12.8892,8.7635 C12.8862,8.7995 12.8842,8.8355 12.8842,8.8725 C12.8842,9.5825 13.4602,10.1585 14.1702,10.1585 C14.8812,10.1585 15.4572,9.5825 15.4572,8.8725 C15.4572,8.8355 15.4542,8.7995 15.4512,8.7635 L15.3992,8.7635 L15.2642,8.8985 L13.0762,8.8985 L12.9412,8.7635 L12.8892,8.7635 Z" id="Fill-465" fill="#5F5E5E"></path>
                <path d="M15.7876,8.1628 L15.7876,8.1628 L15.5946,8.0208 L15.5946,8.0208 C15.5946,7.5258 15.3376,7.0908 14.9496,6.8408 C14.9226,7.1968 14.8366,7.5368 14.6996,7.8498 C14.6996,7.8508 14.6996,7.8518 14.6996,7.8518 C14.6936,7.8638 14.6816,7.8718 14.6686,7.8718 C14.6496,7.8718 14.6336,7.8568 14.6336,7.8378 C14.6336,7.8348 14.6346,7.8318 14.6356,7.8298 C14.6356,7.8268 14.6366,7.8248 14.6366,7.8238 C14.7436,7.5078 14.8016,7.1688 14.8016,6.8168 C14.8016,6.7968 14.8016,6.7768 14.8006,6.7568 C14.8006,6.7568 14.8006,6.7568 14.8006,6.7568 C14.8006,6.7378 14.7996,6.7178 14.7986,6.6988 C14.7986,6.6978 14.7986,6.6968 14.7986,6.6958 C14.7956,6.6388 14.7596,6.5908 14.7086,6.5718 C14.7076,6.5708 14.7066,6.5708 14.7056,6.5698 C14.5446,6.5128 14.3716,6.4818 14.1906,6.4818 C14.0106,6.4818 13.8376,6.5128 13.6766,6.5698 C13.6756,6.5708 13.6746,6.5708 13.6736,6.5718 C13.6226,6.5908 13.5856,6.6388 13.5836,6.6958 C13.5826,6.6968 13.5826,6.6978 13.5826,6.6988 C13.5826,6.7178 13.5816,6.7378 13.5816,6.7568 C13.5816,6.7568 13.5806,6.7968 13.5806,6.8168 C13.5806,7.1688 13.6386,7.5078 13.7446,7.8238 C13.7456,7.8248 13.7466,7.8278 13.7466,7.8278 C13.7476,7.8308 13.7476,7.8338 13.7476,7.8378 C13.7476,7.8568 13.7326,7.8718 13.7136,7.8718 C13.6996,7.8718 13.6876,7.8638 13.6826,7.8518 C13.6826,7.8518 13.6816,7.8508 13.6816,7.8498 C13.5456,7.5368 13.4596,7.1968 13.4316,6.8408 C13.0446,7.0908 12.7876,7.5258 12.7876,8.0208 L12.7876,8.0208 L12.5946,8.1628 L12.5946,8.1628 C12.5456,8.1998 12.5136,8.2588 12.5136,8.3248 C12.5136,8.4378 12.6056,8.5288 12.7176,8.5288 L13.0576,8.5288 L13.1936,8.6648 L15.1876,8.6648 L15.3236,8.5288 L15.6636,8.5288 C15.7766,8.5288 15.8676,8.4378 15.8676,8.3248 C15.8676,8.2588 15.8366,8.1998 15.7876,8.1628" id="Fill-467" fill="#5F5E5E"></path>
                <path d="M24.6147,13.4318 C24.6147,7.6638 19.9387,2.9878 14.1697,2.9878 C8.4017,2.9878 3.7257,7.6638 3.7257,13.4318 C3.7257,19.1998 8.4017,23.8768 14.1697,23.8768 C19.9387,23.8768 24.6147,19.1998 24.6147,13.4318 M6.1267,13.4318 C6.1267,11.6098 6.7327,9.9308 7.7537,8.5818 L19.0197,19.8488 C17.6717,20.8688 15.9917,21.4758 14.1697,21.4758 C9.7277,21.4758 6.1267,17.8748 6.1267,13.4318 M22.2137,13.4318 C22.2137,15.1818 21.6537,16.8008 20.7037,18.1208 L9.4817,6.8978 C10.8017,5.9488 12.4197,5.3878 14.1697,5.3878 C18.6127,5.3878 22.2137,8.9898 22.2137,13.4318" id="Fill-469" fill="#E62D36"></path>
                <path d="M0.7212,44.6935 C0.7212,43.5705 1.6322,42.6595 2.7552,42.6595 L22.0392,42.6595 C23.1622,42.6595 24.0732,43.5705 24.0732,44.6935 L24.0732,63.9775 C24.0732,65.1005 23.1622,66.0115 22.0392,66.0115 L2.7552,66.0115 C1.6322,66.0115 0.7212,65.1005 0.7212,63.9775 L0.7212,44.6935 Z" id="Stroke-471" stroke="#EE7402" stroke-width="1.314"></path>
            </g>
            <path d="M27.8773,57.132 L5.5353,57.132 M27.8773,60.397 L5.5353,60.397 M27.8773,63.662 L5.5353,63.662 M27.8773,66.927 L5.5353,66.927 M27.8773,70.191 L5.5353,70.191 M27.8773,73.457 L5.5353,73.457 M24.8173,53.97 L24.8183,76.822 M21.4913,53.97 L21.4923,76.822 M18.1653,53.97 L18.1653,76.822 M14.8393,53.97 L14.8393,76.822 M11.5133,53.97 L11.5143,76.822 M8.1873,53.97 L8.1883,76.822 M30.6323,57.132 L28.4883,57.132 M30.6323,73.355 L28.4883,73.355" id="Stroke-474" stroke="#EE7402" stroke-width="0.657"></path>
            <path d="M30.3621,55.5685 C30.3621,54.4455 31.2731,53.5345 32.3961,53.5345 L51.6791,53.5345 C52.8031,53.5345 53.7141,54.4455 53.7141,55.5685 L53.7141,74.8525 C53.7141,75.9755 52.8031,76.8865 51.6791,76.8865 L32.3961,76.8865 C31.2731,76.8865 30.3621,75.9755 30.3621,74.8525 L30.3621,55.5685 Z" id="Stroke-475" stroke="#EE7402" stroke-width="1.314"></path>
            <path d="M53.3682,57.132 L31.0262,57.132 M53.3682,60.397 L31.0262,60.397 M53.3682,63.662 L31.0262,63.662 M53.3682,66.927 L31.0262,66.927 M53.3682,70.191 L31.0262,70.191 M53.3682,73.457 L31.0262,73.457 M50.3082,53.97 L50.3092,76.822 M46.9822,53.97 L46.9832,76.822 M43.6562,53.97 L43.6562,76.822 M40.3302,53.97 L40.3302,76.822 M37.0042,53.97 L37.0052,76.822 M33.6782,53.97 L33.6792,76.822" id="Stroke-477" stroke="#EE7402" stroke-width="0.657"></path>
            <path d="M79.209,55.5684 C79.209,54.4454 78.298,53.5344 77.175,53.5344 L57.891,53.5344 C56.768,53.5344 55.857,54.4454 55.857,55.5684 L55.857,74.8524 C55.857,75.9754 56.768,76.8864 57.891,76.8864 L77.175,76.8864 C78.298,76.8864 79.209,75.9754 79.209,74.8524 L79.209,55.5684 Z" id="Stroke-478" stroke="#EE7402" stroke-width="1.314"></path>
            <path d="M56.2029,57.132 L78.5449,57.132 M56.2029,60.397 L78.5449,60.397 M56.2029,63.662 L78.5449,63.662 M56.2029,66.927 L78.5449,66.927 M56.2029,70.191 L78.5449,70.191 M56.2029,73.457 L78.5449,73.457 M59.2629,53.97 L59.2619,76.822 M62.5889,53.97 L62.5879,76.822 M65.9149,53.97 L65.9149,76.822 M69.2409,53.97 L69.2399,76.822 M72.5669,53.97 L72.5659,76.822 M75.8929,53.97 L75.8919,76.822 M53.4479,57.132 L55.5919,57.132 M53.4479,73.355 L55.5919,73.355" id="Stroke-480" stroke="#EE7402" stroke-width="0.657"></path>
            <polygon id="Fill-481" fill="#000000" points="32.086 62.23 51.994 62.23 51.994 55.404 32.086 55.404"></polygon>
            <g id="Group-488" transform="translate(32.150000, 54.875000)">
                <path d="M9.8895,6.9156 C15.1445,6.9156 19.4045,5.5846 19.4045,3.9416 C19.4045,2.2996 15.1445,0.9686 9.8895,0.9686 C4.6345,0.9686 0.3745,2.2996 0.3745,3.9416 C0.3745,5.5846 4.6345,6.9156 9.8895,6.9156" id="Fill-482" fill="#FFFFFF"></path>
                <path d="M9.8895,6.489 C14.9085,6.489 18.9775,5.349 18.9775,3.942 C18.9775,2.535 14.9085,1.395 9.8895,1.395 C4.8705,1.395 0.8015,2.535 0.8015,3.942 C0.8015,5.349 4.8705,6.489 9.8895,6.489" id="Fill-484" fill="#E62D36"></path>
                <path d="M3.9045,5.2314 L4.5765,5.2314 L4.5765,4.2494 L4.8115,4.2494 C5.3565,4.2494 5.6565,3.9744 5.6565,3.4474 C5.6565,2.9954 5.4255,2.6524 4.9125,2.6524 L3.9045,2.6524 L3.9045,5.2314 Z M4.5765,3.1364 L4.7025,3.1364 C4.8725,3.1364 4.9625,3.2374 4.9625,3.4504 C4.9625,3.6674 4.8725,3.7654 4.7025,3.7654 L4.5765,3.7654 L4.5765,3.1364 Z M5.8235,5.2314 L7.3835,5.2314 L7.3835,4.6824 L6.4945,4.6824 L6.4945,4.1694 L7.2965,4.1694 L7.2965,3.6424 L6.4945,3.6424 L6.4945,3.2014 L7.3505,3.2014 L7.3505,2.6524 L5.8235,2.6524 L5.8235,5.2314 Z M7.5995,5.2314 L9.0985,5.2314 L9.0985,4.6824 L8.2715,4.6824 L8.2715,2.6524 L7.5995,2.6524 L7.5995,5.2314 Z M9.2335,5.2314 L9.9055,5.2314 L9.9055,2.6524 L9.2335,2.6524 L9.2335,5.2314 Z M11.0365,4.2854 L11.2745,4.2854 C11.2705,4.7364 11.1875,4.8264 11.0465,4.8264 C10.8415,4.8264 10.8195,4.6394 10.8195,3.9424 C10.8195,3.2444 10.8415,3.0574 11.0615,3.0574 C11.1405,3.0574 11.1915,3.0964 11.2165,3.1694 C11.2415,3.2374 11.2525,3.3384 11.2525,3.4684 L11.9025,3.4684 C11.9025,2.8444 11.5635,2.6024 11.0865,2.6024 C10.2925,2.6024 10.1255,3.0784 10.1255,3.9424 C10.1255,4.7944 10.1875,5.2824 10.8695,5.2824 C11.0975,5.2824 11.3355,5.2244 11.4265,5.0034 L11.4335,5.0034 L11.4475,5.2314 L11.9025,5.2314 L11.9025,3.8304 L11.0365,3.8304 L11.0365,4.2854 Z M12.1555,5.2314 L12.8265,5.2314 L12.8265,4.1984 L13.0035,4.1984 C13.1665,4.1984 13.2245,4.2744 13.2245,4.5664 L13.2245,4.7404 C13.2245,4.8484 13.2245,5.0944 13.2895,5.2314 L14.0045,5.2314 L14.0045,5.1954 C13.9605,5.1734 13.9465,5.1444 13.9285,5.1154 C13.8955,5.0654 13.8955,4.8914 13.8955,4.7584 L13.8955,4.5384 C13.8955,4.1944 13.7985,3.9894 13.4735,3.9604 L13.4735,3.9524 C13.7805,3.9054 13.9145,3.6824 13.9145,3.3384 C13.9145,2.9414 13.7185,2.6524 13.2065,2.6524 L12.1555,2.6524 L12.1555,5.2314 Z M12.8265,3.1364 L12.9565,3.1364 C13.1595,3.1364 13.2425,3.2264 13.2425,3.4364 C13.2425,3.6204 13.1515,3.7434 12.9605,3.7434 L12.8265,3.7434 L12.8265,3.1364 Z M14.0835,3.9424 C14.0835,4.9064 14.3175,5.2824 15.0045,5.2824 C15.6905,5.2824 15.9255,4.9064 15.9255,3.9424 C15.9255,2.9774 15.6905,2.6024 15.0045,2.6024 C14.3175,2.6024 14.0835,2.9774 14.0835,3.9424 L14.0835,3.9424 Z M14.7765,3.9424 C14.7765,3.2444 14.7985,3.0574 15.0045,3.0574 C15.2095,3.0574 15.2315,3.2444 15.2315,3.9424 C15.2315,4.6394 15.2095,4.8264 15.0045,4.8264 C14.7985,4.8264 14.7765,4.6394 14.7765,3.9424 L14.7765,3.9424 Z" id="Fill-486" fill="#FFFFFF"></path>
            </g>
            <path d="M46.773,43.0735 L48.329,42.2385 L46.773,43.0735 Z M40.159,36.1205 L37.869,38.3255 L37.766,40.1225 L46.773,44.6845 L46.773,43.0735 L44.567,37.3925 L43.72,30.1865 L40.921,28.7475 L40.159,36.1205 Z" id="Fill-489" fill="#E7E7E7"></path>
            <polygon id="Fill-490" fill="#CECECE" points="71.3616 13.1437 40.9136 28.7437 43.7196 30.1857 73.7666 14.5837"></polygon>
            <polygon id="Fill-491" fill="#D1D3D5" points="44.5679 37.3926 43.7199 30.1856 73.7659 14.5826 74.4989 22.1296"></polygon>
            <polygon id="Fill-492" fill="#BEC1C3" points="44.5679 37.3926 46.7719 43.0736 77.1279 26.7926 74.4989 22.1296"></polygon>
            <polygon id="Fill-493" fill="#A1A5A7" points="46.7722 43.0735 46.7722 44.6845 57.5562 38.7765 57.6922 37.8845 66.3262 33.2805 66.8692 33.6745 77.1702 28.0315 77.1272 26.7925"></polygon>
        </g>
    </g>
</svg>