<?xml version="1.0" encoding="UTF-8"?>
<svg width="300px" height="300px" viewBox="0 0 300 300" version="1.1" xmlns="http://www.w3.org/2000/svg" xmlns:xlink="http://www.w3.org/1999/xlink">
    <title>Mantenci칩n m치quina perforadora</title>
    <defs>
        <linearGradient x1="50%" y1="0%" x2="50%" y2="100%" id="linearGradient-1">
            <stop stop-color="#656A75" offset="0%"></stop>
            <stop stop-color="#2A313F" offset="100%"></stop>
        </linearGradient>
    </defs>
    <g id="Mantenci칩n-m치quina-perforadora" stroke="none" stroke-width="1" fill="none" fill-rule="evenodd">
        <rect fill="#F9FDFF" x="0" y="0" width="300" height="300"></rect>
        <polygon id="Path-65" fill="#EDF7FF" points="0 64.9746094 37.391222 90.5821719 86.5557854 102.610645 124.50511 128.472656 188.736328 137.313413 265 163.191895 300 147.171875 300 250 0 253.799176"></polygon>
        <rect id="Rectangle-Copy-10" fill="url(#linearGradient-1)" x="0" y="245" width="300" height="55"></rect>
        <g id="Group-84" transform="translate(13.000000, 32.400000)">
            <polygon id="Fill-1" fill="#2D2F35" points="56.3230545 205.866696 142.59453 205.866696 142.59453 185.996117 56.3230545 185.996117"></polygon>
            <polygon id="Stroke-2" fill="#424851" fill-rule="nonzero" points="104.600221 182.005873 103.08062 182.796281 80.7729637 139.90862 82.292565 139.118212"></polygon>
            <polygon id="Stroke-3" fill="#697485" fill-rule="nonzero" points="108.288843 185.385702 103.730008 187.756866 91.1558482 163.5816 95.7146834 161.210436"></polygon>
            <polygon id="Fill-4" fill="#69717E" points="64.4488648 205.866696 74.1164537 205.866696 74.1164537 16.291609 64.4488648 16.291609"></polygon>
            <path d="M56.3230545,205.866696 L82.2415234,205.866696 L82.2415234,18.1429282 L56.3230545,18.1429282 L56.3230545,205.866696 Z M58.5446376,203.645113 L80.0199404,203.645113 L80.0199404,20.3645113 L58.5446376,20.3645113 L58.5446376,203.645113 Z" id="Fill-5" fill="#C4C7CC"></path>
            <polygon id="Fill-6" fill="#343941" points="56.3230545 18.1429282 82.2415234 18.1429282 82.2415234 4.81342994 56.3230545 4.81342994"></polygon>
            <polygon id="Fill-7" fill="#FFE94D" points="46.1632369 207.347603 11.3584358 207.347603 6.3117396 177.726496 46.1632369 177.726496"></polygon>
            <polygon id="Fill-8" fill="#25272D" points="51.6481032 208.998387 196.325737 208.998387 196.325737 206.85456 51.6481032 206.85456"></polygon>
            <g id="Group-83" transform="translate(0.000000, 0.370264)">
                <path d="M44.6822555,165.137525 L7.79286902,165.137525 C6.97532646,165.137525 6.31181365,165.801038 6.31181365,166.618581 L6.31181365,177.356232 L46.1633109,177.356232 L46.1633109,166.618581 C46.1633109,165.801038 45.4997981,165.137525 44.6822555,165.137525 M44.6822555,165.878053 C45.0902863,165.878053 45.4227832,166.21055 45.4227832,166.618581 L45.4227832,176.615704 L7.05234133,176.615704 L7.05234133,166.618581 C7.05234133,166.21055 7.38483826,165.878053 7.79286902,165.878053 L44.6822555,165.878053" id="Fill-9" fill="#FFB116"></path>
                <polygon id="Stroke-11" fill="#C4C7CC" fill-rule="nonzero" points="57.804332 41.8515868 57.804332 39.8035868 80.7606902 39.8035868 80.7606902 41.8515868"></polygon>
                <polygon id="Stroke-13" fill="#C4C7CC" fill-rule="nonzero" points="57.7117661 66.6929582 57.7117661 64.6449582 80.7606902 64.6449582 80.7606902 66.6929582"></polygon>
                <polygon id="Stroke-13-Copy" fill="#C4C7CC" fill-rule="nonzero" points="57.7117661 91.3666919 57.7117661 89.3186919 80.7606902 89.3186919 80.7606902 91.3666919"></polygon>
                <polygon id="Stroke-17" fill="#C4C7CC" fill-rule="nonzero" points="57.7117661 116.207989 57.7117661 114.495116 80.7606902 114.495116 80.7606902 116.207989"></polygon>
                <polygon id="Stroke-19" fill="#C4C7CC" fill-rule="nonzero" points="57.7117661 141.049287 57.7117661 139.336414 80.7606902 139.336414 80.7606902 141.049287"></polygon>
                <polygon id="Stroke-21" fill="#C4C7CC" fill-rule="nonzero" points="57.4340682 165.890584 57.4340682 164.177711 80.7606902 164.177711 80.7606902 165.890584"></polygon>
                <polygon id="Stroke-23" fill="#424851" fill-rule="nonzero" points="57.4340682 190.731881 57.4340682 189.019008 81.130954 189.019008 81.130954 190.731881"></polygon>
                <path d="M108.344902,205.496284 L91.9429544,205.496284 L91.9429544,186.207759 C91.9429544,185.389476 92.6057267,184.726704 93.4240098,184.726704 L106.863847,184.726704 C107.681389,184.726704 108.344902,185.389476 108.344902,186.207759 L108.344902,205.496284 Z" id="Fill-41" fill="#FFE94D"></path>
                <path d="M184.80483,205.496284 L142.594752,205.496284 L142.594752,183.511498 C142.594752,182.693955 143.257524,182.030443 144.075807,182.030443 L183.323774,182.030443 C184.142057,182.030443 184.80483,182.693955 184.80483,183.511498 L184.80483,205.496284 Z" id="Fill-43" fill="#FFE94D"></path>
                <polygon id="Fill-45" fill="#2D2F35" points="178.14008 216.747417 18.186101 216.747417 4.11607502 208.628272 190.358787 208.628272"></polygon>
                <path d="M10.6287938,189.605374 L9.14625741,180.075524 C9.07664781,179.626023 9.42395529,179.220955 9.87789876,179.220955 L20.6577602,179.220955 C21.067272,179.220955 21.3982879,179.552711 21.3982879,179.961482 L21.3982879,189.491333 C21.3982879,189.900104 21.067272,190.231861 20.6577602,190.231861 L11.3604352,190.231861 C10.995355,190.231861 10.6850739,189.966011 10.6287938,189.605374" id="Fill-47" fill="#FFFFFF"></path>
                <path d="M43.386258,190.232009 L25.169277,190.232009 C24.7605058,190.232009 24.4287494,189.900253 24.4287494,189.491481 L24.4287494,179.96163 C24.4287494,179.552859 24.7605058,179.221103 25.169277,179.221103 L43.386258,179.221103 C43.7950293,179.221103 44.1267857,179.552859 44.1267857,179.96163 L44.1267857,189.491481 C44.1267857,189.900253 43.7950293,190.232009 43.386258,190.232009" id="Fill-49" fill="#FFFFFF"></path>
                <path d="M56.033286,234.0066 C51.7011991,234.0066 48.1777684,230.482428 48.1777684,226.151082 L48.1777684,224.701129 C48.1777684,222.001905 49.5358961,219.52484 51.8100566,218.074887 C54.7284762,216.213941 59.0894438,213.996061 63.2882357,213.996061 C63.5215019,213.996061 63.7540276,214.001985 63.9850723,214.016795 C65.2054619,214.089367 70.3373187,214.17749 87.8567227,214.17749 C108.951394,214.17749 137.075155,214.053822 145.192079,214.016055 C145.888915,214.016055 146.549466,214.099735 147.191503,214.266353 L163.734151,218.545122 C167.202042,219.441161 169.624308,222.56915 169.624308,226.151082 C169.624308,230.482428 166.100137,234.0066 161.76805,234.0066 L56.033286,234.0066 Z" id="Fill-51" fill="#4B4E5A"></path>
                <path d="M50.3990552,224.700536 C50.3990552,222.773683 51.3802544,220.983828 53.0049721,219.94857 C55.6790176,218.243135 59.983705,216.001558 63.8522216,216.234083 C69.668326,216.582872 137.431793,216.274072 145.20215,216.237786 C145.687195,216.235564 146.164836,216.295547 146.63433,216.416994 L163.178459,220.695763 C165.665151,221.338541 167.402429,223.58234 167.402429,226.15049 C167.402429,229.262927 164.880192,231.785165 161.767754,231.785165 L56.0337303,231.785165 C52.9212925,231.785165 50.3990552,229.262927 50.3990552,226.15049 L50.3990552,224.700536 Z" id="Fill-53" fill="#6A707A"></path>
                <polygon id="Stroke-63" fill="#697485" fill-rule="nonzero" points="20.5965476 192.533125 21.4529839 192.533125 21.4529839 205.496802 20.5965476 205.496802"></polygon>
                <polygon id="Stroke-65" fill="#697485" fill-rule="nonzero" points="87.4101394 192.533125 88.2665758 192.533125 88.2665758 205.496802 87.4101394 205.496802"></polygon>
                <polygon id="Stroke-67" fill="#697485" fill-rule="nonzero" points="121.709234 192.533125 122.56567 192.533125 122.56567 205.496802 121.709234 205.496802"></polygon>
                <polygon id="Stroke-69" fill="#697485" fill-rule="nonzero" points="154.138422 192.533125 154.994859 192.533125 154.994859 205.496802 154.138422 205.496802"></polygon>
                <polygon id="Fill-71" fill="#697485" points="58.7297695 4.4431661 62.8026717 4.4431661 62.8026717 0.370263841 58.7297695 0.370263841"></polygon>
                <polygon id="Fill-73" fill="#697485" points="64.962791 4.4431661 67.8197468 4.4431661 67.8197468 0.370263841 64.962791 0.370263841"></polygon>
                <polygon id="Fill-74" fill="#FF6060" points="74.4637611 4.4431661 78.5366634 4.4431661 78.5366634 0.370263841 74.4637611 0.370263841"></polygon>
                <path d="M84.5544876,205.496284 L79.6033195,205.496284 C78.8353923,205.496284 78.213349,204.874241 78.213349,204.107054 L78.213349,167.144355 C78.213349,166.377169 78.8353923,165.754385 79.6033195,165.754385 L84.5544876,165.754385 C85.3216742,165.754385 85.944458,166.377169 85.944458,167.144355 L85.944458,204.107054 C85.944458,204.874241 85.3216742,205.496284 84.5544876,205.496284" id="Fill-75" fill="#FFE94D"></path>
                <path d="M194.104672,192.166786 L2.22136089,192.166786 C0.995047047,192.166786 -0.000222158305,193.161314 -0.000222158305,194.388369 L-0.000222158305,206.524877 L196.326256,206.524877 L196.326256,194.388369 C196.326256,193.161314 195.331727,192.166786 194.104672,192.166786 M194.104672,193.647841 C194.512703,193.647841 194.8452,193.980338 194.8452,194.388369 L194.8452,205.043821 L1.48083321,205.043821 L1.48083321,194.388369 C1.48083321,193.980338 1.81333014,193.647841 2.22136089,193.647841 L194.104672,193.647841" id="Fill-76" fill="#697485"></path>
                <polygon id="Fill-77" fill="#4F5A6B" points="0 209.569334 51.6488438 209.569334 51.6488438 205.0025 0 205.0025"></polygon>
            </g>
        </g>
        <g id="Group-2" transform="translate(165.000000, 169.000000)">
            <rect id="Rectangle" fill="#CDAF4F" x="7.99400866" y="13.062537" width="101.011983" height="132.5" rx="3"></rect>
            <rect id="Rectangle" fill="#FFFFFF" x="14.5" y="18.9262346" width="88" height="114.125074"></rect>
            <path d="M40.2154257,10.4262346 L76.7845743,10.4262346 C80.0982828,10.4262346 82.7845743,13.1125261 82.7845743,16.4262346 L82.7845743,23.4262346 L82.7845743,23.4262346 L34.2154257,23.4262346 L34.2154257,16.4262346 C34.2154257,13.1125261 36.9017172,10.4262346 40.2154257,10.4262346 Z" id="Rectangle" fill="#ADADAD"></path>
            <circle id="Oval" stroke="#ADADAD" stroke-width="4" cx="58.5" cy="6.5312685" r="4.5312685"></circle>
            <rect id="Rectangle-Copy-2" fill="#DFDFDF" x="20.5" y="37.6385962" width="65" height="1.5" rx="0.75"></rect>
            <rect id="Rectangle-Copy-3" fill="#DFDFDF" x="20.5" y="53.9417076" width="39.550293" height="1.5" rx="0.75"></rect>
            <rect id="Rectangle-Copy-5" fill="#DFDFDF" x="20.5" y="86.5479305" width="39.550293" height="1.5" rx="0.75"></rect>
            <rect id="Rectangle-Copy-4" fill="#DFDFDF" x="20.5" y="70.2448191" width="34.6813965" height="1.5" rx="0.75"></rect>
            <rect id="Rectangle-Copy-7" fill="#DFDFDF" x="20.5" y="102.851042" width="34.6813965" height="1.5" rx="0.75"></rect>
            <polyline id="Path-6-Copy-2" stroke="#46BD8D" stroke-width="2" stroke-linecap="round" stroke-linejoin="round" points="89.5 39.7906686 91.6031086 41.8937771 96.5103619 34.8834153"></polyline>
            <polyline id="Path-6-Copy-3" stroke="#46BD8D" stroke-width="2" stroke-linecap="round" stroke-linejoin="round" points="89.5 56.09378 91.6031086 58.1968886 96.5103619 51.1865267"></polyline>
            <polyline id="Path-6-Copy-4" stroke="#46BD8D" stroke-width="2" stroke-linecap="round" stroke-linejoin="round" points="89.5 72.3968914 91.6031086 74.5 96.5103619 67.4896381"></polyline>
            <polyline id="Path-6-Copy-6" stroke="#46BD8D" stroke-width="2" stroke-linecap="round" stroke-linejoin="round" points="89.5 87.9500029 91.6031086 90.0531114 96.5103619 83.0427496"></polyline>
            <polyline id="Path-6-Copy-5" stroke="#46BD8D" stroke-width="2" stroke-linecap="round" stroke-linejoin="round" points="89.5 105.003114 91.6031086 107.106223 96.5103619 100.095861"></polyline>
            <path d="M11.3869581,91.4937433 L12,83.562537 L12,83.562537 C12,81.2153268 13.9027898,79.312537 16.25,79.312537 C18.5972102,79.312537 20.5,81.2153268 20.5,83.562537 C20.1409322,87.5948907 20.1409322,92.074045 20.5,97 C21.0386017,104.388932 23,109.905453 23,114 C23,114.187721 22.5050773,116.318129 22.5,116.5 C22.2734735,124.614286 17.0223057,122 10,122 C5.81133821,122 3.02674887,124.018316 1.5,119.5 C0.409779035,116.27356 1.13686838e-13,107.067307 1.13686838e-13,103.5 C1.13686838e-13,101.317251 0.459780108,96.1973351 1.37934032,88.1402528 C2.44369114,83.1225989 4.71630375,78.4404355 8,74.5 L8,82.3304823 C8,85.3699702 8.46190912,88.3918083 9.36990752,91.2925024 L9.5,91.7080961 C9.6595409,92.2177659 10.2020433,92.5016014 10.7117131,92.3420605 C11.0890657,92.2239386 11.356486,91.8879758 11.3869581,91.4937433 Z" id="Path" fill="#FFE1A6"></path>
            <rect id="Rectangle" fill="#FFFFFF" x="1.13686838e-13" y="114" width="24" height="8"></rect>
            <rect id="Rectangle-Copy-6" fill="#FFB116" x="5.68434189e-14" y="122" width="24" height="9"></rect>
        </g>
        <path d="M228.12777,7 L287.87223,7 C289.655267,7 290.30184,7.18565122 290.953691,7.53426541 C291.605543,7.88287959 292.11712,8.39445674 292.465735,9.04630859 C292.814349,9.69816044 293,10.3447329 293,12.1277704 L293,71.8722296 C293,73.6552671 292.814349,74.3018396 292.465735,74.9536914 C292.11712,75.6055433 291.605543,76.1171204 290.953691,76.4657346 C290.30184,76.8143488 289.655267,77 287.87223,77 L228.12777,77 C226.344733,77 225.69816,76.8143488 225.046309,76.4657346 C224.394457,76.1171204 223.88288,75.6055433 223.534265,74.9536914 C223.185651,74.3018396 223,73.6552671 223,71.8722296 L223,12.1277704 C223,10.3447329 223.185651,9.69816044 223.534265,9.04630859 C223.88288,8.39445674 224.394457,7.88287959 225.046309,7.53426541 C225.69816,7.18565122 226.344733,7 228.12777,7 Z" id="Rectangle" fill="#4980AC"></path>
        <g id="Group-8" transform="translate(236.055000, 19.670000)" fill="#FFFFFF">
            <path d="M19.5833061,6.53296875 C19.1580468,6.53296875 18.8133061,6.18822801 18.8133061,5.76296875 C18.8133061,5.7095781 18.8188591,5.65633222 18.8298755,5.60409047 L20.0451308,-0.158878284 C20.1202426,-0.515072098 20.4345343,-0.77 20.7985615,-0.77 L23.3994385,-0.77 C23.7634657,-0.77 24.0777574,-0.515072098 24.1528692,-0.158878284 L25.3681245,5.60409047 C25.4558706,6.0201987 25.1896804,6.42865331 24.7735722,6.51639936 C24.7213304,6.52741575 24.6680846,6.53296875 24.6146939,6.53296875 L23.4724424,6.53296875 L23.4724424,20.02 L27.0137656,20.02 L27.0137656,40.81 C27.0137656,42.511037 25.6348027,43.89 23.9337656,43.89 L20.2642344,43.89 C18.5631973,43.89 17.1842344,42.511037 17.1842344,40.81 L17.1842344,20.02 L20.7255576,20.02 L20.7255576,6.53296875 L19.5833061,6.53296875 Z" id="Combined-Shape" transform="translate(22.099000, 21.560000) rotate(45.000000) translate(-22.099000, -21.560000) "></path>
            <path d="M26.334,-0.723834281 C25.5897911,-0.723834281 24.9160369,-0.422182985 24.4283373,0.0655198753 C23.9406367,0.553223791 23.6389909,1.22697991 23.639,1.97119018 L23.639,8.47 C23.639,8.89525926 23.4666296,9.28025926 23.1879444,9.55894444 C22.9092593,9.83762963 22.5242593,10.01 22.099,10.01 C21.6737407,10.01 21.2887407,9.83762963 21.0100556,9.55894444 C20.7313704,9.28025926 20.559,8.89525926 20.559,8.47 L20.559,1.97115017 C20.559,1.10180954 20.1396434,0.285854821 19.4327693,-0.220190728 C18.8276482,-0.653392038 18.1042246,-0.800309088 17.4237795,-0.687646049 C16.7433353,-0.574983145 16.1058698,-0.202740517 15.6726648,0.402376923 C13.1258361,3.95993675 11.935,6.84017282 11.935,9.009 C11.935,11.0570126 12.5410359,12.9634007 13.5828937,14.5591344 C14.5183652,15.9919245 15.8058472,17.1738934 17.3224149,17.98269 L17.3224149,41.58 C17.3224149,42.5368333 17.7102482,43.4030833 18.3372899,44.030125 C18.9643316,44.6571667 19.8305816,45.045 20.7874149,45.045 L23.4105851,45.045 C24.3674184,45.045 25.2336684,44.6571667 25.8607101,44.030125 C26.4877518,43.4030833 26.8755851,42.5368333 26.8755851,41.58 L26.8755851,17.98269 C28.3921528,17.1738934 29.6796348,15.9919245 30.6151063,14.5591344 C31.6569641,12.9634007 32.263,11.0570126 32.263,9.009 C32.263,6.84017706 31.0721688,3.9599481 28.525355,0.402404547 C28.0193065,-0.304474602 27.2033464,-0.723834281 26.334,-0.723834281 Z" id="Path" stroke="#4980AC" stroke-width="2.31" transform="translate(22.099000, 22.160519) scale(-1, 1) rotate(45.000000) translate(-22.099000, -22.160519) "></path>
        </g>
    </g>
</svg>