<svg xmlns="http://www.w3.org/2000/svg" viewBox="0 0 182 182"><defs><style>.cls-1{fill:#ed1c24;}.cls-2{fill:#fedb10;}.cls-3{fill:#cecece;}.cls-4{fill:#fff276;}.cls-5{fill:#5f5e5e;}.cls-6{fill:#f4e200;}.cls-7{fill:#00a3c0;}.cls-8{fill:none;}.cls-9{fill:#e73841;}.cls-10{fill:#f9eb3d;}.cls-11{fill:#efdf4d;}</style></defs><g id="Capa_2" data-name="Capa 2"><g id="Capa_3" data-name="Capa 3"><path d="M69.25,114.5h-9.5V105h9.5Zm-9-.5h8.5v-8.5h-8.5Z"/><rect x="64.25" y="114" width="0.5" height="11.5"/><circle cx="64.67" cy="108.5" r="0.5"/><rect x="64.17" y="110" width="1" height="2" rx="0.5"/><rect x="63.67" y="109" width="2" height="2" rx="0.5"/><path class="cls-1" d="M64.5,113.5a3.75,3.75,0,1,1,3.75-3.75A3.75,3.75,0,0,1,64.5,113.5Zm0-7a3.25,3.25,0,1,0,3.25,3.25A3.26,3.26,0,0,0,64.5,106.5Z"/><rect class="cls-1" x="64.33" y="106.17" width="0.5" height="7" transform="translate(-59.25 80.3) rotate(-46.17)"/><polygon class="cls-2" points="71.77 120.53 71.77 114.93 70.74 114.93 70.56 114.93 69.53 114.93 69.53 120.53 67.56 122.5 67.56 124.5 70.56 124.5 70.74 124.5 73.74 124.5 73.74 122.5 71.77 120.53"/><path d="M73.87,124.62H67.43v-2.17l0,0,1.93-1.93V114.8h2.49v5.68l2,2Zm-6.19-.24h5.94v-1.83l-2-2v-5.53h-2v5.53l0,0-1.94,1.93Z"/><circle cx="86.5" cy="111.5" r="1.5"/><path d="M86.5,113.12a1.62,1.62,0,1,1,1.62-1.62A1.61,1.61,0,0,1,86.5,113.12Zm0-3a1.38,1.38,0,1,0,1.38,1.38A1.38,1.38,0,0,0,86.5,110.12Z"/><path d="M86,114a3.1,3.1,0,0,1,2,1c1,1,1,4,1,4a1,1,0,0,1-1,1v4l-.33,1.5H84.78L85,124v-7s-2,1-3,0l-2-2s-.72-.5.64-.75c0,0,1.36,1.75,2.36,1.75s1.22-1.5,2.11-1.75L86,114"/><path d="M87.77,125.62H84.63l.25-1.64v-6.79c-.53.23-2.09.78-3-.1l-2-2s-.27-.2-.22-.45.35-.41.93-.51l.07,0,0,.06s1.33,1.71,2.26,1.71c.48,0,.77-.41,1.07-.84a2.07,2.07,0,0,1,1-.91l.92-.25a3.22,3.22,0,0,1,2.09,1c1,1,1,4,1,4.09a1.08,1.08,0,0,1-1,1.12V124Zm-2.85-.24h2.65l.31-1.41v-4.09H88a.86.86,0,0,0,.88-.88s0-3-1-3.91a3,3,0,0,0-1.89-1l-.87.24a1.81,1.81,0,0,0-.88.82c-.32.46-.66.93-1.27.93-1,0-2.15-1.41-2.41-1.73-.59.11-.65.27-.65.3s.08.17.13.21l2,2c.92.93,2.83,0,2.85,0l.18-.09V124Z"/><path class="cls-3" d="M104.75,88c.12.33,40.06,0,40.06,0l-.38-1.29-3.93-.38s-3.63-2.55-3.13-2.78-4.62-.26-4.62-.26l-1.69-1.63-6.25-2.07-4.53-1-4.16.67-2.5,3.3-.62,2-2.13.07-1.62,1.48Z"/><rect class="cls-4" x="115.13" y="100.47" width="1" height="2.66"/><polygon class="cls-4" points="116.88 100.48 116.88 103.13 120.13 103.13 120.13 100.5 116.88 100.48"/><polygon class="cls-4" points="124.88 100.54 124.88 103.13 129.13 103.13 129.13 100.57 124.88 100.54"/><polygon class="cls-4" points="120.88 100.51 120.88 103.13 124.13 103.13 124.13 100.53 120.88 100.51"/><polygon class="cls-4" points="124.13 99.78 124.13 98.38 120.88 98.38 120.88 99.76 124.13 99.78"/><polygon class="cls-4" points="120.13 99.75 120.13 98.38 116.88 98.38 116.88 99.73 120.13 99.75"/><polygon class="cls-4" points="124.88 98.38 124.88 99.79 129.13 99.82 129.13 98.38 124.88 98.38"/><polygon class="cls-4" points="129.88 99.83 132.75 99.85 132.75 98.38 129.88 98.38 129.88 99.83"/><rect class="cls-4" x="115.13" y="98.38" width="1" height="1.34"/><polygon class="cls-4" points="115.13 104.63 131.38 104.63 131.38 107.75 132.88 107.75 132.88 103.88 115.13 103.88 115.13 104.63"/><polygon class="cls-4" points="132.75 97.13 132.13 97.13 131.88 97.13 128.13 97.13 127.88 97.13 118.13 97.13 117.88 97.13 115.13 97.13 115.13 97.63 132.75 97.63 132.75 97.13"/><polygon class="cls-4" points="132.75 101.25 132.75 100.6 129.88 100.58 129.88 103.13 132.88 103.13 132.88 102.88 132.88 101.25 132.75 101.25"/><polygon class="cls-5" points="103.88 109.13 103.88 108.25 103.25 108.25 103.25 124.75 107.25 124.75 107.25 109.13 103.88 109.13"/><polygon class="cls-5" points="110.88 113.13 110.88 109.13 107.75 109.13 107.75 124.75 112.25 124.75 112.25 113.13 110.88 113.13"/><rect class="cls-5" x="100.25" y="108.25" width="2.5" height="16.5"/><polygon class="cls-5" points="113.88 118.88 114.63 118.88 114.63 113.13 114.13 113.13 113.88 113.13 112.75 113.13 112.75 124.75 115.75 124.75 115.75 121.13 113.88 121.13 113.88 118.88"/><polygon points="116 125 112.75 125 112.5 125 112.25 125 107.75 125 107.5 125 107.25 125 103.25 125 103 125 102.75 125 100 125 100 108 102.75 108 103 108 103.25 108 103.78 108 103.88 108 103.88 107.75 99.75 107.75 99.75 125.25 116.25 125.25 116.25 121.13 116 121.13 116 125"/><rect x="103.25" y="124.75" width="4" height="0.25"/><polygon points="115.75 124.75 112.75 124.75 112.75 125 116 125 116 121.13 115.75 121.13 115.75 124.75"/><rect x="107.75" y="124.75" width="4.5" height="0.25"/><polygon points="100.25 124.75 100.25 108.25 102.75 108.25 102.75 108 100 108 100 125 102.75 125 102.75 124.75 100.25 124.75"/><polygon points="103.88 108.25 103.88 108 103.78 108 103.25 108 103.25 108.25 103.88 108.25"/><rect x="102.75" y="108.25" width="0.25" height="16.5"/><rect x="103" y="108.25" width="0.25" height="16.5"/><rect x="103" y="108" width="0.25" height="0.25"/><rect x="102.75" y="108" width="0.25" height="0.25"/><rect x="103" y="124.75" width="0.25" height="0.25"/><rect x="102.75" y="124.75" width="0.25" height="0.25"/><rect x="107.5" y="109.13" width="0.25" height="15.63"/><rect x="107.25" y="109.13" width="0.25" height="15.63"/><rect x="107.5" y="124.75" width="0.25" height="0.25"/><rect x="107.25" y="124.75" width="0.25" height="0.25"/><rect x="112.25" y="113.13" width="0.25" height="11.63"/><rect x="112.5" y="113.13" width="0.25" height="11.63"/><rect x="112.25" y="124.75" width="0.25" height="0.25"/><rect x="112.5" y="124.75" width="0.25" height="0.25"/><polygon class="cls-4" points="114.13 90.88 117.88 90.88 118.13 90.88 127.88 90.88 128.13 90.88 131.88 90.88 132.13 90.88 133.88 90.88 133.88 87.88 133.88 87.13 112.13 87.13 112.13 87.88 112.13 90.88 113.88 90.88 114.13 90.88"/><polygon points="112 87 134 87 134 87.88 134.13 87.88 134.13 86.88 111.88 86.88 111.88 87.88 112 87.88 112 87"/><polygon points="112.13 87.13 133.88 87.13 133.88 87.88 134 87.88 134 87 112 87 112 87.88 112.13 87.88 112.13 87.13"/><polygon class="cls-6" points="144.88 90.88 144.88 90.13 144.88 88.88 144.88 88.13 134.13 88.13 134.13 90.88 144.13 90.88 144.88 90.88"/><polygon points="145 91 144.13 91 144.13 91.13 145.13 91.13 145.13 90.13 145 90.13 145 91"/><polygon points="145 88 145 88.88 145.13 88.88 145.13 87.88 134.13 87.88 134.13 88 145 88"/><rect x="134" y="87.88" width="0.13" height="0.13"/><polygon points="133.88 90.88 134 90.88 134 88 134 87.88 133.88 87.88 133.88 90.88"/><polygon points="144.88 88.13 144.88 88.88 145 88.88 145 88 134.13 88 134.13 88.13 144.88 88.13"/><polygon points="144.88 90.88 144.13 90.88 144.13 91 145 91 145 90.13 144.88 90.13 144.88 90.88"/><polygon points="134.13 90.88 134.13 88.13 134.13 88 134 88 134 90.88 134.13 90.88"/><polygon class="cls-6" points="101.13 88.13 101.13 88.88 101.13 90.13 101.13 90.88 101.88 90.88 111.88 90.88 111.88 88.13 101.13 88.13"/><polygon points="101 91 101 90.13 100.88 90.13 100.88 91.13 101.88 91.13 101.88 91 101 91"/><polygon points="101 88 111.88 88 111.88 87.88 100.88 87.88 100.88 88.88 101 88.88 101 88"/><rect x="111.88" y="87.88" width="0.13" height="0.13"/><polygon points="112.13 90.88 112.13 87.88 112 87.88 112 88 112 90.88 112.13 90.88"/><polygon points="101.13 88.13 111.88 88.13 111.88 88 101 88 101 88.88 101.13 88.88 101.13 88.13"/><polygon points="101.13 90.88 101.13 90.13 101 90.13 101 91 101.88 91 101.88 90.88 101.13 90.88"/><polygon points="111.88 90.88 112 90.88 112 88 111.88 88 111.88 88.13 111.88 90.88"/><rect x="145.13" y="89.13" width="0.75" height="0.75"/><polygon points="146 89 146 90 145.13 90 145.13 90.13 146.13 90.13 146.13 88.88 145.13 88.88 145.13 89 146 89"/><rect x="145" y="90" width="0.13" height="0.13"/><rect x="145" y="88.88" width="0.13" height="0.13"/><polygon points="144.88 90.13 145 90.13 145 90 145 89 145 88.88 144.88 88.88 144.88 90.13"/><polygon points="145.88 89.13 145.88 89.88 145.13 89.88 145.13 90 146 90 146 89 145.13 89 145.13 89.13 145.88 89.13"/><polygon points="145.13 90 145.13 89.88 145.13 89.13 145.13 89 145 89 145 90 145.13 90"/><rect x="100.13" y="89.13" width="0.75" height="0.75"/><polygon points="100 90 100 89 100.88 89 100.88 88.88 99.88 88.88 99.88 90.13 100.88 90.13 100.88 90 100 90"/><rect x="100.88" y="90" width="0.13" height="0.13"/><rect x="100.88" y="88.88" width="0.13" height="0.13"/><polygon points="101.13 88.88 101 88.88 101 89 101 90 101 90.13 101.13 90.13 101.13 88.88"/><polygon points="100.13 89.88 100.13 89.13 100.88 89.13 100.88 89 100 89 100 90 100.88 90 100.88 89.88 100.13 89.88"/><polygon points="100.88 89 100.88 89.13 100.88 89.88 100.88 90 101 90 101 89 100.88 89"/><polygon class="cls-4" points="115.13 96.88 117.88 96.88 117.88 95.13 117.88 94.88 117.88 91.13 114.13 91.13 114.13 94.88 114.13 95.13 114.13 96.88 114.88 96.88 115.13 96.88"/><rect x="115.13" y="97" width="2.75" height="0.13"/><rect x="114.13" y="90.88" width="3.75" height="0.13"/><rect x="115.13" y="96.88" width="2.75" height="0.13"/><rect x="114.13" y="91" width="3.75" height="0.13"/><polygon class="cls-4" points="128.13 95.13 128.13 96.88 131.88 96.88 131.88 95.13 131.88 94.88 131.88 91.13 128.13 91.13 128.13 94.88 128.13 95.13"/><rect x="128.13" y="97" width="3.75" height="0.13"/><rect x="128.13" y="90.88" width="3.75" height="0.13"/><rect x="128.13" y="96.88" width="3.75" height="0.13"/><rect x="128.13" y="91" width="3.75" height="0.13"/><rect class="cls-4" x="118.13" y="91.13" width="9.75" height="3.75"/><rect x="118.13" y="90.88" width="9.75" height="0.13"/><polygon points="118 91 118.13 91 118.13 90.88 117.88 90.88 117.88 91 118 91"/><rect x="117.88" y="91.13" width="0.13" height="3.75"/><rect x="117.88" y="91" width="0.13" height="0.13"/><polygon points="128 91 128.13 91 128.13 90.88 127.88 90.88 127.88 91 128 91"/><rect x="128" y="91.13" width="0.13" height="3.75"/><rect x="128" y="91" width="0.13" height="0.13"/><rect x="118.13" y="91" width="9.75" height="0.13"/><rect x="118" y="91.13" width="0.13" height="3.75"/><rect x="118" y="91" width="0.13" height="0.13"/><rect x="127.88" y="91.13" width="0.13" height="3.75"/><rect x="127.88" y="91" width="0.13" height="0.13"/><polygon class="cls-4" points="132.13 91.13 132.13 94.88 132.75 94.88 132.75 94.75 141.25 94.75 141.25 94.88 143.88 94.88 143.88 91.13 134.13 91.13 133.88 91.13 132.13 91.13"/><rect x="144" y="91.13" width="0.13" height="3.75"/><rect x="132.13" y="90.88" width="1.75" height="0.13"/><rect x="144" y="91" width="0.13" height="0.13"/><rect x="133.88" y="90.88" width="0.13" height="0.13"/><polygon points="134.13 90.88 134.13 91 144 91 144.13 91 144.13 90.88 134.13 90.88"/><rect x="134" y="90.88" width="0.13" height="0.13"/><polygon points="132 91 132.13 91 132.13 90.88 131.88 90.88 131.88 91 132 91"/><rect x="131.88" y="91.13" width="0.13" height="3.75"/><rect x="131.88" y="91" width="0.13" height="0.13"/><rect x="143.88" y="91.13" width="0.13" height="3.75"/><rect x="132.13" y="91" width="1.75" height="0.13"/><polygon points="134.13 91.13 143.88 91.13 144 91.13 144 91 134.13 91 134.13 91.13"/><polygon points="133.88 91 133.88 91.13 134.13 91.13 134.13 91 134 91 133.88 91"/><rect x="132" y="91.13" width="0.13" height="3.75"/><rect x="132" y="91" width="0.13" height="0.13"/><polygon class="cls-5" points="131.38 109.13 131.38 118.88 132.13 118.88 132.13 121.13 130.25 121.13 130.25 124.75 132.75 124.75 132.75 109.13 131.38 109.13"/><polygon class="cls-5" points="142.75 109.13 142.75 124.75 145.75 124.75 145.75 108.25 143.13 108.25 143.13 109.13 142.75 109.13"/><rect class="cls-5" x="133.25" y="109.13" width="4" height="15.63"/><rect class="cls-5" x="137.75" y="109.13" width="4.5" height="15.63"/><rect class="cls-5" x="131.38" y="108.25" width="1.38" height="0.63"/><rect class="cls-5" x="131.38" y="109" width="1.38" height="0.13"/><rect class="cls-5" x="131.38" y="108.88" width="1.38" height="0.13"/><polygon points="143.13 107.75 143.13 108 146 108 146 125 142.75 125 142.5 125 142.25 125 137.75 125 137.5 125 137.25 125 133.25 125 133 125 132.75 125 130 125 130 121.13 129.75 121.13 129.75 125.25 146.25 125.25 146.25 107.75 143.13 107.75"/><polygon points="131.38 108 132.75 108 132.88 108 132.88 107.75 131.38 107.75 131.38 108"/><polygon points="130.25 124.75 130.25 121.13 130 121.13 130 125 132.75 125 132.75 124.75 130.25 124.75"/><rect x="137.75" y="124.75" width="4.5" height="0.25"/><rect x="133.25" y="124.75" width="4" height="0.25"/><polygon points="145.75 108.25 145.75 124.75 142.75 124.75 142.75 125 146 125 146 108 143.13 108 143.13 108.25 145.75 108.25"/><rect x="131.38" y="108" width="1.38" height="0.25"/><polygon points="133.13 109.13 133 109.13 133 124.75 133.25 124.75 133.25 109.13 133.13 109.13"/><polygon points="132.88 109.13 132.75 109.13 132.75 124.75 133 124.75 133 109.13 132.88 109.13"/><rect x="132.75" y="108.25" width="0.13" height="0.63"/><rect x="132.75" y="109" width="0.13" height="0.13"/><rect x="132.75" y="108.88" width="0.13" height="0.13"/><rect x="132.75" y="124.75" width="0.25" height="0.25"/><rect x="133" y="124.75" width="0.25" height="0.25"/><rect x="132.75" y="108" width="0.13" height="0.25"/><rect x="137.25" y="109.13" width="0.25" height="15.63"/><rect x="137.5" y="109.13" width="0.25" height="15.63"/><rect x="137.25" y="124.75" width="0.25" height="0.25"/><rect x="137.5" y="124.75" width="0.25" height="0.25"/><rect x="142.5" y="109.13" width="0.25" height="15.63"/><rect x="142.25" y="109.13" width="0.25" height="15.63"/><rect x="142.5" y="124.75" width="0.25" height="0.25"/><rect x="142.25" y="124.75" width="0.25" height="0.25"/><polygon class="cls-4" points="112.13 91.13 111.88 91.13 102.13 91.13 102.13 94.88 102.88 94.88 113.88 94.88 113.88 91.13 112.13 91.13"/><polygon points="102 95 102 91.13 101.88 91.13 101.88 95.13 102.88 95.13 102.88 95 102 95"/><rect x="112.13" y="90.88" width="1.75" height="0.13"/><rect x="101.88" y="91" width="0.13" height="0.13"/><rect x="112" y="90.88" width="0.13" height="0.13"/><polygon points="111.88 90.88 101.88 90.88 101.88 91 102 91 111.88 91 111.88 90.88"/><rect x="111.88" y="90.88" width="0.13" height="0.13"/><polygon points="114.13 91 114.13 90.88 113.88 90.88 113.88 91 114 91 114.13 91"/><rect x="114" y="91.13" width="0.13" height="3.75"/><rect x="114" y="91" width="0.13" height="0.13"/><polygon points="102.13 94.88 102.13 91.13 102 91.13 102 95 102.88 95 102.88 94.88 102.13 94.88"/><rect x="112.13" y="91" width="1.75" height="0.13"/><polygon points="111.88 91.13 111.88 91 102 91 102 91.13 102.13 91.13 111.88 91.13"/><polygon points="112.13 91 112 91 111.88 91 111.88 91.13 112.13 91.13 112.13 91"/><rect x="113.88" y="91.13" width="0.13" height="3.75"/><rect x="113.88" y="91" width="0.13" height="0.13"/><rect class="cls-4" x="103.13" y="95.13" width="10.75" height="1.75"/><rect x="102.88" y="95.13" width="0.13" height="1.75"/><rect x="114" y="95.13" width="0.13" height="1.75"/><rect x="102.88" y="95" width="0.13" height="0.13"/><polygon points="114.13 94.88 114 94.88 114 95 114 95.13 114.13 95.13 114.13 94.88"/><polygon points="113.88 94.88 102.88 94.88 102.88 95 103 95 113.88 95 113.88 94.88"/><rect x="113.88" y="94.88" width="0.13" height="0.13"/><rect x="103" y="95.13" width="0.13" height="1.75"/><rect x="113.88" y="95.13" width="0.13" height="1.75"/><polygon points="113.88 95.13 113.88 95 103 95 103 95.13 103.13 95.13 113.88 95.13"/><rect x="113.88" y="95" width="0.13" height="0.13"/><rect class="cls-4" x="118.13" y="95.13" width="9.75" height="1.75"/><rect x="118.13" y="97" width="9.75" height="0.13"/><polygon points="118.13 97.13 118.13 97 118 97 117.88 97 117.88 97.13 118.13 97.13"/><rect x="117.88" y="95.13" width="0.13" height="1.75"/><rect x="117.88" y="96.88" width="0.13" height="0.13"/><polygon points="127.88 97.13 128.13 97.13 128.13 97 128 97 127.88 97 127.88 97.13"/><rect x="128" y="95.13" width="0.13" height="1.75"/><rect x="128" y="96.88" width="0.13" height="0.13"/><polygon points="118 95 118 94.88 117.88 94.88 117.88 95.13 118 95.13 118 95"/><polygon points="128 95.13 128.13 95.13 128.13 94.88 128 94.88 128 95 128 95.13"/><rect x="118.13" y="94.88" width="9.75" height="0.13"/><rect x="118" y="94.88" width="0.13" height="0.13"/><rect x="127.88" y="94.88" width="0.13" height="0.13"/><rect x="118.13" y="96.88" width="9.75" height="0.13"/><rect x="118" y="95.13" width="0.13" height="1.75"/><rect x="118" y="96.88" width="0.13" height="0.13"/><rect x="127.88" y="95.13" width="0.13" height="1.75"/><rect x="127.88" y="96.88" width="0.13" height="0.13"/><rect x="118.13" y="95" width="9.75" height="0.13"/><rect x="118" y="95" width="0.13" height="0.13"/><rect x="127.88" y="95" width="0.13" height="0.13"/><rect class="cls-7" x="133.25" y="95.25" width="7.5" height="5.5"/><rect x="132.75" y="97.13" width="0.13" height="0.5"/><polygon points="132.88 100.6 132.75 100.6 132.75 101.25 132.88 101.25 132.88 100.88 132.88 100.6"/><rect x="132.08" y="99.05" width="1.47" height="0.13" transform="translate(32.73 231.19) rotate(-89.58)"/><rect x="132.88" y="97.13" width="0.13" height="0.5"/><rect x="132.2" y="99.05" width="1.47" height="0.13" transform="translate(32.79 231.27) rotate(-89.55)"/><polygon points="132.88 100.6 132.88 100.88 133 100.88 133 100.22 133 100.6 132.88 100.6"/><polygon points="132.75 94.75 132.75 94.88 133.13 94.88 140.88 94.88 141.25 94.88 141.25 94.75 132.75 94.75"/><rect x="133.13" y="94.88" width="7.75" height="0.13"/><path d="M133.13,97.13v3.75h7.75V95.13h-7.75v2Zm.12-1.88h7.5v5.5h-7.5Z"/><polygon points="133 97.63 133 98 133 98.38 133 99.85 133 99.85 133 100.22 133 100.88 133.13 100.88 133.13 97.13 133 97.13 133 97.63"/><rect x="133.13" y="95" width="7.75" height="0.13"/><rect class="cls-4" x="132.13" y="95.13" width="0.63" height="1.75"/><rect class="cls-4" x="132.75" y="95.13" width="0.13" height="1.75"/><rect x="132.13" y="97" width="0.63" height="0.13"/><polygon points="132.13 97.13 132.13 97 132 97 131.88 97 131.88 97.13 132.13 97.13"/><rect x="131.88" y="95.13" width="0.13" height="1.75"/><rect x="131.88" y="96.88" width="0.13" height="0.13"/><polygon points="131.88 95.13 132 95.13 132 95 132 94.88 131.88 94.88 131.88 95.13"/><rect x="132.13" y="94.88" width="0.63" height="0.13"/><rect x="132" y="94.88" width="0.13" height="0.13"/><polygon points="132.88 97.13 133 97.13 133 97 132.75 97 132.75 97.13 132.88 97.13"/><polygon points="133 95 133.13 95 133.13 94.88 132.75 94.88 132.75 95 133 95"/><rect x="133" y="95.13" width="0.13" height="1.75"/><polygon points="133 97.13 133.13 97.13 133.13 96.88 133 96.88 133 97 133 97.13"/><rect x="133" y="95" width="0.13" height="0.13"/><rect x="132.13" y="96.88" width="0.63" height="0.13"/><rect x="132" y="95.13" width="0.13" height="1.75"/><rect x="132" y="96.88" width="0.13" height="0.13"/><rect x="132.13" y="95" width="0.63" height="0.13"/><rect x="132" y="95" width="0.13" height="0.13"/><rect x="132.88" y="95.13" width="0.13" height="1.75"/><polygon points="132.75 96.88 132.75 97 133 97 133 96.88 132.88 96.88 132.75 96.88"/><polygon points="132.88 95.13 133 95.13 133 95 132.75 95 132.75 95.13 132.88 95.13"/><polygon class="cls-4" points="142.88 96.88 143.13 96.88 143.88 96.88 143.88 95.13 141.25 95.13 141.25 96.88 142.88 96.88"/><rect class="cls-4" x="141.13" y="95.13" width="0.13" height="1.75"/><rect x="144" y="95.13" width="0.13" height="1.75"/><polygon points="144 95 144 95.13 144.13 95.13 144.13 94.88 144 94.88 144 95"/><polygon points="141.25 94.88 141.25 95 144 95 144 94.88 143.88 94.88 141.25 94.88"/><polygon points="140.88 95 141 95 141.25 95 141.25 94.88 140.88 94.88 140.88 95"/><rect x="140.88" y="95.13" width="0.13" height="1.75"/><rect x="140.88" y="95" width="0.13" height="0.13"/><rect x="143.88" y="95.13" width="0.13" height="1.75"/><polygon points="141.25 95.13 143.88 95.13 144 95.13 144 95 141.25 95 141.25 95.13"/><rect x="141" y="95.13" width="0.13" height="1.75"/><polygon points="141 95.13 141.13 95.13 141.25 95.13 141.25 95 141 95 141 95.13"/><polygon class="cls-4" points="108.63 101.63 108.63 100.42 105.6 100.39 105.6 101.63 108.63 101.63"/><rect class="cls-4" x="105.6" y="102.38" width="3.03" height="2.5"/><polygon class="cls-4" points="112.63 101.63 112.63 100.45 109.38 100.42 109.38 101.63 112.63 101.63"/><rect class="cls-4" x="109.38" y="102.38" width="3.25" height="2.5"/><polygon class="cls-4" points="103.13 102.38 103.13 104.13 103.13 104.88 103.88 104.88 104.85 104.88 104.85 102.38 103.13 102.38"/><rect class="cls-4" x="113.38" y="102.38" width="0.5" height="2.5"/><polygon class="cls-4" points="104.85 101.63 104.85 100.39 103.13 100.38 103.13 101.63 104.85 101.63"/><rect class="cls-4" x="113.38" y="100.45" width="0.5" height="1.17"/><polygon class="cls-4" points="113.88 97.13 103.13 97.13 103.13 99.63 113.88 99.71 113.88 97.13"/><rect x="102.88" y="97.13" width="0.13" height="2.75"/><polygon points="103 105 103 104.13 102.88 104.13 102.88 105.13 103.88 105.13 103.88 105 103 105"/><polygon points="103 97 103 96.88 102.88 96.88 102.88 97.13 103 97.13 103 97"/><polygon points="113.88 96.88 103.13 96.88 103 96.88 103 97 113.88 97 113.88 96.88"/><polygon points="103 99.63 103.13 99.63 103.13 97.13 103 97.13 103 99.88 103 99.88 103 99.63"/><polygon points="103.13 104.88 103.13 104.13 103 104.13 103 105 103.88 105 103.88 104.88 103.13 104.88"/><polygon points="113.88 97.13 113.88 97 103 97 103 97.13 103.13 97.13 113.88 97.13"/><polygon class="cls-5" points="122.44 109.13 122.44 112.33 124.88 110.19 124.88 109.13 122.44 109.13"/><polygon class="cls-5" points="125.13 109.97 126.1 109.13 125.13 109.13 125.13 109.97"/><polygon class="cls-5" points="116.25 109.13 116.25 111.78 119.41 109.13 116.25 109.13"/><polygon class="cls-5" points="117.5 111.06 117.5 116.65 119.63 114.79 119.63 109.27 117.5 111.06"/><polygon class="cls-5" points="119.88 109.13 119.88 114.57 122.19 112.55 122.19 109.13 119.88 109.13"/><polygon class="cls-5" points="117.25 111.27 116.25 112.11 116.25 117.74 117.25 116.87 117.25 111.27"/><polygon class="cls-5" points="126.47 109.13 122.44 112.66 122.44 112.66 122.43 112.66 116.25 118.07 116.25 118.63 129.75 118.63 129.75 109.13 126.47 109.13"/><polygon class="cls-5" points="126.38 108.88 130.38 105.38 125.13 105.38 125.13 108.88 126.38 108.88"/><polygon class="cls-5" points="122.44 108.88 124.88 108.88 124.88 105.38 124.25 105.38 122.44 106.9 122.44 108.88"/><polygon class="cls-5" points="122.19 107.11 120.09 108.88 122.19 108.88 122.19 107.11"/><polygon class="cls-5" points="116.25 108.88 119.7 108.88 123.86 105.38 115.38 105.38 115.38 107.75 116.25 107.75 116.25 108.88"/><polygon class="cls-5" points="126.76 108.88 129.75 108.88 129.75 107.75 130.63 107.75 130.63 105.49 126.76 108.88"/><rect class="cls-5" x="122.44" y="109" width="2.44" height="0.13"/><polygon class="cls-5" points="119.94 109 119.88 109.06 119.88 109.13 122.19 109.13 122.19 109 119.94 109"/><polygon class="cls-5" points="125.13 109.13 126.1 109.13 126.24 109 125.13 109 125.13 109.13"/><polygon class="cls-5" points="126.47 109.13 129.75 109.13 129.75 109 126.62 109 126.47 109.13"/><polygon class="cls-5" points="119.56 109 116.25 109 116.25 109.13 119.41 109.13 119.56 109"/><polygon class="cls-5" points="125.13 109 126.24 109 126.38 108.88 125.13 108.88 125.13 109"/><polygon class="cls-5" points="122.19 108.88 120.09 108.88 119.94 109 122.19 109 122.19 108.88"/><polygon class="cls-5" points="116.25 108.88 116.25 109 119.56 109 119.7 108.88 116.25 108.88"/><polygon class="cls-5" points="126.76 108.88 126.62 109 129.75 109 129.75 108.88 126.76 108.88"/><rect class="cls-5" x="122.44" y="108.88" width="2.44" height="0.13"/><polygon class="cls-5" points="115.75 109.13 115.38 109.13 115.38 112.52 115.75 112.2 115.75 109.13"/><polygon class="cls-5" points="115.62 118.63 115.75 118.63 115.75 118.51 115.62 118.63"/><polygon class="cls-5" points="115.75 112.53 115.38 112.85 115.38 118.51 115.75 118.18 115.75 112.53"/><rect class="cls-5" x="115.38" y="108.25" width="0.38" height="0.63"/><rect class="cls-5" x="115.38" y="109" width="0.38" height="0.13"/><rect class="cls-5" x="115.38" y="108.88" width="0.38" height="0.13"/><polygon class="cls-5" points="116.25 109.13 116 109.13 116 112 116.25 111.78 116.25 109.13"/><polygon class="cls-5" points="116 118.29 116 118.63 116.25 118.63 116.25 118.07 116 118.29"/><polygon class="cls-5" points="116.25 112.11 116 112.32 116 117.96 116.25 117.74 116.25 112.11"/><polygon class="cls-5" points="116.25 107.75 115.38 107.75 115.38 108 116 108 116 108.88 116.25 108.88 116.25 107.75"/><rect class="cls-5" x="116" y="109" width="0.25" height="0.13"/><rect class="cls-5" x="116" y="108.88" width="0.25" height="0.13"/><polygon class="cls-5" points="115.75 109.13 115.75 112.2 116 112 116 109.13 115.75 109.13"/><polygon class="cls-5" points="115.75 118.51 115.75 118.63 116 118.63 116 118.29 115.75 118.51"/><polygon class="cls-5" points="116 112.32 115.75 112.53 115.75 118.18 116 117.96 116 112.32"/><polygon class="cls-5" points="115.38 108 115.38 108.25 115.75 108.25 115.75 108.88 116 108.88 116 108 115.38 108"/><rect class="cls-5" x="115.75" y="109" width="0.25" height="0.13"/><rect class="cls-5" x="115.75" y="108.88" width="0.25" height="0.13"/><rect class="cls-5" x="130.25" y="109.13" width="0.38" height="9.5"/><rect class="cls-5" x="130.25" y="108.25" width="0.38" height="0.63"/><rect class="cls-5" x="130.25" y="109" width="0.38" height="0.13"/><rect class="cls-5" x="130.25" y="108.88" width="0.38" height="0.13"/><rect class="cls-5" x="129.75" y="109.13" width="0.25" height="9.5"/><polygon class="cls-5" points="129.75 107.75 129.75 108.88 130 108.88 130 108 130.63 108 130.63 107.75 129.75 107.75"/><rect class="cls-5" x="129.75" y="109" width="0.25" height="0.13"/><rect class="cls-5" x="129.75" y="108.88" width="0.25" height="0.13"/><rect class="cls-5" x="130" y="109.13" width="0.25" height="9.5"/><polygon class="cls-5" points="130 108 130 108.88 130.25 108.88 130.25 108.25 130.63 108.25 130.63 108 130 108"/><rect class="cls-5" x="130" y="109" width="0.25" height="0.13"/><rect class="cls-5" x="130" y="108.88" width="0.25" height="0.13"/><polygon points="124.31 105 124.42 104.91 124.5 105 124.88 105 125 105 125.13 105 130.81 105 130.92 104.91 131 105 131.08 105.09 131 105.17 131 107.75 131.38 107.75 131.38 104.63 115.13 104.63 115.13 105 124.31 105"/><polygon points="115 118.83 115 113.13 114.63 113.13 114.63 118.88 114.95 118.88 115 118.83"/><rect x="131" y="109.13" width="0.38" height="9.75"/><rect x="131" y="108.25" width="0.38" height="0.63"/><rect x="131" y="109" width="0.38" height="0.13"/><rect x="131" y="108.88" width="0.38" height="0.13"/><rect x="131" y="107.75" width="0.38" height="0.25"/><rect x="131" y="108" width="0.38" height="0.25"/><polygon points="116.25 118.88 118.88 118.88 122.13 118.88 124.88 118.88 128.13 118.88 129.75 118.88 129.75 118.63 116.25 118.63 116.25 118.88"/><polygon points="130.38 105.38 130.81 105 125.13 105 125.13 105.38 130.38 105.38"/><polygon points="124.25 105.38 124.88 105.38 124.88 105 124.5 105 124.58 105.1 124.25 105.38"/><polygon points="130.63 107.75 131 107.75 131 105.17 130.63 105.49 130.63 107.75"/><polygon points="115.38 105.38 123.86 105.38 124.31 105 115.13 105 115.13 107.75 115.38 107.75 115.38 105.38"/><polygon points="115.38 109.13 115.13 109.13 115.13 112.73 115.38 112.52 115.38 109.13"/><polygon points="115.38 112.85 115.13 113.06 115.13 113.13 115 113.13 115 118.83 115.38 118.51 115.38 112.85"/><polygon points="115.62 118.63 115.33 118.88 115.75 118.88 115.75 118.63 115.62 118.63"/><rect x="115.13" y="108.25" width="0.25" height="0.63"/><rect x="115.13" y="109" width="0.25" height="0.13"/><rect x="115.13" y="108.88" width="0.25" height="0.13"/><rect x="116" y="118.63" width="0.25" height="0.25"/><rect x="115.13" y="107.75" width="0.25" height="0.25"/><rect x="115.75" y="118.63" width="0.25" height="0.25"/><rect x="115.13" y="108" width="0.25" height="0.25"/><polygon points="130.63 118.63 130.25 118.63 130.25 118.88 131 118.88 131 109.13 130.63 109.13 130.63 118.63"/><rect x="130.63" y="108.25" width="0.38" height="0.63"/><rect x="130.63" y="109" width="0.38" height="0.13"/><rect x="130.63" y="108.88" width="0.38" height="0.13"/><rect x="129.75" y="118.63" width="0.25" height="0.25"/><rect x="130.63" y="107.75" width="0.38" height="0.25"/><rect x="130" y="118.63" width="0.25" height="0.25"/><rect x="130.63" y="108" width="0.38" height="0.25"/><polygon class="cls-6" points="136.88 103.13 136.13 103.13 135.88 103.13 133.13 103.13 133.13 107.75 142.88 107.75 142.88 103.13 137.13 103.13 136.88 103.13"/><rect class="cls-6" x="137.75" y="108.25" width="4.5" height="0.63"/><rect class="cls-6" x="133.25" y="108.25" width="4" height="0.63"/><rect class="cls-6" x="142.75" y="108.25" width="0.13" height="0.63"/><polygon class="cls-6" points="133.13 108 133.25 108 133.78 108 137.25 108 137.5 108 137.75 108 142.25 108 142.5 108 142.75 108 142.88 108 142.88 107.75 133.13 107.75 133.13 108"/><rect class="cls-6" x="142.75" y="108" width="0.13" height="0.25"/><polygon class="cls-6" points="137.25 108.25 137.25 108 133.78 108 133.25 108 133.25 108.25 137.25 108.25"/><rect class="cls-6" x="137.75" y="108" width="4.5" height="0.25"/><rect class="cls-6" x="133.13" y="108.25" width="0.13" height="0.63"/><rect class="cls-6" x="133.13" y="108" width="0.13" height="0.25"/><rect class="cls-6" x="137.5" y="108.25" width="0.25" height="0.63"/><rect class="cls-6" x="137.25" y="108.25" width="0.25" height="0.63"/><rect class="cls-6" x="137.5" y="108" width="0.25" height="0.25"/><rect class="cls-6" x="137.25" y="108" width="0.25" height="0.25"/><rect class="cls-6" x="142.25" y="108.25" width="0.25" height="0.63"/><rect class="cls-6" x="142.5" y="108.25" width="0.25" height="0.63"/><rect class="cls-6" x="142.25" y="108" width="0.25" height="0.25"/><rect class="cls-6" x="142.5" y="108" width="0.25" height="0.25"/><rect x="143" y="103.13" width="0.13" height="4.63"/><rect x="132.88" y="103.88" width="0.13" height="3.88"/><rect x="133.25" y="109" width="4" height="0.13"/><rect x="137.75" y="109" width="4.5" height="0.13"/><polygon points="142.75 109 142.75 109.13 143.13 109.13 143.13 108.25 143 108.25 143 109 142.75 109"/><rect x="143" y="107.75" width="0.13" height="0.25"/><rect x="132.88" y="107.75" width="0.13" height="0.25"/><rect x="143" y="108" width="0.13" height="0.25"/><rect x="133.13" y="109" width="0.13" height="0.13"/><rect x="133" y="109" width="0.13" height="0.13"/><rect x="132.88" y="109" width="0.13" height="0.13"/><polygon points="132.88 108.25 132.88 108.88 132.88 109 133 109 133 108.25 132.88 108.25"/><rect x="132.88" y="108" width="0.13" height="0.25"/><rect x="137.5" y="109" width="0.25" height="0.13"/><rect x="137.25" y="109" width="0.25" height="0.13"/><rect x="142.25" y="109" width="0.25" height="0.13"/><rect x="142.5" y="109" width="0.25" height="0.13"/><rect x="142.88" y="103.13" width="0.13" height="4.63"/><polygon points="133 103.5 133 103.88 133 107.75 133.13 107.75 133.13 103.13 133 103.13 133 103.5"/><polygon points="142.88 108.88 142.75 108.88 142.75 109 143 109 143 108.25 142.88 108.25 142.88 108.88"/><rect x="133.25" y="108.88" width="4" height="0.13"/><rect x="137.75" y="108.88" width="4.5" height="0.13"/><rect x="142.88" y="107.75" width="0.13" height="0.25"/><rect x="133" y="107.75" width="0.13" height="0.25"/><rect x="142.88" y="108" width="0.13" height="0.25"/><rect x="133.13" y="108.88" width="0.13" height="0.13"/><polygon points="133.13 108.25 133 108.25 133 109 133.13 109 133.13 108.88 133.13 108.25"/><rect x="133" y="108" width="0.13" height="0.25"/><rect x="137.25" y="108.88" width="0.25" height="0.13"/><rect x="137.5" y="108.88" width="0.25" height="0.13"/><rect x="142.5" y="108.88" width="0.25" height="0.13"/><rect x="142.25" y="108.88" width="0.25" height="0.13"/><rect class="cls-6" x="104.13" y="105.13" width="9.75" height="2.63"/><rect class="cls-6" x="104.13" y="108.25" width="3.13" height="0.63"/><polygon class="cls-6" points="110.88 108.88 112.25 108.88 112.25 108.25 107.75 108.25 107.75 108.88 110.88 108.88"/><rect class="cls-6" x="112.75" y="108.25" width="1.13" height="0.63"/><polygon class="cls-6" points="107.5 108 107.75 108 112.25 108 112.5 108 112.75 108 113.88 108 113.88 107.75 104.13 107.75 104.13 108 107.25 108 107.5 108"/><rect class="cls-6" x="107.75" y="108" width="4.5" height="0.25"/><rect class="cls-6" x="104.13" y="108" width="3.13" height="0.25"/><rect class="cls-6" x="112.75" y="108" width="1.13" height="0.25"/><rect class="cls-6" x="107.5" y="108.25" width="0.25" height="0.63"/><rect class="cls-6" x="107.25" y="108.25" width="0.25" height="0.63"/><rect class="cls-6" x="107.5" y="108" width="0.25" height="0.25"/><rect class="cls-6" x="107.25" y="108" width="0.25" height="0.25"/><rect class="cls-6" x="112.5" y="108.25" width="0.25" height="0.63"/><rect class="cls-6" x="112.25" y="108.25" width="0.25" height="0.63"/><rect class="cls-6" x="112.5" y="108" width="0.25" height="0.25"/><rect class="cls-6" x="112.25" y="108" width="0.25" height="0.25"/><rect x="103.88" y="105.13" width="0.13" height="2.63"/><polygon points="107.25 109.13 107.25 109 104 109 104 108.25 103.88 108.25 103.88 109.13 107.25 109.13"/><rect x="107.75" y="109" width="3.13" height="0.13"/><rect x="103.88" y="107.75" width="0.13" height="0.25"/><rect x="103.88" y="108" width="0.13" height="0.25"/><rect x="107.5" y="109" width="0.25" height="0.13"/><rect x="107.25" y="109" width="0.25" height="0.13"/><rect x="103.88" y="105" width="0.13" height="0.13"/><rect x="113.38" y="104.88" width="0.5" height="0.13"/><rect x="105.6" y="104.88" width="3.03" height="0.13"/><polygon points="104.85 104.88 103.88 104.88 103.88 105 104 105 104.85 105 104.85 104.88"/><rect x="109.38" y="104.88" width="3.25" height="0.13"/><rect x="104" y="105.13" width="0.13" height="2.63"/><rect x="107.75" y="108.88" width="3.13" height="0.13"/><polygon points="107.25 109 107.25 108.88 104.13 108.88 104.13 108.25 104 108.25 104 109 107.25 109"/><rect x="104" y="107.75" width="0.13" height="0.25"/><rect x="104" y="108" width="0.13" height="0.25"/><rect x="107.5" y="108.88" width="0.25" height="0.13"/><rect x="107.25" y="108.88" width="0.25" height="0.13"/><polygon points="113.88 105.13 113.88 105 113.38 105 113 105 112.63 105 109.38 105 109 105 108.63 105 105.6 105 105.22 105 104.85 105 104 105 104 105.13 104.13 105.13 113.88 105.13"/><rect class="cls-6" x="111.13" y="109.13" width="1.13" height="3.75"/><rect class="cls-6" x="112.75" y="109.13" width="1.13" height="3.75"/><rect class="cls-6" x="112.25" y="109.13" width="0.25" height="3.75"/><rect class="cls-6" x="112.5" y="109.13" width="0.25" height="3.75"/><rect x="112.75" y="113" width="1.13" height="0.13"/><polygon points="111 113 111 109.13 110.88 109.13 110.88 113.13 112.25 113.13 112.25 113 111 113"/><rect x="112.5" y="113" width="0.25" height="0.13"/><rect x="112.25" y="113" width="0.25" height="0.13"/><rect x="110.88" y="109" width="0.13" height="0.13"/><polygon points="112.25 108.88 110.88 108.88 110.88 109 111 109 112.25 109 112.25 108.88"/><rect x="112.75" y="108.88" width="1.13" height="0.13"/><rect x="112.5" y="108.88" width="0.25" height="0.13"/><rect x="112.25" y="108.88" width="0.25" height="0.13"/><rect x="112.75" y="112.88" width="1.13" height="0.13"/><polygon points="111.13 112.88 111.13 109.13 111 109.13 111 113 112.25 113 112.25 112.88 111.13 112.88"/><rect x="112.25" y="112.88" width="0.25" height="0.13"/><rect x="112.5" y="112.88" width="0.25" height="0.13"/><rect x="112.75" y="109" width="1.13" height="0.13"/><polygon points="112.25 109.13 112.25 109 111 109 111 109.13 111.13 109.13 112.25 109.13"/><rect x="112.25" y="109" width="0.25" height="0.13"/><rect x="112.5" y="109" width="0.25" height="0.13"/><polygon class="cls-6" points="114.63 104.63 114.88 104.63 114.88 100.46 114.13 100.46 114.13 104.88 114.13 105.13 114.13 107.75 114.63 107.75 114.63 104.63"/><rect class="cls-6" x="114.13" y="97.13" width="0.75" height="2.59"/><polygon class="cls-6" points="114.13 108.25 114.13 108.88 114.13 109.13 114.13 112.88 114.63 112.88 114.63 108.25 114.13 108.25"/><rect class="cls-6" x="114.13" y="107.75" width="0.5" height="0.25"/><rect class="cls-6" x="114.13" y="108" width="0.5" height="0.25"/><rect class="cls-6" x="114.63" y="104.63" width="0.25" height="3.13"/><polygon class="cls-6" points="114.63 108.25 114.63 112.88 114.88 112.88 114.88 109.13 114.88 108.25 114.63 108.25"/><rect class="cls-6" x="114.63" y="107.75" width="0.25" height="0.25"/><rect class="cls-6" x="114.63" y="108" width="0.25" height="0.25"/><rect x="115" y="103.88" width="0.13" height="0.75"/><rect x="115" y="97.13" width="0.13" height="0.5"/><rect x="113.73" y="101.73" width="2.66" height="0.13" transform="translate(12.43 216.11) rotate(-89.58)"/><rect x="115" y="98.38" width="0.13" height="1.34"/><rect x="114.13" y="113" width="0.5" height="0.13"/><rect x="115" y="97" width="0.13" height="0.13"/><rect x="114.13" y="96.88" width="0.75" height="0.13"/><polygon points="115.13 97 115.13 96.88 114.88 96.88 114.88 97 115 97 115.13 97"/><rect x="114" y="96.88" width="0.13" height="0.13"/><rect x="113.88" y="96.88" width="0.13" height="0.13"/><rect x="113.88" y="100.46" width="0.13" height="1.17"/><rect x="113.88" y="97.13" width="0.13" height="2.58"/><rect x="113.88" y="102.38" width="0.13" height="2.5"/><rect x="113.88" y="97" width="0.13" height="0.13"/><rect x="115" y="104.63" width="0.13" height="0.38"/><rect x="114.63" y="113" width="0.38" height="0.13"/><rect x="115" y="105" width="0.13" height="2.75"/><polygon points="115 109.13 115 112.84 115.13 112.73 115.13 109.13 115 109.13"/><polygon points="115.13 113.06 115.08 113.1 115 113 115 113.13 115.13 113.13 115.13 113.06"/><rect x="115" y="109" width="0.13" height="0.13"/><polygon points="115.13 108.25 115 108.25 115 109 115.13 109 115.13 108.88 115.13 108.25"/><rect x="115" y="107.75" width="0.13" height="0.25"/><rect x="115" y="108" width="0.13" height="0.25"/><rect x="113.88" y="104.88" width="0.13" height="0.13"/><rect x="113.88" y="105.13" width="0.13" height="2.63"/><rect x="113.88" y="108.25" width="0.13" height="0.63"/><rect x="113.88" y="107.75" width="0.13" height="0.25"/><rect x="113.88" y="108" width="0.13" height="0.25"/><rect x="113.88" y="105" width="0.13" height="0.13"/><polygon points="114 113 113.88 113 113.88 113.13 114.13 113.13 114.13 113 114 113"/><rect x="113.88" y="108.88" width="0.13" height="0.13"/><polygon points="113.88 109.13 113.88 112.88 113.88 113 114 113 114 109.13 113.88 109.13"/><rect x="113.88" y="109" width="0.13" height="0.13"/><polygon points="115 98.38 115 98 115 97.63 115 97.13 114.88 97.13 114.88 99.71 115 99.71 115 98.38"/><polygon points="115 103.88 115 103.5 115 103.13 115 100.46 114.88 100.46 114.88 104.63 115 104.63 115 103.88"/><rect x="114.13" y="112.88" width="0.5" height="0.13"/><rect x="114.13" y="97" width="0.75" height="0.13"/><rect x="114.88" y="97" width="0.13" height="0.13"/><polygon points="114.13 100.46 114 100.46 114 101.63 114 102 114 102.38 114 104.88 114.13 104.88 114.13 100.46"/><rect x="114" y="97.13" width="0.13" height="2.58"/><rect x="114" y="97" width="0.13" height="0.13"/><polygon points="115 107.75 115 105 115 104.63 114.88 104.63 114.88 107.75 115 107.75"/><polygon points="115 112.84 115 109.13 114.88 109.13 114.88 112.88 114.63 112.88 114.63 113 115 113 114.92 112.91 115 112.84"/><polygon points="115 108.25 114.88 108.25 114.88 109.13 115 109.13 115 109 115 108.25"/><rect x="114.88" y="107.75" width="0.13" height="0.25"/><rect x="114.88" y="108" width="0.13" height="0.25"/><rect x="114" y="105.13" width="0.13" height="2.63"/><rect x="114" y="108.25" width="0.13" height="0.63"/><rect x="114" y="107.75" width="0.13" height="0.25"/><rect x="114" y="108" width="0.13" height="0.25"/><polygon points="114.13 104.88 114 104.88 114 105 114 105.13 114.13 105.13 114.13 104.88"/><polygon points="114.13 109.13 114 109.13 114 113 114.13 113 114.13 112.88 114.13 109.13"/><polygon points="114 108.88 114 109 114 109.13 114.13 109.13 114.13 108.88 114 108.88"/><rect x="100.13" y="100.13" width="2.75" height="3.75"/><polygon points="100 104 100 100 102.88 100 102.88 99.88 99.88 99.88 99.88 104.13 102.88 104.13 102.88 104 100 104"/><rect x="102.88" y="104" width="0.13" height="0.13"/><rect x="102.88" y="99.88" width="0.13" height="0.13"/><polygon points="103 99.88 103 100 103 99.88 103 99.88"/><rect x="102.44" y="100.94" width="1.25" height="0.13" transform="translate(1.26 203.27) rotate(-89.55)"/><polygon points="103.13 102.38 103 102.38 103 104 103 104.13 103.13 104.13 103.13 102.38"/><polygon points="100.13 103.88 100.13 100.13 102.88 100.13 102.88 100 100 100 100 104 102.88 104 102.88 103.88 100.13 103.88"/><polygon points="103 102 103 101.63 103 100.38 103 100.38 103 100 102.88 100 102.88 100.13 102.88 103.88 102.88 104 103 104 103 102.38 103 102"/><polygon points="143.13 100.88 143.13 101.13 143.13 102.88 145.88 102.88 145.88 97.13 144.13 97.13 143.13 97.13 143.13 98.13 143.13 100.88"/><polygon points="146 97 146 103 143.13 103 143.13 103.13 146.13 103.13 146.13 96.88 144.13 96.88 144.13 97 146 97"/><rect x="144" y="96.88" width="0.13" height="0.13"/><polygon points="143.13 96.88 143.13 97 144 97 144 96.88 143.88 96.88 143.13 96.88"/><polygon points="145.88 97.13 145.88 102.88 143.13 102.88 143.13 103 146 103 146 97 144.13 97 144.13 97.13 145.88 97.13"/><polygon points="143.13 97.13 144.13 97.13 144.13 97 144 97 143.13 97 143.13 97.13"/><polygon class="cls-6" points="141.25 101.13 141.25 101.25 137.13 101.25 137.13 102.88 142.88 102.88 142.88 101.13 141.25 101.13"/><polygon class="cls-6" points="137.13 101.13 137.13 101.25 141.25 101.25 141.25 101.13 140.88 101.13 137.13 101.13"/><rect x="137.13" y="100.88" width="3.75" height="0.13"/><rect x="137.13" y="103" width="5.75" height="0.13"/><rect x="143" y="103" width="0.13" height="0.13"/><rect x="142.88" y="103" width="0.13" height="0.13"/><rect x="143" y="101.13" width="0.13" height="1.75"/><rect x="143" y="102.88" width="0.13" height="0.13"/><rect x="137.13" y="101" width="3.75" height="0.13"/><rect x="137.13" y="102.88" width="5.75" height="0.13"/><rect x="142.88" y="101.13" width="0.13" height="1.75"/><rect x="142.88" y="102.88" width="0.13" height="0.13"/><rect class="cls-6" x="133.13" y="101.25" width="2.75" height="1.63"/><rect class="cls-6" x="133.13" y="101.13" width="2.75" height="0.13"/><rect x="132.88" y="101.25" width="0.13" height="1.63"/><polygon points="132.88 101.25 133 101.25 133 101 133 100.88 132.88 100.88 132.88 101.25"/><rect x="133.13" y="100.88" width="2.75" height="0.13"/><rect x="133" y="100.88" width="0.13" height="0.13"/><polygon points="132.88 102.88 132.88 103.13 133 103.13 133 103 133 102.88 132.88 102.88"/><rect x="133.13" y="103" width="2.75" height="0.13"/><rect x="133" y="103" width="0.13" height="0.13"/><rect x="133" y="101.25" width="0.13" height="1.63"/><rect x="133.13" y="101" width="2.75" height="0.13"/><polygon points="133.13 101.25 133.13 101.13 133.13 101 133 101 133 101.25 133.13 101.25"/><rect x="133.13" y="102.88" width="2.75" height="0.13"/><rect x="133" y="102.88" width="0.13" height="0.13"/><rect class="cls-6" x="122.13" y="119.38" width="2.75" height="1.5"/><polygon class="cls-6" points="116.25 119.38 116.25 120.88 116.88 120.88 118.88 120.88 118.88 119.38 116.25 119.38"/><polygon class="cls-6" points="128.13 119.38 128.13 120.88 129.13 120.88 129.75 120.88 129.75 119.38 128.13 119.38"/><polygon class="cls-6" points="114.63 119.38 114.63 119.13 114.13 119.13 114.13 120.88 115.75 120.88 115.75 119.38 114.63 119.38"/><rect class="cls-6" x="116" y="119.38" width="0.25" height="1.5"/><rect class="cls-6" x="115.75" y="119.38" width="0.25" height="1.5"/><polygon class="cls-6" points="131.88 119.13 131.38 119.13 131.38 119.38 130.25 119.38 130.25 120.88 131.88 120.88 131.88 119.13"/><rect class="cls-6" x="129.75" y="119.38" width="0.25" height="1.5"/><rect class="cls-6" x="130" y="119.38" width="0.25" height="1.5"/><rect class="cls-6" x="116.25" y="119.13" width="2.63" height="0.25"/><rect class="cls-6" x="128.13" y="119.13" width="1.63" height="0.25"/><rect class="cls-6" x="122.13" y="119.13" width="2.75" height="0.25"/><rect class="cls-6" x="114.63" y="119.13" width="1.13" height="0.25"/><rect class="cls-6" x="116" y="119.13" width="0.25" height="0.25"/><rect class="cls-6" x="115.75" y="119.13" width="0.25" height="0.25"/><rect class="cls-6" x="130.25" y="119.13" width="1.13" height="0.25"/><rect class="cls-6" x="129.75" y="119.13" width="0.25" height="0.25"/><rect class="cls-6" x="130" y="119.13" width="0.25" height="0.25"/><rect x="129.13" y="121" width="0.63" height="0.13"/><rect x="116.25" y="121" width="0.63" height="0.13"/><polygon points="114 119 114.63 119 114.63 118.88 113.88 118.88 113.88 121.13 115.75 121.13 115.75 121 114 121 114 119"/><rect x="116" y="121" width="0.25" height="0.13"/><rect x="115.75" y="121" width="0.25" height="0.13"/><polygon points="132.13 118.88 131.38 118.88 131.38 119 132 119 132 121 130.25 121 130.25 121.13 132.13 121.13 132.13 118.88"/><rect x="129.75" y="121" width="0.25" height="0.13"/><rect x="130" y="121" width="0.25" height="0.13"/><polygon points="114.92 118.91 114.95 118.88 114.63 118.88 114.63 119 115 119 114.92 118.91"/><rect x="131" y="118.88" width="0.38" height="0.13"/><rect x="122.13" y="118.88" width="2.75" height="0.13"/><rect x="128.13" y="118.88" width="1.63" height="0.13"/><rect x="116.25" y="118.88" width="2.63" height="0.13"/><polygon points="115.33 118.88 115.19 119 115.75 119 115.75 118.88 115.33 118.88"/><rect x="116" y="118.88" width="0.25" height="0.13"/><rect x="115.75" y="118.88" width="0.25" height="0.13"/><rect x="130.25" y="118.88" width="0.75" height="0.13"/><rect x="129.75" y="118.88" width="0.25" height="0.13"/><rect x="130" y="118.88" width="0.25" height="0.13"/><rect x="129.13" y="120.88" width="0.63" height="0.13"/><rect x="116.25" y="120.88" width="0.63" height="0.13"/><polygon points="114.13 119.13 114.63 119.13 114.63 119 114 119 114 121 115.75 121 115.75 120.88 114.13 120.88 114.13 119.13"/><rect x="116" y="120.88" width="0.25" height="0.13"/><rect x="115.75" y="120.88" width="0.25" height="0.13"/><polygon points="132 119 131.38 119 131.38 119.13 131.88 119.13 131.88 120.88 130.25 120.88 130.25 121 132 121 132 119"/><rect x="129.75" y="120.88" width="0.25" height="0.13"/><rect x="130" y="120.88" width="0.25" height="0.13"/><rect x="122.13" y="119" width="2.75" height="0.13"/><rect x="128.13" y="119" width="1.63" height="0.13"/><rect x="116.25" y="119" width="2.63" height="0.13"/><polygon points="115.75 119 115.19 119 115.08 119.09 115 119 114.63 119 114.63 119.13 115.75 119.13 115.75 119"/><rect x="116" y="119" width="0.25" height="0.13"/><rect x="115.75" y="119" width="0.25" height="0.13"/><polygon points="130.25 119 130.25 119.13 131.38 119.13 131.38 119 131 119 130.25 119"/><rect x="129.75" y="119" width="0.25" height="0.13"/><rect x="130" y="119" width="0.25" height="0.13"/><rect x="119.13" y="119.38" width="2.75" height="1.5"/><rect x="119.13" y="119.13" width="2.75" height="0.25"/><rect x="122" y="119.38" width="0.13" height="1.5"/><rect x="118.88" y="119.38" width="0.13" height="1.5"/><rect x="118.88" y="119.13" width="0.13" height="0.25"/><rect x="122" y="119.13" width="0.13" height="0.25"/><polygon points="122.13 118.88 118.88 118.88 118.88 119 119 119 122 119 122.13 119 122.13 118.88"/><rect x="118.88" y="119" width="0.13" height="0.13"/><rect x="122" y="119" width="0.13" height="0.13"/><rect x="119" y="119.38" width="0.13" height="1.5"/><rect x="121.88" y="119.38" width="0.13" height="1.5"/><rect x="121.88" y="119.13" width="0.13" height="0.25"/><rect x="119" y="119.13" width="0.13" height="0.25"/><polygon points="122 119.13 122 119 119 119 119 119.13 119.13 119.13 121.88 119.13 122 119.13"/><rect x="125.13" y="119.38" width="2.75" height="1.5"/><rect x="125.13" y="119.13" width="2.75" height="0.25"/><rect x="128" y="119.38" width="0.13" height="1.5"/><rect x="124.88" y="119.38" width="0.13" height="1.5"/><rect x="128" y="119.13" width="0.13" height="0.25"/><rect x="124.88" y="119.13" width="0.13" height="0.25"/><polygon points="124.88 118.88 124.88 119 125 119 128 119 128.13 119 128.13 118.88 124.88 118.88"/><rect x="128" y="119" width="0.13" height="0.13"/><rect x="124.88" y="119" width="0.13" height="0.13"/><rect x="127.88" y="119.38" width="0.13" height="1.5"/><rect x="125" y="119.38" width="0.13" height="1.5"/><rect x="125" y="119.13" width="0.13" height="0.25"/><rect x="127.88" y="119.13" width="0.13" height="0.25"/><polygon points="125 119 125 119.13 125.13 119.13 127.88 119.13 128 119.13 128 119 125 119"/><rect class="cls-6" x="136.13" y="101.25" width="0.75" height="1.63"/><rect class="cls-6" x="136.13" y="101.13" width="0.75" height="0.13"/><rect x="136.13" y="100.88" width="0.75" height="0.13"/><rect x="136.13" y="103" width="0.75" height="0.13"/><polygon points="136.88 100.88 136.88 101 137 101 137.13 101 137.13 100.88 136.88 100.88"/><polygon points="136.88 103 136.88 103.13 137.13 103.13 137.13 103 137 103 136.88 103"/><rect x="137" y="101.25" width="0.13" height="1.63"/><polygon points="137.13 101 137 101 137 101.25 137.13 101.25 137.13 101.13 137.13 101"/><rect x="137" y="102.88" width="0.13" height="0.13"/><polygon points="136 101 136.13 101 136.13 100.88 135.88 100.88 135.88 101 136 101"/><polygon points="136 103 135.88 103 135.88 103.13 136.13 103.13 136.13 103 136 103"/><rect x="135.88" y="101.25" width="0.13" height="1.63"/><polygon points="135.88 101.25 136 101.25 136 101 135.88 101 135.88 101.13 135.88 101.25"/><rect x="135.88" y="102.88" width="0.13" height="0.13"/><rect x="136.13" y="101" width="0.75" height="0.13"/><rect x="136.13" y="102.88" width="0.75" height="0.13"/><rect x="136.88" y="101.25" width="0.13" height="1.63"/><polygon points="136.88 101.13 136.88 101.25 137 101.25 137 101 136.88 101 136.88 101.13"/><rect x="136.88" y="102.88" width="0.13" height="0.13"/><rect x="136" y="101.25" width="0.13" height="1.63"/><polygon points="136.13 101.25 136.13 101.13 136.13 101 136 101 136 101.25 136.13 101.25"/><rect x="136" y="102.88" width="0.13" height="0.13"/><rect class="cls-6" x="141.25" y="98.13" width="1.63" height="2.75"/><rect class="cls-6" x="141.13" y="98.13" width="0.13" height="2.75"/><rect x="140.88" y="98.13" width="0.13" height="2.75"/><rect x="143" y="98.13" width="0.13" height="2.75"/><rect x="140.88" y="100.88" width="0.13" height="0.13"/><polygon points="143 101 143 101.13 143.13 101.13 143.13 100.88 143 100.88 143 101"/><rect x="141.25" y="101" width="1.63" height="0.13"/><polygon points="141 101 140.88 101 140.88 101.13 141.25 101.13 141.25 101 141 101"/><rect x="142.88" y="101" width="0.13" height="0.13"/><rect x="141" y="98.13" width="0.13" height="2.75"/><rect x="142.88" y="98.13" width="0.13" height="2.75"/><rect x="141.25" y="100.88" width="1.63" height="0.13"/><polygon points="141.13 100.88 141 100.88 141 101 141.25 101 141.25 100.88 141.13 100.88"/><rect x="142.88" y="100.88" width="0.13" height="0.13"/><rect class="cls-6" x="141.25" y="97.13" width="1.63" height="0.75"/><rect class="cls-6" x="141.13" y="97.13" width="0.13" height="0.75"/><rect x="141.25" y="98" width="1.63" height="0.13"/><rect x="141.13" y="98" width="0.13" height="0.13"/><polygon points="141 98 141 97.13 140.88 97.13 140.88 98.13 141 98.13 141 98"/><polygon points="141 97.13 141 97 141 96.88 140.88 96.88 140.88 97.13 141 97.13"/><rect x="141.25" y="96.88" width="1.63" height="0.13"/><polygon points="141 97 141.25 97 141.25 96.88 141.13 96.88 141 96.88 141 97"/><polygon points="142.88 97 143 97 143.13 97 143.13 96.88 142.88 96.88 142.88 97"/><polygon points="143 98 143 98.13 143.13 98.13 143.13 97.13 143 97.13 143 98"/><rect x="143" y="97" width="0.13" height="0.13"/><rect x="141" y="98" width="0.13" height="0.13"/><rect x="142.88" y="98" width="0.13" height="0.13"/><rect x="141.25" y="97.88" width="1.63" height="0.13"/><rect x="141.13" y="97.88" width="0.13" height="0.13"/><polygon points="141.13 98 141.13 97.88 141.13 97.13 141 97.13 141 98 141.13 98"/><rect x="141.25" y="97" width="1.63" height="0.13"/><polygon points="141.13 97.13 141.25 97.13 141.25 97 141 97 141 97.13 141.13 97.13"/><polygon points="142.88 97.88 142.88 98 143 98 143 97.13 142.88 97.13 142.88 97.88"/><rect x="142.88" y="97" width="0.13" height="0.13"/><polygon class="cls-6" points="122.13 121.13 118.88 121.13 117.13 121.13 117.13 121.88 128.88 121.88 128.88 121.13 128.13 121.13 124.88 121.13 122.13 121.13"/><polygon points="129 122 117 122 117 121.13 116.88 121.13 116.88 122.13 129.13 122.13 129.13 121.13 129 121.13 129 122"/><rect x="129" y="121" width="0.13" height="0.13"/><rect x="116.88" y="121" width="0.13" height="0.13"/><polygon points="118.88 120.88 116.88 120.88 116.88 121 117 121 118.88 121 118.88 120.88"/><polygon points="128.13 120.88 128.13 121 129 121 129.13 121 129.13 120.88 128.13 120.88"/><rect x="122.13" y="120.88" width="2.75" height="0.13"/><rect x="118.88" y="120.88" width="0.13" height="0.13"/><rect x="122" y="120.88" width="0.13" height="0.13"/><polygon points="121.88 120.88 119.13 120.88 119 120.88 119 121 122 121 122 120.88 121.88 120.88"/><rect x="128" y="120.88" width="0.13" height="0.13"/><rect x="124.88" y="120.88" width="0.13" height="0.13"/><polygon points="125.13 120.88 125 120.88 125 121 128 121 128 120.88 127.88 120.88 125.13 120.88"/><polygon points="128.88 121.88 117.13 121.88 117.13 121.13 117 121.13 117 122 129 122 129 121.13 128.88 121.13 128.88 121.88"/><polygon points="118.88 121.13 118.88 121 117 121 117 121.13 117.13 121.13 118.88 121.13"/><rect x="122.13" y="121" width="2.75" height="0.13"/><polygon points="128.13 121.13 128.88 121.13 129 121.13 129 121 128.13 121 128.13 121.13"/><polygon points="122.13 121 122 121 119 121 118.88 121 118.88 121.13 122.13 121.13 122.13 121"/><polygon points="125 121 124.88 121 124.88 121.13 128.13 121.13 128.13 121 128 121 125 121"/><polygon points="116.13 100.1 115.13 100.09 115.13 100.47 116.13 100.47 116.13 100.1"/><polygon points="116.88 99.73 116.88 100.1 120.13 100.13 120.13 99.75 116.88 99.73"/><polygon points="124.88 100.16 129.13 100.19 129.13 99.82 124.88 99.79 124.88 100.16"/><polygon points="120.88 99.76 120.88 100.13 124.13 100.16 124.13 99.78 120.88 99.76"/><polygon points="116.13 99.72 115.13 99.72 115.13 100.09 116.13 100.1 116.13 99.72"/><polygon points="116.88 100.1 116.88 100.48 120.13 100.5 120.13 100.13 116.88 100.1"/><polygon points="129.88 99.83 129.88 100.2 132.75 100.22 132.75 99.85 129.88 99.83"/><polygon points="129.88 100.2 129.88 100.58 132.75 100.6 132.75 100.22 129.88 100.2"/><polygon points="124.88 100.16 124.88 100.54 129.13 100.57 129.13 100.19 124.88 100.16"/><polygon points="120.88 100.13 120.88 100.51 124.13 100.53 124.13 100.16 120.88 100.13"/><polygon points="132.75 100.22 132.88 100.22 132.88 99.85 132.75 99.85 132.75 100.22"/><polygon points="132.88 100.22 132.75 100.22 132.75 100.6 132.88 100.6 132.88 100.22"/><polygon points="132.88 100.22 132.88 100.6 133 100.6 133 100.22 133 100.22 132.88 100.22"/><polygon points="132.88 100.22 133 100.22 133 99.85 132.88 99.85 132.88 100.22"/><rect x="132.81" y="100.03" width="0.37" transform="translate(31.93 232.25) rotate(-89.55)"/><polygon points="104.85 100.11 105.22 100.11 105.22 100.11 105.22 100.11 105.6 100.11 105.6 100.39 108.63 100.42 108.63 100.22 109 100.22 109 100.22 109 100.22 109.38 100.22 109.38 100.42 112.63 100.45 112.63 100.22 113 100.22 113 100.22 113 100.22 113.38 100.22 113.38 100.45 113.88 100.46 113.88 100.08 103.13 100 103.13 100.38 104.85 100.39 104.85 100.11"/><polygon points="113.88 99.71 103.13 99.63 103.13 99.88 103.13 100 113.88 100.08 113.88 99.71"/><rect x="102.94" y="99.69" width="0.25" height="0.12" transform="translate(2.51 202.03) rotate(-89.55)"/><polygon points="114.88 99.71 114.13 99.71 114.13 100.08 114.88 100.09 114.88 99.71"/><polygon points="114.88 100.09 114.13 100.08 114.13 100.46 114.88 100.46 114.88 100.09"/><polygon points="115.13 100.09 115 100.09 115 100.46 115.13 100.47 115.13 100.09"/><polygon points="115.13 99.72 115 99.71 115 100.09 115.13 100.09 115.13 99.72"/><polygon points="114 100.08 113.88 100.08 113.88 100.46 114 100.46 114 100.08"/><polygon points="114 99.71 113.88 99.71 113.88 100.08 114 100.08 114 99.71"/><polygon points="115 99.71 114.88 99.71 114.88 100.09 115 100.09 115 99.71"/><polygon points="115 100.09 114.88 100.09 114.88 100.46 115 100.46 115 100.09"/><polygon points="114.13 100.08 114.13 99.71 114 99.71 114 100.08 114.13 100.08"/><polygon points="114 100.08 114 100.46 114.13 100.46 114.13 100.08 114 100.08"/><rect x="103" y="99.88" width="0.12" height="0.13"/><polygon points="103.13 100.38 103.13 100 103 100 103 100.38 103.13 100.38"/><polygon points="103 100.38 103 100 103 100.38 103 100.38"/><rect x="113.38" y="101.63" width="0.5" height="0.38"/><rect x="113.38" y="102" width="0.5" height="0.38"/><rect x="103.13" y="102" width="1.72" height="0.38"/><rect x="109.38" y="101.63" width="3.25" height="0.38"/><rect x="103.13" y="101.63" width="1.72" height="0.38"/><rect x="105.6" y="102" width="3.03" height="0.38"/><rect x="105.6" y="101.63" width="3.03" height="0.38"/><rect x="109.38" y="102" width="3.25" height="0.38"/><rect x="113.88" y="102" width="0.13" height="0.38"/><rect x="113.88" y="101.63" width="0.13" height="0.38"/><rect x="103" y="102" width="0.13" height="0.38"/><rect x="103" y="101.63" width="0.13" height="0.38"/><polygon points="116.5 98 116.88 98 120.13 98 120.5 98 120.88 98 124.13 98 124.5 98 124.88 98 129.13 98 129.5 98 129.88 98 132.75 98 132.75 97.63 115.13 97.63 115.13 98 116.13 98 116.5 98"/><rect x="115.13" y="98" width="1" height="0.38"/><rect x="116.88" y="98" width="3.25" height="0.38"/><rect x="129.88" y="98" width="2.88" height="0.38"/><rect x="120.88" y="98" width="3.25" height="0.38"/><rect x="124.88" y="98" width="4.25" height="0.38"/><rect x="132.75" y="97.63" width="0.13" height="0.38"/><rect x="132.75" y="98" width="0.13" height="0.38"/><rect x="132.88" y="97.63" width="0.13" height="0.38"/><rect x="132.88" y="98" width="0.13" height="0.38"/><rect x="115" y="98" width="0.13" height="0.38"/><rect x="115" y="97.63" width="0.13" height="0.38"/><rect x="104.42" y="100.82" width="1.23" height="0.38" transform="translate(3.24 205.28) rotate(-89.57)"/><rect x="105.22" y="100.39" width="0.37" height="1.23"/><rect x="105.22" y="102.38" width="0.37" height="2.5"/><rect x="104.85" y="102.38" width="0.38" height="2.5"/><rect x="105.22" y="104.88" width="0.37" height="0.13"/><rect x="104.85" y="104.88" width="0.38" height="0.13"/><rect x="105.22" y="100.11" width="0.37" height="0.28"/><rect x="104.85" y="100.11" width="0.38" height="0.28"/><rect x="104.85" y="101.63" width="0.38" height="0.38"/><rect x="105.22" y="101.63" width="0.37" height="0.38"/><rect x="105.22" y="102" width="0.37" height="0.38"/><rect x="104.85" y="102" width="0.38" height="0.38"/><rect x="109" y="100.42" width="0.38" height="1.2"/><rect x="108.63" y="100.42" width="0.38" height="1.21"/><rect x="109" y="102.38" width="0.38" height="2.5"/><rect x="108.63" y="102.38" width="0.38" height="2.5"/><rect x="109" y="104.88" width="0.38" height="0.13"/><rect x="108.63" y="104.88" width="0.38" height="0.13"/><rect x="109" y="100.22" width="0.38" height="0.2"/><rect x="108.63" y="100.22" width="0.38" height="0.2"/><rect x="109" y="102" width="0.38" height="0.38"/><rect x="109" y="101.63" width="0.38" height="0.38"/><rect x="108.63" y="102" width="0.38" height="0.38"/><rect x="108.63" y="101.63" width="0.38" height="0.38"/><rect x="113" y="102.38" width="0.38" height="2.5"/><rect x="112.63" y="102.38" width="0.38" height="2.5"/><rect x="113" y="100.45" width="0.38" height="1.17"/><rect x="112.63" y="100.45" width="0.38" height="1.18"/><rect x="113" y="104.88" width="0.38" height="0.13"/><rect x="112.63" y="104.88" width="0.38" height="0.13"/><rect x="113" y="100.22" width="0.38" height="0.23"/><rect x="112.63" y="100.22" width="0.38" height="0.23"/><rect x="112.63" y="102" width="0.38" height="0.38"/><rect x="113" y="101.63" width="0.38" height="0.38"/><rect x="112.63" y="101.63" width="0.38" height="0.38"/><rect x="113" y="102" width="0.38" height="0.38"/><polygon points="129.88 103.17 129.13 103.17 129.13 103.13 124.88 103.13 124.88 103.17 124.13 103.17 124.13 103.13 120.88 103.13 120.88 103.17 120.13 103.17 120.13 103.13 116.88 103.13 116.88 103.17 116.13 103.17 116.13 103.13 115.13 103.13 115.13 103.5 132.88 103.5 132.88 103.13 129.88 103.13 129.88 103.17"/><rect x="115.13" y="103.5" width="17.75" height="0.38"/><rect x="132.88" y="103.13" width="0.13" height="0.38"/><rect x="132.88" y="103.5" width="0.13" height="0.38"/><rect x="115" y="103.5" width="0.13" height="0.38"/><rect x="115" y="103.13" width="0.13" height="0.38"/><rect x="116.5" y="100.48" width="0.38" height="2.65"/><rect x="116.5" y="98.38" width="0.38" height="1.35"/><rect x="116.13" y="98.38" width="0.38" height="1.35"/><rect x="114.99" y="101.61" width="2.65" height="0.38" transform="translate(13.64 217.35) rotate(-89.57)"/><polygon points="116.5 99.72 116.5 100.1 116.88 100.1 116.88 99.73 116.5 99.72"/><polygon points="116.5 100.1 116.5 100.47 116.88 100.48 116.88 100.1 116.5 100.1"/><polygon points="116.5 99.72 116.13 99.72 116.13 100.1 116.5 100.1 116.5 99.72"/><polygon points="116.13 100.1 116.13 100.47 116.5 100.47 116.5 100.1 116.13 100.1"/><rect x="116.13" y="98" width="0.38" height="0.38"/><rect x="116.5" y="98" width="0.38" height="0.38"/><polygon points="116.5 103.17 116.5 103.13 116.13 103.13 116.13 103.17 116.88 103.17 116.88 103.13 116.5 103.13 116.5 103.17"/><rect x="119" y="101.63" width="2.62" height="0.38" transform="translate(17.62 221.38) rotate(-89.58)"/><rect x="120.5" y="100.51" width="0.38" height="2.62"/><rect x="120.5" y="98.38" width="0.38" height="1.38"/><rect x="120.13" y="98.38" width="0.38" height="1.38"/><polygon points="120.5 100.13 120.5 100.5 120.88 100.51 120.88 100.13 120.5 100.13"/><polygon points="120.5 99.75 120.5 100.13 120.88 100.13 120.88 99.76 120.5 99.75"/><polygon points="120.13 99.75 120.13 100.13 120.5 100.13 120.5 99.75 120.13 99.75"/><polygon points="120.13 100.13 120.13 100.5 120.5 100.5 120.5 100.13 120.13 100.13"/><rect x="120.13" y="98" width="0.38" height="0.38"/><rect x="120.5" y="98" width="0.38" height="0.38"/><polygon points="120.5 103.17 120.5 103.13 120.13 103.13 120.13 103.17 120.88 103.17 120.88 103.13 120.5 103.13 120.5 103.17"/><rect x="123.02" y="101.64" width="2.59" height="0.38" transform="translate(21.56 225.38) rotate(-89.57)"/><rect x="124.13" y="98.38" width="0.38" height="1.41"/><rect x="124.5" y="100.54" width="0.38" height="2.59"/><rect x="124.5" y="98.38" width="0.38" height="1.41"/><polygon points="124.5 99.78 124.5 100.16 124.88 100.16 124.88 99.79 124.5 99.78"/><polygon points="124.13 100.16 124.13 100.53 124.5 100.53 124.5 100.16 124.13 100.16"/><polygon points="124.13 99.78 124.13 100.16 124.5 100.16 124.5 99.78 124.13 99.78"/><polygon points="124.5 100.16 124.5 100.53 124.88 100.54 124.88 100.16 124.5 100.16"/><rect x="124.13" y="98" width="0.38" height="0.38"/><rect x="124.5" y="98" width="0.38" height="0.38"/><polygon points="124.5 103.17 124.5 103.13 124.13 103.13 124.13 103.17 124.88 103.17 124.88 103.13 124.5 103.13 124.5 103.17"/><rect x="129.5" y="100.57" width="0.38" height="2.55"/><rect x="129.5" y="98.38" width="0.38" height="1.45"/><rect x="128.04" y="101.66" width="2.55" height="0.38" transform="translate(26.5 230.39) rotate(-89.57)"/><rect x="129.13" y="98.38" width="0.38" height="1.45"/><polygon points="129.13 100.57 129.5 100.57 129.5 100.2 129.13 100.19 129.13 100.57"/><polygon points="129.5 99.82 129.5 100.2 129.88 100.2 129.88 99.83 129.5 99.82"/><polygon points="129.13 99.82 129.13 100.19 129.5 100.2 129.5 99.82 129.13 99.82"/><polygon points="129.5 100.2 129.5 100.57 129.88 100.58 129.88 100.2 129.5 100.2"/><rect x="129.5" y="98" width="0.38" height="0.38"/><rect x="129.13" y="98" width="0.38" height="0.38"/><polygon points="129.5 103.17 129.5 103.13 129.13 103.13 129.13 103.17 129.88 103.17 129.88 103.13 129.5 103.13 129.5 103.17"/><polygon points="125.13 110.14 125.13 110.25 125 110.25 122.44 112.49 122.44 112.66 126.47 109.13 126.29 109.13 125.13 110.14"/><polygon points="119.88 114.73 119.88 114.84 119.75 114.84 117.5 116.81 117.5 116.92 117.38 116.92 116.25 117.91 116.25 118.07 122.43 112.66 122.24 112.66 119.88 114.73"/><polygon points="124.88 110.19 122.44 112.33 122.44 112.49 125 110.25 124.88 110.25 124.88 110.19"/><polygon points="125.13 109.97 125.13 110.14 126.29 109.13 126.1 109.13 125.13 109.97"/><polygon points="117.25 116.87 116.25 117.74 116.25 117.91 117.38 116.92 117.25 116.92 117.25 116.87"/><polygon points="119.63 114.79 117.5 116.65 117.5 116.81 119.75 114.84 119.63 114.84 119.63 114.79"/><polygon points="122.19 112.55 119.88 114.57 119.88 114.73 122.24 112.66 122.19 112.66 122.19 112.55"/><polygon points="130.63 105.38 130.57 105.38 126.57 108.88 126.76 108.88 130.63 105.49 130.63 105.38"/><polygon points="126.57 108.88 130.57 105.38 130.38 105.38 126.38 108.88 126.57 108.88"/><polygon points="126.43 109 126.29 109.13 126.47 109.13 126.62 109 126.43 109"/><polygon points="126.1 109.13 126.29 109.13 126.43 109 126.24 109 126.1 109.13"/><polygon points="126.38 108.88 126.24 109 126.43 109 126.57 108.88 126.38 108.88"/><polygon points="126.43 109 126.62 109 126.76 108.88 126.57 108.88 126.43 109"/><polygon points="115.75 118.18 115.38 118.51 115.38 118.63 115.43 118.63 115.75 118.34 115.75 118.18"/><polygon points="115.75 118.51 115.75 118.34 115.43 118.63 115.62 118.63 115.75 118.51"/><polygon points="116.25 117.74 116 117.96 116 118.13 116.25 117.91 116.25 117.74"/><polygon points="116 118.13 116 118.29 116.25 118.07 116.25 117.91 116 118.13"/><polygon points="116 117.96 115.75 118.18 115.75 118.34 116 118.13 116 117.96"/><polygon points="116 118.13 115.75 118.34 115.75 118.51 116 118.29 116 118.13"/><polygon points="130.92 104.91 130.81 105 131 105 130.92 104.91"/><polygon points="131.08 105.09 131 105 131 105.17 131.08 105.09"/><polygon points="115 118.83 114.95 118.88 115 118.88 115 118.83"/><polygon points="130.57 105.38 131 105 130.81 105 130.38 105.38 130.57 105.38"/><polygon points="130.63 105.38 130.63 105.49 131 105.17 131 105 130.57 105.38 130.63 105.38"/><polygon points="115.14 118.88 115.43 118.63 115.38 118.63 115.38 118.51 115 118.83 115 118.88 115.14 118.88"/><polygon points="115.43 118.63 115.14 118.88 115.33 118.88 115.62 118.63 115.43 118.63"/><polygon points="114.95 118.88 114.92 118.91 115 119 115 118.88 114.95 118.88"/><polygon points="115 118.88 115 119 115.14 118.88 115 118.88"/><polygon points="115.14 118.88 115 119 115.19 119 115.33 118.88 115.14 118.88"/><polygon points="115.08 119.09 115.19 119 115 119 115.08 119.09"/><polygon points="117.25 111.11 116.25 111.95 116.25 112.11 117.25 111.27 117.25 111.11"/><polygon points="117.5 111.06 119.63 109.27 119.63 109.13 119.6 109.13 117.38 111 117.5 111 117.5 111.06"/><polygon points="117.25 111 117.38 111 119.6 109.13 119.41 109.13 116.25 111.78 116.25 111.95 117.25 111.11 117.25 111"/><polygon points="119.9 108.88 122.19 106.95 122.19 106.84 122.31 106.84 122.31 106.84 122.31 106.84 122.31 106.84 124.06 105.38 123.86 105.38 119.7 108.88 119.9 108.88"/><polygon points="122.19 107.11 122.19 106.95 119.9 108.88 120.09 108.88 122.19 107.11"/><polygon points="122.31 106.84 122.44 106.84 122.44 106.9 124.25 105.38 124.06 105.38 122.31 106.84 122.31 106.84"/><polygon points="122.31 106.84 122.31 106.84 122.31 106.84 122.31 106.84"/><polygon points="119.94 109 119.88 109 119.88 109.06 119.94 109"/><polygon points="119.63 109.11 119.6 109.13 119.63 109.13 119.63 109.11"/><polygon points="119.63 109 119.56 109 119.41 109.13 119.6 109.13 119.63 109.11 119.63 109"/><polygon points="119.88 109 119.94 109 120.09 108.88 119.9 108.88 119.75 109 119.88 109"/><polygon points="119.75 109 119.9 108.88 119.7 108.88 119.56 109 119.63 109 119.75 109"/><polygon points="115.38 112.52 115.38 112.68 115.75 112.37 115.75 112.2 115.38 112.52"/><polygon points="115.75 112.37 115.38 112.68 115.38 112.85 115.75 112.53 115.75 112.37"/><polygon points="116.25 111.78 116 112 116 112.16 116.25 111.95 116.25 111.78"/><polygon points="116.25 111.95 116 112.16 116 112.32 116.25 112.11 116.25 111.95"/><polygon points="116 112 115.75 112.2 115.75 112.37 116 112.16 116 112"/><polygon points="116 112.16 115.75 112.37 115.75 112.53 116 112.32 116 112.16"/><polygon points="124.42 104.91 124.31 105 124.5 105 124.42 104.91"/><polygon points="124.06 105.38 124.5 105 124.31 105 123.86 105.38 124.06 105.38"/><polygon points="124.25 105.38 124.58 105.1 124.5 105 124.06 105.38 124.25 105.38"/><polygon points="115.38 112.52 115.13 112.73 115.13 112.89 115.38 112.68 115.38 112.52"/><polygon points="115.13 112.89 115.13 113.06 115.38 112.85 115.38 112.68 115.13 112.89"/><polygon points="115.13 113.06 115.13 112.89 115 113 115.08 113.1 115.13 113.06"/><polygon points="115.13 112.73 115 112.84 115 113 115.13 112.89 115.13 112.73"/><polygon points="114.92 112.91 115 113 115 112.84 114.92 112.91"/><polygon points="117.38 111.16 117.38 116.76 117.5 116.65 117.5 111.06 117.38 111.16"/><polygon points="117.25 111.27 117.25 116.87 117.38 116.76 117.38 111.16 117.25 111.27"/><polygon points="117.5 116.92 117.5 116.81 117.38 116.92 117.5 116.92"/><polygon points="117.38 116.76 117.38 116.92 117.5 116.81 117.5 116.65 117.38 116.76"/><polygon points="117.25 116.87 117.25 116.92 117.38 116.92 117.38 116.76 117.25 116.87"/><polygon points="117.25 111 117.25 111.11 117.38 111 117.25 111"/><polygon points="117.5 111.06 117.5 111 117.38 111 117.38 111.16 117.5 111.06"/><polygon points="117.38 111 117.25 111.11 117.25 111.27 117.38 111.16 117.38 111"/><polygon points="119.8 109.13 119.75 109.16 119.75 114.68 119.88 114.57 119.88 109.13 119.8 109.13"/><polygon points="119.63 109.27 119.63 114.79 119.75 114.68 119.75 109.16 119.63 109.27"/><polygon points="119.8 109.13 119.88 109.13 119.88 109.06 119.8 109.13"/><polygon points="119.63 114.79 119.63 114.84 119.75 114.84 119.75 114.68 119.63 114.79"/><polygon points="119.75 114.68 119.75 114.84 119.88 114.73 119.88 114.57 119.75 114.68"/><polygon points="119.88 114.84 119.88 114.73 119.75 114.84 119.88 114.84"/><polygon points="119.63 109.13 119.63 109.27 119.75 109.16 119.75 109.13 119.63 109.13"/><polygon points="119.75 109.16 119.8 109.13 119.75 109.13 119.75 109.16"/><polygon points="119.63 109 119.63 109.11 119.75 109 119.63 109"/><polygon points="119.88 109 119.75 109 119.75 109.13 119.8 109.13 119.88 109.06 119.88 109"/><polygon points="119.75 109 119.63 109.11 119.63 109.13 119.75 109.13 119.75 109"/><polygon points="122.31 109.13 122.31 112.44 122.44 112.33 122.44 109.13 122.31 109.13"/><polygon points="122.19 109.13 122.19 112.55 122.31 112.44 122.31 109.13 122.19 109.13"/><polygon points="122.44 112.66 122.44 112.66 122.43 112.66 122.44 112.66"/><polygon points="122.31 108.88 122.44 108.88 122.44 106.9 122.31 107 122.31 108.88"/><polygon points="122.31 108.88 122.31 107 122.19 107.11 122.19 108.88 122.31 108.88"/><rect x="122.31" y="109" width="0.12" height="0.13"/><rect x="122.19" y="109" width="0.13" height="0.13"/><rect x="122.31" y="108.88" width="0.12" height="0.13"/><rect x="122.19" y="108.88" width="0.13" height="0.13"/><polygon points="122.31 112.6 122.31 112.66 122.31 112.6 122.24 112.66 122.43 112.66 122.44 112.66 122.44 112.49 122.31 112.6"/><polygon points="122.31 112.44 122.31 112.6 122.44 112.49 122.44 112.33 122.31 112.44"/><polygon points="122.19 112.55 122.19 112.66 122.24 112.66 122.31 112.6 122.31 112.44 122.19 112.55"/><polygon points="122.44 106.9 122.44 106.84 122.31 106.84 122.31 107 122.44 106.9"/><polygon points="122.19 106.84 122.19 106.95 122.31 106.84 122.19 106.84"/><polygon points="122.31 107 122.31 106.84 122.31 106.84 122.19 106.95 122.19 107.11 122.31 107"/><polygon points="124.88 109.13 124.88 110.19 125 110.08 125 109.13 124.88 109.13"/><polygon points="125 109.13 125 110.08 125.13 109.97 125.13 109.13 125 109.13"/><rect x="125" y="105.38" width="0.13" height="3.5"/><rect x="124.88" y="105.38" width="0.13" height="3.5"/><rect x="125" y="109" width="0.13" height="0.13"/><rect x="124.88" y="109" width="0.13" height="0.13"/><rect x="125" y="108.88" width="0.13" height="0.13"/><rect x="124.88" y="108.88" width="0.13" height="0.13"/><rect x="124.88" y="105" width="0.13" height="0.38"/><rect x="125" y="105" width="0.13" height="0.38"/><polygon points="125.13 110.25 125.13 110.14 125 110.25 125.13 110.25"/><polygon points="125 110.08 125 110.25 125.13 110.14 125.13 109.97 125 110.08"/><polygon points="124.88 110.19 124.88 110.25 125 110.25 125 110.08 124.88 110.19"/><polygon class="cls-3" points="1 64.52 5 64 7 75 12 82 11 88 16 95 17 102 21 106 25 106 31 124 146 126 149 124 151 124 159 114 161 115 170 125 178 125 181 132.67 181 181 1 181 1 64.52"/><polygon class="cls-3" points="14 87 13 88 14 90.52 15.81 91 17 90 17 87.41 14 87"/><polygon class="cls-3" points="20 90 18 93 19 95 21 98 24 98 25 96 25 93 20 90"/><polygon class="cls-3" points="27.67 90 27.07 92.15 29 95 31 96 32.48 94 32.48 91.7 30.63 90 27.67 90"/><polygon class="cls-3" points="26 99 26 102 28 104 29.78 104 31.52 101.5 29.78 99 27.07 98 26 99"/><polygon class="cls-3" points="35 103 35 105.33 37 107 38 107 39.3 105 38 103 35 103"/><polygon class="cls-3" points="48 106 46 109 46 111.33 48 112.67 50 113 52 111 52 109.11 50.04 107 48 106"/><polygon class="cls-3" points="52 118.44 51 121 50.11 122.5 53 125 56.85 125 57 121 55.96 118.44 52 118.44"/><polygon class="cls-3" points="40.19 125 48 123 49 120 47 114 37.15 109.11 33 111 31.52 114.96 34 119 36 123 39.3 125.63 40.19 125"/><path d="M182,182H0V0H182ZM2,180H180V2H2Z"/><path class="cls-8" d="M101,40.5a30,30,0,1,0-30,30A30,30,0,0,0,101,40.5ZM57.5,60.79,47.25,54.64v-3.8l3-2.46v-8l.14-.07L87.5,21.22,91.24,23l.51,9.41,3,5V40l-.13.07Z"/><path class="cls-9" d="M103,40.5a32,32,0,1,0-33,32V89.59C68.82,88.91,67,88,67,88l4,12,4-12s-1.82.91-3,1.59V72.47A32,32,0,0,0,103,40.5Zm-32,30a30,30,0,1,1,30-30A30,30,0,0,1,71,70.5Z"/><polygon class="cls-10" points="54.83 50.62 57.6 56.61 94.15 37.4 91.43 32.81 54.83 50.62"/><polygon class="cls-4" points="57.75 60.07 94.25 39.7 94.25 37.91 57.75 57.1 57.75 60.07"/><polygon class="cls-11" points="54.25 50.5 54.25 42.66 50.75 40.91 50.75 48.62 47.75 51.08 47.75 54.36 57.25 60.06 57.25 57 54.25 50.5"/><polygon class="cls-10" points="90.45 23.2 87.5 21.78 51.05 40.5 54.5 42.22 90.45 23.2"/><polygon class="cls-4" points="54.75 50.1 91.24 32.35 90.77 23.59 54.75 42.65 54.75 50.1"/><path d="M94.75,40V37.43l-3-5L91.24,23l-3.74-1.8L50.39,40.28l-.14.07v8l-3,2.46v3.8L57.5,60.79,94.62,40.07Zm-.25-.15L57.75,60.36v.14h-.5v-.15L47.5,54.5V51l3-2.46V40.78l-.11-.06.11-.22.11-.22.17.08L87.5,21.5l3.22,1.55.16-.08.12.22h0l.12.22-.11.05.49,9,2.87,4.79h0l.12.22.12.22-.12.06Z"/><polygon points="91.43 32.81 94.15 37.4 94.37 37.28 91.5 32.5 91.61 32.73 91.43 32.81"/><polygon points="91.24 32.35 91.39 32.28 91.5 32.5 91.02 23.46 90.77 23.59 91.24 32.35"/><polygon points="87.5 21.78 90.45 23.2 90.72 23.05 87.5 21.5 50.78 40.36 51.05 40.5 87.5 21.78"/><polygon points="91 23.18 91 23.18 91 23.19 91 23.18"/><polygon points="94.25 39.7 57.75 60.07 57.75 60.36 94.5 39.85 94.5 37.78 94.25 37.91 94.25 39.7"/><polygon points="47.75 54.36 47.75 51.08 50.75 48.62 50.75 40.91 50.5 40.78 50.5 48.5 47.5 50.96 47.5 54.5 57.25 60.35 57.25 60.06 47.75 54.36"/><polygon points="57.62 57.17 57.38 56.72 57.6 56.61 54.83 50.62 54.61 50.73 54.39 50.28 54.75 50.1 54.75 42.65 54.62 42.72 54.38 42.28 54.5 42.22 51.05 40.5 50.75 40.65 50.75 40.91 54.25 42.66 54.25 50.5 57.25 57 57.25 60.06 57.5 60.21 57.75 60.07 57.75 57.1 57.62 57.17"/><polygon points="50.39 40.72 50.5 40.78 50.5 40.5 50.39 40.72"/><polygon points="57.25 60.5 57.5 60.5 57.25 60.35 57.25 60.5"/><polygon points="50.61 40.28 50.5 40.5 50.78 40.36 50.61 40.28"/><polygon points="57.75 60.5 57.75 60.36 57.5 60.5 57.75 60.5"/><polygon points="50.75 40.65 51.05 40.5 50.78 40.36 50.5 40.5 50.5 40.78 50.75 40.91 50.75 40.65"/><polygon points="57.5 60.21 57.25 60.06 57.25 60.35 57.5 60.5 57.75 60.36 57.75 60.07 57.5 60.21"/><polygon points="54.75 50.45 54.83 50.62 91.43 32.81 91.25 32.51 91.24 32.35 54.75 50.1 54.75 50.45"/><polygon points="91.24 32.35 91.25 32.51 91.43 32.81 91.61 32.73 91.5 32.5 91.39 32.28 91.24 32.35"/><polygon points="54.75 50.1 54.39 50.28 54.61 50.73 54.83 50.62 54.75 50.45 54.75 50.1"/><polygon points="57.75 56.95 57.75 57.1 94.25 37.91 94.25 37.57 94.15 37.4 57.6 56.61 57.75 56.95"/><polygon points="94.38 37.28 94.37 37.28 94.5 37.5 94.38 37.28"/><polygon points="94.5 37.5 94.5 37.78 94.62 37.72 94.5 37.5"/><polygon points="94.37 37.28 94.15 37.4 94.25 37.57 94.25 37.91 94.5 37.78 94.5 37.5 94.37 37.28"/><polygon points="57.62 57.17 57.75 57.1 57.75 56.95 57.6 56.61 57.38 56.72 57.62 57.17"/><polygon points="54.75 42.35 54.75 42.65 90.77 23.59 90.76 23.35 90.45 23.2 54.5 42.22 54.75 42.35"/><polygon points="90.88 22.96 90.72 23.05 91 23.18 90.88 22.96"/><polygon points="91.12 23.41 91 23.19 91.02 23.46 91.12 23.41"/><polygon points="90.76 23.35 90.77 23.59 91.02 23.46 91 23.19 91 23.18 90.72 23.05 90.45 23.2 90.76 23.35"/><polygon points="54.5 42.22 54.38 42.28 54.62 42.72 54.75 42.65 54.75 42.35 54.5 42.22"/></g></g></svg>