<svg xmlns="http://www.w3.org/2000/svg" viewBox="0 0 182 182"><defs><style>.cls-1{fill:#fff;}.cls-2{fill:none;}.cls-3{fill:#ee7402;}.cls-4{fill:#9b9a9a;}.cls-5{fill:#345b9b;}.cls-6{fill:#d8d8d8;}</style></defs><g id="Capa_2" data-name="Capa 2"><g id="Capa_3" data-name="Capa 3"><path class="cls-1" d="M145.89,114.43l-6.39,1.11-6.39,1.12a3.21,3.21,0,0,1-3.71-2.6l-.5-2.88L118.63,113a2.57,2.57,0,0,0-2.09,3l8.77,50.19a2.57,2.57,0,0,0,3,2.09l39.63-6.92a2.57,2.57,0,0,0,2.09-3l-8.77-50.19a2.57,2.57,0,0,0-3-2.09L148,107.85l.5,2.87A3.21,3.21,0,0,1,145.89,114.43Z"/><path class="cls-2" d="M158.26,106.05,148,107.85l.5,2.87a3.21,3.21,0,0,1-2.6,3.71l-6.39,1.11-6.39,1.12a3.21,3.21,0,0,1-3.71-2.6l-.5-2.88L118.63,113a2.57,2.57,0,0,0-2.09,3l8.77,50.19a2.57,2.57,0,0,0,3,2.09l39.63-6.92a2.57,2.57,0,0,0,2.09-3l-8.77-50.19A2.57,2.57,0,0,0,158.26,106.05Z"/><path class="cls-3" d="M158.23,99.85l-11,1.92a10.2,10.2,0,0,0-19.69,3.44l-11,1.92a4.84,4.84,0,0,0-3.94,5.61l9.56,54.74a4.85,4.85,0,0,0,5.62,3.94l41.67-7.28a4.85,4.85,0,0,0,3.95-5.61l-9.56-54.74A4.85,4.85,0,0,0,158.23,99.85Zm-21.87,1.81a3.57,3.57,0,1,1-2.27,3.25A3.58,3.58,0,0,1,136.36,101.66ZM170,158.33a2.57,2.57,0,0,1-2.09,3l-39.63,6.92a2.57,2.57,0,0,1-3-2.09L116.54,116a2.57,2.57,0,0,1,2.09-3l10.27-1.8.49,2.79a3.27,3.27,0,0,0,3.8,2.67l6.31-1.1,6.31-1.1a3.29,3.29,0,0,0,2.67-3.8l-.49-2.79,10.27-1.8a2.57,2.57,0,0,1,3,2.09Z"/><circle class="cls-1" cx="137.66" cy="104.99" r="3.57"/><rect class="cls-4" x="140.27" y="122.28" width="16.32" height="2.04" rx="1" transform="translate(-19.01 27.38) rotate(-9.91)"/><rect class="cls-4" x="142.9" y="137.35" width="16.32" height="2.04" rx="1" transform="translate(-21.56 28.06) rotate(-9.91)"/><rect class="cls-4" x="145.53" y="152.42" width="16.32" height="2.04" rx="1" transform="translate(-24.11 28.74) rotate(-9.91)"/><path class="cls-5" d="M129.21,131.83h0a1,1,0,0,1-.89-.31L125,128a1,1,0,0,1,0-1.44,1,1,0,0,1,1.45,0l2.34,2.5,4-7.79a1,1,0,1,1,1.82.92l-4.63,9.09A1,1,0,0,1,129.21,131.83Z"/><path class="cls-5" d="M131.84,146.9h0a1,1,0,0,1-.88-.31L127.58,143a1,1,0,0,1,1.49-1.4l2.35,2.5,4-7.79a1,1,0,0,1,1.82.92l-4.62,9.09A1,1,0,0,1,131.84,146.9Z"/><path class="cls-6" d="M75.2,33h0a22.28,22.28,0,0,0-5.91-14.43,2,2,0,0,0-3.34.92c-.92,4-2.05,7.05-2.59,6.51-.81-.81.34-3,.81-9.13a2.2,2.2,0,0,0-1.56-2.3A15.48,15.48,0,0,0,58.37,14a15.85,15.85,0,0,0-4.61.67A2.21,2.21,0,0,0,52.25,17c.48,6.08,1.62,8.24.81,9-.53.53-1.64-2.45-2.55-6.34a2,2,0,0,0-3.35-.91A22.1,22.1,0,0,0,41.23,33h0a1.91,1.91,0,0,0-1.76,1,2,2,0,0,0,1.76,3H46a2,2,0,0,0,1.72,1h21a2,2,0,0,0,1.72-1H75.2A2,2,0,0,0,77,34,1.94,1.94,0,0,0,75.2,33Z"/><path class="cls-6" d="M70.94,39.27l-.38.37a1.23,1.23,0,0,1-.87.36h-23a1.23,1.23,0,0,1-.87-.36l-.37-.37a.91.91,0,0,0-.64-.27h-.47a.59.59,0,0,0-.6.63C44.3,47.66,50.55,54,58.2,54s13.9-6.34,14.45-14.37A.6.6,0,0,0,72,39h-.46A.91.91,0,0,0,70.94,39.27Z"/><path class="cls-6" d="M58.2,60c-14.63,0-26.5,3.13-26.5,7l1,6h51l1-6C84.7,63.13,72.84,60,58.2,60Z"/><path class="cls-6" d="M25,87.33H21.21a2.45,2.45,0,0,1-2.38-1.86L18.22,83a13.65,13.65,0,0,0,.5,11.15,5.75,5.75,0,0,0,5.21,3.37H25a5.12,5.12,0,1,0,0-10.23Z"/><path class="cls-6" d="M91.36,87.33h3.83a2.45,2.45,0,0,0,2.38-1.86L98.18,83a13.65,13.65,0,0,1-.5,11.15,5.74,5.74,0,0,1-5.21,3.37H91.36a5.12,5.12,0,1,1,0-10.23Z"/><path class="cls-3" d="M96.22,74l-1.11,1-35,.42L21.29,75l-1.11-1H18.29L19.8,85.42a1.42,1.42,0,0,0,1.32.91H25a6.12,6.12,0,0,1,0,12.23H23.84a6.53,6.53,0,0,1-2.37-.46l.48,3.66A14.47,14.47,0,0,0,36.3,114.33H80.1a14.47,14.47,0,0,0,14.35-12.57l.48-3.66a6.53,6.53,0,0,1-2.37.46H91.45a6.12,6.12,0,1,1,0-12.23h3.83a1.45,1.45,0,0,0,1.33-.91L98.11,74Z"/><path class="cls-3" d="M90.58,70.35a1.39,1.39,0,0,0-1-.51l-3.56-.31a6,6,0,0,1-.74.47L85,74.28h5.65l.25-2.85A1.51,1.51,0,0,0,90.58,70.35Z"/><path class="cls-3" d="M97.8,68c-1-4-5.77-5-7.69-4a5.35,5.35,0,0,0-2.88,4,1.14,1.14,0,0,1-.22.61l2.68.23a2.29,2.29,0,0,1,1.62.87,2.51,2.51,0,0,1,.55,1.81l-.24,2.76h2.87S98.76,72,97.8,68Z"/><path class="cls-3" d="M25.59,70.08a1.34,1.34,0,0,1,.94-.52l3.45-.3a6.44,6.44,0,0,0,.72.46L31,74H25.52l-.24-2.85A1.56,1.56,0,0,1,25.59,70.08Z"/><path class="cls-3" d="M18.6,67.72c.93-4,5.58-5,7.45-4a5.36,5.36,0,0,1,2.79,4,1.14,1.14,0,0,0,.22.61l-2.61.23a2.3,2.3,0,0,0-1.57.87,2.64,2.64,0,0,0-.53,1.81L24.59,74H21.81S17.67,71.72,18.6,67.72Z"/><path d="M182,182H0V0H182ZM2,180H180V2H2Z"/></g></g></svg>