<svg xmlns="http://www.w3.org/2000/svg" viewBox="0 0 182 182"><defs><style>.cls-1{fill:#cecece;}.cls-2{fill:#fff;}.cls-3{fill:none;}.cls-4{fill:#ee7402;}.cls-5{fill:#9b9a9a;}.cls-6{fill:#345b9b;}.cls-7{fill:#5f5e5e;}.cls-8{fill:#fede00;}</style></defs><g id="Capa_2" data-name="Capa 2"><g id="Capa_3" data-name="Capa 3"><polygon class="cls-1" points="1 59.78 12 58 19 56 21 47 27 39 43 44 47.44 59.78 50.56 59.78 56 66 50 74 40.56 74 37 66 32 76 37 81 41 78 46 80 48 86 43 89 40 94 45 103 44 109 49 114 53.67 114 62 138 89.22 138 86 134 87 130 93 132 93 138 181 138 181 181 1 181 1 59.78"/><polygon class="cls-1" points="69 115 69 117.85 72 118 73.07 116.5 72 114 69 115"/><polygon class="cls-1" points="84 117 81 121 81 124 85 126 88 122 84 117"/><polygon class="cls-1" points="71 138 84 136 83 129 81.72 126 72 121 69.28 121 64 128 69 136 71 138"/><path d="M182,182H0V0H182ZM2,180H180V2H2Z"/><path class="cls-2" d="M143.14,38.84l-5.82,1-5.81,1a2.92,2.92,0,0,1-3.38-2.37l-.45-2.61-9.35,1.63a2.34,2.34,0,0,0-1.91,2.71l8,45.69a2.34,2.34,0,0,0,2.7,1.9l36.08-6.3a2.34,2.34,0,0,0,1.9-2.71l-8-45.69a2.34,2.34,0,0,0-2.71-1.9l-9.35,1.63.46,2.62A2.91,2.91,0,0,1,143.14,38.84Z"/><path class="cls-3" d="M154.4,31.22l-9.35,1.63.46,2.62a2.91,2.91,0,0,1-2.37,3.37l-5.82,1-5.81,1a2.92,2.92,0,0,1-3.38-2.37l-.45-2.61-9.35,1.63a2.34,2.34,0,0,0-1.91,2.71l8,45.69a2.34,2.34,0,0,0,2.7,1.9l36.08-6.3a2.34,2.34,0,0,0,1.9-2.71l-8-45.69A2.34,2.34,0,0,0,154.4,31.22Z"/><path class="cls-4" d="M154.38,25.57l-10,1.75a9.29,9.29,0,0,0-17.93,3.13l-10,1.75a4.42,4.42,0,0,0-3.6,5.11l8.71,49.83a4.42,4.42,0,0,0,5.11,3.59L164.6,84.1A4.41,4.41,0,0,0,168.19,79l-8.7-49.83A4.42,4.42,0,0,0,154.38,25.57Zm-19.91,1.65a3.25,3.25,0,1,1-2.07,3A3.26,3.26,0,0,1,134.47,27.22Zm30.62,51.59a2.34,2.34,0,0,1-1.9,2.71l-36.08,6.3a2.34,2.34,0,0,1-2.7-1.9l-8-45.69a2.34,2.34,0,0,1,1.91-2.71l9.35-1.63.44,2.54a3,3,0,0,0,3.46,2.43l5.74-1,5.75-1a3,3,0,0,0,2.43-3.46l-.45-2.54,9.35-1.63a2.34,2.34,0,0,1,2.71,1.9Z"/><circle class="cls-2" cx="135.65" cy="30.25" r="3.25"/><rect class="cls-5" x="138.02" y="45.99" width="14.85" height="1.86" rx="0.88" transform="translate(-5.9 25.73) rotate(-9.91)"/><rect class="cls-5" x="140.42" y="59.71" width="14.85" height="1.86" rx="0.88" transform="matrix(0.99, -0.17, 0.17, 0.99, -8.23, 26.35)"/><rect class="cls-5" x="142.82" y="73.43" width="14.85" height="1.86" rx="0.88" transform="translate(-10.55 26.97) rotate(-9.91)"/><path class="cls-6" d="M128,54.69h0a.91.91,0,0,1-.81-.28l-3-3.24a.93.93,0,1,1,1.35-1.27l2.14,2.28,3.61-7.1a.93.93,0,1,1,1.66.84l-4.21,8.27A.93.93,0,0,1,128,54.69Z"/><path class="cls-6" d="M130.36,68.41h0a.94.94,0,0,1-.81-.28l-3.05-3.24a.93.93,0,0,1,1.36-1.27L130,65.89l3.61-7.09a.93.93,0,1,1,1.65.84L131,67.91A.93.93,0,0,1,130.36,68.41Z"/><circle class="cls-3" cx="139.5" cy="109.79" r="0.4"/><path class="cls-3" d="M138,115a.55.55,0,0,1-.38.08l-2.45-.31v1.12h5.59l-.6-2.12Z"/><path class="cls-3" d="M135.15,113.51l2.4.3,2.66-1.52a.62.62,0,0,1,.53,0,.59.59,0,0,1,.35.39l.92,3.2h1.07a.45.45,0,0,1,0-.2V105.24h-7.89Zm4.35-5.34a1.62,1.62,0,1,1-1.62,1.62A1.62,1.62,0,0,1,139.5,108.17Z"/><path class="cls-3" d="M109.23,127.51a19.23,19.23,0,0,1,1.3,2.34l7.83-8.65v-3.59Z"/><rect class="cls-3" x="130.91" y="105.03" width="2.63" height="10.82"/><rect class="cls-7" x="152.04" y="115.04" width="2.43" height="0.81"/><path class="cls-7" d="M143.08,115.85h.57V105.24H143v10.41A.45.45,0,0,0,143.08,115.85Z"/><path class="cls-7" d="M144,105v10.82h6.88V115h-6.58V104.93a.61.61,0,0,0-.2-.45V105Z"/><path class="cls-7" d="M156,115.85H156a.52.52,0,0,0,0-.21.62.62,0,0,0-.4-.57v.77Z"/><path class="cls-7" d="M139.5,111.4a1.62,1.62,0,1,0-1.62-1.61A1.62,1.62,0,0,0,139.5,111.4Z"/><path class="cls-7" d="M155.68,115.08v-8.32c0-.11.1-1.13,1.92-1.43a.61.61,0,0,0-.2-1.2c-2.9.49-2.93,2.54-2.93,2.62V115h1A.65.65,0,0,1,155.68,115.08Z"/><path class="cls-7" d="M155.68,115.85v-.77a.65.65,0,0,0-.2,0h-1v.81Z"/><path class="cls-7" d="M152,113.12a.61.61,0,0,0-1.21,0V115H152Z"/><rect class="cls-7" x="150.83" y="115.04" width="1.21" height="0.81"/><path class="cls-7" d="M137.6,115A.55.55,0,0,0,138,115l2.16-1.23.6,2.12H142l-.92-3.2a.59.59,0,0,0-.35-.39.62.62,0,0,0-.53,0l-2.66,1.52-2.4-.3v1.22Z"/><path class="cls-7" d="M125.69,116a1,1,0,0,0-1.7-1l-4.42,4.89v1.45a.61.61,0,1,1-1.21,0v-.11l-7.83,8.65a6.75,6.75,0,0,1,.66,2.28l11.76-13A3.74,3.74,0,0,1,125.69,116Z"/><path class="cls-7" d="M118.36,117.61v3.59l1.21-1.34v-3.8a.61.61,0,0,0-1-.42l-10,10.83c.23.33.46.68.69,1Z"/><path class="cls-7" d="M118.36,121.31a.61.61,0,1,0,1.21,0v-1.45l-1.21,1.34Z"/><path class="cls-7" d="M158.91,124.55H163v-4.17a3.32,3.32,0,0,0-3.32-3.31h-1.3a2.92,2.92,0,0,1,.57,1.74Z"/><path class="cls-8" d="M145.61,124.55a7,7,0,0,1,3-.67,7,7,0,0,1,3,.67h6.1v-7.48h.12a2.55,2.55,0,0,0-1.86-.81h-.28v.6a.61.61,0,1,1-1.21,0v-.6H152v.2a.61.61,0,1,1-1.21,0v-.2H144v5h-9.1v-5h-8.19a3.35,3.35,0,0,0-1.38.3l-1.78,2a3.49,3.49,0,0,0-.18,1.08V124a7,7,0,0,1,1.58.53Z"/><path class="cls-8" d="M141.6,116.64l-.17,0a.59.59,0,0,1-.56-.4h-5.72V121h8.5v-4.75H142A.61.61,0,0,1,141.6,116.64Z"/><path class="cls-8" d="M155.07,117.47a.61.61,0,0,0,.61-.61v-.6h-1.21v.6A.6.6,0,0,0,155.07,117.47Z"/><path class="cls-8" d="M150.83,116.46a.61.61,0,1,0,1.21,0v-.2h-1.21Z"/><path class="cls-8" d="M141.43,116.66l.17,0a.61.61,0,0,0,.4-.38h-1.13A.59.59,0,0,0,141.43,116.66Z"/><path class="cls-8" d="M123.5,118.52l1.78-2A3.37,3.37,0,0,0,123.5,118.52Z"/><path class="cls-8" d="M157.7,124.55h.81v-5.74a2.56,2.56,0,0,0-.69-1.74h-.12Z"/><path d="M156,116.06a2.74,2.74,0,0,1,2.13,1h.25a3,3,0,0,0-2.3-1.21.56.56,0,0,1-.11.2Z"/><path d="M126.66,116.06h2.83v-.21h-2.83a3.5,3.5,0,0,0-1,.14,1.12,1.12,0,0,1-.13.24A3.67,3.67,0,0,1,126.66,116.06Z"/><path d="M142,116.06h1.16a.45.45,0,0,1-.12-.21H142v0A.88.88,0,0,1,142,116.06Z"/><rect x="130.91" y="115.85" width="2.63" height="0.2"/><polygon points="140.74 115.85 135.15 115.85 135.15 116.06 140.8 116.06 140.74 115.85"/><path d="M123.12,119.6a3.57,3.57,0,0,1,.08-.74l-.25.27a3.71,3.71,0,0,0,0,.47V124l.2,0Z"/><path d="M155.68,115.85v.21h.25a.56.56,0,0,0,.11-.2h-.36Z"/><path d="M143.2,116.06h.45v-.21h-.57A.45.45,0,0,0,143.2,116.06Z"/><rect x="152.04" y="115.85" width="2.43" height="0.2"/><rect x="143.95" y="115.85" width="6.88" height="0.2"/><rect x="154.47" y="115.85" width="1.21" height="0.2"/><rect x="150.83" y="115.85" width="1.21" height="0.2"/><path d="M140.8,116.06H142a.88.88,0,0,0,0-.17v0h-1.27Z"/><path d="M125.56,116.23a1.12,1.12,0,0,0,.13-.24,3.74,3.74,0,0,0-2.74,3.14l.25-.27A3.54,3.54,0,0,1,125.56,116.23Z"/><path d="M158.71,118.81v5.74h.2v-5.74a2.92,2.92,0,0,0-.57-1.74h-.25A2.72,2.72,0,0,1,158.71,118.81Z"/><path d="M123.32,119.6a3.49,3.49,0,0,1,.18-1.08l-.3.34a3.57,3.57,0,0,0-.08.74V124l.2,0Z"/><path d="M125.28,116.56a3.35,3.35,0,0,1,1.38-.3h8.19v-.1h-1.32v-.1h-2.62v.1h-1.42v-.1h-2.83a3.67,3.67,0,0,0-1.1.17l-.07.1Z"/><path d="M140.85,116.22l0-.16h-5.65v.2h5.72S140.85,116.23,140.85,116.22Z"/><path d="M155.68,116.22v0H156a2.55,2.55,0,0,1,1.86.81h.27a2.74,2.74,0,0,0-2.13-1h0A.67.67,0,0,1,155.68,116.22Z"/><path d="M143.2,116.06H142a.48.48,0,0,1,0,.2h1.65A.61.61,0,0,1,143.2,116.06Z"/><rect x="143.95" y="116.06" width="6.88" height="0.2"/><path d="M155.93,116.06h-.25v.16A.67.67,0,0,0,155.93,116.06Z"/><rect x="152.04" y="116.06" width="2.43" height="0.2"/><path d="M143.65,116.26v-.2h-.45A.61.61,0,0,0,143.65,116.26Z"/><path d="M155.68,116.22a.65.65,0,0,1-.2,0h.2Z"/><path d="M154.47,116.26h1a.65.65,0,0,0,.2,0v-.16h-1.21Z"/><rect x="150.83" y="116.06" width="1.21" height="0.2"/><path d="M140.85,116.22s0,0,0,0H142a.48.48,0,0,0,0-.2H140.8Z"/><path d="M125.28,116.56l.21-.23.07-.1a3.54,3.54,0,0,0-2.36,2.63l.3-.34A3.37,3.37,0,0,1,125.28,116.56Z"/><path d="M158.51,118.81v5.74h.2v-5.74a2.72,2.72,0,0,0-.62-1.74h-.27A2.56,2.56,0,0,1,158.51,118.81Z"/><path class="cls-7" d="M144.55,125.16H126a7.06,7.06,0,0,1,3,5.79V131h12.55s0,0,0-.07A7.06,7.06,0,0,1,144.55,125.16Z"/><path class="cls-7" d="M152.65,125.16a7.06,7.06,0,0,1,3,5.79V131H164V125h-5.06v.21Z"/><path class="cls-7" d="M125.64,125l.31.21h18.6l.31-.21Z"/><path class="cls-7" d="M152.34,125l.31.21h6.26V125h-6.57Z"/><path d="M129,131.22c0,.07,0,.14,0,.21h12.59a1.48,1.48,0,0,1,0-.21Z"/><path d="M164.37,124.55H163v.2h1.21v6.47h-8.5c0,.07,0,.14,0,.21h8.72Z"/><rect x="158.91" y="124.55" width="4.04" height="0.2"/><path d="M157.7,124.75v-.2h-6.1l.41.2Z"/><path d="M145.2,124.75l.41-.2H124.9l.41.2Z"/><rect x="157.7" y="124.55" width="0.81" height="0.2"/><rect x="158.71" y="124.55" width="0.2" height="0.2"/><rect x="158.51" y="124.55" width="0.2" height="0.2"/><path d="M129,131c0,.07,0,.14,0,.2h12.57a1.27,1.27,0,0,1,0-.2Z"/><path d="M158.91,125H164V131h-8.29a1.41,1.41,0,0,0,0,.2h8.5v-6.47h-5.26Z"/><rect x="158.71" y="124.75" width="0.2" height="0.2"/><path d="M125.31,124.75l.33.2h19.22c.11-.06.22-.14.34-.2Z"/><path d="M152,124.75l.33.2h6.37v-.2H152Z"/><path class="cls-7" d="M148.6,136.41a5.46,5.46,0,0,1-5.44-5H142a6.67,6.67,0,0,0,13.3,0H154A5.46,5.46,0,0,1,148.6,136.41Z"/><path class="cls-7" d="M146.74,124.55h3.72a6.54,6.54,0,0,0-3.72,0Z"/><path class="cls-7" d="M151.89,125.16h-6.58a6.66,6.66,0,0,0-3.38,5.79V131h1.21V131a5.46,5.46,0,0,1,10.92,0V131h1.21V131A6.66,6.66,0,0,0,151.89,125.16Z"/><path class="cls-7" d="M145.7,125c-.13.07-.27.13-.39.21h6.58a3.58,3.58,0,0,0-.39-.21Z"/><path class="cls-7" d="M143.15,131.22h-1.21c0,.07,0,.14,0,.21h1.21A1.48,1.48,0,0,0,143.15,131.22Z"/><path class="cls-7" d="M154,131.43h1.21a1.48,1.48,0,0,0,0-.21h-1.21A1.48,1.48,0,0,0,154,131.43Z"/><path class="cls-7" d="M146.15,124.75h4.9l-.59-.2h-3.72Z"/><path class="cls-7" d="M154.05,131.22h1.21c0-.06,0-.13,0-.2h-1.21C154.06,131.09,154.05,131.16,154.05,131.22Z"/><path class="cls-7" d="M143.14,131h-1.21c0,.07,0,.14,0,.2h1.21C143.15,131.16,143.14,131.09,143.14,131Z"/><path class="cls-7" d="M146.15,124.75l-.45.2h5.8l-.45-.2Z"/><path class="cls-2" d="M148.6,137.83a6.87,6.87,0,0,1-6.85-6.4h-.2a7.07,7.07,0,0,0,14.1,0h-.2A6.87,6.87,0,0,1,148.6,137.83Z"/><path class="cls-2" d="M148.6,124.08a6.85,6.85,0,0,1,2.49.47h.51a7,7,0,0,0-3-.67,7,7,0,0,0-3,.67h.5A6.85,6.85,0,0,1,148.6,124.08Z"/><path class="cls-2" d="M144.91,125.16h-.36a7.06,7.06,0,0,0-3,5.79s0,.05,0,.07h.2s0,0,0-.07A6.86,6.86,0,0,1,144.91,125.16Z"/><path class="cls-2" d="M152.65,125.16h-.36a6.86,6.86,0,0,1,3.19,5.79s0,.05,0,.07h.21V131A7.06,7.06,0,0,0,152.65,125.16Z"/><path class="cls-2" d="M152.29,125.16h.36l-.31-.21H152Z"/><path class="cls-2" d="M144.86,125l-.31.21h.36l.34-.21Z"/><path class="cls-2" d="M141.74,131.22h-.2a1.48,1.48,0,0,0,0,.21h.2A1.48,1.48,0,0,1,141.74,131.22Z"/><path class="cls-2" d="M155.46,131.22a1.48,1.48,0,0,1,0,.21h.2c0-.07,0-.14,0-.21Z"/><path class="cls-2" d="M145.65,124.75l.46-.2h-.5l-.41.2Z"/><path class="cls-2" d="M151.55,124.75H152l-.41-.2h-.51Z"/><path class="cls-2" d="M155.47,131a1.27,1.27,0,0,1,0,.2h.21a1.41,1.41,0,0,1,0-.2Z"/><path class="cls-2" d="M141.53,131a1.27,1.27,0,0,0,0,.2h.2c0-.06,0-.13,0-.2Z"/><path class="cls-2" d="M151.55,124.75l.4.2h.39l-.33-.2Z"/><path class="cls-2" d="M145.2,124.75c-.12.06-.23.14-.34.2h.39l.4-.2Z"/><path class="cls-2" d="M148.6,137.63a6.67,6.67,0,0,1-6.65-6.2h-.2a6.87,6.87,0,0,0,13.7,0h-.2A6.67,6.67,0,0,1,148.6,137.63Z"/><path class="cls-2" d="M148.6,124.28a6.69,6.69,0,0,1,1.86.27h.63a6.83,6.83,0,0,0-5,0h.63A6.69,6.69,0,0,1,148.6,124.28Z"/><path class="cls-2" d="M145.31,125.16h-.4a6.86,6.86,0,0,0-3.19,5.79s0,.05,0,.07h.2V131A6.66,6.66,0,0,1,145.31,125.16Z"/><path class="cls-2" d="M152.29,125.16h-.4a6.66,6.66,0,0,1,3.38,5.79V131h.2s0,0,0-.07A6.86,6.86,0,0,0,152.29,125.16Z"/><path class="cls-2" d="M145.25,125l-.34.21h.4c.12-.08.26-.14.39-.21Z"/><path class="cls-2" d="M151.5,125a3.58,3.58,0,0,1,.39.21h.4L152,125Z"/><path class="cls-2" d="M155.25,131.43h.2a1.48,1.48,0,0,0,0-.21h-.2A1.48,1.48,0,0,1,155.25,131.43Z"/><path class="cls-2" d="M141.94,131.22h-.2a1.48,1.48,0,0,0,0,.21h.2C142,131.36,141.94,131.29,141.94,131.22Z"/><path class="cls-2" d="M146.74,124.55h-.63l-.46.2h.5Z"/><path class="cls-2" d="M150.46,124.55l.59.2h.5l-.46-.2Z"/><path class="cls-2" d="M141.93,131h-.2c0,.07,0,.14,0,.2h.2C141.94,131.16,141.93,131.09,141.93,131Z"/><path class="cls-2" d="M155.27,131c0,.07,0,.14,0,.2h.2a1.27,1.27,0,0,0,0-.2Z"/><path class="cls-2" d="M145.65,124.75l-.4.2h.45l.45-.2Z"/><path class="cls-2" d="M151.5,125H152l-.4-.2h-.5Z"/><path class="cls-8" d="M148.6,136.41a5.46,5.46,0,0,0,5.44-5H143.16A5.46,5.46,0,0,0,148.6,136.41Zm1.63-4.66a.41.41,0,0,1,.55-.18.4.4,0,0,1,.18.54.41.41,0,0,1-.54.19A.42.42,0,0,1,150.23,131.75Zm-1.63,1a.41.41,0,1,1,0,.81.41.41,0,0,1,0-.81Zm-2.17-1.2a.4.4,0,0,1,.54.18.42.42,0,0,1-.19.55.41.41,0,0,1-.54-.19A.4.4,0,0,1,146.43,131.57Z"/><path class="cls-8" d="M154.06,131a5.46,5.46,0,0,0-10.92,0V131h10.92Zm-7.09-.8a.4.4,0,0,1-.54.19.4.4,0,0,1-.19-.54.4.4,0,0,1,.54-.19A.41.41,0,0,1,147,130.15Zm1.63-1a.4.4,0,0,1-.4-.4.41.41,0,0,1,.4-.41.42.42,0,0,1,.41.41A.41.41,0,0,1,148.6,129.13Zm2.18,1.21a.41.41,0,1,1-.36-.73.41.41,0,0,1,.36.73Z"/><path class="cls-8" d="M143.16,131.43H154a1.48,1.48,0,0,1,0-.21h-10.9A1.48,1.48,0,0,1,143.16,131.43Z"/><path class="cls-8" d="M154.05,131.22c0-.06,0-.13,0-.2H143.14c0,.07,0,.14,0,.2Z"/><circle class="cls-7" cx="148.6" cy="133.18" r="0.4"/><circle class="cls-7" cx="148.6" cy="128.73" r="0.4"/><path class="cls-7" d="M146.78,132.3a.42.42,0,0,0,.19-.55.4.4,0,0,0-.54-.18.4.4,0,0,0-.19.54A.41.41,0,0,0,146.78,132.3Z"/><path class="cls-7" d="M150.42,129.61a.41.41,0,1,0,.36.73.41.41,0,0,0-.36-.73Z"/><path class="cls-7" d="M150.42,132.3a.41.41,0,0,0,.54-.19.4.4,0,0,0-.18-.54.41.41,0,0,0-.55.18A.42.42,0,0,0,150.42,132.3Z"/><path class="cls-7" d="M146.78,129.61a.4.4,0,0,0-.54.19.4.4,0,0,0,.19.54.4.4,0,0,0,.54-.19A.41.41,0,0,0,146.78,129.61Z"/><path class="cls-7" d="M121.91,136.41a5.46,5.46,0,1,1,0-10.92,5.67,5.67,0,0,1,1,.1v-1.23a6.77,6.77,0,0,0-1-.08,6.68,6.68,0,1,0,6.65,7.15h-1.22A5.45,5.45,0,0,1,121.91,136.41Z"/><path class="cls-7" d="M123.77,124.55l-.45-.12v.12Z"/><path class="cls-7" d="M123.12,124.55v-.15l-.2,0v.19Z"/><path class="cls-7" d="M123.32,124.55v-.12l-.2,0v.15Z"/><path class="cls-7" d="M125.2,125.16h-1.88v.53a5.45,5.45,0,0,1,4.05,5.26s0,.05,0,.07h1.22V131A6.68,6.68,0,0,0,125.2,125.16Z"/><path class="cls-7" d="M123.32,125v.21h1.88l-.39-.21Z"/><path class="cls-7" d="M123.12,125.16h-.2v.43l.2,0Z"/><path class="cls-7" d="M127.34,131.43h1.22a1.48,1.48,0,0,1,0-.21h-1.22A1.48,1.48,0,0,1,127.34,131.43Z"/><path class="cls-7" d="M124.36,124.75l-.59-.2h-.45v.2Z"/><polygon class="cls-7" points="123.12 124.95 123.12 124.75 123.12 124.55 122.92 124.55 122.92 125.16 123.12 125.16 123.12 124.95"/><rect class="cls-7" x="123.12" y="124.55" width="0.2" height="0.2"/><path class="cls-7" d="M123.12,125.63l.2.06v-.53h-.2Z"/><path class="cls-7" d="M127.35,131.22h1.22c0-.06,0-.13,0-.2h-1.22A1.27,1.27,0,0,1,127.35,131.22Z"/><rect class="cls-7" x="123.12" y="124.95" width="0.2" height="0.2"/><path class="cls-7" d="M123.32,124.75h-.2v.2h1.69l-.45-.2Z"/><path class="cls-2" d="M121.91,137.83a6.88,6.88,0,1,1,0-13.75,6.77,6.77,0,0,1,1,.08V124a6.77,6.77,0,0,0-1-.08,7.08,7.08,0,1,0,7.05,7.55h-.2A6.88,6.88,0,0,1,121.91,137.83Z"/><path class="cls-2" d="M124.9,124.55a7,7,0,0,0-1.58-.53v.2a6.74,6.74,0,0,1,1.08.33Z"/><path class="cls-2" d="M123.12,124.19V124l-.2,0v.2Z"/><path class="cls-2" d="M123.32,124l-.2,0v.2l.2,0Z"/><path class="cls-2" d="M126,125.16h-.36a6.84,6.84,0,0,1,3.19,5.79V131h.2V131A7.06,7.06,0,0,0,126,125.16Z"/><path class="cls-2" d="M125.26,125l.33.21H126l-.31-.21Z"/><path class="cls-2" d="M128.77,131.22c0,.07,0,.14,0,.21h.2c0-.07,0-.14,0-.21Z"/><path class="cls-2" d="M125.31,124.75l-.41-.2h-.5l.46.2Z"/><path class="cls-2" d="M128.78,131c0,.07,0,.14,0,.2h.2c0-.06,0-.13,0-.2Z"/><path class="cls-2" d="M124.86,124.75l.4.2h.38l-.33-.2Z"/><path class="cls-2" d="M121.91,137.63a6.68,6.68,0,1,1,0-13.35,6.77,6.77,0,0,1,1,.08v-.2a6.77,6.77,0,0,0-1-.08,6.88,6.88,0,1,0,6.85,7.35h-.2A6.68,6.68,0,0,1,121.91,137.63Z"/><path class="cls-2" d="M124.4,124.55a6.74,6.74,0,0,0-1.08-.33v.21l.45.12Z"/><path class="cls-2" d="M123.12,124.4v-.21l-.2,0v.2Z"/><path class="cls-2" d="M123.32,124.43v-.21l-.2,0v.21Z"/><path class="cls-2" d="M125.59,125.16h-.39a6.68,6.68,0,0,1,3.38,5.79V131h.2V131A6.84,6.84,0,0,0,125.59,125.16Z"/><path class="cls-2" d="M124.81,125l.39.21h.39l-.33-.21Z"/><path class="cls-2" d="M128.56,131.43h.2c0-.07,0-.14,0-.21h-.2A1.48,1.48,0,0,0,128.56,131.43Z"/><path class="cls-2" d="M124.86,124.75l-.46-.2h-.63l.59.2Z"/><path class="cls-2" d="M128.58,131c0,.07,0,.14,0,.2h.2c0-.06,0-.13,0-.2Z"/><path class="cls-2" d="M124.36,124.75l.45.2h.45l-.4-.2Z"/><path class="cls-8" d="M122.92,125.59a5.67,5.67,0,0,0-1-.1,5.46,5.46,0,1,0,5.43,5.94h-4.42Zm.62,6.16a.4.4,0,0,1,.54-.18.41.41,0,0,1,.19.54.42.42,0,0,1-.55.19A.41.41,0,0,1,123.54,131.75Zm-3.45.55a.41.41,0,0,1-.54-.19.4.4,0,1,1,.72-.36A.41.41,0,0,1,120.09,132.3Zm.18-2.15a.4.4,0,1,1-.18-.54A.4.4,0,0,1,120.27,130.15Zm1.64,3.43a.41.41,0,1,1,.4-.4A.4.4,0,0,1,121.91,133.58Zm0-4.45a.4.4,0,0,1-.41-.4.41.41,0,1,1,.81,0A.4.4,0,0,1,121.91,129.13Z"/><path class="cls-8" d="M127.36,131s0,0,0-.07a5.45,5.45,0,0,0-4.05-5.26V131Zm-3.64-1.41a.41.41,0,1,1,.36.73.41.41,0,0,1-.36-.73Z"/><path class="cls-8" d="M123.12,125.63l-.2,0v5.84h4.42a1.48,1.48,0,0,0,0-.21h-4.23Z"/><path class="cls-8" d="M123.12,131.22h4.23a1.27,1.27,0,0,0,0-.2h-4v-5.33l-.2-.06Z"/><circle class="cls-7" cx="121.91" cy="133.18" r="0.4"/><circle class="cls-7" cx="121.91" cy="128.73" r="0.4"/><path class="cls-7" d="M119.73,131.57a.4.4,0,0,0-.18.54.4.4,0,1,0,.72-.36A.4.4,0,0,0,119.73,131.57Z"/><path class="cls-7" d="M123.54,130.15a.4.4,0,0,0,.54.19.41.41,0,1,0-.36-.73A.4.4,0,0,0,123.54,130.15Z"/><path class="cls-7" d="M123.72,132.3a.42.42,0,0,0,.55-.19.41.41,0,0,0-.19-.54.4.4,0,0,0-.54.18A.41.41,0,0,0,123.72,132.3Z"/><path class="cls-7" d="M120.09,129.61a.41.41,0,1,0,.18.54A.4.4,0,0,0,120.09,129.61Z"/><path class="cls-8" d="M135,104.83h8.1a.6.6,0,0,1,.6-.5.69.69,0,0,1,.2,0V102.2H129.69v2.63H135Z"/><path class="cls-8" d="M143.05,104.83h.8v-.47a.69.69,0,0,0-.2,0A.6.6,0,0,0,143.05,104.83Z"/><path d="M129.59,102.1H144v2.31l.1.07V102H129.49v2.83h.1Z"/><rect x="130.91" y="104.93" width="2.63" height="0.1"/><path d="M144,104.93v.1h.1v-.55l-.1-.07Z"/><rect x="130.91" y="104.83" width="2.63" height="0.1"/><path d="M135,104.93H143a.34.34,0,0,1,0-.1H135Z"/><path d="M129.69,102.2h14.16v2.16l.1,0V102.1H129.59v2.73h.1Z"/><path d="M143.85,104.83h-.8a.34.34,0,0,0,0,.1H144v-.52l-.1,0Z"/><rect class="cls-8" x="129.69" y="105.03" width="1.01" height="10.82"/><rect class="cls-8" x="129.69" y="115.85" width="1.01" height="0.1"/><rect x="129.49" y="105.03" width="0.1" height="10.82"/><rect x="130.8" y="105.03" width="0.1" height="10.82"/><rect x="130.8" y="115.85" width="0.1" height="0.2"/><rect x="129.49" y="115.85" width="0.1" height="0.2"/><polygon points="130.91 116.16 130.91 116.06 130.8 116.06 129.59 116.06 129.49 116.06 129.49 116.16 130.91 116.16"/><polygon points="129.59 104.93 129.59 104.83 129.49 104.83 129.49 105.03 129.59 105.03 129.59 104.93"/><rect x="130.8" y="104.93" width="0.1" height="0.1"/><polygon points="130.91 104.93 130.91 104.83 129.69 104.83 129.59 104.83 129.59 104.93 130.8 104.93 130.91 104.93"/><rect x="129.59" y="105.03" width="0.1" height="10.82"/><rect x="130.7" y="105.03" width="0.1" height="10.82"/><polygon points="130.8 115.85 130.7 115.85 130.7 115.95 129.69 115.95 129.69 115.85 129.59 115.85 129.59 116.06 130.8 116.06 130.8 115.85"/><polygon points="130.7 105.03 130.8 105.03 130.8 104.93 129.59 104.93 129.59 105.03 129.69 105.03 130.7 105.03"/><path class="cls-8" d="M134.37,114.64a.61.61,0,1,1,.15-1.21l.23,0V105h-1v10.82h1v-1.17Z"/><path class="cls-8" d="M134.52,113.43a.61.61,0,1,0-.15,1.21l.38,0v-1.22Z"/><rect class="cls-8" x="133.74" y="115.85" width="1.01" height="0.1"/><rect x="133.53" y="105.03" width="0.1" height="10.82"/><rect x="133.53" y="115.85" width="0.1" height="0.2"/><polygon points="133.63 116.06 133.53 116.06 133.53 116.16 134.85 116.16 134.85 116.06 133.63 116.06"/><rect x="133.53" y="104.93" width="0.1" height="0.1"/><polygon points="134.85 104.93 134.95 104.93 134.95 104.83 133.53 104.83 133.53 104.93 133.63 104.93 134.85 104.93"/><polygon points="134.75 114.68 134.75 115.85 134.85 115.85 134.85 114.69 134.75 114.68"/><rect x="133.64" y="105.03" width="0.1" height="10.82"/><polygon points="134.75 113.46 134.85 113.47 134.85 105.03 134.75 105.03 134.75 113.46"/><polygon points="134.75 114.68 134.85 114.69 134.85 113.47 134.75 113.46 134.75 114.68"/><polygon points="134.75 115.85 134.75 115.95 133.74 115.95 133.74 115.85 133.63 115.85 133.63 116.06 134.85 116.06 134.85 115.85 134.75 115.85"/><polygon points="134.85 105.03 134.85 104.93 133.63 104.93 133.63 105.03 133.74 105.03 134.75 105.03 134.85 105.03"/><polygon points="134.95 113.48 135.15 113.51 135.15 105.24 143.04 105.24 143.04 105.03 134.95 105.03 134.95 113.48"/><polygon points="134.95 114.71 134.95 115.85 135.15 115.85 135.15 114.73 134.95 114.71"/><polygon points="143.04 105.24 143.65 105.24 143.65 115.85 143.95 115.85 143.95 105.03 143.04 105.03 143.04 105.24"/><polygon points="135.15 114.73 135.15 113.51 134.95 113.48 134.95 114.71 135.15 114.73"/><polygon points="143.95 121.31 143.95 116.26 143.65 116.26 143.65 121.01 135.15 121.01 135.15 116.26 134.85 116.26 134.85 121.31 143.95 121.31"/><rect x="134.95" y="115.85" width="0.2" height="0.2"/><rect x="143.65" y="115.85" width="0.3" height="0.2"/><polygon points="135.15 116.06 134.95 116.06 134.95 116.16 134.85 116.16 134.85 116.26 135.15 116.26 135.15 116.06"/><rect x="143.65" y="116.06" width="0.3" height="0.2"/><rect x="134.95" y="104.93" width="8.09" height="0.1"/><rect x="143.04" y="104.93" width="0.91" height="0.1"/><polygon points="134.85 113.47 134.95 113.48 134.95 105.03 134.85 105.03 134.85 113.47"/><polygon points="134.85 114.69 134.85 115.85 134.95 115.85 134.95 114.71 134.85 114.69"/><polygon points="134.85 114.69 134.95 114.71 134.95 113.48 134.85 113.47 134.85 114.69"/><rect x="134.85" y="115.85" width="0.1" height="0.2"/><rect x="134.85" y="116.06" width="0.1" height="0.1"/><rect x="134.85" y="104.93" width="0.1" height="0.1"/><path class="cls-8" d="M108.15,128.39a.6.6,0,0,1-.44-1l.55-.6c-.34-.5-.67-1-1-1.34l-.54-.77-.4-.61-4.59,8.71-2.36,4.87c1.24,0,5.75,0,7.45-.73,2.53-1,3.84-2.47,3.93-4.34l-.68.76a1,1,0,0,1-1.43.07,1,1,0,0,1-.07-1.43l1.62-1.79a19.4,19.4,0,0,0-1.29-2.35l-.35.38A.6.6,0,0,1,108.15,128.39Z"/><path class="cls-8" d="M108.69,133.39a1,1,0,0,0,1.43-.07l.68-.76c0-.07,0-.14,0-.22a5.94,5.94,0,0,0-.57-2.17L108.62,132A1,1,0,0,0,108.69,133.39Z"/><path class="cls-8" d="M107.71,127.37a.6.6,0,0,0,.44,1,.6.6,0,0,0,.45-.19l.35-.38c-.23-.37-.46-.71-.69-1Z"/><path d="M109.09,127.67a18.57,18.57,0,0,1,1.29,2.34l.15-.16a19.23,19.23,0,0,0-1.3-2.34Z"/><path d="M106.94,124.55c.28.41.84,1.17,1.46,2.07l.14-.15c-.32-.48-.64-.91-.9-1.28s-.41-.56-.53-.75l-.53-.8-.11.21Z"/><path d="M111,132.34c0,2.53-2.05,3.94-4.07,4.75s-7.48.74-7.83.74l-.1.2h.46c1.34,0,5.79-.05,7.55-.75,2.8-1.13,4.21-2.79,4.19-4.94a1.49,1.49,0,0,0,0-.21l-.18.2Z"/><path d="M110.38,130a6.23,6.23,0,0,1,.63,2.32l.18-.2a6.75,6.75,0,0,0-.66-2.28Z"/><path d="M109.09,127.67l.14-.16c-.23-.36-.46-.71-.69-1l-.14.15Q108.74,127.12,109.09,127.67Z"/><path d="M106.77,124.66l.54.77c.28.38.61.84,1,1.34l.14-.15c-.62-.9-1.18-1.66-1.46-2.07l-.47-.7-.1.2Z"/><path d="M106.87,136.9c-1.7.68-6.21.73-7.45.73l2.36-4.87-2.67,5.07c.35,0,5.87,0,7.83-.74s4.09-2.22,4.07-4.75h0l-.21.23C110.71,134.43,109.4,135.89,106.87,136.9Z"/><path d="M109,127.82a19.4,19.4,0,0,1,1.29,2.35l.14-.16a18.57,18.57,0,0,0-1.29-2.34Z"/><path d="M110.81,132.34c0,.08,0,.15,0,.22l.21-.23a6.23,6.23,0,0,0-.63-2.32l-.14.16A5.94,5.94,0,0,1,110.81,132.34Z"/><path d="M109,127.82l.14-.15q-.34-.56-.69-1l-.14.15C108.49,127.11,108.72,127.45,109,127.82Z"/><polygon class="cls-8" points="106.33 123.26 106.71 122.53 104.42 118.72 103.46 119.05 98.8 134.05 95.7 134.05 94.34 135.41 98.76 137.63 101.42 132.58 106.1 122.93 106.33 123.26"/><path class="cls-8" d="M106.1,122.93l-4.68,9.65,2.88-5.47,1.83-3.77.09.13.11-.21Z"/><path class="cls-8" d="M104.3,127.11l1.92-3.64-.09-.13Z"/><polygon points="98.84 137.89 94 135.47 95.61 133.85 98.65 133.85 103.3 118.89 104.51 118.48 106.94 122.53 106.45 123.45 106.58 123.64 107.17 122.52 104.6 118.24 103.14 118.73 98.5 133.65 95.53 133.65 93.66 135.53 98.94 138.17 99.01 138.03 98.78 138.03 98.84 137.89"/><polygon points="106.24 123.86 104.48 127.2 101.78 132.76 106.37 124.05 106.24 123.86"/><path d="M106.35,123.66l.12.19.11-.21-.13-.19Z"/><path d="M99.1,137.83l2.5-5.16-2.75,5.23h0l-.06.14H99l.1-.2Z"/><path d="M106.37,124.05l.1-.2-.12-.19-.11.2Z"/><path d="M104.48,127.2l-2.88,5.47-2.5,5.16h0l2.67-5.07Z"/><polygon points="98.76 137.63 94.34 135.41 95.7 134.05 98.8 134.05 103.46 119.05 104.42 118.72 106.71 122.53 106.33 123.26 106.45 123.45 106.94 122.53 104.51 118.48 103.3 118.89 98.65 133.85 95.61 133.85 94 135.47 98.84 137.89 101.42 132.58 98.76 137.63"/><polygon points="106.16 123.74 104.48 127.2 106.24 123.86 106.16 123.74"/><path d="M106.22,123.47l.13.19.1-.21-.12-.19Z"/><polygon points="101.42 132.58 98.84 137.89 98.85 137.9 101.6 132.67 104.3 127.11 101.42 132.58"/><path d="M106.16,123.74l.08.12.11-.2-.13-.19-1.92,3.64-2.7,5.56,2.88-5.47Z"/></g></g></svg>