<svg xmlns="http://www.w3.org/2000/svg" viewBox="0 0 182 182"><defs><style>.cls-1{fill:#fff;}.cls-2{fill:none;}.cls-3{fill:#ee7402;}.cls-4{fill:#9b9a9a;}.cls-5{fill:#345b9b;}.cls-6{fill:#cecece;}.cls-7{fill:#5f5e5e;}.cls-8{fill:#ccc;}.cls-9{fill:#fedb10;}.cls-10{fill:#fbb03b;}.cls-11{fill:#fcee21;}.cls-12{fill:#a1a4a6;}.cls-13{fill:#101010;}.cls-14{fill:#5a5e7b;}</style></defs><g id="Capa_2" data-name="Capa 2"><g id="Capa_3" data-name="Capa 3"><path class="cls-1" d="M150.14,26.84l-5.82,1-5.81,1a2.92,2.92,0,0,1-3.38-2.37l-.45-2.61-9.35,1.63a2.34,2.34,0,0,0-1.91,2.71l8,45.69a2.34,2.34,0,0,0,2.7,1.9l36.08-6.3a2.34,2.34,0,0,0,1.9-2.71l-8-45.69a2.34,2.34,0,0,0-2.71-1.9l-9.35,1.63.46,2.62A2.91,2.91,0,0,1,150.14,26.84Z"/><path class="cls-2" d="M161.4,19.22l-9.35,1.63.46,2.62a2.91,2.91,0,0,1-2.37,3.37l-5.82,1-5.81,1a2.92,2.92,0,0,1-3.38-2.37l-.45-2.61-9.35,1.63a2.34,2.34,0,0,0-1.91,2.71l8,45.69a2.34,2.34,0,0,0,2.7,1.9l36.08-6.3a2.34,2.34,0,0,0,1.9-2.71l-8-45.69A2.34,2.34,0,0,0,161.4,19.22Z"/><path class="cls-3" d="M161.38,13.57l-10,1.75a9.29,9.29,0,0,0-17.93,3.13l-10,1.75a4.42,4.42,0,0,0-3.6,5.11l8.71,49.83a4.42,4.42,0,0,0,5.11,3.59L171.6,72.1A4.41,4.41,0,0,0,175.19,67l-8.7-49.83A4.42,4.42,0,0,0,161.38,13.57Zm-19.91,1.65a3.25,3.25,0,1,1-2.07,3A3.26,3.26,0,0,1,141.47,15.22Zm30.62,51.59a2.34,2.34,0,0,1-1.9,2.71l-36.08,6.3a2.34,2.34,0,0,1-2.7-1.9l-8-45.69a2.34,2.34,0,0,1,1.91-2.71l9.35-1.63.44,2.54a3,3,0,0,0,3.46,2.43l5.74-1,5.75-1a3,3,0,0,0,2.43-3.46l-.45-2.54,9.35-1.63a2.34,2.34,0,0,1,2.71,1.9Z"/><circle class="cls-1" cx="142.65" cy="18.25" r="3.25"/><rect class="cls-4" x="145.02" y="33.99" width="14.85" height="1.86" rx="0.88" transform="translate(-3.74 26.76) rotate(-9.91)"/><rect class="cls-4" x="147.42" y="47.71" width="14.85" height="1.86" rx="0.88" transform="translate(-6.06 27.37) rotate(-9.91)"/><rect class="cls-4" x="149.82" y="61.43" width="14.85" height="1.86" rx="0.88" transform="translate(-8.39 27.99) rotate(-9.91)"/><path class="cls-5" d="M135,42.69h0a.91.91,0,0,1-.81-.28l-3-3.24a.93.93,0,1,1,1.35-1.27l2.14,2.28,3.61-7.1a.93.93,0,1,1,1.66.84l-4.21,8.27A.93.93,0,0,1,135,42.69Z"/><path class="cls-5" d="M137.36,56.41h0a.94.94,0,0,1-.81-.28l-3.05-3.24a.93.93,0,0,1,1.36-1.27L137,53.89l3.61-7.09a.93.93,0,1,1,1.65.84L138,55.91A.93.93,0,0,1,137.36,56.41Z"/><path class="cls-6" d="M1,62.36,19,61l1,17,1,3v6.44L29,100l-2,2,12,11,15,5s16,5,17,5H181v58H1Z"/><path d="M182,182H0V0H182ZM2,180H180V2H2Z"/><polygon class="cls-2" points="149.5 100 145.53 100 144.57 102.88 150.23 102.88 149.5 100"/><path class="cls-2" d="M101.13,74.93l1.35.95h1.12v-3h.26A6,6,0,0,0,102.8,70a4.25,4.25,0,0,0-2.67-.83v2.19l1,.56Z"/><polygon class="cls-2" points="76 91.44 76.65 91.25 76.65 87.69 75.65 88 76 88 76 91.44"/><path class="cls-2" d="M90.88,71.93l1-.56V69.18A4.25,4.25,0,0,0,89.2,70a6,6,0,0,0-1.06,2.87h.26v3h1.12l1.36-.95Z"/><polygon class="cls-2" points="79.59 90.39 79.59 86.77 76.9 87.61 76.9 91.18 79.59 90.39"/><polygon class="cls-2" points="84.88 88.85 84.88 85.12 83.11 85.67 83.11 89.36 84.88 88.85"/><polygon class="cls-2" points="82.86 89.44 82.86 85.75 79.84 86.69 79.84 90.32 82.86 89.44"/><polygon class="cls-2" points="120.38 91.88 120.38 89.33 118.13 88.61 118.13 91.88 120.38 91.88"/><polygon class="cls-2" points="109.06 89.45 109.06 85.7 107.13 85.08 107.13 88.86 109.06 89.45"/><polygon class="cls-2" points="109.3 89.53 109.88 89.7 109.88 85.96 109.31 85.78 109.31 89.53 109.3 89.53"/><polygon class="cls-2" points="71.79 89.2 71.79 91.75 74 91.75 74 88.51 71.79 89.2"/><path class="cls-7" d="M151.8,110.21l-1.89-5.08h-7.33l.09-.65h-2.54v.65h-1.67l-3.39,5H133l-13-5h-1.85v3.51a6.84,6.84,0,0,1,1.37-.14,7,7,0,0,1,7,7,6.63,6.63,0,0,1-.08,1H130V111h6v5.5h2.58a6.63,6.63,0,0,1-.08-1,7,7,0,0,1,14,0,6.63,6.63,0,0,1-.08,1h1.46v-6.29Z"/><path class="cls-8" d="M159,102.5h-7.53a1.53,1.53,0,0,0-.3,0l.09.35h.18l.28,2h6.41v10.33a1.44,1.44,0,0,0,.87.29,1.5,1.5,0,0,0,1.5-1.5V104A1.5,1.5,0,0,0,159,102.5Z"/><polygon class="cls-9" points="112.57 86.83 112.57 90.48 112.44 90.48 114.88 91.22 114.88 87.57 112.57 86.83"/><polygon class="cls-9" points="112.32 86.75 110.13 86.04 110.13 89.78 112.32 90.45 112.32 86.75"/><polygon class="cls-9" points="114.88 82.13 110.13 82.13 110.13 85.78 114.88 87.31 114.88 82.13"/><polygon points="110 89.74 110 86 109.88 85.96 109.88 89.7 110 89.74"/><polygon points="110 82.13 109.88 82.13 109.88 85.7 110 85.74 110 82.13"/><polygon points="110.13 82.13 110 82.13 110 85.74 110.13 85.78 110.13 82.13"/><polygon points="110.13 89.78 110.13 86.04 110 86 110 89.74 110.13 89.78"/><polygon class="cls-9" points="115.26 91.34 115.26 87.69 115.13 87.65 115.13 91.3 115.26 91.34"/><polygon class="cls-9" points="115.51 91.42 117.02 91.88 117.88 91.88 117.88 88.53 115.51 87.77 115.51 91.42"/><polygon class="cls-9" points="117.88 88.27 117.88 82.13 115.13 82.13 115.13 87.39 117.88 88.27"/><polygon points="118.13 91.88 118.13 88.61 118 88.57 118 91.88 118.13 91.88"/><polygon points="118 88.31 118.13 88.35 118.13 82.13 118 82.13 118 88.31"/><polygon points="115 87.61 114.88 87.57 114.88 91.22 115 91.26 115 87.61"/><polygon points="115 87.34 115 82.13 114.88 82.13 114.88 87.31 115 87.34"/><polygon points="117.88 91.88 118 91.88 118 88.57 117.88 88.53 117.88 91.88"/><polygon points="117.88 88.27 118 88.31 118 82.13 117.88 82.13 117.88 88.27"/><polygon points="115 91.26 115.13 91.3 115.13 87.65 115 87.61 115 91.26"/><polygon points="115 87.34 115.13 87.39 115.13 82.13 115 82.13 115 87.34"/><path class="cls-9" d="M118.13,81.88h3.74A2.87,2.87,0,0,0,119,79.13h-8.87v2.75h8Z"/><path d="M110,79h9a3,3,0,0,1,3,3h-3.87v.13h4V82A3.13,3.13,0,0,0,119,78.88h-9.12v3H110Z"/><polygon points="110 82 110 81.88 109.88 81.88 109.88 82.13 110 82.13 110 82"/><polygon points="114.88 82.13 114.88 82 110 82 110 82.13 110.13 82.13 114.88 82.13"/><rect x="118" y="82" width="0.13" height="0.13"/><rect x="114.88" y="82" width="0.13" height="0.13"/><polygon points="115.13 82.13 117.88 82.13 118 82.13 118 82 115.13 82 115.13 82.13"/><rect x="115" y="82" width="0.13" height="0.13"/><path d="M110.13,79.13H119a2.87,2.87,0,0,1,2.87,2.75h-3.74V82H122a3,3,0,0,0-3-3h-9v2.88h.13Z"/><polygon points="114.88 81.88 110.13 81.88 110 81.88 110 82 114.88 82 114.88 81.88"/><polygon points="115.13 81.88 115.13 82 118 82 118.13 82 118.13 81.88 115.13 81.88"/><polygon points="115.13 82 115.13 81.88 114.88 81.88 114.88 82 115 82 115.13 82"/><polygon class="cls-9" points="158.88 93.13 153.13 93.13 153.13 93.88 153.13 95.88 158.88 95.88 158.88 93.13"/><polygon points="153 93 159 93 159 96 153.13 96 153.13 96.13 159.13 96.13 159.13 92.88 152.88 92.88 152.88 93.88 153 93.88 153 93"/><polygon points="153.13 93.13 158.88 93.13 158.88 95.88 153.13 95.88 153.13 96 159 96 159 93 153 93 153 93.88 153.13 93.88 153.13 93.13"/><polygon class="cls-9" points="141.95 97.88 142.95 97.88 144.95 95.88 152.88 95.88 152.88 94.13 142.05 94.13 140.05 96.13 120.52 96.13 118 97.13 117.25 97.13 117.25 97.88 141.95 97.88"/><polygon points="145 96 143 98 141.88 98 141.81 98.13 143.05 98.13 145.05 96.13 152.88 96.13 152.88 96 145 96"/><polygon points="118 97 120.5 96 140 96 142 94 152.88 94 152.88 93.88 141.95 93.88 139.95 95.88 120.5 95.88 117.98 96.88 117.25 96.88 117.25 97 118 97"/><rect x="152.88" y="93.88" width="0.13" height="0.13"/><polygon points="153 96 152.88 96 152.88 96.13 153.13 96.13 153.13 96 153 96"/><polygon points="153.13 96 153.13 95.88 153.13 93.88 153 93.88 153 94 153 96 153.13 96"/><polygon points="118 97.13 120.52 96.13 140.05 96.13 142.05 94.13 152.88 94.13 152.88 94 142 94 140 96 120.5 96 118 97 117.25 97 117.25 97.13 118 97.13"/><polygon points="144.95 95.88 142.95 97.88 141.95 97.88 141.88 98 143 98 145 96 152.88 96 152.88 95.88 144.95 95.88"/><polygon points="152.88 95.88 152.88 96 153 96 153 94 152.88 94 152.88 94.13 152.88 95.88"/><polygon class="cls-9" points="138.93 102.88 141.53 98.13 122.47 98.13 119.09 102.88 138.93 102.88"/><polygon class="cls-9" points="118.79 102.88 122.17 98.13 117.25 98.13 117.25 102.88 118.79 102.88"/><polygon points="139.07 102.88 139.21 102.88 141.81 98.13 141.67 98.13 139.07 102.88"/><polygon points="141.74 98 141.67 98.13 141.81 98.13 141.88 98 141.74 98"/><polygon points="117.25 97.88 117.25 98 122.25 98 122.31 97.93 122.41 98 122.41 98 141.74 98 141.88 98 141.95 97.88 117.25 97.88"/><polygon points="138.93 102.88 139.07 102.88 141.67 98.13 141.53 98.13 138.93 102.88"/><polygon points="122.41 98 122.41 98 122.41 98 122.41 98"/><polygon points="122.17 98.13 122.25 98 117.25 98 117.25 98.13 122.17 98.13"/><polygon points="122.41 98 122.51 98.07 122.47 98.13 141.53 98.13 141.67 98.13 141.74 98 122.41 98 122.41 98"/><polygon points="118.94 102.88 119.09 102.88 122.47 98.13 122.32 98.13 118.94 102.88"/><polygon points="118.94 102.88 122.32 98.13 122.17 98.13 118.79 102.88 118.94 102.88"/><polygon points="122.31 97.93 122.25 98 122.41 98 122.31 97.93"/><polygon points="122.32 98.13 122.41 98 122.41 98 122.25 98 122.17 98.13 122.32 98.13"/><polygon points="122.47 98.13 122.51 98.07 122.41 98 122.32 98.13 122.47 98.13"/><polygon class="cls-9" points="118.13 103.88 118.13 104.48 139.88 104.48 139.88 103.13 139.07 103.13 117.25 103.13 117.25 103.88 118.13 103.88"/><polygon class="cls-9" points="118.13 104.88 119.33 104.88 138.63 104.88 139.88 104.88 139.88 104.48 118.13 104.48 118.13 104.88"/><polygon points="140 103 140 104.48 140.13 104.48 140.13 102.88 139.21 102.88 139.14 103 140 103"/><polygon points="118.13 105 118.13 105.13 119.98 105.13 119.65 105 118.13 105"/><polygon points="140 105 138.54 105 138.46 105.13 140.13 105.13 140.13 104.48 140 104.48 140 105"/><polygon points="139 103 139.14 103 139.21 102.88 139.07 102.88 139 103"/><polygon points="118.75 102.93 118.79 102.88 117.25 102.88 117.25 103 118.85 103 118.85 103 118.75 102.93"/><polygon points="118.85 103 118.85 103 118.85 103 118.85 103"/><polygon points="119.09 102.88 119.01 103 139 103 139.07 102.88 138.93 102.88 119.09 102.88"/><polygon points="118.75 102.93 118.85 103 118.94 102.88 118.79 102.88 118.75 102.93"/><polygon points="118.85 103 118.85 103 119.01 103 119.09 102.88 118.94 102.88 118.85 103"/><polygon points="139.88 103.13 139.88 104.48 140 104.48 140 103 139.14 103 139.07 103.13 139.88 103.13"/><polygon points="118.13 104.88 118.13 105 119.65 105 119.33 104.88 118.13 104.88"/><polygon points="139.88 104.88 138.63 104.88 138.54 105 140 105 140 104.48 139.88 104.48 139.88 104.88"/><polygon points="118.95 103.07 118.85 103 118.85 103 117.25 103 117.25 103.13 139.07 103.13 139.14 103 139 103 119.01 103 118.95 103.07"/><polygon points="118.95 103.07 119.01 103 118.85 103 118.95 103.07"/><polygon class="cls-9" points="134.93 109.88 138.15 105.13 120.67 105.13 133.02 109.88 134.93 109.88"/><polygon points="135 110 133 110 120.33 105.13 119.98 105.13 132.96 110.12 135.07 110.13 138.46 105.13 138.3 105.13 135 110"/><polygon points="120 105 119.65 105 119.98 105.13 120.33 105.13 120 105"/><polygon points="138.39 105 138.3 105.13 138.46 105.13 138.54 105 138.39 105"/><polygon points="119.33 104.88 119.65 105 120 105 138.39 105 138.54 105 138.63 104.88 119.33 104.88"/><polygon points="134.93 109.88 133.02 109.88 120.67 105.13 120.33 105.13 133 110 135 110 138.3 105.13 138.15 105.13 134.93 109.88"/><polygon points="120.33 105.13 120.67 105.13 138.15 105.13 138.3 105.13 138.39 105 120 105 120.33 105.13"/><path class="cls-9" d="M157.5,105.5h-6l-.23,0,4,4.52v6.5h-1.11v.38l3.75.16V115a1.43,1.43,0,0,1-.38-1Z"/><path class="cls-9" d="M144.47,103.16l-.1,0h-1.26l-.19,1.35h7.14A1.51,1.51,0,0,1,150,104a1.44,1.44,0,0,1,.29-.87h-5.77Z"/><path class="cls-9" d="M155.24,110l-4-4.52a1.5,1.5,0,0,1-1.18-1h-7.14l0,.4h7.22L152,110h2.15v6.54h1.11Z"/><path class="cls-9" d="M150.06,104.48h.3l.88,1,.23,0h6V114a1.43,1.43,0,0,0,.38,1v-9.85H151.5l-.28-2h-1a1.44,1.44,0,0,0-.29.87A1.51,1.51,0,0,0,150.06,104.48Z"/><path class="cls-9" d="M151.24,105.48l-.88-1h-.3A1.5,1.5,0,0,0,151.24,105.48Z"/><polygon points="143 103 144 103 143.63 102.88 142.89 102.88 142.67 104.48 142.79 104.48 143 103"/><polygon points="150.23 102.88 144.57 102.88 144.53 103 150.26 103 150.23 102.88"/><path d="M158,117.17l-4-.17v-.5h-.12v.62l4.11.17h.14v-2.09l-.13-.1Z"/><polygon points="154 110.08 151.89 110.08 150 105 142.72 105 142.79 104.48 142.67 104.48 142.58 105.13 149.91 105.13 151.8 110.21 153.88 110.21 153.88 116.5 154 116.5 154 110.08"/><path d="M151.72,104.88l-.28-2h-.18l-.48.12h.55l.28,2H158v10.11l.13.1V104.88Z"/><path d="M150.26,103.13l0,0,0-.09h-5.73l0,.13Z"/><path d="M157.88,115V117l-3.75-.16v-.38H154v.5l4,.17v-2.06A.74.74,0,0,1,157.88,115Z"/><polygon points="143.11 103.13 144.38 103.13 144 103 143 103 142.79 104.48 142.92 104.48 143.11 103.13"/><polygon points="154.13 109.96 151.98 109.96 150.09 104.88 142.87 104.88 142.92 104.48 142.79 104.48 142.72 105 150 105 151.89 110.08 154 110.08 154 116.5 154.13 116.5 154.13 109.96"/><path d="M150.29,103.09l0,0h1l.28,2h6.38V115a.74.74,0,0,0,.12.13V105h-6.39l-.28-2h-.55l-.49.12Z"/><path d="M145.53,100h4l.73,2.88h.26a1.43,1.43,0,0,1,.68-.35L150.28,99h-5.47l-1.28,3.84.1,0h.94Z"/><path d="M151.26,102.88l-.09-.35a1.43,1.43,0,0,0-.68.35Z"/><polygon points="144.49 103.13 144.38 103.13 144.47 103.16 144.49 103.13"/><path d="M150.36,103a.74.74,0,0,1,.13-.12h-.26l0,.12Z"/><polygon points="144.53 103 144.57 102.88 143.63 102.88 144 103 144.53 103"/><path d="M150.36,103h.42l.48-.12h-.77A.74.74,0,0,0,150.36,103Z"/><path d="M150.29,103.09l.07-.09h-.1Z"/><polygon points="144.49 103.13 144.53 103 144 103 144.38 103.13 144.49 103.13"/><path d="M150.29,103.09v0l.49-.12h-.42Z"/><path class="cls-7" d="M145.5,120a4.5,4.5,0,0,1-4.38-3.5h-1.53a6,6,0,0,0,11.82,0h-1.53A4.5,4.5,0,0,1,145.5,120Z"/><path class="cls-7" d="M145.5,109.5a6,6,0,0,0-6,6,6.64,6.64,0,0,0,.09,1h1.53a4.64,4.64,0,0,1-.12-1,4.5,4.5,0,0,1,9,0,4.64,4.64,0,0,1-.12,1h1.53a6.64,6.64,0,0,0,.09-1A6,6,0,0,0,145.5,109.5Z"/><path d="M145.5,122a6.5,6.5,0,0,1-6.41-5.5h-.51a7,7,0,0,0,13.84,0h-.51A6.5,6.5,0,0,1,145.5,122Z"/><path d="M145.5,108.5a7,7,0,0,0-7,7,6.63,6.63,0,0,0,.08,1h.51a5.55,5.55,0,0,1-.09-1,6.5,6.5,0,0,1,13,0,5.55,5.55,0,0,1-.09,1h.51a6.63,6.63,0,0,0,.08-1A7,7,0,0,0,145.5,108.5Z"/><path d="M145.5,122a6.5,6.5,0,0,0,6.41-5.5h-.5a6,6,0,0,1-11.82,0h-.5A6.5,6.5,0,0,0,145.5,122Z"/><path d="M139.5,115.5a6,6,0,0,1,12,0,6.64,6.64,0,0,1-.09,1h.5a5.55,5.55,0,0,0,.09-1,6.5,6.5,0,0,0-13,0,5.55,5.55,0,0,0,.09,1h.5A6.64,6.64,0,0,1,139.5,115.5Z"/><path class="cls-10" d="M145.5,117a1.5,1.5,0,0,0,1.11-.5h-2.22A1.5,1.5,0,0,0,145.5,117Z"/><path class="cls-10" d="M147,115.5a1.5,1.5,0,1,0-2.61,1h2.22A1.49,1.49,0,0,0,147,115.5Z"/><path class="cls-11" d="M145.5,120a4.5,4.5,0,0,0,4.38-3.5h-1.56a3,3,0,0,1-5.64,0h-1.56A4.5,4.5,0,0,0,145.5,120Z"/><path class="cls-11" d="M142.5,115.5a3,3,0,1,1,5.82,1h1.56a4.64,4.64,0,0,0,.12-1,4.5,4.5,0,0,0-9,0,4.64,4.64,0,0,0,.12,1h1.56A3,3,0,0,1,142.5,115.5Z"/><path class="cls-11" d="M145.5,117a1.5,1.5,0,0,1-1.11-.5h-1.71a3,3,0,0,0,5.64,0h-1.71A1.5,1.5,0,0,1,145.5,117Z"/><path class="cls-11" d="M145.5,112.5a3,3,0,0,0-2.82,4h1.71a1.5,1.5,0,1,1,2.22,0h1.71a3,3,0,0,0-2.82-4Z"/><path class="cls-7" d="M119.5,120a4.49,4.49,0,0,1-4.37-3.48v3.07a6,6,0,0,0,10.28-3.09h-1.53A4.5,4.5,0,0,1,119.5,120Z"/><path class="cls-7" d="M115.13,114.49a1.89,1.89,0,0,1,.11-.36h-.11Z"/><path class="cls-7" d="M119.5,111a4.49,4.49,0,0,1,4.5,4.5,4.64,4.64,0,0,1-.12,1h1.53a6.64,6.64,0,0,0,.09-1,6,6,0,0,0-6-6,5.65,5.65,0,0,0-1.37.17v1.57A4.43,4.43,0,0,1,119.5,111Z"/><path d="M119.5,122a6.42,6.42,0,0,1-4.37-1.71V121a7,7,0,0,0,11.29-4.46h-.51A6.5,6.5,0,0,1,119.5,122Z"/><path d="M119.5,108.5a6.84,6.84,0,0,0-1.37.14v.51a6.19,6.19,0,0,1,1.37-.15,6.51,6.51,0,0,1,6.5,6.5,5.55,5.55,0,0,1-.09,1h.51a6.63,6.63,0,0,0,.08-1A7,7,0,0,0,119.5,108.5Z"/><path d="M119.5,121.5a6,6,0,0,1-4.37-1.91v.7A6.42,6.42,0,0,0,119.5,122a6.5,6.5,0,0,0,6.41-5.5h-.5A6,6,0,0,1,119.5,121.5Z"/><path d="M119.5,109.5a6,6,0,0,1,6,6,6.64,6.64,0,0,1-.09,1h.5a5.55,5.55,0,0,0,.09-1,6.51,6.51,0,0,0-6.5-6.5,6.19,6.19,0,0,0-1.37.15v.52A5.65,5.65,0,0,1,119.5,109.5Z"/><path class="cls-10" d="M119.5,117a1.5,1.5,0,0,0,1.11-.5h-2.22A1.5,1.5,0,0,0,119.5,117Z"/><path class="cls-10" d="M121,115.5a1.5,1.5,0,1,0-2.61,1h2.22A1.49,1.49,0,0,0,121,115.5Z"/><path class="cls-11" d="M119.5,118.5a3,3,0,0,1-2.82-2h-.18l0-.79c0-.07,0-.14,0-.21a2.09,2.09,0,0,1,0-.35l0-1h-1.32a1.89,1.89,0,0,0-.11.36v2a4.49,4.49,0,0,0,8.75,0h-1.56A3,3,0,0,1,119.5,118.5Z"/><path class="cls-11" d="M116.5,116.5h.18a3,3,0,0,1-.16-.79Z"/><path class="cls-11" d="M116.56,114.13l0,1a2.89,2.89,0,0,1,.31-1Z"/><path class="cls-11" d="M119.5,112.5a3,3,0,0,1,2.82,4h1.56a4.64,4.64,0,0,0,.12-1,4.49,4.49,0,0,0-4.5-4.5,4.43,4.43,0,0,0-1.37.24v1.61A2.87,2.87,0,0,1,119.5,112.5Z"/><path class="cls-11" d="M116.5,115.5c0,.07,0,.14,0,.21l0-.56A2.09,2.09,0,0,0,116.5,115.5Z"/><path class="cls-11" d="M119.5,117a1.5,1.5,0,0,1-1.11-.5h-1.71a3,3,0,0,0,5.64,0h-1.71A1.5,1.5,0,0,1,119.5,117Z"/><path class="cls-11" d="M116.85,114.13a2.89,2.89,0,0,0-.31,1l0,.56a3,3,0,0,0,.16.79h1.71a1.5,1.5,0,1,1,2.22,0h1.71a3,3,0,0,0-2.82-4,2.87,2.87,0,0,0-1.37.35v1.28Z"/><rect class="cls-7" x="130.5" y="116.5" width="5" height="2"/><rect class="cls-7" x="130.5" y="111.5" width="5" height="5"/><polygon class="cls-1" points="135.75 118.75 130.25 118.75 130.25 116.5 130 116.5 130 119 136 119 136 116.5 135.75 116.5 135.75 118.75"/><polygon class="cls-1" points="130 111 130 116.5 130.25 116.5 130.25 111.25 135.75 111.25 135.75 116.5 136 116.5 136 111 130 111"/><polygon class="cls-1" points="135.75 118.75 135.75 116.5 135.5 116.5 135.5 118.5 130.5 118.5 130.5 116.5 130.25 116.5 130.25 118.75 135.75 118.75"/><polygon class="cls-1" points="130.5 111.5 135.5 111.5 135.5 116.5 135.75 116.5 135.75 111.25 130.25 111.25 130.25 116.5 130.5 116.5 130.5 111.5"/><polygon class="cls-7" points="91.13 75.07 89.96 75.88 91.88 75.88 91.88 71.66 91.13 72.07 91.13 75.07"/><path class="cls-7" d="M88.15,75.88V73.13h-.29l0-.14A6.34,6.34,0,0,1,89,69.83a4.49,4.49,0,0,1,2.86-.9V64.1c-.59-.12-4-.68-5.78,2a14.3,14.3,0,0,0-2,6.93v.13h-1v2.19l.91.56h4.11Z"/><polygon points="91 75 91 72 91.88 71.51 91.88 71.37 90.88 71.93 90.88 74.94 89.52 75.88 89.74 75.88 91 75"/><path d="M88.4,72.88h-.26A6,6,0,0,1,89.2,70a4.25,4.25,0,0,1,2.68-.83v-.12a4.3,4.3,0,0,0-2.77.86A6.43,6.43,0,0,0,88,73h.28v2.88h.12Z"/><path d="M83,75.39V73h1a14.33,14.33,0,0,1,2-7c1.8-2.7,5.21-2.16,5.88-2v-.12c-.76-.15-4.18-.62-6,2.08a14.44,14.44,0,0,0-2,6.95h-1v2.58l1,.61v-.15Z"/><path d="M84,75.88l-.91-.56V73.13h1V73a14.3,14.3,0,0,1,2-6.93c1.77-2.65,5.19-2.09,5.78-2V64c-.67-.13-4.08-.67-5.88,2a14.33,14.33,0,0,0-2,7H83v2.39l.88.53v0Z"/><polygon points="91 75 89.74 75.88 89.96 75.88 91.13 75.07 91.13 72.07 91.88 71.66 91.88 71.51 91 72 91 75"/><path d="M88.28,73H88a6.43,6.43,0,0,1,1.11-3.08,4.3,4.3,0,0,1,2.77-.86v-.13a4.49,4.49,0,0,0-2.86.9A6.34,6.34,0,0,0,87.88,73l0,.14h.29v2.75h.13Z"/><polygon class="cls-12" points="85.13 114.13 85.13 119 87 119 87 118 88.33 118 88.33 119 103 119 103 118 105 118 105 119 106.88 119 106.88 114.13 85.13 114.13"/><path class="cls-7" d="M103,69.83A6.34,6.34,0,0,1,104.12,73l0,.14h-.29v2.75H108l.92-.56V73.13h-1V73a14.37,14.37,0,0,0-2-6.93c-1.77-2.65-5.19-2.09-5.77-2v4.83A4.48,4.48,0,0,1,103,69.83Z"/><polygon class="cls-7" points="100.88 75.07 100.88 72.07 100.13 71.66 100.13 75.88 102.04 75.88 100.88 75.07"/><polygon points="101 75 102.26 75.88 102.48 75.88 101.13 74.94 101.13 71.93 100.13 71.37 100.13 71.51 101 72 101 75"/><path d="M102.8,70a6,6,0,0,1,1.06,2.87h-.26v3h.12V73H104a6.43,6.43,0,0,0-1.11-3.08,4.29,4.29,0,0,0-2.76-.86v.12A4.25,4.25,0,0,1,102.8,70Z"/><path d="M106,66a14.33,14.33,0,0,1,2,7h1v2.39l-.87.53v.15l1-.61V72.88h-1a14.44,14.44,0,0,0-2-6.95c-1.8-2.7-5.22-2.23-6-2.08V64C100.79,63.84,104.2,63.3,106,66Z"/><path d="M102.89,69.92A6.43,6.43,0,0,1,104,73h-.28v2.88h.13V73.13h.29l0-.14A6.34,6.34,0,0,0,103,69.83a4.48,4.48,0,0,0-2.85-.9v.13A4.29,4.29,0,0,1,102.89,69.92Z"/><polygon points="100.88 75.07 102.04 75.88 102.26 75.88 101 75 101 72 100.13 71.51 100.13 71.66 100.88 72.07 100.88 75.07"/><path d="M105.9,66.07a14.37,14.37,0,0,1,2,6.93v.13h1v2.19l-.92.56h.17v0l.87-.53V73h-1a14.33,14.33,0,0,0-2-7c-1.8-2.7-5.21-2.16-5.87-2v.13C100.71,64,104.13,63.42,105.9,66.07Z"/><polygon class="cls-7" points="102.08 77.88 102.11 77.94 103.88 81.23 103.88 77.13 88.13 77.13 88.13 80.79 89.93 77.88 102.08 77.88"/><path class="cls-7" d="M86.38,83.63v-.94a.81.81,0,0,1,.81-.81h.26l.43-.69V77.13H85.13v7.65l1.25-.39Z"/><polygon class="cls-7" points="86.38 84.65 85.13 85.04 85.13 88.78 86.38 88.41 86.38 84.65"/><polygon points="88.13 77.13 88 77.13 88 80.99 88.13 80.79 88.13 77.13"/><polygon points="85 77.13 84.88 77.13 84.88 84.86 85 84.82 85 77.13"/><polygon points="85 88.81 85 85.08 84.88 85.12 84.88 88.85 85 88.81"/><polygon points="88 77.13 87.88 77.13 87.88 81.19 88 80.99 88 77.13"/><polygon points="85.13 88.78 85.13 85.04 85 85.08 85 88.81 85.13 88.78"/><polygon points="85.13 77.13 85 77.13 85 84.82 85.13 84.78 85.13 77.13"/><path class="cls-7" d="M104.13,81.69l.09.19h.59a.82.82,0,0,1,.82.81v5.72l1.25.38V85l-1.25-.4.07-.24,1.18.38V77.13h-2.75Z"/><polygon points="103.88 81.23 104 81.46 104 77.13 103.88 77.13 103.88 81.23"/><polygon points="107.13 88.86 107.13 85.08 107 85.04 107 88.83 107.13 88.86"/><polygon points="107 84.78 107.13 84.82 107.13 77.13 107 77.13 107 84.78"/><polygon points="104 81.46 104.13 81.69 104.13 77.13 104 77.13 104 81.46"/><polygon points="106.88 84.74 107 84.78 107 77.13 106.88 77.13 106.88 84.74"/><polygon points="106.88 88.79 107 88.83 107 85.04 106.88 85 106.88 88.79"/><polygon class="cls-7" points="96.13 75.88 98.88 75.88 98.88 63.69 98.88 30.88 98.88 28.13 96.13 28.13 96.13 75.88"/><rect x="99" y="28.13" width="0.13" height="2.75"/><rect x="98.88" y="28.13" width="0.13" height="2.75"/><polygon points="95.88 75.88 95.88 28.13 93.13 28.13 93.13 30.88 93.13 63.69 93.13 75.88 95.88 75.88"/><rect x="96" y="28.13" width="0.13" height="47.75"/><rect x="92.88" y="28.13" width="0.13" height="2.75"/><rect x="95.88" y="28.13" width="0.13" height="47.75"/><rect x="93" y="28.13" width="0.13" height="2.75"/><polygon class="cls-7" points="92.88 31.13 92.13 31.13 92.13 63.85 92.88 63.73 92.88 31.13"/><polygon class="cls-7" points="92.13 71.52 92.13 75.88 92.88 75.88 92.88 63.99 92.13 64.11 92.13 68.94 92.13 71.52"/><polygon class="cls-7" points="92.88 63.73 92.13 63.85 92.13 63.98 92.88 63.86 92.88 63.73"/><polygon class="cls-7" points="92.88 63.86 92.13 63.98 92.13 64.11 92.88 63.99 92.88 63.86"/><path d="M92,31h.88v-.12h-1v33l.12,0Z"/><path d="M92,68.93v-4.8h0l-.09,0v4.83Z"/><polygon points="91.88 75.88 92 75.88 92 71.59 91.88 71.66 91.88 75.88"/><path d="M91.88,71.37v.14l.12-.07V69.06h-.12v2.31Z"/><path d="M92,64v-.13l-.12,0V64Z"/><polygon points="91.88 71.66 92 71.59 92 71.44 91.88 71.51 91.88 71.66"/><path d="M92,69.06v-.13h-.12v.13Z"/><path d="M92,64.12h0V64l-.12,0v.13Z"/><rect x="92.88" y="30.88" width="0.13" height="0.13"/><polygon points="93.13 63.69 93.13 30.88 93 30.88 93 31 93 63.71 93.13 63.69"/><polygon points="93 75.88 93.13 75.88 93.13 63.69 93 63.71 93 63.84 93 75.88"/><polygon points="92.13 63.85 92.13 31.13 92.88 31.13 92.88 31 92 31 92 63.87 92 63.87 92.13 63.85"/><polygon points="92 68.93 92.13 68.94 92.13 64.11 92 64.13 92 68.93 92 68.93"/><polygon points="92 75.88 92.13 75.88 92.13 71.52 92 71.59 92 75.88"/><polygon points="92.13 63.85 92 63.87 92 63.87 92 64 92.13 63.98 92.13 63.85"/><polygon points="92.13 64.11 92.13 63.98 92 64 92 64.13 92.13 64.11"/><polygon points="92 71.44 92 71.59 92.13 71.52 92.13 68.94 92 68.93 92 68.93 92 69.06 92 71.44"/><polygon points="92.88 63.73 93 63.71 93 31 92.88 31 92.88 31.13 92.88 63.73"/><polygon points="93 63.84 93 63.71 92.88 63.73 92.88 63.86 93 63.84"/><polygon points="93 63.84 92.88 63.86 92.88 63.99 92.88 75.88 93 75.88 93 63.84"/><polygon class="cls-7" points="99.88 31.13 99.13 31.13 99.13 63.73 99.88 63.85 99.88 31.13"/><polygon class="cls-7" points="99.13 75.88 99.88 75.88 99.88 71.52 99.88 68.94 99.88 64.11 99.13 63.99 99.13 75.88"/><polygon class="cls-7" points="99.88 63.98 99.88 63.85 99.13 63.73 99.13 63.86 99.88 63.98"/><polygon class="cls-7" points="99.13 63.99 99.88 64.11 99.88 63.98 99.13 63.86 99.13 63.99"/><path d="M100,31V63.87l.13,0v-33h-1V31Z"/><path d="M100.13,68.93V64.1l-.1,0h0v4.8Z"/><polygon points="100.13 71.66 100 71.59 100 75.88 100.13 75.88 100.13 71.66"/><path d="M100,64l.13,0v-.12l-.13,0Z"/><path d="M100.13,71.37V69.06H100v2.38l.13.07Z"/><path d="M100.13,69.06v-.13H100v.13Z"/><path d="M100,64.13h0l.1,0V64L100,64v.13Z"/><polygon points="100.13 71.51 100 71.44 100 71.59 100.13 71.66 100.13 71.51"/><rect x="99" y="30.88" width="0.13" height="0.13"/><polygon points="98.88 63.69 99 63.71 99 31 99 30.88 98.88 30.88 98.88 63.69"/><polygon points="99 75.88 99 63.84 99 63.71 98.88 63.69 98.88 75.88 99 75.88"/><polygon points="99.88 31.13 99.88 63.85 100 63.87 100 63.87 100 31 99.13 31 99.13 31.13 99.88 31.13"/><polygon points="100 68.93 100 68.93 100 64.13 99.98 64.12 99.88 64.11 99.88 68.94 100 68.93"/><polygon points="100 71.59 99.88 71.52 99.88 75.88 100 75.88 100 71.59"/><polygon points="99.88 63.85 99.88 63.98 100 64 100 63.87 100 63.87 99.88 63.85"/><polygon points="99.88 64.11 99.98 64.12 100 64.13 100 64 99.88 63.98 99.88 64.11"/><polygon points="100 71.44 100 69.06 100 68.93 100 68.93 99.88 68.94 99.88 71.52 100 71.59 100 71.44"/><polygon points="99.13 63.73 99.13 31.13 99.13 31 99 31 99 63.71 99.13 63.73"/><polygon points="99.13 63.86 99.13 63.73 99 63.71 99 63.84 99.13 63.86"/><polygon points="99.13 63.99 99.13 63.86 99 63.84 99 75.88 99.13 75.88 99.13 63.99"/><rect x="84.13" y="76.13" width="0.75" height="0.75"/><rect x="107.13" y="76.13" width="0.75" height="0.75"/><polygon points="103.88 76.88 103.88 76.13 103.6 76.13 102.84 76.13 100.13 76.13 99.13 76.13 98.88 76.13 96.13 76.13 93.13 76.13 92.88 76.13 91.88 76.13 89.16 76.13 88.4 76.13 88.13 76.13 88.13 76.88 103.88 76.88"/><rect x="85.13" y="76.13" width="2.75" height="0.75"/><rect x="88" y="76.13" width="0.13" height="0.75"/><rect x="84.88" y="76.13" width="0.13" height="0.75"/><rect x="87.88" y="76.13" width="0.13" height="0.75"/><rect x="85" y="76.13" width="0.13" height="0.75"/><rect x="104.13" y="76.13" width="2.75" height="0.75"/><rect x="103.88" y="76.13" width="0.13" height="0.75"/><rect x="107" y="76.13" width="0.13" height="0.75"/><rect x="104" y="76.13" width="0.13" height="0.75"/><rect x="106.88" y="76.13" width="0.13" height="0.75"/><polygon points="108 76.13 108 77 107.13 77 107.13 77.13 108.13 77.13 108.13 76.07 108.03 76.13 108 76.13"/><polygon points="84 77 84 76.13 83.97 76.13 83.88 76.07 83.88 77.13 84.88 77.13 84.88 77 84 77"/><polygon points="84 76.13 84 76 83.88 75.92 83.88 76.07 83.97 76.13 84 76.13"/><polygon points="84.88 75.88 84.03 75.88 83.88 75.88 83.88 75.92 84 76 84.88 76 84.88 75.88"/><polygon points="108 76 108 76.13 108.03 76.13 108.13 76.07 108.13 75.92 108 76"/><polygon points="107.97 75.88 107.13 75.88 107.13 76 108 76 108.13 75.92 108.13 75.88 107.97 75.88"/><rect x="88.13" y="77" width="15.75" height="0.13"/><polygon points="102.48 75.88 102.66 76 103.6 76 103.6 75.88 102.48 75.88"/><polygon points="89.52 75.88 88.4 75.88 88.4 76 89.34 76 89.52 75.88"/><rect x="88.28" y="75.88" width="0.13" height="0.13"/><polygon points="89.74 75.88 89.52 75.88 89.34 76 89.56 76 89.74 75.88"/><polygon points="89.74 75.88 89.56 76 91.88 76 91.88 75.88 89.96 75.88 89.74 75.88"/><polygon points="88.28 75.88 88.15 75.88 88.13 75.88 88.13 76 88.28 76 88.28 75.88"/><rect x="103.6" y="75.88" width="0.13" height="0.13"/><polygon points="102.44 76 102.66 76 102.48 75.88 102.26 75.88 102.44 76"/><polygon points="102.26 75.88 102.04 75.88 100.13 75.88 100.13 76 102.44 76 102.26 75.88"/><polygon points="103.72 76 103.88 76 103.88 75.88 103.85 75.88 103.72 75.88 103.72 76"/><rect x="85.13" y="77" width="2.75" height="0.13"/><rect x="88" y="77" width="0.13" height="0.13"/><rect x="84.88" y="77" width="0.13" height="0.13"/><polygon points="88 76 88.13 76 88.13 75.88 84.88 75.88 84.88 76 85 76 88 76"/><rect x="87.88" y="77" width="0.13" height="0.13"/><rect x="85" y="77" width="0.13" height="0.13"/><rect x="104.13" y="77" width="2.75" height="0.13"/><rect x="103.88" y="77" width="0.13" height="0.13"/><rect x="107" y="77" width="0.13" height="0.13"/><polygon points="103.88 76 104 76 107 76 107.13 76 107.13 75.88 103.88 75.88 103.88 76"/><rect x="104" y="77" width="0.13" height="0.13"/><rect x="106.88" y="77" width="0.13" height="0.13"/><rect x="96.13" y="75.88" width="2.75" height="0.13"/><rect x="96" y="75.88" width="0.13" height="0.13"/><polygon points="96 76 96 75.88 95.88 75.88 93.13 75.88 93.13 76 96 76"/><rect x="91.88" y="75.88" width="0.13" height="0.13"/><rect x="93" y="75.88" width="0.13" height="0.13"/><polygon points="92 76 92.88 76 92.88 75.88 92.13 75.88 92 75.88 92 76"/><rect x="92.88" y="75.88" width="0.13" height="0.13"/><rect x="100" y="75.88" width="0.13" height="0.13"/><rect x="98.88" y="75.88" width="0.13" height="0.13"/><polygon points="100 76 100 75.88 99.88 75.88 99.13 75.88 99.13 76 100 76"/><rect x="99" y="75.88" width="0.13" height="0.13"/><polygon points="107.88 76.88 107.13 76.88 107.13 77 108 77 108 76.13 107.88 76.13 107.88 76.88"/><polygon points="84.13 76.88 84.13 76.13 84 76.13 84 77 84.88 77 84.88 76.88 84.13 76.88"/><polygon points="84.88 76.13 84.88 76 84 76 84 76.13 84.13 76.13 84.88 76.13"/><polygon points="107.13 76.13 107.88 76.13 108 76.13 108 76 107.13 76 107.13 76.13"/><rect x="88.13" y="76.88" width="15.75" height="0.13"/><polygon points="89.34 76 88.4 76 88.4 76.13 89.16 76.13 89.34 76"/><polygon points="102.84 76.13 103.6 76.13 103.6 76 102.66 76 102.84 76.13"/><polygon points="88.4 76.13 88.4 76 88.28 76 88.13 76 88.13 76.13 88.4 76.13"/><polygon points="89.56 76 89.34 76 89.16 76.13 91.88 76.13 91.88 76 89.56 76"/><polygon points="103.6 76 103.6 76.13 103.88 76.13 103.88 76 103.72 76 103.6 76"/><polygon points="102.44 76 100.13 76 100.13 76.13 102.84 76.13 102.66 76 102.44 76"/><rect x="85.13" y="76.88" width="2.75" height="0.13"/><rect x="88" y="76.88" width="0.13" height="0.13"/><rect x="84.88" y="76.88" width="0.13" height="0.13"/><rect x="84.88" y="76" width="0.13" height="0.13"/><rect x="88" y="76" width="0.13" height="0.13"/><rect x="87.88" y="76.88" width="0.13" height="0.13"/><rect x="85" y="76.88" width="0.13" height="0.13"/><polygon points="88 76 85 76 85 76.13 85.13 76.13 87.88 76.13 88 76.13 88 76"/><rect x="104.13" y="76.88" width="2.75" height="0.13"/><rect x="103.88" y="76.88" width="0.13" height="0.13"/><rect x="107" y="76.88" width="0.13" height="0.13"/><rect x="107" y="76" width="0.13" height="0.13"/><rect x="103.88" y="76" width="0.13" height="0.13"/><rect x="104" y="76.88" width="0.13" height="0.13"/><rect x="106.88" y="76.88" width="0.13" height="0.13"/><polygon points="104.13 76.13 106.88 76.13 107 76.13 107 76 104 76 104 76.13 104.13 76.13"/><rect x="96.13" y="76" width="2.75" height="0.13"/><polygon points="96.13 76.13 96.13 76 96 76 93.13 76 93.13 76.13 96.13 76.13"/><polygon points="91.88 76.13 92.88 76.13 92.88 76 92 76 91.88 76 91.88 76.13"/><polygon points="93.13 76.13 93.13 76 93 76 92.88 76 92.88 76.13 93.13 76.13"/><polygon points="100.13 76.13 100.13 76 100 76 99.13 76 99.13 76.13 100.13 76.13"/><polygon points="99.13 76.13 99.13 76 99 76 98.88 76 98.88 76.13 99.13 76.13"/><rect class="cls-7" x="99.13" y="26.13" width="1.75" height="1.75"/><rect class="cls-7" x="91.13" y="26.13" width="1.75" height="1.75"/><rect class="cls-7" x="96.13" y="26.13" width="2.75" height="1.75"/><rect class="cls-7" x="99" y="26.13" width="0.13" height="1.75"/><rect class="cls-7" x="98.88" y="26.13" width="0.13" height="1.75"/><rect class="cls-7" x="93.13" y="26.13" width="2.75" height="1.75"/><rect class="cls-7" x="96" y="26.13" width="0.13" height="1.75"/><rect class="cls-7" x="92.88" y="26.13" width="0.13" height="1.75"/><rect class="cls-7" x="95.88" y="26.13" width="0.13" height="1.75"/><rect class="cls-7" x="93" y="26.13" width="0.13" height="1.75"/><polygon points="101 26 101 28 99.13 28 99.13 28.13 101.13 28.13 101.13 25.88 99.13 25.88 99.13 26 101 26"/><polygon points="91 28 91 26 92.88 26 92.88 25.88 90.88 25.88 90.88 28.13 92.88 28.13 92.88 28 91 28"/><rect x="96.13" y="28" width="2.75" height="0.13"/><rect x="99" y="28" width="0.13" height="0.13"/><rect x="98.88" y="28" width="0.13" height="0.13"/><rect x="93.13" y="28" width="2.75" height="0.13"/><rect x="96" y="28" width="0.13" height="0.13"/><rect x="92.88" y="28" width="0.13" height="0.13"/><rect x="95.88" y="28" width="0.13" height="0.13"/><rect x="93" y="28" width="0.13" height="0.13"/><polygon points="91.13 27.88 91.13 26.13 92.88 26.13 92.88 26 91 26 91 28 92.88 28 92.88 27.88 91.13 27.88"/><polygon points="100.88 26.13 100.88 27.88 99.13 27.88 99.13 28 101 28 101 26 99.13 26 99.13 26.13 100.88 26.13"/><rect x="96.13" y="27.88" width="2.75" height="0.13"/><rect x="99" y="27.88" width="0.13" height="0.13"/><rect x="98.88" y="27.88" width="0.13" height="0.13"/><rect x="93.13" y="27.88" width="2.75" height="0.13"/><rect x="96" y="27.88" width="0.13" height="0.13"/><rect x="92.88" y="27.88" width="0.13" height="0.13"/><rect x="95.88" y="27.88" width="0.13" height="0.13"/><rect x="93" y="27.88" width="0.13" height="0.13"/><polygon points="98.88 24.13 96.88 24.13 95.13 24.13 93.13 24.13 93.13 25.88 96.13 25.88 98.88 25.88 98.88 24.13"/><rect x="95.13" y="23.88" width="1.75" height="0.13"/><rect x="92.88" y="24.13" width="0.13" height="1.75"/><rect x="99" y="24.13" width="0.13" height="1.75"/><rect x="99" y="25.88" width="0.13" height="0.13"/><rect x="92.88" y="25.88" width="0.13" height="0.13"/><rect x="99" y="26" width="0.13" height="0.13"/><polygon points="96.13 26.13 98.88 26.13 99 26.13 99 26 96.13 26 96.13 26.13"/><rect x="92.88" y="26" width="0.13" height="0.13"/><rect x="96" y="26" width="0.13" height="0.13"/><polygon points="93.13 26.13 95.88 26.13 96 26.13 96 26 93 26 93 26.13 93.13 26.13"/><rect x="95.13" y="24" width="1.75" height="0.13"/><rect x="93" y="24.13" width="0.13" height="1.75"/><rect x="98.88" y="24.13" width="0.13" height="1.75"/><polygon points="96.13 25.88 96.13 26 99 26 99 25.88 98.88 25.88 96.13 25.88"/><polygon points="96.13 26 96.13 25.88 93.13 25.88 93 25.88 93 26 96 26 96.13 26"/><rect x="93.13" y="22.13" width="1.75" height="1.75"/><polygon points="93 22 95 22 95 23.88 95.13 23.88 95.13 21.88 92.88 21.88 92.88 23.88 93 23.88 93 22"/><rect x="95" y="23.88" width="0.13" height="0.13"/><polygon points="93 24 93 23.88 92.88 23.88 92.88 24.13 93 24.13 93 24"/><polygon points="95.13 24.13 95.13 24 95 24 93 24 93 24.13 93.13 24.13 95.13 24.13"/><polygon points="93.13 22.13 94.88 22.13 94.88 23.88 95 23.88 95 22 93 22 93 23.88 93.13 23.88 93.13 22.13"/><polygon points="95 23.88 94.88 23.88 93.13 23.88 93 23.88 93 24 95 24 95 23.88"/><rect x="97.13" y="22.13" width="1.75" height="1.75"/><polygon points="97 22 99 22 99 23.88 99.13 23.88 99.13 21.88 96.88 21.88 96.88 23.88 97 23.88 97 22"/><polygon points="99 24 99 24.13 99.13 24.13 99.13 23.88 99 23.88 99 24"/><rect x="96.88" y="23.88" width="0.13" height="0.13"/><polygon points="98.88 24.13 99 24.13 99 24 97 24 96.88 24 96.88 24.13 98.88 24.13"/><polygon points="97.13 22.13 98.88 22.13 98.88 23.88 99 23.88 99 22 97 22 97 23.88 97.13 23.88 97.13 22.13"/><polygon points="99 23.88 98.88 23.88 97.13 23.88 97 23.88 97 24 99 24 99 23.88"/><rect class="cls-7" x="77.13" y="122.13" width="7.75" height="0.75"/><rect class="cls-7" x="77.13" y="120.13" width="7.75" height="1.75"/><rect class="cls-7" x="77.13" y="115.68" width="6.88" height="2.19"/><polygon class="cls-7" points="84 118.13 77.13 118.13 77.13 119.88 84.88 119.88 84.88 119 84 119 84 118.13"/><rect class="cls-7" x="77.13" y="114.13" width="6.88" height="1.31"/><rect class="cls-7" x="84" y="115.68" width="0.88" height="2.19"/><rect class="cls-7" x="84" y="118.13" width="0.88" height="0.88"/><rect class="cls-7" x="84" y="114.13" width="0.88" height="1.31"/><polygon points="85 119.88 85 120 85 120.13 85 121.88 85 122 85 122.13 85 123 77 123 77 122.13 77 122 77 121.88 77 120.13 77 120 77 119.88 77 118.13 77 118 77 117.88 77 115.68 77 115.56 77 115.43 77 114.13 76.88 114.13 76.88 123.13 85.13 123.13 85.13 119 85 119 85 119.88"/><polygon points="85 114.13 85 115.43 85 115.56 85 115.68 85 117.88 85 118 85 118.13 85 119 85.13 119 85.13 114.13 85 114.13"/><rect x="84.88" y="120.13" width="0.13" height="1.75"/><rect x="84.88" y="119" width="0.13" height="0.88"/><rect x="77" y="120.13" width="0.13" height="1.75"/><rect x="77" y="114.13" width="0.13" height="1.31"/><rect x="77" y="118.13" width="0.13" height="1.75"/><rect x="77" y="115.68" width="0.13" height="2.19"/><polygon points="84.88 122.88 77.13 122.88 77.13 122.13 77 122.13 77 123 85 123 85 122.13 84.88 122.13 84.88 122.88"/><rect x="84.88" y="115.68" width="0.13" height="2.19"/><rect x="84.88" y="118.13" width="0.13" height="0.88"/><rect x="84.88" y="114.13" width="0.13" height="1.31"/><rect x="77.13" y="115.43" width="6.88" height="0.12"/><rect x="77.13" y="115.56" width="6.88" height="0.13"/><rect x="84" y="115.56" width="0.88" height="0.13"/><rect x="84" y="115.43" width="0.88" height="0.12"/><rect x="77" y="115.43" width="0.13" height="0.12"/><rect x="77" y="115.56" width="0.13" height="0.13"/><rect x="84.88" y="115.56" width="0.13" height="0.13"/><rect x="84.88" y="115.43" width="0.13" height="0.12"/><rect x="77.13" y="117.88" width="6.88" height="0.13"/><rect x="77.13" y="118" width="6.88" height="0.13"/><rect x="84" y="118" width="0.88" height="0.13"/><rect x="84" y="117.88" width="0.88" height="0.13"/><rect x="77" y="117.88" width="0.13" height="0.13"/><rect x="77" y="118" width="0.13" height="0.13"/><rect x="84.88" y="117.88" width="0.13" height="0.13"/><rect x="84.88" y="118" width="0.13" height="0.13"/><rect x="77.13" y="120" width="7.75" height="0.13"/><rect x="77.13" y="119.88" width="7.75" height="0.13"/><rect x="77" y="120" width="0.13" height="0.13"/><rect x="77" y="119.88" width="0.13" height="0.13"/><rect x="84.88" y="119.88" width="0.13" height="0.13"/><rect x="84.88" y="120" width="0.13" height="0.13"/><path class="cls-7" d="M114.26,120.13h-7.13v1.75h7.75v-1.13C114.66,120.55,114.45,120.34,114.26,120.13Z"/><path class="cls-7" d="M112.64,114.13h-5.51v1.3h5.37A6.9,6.9,0,0,1,112.64,114.13Z"/><path class="cls-7" d="M112.51,115.68h-5.38v2.2h5.79A7,7,0,0,1,112.51,115.68Z"/><path class="cls-7" d="M113,118.13h-5.88v1.75H114A7.32,7.32,0,0,1,113,118.13Z"/><rect class="cls-7" x="107.13" y="122.13" width="7.75" height="0.75"/><path class="cls-7" d="M114.88,119.32v-1.19h-.77A6,6,0,0,0,114.88,119.32Z"/><path class="cls-7" d="M114,117.88h.89v-2.2h-1.37A6,6,0,0,0,114,117.88Z"/><path class="cls-7" d="M113.67,114.13a6.17,6.17,0,0,0-.17,1.3h1.38v-1.3Z"/><path class="cls-7" d="M113,115.68h-.5a7,7,0,0,0,.41,2.2h.54A6.49,6.49,0,0,1,113,115.68Z"/><path class="cls-7" d="M113,115.43a6.9,6.9,0,0,1,.15-1.3h-.51a6.9,6.9,0,0,0-.14,1.3Z"/><path class="cls-7" d="M113.56,118.13H113a7.32,7.32,0,0,0,1,1.75h.67A6.8,6.8,0,0,1,113.56,118.13Z"/><path class="cls-7" d="M114.88,120.75v-.62h-.62C114.45,120.34,114.66,120.55,114.88,120.75Z"/><path class="cls-7" d="M113.67,114.13h-.52a6.9,6.9,0,0,0-.15,1.3h.5A6.17,6.17,0,0,1,113.67,114.13Z"/><path class="cls-7" d="M113.51,115.68H113a6.49,6.49,0,0,0,.45,2.2H114A6,6,0,0,1,113.51,115.68Z"/><path class="cls-7" d="M113.56,118.13a6.8,6.8,0,0,0,1.15,1.75h.17v-.56a6,6,0,0,1-.77-1.19Z"/><path d="M115,121.88V123h-8v-4h-.12v4.13h8.25V121l-.13-.1Z"/><path d="M115.13,114.13H115v1.37a4.17,4.17,0,0,1,.13-1Z"/><path d="M115,115.5v4l.13.13v-3.07A4.32,4.32,0,0,1,115,115.5Z"/><path d="M115,120.18v.68l.13.1v-.67A.69.69,0,0,1,115,120.18Z"/><path d="M115,119.46v.72a.69.69,0,0,0,.13.11v-.7Z"/><path d="M115,115.5a4.32,4.32,0,0,0,.13,1v-2A4.17,4.17,0,0,0,115,115.5Z"/><polygon points="107 118.13 107 118 107 117.88 107 115.68 107 115.56 107 115.43 107 114.13 106.88 114.13 106.88 119 107 119 107 118.13"/><rect x="107" y="120.13" width="0.13" height="1.75"/><rect x="107" y="114.13" width="0.13" height="1.31"/><polygon points="114.88 122.88 107.13 122.88 107.13 122.13 107 122.13 107 123 115 123 115 122.13 114.88 122.13 114.88 122.88"/><rect x="107" y="115.68" width="0.13" height="2.19"/><polygon points="107.13 118.13 107 118.13 107 119 107 119.88 107.13 119.88 107.13 118.13"/><path d="M114.88,121.88H115v-1l-.12-.11Z"/><rect x="114.88" y="114.13" width="0.13" height="1.31"/><path d="M114.88,118.13v1.19a1.49,1.49,0,0,0,.12.14v-1.33Z"/><rect x="114.88" y="115.68" width="0.13" height="2.19"/><path d="M114.88,120.13v.62l.12.11v-.68l-.06-.05Z"/><path d="M114.94,120.13l.06.05v-.05Z"/><path d="M114.88,119.88H115v-.42a1.49,1.49,0,0,1-.12-.14Z"/><path d="M112.5,115.56h-5.37v.12h5.38S112.5,115.6,112.5,115.56Z"/><path d="M112.5,115.5v-.07h-5.37v.13h5.37Z"/><path d="M113.51,115.68h1.37v-.12H113.5S113.51,115.64,113.51,115.68Z"/><path d="M113.5,115.5v.06h1.38v-.13H113.5Z"/><path d="M113,115.56h-.5s0,.08,0,.12h.5S113,115.6,113,115.56Z"/><path d="M113,115.5v-.07h-.5v.13h.5Z"/><path d="M113,115.56h.5v-.13H113v.13Z"/><path d="M113.5,115.56H113s0,.08,0,.12h.5S113.5,115.6,113.5,115.56Z"/><rect x="107" y="115.43" width="0.13" height="0.12"/><rect x="107" y="115.56" width="0.13" height="0.13"/><rect x="114.88" y="115.56" width="0.13" height="0.13"/><polygon points="114.88 115.43 114.88 115.56 115 115.56 115 115.5 115 115.43 114.88 115.43"/><path d="M112.92,117.88h-5.79V118H113Z"/><path d="M113,118h-5.84v.13H113S113,118,113,118Z"/><path d="M114.05,118l.06.13h.77V118Z"/><path d="M114.05,118h.83v-.12H114Z"/><path d="M113.46,117.88h-.54l0,.12h.53A.56.56,0,0,1,113.46,117.88Z"/><path d="M113.5,118H113s0,.08,0,.13h.55Z"/><path d="M113.56,118.13h.55l-.06-.13h-.55Z"/><path d="M113.46,117.88a.56.56,0,0,0,0,.12h.55l-.06-.12Z"/><rect x="107" y="118" width="0.13" height="0.13"/><rect x="107" y="117.88" width="0.13" height="0.13"/><rect x="114.88" y="118" width="0.13" height="0.13"/><rect x="114.88" y="117.88" width="0.13" height="0.13"/><path d="M114.14,120h-7v.13h7.13Z"/><path d="M114,119.88h-6.91V120h7Z"/><path d="M114.82,120h-.68l.12.13h.62v-.07Z"/><path d="M114,119.88l.1.12h.68l-.11-.12Z"/><path d="M114.82,120h.06v-.12h-.17Z"/><path d="M114.88,120.06V120h-.06Z"/><rect x="107" y="119.88" width="0.13" height="0.13"/><rect x="107" y="120" width="0.13" height="0.13"/><path d="M114.88,120.06v.07h.06Z"/><rect x="114.88" y="119.88" width="0.13" height="0.13"/><path d="M114.88,120.06l.06.07H115V120h-.12Z"/><rect x="77.13" y="122" width="7.75" height="0.13"/><rect x="77.13" y="121.88" width="7.75" height="0.13"/><rect x="77" y="122" width="0.13" height="0.13"/><rect x="84.88" y="122" width="0.13" height="0.13"/><rect x="84.88" y="121.88" width="0.13" height="0.13"/><rect x="77" y="121.88" width="0.13" height="0.13"/><rect x="107.13" y="122" width="7.75" height="0.13"/><rect x="107.13" y="121.88" width="7.75" height="0.13"/><rect x="114.88" y="121.88" width="0.13" height="0.13"/><rect x="114.88" y="122" width="0.13" height="0.13"/><rect x="107" y="122" width="0.13" height="0.13"/><rect x="107" y="121.88" width="0.13" height="0.13"/><polygon points="115.51 91.42 115.51 87.77 115.26 87.69 115.26 91.34 115.51 91.42"/><polygon class="cls-7" points="114.88 92.13 109.88 92.13 109.88 89.96 107.12 89.13 103.88 89.13 88.13 89.13 84.88 89.13 84.88 89.11 76 91.7 76 93.75 116.88 93.75 116.88 93.13 116.88 92.13 115.13 92.13 114.88 92.13"/><polygon class="cls-7" points="114.88 91.88 114.88 91.48 110.13 90.04 110.13 91.88 114.88 91.88"/><polygon class="cls-7" points="110 92 110 90 109.88 89.96 109.88 92.13 114.88 92.13 114.88 92 110 92"/><polygon class="cls-7" points="114.88 92 114.88 91.88 110.13 91.88 110.13 90.04 110 90 110 92 114.88 92"/><polygon class="cls-7" points="115.51 91.88 116.16 91.88 115.51 91.68 115.51 91.88"/><polygon class="cls-7" points="115.13 91.56 115.13 91.88 115.26 91.88 115.26 91.6 115.13 91.56"/><polygon class="cls-7" points="116.57 92 115.51 92 115.26 92 115.13 92 115.13 92.13 116.88 92.13 116.88 92.09 116.57 92"/><polygon class="cls-7" points="114.88 92 114.88 92.13 115.13 92.13 115.13 92 115 92 114.88 92"/><polygon class="cls-7" points="114.88 92 115 92 115 91.52 114.88 91.48 114.88 91.88 114.88 92"/><rect class="cls-7" x="115.13" y="91.88" width="0.14" height="0.13"/><polygon class="cls-7" points="115.51 91.88 115.51 92 116.57 92 116.16 91.88 115.51 91.88"/><polygon class="cls-7" points="115.13 91.56 115 91.52 115 92 115.13 92 115.13 91.88 115.13 91.56"/><rect class="cls-7" x="88.13" y="88.63" width="15.75" height="0.25"/><rect class="cls-7" x="88.13" y="89" width="15.75" height="0.13"/><rect class="cls-7" x="88.13" y="88.88" width="15.75" height="0.13"/><polygon class="cls-7" points="87.88 88.63 86.52 88.63 85.66 88.88 87.88 88.88 87.88 88.63"/><rect class="cls-7" x="88" y="88.63" width="0.13" height="0.25"/><polygon class="cls-7" points="88 89 85.23 89 84.88 89.11 84.88 89.13 88.13 89.13 88.13 89 88 89"/><rect class="cls-7" x="88" y="88.88" width="0.13" height="0.13"/><rect class="cls-7" x="87.88" y="88.63" width="0.13" height="0.25"/><polygon class="cls-7" points="88 88.88 87.88 88.88 85.66 88.88 85.23 89 88 89 88 88.88"/><polygon class="cls-7" points="106.3 88.88 105.48 88.63 104.13 88.63 104.13 88.88 106.3 88.88"/><rect class="cls-7" x="103.88" y="88.63" width="0.13" height="0.25"/><polygon class="cls-7" points="104 89 103.88 89 103.88 89.13 107.12 89.13 106.71 89 104 89"/><rect class="cls-7" x="103.88" y="88.88" width="0.13" height="0.13"/><rect class="cls-7" x="104" y="88.63" width="0.13" height="0.25"/><polygon class="cls-7" points="104 88.88 104 89 106.71 89 106.3 88.88 104.13 88.88 104 88.88"/><polygon class="cls-7" points="115.26 91.6 115.26 91.88 115.51 91.88 115.51 91.68 115.26 91.6"/><rect class="cls-7" x="115.26" y="91.88" width="0.25" height="0.13"/><polygon points="84.88 88.97 84.88 88.85 83.11 89.36 83.11 89.49 84.88 88.97"/><polygon points="109.88 89.83 109.88 89.7 109.3 89.53 109.06 89.53 109.06 89.45 107.13 88.86 107.13 89 109.88 89.83"/><polygon points="82.99 89.53 82.86 89.53 82.86 89.44 79.84 90.32 79.84 90.44 82.99 89.53"/><rect x="117" y="93.13" width="0.13" height="0.63"/><polygon points="79.72 90.48 79.59 90.48 79.59 90.39 76.9 91.18 76.9 91.25 76.65 91.25 76.65 91.25 76 91.44 76 91.57 79.72 90.48"/><polygon points="114.88 91.35 114.88 91.22 112.44 90.48 112.32 90.48 112.32 90.45 110.13 89.78 110.13 89.91 114.88 91.35"/><polygon points="110 89.87 110 89.74 109.88 89.7 109.88 89.83 110 89.87"/><polygon points="110.13 89.91 110.13 89.78 110 89.74 110 89.87 110.13 89.91"/><polygon points="116.59 91.88 116.88 91.88 117.02 91.88 115.51 91.42 115.51 91.55 116.59 91.88"/><polygon points="115.26 91.47 115.26 91.34 115.13 91.3 115.13 91.43 115.26 91.47"/><polygon points="115 91.26 114.88 91.22 114.88 91.35 115 91.39 115 91.26"/><polygon points="116.88 91.88 116.59 91.88 116.88 91.96 116.88 91.88"/><polygon points="115.13 91.3 115 91.26 115 91.39 115.13 91.43 115.13 91.3"/><polygon points="85.22 88.88 86.38 88.54 86.38 88.41 85.13 88.78 85.13 88.88 85.22 88.88"/><polygon points="85 88.94 85 88.81 84.88 88.85 84.88 88.97 85 88.94"/><polygon points="85.22 88.88 85.13 88.88 85.13 88.78 85 88.81 85 88.94 85.22 88.88"/><polygon points="105.63 88.54 106.73 88.88 106.88 88.88 106.88 88.79 105.63 88.41 105.63 88.54"/><polygon points="107.13 89 107.13 88.86 107 88.83 107 88.96 107.13 89"/><polygon points="106.73 88.88 107 88.96 107 88.83 106.88 88.79 106.88 88.88 106.73 88.88"/><polygon points="115.26 91.47 115.51 91.55 115.51 91.42 115.26 91.34 115.26 91.47"/><polygon points="84.88 89.11 84.88 88.97 83.11 89.49 83.11 89.53 82.99 89.53 79.84 90.44 79.84 90.48 79.72 90.48 76 91.57 76 91.7 84.88 89.11"/><polygon points="107.12 89.13 109.88 89.96 109.88 89.83 107.13 89 107.13 89.13 107.12 89.13"/><rect x="116.88" y="93.13" width="0.13" height="0.63"/><polygon points="114.88 91.48 114.88 91.35 110.13 89.91 110.13 90.04 114.88 91.48"/><polygon points="110 90 110 89.87 109.88 89.83 109.88 89.96 110 90"/><polygon points="110.13 90.04 110.13 89.91 110 89.87 110 90 110.13 90.04"/><polygon points="116.16 91.88 116.59 91.88 115.51 91.55 115.51 91.68 116.16 91.88"/><polygon points="115.13 91.56 115.26 91.6 115.26 91.47 115.13 91.43 115.13 91.56"/><polygon points="116.88 92.09 116.88 92 116.57 92 116.88 92.09"/><polygon points="115 91.52 115 91.39 114.88 91.35 114.88 91.48 115 91.52"/><polygon points="116.59 91.88 116.16 91.88 116.57 92 116.88 92 116.88 91.96 116.59 91.88"/><polygon points="115.13 91.43 115 91.39 115 91.52 115.13 91.56 115.13 91.43"/><polygon points="86.52 88.63 86.38 88.63 86.38 88.54 85.22 88.88 85.66 88.88 86.52 88.63"/><polygon points="85.23 89 85 89 85 88.94 84.88 88.97 84.88 89.11 85.23 89"/><polygon points="85.23 89 85.66 88.88 85.22 88.88 85 88.94 85 89 85.23 89"/><polygon points="105.48 88.63 106.3 88.88 106.73 88.88 105.63 88.54 105.63 88.63 105.48 88.63"/><polygon points="106.71 89 107.12 89.13 107.13 89.13 107.13 89 107 88.96 107 89 106.71 89"/><polygon points="106.71 89 107 89 107 88.96 106.73 88.88 106.3 88.88 106.71 89"/><polygon points="115.51 91.68 115.51 91.55 115.26 91.47 115.26 91.6 115.51 91.68"/><polygon points="70.5 107.5 70.5 106.5 70.75 106.5 70.75 106.25 70.25 106.25 70.25 107.75 73.88 107.75 73.88 107.5 70.5 107.5"/><polygon points="70.75 107.25 70.75 106.75 70.75 106.5 70.5 106.5 70.5 107.5 73.88 107.5 73.88 107.25 70.75 107.25"/><polygon class="cls-9" points="73.88 103.88 74 103.88 74 92.25 71.25 92.25 71.25 106.25 73.88 106.25 73.88 103.88"/><rect class="cls-9" x="71.25" y="106.25" width="2.63" height="0.25"/><rect class="cls-9" x="71.25" y="106.5" width="2.63" height="0.25"/><polygon points="71 92 74 92 74 91.75 71.79 91.75 71.79 91.8 71.54 91.8 71.54 91.75 70.75 91.75 70.75 106.25 71 106.25 71 92"/><polygon points="71 107 71 106.75 70.75 106.75 70.75 107.25 73.88 107.25 73.88 107 71 107"/><rect x="70.75" y="106.25" width="0.25" height="0.25"/><rect x="70.75" y="106.5" width="0.25" height="0.25"/><polygon points="71.25 92.25 74 92.25 74 92 71 92 71 106.25 71.25 106.25 71.25 92.25"/><polygon points="73.88 107 73.88 106.75 71.25 106.75 71 106.75 71 107 73.88 107"/><rect x="71" y="106.25" width="0.25" height="0.25"/><rect x="71" y="106.5" width="0.25" height="0.25"/><polygon class="cls-9" points="116.75 103.88 116.75 103.13 116.69 103.13 116.69 97.88 116.75 97.88 116.75 94.25 76 94.25 76 103.88 116.75 103.88"/><rect class="cls-9" x="116.69" y="97.88" width="0.06" height="5.25"/><polygon points="117 94.13 117 96.88 117.25 96.88 117.25 93.75 117.13 93.75 117.13 94.13 117 94.13"/><rect x="117.13" y="97.13" width="0.13" height="0.75"/><rect x="117" y="96.88" width="0.25" height="0.13"/><polygon points="117.13 97.88 117.13 97.13 117.25 97.13 117.25 97 117 97 117 97.88 117.13 97.88"/><rect x="117" y="98.13" width="0.25" height="4.75"/><polygon points="117.25 98 117.25 97.88 117.13 97.88 117 97.88 117 98 117.25 98"/><rect x="117" y="98" width="0.25" height="0.13"/><rect x="117.13" y="103.13" width="0.13" height="0.75"/><rect x="117" y="102.88" width="0.25" height="0.13"/><rect x="117" y="103.13" width="0.13" height="0.75"/><polygon points="117 103.13 117.13 103.13 117.25 103.13 117.25 103 117 103 117 103.13"/><rect x="76" y="93.75" width="40.88" height="0.13"/><polygon points="117 94 117 94.13 117.13 94.13 117.13 93.75 117 93.75 117 94"/><polygon points="116.88 93.88 76 93.88 76 94 117 94 117 93.75 116.88 93.75 116.88 93.88"/><polygon points="76 94.25 116.75 94.25 116.75 97.88 116.88 97.88 116.88 96.88 117 96.88 117 94.13 76 94.13 76 94.25"/><rect x="116.75" y="103.13" width="0.13" height="0.75"/><polygon points="116.88 97.88 117 97.88 117 97 117 96.88 116.88 96.88 116.88 97.88"/><rect x="116.94" y="98.13" width="0.06" height="4.75"/><polygon points="116.88 103.13 116.88 103 116.81 103 116.81 98 116.88 98 116.88 97.88 116.75 97.88 116.75 103.13 116.88 103.13"/><rect x="116.88" y="97.88" width="0.13" height="0.13"/><polygon points="116.94 102.88 116.94 98.13 116.88 98.13 116.88 98 116.81 98 116.81 103 116.88 103 116.88 102.88 116.94 102.88"/><polygon points="116.94 98.13 117 98.13 117 98 116.88 98 116.88 98.13 116.94 98.13"/><rect x="116.88" y="103.13" width="0.13" height="0.75"/><rect x="116.88" y="103" width="0.13" height="0.13"/><polygon points="117 102.88 116.94 102.88 116.88 102.88 116.88 103 117 103 117 102.88"/><rect x="76" y="94" width="41" height="0.13"/><polygon class="cls-13" points="75.1 91.7 76 91.44 76 88 75.65 88 74 88.51 74 91.75 75.1 91.75 75.1 91.7"/><polygon class="cls-13" points="74 88 74 88.25 74.81 88 74 88"/><polygon class="cls-13" points="75.35 93.75 76 93.75 76 91.7 75.35 91.89 75.35 93.75"/><polygon class="cls-13" points="75.25 91.79 76 91.57 76 91.44 75.1 91.7 75.1 91.75 75.25 91.75 75.25 91.79"/><polygon class="cls-13" points="75.35 93.75 75.35 91.89 76 91.7 76 91.57 75.25 91.79 75.25 93.75 75.35 93.75"/><polygon class="cls-13" points="74.25 103.88 74.25 93.75 74.75 93.75 74.75 92.25 74 92.25 74 103.88 74.25 103.88"/><polygon class="cls-13" points="75 93.75 75.1 93.75 75.1 91.75 74 91.75 74 92 75 92 75 93.75"/><polygon class="cls-13" points="75.22 91.8 75.25 91.79 75.25 91.75 75.1 91.75 75.1 93.75 75.22 93.75 75.22 91.8"/><polygon class="cls-13" points="75.25 91.79 75.22 91.8 75.22 93.75 75.25 93.75 75.25 91.79"/><polygon class="cls-13" points="74.75 92.25 74.75 93.75 75 93.75 75 92 74 92 74 92.25 74.75 92.25"/><rect class="cls-13" x="75.25" y="94.25" width="0.75" height="9.63"/><rect class="cls-13" x="75" y="94.25" width="0.25" height="9.63"/><rect class="cls-13" x="74.75" y="94.25" width="0.25" height="9.63"/><rect class="cls-13" x="75.35" y="93.75" width="0.65" height="0.13"/><polygon class="cls-13" points="75.35 93.75 75.25 93.75 75.25 94 76 94 76 93.88 75.35 93.88 75.35 93.75"/><polygon class="cls-13" points="74.25 103.88 74.5 103.88 74.5 94 74.75 94 74.75 93.75 74.25 93.75 74.25 103.88"/><rect class="cls-13" x="75" y="93.75" width="0.1" height="0.25"/><rect class="cls-13" x="75.1" y="93.75" width="0.13" height="0.25"/><rect class="cls-13" x="75.22" y="93.75" width="0.03" height="0.25"/><rect class="cls-13" x="74.75" y="93.75" width="0.25" height="0.25"/><rect class="cls-13" x="75.25" y="94.13" width="0.75" height="0.13"/><rect class="cls-13" x="75.25" y="94" width="0.75" height="0.13"/><polygon class="cls-13" points="74.75 94.25 74.75 94 74.5 94 74.5 103.88 74.75 103.88 74.75 94.25"/><polygon class="cls-13" points="75.25 94.25 75.25 94.13 75.1 94.13 75.1 94 75 94 75 94.25 75.25 94.25"/><polygon class="cls-13" points="75.25 94.13 75.25 94 75.22 94 75.1 94 75.1 94.13 75.25 94.13"/><rect class="cls-13" x="74.75" y="94" width="0.25" height="0.25"/><path class="cls-7" d="M93.13,105.25v8.63h5.75v-8.63ZM96.58,111H95.42A1.41,1.41,0,0,1,94,109.58v-1.16A1.41,1.41,0,0,1,95.42,107h1.16A1.41,1.41,0,0,1,98,108.42v1.16A1.41,1.41,0,0,1,96.58,111Z"/><path class="cls-7" d="M85.13,105.25v8.63h7.75v-8.63ZM89.58,111H88.42A1.41,1.41,0,0,1,87,109.58v-1.16A1.41,1.41,0,0,1,88.42,107h1.16A1.41,1.41,0,0,1,91,108.42v1.16A1.41,1.41,0,0,1,89.58,111Z"/><path class="cls-7" d="M113.88,105.25h-6.75v8.63h5.57a6.76,6.76,0,0,1,1.18-2.53Z"/><polygon class="cls-7" points="76 105.25 76 106 75.25 106 75.25 107.25 74.75 107.25 74.75 107.75 74.13 107.75 74.13 113.88 76.88 113.88 77.93 113.88 77.93 105.25 76 105.25"/><path class="cls-7" d="M99.13,105.25v8.63h7.75v-8.63Zm5.87,4.33a1.41,1.41,0,0,1-1.42,1.42h-1.16a1.41,1.41,0,0,1-1.42-1.42v-1.16a1.41,1.41,0,0,1,1.42-1.42h1.16a1.41,1.41,0,0,1,1.42,1.42Z"/><path class="cls-7" d="M114.13,111a7,7,0,0,1,2.56-1.93l.1-3.84h-2.66Z"/><rect class="cls-7" x="78.18" y="105.25" width="6.69" height="8.63"/><path class="cls-7" d="M117.25,105.25h-.46l-.1,3.84a6.14,6.14,0,0,1,1.19-.39v-3.57h-.63Z"/><rect class="cls-7" x="117.25" y="104.13" width="0.63" height="0.36"/><rect class="cls-7" x="117.25" y="104.48" width="0.63" height="0.39"/><rect class="cls-7" x="117.25" y="105" width="0.63" height="0.13"/><rect class="cls-7" x="117.25" y="104.88" width="0.63" height="0.13"/><path class="cls-7" d="M113.88,113.43a3.39,3.39,0,0,0-.15.45h.15Z"/><path class="cls-7" d="M114.13,112.85v1h1.18a4.47,4.47,0,0,1,1.31-1.81l0-1.86A6.09,6.09,0,0,0,114.13,112.85Z"/><path class="cls-7" d="M116.62,112.07a4.7,4.7,0,0,1,1.26-.76v-1.58a6.45,6.45,0,0,0-1.22.48Z"/><path class="cls-7" d="M113.88,111.35a6.76,6.76,0,0,0-1.18,2.53h.51a6.43,6.43,0,0,1,.67-1.62Z"/><path class="cls-7" d="M114.13,111v.83a6.54,6.54,0,0,1,2.55-2.2v-.56A7,7,0,0,0,114.13,111Z"/><path class="cls-7" d="M116.68,109.65a6.86,6.86,0,0,1,1.2-.44v-.51a6.14,6.14,0,0,0-1.19.39Z"/><path class="cls-7" d="M113.88,113.43v-1.17a6.43,6.43,0,0,0-.67,1.62h.52A3.39,3.39,0,0,1,113.88,113.43Z"/><path class="cls-7" d="M114.13,111.85v1a6.09,6.09,0,0,1,2.53-2.64l0-.56A6.54,6.54,0,0,0,114.13,111.85Z"/><path class="cls-7" d="M116.66,110.21a6.45,6.45,0,0,1,1.22-.48v-.52a6.86,6.86,0,0,0-1.2.44Z"/><path class="cls-7" d="M115.31,113.88h1.26l.05-1.81A4.47,4.47,0,0,0,115.31,113.88Z"/><path class="cls-7" d="M116.57,113.88H117a2.91,2.91,0,0,1,.89-.89v-1.68a4.7,4.7,0,0,0-1.26.76Z"/><path class="cls-7" d="M117.88,113a2.91,2.91,0,0,0-.89.89h.89Z"/><polygon class="cls-7" points="74.75 107.25 74.5 107.25 74.5 107.5 74.13 107.5 74.13 107.75 74.75 107.75 74.75 107.25"/><polygon class="cls-7" points="74.5 107.25 74.25 107.25 74.13 107.25 74.13 107.5 74.5 107.5 74.5 107.25"/><rect class="cls-7" x="74.13" y="106" width="0.63" height="0.25"/><polygon class="cls-7" points="74.75 106.25 74.13 106.25 74.13 106.5 74.5 106.5 74.5 106.75 74.75 106.75 74.75 106.25"/><polygon class="cls-7" points="74.13 106.5 74.13 106.75 74.25 106.75 74.5 106.75 74.5 106.5 74.13 106.5"/><polygon class="cls-7" points="75 107 74.75 107 74.75 107.25 75.25 107.25 75.25 106 75 106 75 107"/><rect class="cls-7" x="74.13" y="107" width="0.13" height="0.25"/><rect class="cls-7" x="74.5" y="107" width="0.25" height="0.25"/><rect class="cls-7" x="74.25" y="107" width="0.25" height="0.25"/><polygon class="cls-7" points="74.75 106.25 74.75 106.75 74.75 107 75 107 75 106 74.75 106 74.75 106.25"/><rect class="cls-7" x="74.13" y="106.75" width="0.13" height="0.25"/><rect class="cls-7" x="74.5" y="106.75" width="0.25" height="0.25"/><rect class="cls-7" x="74.25" y="106.75" width="0.25" height="0.25"/><rect class="cls-7" x="114.13" y="104.13" width="2.63" height="0.63"/><rect class="cls-7" x="99.13" y="104.13" width="7.75" height="0.63"/><rect class="cls-7" x="76" y="104.13" width="1.93" height="0.63"/><rect class="cls-7" x="93.13" y="104.13" width="5.75" height="0.63"/><rect class="cls-7" x="78.18" y="104.13" width="6.69" height="0.63"/><rect class="cls-7" x="107.13" y="104.13" width="6.75" height="0.63"/><rect class="cls-7" x="85.13" y="104.13" width="7.75" height="0.63"/><rect class="cls-7" x="93.13" y="105" width="5.75" height="0.25"/><rect class="cls-7" x="114.13" y="105" width="2.67" height="0.25"/><rect class="cls-7" x="78.18" y="105" width="6.69" height="0.25"/><rect class="cls-7" x="76" y="105" width="1.93" height="0.25"/><rect class="cls-7" x="85.13" y="105" width="7.75" height="0.25"/><rect class="cls-7" x="99.13" y="105" width="7.75" height="0.25"/><rect class="cls-7" x="107.13" y="105" width="6.75" height="0.25"/><polygon class="cls-7" points="116.88 105 116.8 105 116.8 105.25 117.25 105.25 117.25 105.13 116.88 105.13 116.88 105"/><rect class="cls-7" x="117.13" y="104.13" width="0.13" height="0.36"/><rect class="cls-7" x="117.13" y="104.48" width="0.13" height="0.39"/><polygon class="cls-7" points="116.88 105 116.88 105.13 117.25 105.13 117.25 105 117 105 116.88 105"/><rect class="cls-7" x="117" y="104.13" width="0.13" height="0.36"/><polygon class="cls-7" points="117.13 104.48 117 104.48 117 105 117.25 105 117.25 104.88 117.13 104.88 117.13 104.48"/><polygon class="cls-7" points="116.88 104.48 116.88 104.13 116.75 104.13 116.75 104.75 114.13 104.75 114.13 105 116.8 105 116.81 104.48 116.88 104.48"/><rect class="cls-7" x="85.13" y="104.75" width="7.75" height="0.25"/><rect class="cls-7" x="99.13" y="104.75" width="7.75" height="0.25"/><rect class="cls-7" x="76" y="104.75" width="1.93" height="0.25"/><rect class="cls-7" x="78.18" y="104.75" width="6.69" height="0.25"/><rect class="cls-7" x="107.13" y="104.75" width="6.75" height="0.25"/><rect class="cls-7" x="93.13" y="104.75" width="5.75" height="0.25"/><polygon class="cls-7" points="116.81 104.48 116.8 105 116.88 105 116.88 104.48 116.81 104.48"/><rect class="cls-7" x="116.88" y="104.13" width="0.13" height="0.36"/><rect class="cls-7" x="116.88" y="104.48" width="0.13" height="0.52"/><rect class="cls-7" x="75.25" y="105.25" width="0.75" height="0.75"/><polygon class="cls-7" points="74.25 104.13 74.13 104.13 74.13 106 74.75 106 74.75 105.25 74.25 105.25 74.25 104.13"/><rect class="cls-7" x="75" y="105.25" width="0.25" height="0.75"/><rect class="cls-7" x="74.75" y="105.25" width="0.25" height="0.75"/><rect class="cls-7" x="75.25" y="104.13" width="0.75" height="0.63"/><rect class="cls-7" x="75" y="104.13" width="0.25" height="0.63"/><rect class="cls-7" x="74.75" y="104.13" width="0.25" height="0.63"/><rect class="cls-7" x="75.25" y="105" width="0.75" height="0.25"/><polygon class="cls-7" points="74.5 104.13 74.25 104.13 74.25 105.25 74.75 105.25 74.75 105 74.5 105 74.5 104.13"/><rect class="cls-7" x="75" y="105" width="0.25" height="0.25"/><rect class="cls-7" x="74.75" y="105" width="0.25" height="0.25"/><rect class="cls-7" x="75.25" y="104.75" width="0.75" height="0.25"/><polygon class="cls-7" points="74.75 104.13 74.5 104.13 74.5 105 74.75 105 74.75 104.75 74.75 104.13"/><rect class="cls-7" x="75" y="104.75" width="0.25" height="0.25"/><rect class="cls-7" x="74.75" y="104.75" width="0.25" height="0.25"/><polygon points="74 114 74 107.75 73.88 107.75 73.88 114.13 76.88 114.13 76.88 114 74 114"/><path d="M118,108.67l.13,0v-3.51H118Z"/><polygon points="118 104 118 104.48 118.13 104.48 118.13 103.88 117.25 103.88 117.25 104 118 104"/><rect x="118" y="104.48" width="0.13" height="0.39"/><rect x="118" y="105" width="0.13" height="0.13"/><rect x="118" y="104.88" width="0.13" height="0.13"/><path d="M115.13,114v.13h.11a.5.5,0,0,1,0-.13Z"/><path d="M118.13,111.24v-1.57l-.13,0v1.58Z"/><path d="M118,109.18l.13,0v-.51l-.13,0Z"/><path d="M118,109.7l.13,0v-.52l-.13,0Z"/><path d="M115.28,114a.5.5,0,0,0,0,.13h1.32V114Z"/><path d="M116.92,114h-.35v.13h.29A.54.54,0,0,1,116.92,114Z"/><path d="M118.13,112.85v-1.61l-.13,0v1.64Z"/><path d="M116.92,114a.54.54,0,0,0-.07.13h1.28v-1.28l-.13.07V114Z"/><polygon points="99.13 114 99 114 98.88 114 93.13 114 93 114 92.88 114 85.13 114 85.13 114.13 106.88 114.13 106.88 114 99.13 114"/><rect x="76.88" y="114" width="0.13" height="0.13"/><rect x="85" y="114" width="0.13" height="0.13"/><polygon points="84 114.13 84 114 78.18 114 78.06 114 77.93 114 77 114 77 114.13 77.13 114.13 84 114.13"/><polygon points="84.88 114 84 114 84 114.13 84.88 114.13 85 114.13 85 114 84.88 114"/><rect x="115" y="114" width="0.13" height="0.13"/><rect x="106.88" y="114" width="0.13" height="0.13"/><path d="M112.64,114.13l0-.13H107v.13h5.64Z"/><path d="M114.13,114h-.43l0,.13H115V114Z"/><path d="M113.18,114h-.51l0,.13h.51Z"/><path d="M113.7,114h-.52l0,.13h.52Z"/><rect x="73.88" y="107.5" width="0.13" height="0.25"/><rect x="73.88" y="107.25" width="0.13" height="0.25"/><polygon points="74 106 74 104 74 103.88 73.88 103.88 73.88 106.25 74 106.25 74 106"/><rect x="73.88" y="106.25" width="0.13" height="0.25"/><rect x="73.88" y="106.5" width="0.13" height="0.25"/><rect x="73.88" y="107" width="0.13" height="0.25"/><rect x="73.88" y="106.75" width="0.13" height="0.25"/><polygon points="77.93 104 78.06 104 78.18 104 84.88 104 85 104 85.13 104 92.88 104 93 104 93.13 104 98.88 104 99 104 99.13 104 106.88 104 107 104 107.13 104 113.88 104 114 104 114.13 104 116.75 104 116.75 103.88 76 103.88 76 104 77.93 104"/><rect x="117.13" y="103.88" width="0.13" height="0.13"/><rect x="117" y="103.88" width="0.13" height="0.13"/><rect x="116.75" y="103.88" width="0.13" height="0.13"/><rect x="116.88" y="103.88" width="0.13" height="0.13"/><rect x="74" y="103.88" width="0.25" height="0.13"/><rect x="75.25" y="103.88" width="0.75" height="0.13"/><rect x="75" y="103.88" width="0.25" height="0.13"/><rect x="74.75" y="103.88" width="0.25" height="0.13"/><rect x="74.25" y="103.88" width="0.25" height="0.13"/><rect x="74.5" y="103.88" width="0.25" height="0.13"/><polygon points="74.13 113.88 74.13 107.75 74 107.75 74 114 76.88 114 76.88 113.88 74.13 113.88"/><rect x="99.13" y="113.88" width="7.75" height="0.13"/><rect x="85.13" y="113.88" width="7.75" height="0.13"/><rect x="93.13" y="113.88" width="5.75" height="0.13"/><path d="M117.88,108.7a.53.53,0,0,1,.12,0v-3.54h-.12Z"/><polygon points="117.25 104 117.25 104.13 117.88 104.13 117.88 104.48 118 104.48 118 104 117.25 104"/><rect x="117.88" y="104.48" width="0.13" height="0.39"/><rect x="117.88" y="105" width="0.13" height="0.13"/><rect x="117.88" y="104.88" width="0.13" height="0.13"/><path d="M115.28,114l0-.12h-.18V114Z"/><path d="M117.88,111.31l.12,0V109.7l-.12,0Z"/><path d="M117.88,109.21l.12,0v-.51a.53.53,0,0,0-.12,0Z"/><path d="M117.88,109.73l.12,0v-.52l-.12,0Z"/><path d="M115.28,114h1.29v-.12h-1.26Z"/><path d="M118,112.92v-1.64l-.12,0V113A.47.47,0,0,1,118,112.92Z"/><path d="M116.92,114a.47.47,0,0,1,.07-.12h-.42V114Z"/><path d="M118,114v-1.08a.47.47,0,0,0-.12.07v.89H117a.47.47,0,0,0-.07.12Z"/><polygon points="77.93 113.88 76.88 113.88 76.88 114 77 114 77.93 114 77.93 113.88"/><polygon points="78.18 113.88 78.18 114 84 114 84.88 114 84.88 113.88 78.18 113.88"/><path d="M107.13,113.88V114h5.54a.53.53,0,0,1,0-.12Z"/><polygon points="115 114 115.13 114 115.13 113.88 114.13 113.88 114.13 114 115 114"/><path d="M113.88,113.88h-.15l0,.12h.18Z"/><path d="M113.21,113.88h-.51a.53.53,0,0,0,0,.12h.51Z"/><path d="M113.73,113.88h-.52l0,.12h.52Z"/><rect x="74" y="107.5" width="0.13" height="0.25"/><rect x="74" y="107.25" width="0.13" height="0.25"/><rect x="74" y="106" width="0.13" height="0.25"/><rect x="74" y="106.25" width="0.13" height="0.25"/><rect x="74" y="106.5" width="0.13" height="0.25"/><rect x="74" y="107" width="0.13" height="0.25"/><rect x="74" y="106.75" width="0.13" height="0.25"/><rect x="93.13" y="104" width="5.75" height="0.13"/><rect x="76" y="104" width="1.93" height="0.13"/><rect x="78.18" y="104" width="6.69" height="0.13"/><rect x="85.13" y="104" width="7.75" height="0.13"/><rect x="114.13" y="104" width="2.63" height="0.13"/><rect x="107.13" y="104" width="6.75" height="0.13"/><rect x="99.13" y="104" width="7.75" height="0.13"/><rect x="117.13" y="104" width="0.13" height="0.13"/><rect x="117" y="104" width="0.13" height="0.13"/><rect x="116.75" y="104" width="0.13" height="0.13"/><rect x="116.88" y="104" width="0.13" height="0.13"/><polygon points="74.13 104.13 74.25 104.13 74.25 104 74 104 74 106 74.13 106 74.13 104.13"/><rect x="75.25" y="104" width="0.75" height="0.13"/><rect x="75" y="104" width="0.25" height="0.13"/><rect x="74.75" y="104" width="0.25" height="0.13"/><rect x="74.25" y="104" width="0.25" height="0.13"/><rect x="74.5" y="104" width="0.25" height="0.13"/><rect x="78.06" y="105.25" width="0.13" height="8.63"/><rect x="77.93" y="105.25" width="0.12" height="8.63"/><rect x="77.93" y="104.13" width="0.12" height="0.63"/><rect x="78.06" y="104.13" width="0.13" height="0.63"/><rect x="78.06" y="105" width="0.13" height="0.25"/><rect x="77.93" y="105" width="0.12" height="0.25"/><rect x="77.93" y="104.75" width="0.12" height="0.25"/><rect x="78.06" y="104.75" width="0.13" height="0.25"/><rect x="78.06" y="113.88" width="0.13" height="0.13"/><rect x="77.93" y="113.88" width="0.12" height="0.13"/><rect x="77.93" y="104" width="0.12" height="0.13"/><rect x="78.06" y="104" width="0.13" height="0.13"/><rect x="85" y="105.25" width="0.13" height="8.63"/><rect x="84.88" y="105.25" width="0.13" height="8.63"/><rect x="84.88" y="104.13" width="0.13" height="0.63"/><rect x="85" y="104.13" width="0.13" height="0.63"/><rect x="85" y="105" width="0.13" height="0.25"/><rect x="84.88" y="105" width="0.13" height="0.25"/><rect x="85" y="104.75" width="0.13" height="0.25"/><rect x="84.88" y="104.75" width="0.13" height="0.25"/><rect x="84.88" y="113.88" width="0.13" height="0.13"/><rect x="85" y="113.88" width="0.13" height="0.13"/><rect x="85" y="104" width="0.13" height="0.13"/><rect x="84.88" y="104" width="0.13" height="0.13"/><rect x="93" y="105.25" width="0.13" height="8.63"/><rect x="92.88" y="105.25" width="0.13" height="8.63"/><rect x="93" y="104.13" width="0.13" height="0.63"/><rect x="92.88" y="104.13" width="0.13" height="0.63"/><rect x="93" y="105" width="0.13" height="0.25"/><rect x="92.88" y="105" width="0.13" height="0.25"/><rect x="93" y="104.75" width="0.13" height="0.25"/><rect x="92.88" y="104.75" width="0.13" height="0.25"/><rect x="93" y="113.88" width="0.13" height="0.13"/><rect x="92.88" y="113.88" width="0.13" height="0.13"/><rect x="92.88" y="104" width="0.13" height="0.13"/><rect x="93" y="104" width="0.13" height="0.13"/><rect x="99" y="105.25" width="0.13" height="8.63"/><rect x="98.88" y="105.25" width="0.13" height="8.63"/><rect x="98.88" y="104.13" width="0.13" height="0.63"/><rect x="99" y="104.13" width="0.13" height="0.63"/><rect x="98.88" y="105" width="0.13" height="0.25"/><rect x="99" y="105" width="0.13" height="0.25"/><rect x="99" y="104.75" width="0.13" height="0.25"/><rect x="98.88" y="104.75" width="0.13" height="0.25"/><rect x="98.88" y="113.88" width="0.13" height="0.13"/><rect x="99" y="113.88" width="0.13" height="0.13"/><rect x="99" y="104" width="0.13" height="0.13"/><rect x="98.88" y="104" width="0.13" height="0.13"/><rect x="106.88" y="105.25" width="0.13" height="8.63"/><rect x="107" y="105.25" width="0.13" height="8.63"/><rect x="107" y="104.13" width="0.13" height="0.63"/><rect x="106.88" y="104.13" width="0.13" height="0.63"/><rect x="106.88" y="105" width="0.13" height="0.25"/><rect x="107" y="105" width="0.13" height="0.25"/><rect x="107" y="104.75" width="0.13" height="0.25"/><rect x="106.88" y="104.75" width="0.13" height="0.25"/><rect x="106.88" y="113.88" width="0.13" height="0.13"/><rect x="107" y="113.88" width="0.13" height="0.13"/><rect x="106.88" y="104" width="0.13" height="0.13"/><rect x="107" y="104" width="0.13" height="0.13"/><path d="M114,105.25h-.12v6.1l.12-.17Z"/><path d="M114,111.18a1.83,1.83,0,0,1,.13-.16v-5.77H114Z"/><path d="M114,113.88h.13v-1l-.13.26Z"/><path d="M114,113.88v-.77a3,3,0,0,0-.12.32v.45Z"/><path d="M114,112.05l.13-.2V111a1.83,1.83,0,0,0-.13.16Z"/><path d="M114,111.18l-.12.17v.91l.12-.21Z"/><path d="M114,112.05l-.12.21v1.17a3,3,0,0,1,.12-.32Z"/><path d="M114,113.11l.13-.26v-1l-.13.2Z"/><rect x="113.88" y="104.13" width="0.13" height="0.63"/><rect x="114" y="104.13" width="0.13" height="0.63"/><rect x="114" y="105" width="0.13" height="0.25"/><rect x="113.88" y="105" width="0.13" height="0.25"/><rect x="114" y="104.75" width="0.13" height="0.25"/><rect x="113.88" y="104.75" width="0.13" height="0.25"/><rect x="113.88" y="113.88" width="0.13" height="0.13"/><rect x="114" y="113.88" width="0.13" height="0.13"/><rect x="114" y="104" width="0.13" height="0.13"/><rect x="113.88" y="104" width="0.13" height="0.13"/><rect class="cls-9" x="87" y="107" width="4" height="4" rx="1.42"/><rect class="cls-9" x="94" y="107" width="4" height="4" rx="1.42"/><rect class="cls-9" x="101" y="107" width="4" height="4" rx="1.42"/><polygon class="cls-9" points="103.88 81.88 103.88 81.76 101.92 78.13 90.07 78.13 88.13 81.26 88.13 81.88 103.88 81.88"/><polygon class="cls-9" points="87.74 81.88 87.88 81.88 87.88 81.66 87.74 81.88"/><polygon class="cls-9" points="88.13 81.88 88.13 81.26 88 81.46 88 81.88 88.13 81.88"/><polygon class="cls-9" points="88 81.46 87.88 81.66 87.88 81.88 88 81.88 88 81.46"/><polygon class="cls-9" points="103.94 81.88 103.88 81.76 103.88 81.88 103.94 81.88"/><polygon points="102 78 103.88 81.49 103.88 81.23 102.11 77.94 102.08 77.88 89.93 77.88 88.13 80.79 88.13 81.02 90 78 102 78"/><polygon points="87.88 81.43 87.88 81.19 87.45 81.88 87.6 81.88 87.88 81.43"/><polygon points="88.13 80.79 88 80.99 88 81.22 88.13 81.02 88.13 80.79"/><polygon points="88 81.22 88 80.99 87.88 81.19 87.88 81.43 88 81.22"/><polygon points="104.22 81.88 104.13 81.69 104.13 81.88 104.22 81.88"/><polygon points="103.88 81.49 104 81.72 104 81.46 103.88 81.23 103.88 81.49"/><polygon points="104 81.72 104.08 81.88 104.13 81.88 104.13 81.69 104 81.46 104 81.72"/><polygon points="101.92 78.13 103.88 81.76 103.88 81.49 102 78 90 78 88.13 81.02 88.13 81.26 90.07 78.13 101.92 78.13"/><polygon points="87.88 81.66 87.88 81.43 87.6 81.88 87.74 81.88 87.88 81.66"/><polygon points="88.13 81.26 88.13 81.02 88 81.22 88 81.46 88.13 81.26"/><polygon points="88 81.46 88 81.22 87.88 81.43 87.88 81.66 88 81.46"/><polygon points="103.88 81.76 103.94 81.88 104 81.88 104 81.72 103.88 81.49 103.88 81.76"/><polygon points="104.08 81.88 104 81.72 104 81.88 104.08 81.88"/><rect class="cls-9" x="88.13" y="83.63" width="15.75" height="4.75"/><rect class="cls-9" x="86.63" y="83.63" width="1.25" height="4.75"/><rect class="cls-9" x="88" y="83.63" width="0.13" height="4.75"/><rect class="cls-9" x="87.88" y="83.63" width="0.13" height="4.75"/><rect class="cls-9" x="104.13" y="83.63" width="1.25" height="4.75"/><rect class="cls-9" x="103.88" y="83.63" width="0.13" height="4.75"/><rect class="cls-9" x="104" y="83.63" width="0.13" height="4.75"/><polygon points="86.5 84.61 86.38 84.65 86.38 88.41 86.5 88.38 86.5 84.61"/><polygon points="86.5 84.48 86.5 83.63 86.38 83.63 86.38 84.39 86.46 84.36 86.5 84.48"/><polygon points="105.5 88.38 105.54 88.38 105.63 88.41 105.63 83.63 105.5 83.63 105.5 88.38"/><polygon points="86.5 88.38 86.38 88.41 86.38 88.54 86.5 88.5 86.5 88.38"/><polygon points="105.5 88.38 105.5 88.5 105.63 88.54 105.63 88.41 105.54 88.38 105.5 88.38"/><rect x="88.13" y="88.5" width="15.75" height="0.13"/><polygon points="86.52 88.63 87.88 88.63 87.88 88.5 86.5 88.5 86.38 88.54 86.38 88.63 86.52 88.63"/><rect x="88" y="88.5" width="0.13" height="0.13"/><rect x="87.88" y="88.5" width="0.13" height="0.13"/><polygon points="104.13 88.5 104.13 88.63 105.48 88.63 105.63 88.63 105.63 88.54 105.5 88.5 104.13 88.5"/><rect x="103.88" y="88.5" width="0.13" height="0.13"/><rect x="104" y="88.5" width="0.13" height="0.13"/><rect x="88.13" y="88.38" width="15.75"/><polygon points="87.88 88.38 86.63 88.38 86.63 83.63 86.5 83.63 86.5 84.48 86.54 84.6 86.5 84.61 86.5 88.38 87.88 88.38 87.88 88.38"/><rect x="88" y="88.38" width="0.13"/><rect x="87.88" y="88.38" width="0.13"/><polygon points="105.38 88.38 104.13 88.38 104.13 88.38 105.5 88.38 105.5 83.63 105.38 83.63 105.38 88.38"/><rect x="103.88" y="88.38" width="0.13" height="0.01"/><rect x="104" y="88.38" width="0.13" height="0.01"/><rect x="88.13" y="88.38" width="15.75" height="0.12"/><rect x="86.5" y="88.38" width="1.38" height="0.12"/><rect x="88" y="88.38" width="0.13" height="0.12"/><rect x="87.88" y="88.38" width="0.13" height="0.12"/><rect x="104.13" y="88.38" width="1.38" height="0.12"/><rect x="103.88" y="88.38" width="0.13" height="0.12"/><rect x="104" y="88.38" width="0.13" height="0.12"/><rect class="cls-9" x="88.13" y="82.13" width="15.75" height="1.25"/><path class="cls-9" d="M87.29,82.13h-.1a.56.56,0,0,0-.56.56v.69h1.25V82.13Z"/><rect class="cls-9" x="88" y="82.13" width="0.13" height="1.25"/><rect class="cls-9" x="87.88" y="82.13" width="0.13" height="1.25"/><path class="cls-9" d="M105.38,83.38v-.69a.57.57,0,0,0-.57-.56h-.68v1.25Z"/><rect class="cls-9" x="103.88" y="82.13" width="0.13" height="1.25"/><rect class="cls-9" x="104" y="82.13" width="0.13" height="1.25"/><path d="M86.5,82.69a.69.69,0,0,1,.69-.69h.18l.08-.12h-.26a.81.81,0,0,0-.81.81v.69h.12Z"/><path d="M104.81,82a.69.69,0,0,1,.69.69v.69h.13v-.69a.82.82,0,0,0-.82-.81h-.59l.07.12Z"/><polygon points="87.52 82 87.6 81.88 87.45 81.88 87.37 82 87.52 82"/><polygon points="104.13 81.96 104.15 82 104.29 82 104.22 81.88 104.13 81.88 104.13 81.96"/><polygon points="104.13 81.88 104.08 81.88 104.13 81.96 104.13 81.88"/><rect x="88.13" y="81.88" width="15.75" height="0.13"/><polygon points="87.88 81.88 87.74 81.88 87.6 81.88 87.52 82 87.88 82 87.88 81.88"/><rect x="88" y="81.88" width="0.13" height="0.13"/><rect x="87.88" y="81.88" width="0.13" height="0.13"/><polygon points="104.15 82 104.13 81.96 104.13 82 104.15 82"/><polygon points="103.88 82 104 82 104 81.88 103.94 81.88 103.88 81.88 103.88 82"/><polygon points="104 82 104.13 82 104.13 81.96 104.08 81.88 104 81.88 104 82"/><polygon points="86.5 83.5 86.5 83.38 86.38 83.38 86.38 83.63 86.5 83.63 86.5 83.5"/><polygon points="105.5 83.5 105.5 83.63 105.63 83.63 105.63 83.38 105.5 83.38 105.5 83.5"/><rect x="88.13" y="83.5" width="15.75" height="0.13"/><polygon points="87.88 83.63 87.88 83.5 86.5 83.5 86.5 83.63 86.63 83.63 87.88 83.63"/><rect x="88" y="83.5" width="0.13" height="0.13"/><rect x="87.88" y="83.5" width="0.13" height="0.13"/><polygon points="104.13 83.63 105.38 83.63 105.5 83.63 105.5 83.5 104.13 83.5 104.13 83.63"/><rect x="103.88" y="83.5" width="0.13" height="0.13"/><rect x="104" y="83.5" width="0.13" height="0.13"/><path d="M86.63,82.69a.56.56,0,0,1,.56-.56h.1l.08-.13h-.18a.69.69,0,0,0-.69.69v.69h.13Z"/><path d="M104.81,82.13a.57.57,0,0,1,.57.56v.69h.12v-.69a.69.69,0,0,0-.69-.69h-.52l.07.13Z"/><rect x="88.13" y="82" width="15.75" height="0.13"/><polygon points="87.88 82.13 87.88 82 87.52 82 87.37 82 87.29 82.13 87.88 82.13"/><rect x="88" y="82" width="0.13" height="0.13"/><rect x="87.88" y="82" width="0.13" height="0.13"/><polygon points="104.13 82.13 104.36 82.13 104.29 82 104.15 82 104.13 82 104.13 82.13"/><rect x="103.88" y="82" width="0.13" height="0.13"/><rect x="104" y="82" width="0.13" height="0.13"/><rect x="88.13" y="83.38" width="15.75" height="0.13"/><polygon points="87.88 83.38 86.63 83.38 86.5 83.38 86.5 83.5 87.88 83.5 87.88 83.38"/><rect x="88" y="83.38" width="0.13" height="0.13"/><rect x="87.88" y="83.38" width="0.13" height="0.13"/><polygon points="104.13 83.38 104.13 83.5 105.5 83.5 105.5 83.38 105.38 83.38 104.13 83.38"/><rect x="103.88" y="83.38" width="0.13" height="0.13"/><rect x="104" y="83.38" width="0.13" height="0.13"/><polygon points="71.79 89.2 74 88.51 74 88.25 71.54 89.02 71.54 91.75 71.79 91.75 71.79 89.2"/><polygon points="76.65 87.69 76.65 87.55 76.9 87.55 76.9 87.61 79.59 86.77 79.59 86.6 79.84 86.6 79.84 86.69 82.86 85.75 82.86 85.58 83.11 85.58 83.11 85.67 84.88 85.12 84.88 84.86 74.81 88 75.65 88 76.65 87.69"/><polygon points="86.38 84.39 85.13 84.78 85.13 85.04 86.38 84.65 86.38 84.39"/><polygon points="85 85.08 85 84.82 84.88 84.86 84.88 85.12 85 85.08"/><polygon points="85.13 84.78 85 84.82 85 85.08 85.13 85.04 85.13 84.78"/><rect x="71.54" y="91.75" width="0.25" height="0.05"/><polygon points="75.65 88 74.81 88 74 88.25 74 88.51 75.65 88"/><polygon points="86.5 84.48 86.46 84.36 86.38 84.39 86.38 84.65 86.5 84.61 86.5 84.48"/><polygon points="86.5 84.48 86.5 84.61 86.54 84.6 86.5 84.48"/><polygon points="83.11 89.36 83.11 85.67 82.86 85.75 82.86 89.44 83.11 89.36"/><polygon points="82.99 89.53 83.11 89.49 83.11 89.36 82.86 89.44 82.86 89.53 82.99 89.53"/><polygon points="83.11 89.49 82.99 89.53 83.11 89.53 83.11 89.49"/><polygon points="83.11 85.58 82.86 85.58 82.86 85.75 83.11 85.67 83.11 85.58"/><polygon points="79.84 90.32 79.84 86.69 79.59 86.77 79.59 90.39 79.84 90.32"/><polygon points="79.72 90.48 79.84 90.44 79.84 90.32 79.59 90.39 79.59 90.48 79.72 90.48"/><polygon points="79.84 90.44 79.72 90.48 79.84 90.48 79.84 90.44"/><polygon points="79.84 86.6 79.59 86.6 79.59 86.77 79.84 86.69 79.84 86.6"/><polygon points="76.9 91.18 76.9 87.61 76.65 87.69 76.65 91.25 76.9 91.18"/><polygon points="76.9 91.25 76.9 91.18 76.65 91.25 76.65 91.25 76.9 91.25"/><polygon points="76.9 87.55 76.65 87.55 76.65 87.69 76.9 87.61 76.9 87.55"/><polygon points="120.38 89.33 120.38 91.88 120.63 91.88 120.63 89.15 118.13 88.35 118.13 88.61 120.38 89.33"/><polygon points="109.06 85.7 109.06 85.58 109.31 85.58 109.31 85.78 109.88 85.96 109.88 85.7 107.13 84.82 107.13 85.08 109.06 85.7"/><polygon points="112.32 86.6 112.57 86.6 112.57 86.83 114.88 87.57 114.88 87.31 110.13 85.78 110.13 86.04 112.32 86.75 112.32 86.6"/><polygon points="110 86 110 85.74 109.88 85.7 109.88 85.96 110 86"/><polygon points="110.13 85.78 110 85.74 110 86 110.13 86.04 110.13 85.78"/><polygon points="115.13 87.65 115.26 87.69 115.26 87.55 115.51 87.55 115.51 87.77 117.88 88.53 117.88 88.27 115.13 87.39 115.13 87.65"/><polygon points="118 88.57 118.13 88.61 118.13 88.35 118 88.31 118 88.57"/><polygon points="115 87.34 114.88 87.31 114.88 87.57 115 87.61 115 87.34"/><polygon points="117.88 88.53 118 88.57 118 88.31 117.88 88.27 117.88 88.53"/><polygon points="115.13 87.65 115.13 87.39 115 87.34 115 87.61 115.13 87.65"/><polygon points="105.63 84.6 106.88 85 106.88 84.74 105.7 84.36 105.63 84.6"/><polygon points="107 85.04 107.13 85.08 107.13 84.82 107 84.78 107 85.04"/><polygon points="106.88 85 107 85.04 107 84.78 106.88 84.74 106.88 85"/><polygon points="115.51 87.55 115.26 87.55 115.26 87.69 115.51 87.77 115.51 87.55"/><polygon points="109.3 89.53 109.31 89.53 109.31 85.78 109.06 85.7 109.06 89.45 109.3 89.53"/><polygon points="109.3 89.53 109.06 89.45 109.06 89.53 109.3 89.53"/><polygon points="109.31 85.58 109.06 85.58 109.06 85.7 109.31 85.78 109.31 85.58"/><polygon points="112.57 86.83 112.32 86.75 112.32 90.45 112.44 90.48 112.57 90.48 112.57 86.83"/><polygon points="112.32 90.48 112.44 90.48 112.32 90.45 112.32 90.48"/><polygon points="112.57 86.6 112.32 86.6 112.32 86.75 112.57 86.83 112.57 86.6"/><polygon class="cls-14" points="117.13 92.88 121.88 92.88 121.88 92.13 118.13 92.13 117.13 92.13 117.13 92.88"/><rect x="118.13" y="91.88" width="2.25" height="0.13"/><polygon points="122 92 122 93 117.13 93 117.13 93.13 122.13 93.13 122.13 91.88 120.63 91.88 120.63 92 122 92"/><rect x="118" y="91.88" width="0.13" height="0.13"/><polygon points="117.13 91.91 117.13 92 118 92 118 91.88 117.88 91.88 117.02 91.88 117.13 91.91"/><rect x="117" y="93" width="0.13" height="0.13"/><polygon points="116.88 91.96 117 92 117.13 92 117.13 91.91 117.02 91.88 116.88 91.88 116.88 91.96"/><polygon points="116.88 92.13 116.88 93.13 117 93.13 117 93 117 92.13 116.88 92.13"/><polygon points="116.88 92 116.88 92.09 116.88 92.13 117 92.13 117 92 116.88 92"/><polygon points="116.88 92 117 92 116.88 91.96 116.88 92"/><rect x="120.38" y="91.88" width="0.25" height="0.13"/><polygon points="118.13 92.13 121.88 92.13 121.88 92.88 117.13 92.88 117.13 93 122 93 122 92 120.63 92 120.38 92 118.13 92 118.13 92.13"/><polygon points="117.13 92 117.13 92.13 118.13 92.13 118.13 92 118 92 117.13 92"/><polygon points="117.13 92.13 117 92.13 117 93 117.13 93 117.13 92.88 117.13 92.13"/><rect x="117" y="92" width="0.13" height="0.13"/></g></g></svg>