<?xml version="1.0" encoding="UTF-8"?>
<svg width="300px" height="300px" viewBox="0 0 300 300" version="1.1" xmlns="http://www.w3.org/2000/svg" xmlns:xlink="http://www.w3.org/1999/xlink">
    <title>Atril con cerradura</title>
    <defs>
        <path d="M9.14751746,25.9931641 L9.14751746,20.9931641 C9.14751746,16.9890996 12.393453,13.7431641 16.3975175,13.7431641 C20.4015819,13.7431641 23.6475175,16.9890996 23.6475175,20.9931641 L23.6475175,25.9931641 L29.6475175,25.9931641 L29.6475175,20.9931641 C29.6475175,13.6753911 23.7152904,7.74316406 16.3975175,7.74316406 C9.07974452,7.74316406 3.14751746,13.6753911 3.14751746,20.9931641 L3.14751746,25.9931641 L9.14751746,25.9931641 Z" id="path-1"></path>
        <filter x="-1.9%" y="-2.7%" width="103.8%" height="105.5%" filterUnits="objectBoundingBox" id="filter-2">
            <feOffset dx="-1" dy="0" in="SourceAlpha" result="shadowOffsetInner1"></feOffset>
            <feComposite in="shadowOffsetInner1" in2="SourceAlpha" operator="arithmetic" k2="-1" k3="1" result="shadowInnerInner1"></feComposite>
            <feColorMatrix values="0 0 0 0 0.561933877   0 0 0 0 0.561933877   0 0 0 0 0.561933877  0 0 0 0.5 0" type="matrix" in="shadowInnerInner1"></feColorMatrix>
        </filter>
        <rect id="path-3" x="16.3975175" y="54.6482059" width="1.5" height="8.76446533" rx="0.75"></rect>
        <filter x="-20.0%" y="-3.4%" width="140.0%" height="106.8%" filterUnits="objectBoundingBox" id="filter-4">
            <feOffset dx="-0.6" dy="0" in="SourceAlpha" result="shadowOffsetInner1"></feOffset>
            <feComposite in="shadowOffsetInner1" in2="SourceAlpha" operator="arithmetic" k2="-1" k3="1" result="shadowInnerInner1"></feComposite>
            <feColorMatrix values="0 0 0 0 0.780392157   0 0 0 0 0.780392157   0 0 0 0 0.780392157  0 0 0 1 0" type="matrix" in="shadowInnerInner1"></feColorMatrix>
        </filter>
        <rect id="path-5" x="-6.50146603e-13" y="0" width="32.7950349" height="26.4661685"></rect>
    </defs>
    <g id="Atril-con-cerradura" stroke="none" stroke-width="1" fill="none" fill-rule="evenodd">
        <rect fill="#F9FDFF" x="0" y="0" width="300" height="300"></rect>
        <polygon id="Path-65" fill="#EDF7FF" transform="translate(150.250000, 159.911307) scale(-1, 1) translate(-150.250000, -159.911307) " points="0.25 65.4990234 37.641222 91.106586 86.8057854 103.135059 124.75511 128.99707 188.986328 137.837827 265.25 163.716309 300.25 147.696289 300.25 250.524414 0.25 254.32359"></polygon>
        <rect id="Rectangle-Copy-10" fill="#FFEAC0" x="0" y="245" width="300" height="55"></rect>
        <rect id="Rectangle" fill="#FFB116" x="144.056152" y="184" width="10.3876953" height="11.5"></rect>
        <rect id="Rectangle-Copy-2" fill="#FFB116" x="142.5" y="195.5" width="13.5" height="67"></rect>
        <polygon id="Rectangle-Copy-4" fill="#E79C09" transform="translate(126.496431, 253.091883) rotate(45.000000) translate(-126.496431, -253.091883) " points="122.828492 224.651252 130.234206 232.056965 130.234206 274.056965 122.758656 281.532514"></polygon>
        <polygon id="Rectangle-Copy-5" fill="#E79C09" transform="translate(172.003569, 253.091883) scale(-1, 1) rotate(45.000000) translate(-172.003569, -253.091883) " points="168.33563 224.651252 175.741344 232.056965 175.741344 274.056965 168.265794 281.532514"></polygon>
        <g id="Group-11" transform="translate(223.000000, 7.000000)">
            <path d="M5.1277704,-2.07168062e-16 L64.8722296,2.07168062e-16 C66.6552671,-1.2037061e-16 67.3018396,0.185651222 67.9536914,0.534265408 C68.6055433,0.882879593 69.1171204,1.39445674 69.4657346,2.04630859 C69.8143488,2.69816044 70,3.34473292 70,5.1277704 L70,64.8722296 C70,66.6552671 69.8143488,67.3018396 69.4657346,67.9536914 C69.1171204,68.6055433 68.6055433,69.1171204 67.9536914,69.4657346 C67.3018396,69.8143488 66.6552671,70 64.8722296,70 L5.1277704,70 C3.34473292,70 2.69816044,69.8143488 2.04630859,69.4657346 C1.39445674,69.1171204 0.882879593,68.6055433 0.534265408,67.9536914 C0.185651222,67.3018396 8.02470732e-17,66.6552671 -1.38112041e-16,64.8722296 L1.38112041e-16,5.1277704 C-8.02470732e-17,3.34473292 0.185651222,2.69816044 0.534265408,2.04630859 C0.882879593,1.39445674 1.39445674,0.882879593 2.04630859,0.534265408 C2.69816044,0.185651222 3.34473292,1.2037061e-16 5.1277704,-2.07168062e-16 Z" id="Rectangle" fill="#46BD8D"></path>
            <g id="Group-5-Copy" transform="translate(17.000000, 16.000000)" fill="#FFFFFF">
                <path d="M17.7140791,7.10542736e-14 C27.4972948,7.10542736e-14 35.4281581,7.93086334 35.4281581,17.7140791 C35.4281581,27.4972948 27.4972948,35.4281581 17.7140791,35.4281581 C7.93086334,35.4281581 -5.68434189e-14,27.4972948 -5.68434189e-14,17.7140791 C-5.68434189e-14,7.93086334 7.93086334,7.10542736e-14 17.7140791,7.10542736e-14 Z M22.6147322,11.3056636 L15.5569628,20.2882792 L12.5394248,17.7736642 C11.7439056,17.1107315 10.5615968,17.2182141 9.89866416,18.0137333 C9.23573151,18.8092525 9.34321413,19.9915613 10.1387333,20.654494 L14.6387333,24.404494 C15.4504842,25.080953 16.6605969,24.9533679 17.3134259,24.1224945 L25.5634259,13.6224945 C26.2032011,12.8082352 26.0617538,11.6295073 25.2474945,10.9897322 C24.4332352,10.349957 23.2545073,10.4914043 22.6147322,11.3056636 Z" id="Combined-Shape"></path>
            </g>
        </g>
        <path d="M57.1471166,92.5 L241.852883,92.5 C242.957453,92.5 243.852883,93.3954305 243.852883,94.5 C243.852883,94.5472844 243.851207,94.5945539 243.847856,94.6417194 L237.632009,182.141719 C237.557636,183.188657 236.686613,184 235.637036,184 L63.3629636,184 C62.3133873,184 61.4423636,183.188657 61.367991,182.141719 L55.152144,94.6417194 C55.0738746,93.5399264 55.9036043,92.5832969 57.0053972,92.5050274 C57.0525627,92.5016769 57.0998322,92.5 57.1471166,92.5 Z" id="Rectangle" fill="#FFB116"></path>
        <path d="M149.25,231 C151.459139,231 153.25,232.790861 153.25,235 L153.25,273 L153.25,273 L145.25,273 L145.25,235 C145.25,232.790861 147.040861,231 149.25,231 Z" id="Rectangle" fill="#E79C09"></path>
        <rect id="Rectangle" fill="#FFB116" x="55" y="88.1162195" width="189" height="3.35619262" rx="1.67809631"></rect>
        <g id="Group-2" transform="translate(132.750000, 88.116219)">
            <rect id="Rectangle" fill="#F4A200" x="6.64751746" y="0" width="20" height="23"></rect>
            <g id="Path" fill-rule="nonzero">
                <use fill="#FFFFFF" xlink:href="#path-1"></use>
                <use fill="black" fill-opacity="1" filter="url(#filter-2)" xlink:href="#path-1"></use>
            </g>
            <polygon id="Polygon" fill="#FFDA26" points="17.1475175 50.2659732 20.9426423 52.4570895 20.9426423 56.8393222 17.1475175 59.0304385 13.3523926 56.8393222 13.3523926 52.4570895"></polygon>
            <g id="Group" transform="translate(8.147517, 59.915967)">
                <path d="M9,-6.21724894e-15 C11.5164494,-6.6795132e-15 13.5564347,2.03998531 13.5564347,4.55643473 C13.5564347,4.68213813 13.5512329,4.80778769 13.5408424,4.93306093 L12.7601807,14.3452106 L12.7601807,14.3452106 L5.45625,14.3452106 L4.53292984,4.92638597 C4.29108244,2.45929125 6.09500181,0.263259756 8.56209654,0.0214123517 C8.70762842,0.00714597304 8.85377053,-6.19038702e-15 9,-6.21724894e-15 Z" id="Rectangle" fill="#FFFFFF"></path>
                <path d="M16.1784668,14.3452106 C17.1725793,14.3452106 17.9784668,15.1510981 17.9784668,16.1452106 L17.9784668,36.9480957 C17.9784668,37.9422083 17.1725793,38.7480957 16.1784668,38.7480957 L1.8,38.7480957 C0.80588745,38.7480957 -1.0030093e-16,37.9422083 0,36.9480957 L0,16.1452106 C1.0030093e-16,15.1510981 0.80588745,14.3452106 1.8,14.3452106 L16.1784668,14.3452106 Z M4.79287919,28.0840332 C3.34004517,28.0840332 2.16229049,29.2617879 2.16229049,30.7146219 C2.16229049,32.1674559 3.34004517,33.3452106 4.79287919,33.3452106 C6.24571322,33.3452106 7.4234679,32.1674559 7.4234679,30.7146219 C7.4234679,29.2617879 6.24571322,28.0840332 4.79287919,28.0840332 Z M13.2071208,28.0840332 C11.7542868,28.0840332 10.5765321,29.2617879 10.5765321,30.7146219 C10.5765321,32.1674559 11.7542868,33.3452106 13.2071208,33.3452106 C14.6599548,33.3452106 15.8377095,32.1674559 15.8377095,30.7146219 C15.8377095,29.2617879 14.6599548,28.0840332 13.2071208,28.0840332 Z M4.79287919,18.0840332 C3.34004517,18.0840332 2.16229049,19.2617879 2.16229049,20.7146219 C2.16229049,22.1674559 3.34004517,23.3452106 4.79287919,23.3452106 C6.24571322,23.3452106 7.4234679,22.1674559 7.4234679,20.7146219 C7.4234679,19.2617879 6.24571322,18.0840332 4.79287919,18.0840332 Z M13.2071208,18.0840332 C11.7542868,18.0840332 10.5765321,19.2617879 10.5765321,20.7146219 C10.5765321,22.1674559 11.7542868,23.3452106 13.2071208,23.3452106 C14.6599548,23.3452106 15.8377095,22.1674559 15.8377095,20.7146219 C15.8377095,19.2617879 14.6599548,18.0840332 13.2071208,18.0840332 Z" id="Combined-Shape" fill="#FF6060"></path>
            </g>
            <g id="Rectangle">
                <use fill="#FFFFFF" fill-rule="evenodd" xlink:href="#path-3"></use>
                <use fill="black" fill-opacity="1" filter="url(#filter-4)" xlink:href="#path-3"></use>
            </g>
            <rect id="Rectangle" fill="#B97B00" x="14.6475175" y="5.02050781" width="4" height="12.9589844"></rect>
            <g id="Rectangle-+-Rectangle-Copy-3-Mask" transform="translate(0.000000, 25.993164)">
                <mask id="mask-6" fill="white">
                    <use xlink:href="#path-5"></use>
                </mask>
                <use id="Mask" fill="#FFE94D" xlink:href="#path-5"></use>
                <rect id="Rectangle" fill="#D6C024" mask="url(#mask-6)" x="0" y="0" width="3.14751746" height="26.4661685"></rect>
                <rect id="Rectangle-Copy-3" fill="#D6C024" mask="url(#mask-6)" x="29.6475175" y="0" width="3.14751746" height="26.4661685"></rect>
            </g>
            <path d="M26.1475175,85 L31.6475175,91 L31.6475175,121.5 L3.14751746,121.5 L3.14751746,91 L8.14751746,85 L26.1475175,85 Z M27.4048417,90.9159668 L6.93755652,90.9159668 L6.93755652,94.9159668 L27.4048417,94.9159668 L27.4048417,90.9159668 Z" id="Combined-Shape" fill="#FFFFFF"></path>
            <rect id="Rectangle" fill="#46BD8D" x="20.1475175" y="100.282959" width="7.55932617" height="7.55932617"></rect>
            <rect id="Rectangle-Copy" fill="#4980AC" x="6.64751746" y="109.929443" width="21.0593262" height="2.14086914"></rect>
            <rect id="Rectangle" fill="#B8B8B8" x="6.76885535" y="97" width="20.7573242" height="1.11914062"></rect>
            <rect id="Rectangle-Copy-7" fill="#D8D8D8" x="6.76885535" y="100.282959" width="11.5" height="1.11914062"></rect>
            <rect id="Rectangle-Copy-9" fill="#D8D8D8" x="6.76885535" y="104.576416" width="11.5" height="1.11914062"></rect>
            <rect id="Rectangle-Copy-12" fill="#D8D8D8" x="6.76885535" y="115.244629" width="20.7573242" height="1.11914062"></rect>
            <rect id="Rectangle-Copy-8" fill="#D8D8D8" x="6.76885535" y="102.429688" width="11.5" height="1.11914062"></rect>
            <rect id="Rectangle-Copy-13" fill="#D8D8D8" x="6.76885535" y="113.0979" width="20.7573242" height="1.11914062"></rect>
            <rect id="Rectangle-Copy-11" fill="#D8D8D8" x="6.76885535" y="106.723145" width="11.5" height="1.11914062"></rect>
            <rect id="Rectangle-Copy-14" fill="#D8D8D8" x="6.76885535" y="117.391357" width="20.7573242" height="1.11914062"></rect>
        </g>
    </g>
</svg>