<?xml version="1.0" encoding="UTF-8"?>
<svg width="300px" height="300px" viewBox="0 0 300 300" version="1.1" xmlns="http://www.w3.org/2000/svg" xmlns:xlink="http://www.w3.org/1999/xlink">
    <title>Distancia de Seguridad</title>
    <defs>
        <path d="M6.20112045,3.89567476 L10.4615385,21 L10.4615385,21 L-1.77635684e-15,21 L4.26041801,3.89567476 C4.39390479,3.35976458 4.93655825,3.03353596 5.47246844,3.16702274 C5.83143127,3.25643473 6.11170846,3.53671192 6.20112045,3.89567476 Z" id="path-1"></path>
        <path d="M6.20112045,3.89567476 L10.4615385,21 L10.4615385,21 L-1.77635684e-15,21 L4.26041801,3.89567476 C4.39390479,3.35976458 4.93655825,3.03353596 5.47246844,3.16702274 C5.83143127,3.25643473 6.11170846,3.53671192 6.20112045,3.89567476 Z" id="path-3"></path>
    </defs>
    <g id="Distancia-de-Seguridad" stroke="none" stroke-width="1" fill="none" fill-rule="evenodd">
        <rect fill="#F9FDFF" x="0" y="0" width="300" height="300"></rect>
        <rect id="Rectangle-Copy-10" fill="#FFEAC0" x="0" y="245" width="300" height="55"></rect>
        <polygon id="Path-65" fill="#EDF7FF" transform="translate(150.250000, 159.911307) scale(-1, 1) translate(-150.250000, -159.911307) " points="0.25 65.4990234 37.641222 91.106586 86.8057854 103.135059 124.75511 128.99707 188.986328 137.837827 265.25 163.716309 300.25 147.696289 300.25 250.524414 0.25 254.32359"></polygon>
        <line x1="87.5986328" y1="192.033907" x2="201.098633" y2="192.033907" id="Line" stroke="#00BAFF" stroke-linecap="square"></line>
        <g id="Group-84" transform="translate(196.300000, -10.700000)">
            <polygon id="Fill-1" fill="#2D2F35" points="67.5876654 247.040035 171.113435 247.040035 171.113435 223.19534 67.5876654 223.19534"></polygon>
            <polygon id="Stroke-2" fill="#424851" fill-rule="nonzero" points="125.520265 218.407047 123.696743 219.355537 96.9275564 167.890344 98.7510781 166.941855"></polygon>
            <polygon id="Fill-4" fill="#69717E" points="77.3386377 247.040035 88.9397444 247.040035 88.9397444 19.5499308 77.3386377 19.5499308"></polygon>
            <path d="M67.5876654,247.040035 L98.6898281,247.040035 L98.6898281,21.7715139 L67.5876654,21.7715139 L67.5876654,247.040035 Z M70.2535651,244.374135 L96.0239284,244.374135 L96.0239284,24.4374135 L70.2535651,24.4374135 L70.2535651,244.374135 Z" id="Fill-5" fill="#C4C7CC"></path>
            <polygon id="Fill-6" fill="#343941" points="67.5876654 21.7715139 98.6898281 21.7715139 98.6898281 5.77611593 67.5876654 5.77611593"></polygon>
            <polygon id="Fill-7" fill="#FFE94D" points="55.3958842 248.817124 13.6301229 248.817124 7.57408752 213.271795 55.3958842 213.271795"></polygon>
            <polygon id="Fill-8" fill="#25272D" points="61.9777239 250.798065 235.590885 250.798065 235.590885 248.225472 61.9777239 248.225472"></polygon>
            <g id="Group-83" transform="translate(0.000000, 0.444317)">
                <path d="M53.6187066,198.16503 L9.35144282,198.16503 C8.37039175,198.16503 7.57417638,198.961246 7.57417638,199.942297 L7.57417638,212.827478 L55.3959731,212.827478 L55.3959731,199.942297 C55.3959731,198.961246 54.5997577,198.16503 53.6187066,198.16503 M53.6187066,199.053663 C54.1083436,199.053663 54.5073399,199.45266 54.5073399,199.942297 L54.5073399,211.938845 L8.4628096,211.938845 L8.4628096,199.942297 C8.4628096,199.45266 8.86180592,199.053663 9.35144282,199.053663 L53.6187066,199.053663" id="Fill-9" fill="#FFB116"></path>
                <polygon id="Stroke-11" fill="#C4C7CC" fill-rule="nonzero" points="69.3651984 50.2219041 69.3651984 47.7643041 96.9128282 47.7643041 96.9128282 50.2219041"></polygon>
                <polygon id="Stroke-13" fill="#C4C7CC" fill-rule="nonzero" points="69.2541193 80.0315498 69.2541193 77.5739498 96.9128282 77.5739498 96.9128282 80.0315498"></polygon>
                <polygon id="Stroke-13-Copy" fill="#C4C7CC" fill-rule="nonzero" points="69.2541193 109.64003 69.2541193 107.18243 96.9128282 107.18243 96.9128282 109.64003"></polygon>
                <polygon id="Stroke-17" fill="#C4C7CC" fill-rule="nonzero" points="69.2541193 139.449587 69.2541193 137.39414 96.9128282 137.39414 96.9128282 139.449587"></polygon>
                <polygon id="Stroke-19" fill="#C4C7CC" fill-rule="nonzero" points="69.2541193 169.259144 69.2541193 167.203697 96.9128282 167.203697 96.9128282 169.259144"></polygon>
                <polygon id="Stroke-21" fill="#C4C7CC" fill-rule="nonzero" points="68.9208818 199.068701 68.9208818 197.013253 96.9128282 197.013253 96.9128282 199.068701"></polygon>
                <polygon id="Stroke-23" fill="#424851" fill-rule="nonzero" points="68.9208818 228.878257 68.9208818 226.82281 97.3571448 226.82281 97.3571448 228.878257"></polygon>
                <polygon id="Fill-45" fill="#2D2F35" points="213.768097 260.096901 21.8233212 260.096901 4.93929002 250.353926 228.430545 250.353926"></polygon>
                <path d="M12.7545526,227.526449 L10.9755089,216.090628 C10.8919774,215.551228 11.3087464,215.065146 11.8534785,215.065146 L24.7893123,215.065146 C25.2807265,215.065146 25.6779455,215.463253 25.6779455,215.953779 L25.6779455,227.3896 C25.6779455,227.880125 25.2807265,228.278233 24.7893123,228.278233 L13.6325222,228.278233 C13.194426,228.278233 12.8220887,227.959214 12.7545526,227.526449" id="Fill-47" fill="#FFFFFF"></path>
                <path d="M52.0635096,228.278411 L30.2031325,228.278411 C29.7126069,228.278411 29.3144992,227.880303 29.3144992,227.389777 L29.3144992,215.953957 C29.3144992,215.463431 29.7126069,215.065323 30.2031325,215.065323 L52.0635096,215.065323 C52.5540352,215.065323 52.9521429,215.463431 52.9521429,215.953957 L52.9521429,227.389777 C52.9521429,227.880303 52.5540352,228.278411 52.0635096,228.278411" id="Fill-49" fill="#FFFFFF"></path>
                <path d="M67.2399432,280.80792 C62.0414389,280.80792 57.813322,276.578914 57.813322,271.381298 L57.813322,269.641355 C57.813322,266.402286 59.4430754,263.429808 62.172068,261.689865 C65.6741715,259.456729 70.9073325,256.795273 75.9458829,256.795273 C76.2258023,256.795273 76.5048332,256.802382 76.7820867,256.820154 C78.2465543,256.907241 84.4047825,257.012988 105.428067,257.012988 C130.741673,257.012988 164.490185,256.864586 174.230494,256.819266 C175.066698,256.819266 175.859359,256.919681 176.629804,257.119624 L196.480981,262.254147 C200.642451,263.329393 203.54917,267.08298 203.54917,271.381298 C203.54917,276.578914 199.320165,280.80792 194.12166,280.80792 L67.2399432,280.80792 Z" id="Fill-51" fill="#4B4E5A"></path>
                <path d="M60.4788662,269.640644 C60.4788662,267.32842 61.6563053,265.180594 63.6059665,263.938284 C66.8148211,261.891762 71.980446,259.201869 76.6226659,259.4809 C83.6019912,259.899446 164.918151,259.528886 174.24258,259.485343 C174.824634,259.482677 175.397803,259.554657 175.961196,259.700392 L195.814151,264.834915 C198.798181,265.606249 200.882915,268.298808 200.882915,271.380588 C200.882915,275.115513 197.85623,278.142198 194.121305,278.142198 L67.2404764,278.142198 C63.505551,278.142198 60.4788662,275.115513 60.4788662,271.380588 L60.4788662,269.640644 Z" id="Fill-53" fill="#6A707A"></path>
                <polygon id="Stroke-63" fill="#697485" fill-rule="nonzero" points="24.7158571 231.03975 25.7435807 231.03975 25.7435807 246.596163 24.7158571 246.596163"></polygon>
                <path d="M101.465385,246.595541 L95.5239834,246.595541 C94.6024707,246.595541 93.8560188,245.849089 93.8560188,244.928465 L93.8560188,200.573226 C93.8560188,199.652602 94.6024707,198.905262 95.5239834,198.905262 L101.465385,198.905262 C102.386009,198.905262 103.13335,199.652602 103.13335,200.573226 L103.13335,244.928465 C103.13335,245.849089 102.386009,246.595541 101.465385,246.595541" id="Fill-75" fill="#FFE94D"></path>
                <path d="M232.925607,230.600143 L2.66563307,230.600143 C1.19405646,230.600143 -0.000266589966,231.793577 -0.000266589966,233.266042 L-0.000266589966,247.829852 L235.591507,247.829852 L235.591507,233.266042 C235.591507,231.793577 234.398072,230.600143 232.925607,230.600143 M232.925607,232.377409 C233.415244,232.377409 233.81424,232.776405 233.81424,233.266042 L233.81424,246.052586 L1.77699985,246.052586 L1.77699985,233.266042 C1.77699985,232.776405 2.17599616,232.377409 2.66563307,232.377409 L232.925607,232.377409" id="Fill-76" fill="#697485"></path>
                <polygon id="Fill-77" fill="#4F5A6B" points="0 251.483201 61.9786125 251.483201 61.9786125 246.003 0 246.003"></polygon>
            </g>
        </g>
        <polygon id="Rectangle" fill="#FFD98E" points="15.4719101 246.503464 114.52809 246.503464 123 264.003464 7 264.003464"></polygon>
        <g id="Group-2" transform="translate(44.500000, 192.000000)">
            <rect id="Rectangle" fill="#CA8704" x="39.5" y="0.954855834" width="1.29432887" height="1" rx="0.25"></rect>
            <rect id="Rectangle" fill="#FFFFFF" x="0.825" y="16.7438071" width="1" height="5.56877737"></rect>
            <rect id="Rectangle-Copy-15" fill="#FFFFFF" x="0.372497559" y="25.5" width="1" height="9.09570312"></rect>
            <rect id="Rectangle" fill="#FF6060" x="0.825" y="22.3125845" width="1" height="5.9718042"></rect>
            <rect id="Rectangle" fill="#D6C024" x="0" y="7.79794922" width="3" height="7.24218494"></rect>
            <rect id="Rectangle" stroke="#979797" fill="#D8D8D8" x="1.5" y="1.88635254" width="1" height="1"></rect>
            <rect id="Rectangle" fill="#FFFFFF" x="0.622497559" y="2.32294922" width="1.75500488" height="5.475"></rect>
            <g id="Group" transform="translate(7.669262, 28.765134)">
                <rect id="Rectangle" fill="#FFB116" x="12.3892488" y="0" width="3.11630859" height="3.45"></rect>
                <rect id="Rectangle-Copy-2" fill="#FFB116" x="11.9224031" y="3.45" width="4.05" height="20.1"></rect>
                <polygon id="Rectangle-Copy-4" fill="#E79C09" transform="translate(7.121332, 20.727565) rotate(45.000000) translate(-7.121332, -20.727565) " points="6.02095069 12.1953755 8.24266475 14.4170896 8.24266475 27.0170896 6 29.2597543"></polygon>
                <polygon id="Rectangle-Copy-5" fill="#E79C09" transform="translate(20.773474, 20.727565) scale(-1, 1) rotate(45.000000) translate(-20.773474, -20.727565) " points="19.6730921 12.1953755 21.8948062 14.4170896 21.8948062 27.0170896 19.6521414 29.2597543"></polygon>
                <path d="M13.9474031,14.1 C14.6101448,14.1 15.1474031,14.6372583 15.1474031,15.3 L15.1474031,26.7 L15.1474031,26.7 L12.7474031,26.7 L12.7474031,15.3 C12.7474031,14.6372583 13.2846614,14.1 13.9474031,14.1 Z" id="Rectangle" fill="#E79C09"></path>
            </g>
            <path d="M3.14533464,1.31633295 L40.1954434,1.38515821 C40.5268137,1.38577377 40.7949434,1.65490147 40.7943278,1.98627174 C40.7943022,2.00008539 40.7937995,2.01389403 40.7928206,2.02767298 L38.9280638,28.2777115 C38.9057181,28.5922694 38.6436812,28.8358465 38.3283312,28.8351944 L5.00773031,28.7662875 C4.69333565,28.7656374 4.43275728,28.5224097 4.41047932,28.2088046 L2.54572829,1.95884772 C2.52224745,1.62830984 2.77116637,1.34132097 3.10170425,1.31784013 C3.11622462,1.31680863 3.13077771,1.3163059 3.14533464,1.31633295 Z" id="Rectangle" fill="#FFB116"></path>
            <rect id="Rectangle" fill="#FFB116" x="2.5" y="1.14352972e-14" width="38.4700928" height="1.00685779" rx="0.503428894"></rect>
            <rect id="Rectangle" fill="#FFDA26" x="1.28625488" y="15.0401342" width="1" height="1.95986585"></rect>
        </g>
        <g id="Group-11-Copy" transform="translate(71.098633, 225.645508)">
            <g id="Group-10" transform="translate(2.500000, 0.000000)">
                <g id="Rectangle-+-Rectangle-Copy-8-Mask" transform="translate(0.365385, 0.000000)">
                    <mask id="mask-2" fill="white">
                        <use xlink:href="#path-1"></use>
                    </mask>
                    <use id="Mask" fill="#FF6816" xlink:href="#path-1"></use>
                    <rect id="Rectangle" fill="#FFFFFF" mask="url(#mask-2)" x="1.30769231" y="5.99072459" width="7.84615385" height="2.00927541"></rect>
                    <rect id="Rectangle-Copy-8" fill="#FFFFFF" mask="url(#mask-2)" x="1.30769231" y="8.95822459" width="7.84615385" height="2.85012502"></rect>
                </g>
            </g>
            <rect id="Rectangle" fill="#FF6816" x="8.52651283e-13" y="21" width="16.1923077" height="1"></rect>
        </g>
        <rect id="Rectangle" stroke="#979797" fill="#D8D8D8" x="78.0996791" y="230.499721" width="2.24895368" height="1"></rect>
        <g id="Group-11-Copy-2" transform="translate(98.001953, 225.645508)">
            <g id="Group-10" transform="translate(2.500000, 0.000000)">
                <g id="Rectangle-+-Rectangle-Copy-8-Mask" transform="translate(0.365385, 0.000000)">
                    <mask id="mask-4" fill="white">
                        <use xlink:href="#path-3"></use>
                    </mask>
                    <use id="Mask" fill="#FF6816" xlink:href="#path-3"></use>
                    <rect id="Rectangle" fill="#FFFFFF" mask="url(#mask-4)" x="1.30769231" y="5.99072459" width="7.84615385" height="2.00927541"></rect>
                    <rect id="Rectangle-Copy-8" fill="#FFFFFF" mask="url(#mask-4)" x="1.30769231" y="8.95822459" width="7.84615385" height="2.85012502"></rect>
                </g>
            </g>
            <rect id="Rectangle" fill="#FF6816" x="8.52651283e-13" y="21" width="16.1923077" height="1"></rect>
        </g>
        <rect id="Rectangle-Copy" stroke="#979797" fill="#D8D8D8" x="104.884801" y="230.499721" width="2.24895368" height="1"></rect>
        <g id="Group-11" transform="translate(223.000000, 7.000000)">
            <path d="M5.1277704,-2.07168062e-16 L64.8722296,2.07168062e-16 C66.6552671,-1.2037061e-16 67.3018396,0.185651222 67.9536914,0.534265408 C68.6055433,0.882879593 69.1171204,1.39445674 69.4657346,2.04630859 C69.8143488,2.69816044 70,3.34473292 70,5.1277704 L70,64.8722296 C70,66.6552671 69.8143488,67.3018396 69.4657346,67.9536914 C69.1171204,68.6055433 68.6055433,69.1171204 67.9536914,69.4657346 C67.3018396,69.8143488 66.6552671,70 64.8722296,70 L5.1277704,70 C3.34473292,70 2.69816044,69.8143488 2.04630859,69.4657346 C1.39445674,69.1171204 0.882879593,68.6055433 0.534265408,67.9536914 C0.185651222,67.3018396 8.02470732e-17,66.6552671 -1.38112041e-16,64.8722296 L1.38112041e-16,5.1277704 C-8.02470732e-17,3.34473292 0.185651222,2.69816044 0.534265408,2.04630859 C0.882879593,1.39445674 1.39445674,0.882879593 2.04630859,0.534265408 C2.69816044,0.185651222 3.34473292,1.2037061e-16 5.1277704,-2.07168062e-16 Z" id="Rectangle" fill="#46BD8D"></path>
            <g id="Group-5-Copy" transform="translate(17.000000, 16.000000)" fill="#FFFFFF">
                <path d="M17.7140791,7.10542736e-14 C27.4972948,7.10542736e-14 35.4281581,7.93086334 35.4281581,17.7140791 C35.4281581,27.4972948 27.4972948,35.4281581 17.7140791,35.4281581 C7.93086334,35.4281581 -5.68434189e-14,27.4972948 -5.68434189e-14,17.7140791 C-5.68434189e-14,7.93086334 7.93086334,7.10542736e-14 17.7140791,7.10542736e-14 Z M22.6147322,11.3056636 L15.5569628,20.2882792 L12.5394248,17.7736642 C11.7439056,17.1107315 10.5615968,17.2182141 9.89866416,18.0137333 C9.23573151,18.8092525 9.34321413,19.9915613 10.1387333,20.654494 L14.6387333,24.404494 C15.4504842,25.080953 16.6605969,24.9533679 17.3134259,24.1224945 L25.5634259,13.6224945 C26.2032011,12.8082352 26.0617538,11.6295073 25.2474945,10.9897322 C24.4332352,10.349957 23.2545073,10.4914043 22.6147322,11.3056636 Z" id="Combined-Shape"></path>
            </g>
        </g>
        <rect id="Rectangle" fill="#FFFFFF" x="80.8486328" y="229.681465" width="23.5361677" height="1.63651142"></rect>
        <line x1="87.5986328" y1="188.853107" x2="87.5986328" y2="195.214708" id="Line-38" stroke="#00BAFF" stroke-linecap="square"></line>
        <line x1="201.098633" y1="188.853107" x2="201.098633" y2="195.214708" id="Line-38-Copy" stroke="#00BAFF" stroke-linecap="square"></line>
    </g>
</svg>