<?xml version="1.0" encoding="UTF-8"?>
<svg width="300px" height="300px" viewBox="0 0 300 300" version="1.1" xmlns="http://www.w3.org/2000/svg" xmlns:xlink="http://www.w3.org/1999/xlink">
    <title>identificación de mangueras</title>
    <defs>
        <rect id="path-1" x="133" y="0" width="15" height="139.25"></rect>
        <filter x="-10.0%" y="-1.1%" width="120.0%" height="102.2%" filterUnits="objectBoundingBox" id="filter-2">
            <feOffset dx="-3" dy="-2" in="SourceAlpha" result="shadowOffsetInner1"></feOffset>
            <feComposite in="shadowOffsetInner1" in2="SourceAlpha" operator="arithmetic" k2="-1" k3="1" result="shadowInnerInner1"></feComposite>
            <feColorMatrix values="0 0 0 0 0.644429788   0 0 0 0 0.790388682   0 0 0 0 0.907155797  0 0 0 1 0" type="matrix" in="shadowInnerInner1"></feColorMatrix>
        </filter>
        <rect id="path-3" x="188.92941" y="0" width="15" height="139.25"></rect>
        <filter x="-10.0%" y="-1.1%" width="120.0%" height="102.2%" filterUnits="objectBoundingBox" id="filter-4">
            <feOffset dx="-3" dy="-2" in="SourceAlpha" result="shadowOffsetInner1"></feOffset>
            <feComposite in="shadowOffsetInner1" in2="SourceAlpha" operator="arithmetic" k2="-1" k3="1" result="shadowInnerInner1"></feComposite>
            <feColorMatrix values="0 0 0 0 0.644429788   0 0 0 0 0.790388682   0 0 0 0 0.907155797  0 0 0 1 0" type="matrix" in="shadowInnerInner1"></feColorMatrix>
        </filter>
        <rect id="path-5" x="244.92941" y="0" width="15" height="139.25"></rect>
        <filter x="-10.0%" y="-1.1%" width="120.0%" height="102.2%" filterUnits="objectBoundingBox" id="filter-6">
            <feOffset dx="-3" dy="-2" in="SourceAlpha" result="shadowOffsetInner1"></feOffset>
            <feComposite in="shadowOffsetInner1" in2="SourceAlpha" operator="arithmetic" k2="-1" k3="1" result="shadowInnerInner1"></feComposite>
            <feColorMatrix values="0 0 0 0 0.644429788   0 0 0 0 0.790388682   0 0 0 0 0.907155797  0 0 0 1 0" type="matrix" in="shadowInnerInner1"></feColorMatrix>
        </filter>
        <path d="M35.0088009,3.53047312 C39.0684283,3.69248856 42.9842199,7.65657505 45.8955196,10.1505903 C47.5501204,11.5680327 48.6270553,13.4431648 49.9746212,15.3976606 C56.7224841,25.1846925 57,41.1580577 57,51.8006481 C57,62.627905 57,70.627905 57,75.8006481 C57,88.5383617 57,102.371695 57,117.300648 L35.0088009,123.808738 C26.9748381,126.309845 16.4719045,124.973815 3.5,119.800648 C3.5,104.471776 3.5,90.6384423 3.5,78.3006481 C3.5,72.2024148 2.66960029,57.5703643 1.00880087,34.4044966 C0.812442538,25.9111702 2.44067727,15.8591488 8.5,10.3006481 C14.206477,5.06582935 21.811003,0.176944339 30.5024316,0.00675829701 C31.2013174,-0.00692651964 31.9005011,0 32.5988888,0.0280444933 L35.0088009,3.53047312 Z" id="path-7"></path>
    </defs>
    <g id="identificación-de-mangueras" stroke="none" stroke-width="1" fill="none" fill-rule="evenodd">
        <rect fill="#F9FDFF" x="0" y="0" width="300" height="300"></rect>
        <rect id="Rectangle" fill="#E8F5FF" x="0" y="88.7690845" width="300" height="5.05305996"></rect>
        <rect id="Rectangle-Copy-8" fill="#E8F5FF" x="0" y="254.5" width="300" height="5.05305996"></rect>
        <g id="Rectangle">
            <use fill="#BCE0FE" fill-rule="evenodd" xlink:href="#path-1"></use>
            <use fill="black" fill-opacity="1" filter="url(#filter-2)" xlink:href="#path-1"></use>
        </g>
        <g id="Rectangle-Copy-14">
            <use fill="#BCE0FE" fill-rule="evenodd" xlink:href="#path-3"></use>
            <use fill="black" fill-opacity="1" filter="url(#filter-4)" xlink:href="#path-3"></use>
        </g>
        <g id="Rectangle-Copy-15">
            <use fill="#BCE0FE" fill-rule="evenodd" xlink:href="#path-5"></use>
            <use fill="black" fill-opacity="1" filter="url(#filter-6)" xlink:href="#path-5"></use>
        </g>
        <g id="Group-6" transform="translate(18.000000, 42.570590)">
            <g id="Group-2" transform="translate(0.000000, 52.859235)">
                <polygon id="Rectangle-Copy" fill="#272A30" points="21.9062618 128.8 56.8457149 124.129124 47.5315548 230.860547 25.8809688 230.860547 25.8809688 171.8"></polygon>
                <polygon id="Rectangle" fill="#434750" points="13.3835079 128.8 48.1873825 124.129124 39.0088009 230.860547 17.3582149 230.860547 17.3582149 171.8"></polygon>
                <g id="Path-8" transform="translate(0.000000, 11.269527)">
                    <mask id="mask-8" fill="white">
                        <use xlink:href="#path-7"></use>
                    </mask>
                    <use id="Mask" fill="#FFB116" xlink:href="#path-7"></use>
                    <path d="M37.5,6.3006481 L39.3759884,7.73047312 C48.3520806,15.8405951 53.4894959,27.3616558 53.5241703,39.4588914 L53.6538038,84.6855512 L53.6538038,84.6855512 L53.6538038,121.029301" id="Path-9" stroke="#FFFFFF" stroke-width="2" mask="url(#mask-8)"></path>
                    <path d="M20.0088009,2.53047312 L21.1197136,3.64138583 C23.6098543,6.1315266 26.98721,7.53047312 30.5088009,7.53047312 L31.7661602,7.53047312 C34.4826774,7.53047312 37.0879331,6.45134086 39.0088009,4.53047312 L39.0088009,4.53047312 L39.0088009,4.53047312" stroke="#FFFFFF" stroke-width="2" mask="url(#mask-8)"></path>
                </g>
                <rect id="Rectangle" fill="#937758" transform="translate(74.250499, 106.753423) rotate(40.000000) translate(-74.250499, -106.753423) " x="68.000499" y="84.2534225" width="12.5" height="45"></rect>
                <path d="M56.8457149,101.855331 L52.6166992,110.541855 L50.0878906,118.031601 L9.98633993,93.2772552 C7.83813313,90.1956729 6.41579427,86.7933593 5.40919149,84.315625 C4.19664068,81.3309534 3.62598781,79.2818889 3.62598781,75.3981559 C3.62598781,68.0755759 3.62598781,62.1834823 3.62598781,57.721875 C3.62598781,53.6240017 3.62598781,47.2724392 3.62598781,38.6671875 C3.62598781,32.0397705 8.99857137,26.6671875 15.6259878,26.6671875 C22.2534054,26.6671875 27.6259878,32.0397705 27.6259878,38.6671875 C27.0285958,52.67965 26.5943141,63.2869091 26.3231426,70.4889648 C26.3047928,70.9763178 26.3047928,71.9031719 26.3231426,73.2695269 L26.3231426,77.6574219 L29.1435665,83.1237305 L56.8457149,101.855331 Z" id="Path" fill="#4980AC"></path>
                <g id="Group" transform="translate(20.158215, 0.000000)" fill="#F5D087">
                    <path d="M0.850585938,0.8 L19.74375,0.8 C18.4761146,10.0555561 17.8948646,15.0211841 18,15.696884 C18.0887378,16.2671977 16.3499117,16.960331 12.7835215,17.7762837 L12.7835209,17.7762812 C11.3719058,18.099244 9.90320315,18.0768175 8.50210688,17.7109057 C6.23017918,17.1175666 4.7938447,16.6472647 4.19310343,16.3 C3.42326385,15.8549862 2.30909136,15.0216529 0.850585938,13.8 C1.26854238,12.1340997 1.52850332,10.4031426 1.63046875,8.60712891 C1.73243418,6.81111517 1.47247325,4.20873887 0.850585938,0.8 Z" id="Rectangle"></path>
                </g>
                <path d="M53.5290548,108.156445 L62.6515772,103.89766 L65.6327694,110.66559 C67.1453774,114.099602 65.5878041,118.109643 62.1538041,119.622279 C61.7487045,119.800721 61.3271361,119.939146 60.8951093,120.035582 C60.8951093,120.035582 60.8951093,120.035582 60.8951093,120.035582 C60.8951093,120.035582 60.8951093,120.035582 60.8951093,120.035582 C56.3877991,121.041689 51.8499111,118.475322 50.3893398,114.094131 L49.1319112,110.322277 L49.1319112,110.322277 L53.5290548,108.156445 Z" id="Rectangle" fill="#FDDFA5" transform="translate(58.065284, 112.055339) rotate(-44.000000) translate(-58.065284, -112.055339) "></path>
            </g>
            <g id="Group-3" transform="translate(38.570590, 38.000000) rotate(10.000000) translate(-38.570590, -38.000000) translate(6.570590, 6.000000)">
                <path d="M29.6788584,1.77635684e-15 C37.2117071,1.77635684e-15 44.0314217,3.05329022 48.9679241,7.98979263 C49.8576757,8.87954426 48.0394563,11.7947427 48.8,12.8 C52.2590897,17.3720913 56.9577167,21.1037248 56.9577167,27.2788584 L56.9577167,27.2788584 L2.4,27.2788584 C2.4,12.2131609 14.6131609,1.77635684e-15 29.6788584,1.77635684e-15 Z" id="Combined-Shape" fill="#4980AC"></path>
                <path d="M2.61682082,27.2788584 L56.8,27.2788584 L56.8,27.2788584 L61.0988042,27.2788584 C62.5440344,27.2788584 63.715625,28.4504489 63.715625,29.8956792 C63.715625,31.3409094 62.5440344,32.5125 61.0988042,32.5125 L2.61682082,32.5125 C1.17159059,32.5125 3.60333339e-13,31.3409094 3.62376795e-13,29.8956792 C3.62199806e-13,28.4504489 1.17159059,27.2788584 2.61682082,27.2788584 Z" id="Rectangle" fill="#5E9CCE"></path>
                <path d="M16.8,32.5125 L50.6875,32.5125 L50.0092773,38.2936523 C50.0092773,44.2858958 50.0092773,52.8788584 45.0205078,58.5158203 C44.87465,58.6806294 44.7329364,58.8481162 44.5953669,59.0182807 C42.249079,61.9204835 38.5913245,63.435108 34.8801671,63.0412064 L28.8,62.3958586 L28.8,62.3958586 C19.7484705,59.9407804 16.8,56.5855892 16.8,50.4 L16.8,32.5125 Z" id="Rectangle" fill="#FDDFA5"></path>
                <rect id="Rectangle" fill="#8C6D2F" x="16.8" y="32.5125" width="4.69023438" height="9.665625"></rect>
                <path d="M5.6,32.5125 L16.8,32.5125 L16.8,55.2 L14.6503745,55.076726 C9.57029496,54.7854001 5.6,50.5808987 5.6,45.4924727 L5.6,32.5125 L5.6,32.5125 Z" id="Rectangle" fill="#8C6D2F"></path>
                <rect id="Rectangle" fill="#FDDFA5" x="12.4304687" y="36.578125" width="6.4" height="11.2" rx="3.2"></rect>
            </g>
        </g>
        <rect id="Rectangle" fill="#CCE8FF" x="120.42941" y="139" width="152" height="16.5"></rect>
        <rect id="Rectangle-Copy-2" fill="#B0D4F1" x="104.5" y="136" width="16.5" height="22.5"></rect>
        <rect id="Rectangle-Copy-3" fill="#B0D4F1" x="271.92941" y="134" width="16.5" height="26.5"></rect>
        <circle id="Oval" fill="#586874" cx="140.5" cy="147.25" r="5.5"></circle>
        <circle id="Oval-Copy-2" fill="#586874" cx="196.42941" cy="147.25" r="5.5"></circle>
        <circle id="Oval-Copy-3" fill="#586874" cx="252.42941" cy="147.25" r="5.5"></circle>
        <g id="Group-4" transform="translate(165.500000, 127.000000)">
            <rect id="Rectangle" fill="#CCE8FF" x="0" y="0" width="5" height="12"></rect>
            <circle id="Oval" fill="#4980AC" cx="2.5" cy="3.0390625" r="1.0390625"></circle>
        </g>
        <g id="Group-5" transform="translate(221.429410, 127.000000)">
            <rect id="Rectangle-Copy-4" fill="#CCE8FF" x="0" y="0" width="5" height="12"></rect>
            <circle id="Oval-Copy-4" fill="#4980AC" cx="2.5" cy="3.0390625" r="1.0390625"></circle>
        </g>
        <rect id="Rectangle" fill="#E62D36" x="140.5" y="140.25" width="15" height="3" rx="1.5"></rect>
        <rect id="Rectangle-Copy-5" fill="#FFB116" x="196.42941" y="140.25" width="15" height="3" rx="1.5"></rect>
        <rect id="Rectangle-Copy-7" fill="#4980AC" x="252.42941" y="140.25" width="15" height="3" rx="1.5"></rect>
        <line x1="140.5" y1="150" x2="140.5" y2="300" id="Line-28" stroke="#FF6060" stroke-width="11" stroke-linecap="round"></line>
        <line x1="196.42941" y1="150" x2="196.42941" y2="300" id="Line-28-Copy" stroke="#FFE94D" stroke-width="11" stroke-linecap="round"></line>
        <line x1="252.42941" y1="150" x2="252.42941" y2="300" id="Line-28-Copy-2" stroke="#4980AC" stroke-width="11" stroke-linecap="round"></line>
        <rect id="Rectangle" fill="#F3F9FF" x="104.5" y="139.25" width="16.5" height="4"></rect>
        <rect id="Rectangle-Copy-11" fill="#F3F9FF" x="271.92941" y="139.25" width="16.5" height="4"></rect>
        <rect id="Rectangle-Copy-9" fill="#F3F9FF" x="104.5" y="145.171875" width="16.5" height="2.078125"></rect>
        <rect id="Rectangle-Copy-12" fill="#F3F9FF" x="271.92941" y="145.171875" width="16.5" height="2.078125"></rect>
        <rect id="Rectangle-Copy-10" fill="#F3F9FF" x="104.5" y="154.460938" width="16.5" height="2.078125"></rect>
        <rect id="Rectangle-Copy-13" fill="#F3F9FF" x="271.92941" y="154.460938" width="16.5" height="2.078125"></rect>
        <line x1="133" y1="36.97347" x2="148" y2="36.97347" id="Line-29" stroke="#A4CAE7"></line>
        <line x1="188.92941" y1="36.97347" x2="203.92941" y2="36.97347" id="Line-29-Copy-2" stroke="#A4CAE7"></line>
        <line x1="244.92941" y1="36.97347" x2="259.92941" y2="36.97347" id="Line-29-Copy-4" stroke="#A4CAE7"></line>
        <line x1="133" y1="91.2956145" x2="148" y2="91.2956145" id="Line-29-Copy" stroke="#A4CAE7"></line>
        <line x1="188.92941" y1="91.2956145" x2="203.92941" y2="91.2956145" id="Line-29-Copy-3" stroke="#A4CAE7"></line>
        <line x1="244.92941" y1="91.2956145" x2="259.92941" y2="91.2956145" id="Line-29-Copy-5" stroke="#A4CAE7"></line>
        <g id="Group-5" transform="translate(223.000000, 7.000000)">
            <path d="M5.1277704,-2.07168062e-16 L64.8722296,2.07168062e-16 C66.6552671,-1.2037061e-16 67.3018396,0.185651222 67.9536914,0.534265408 C68.6055433,0.882879593 69.1171204,1.39445674 69.4657346,2.04630859 C69.8143488,2.69816044 70,3.34473292 70,5.1277704 L70,64.8722296 C70,66.6552671 69.8143488,67.3018396 69.4657346,67.9536914 C69.1171204,68.6055433 68.6055433,69.1171204 67.9536914,69.4657346 C67.3018396,69.8143488 66.6552671,70 64.8722296,70 L5.1277704,70 C3.34473292,70 2.69816044,69.8143488 2.04630859,69.4657346 C1.39445674,69.1171204 0.882879593,68.6055433 0.534265408,67.9536914 C0.185651222,67.3018396 8.02470732e-17,66.6552671 -1.38112041e-16,64.8722296 L1.38112041e-16,5.1277704 C-8.02470732e-17,3.34473292 0.185651222,2.69816044 0.534265408,2.04630859 C0.882879593,1.39445674 1.39445674,0.882879593 2.04630859,0.534265408 C2.69816044,0.185651222 3.34473292,1.2037061e-16 5.1277704,-2.07168062e-16 Z" id="Rectangle" fill="#46BD8D"></path>
            <g id="Group-5-Copy" transform="translate(17.000000, 16.000000)" fill="#FFFFFF">
                <path d="M17.7140791,7.10542736e-14 C27.4972948,7.10542736e-14 35.4281581,7.93086334 35.4281581,17.7140791 C35.4281581,27.4972948 27.4972948,35.4281581 17.7140791,35.4281581 C7.93086334,35.4281581 -5.68434189e-14,27.4972948 -5.68434189e-14,17.7140791 C-5.68434189e-14,7.93086334 7.93086334,7.10542736e-14 17.7140791,7.10542736e-14 Z M22.6147322,11.3056636 L15.5569628,20.2882792 L12.5394248,17.7736642 C11.7439056,17.1107315 10.5615968,17.2182141 9.89866416,18.0137333 C9.23573151,18.8092525 9.34321413,19.9915613 10.1387333,20.654494 L14.6387333,24.404494 C15.4504842,25.080953 16.6605969,24.9533679 17.3134259,24.1224945 L25.5634259,13.6224945 C26.2032011,12.8082352 26.0617538,11.6295073 25.2474945,10.9897322 C24.4332352,10.349957 23.2545073,10.4914043 22.6147322,11.3056636 Z" id="Combined-Shape"></path>
            </g>
        </g>
    </g>
</svg>