<?xml version="1.0" encoding="UTF-8"?>
<svg width="300px" height="300px" viewBox="0 0 300 300" version="1.1" xmlns="http://www.w3.org/2000/svg" xmlns:xlink="http://www.w3.org/1999/xlink">
    <title>Instalación de bloqueo</title>
    <defs>
        <rect id="path-1" x="-6.50146603e-13" y="0" width="59.0310628" height="47.6391033"></rect>
        <rect id="path-3" x="82.6527455" y="0" width="4.5" height="26.293396" rx="2.25"></rect>
        <filter x="-22.2%" y="-3.8%" width="144.4%" height="107.6%" filterUnits="objectBoundingBox" id="filter-4">
            <feOffset dx="-2" dy="0" in="SourceAlpha" result="shadowOffsetInner1"></feOffset>
            <feComposite in="shadowOffsetInner1" in2="SourceAlpha" operator="arithmetic" k2="-1" k3="1" result="shadowInnerInner1"></feComposite>
            <feColorMatrix values="0 0 0 0 0.780392157   0 0 0 0 0.780392157   0 0 0 0 0.780392157  0 0 0 1 0" type="matrix" in="shadowInnerInner1"></feColorMatrix>
        </filter>
        <path d="M15.2286376,0.205608829 C19.5871397,0.205608829 23.1204037,3.73887287 23.1204037,8.09737495 C23.1204037,10.0461305 22.4140596,11.8299106 21.2434259,13.2066607 L22.1574476,13.2056088 L22.1574476,36.3511166 L0.85,36.3511166 L0.85,13.2056088 L9.21384927,13.2066607 C8.04321557,11.8299106 7.33687146,10.0461305 7.33687146,8.09737495 C7.33687146,3.73887287 10.8701355,0.205608829 15.2286376,0.205608829 Z" id="path-5"></path>
        <path d="M-12.2,27.85 L-12.2,18.85 C-12.2,11.642684 -6.35731599,5.8 0.85,5.8 C8.05731599,5.8 13.9,11.642684 13.9,18.85 L13.9,27.85 L24.7,27.85 L24.7,18.85 C24.7,5.67800872 14.0219913,-5 0.85,-5 C-12.3219913,-5 -23,5.67800872 -23,18.85 L-23,27.85 L-12.2,27.85 Z" id="path-7"></path>
        <filter x="-2.1%" y="-3.0%" width="104.2%" height="106.1%" filterUnits="objectBoundingBox" id="filter-8">
            <feOffset dx="-2" dy="0" in="SourceAlpha" result="shadowOffsetInner1"></feOffset>
            <feComposite in="shadowOffsetInner1" in2="SourceAlpha" operator="arithmetic" k2="-1" k3="1" result="shadowInnerInner1"></feComposite>
            <feColorMatrix values="0 0 0 0 0.561933877   0 0 0 0 0.561933877   0 0 0 0 0.561933877  0 0 0 0.5 0" type="matrix" in="shadowInnerInner1"></feColorMatrix>
        </filter>
    </defs>
    <g id="Instalación-de-bloqueo" stroke="none" stroke-width="1" fill="none" fill-rule="evenodd">
        <rect fill="#A0A8B8" x="0" y="0" width="300" height="300"></rect>
        <g id="Group-4" transform="translate(0.000000, 61.500000)" stroke="#BAC7DF" stroke-linecap="square" stroke-width="11">
            <line x1="0" y1="176.436678" x2="300" y2="176.436678" id="Line-53"></line>
            <line x1="0" y1="1.43667842" x2="300" y2="1.43667842" id="Line-53-Copy"></line>
        </g>
        <circle id="Oval" stroke="#FFFFFF" stroke-width="11" cx="150.660253" cy="5.54565782" r="20.0456578"></circle>
        <g id="Group" transform="translate(65.789807, 18.944618)">
            <path d="M84.9027455,15.8032828 C92.4520938,15.8032828 98.5720497,21.9232387 98.5720497,29.4725869 C98.5720497,29.8496971 98.5564441,30.2266458 98.5252729,30.6024655 L96.1832875,58.8389146 L96.1832875,58.8389146 L74.2714955,58.8389146 L71.501535,30.5824407 C70.7759928,23.1811565 76.187751,16.593062 83.5890351,15.8675198 C84.0256308,15.8247207 84.4640571,15.8032828 84.9027455,15.8032828 Z" id="Rectangle" fill="#FFFFFF"></path>
            <path d="M44.8527455,157.699774 L44.8527455,148.699774 C44.8527455,141.492458 50.6954295,135.649774 57.9027455,135.649774 C65.1100615,135.649774 70.9527455,141.492458 70.9527455,148.699774 L70.9527455,157.699774 L81.7527455,157.699774 L81.7527455,148.699774 C81.7527455,135.527782 71.0747368,124.849774 57.9027455,124.849774 C44.7307542,124.849774 34.0527455,135.527782 34.0527455,148.699774 L34.0527455,157.699774 L44.8527455,157.699774 Z" id="Path" fill="#FFFFFF" fill-rule="nonzero" transform="translate(57.902746, 141.274774) rotate(30.000000) translate(-57.902746, -141.274774) "></path>
            <g id="Rectangle-+-Rectangle-Copy-3-Mask" transform="translate(38.109808, 176.526085) rotate(30.000000) translate(-38.109808, -176.526085) translate(8.109808, 152.526085)">
                <mask id="mask-2" fill="white">
                    <use xlink:href="#path-1"></use>
                </mask>
                <use id="Mask" fill="#FFE94D" xlink:href="#path-1"></use>
                <rect id="Rectangle" fill="#D6C024" mask="url(#mask-2)" x="0" y="0" width="5.66553142" height="47.6391033"></rect>
                <rect id="Rectangle-Copy-3" fill="#D6C024" mask="url(#mask-2)" x="53.3655314" y="0" width="5.66553142" height="47.6391033"></rect>
            </g>
            <path d="M106.438146,58.8389146 C109.420484,58.8389146 111.838146,61.256577 111.838146,64.2389146 L111.838146,152.938915 C111.838146,155.921252 109.420484,158.338915 106.438146,158.338915 L63.3027455,158.338915 C60.3204079,158.338915 57.9027455,155.921252 57.9027455,152.938915 L57.9027455,64.2389146 C57.9027455,61.256577 60.3204079,58.8389146 63.3027455,58.8389146 L106.438146,58.8389146 Z M72.2813831,130.055382 C67.922881,130.055382 64.389617,133.588646 64.389617,137.947148 C64.389617,142.305651 67.922881,145.838915 72.2813831,145.838915 C76.6398852,145.838915 80.1731492,142.305651 80.1731492,137.947148 C80.1731492,133.588646 76.6398852,130.055382 72.2813831,130.055382 Z M97.5241079,130.055382 C93.1656059,130.055382 89.6323418,133.588646 89.6323418,137.947148 C89.6323418,142.305651 93.1656059,145.838915 97.5241079,145.838915 C101.88261,145.838915 105.415874,142.305651 105.415874,137.947148 C105.415874,133.588646 101.88261,130.055382 97.5241079,130.055382 Z M72.2813831,100.055382 C67.922881,100.055382 64.389617,103.588646 64.389617,107.947148 C64.389617,112.305651 67.922881,115.838915 72.2813831,115.838915 C76.6398852,115.838915 80.1731492,112.305651 80.1731492,107.947148 C80.1731492,103.588646 76.6398852,100.055382 72.2813831,100.055382 Z M97.5241079,100.055382 C93.1656059,100.055382 89.6323418,103.588646 89.6323418,107.947148 C89.6323418,112.305651 93.1656059,115.838915 97.5241079,115.838915 C101.88261,115.838915 105.415874,112.305651 105.415874,107.947148 C105.415874,103.588646 101.88261,100.055382 97.5241079,100.055382 Z M72.2813831,70.0553824 C67.922881,70.0553824 64.389617,73.5886464 64.389617,77.9471485 C64.389617,82.3056506 67.922881,85.8389146 72.2813831,85.8389146 C76.6398852,85.8389146 80.1731492,82.3056506 80.1731492,77.9471485 C80.1731492,73.5886464 76.6398852,70.0553824 72.2813831,70.0553824 Z M97.5241079,70.0553824 C93.1656059,70.0553824 89.6323418,73.5886464 89.6323418,77.9471485 C89.6323418,82.3056506 93.1656059,85.8389146 97.5241079,85.8389146 C101.88261,85.8389146 105.415874,82.3056506 105.415874,77.9471485 C105.415874,73.5886464 101.88261,70.0553824 97.5241079,70.0553824 Z" id="Combined-Shape" fill="#FF6060"></path>
            <g id="Rectangle">
                <use fill="#FFFFFF" fill-rule="evenodd" xlink:href="#path-3"></use>
                <use fill="black" fill-opacity="1" filter="url(#filter-4)" xlink:href="#path-3"></use>
            </g>
            <g id="Group-5" transform="translate(96.607576, 192.686680) rotate(-10.000000) translate(-96.607576, -192.686680) translate(53.607576, 137.686680)">
                <path d="M69,0 L85.5,18 L85.5,109.5 L0,109.5 L0,18 L15,0 L69,0 Z M72.7719727,17.7479004 L11.3701172,17.7479004 L11.3701172,29.7479004 L72.7719727,29.7479004 L72.7719727,17.7479004 Z" id="Combined-Shape" fill="#FFFFFF"></path>
                <rect id="Rectangle" fill="#FF6060" x="51" y="45.848877" width="22.6779785" height="22.6779785"></rect>
                <rect id="Rectangle-Copy" fill="#E62D36" x="10.5" y="74.7883301" width="63.1779785" height="6.42260742"></rect>
                <rect id="Rectangle" fill="#B8B8B8" x="10.8640137" y="36" width="62.2719727" height="3.35742188"></rect>
                <rect id="Rectangle-Copy-7" fill="#D8D8D8" x="10.8640137" y="45.848877" width="34.5" height="3.35742188"></rect>
                <rect id="Rectangle-Copy-9" fill="#D8D8D8" x="10.8640137" y="58.729248" width="34.5" height="3.35742188"></rect>
                <rect id="Rectangle-Copy-12" fill="#D8D8D8" x="10.8640137" y="90.7338867" width="62.2719727" height="3.35742188"></rect>
                <rect id="Rectangle-Copy-8" fill="#D8D8D8" x="10.8640137" y="52.2890625" width="34.5" height="3.35742188"></rect>
                <rect id="Rectangle-Copy-13" fill="#D8D8D8" x="10.8640137" y="84.2937012" width="62.2719727" height="3.35742188"></rect>
                <rect id="Rectangle-Copy-11" fill="#D8D8D8" x="10.8640137" y="65.1694336" width="34.5" height="3.35742188"></rect>
                <rect id="Rectangle-Copy-14" fill="#D8D8D8" x="10.8640137" y="97.1740723" width="62.2719727" height="3.35742188"></rect>
            </g>
            <g id="Path" transform="translate(57.052746, 129.849774)">
                <mask id="mask-6" fill="white">
                    <use xlink:href="#path-5"></use>
                </mask>
                <use id="Mask" fill="#D8D8D8" opacity="0" xlink:href="#path-5"></use>
                <g fill-rule="nonzero" mask="url(#mask-6)" transform="translate(0.850000, 11.425000) rotate(30.000000) translate(-0.850000, -11.425000) ">
                    <use fill="#FFFFFF" xlink:href="#path-7"></use>
                    <use fill="black" fill-opacity="1" filter="url(#filter-8)" xlink:href="#path-7"></use>
                </g>
            </g>
        </g>
        <g id="Group-5" transform="translate(223.000000, 7.000000)">
            <path d="M5.1277704,-2.07168062e-16 L64.8722296,2.07168062e-16 C66.6552671,-1.2037061e-16 67.3018396,0.185651222 67.9536914,0.534265408 C68.6055433,0.882879593 69.1171204,1.39445674 69.4657346,2.04630859 C69.8143488,2.69816044 70,3.34473292 70,5.1277704 L70,64.8722296 C70,66.6552671 69.8143488,67.3018396 69.4657346,67.9536914 C69.1171204,68.6055433 68.6055433,69.1171204 67.9536914,69.4657346 C67.3018396,69.8143488 66.6552671,70 64.8722296,70 L5.1277704,70 C3.34473292,70 2.69816044,69.8143488 2.04630859,69.4657346 C1.39445674,69.1171204 0.882879593,68.6055433 0.534265408,67.9536914 C0.185651222,67.3018396 8.02470732e-17,66.6552671 -1.38112041e-16,64.8722296 L1.38112041e-16,5.1277704 C-8.02470732e-17,3.34473292 0.185651222,2.69816044 0.534265408,2.04630859 C0.882879593,1.39445674 1.39445674,0.882879593 2.04630859,0.534265408 C2.69816044,0.185651222 3.34473292,1.2037061e-16 5.1277704,-2.07168062e-16 Z" id="Rectangle" fill="#737E92"></path>
            <path d="M40.419375,28.191707 C40.419375,25.1986688 37.9930382,22.772332 35,22.772332 C32.0069618,22.772332 29.580625,25.1986688 29.580625,28.191707 L29.580625,28.191707 L29.580625,31.929207 L25.095625,31.929207 L25.095625,28.191707 C25.095625,22.7216717 29.5299647,18.287332 35,18.287332 C40.4700353,18.287332 44.904375,22.7216717 44.904375,28.191707 L44.904375,28.191707 L44.904375,31.929207 L47.2571443,31.929207 L47.2571443,51.712668 L22.7428557,51.712668 L22.7428557,31.929207 L40.419375,31.929207 Z" id="Combined-Shape" fill="#FFFFFF" fill-rule="nonzero"></path>
        </g>
    </g>
</svg>