<?xml version="1.0" encoding="UTF-8"?>
<svg width="300px" height="300px" viewBox="0 0 300 300" version="1.1" xmlns="http://www.w3.org/2000/svg" xmlns:xlink="http://www.w3.org/1999/xlink">
    <title>Parqueo</title>
    <defs>
        <linearGradient x1="50%" y1="0%" x2="50%" y2="100%" id="linearGradient-1">
            <stop stop-color="#656A75" offset="0%"></stop>
            <stop stop-color="#2A313F" offset="100%"></stop>
        </linearGradient>
        <polygon id="path-2" points="0.00808419512 0.116906341 731.376234 0.116906341 731.376234 276.567636 0.00808419512 276.567636"></polygon>
        <polygon id="path-4" points="0.972798146 6.46915259 12.7820107 6.46915259 12.7820107 53.393414 0.972798146 53.393414"></polygon>
        <path d="M-1.42108547e-14,9.81780585 L-1.42108547e-14,90.9382127 C-1.42108547e-14,96.3636059 4.3744478,100.756019 9.77289366,100.756019 L203.083964,100.756019 C209.802828,100.756019 214.060504,93.5161727 210.835809,87.6057278 L168.115329,9.3686839 C164.95351,3.60195805 158.917311,1.59872116e-14 152.360131,1.59872116e-14 L9.77289366,1.59872116e-14 C4.3744478,1.59872116e-14 -1.42108547e-14,4.39241268 -1.42108547e-14,9.81780585" id="path-6"></path>
        <polygon id="path-8" points="0.78632078 1.1129242 538.785913 1.1129242 538.785913 34.2401593 0.78632078 34.2401593"></polygon>
        <polygon id="path-10" points="12.3501129 0.242891547 44.3501129 0.242891547 55.8501129 53.969345 0.850112938 53.969345"></polygon>
    </defs>
    <g id="Parqueo" stroke="none" stroke-width="1" fill="none" fill-rule="evenodd">
        <rect fill="#FFFFFF" x="0" y="0" width="300" height="300"></rect>
        <rect id="Rectangle-Copy-10" fill="url(#linearGradient-1)" x="0" y="245" width="300" height="55"></rect>
        <g id="Group-7" transform="translate(-452.000000, -89.000000)">
            <g id="Group-Copy-6">
                <g id="Group-3" transform="translate(0.000000, 0.909126)">
                    <mask id="mask-3" fill="white">
                        <use xlink:href="#path-2"></use>
                    </mask>
                    <g id="Clip-2"></g>
                    <path d="M598.274453,108.919394 C576.761512,103.754491 558.751721,89.1220981 549.526756,69.0193996 C535.136889,37.6437401 521.465617,0.115109854 496.215981,0.115109854 L191.235229,0.115109854 C162.419564,0.115109854 137.547191,16.9841303 125.950862,41.3804347 C114.570112,65.3186347 101.994697,88.6639938 86.4550774,109.988304 C79.4847047,119.554602 69.9902666,126.983079 59.112533,131.609035 C59.112533,131.609035 0.00808419512,163.119431 0.00808419512,196.821542 L0.00808419512,270.351788 C0.00808419512,273.78308 2.78365785,276.567636 6.21494956,276.567636 L720.23801,276.567636 C726.390981,276.567636 731.376234,271.5734 731.376234,265.429411 L731.376234,188.925978 C731.376234,164.906936 716.770789,144.301221 695.96746,135.507413 C681.27219,129.291565 631.015443,116.770045 598.274453,108.919394" id="Fill-1" fill="#5391C3" mask="url(#mask-3)"></path>
                </g>
                <g id="Group-21" transform="translate(718.595122, 195.522784)">
                    <mask id="mask-5" fill="white">
                        <use xlink:href="#path-4"></use>
                    </mask>
                    <g id="Clip-20"></g>
                    <path d="M12.7847055,53.393414 L12.7847055,53.393414 L12.7847055,6.46915259 C6.25447229,6.46915259 0.972798146,11.7598092 0.972798146,18.2900423 L0.972798146,41.5815067 C0.972798146,48.1027575 6.25447229,53.393414 12.7847055,53.393414" id="Fill-19" fill="#B6605D" mask="url(#mask-5)"></path>
                </g>
                <g id="Group-4" transform="translate(331.599312, 23.853104)">
                    <mask id="mask-7" fill="white">
                        <use xlink:href="#path-6"></use>
                    </mask>
                    <use id="Mask" fill="#FFFFFF" xlink:href="#path-6"></use>
                </g>
            </g>
            <path d="M529.441124,277.916003 L317.195073,277.916003 L317.195073,277.017759 L529.162669,277.017759 C530.725613,275.948848 547.900037,264.145924 559.837698,252.45977 L559.837698,139.39781 L543.184256,118.522622 L543.884886,117.956728 L560.72696,139.083425 L560.72696,252.837033 L560.601205,252.980752 C548.079685,265.259746 529.737545,277.718389 529.557896,277.835161 L529.441124,277.916003 Z" id="Fill-30" fill="#445B76"></path>
            <g id="Group-6" transform="translate(0.002695, 208.536786)">
                <g id="Group-10" transform="translate(192.588525, 34.062307)">
                    <mask id="mask-9" fill="white">
                        <use xlink:href="#path-8"></use>
                    </mask>
                    <g id="Clip-9"></g>
                    <path d="M531.630502,1.1129242 L0.78632078,1.1129242 C8.74476176,10.7600637 14.8438379,21.9881125 18.5805325,34.2401593 L531.630502,34.2401593 C535.582775,34.2401593 538.789506,31.0334286 538.789506,27.0901379 L538.789506,8.26294566 C538.789506,4.31067249 535.582775,1.1129242 531.630502,1.1129242" id="Fill-8" fill="#404040" mask="url(#mask-9)"></path>
                </g>
                <path d="M603.683678,23.9292176 C563.675894,23.9292176 531.249289,56.3558224 531.249289,96.3636059 C531.249289,136.371389 563.675894,168.797994 603.683678,168.797994 C643.682479,168.797994 676.109084,136.371389 676.109084,96.3636059 C676.109084,56.3558224 643.682479,23.9292176 603.683678,23.9292176" id="Fill-15" fill="#272A30"></path>
                <path d="M603.683678,66.4556769 C587.15599,66.4556769 573.772156,79.839511 573.772156,96.3671988 C573.772156,112.885904 587.15599,126.278721 603.683678,126.278721 C620.202383,126.278721 633.5952,112.885904 633.5952,96.3671988 C633.5952,79.839511 620.202383,66.4556769 603.683678,66.4556769" id="Fill-17" fill="#5E626B"></path>
                <path d="M678.06995,35.1752312 C660.374545,13.707202 633.606877,-4.79616347e-14 603.686372,-4.79616347e-14 C573.765868,-4.79616347e-14 546.989217,13.707202 529.302795,35.1752312 C521.344354,44.8223707 515.25426,56.0504195 511.517566,68.3024663 L536.892956,68.3024663 C542.668664,54.5683171 552.585277,43.0528302 565.04392,35.1752312 C576.236039,28.0880868 589.458189,23.9292176 603.686372,23.9292176 C617.905573,23.9292176 631.127724,28.0880868 642.328825,35.1752312 C654.778486,43.0528302 664.704081,54.5683171 670.470807,68.3024663 L695.846197,68.3024663 C692.109502,56.0504195 686.028391,44.8223707 678.06995,35.1752312" id="Fill-32" fill="#8F9091"></path>
            </g>
        </g>
        <g id="Line-54-+-Line-54-Copy-3-+-Line-54-Copy-+-Line-54-Copy-2-+-Line-54-Copy-4-Mask" transform="translate(218.149887, 224.757108)">
            <mask id="mask-11" fill="white">
                <use xlink:href="#path-10"></use>
            </mask>
            <use id="Mask" fill="#272A30" xlink:href="#path-10"></use>
            <polygon id="Line-54" fill="#FFE94D" fill-rule="nonzero" mask="url(#mask-11)" points="6.13258476 5.80662072 57.8663285 24.5311864 59.2276675 20.7699691 7.49392374 2.04540334"></polygon>
            <polygon id="Line-54-Copy-3" fill="#FFE94D" fill-rule="nonzero" mask="url(#mask-11)" points="3.19508476 -7.23878262 54.9288285 11.4857831 56.2901675 7.72456571 4.55642374 -11"></polygon>
            <polygon id="Line-54-Copy" fill="#FFE94D" fill-rule="nonzero" mask="url(#mask-11)" points="0.257584757 18.8520241 51.9913285 37.5765898 53.3526675 33.8153724 1.61892374 15.0908067"></polygon>
            <polygon id="Line-54-Copy-2" fill="#FFE94D" fill-rule="nonzero" mask="url(#mask-11)" points="-6 31.8811027 55.2524774 54.4928046 56.6377259 50.7403272 -4.61475153 28.1286253"></polygon>
            <polygon id="Line-54-Copy-4" fill="#FFE94D" fill-rule="nonzero" mask="url(#mask-11)" points="0.0625 48.926506 61.3149774 71.538208 62.7002259 67.7857305 1.44774847 45.1740286"></polygon>
        </g>
        <rect id="Rectangle" fill="#1C1F23" x="219" y="278.726453" width="55" height="9.60832663"></rect>
        <g id="Group-13" transform="translate(223.000000, 7.000000)">
            <path d="M5.1277704,-2.07168062e-16 L64.8722296,2.07168062e-16 C66.6552671,-1.2037061e-16 67.3018396,0.185651222 67.9536914,0.534265408 C68.6055433,0.882879593 69.1171204,1.39445674 69.4657346,2.04630859 C69.8143488,2.69816044 70,3.34473292 70,5.1277704 L70,64.8722296 C70,66.6552671 69.8143488,67.3018396 69.4657346,67.9536914 C69.1171204,68.6055433 68.6055433,69.1171204 67.9536914,69.4657346 C67.3018396,69.8143488 66.6552671,70 64.8722296,70 L5.1277704,70 C3.34473292,70 2.69816044,69.8143488 2.04630859,69.4657346 C1.39445674,69.1171204 0.882879593,68.6055433 0.534265408,67.9536914 C0.185651222,67.3018396 8.02470732e-17,66.6552671 -1.38112041e-16,64.8722296 L1.38112041e-16,5.1277704 C-8.02470732e-17,3.34473292 0.185651222,2.69816044 0.534265408,2.04630859 C0.882879593,1.39445674 1.39445674,0.882879593 2.04630859,0.534265408 C2.69816044,0.185651222 3.34473292,1.2037061e-16 5.1277704,-2.07168062e-16 Z" id="Rectangle-Copy-7" fill="#FF6060"></path>
            <g id="Group-10" transform="translate(20.077256, 14.598573)" fill="#FFFFFF">
                <path d="M21.994,20.2953051 L24.648,30.9503051 L28.6892308,30.9503125 L31.0892308,37.0796875 L31.0892308,38.0926562 L-1.70530257e-13,38.0926562 L-1.70530257e-13,37.0796875 L1.8190024,30.9503125 L6.44,30.9503051 L9.093,20.2953051 L21.994,20.2953051 Z M19.37,9.75930508 L20.631,14.8223051 L10.457,14.8223051 L11.718,9.75930508 L19.37,9.75930508 Z M16.0086779,0.480683665 C16.6978865,0.652354683 17.2360187,1.19048689 17.4076897,1.87969554 L18.409,5.90130508 L12.679,5.90130508 L13.681541,1.87969554 C13.9378357,0.850747988 14.9797303,0.224389038 16.0086779,0.480683665 Z" id="Combined-Shape"></path>
            </g>
        </g>
    </g>
</svg>