<?xml version="1.0" encoding="UTF-8"?>
<svg width="300px" height="300px" viewBox="0 0 300 300" version="1.1" xmlns="http://www.w3.org/2000/svg" xmlns:xlink="http://www.w3.org/1999/xlink">
    <title>Se침alizaci칩n e Interlock</title>
    <g id="Se침alizaci칩n-e-Interlock" stroke="none" stroke-width="1" fill="none" fill-rule="evenodd">
        <rect fill="#F9FDFF" x="0" y="0" width="300" height="300"></rect>
        <rect id="Rectangle" fill="#EDF7FF" x="67.8338175" y="0" width="164.332365" height="316.617188"></rect>
        <g id="Group-4" transform="translate(18.000000, 122.269842)">
            <g id="Group-2">
                <line x1="12" y1="2" x2="97.5" y2="27.3226873" id="Line-42" stroke="#FFB116" stroke-width="4" stroke-linecap="round"></line>
                <line x1="12" y1="27.3226873" x2="97.5" y2="52.6453746" id="Line-42-Copy" stroke="#FFB116" stroke-linecap="round"></line>
                <line x1="12" y1="52.6453746" x2="97.5" y2="77.9680619" id="Line-42-Copy-2" stroke="#FFB116" stroke-linecap="round"></line>
                <line x1="12" y1="77.9680619" x2="97.5" y2="103.290749" id="Line-42-Copy-3" stroke="#FFB116" stroke-linecap="round"></line>
                <line x1="12" y1="102.012329" x2="97.5" y2="127.335016" id="Line-42-Copy-4" stroke="#FFB116" stroke-linecap="round"></line>
                <line x1="12" y1="127.335016" x2="97.5" y2="152.657704" id="Line-42-Copy-5" stroke="#FFB116" stroke-linecap="round"></line>
                <line x1="12" y1="152.657704" x2="97.5" y2="177.980391" id="Line-42-Copy-6" stroke="#FFB116" stroke-linecap="round"></line>
                <line x1="10.5" y1="2" x2="10.5" y2="194.347346" id="Line-43" stroke="#FFB116" stroke-width="4" stroke-linecap="square"></line>
                <line x1="97.5" y1="27.730158" x2="97.5" y2="220.077504" id="Line-43-Copy" stroke="#FFB116" stroke-width="4" stroke-linecap="square"></line>
                <line x1="27.9" y1="9" x2="27.9" y2="201.347346" id="Line-43-Copy-2" stroke="#FFB116" stroke-linecap="square"></line>
                <line x1="45.3" y1="14.6613437" x2="45.3" y2="207.008689" id="Line-43-Copy-3" stroke="#FFB116" stroke-linecap="square"></line>
                <line x1="62.7" y1="18.5" x2="62.7" y2="210.847346" id="Line-43-Copy-4" stroke="#FFB116" stroke-linecap="square"></line>
                <line x1="80.1" y1="24.5" x2="80.1" y2="216.847346" id="Line-43-Copy-5" stroke="#FFB116" stroke-linecap="square"></line>
                <polygon id="Rectangle" fill="#FFB116" points="80.1 23.4381658 96.1 27.730158 96.1 52.6453746 80.1 48.0602361"></polygon>
                <rect id="Rectangle" fill="#FFB116" x="0" y="65.3067183" width="12" height="17.5"></rect>
                <g id="Group" transform="translate(8.000000, 67.056718)" fill="#FFD073">
                    <circle id="Oval" cx="1.25" cy="1.25" r="1.25"></circle>
                    <circle id="Oval-Copy" cx="1.25" cy="12.4879039" r="1.25"></circle>
                </g>
                <rect id="Rectangle" fill="#FF6060" x="3.5" y="0" width="7" height="20.5"></rect>
                <polygon id="Rectangle-Copy" fill="#C43939" points="3.5 20.5 10.5 20.5 10.5 24.5"></polygon>
                <rect id="Rectangle" fill="#F0A206" x="98.9" y="25.6075994" width="8" height="158.215088"></rect>
                <rect id="Rectangle" fill="#FFFFFF" x="98.9" y="26.6453746" width="6.5" height="26"></rect>
            </g>
            <g id="Group-2-Copy" transform="translate(209.632365, 110.500000) scale(-1, 1) translate(-209.632365, -110.500000) translate(156.132365, 0.000000)">
                <line x1="12" y1="2" x2="97.5" y2="27.3226873" id="Line-42" stroke="#FFB116" stroke-width="4" stroke-linecap="round"></line>
                <line x1="12" y1="27.3226873" x2="97.5" y2="52.6453746" id="Line-42-Copy" stroke="#FFB116" stroke-linecap="round"></line>
                <line x1="12" y1="52.6453746" x2="97.5" y2="77.9680619" id="Line-42-Copy-2" stroke="#FFB116" stroke-linecap="round"></line>
                <line x1="12" y1="77.9680619" x2="97.5" y2="103.290749" id="Line-42-Copy-3" stroke="#FFB116" stroke-linecap="round"></line>
                <line x1="12" y1="102.012329" x2="97.5" y2="127.335016" id="Line-42-Copy-4" stroke="#FFB116" stroke-linecap="round"></line>
                <line x1="12" y1="127.335016" x2="97.5" y2="152.657704" id="Line-42-Copy-5" stroke="#FFB116" stroke-linecap="round"></line>
                <line x1="12" y1="152.657704" x2="97.5" y2="177.980391" id="Line-42-Copy-6" stroke="#FFB116" stroke-linecap="round"></line>
                <line x1="10.5" y1="2" x2="10.5" y2="194.347346" id="Line-43" stroke="#FFB116" stroke-width="4" stroke-linecap="square"></line>
                <line x1="97.5" y1="27.730158" x2="97.5" y2="220.077504" id="Line-43-Copy" stroke="#FFB116" stroke-width="4" stroke-linecap="square"></line>
                <line x1="27.9" y1="9" x2="27.9" y2="201.347346" id="Line-43-Copy-2" stroke="#FFB116" stroke-linecap="square"></line>
                <line x1="45.3" y1="14.6613437" x2="45.3" y2="207.008689" id="Line-43-Copy-3" stroke="#FFB116" stroke-linecap="square"></line>
                <line x1="62.7" y1="18.5" x2="62.7" y2="210.847346" id="Line-43-Copy-4" stroke="#FFB116" stroke-linecap="square"></line>
                <line x1="80.1" y1="24.5" x2="80.1" y2="216.847346" id="Line-43-Copy-5" stroke="#FFB116" stroke-linecap="square"></line>
                <polygon id="Rectangle" fill="#FFB116" points="80.1 23.4381658 96.1 27.730158 96.1 52.6453746 80.1 48.0602361"></polygon>
                <rect id="Rectangle" fill="#FFB116" x="0" y="65.3067183" width="12" height="17.5"></rect>
                <g id="Group" transform="translate(8.000000, 67.056718)" fill="#FFD073">
                    <circle id="Oval" cx="1.25" cy="1.25" r="1.25"></circle>
                    <circle id="Oval-Copy" cx="1.25" cy="12.4879039" r="1.25"></circle>
                </g>
                <rect id="Rectangle" fill="#FF6060" x="3.5" y="0" width="7" height="20.5"></rect>
                <polygon id="Rectangle-Copy" fill="#C43939" points="3.5 20.5 10.5 20.5 10.5 24.5"></polygon>
                <rect id="Rectangle" fill="#F0A206" x="98.9" y="25.6075994" width="8" height="158.215088"></rect>
                <rect id="Rectangle" fill="#FFFFFF" x="98.9" y="26.6453746" width="6.5" height="26"></rect>
            </g>
            <g id="Group-3" transform="translate(53.500000, 48.730158)" fill="#FFB116">
                <rect id="Rectangle" x="0" y="0" width="4" height="133"></rect>
                <rect id="Rectangle" x="0" y="0" width="116.166504" height="4"></rect>
            </g>
            <g id="Group-3-Copy" transform="translate(188.132365, 115.230158) scale(-1, 1) translate(-188.132365, -115.230158) translate(166.632365, 48.730158)" fill="#FFB116">
                <rect id="Rectangle" x="0" y="0" width="4" height="133"></rect>
                <rect id="Rectangle" x="0" y="0" width="42.6" height="4"></rect>
            </g>
        </g>
        <path d="M20.0309635,143.133325 C20.2755409,143.26153 20.3698796,143.56373 20.2416748,143.808307 L18.4428467,147.239948 C18.3146419,147.484525 18.0124421,147.578864 17.7678647,147.450659 C17.5232872,147.322454 17.4289485,147.020255 17.5571533,146.775677 L19.3559814,143.344037 C19.4841863,143.099459 19.786386,143.00512 20.0309635,143.133325 Z M17.0644382,138.346529 C17.2133428,138.579084 17.1455305,138.888319 16.9129751,139.037223 L14.0598501,140.864072 C13.8272947,141.012977 13.5180602,140.945164 13.3691556,140.712609 C13.2202509,140.480053 13.2880633,140.170819 13.5206187,140.021914 L16.3737437,138.195066 C16.6062991,138.046161 16.9155335,138.113973 17.0644382,138.346529 Z M14.4123535,131.3479 C14.6884959,131.3479 14.9123535,131.571758 14.9123535,131.8479 C14.9123535,132.124043 14.6884959,132.3479 14.4123535,132.3479 L14.4123535,132.3479 L10.5,132.3479 C10.2238576,132.3479 10,132.124043 10,131.8479 C10,131.571758 10.2238576,131.3479 10.5,131.3479 L10.5,131.3479 Z M13.4156534,122.311695 C13.5985666,122.10482 13.9145525,122.085395 14.1214279,122.268308 L14.1214279,122.268308 L16.9745529,124.790958 C17.1814282,124.973871 17.2008534,125.289857 17.0179403,125.496732 C16.8350272,125.703607 16.5190412,125.723032 16.3121659,125.540119 L16.3121659,125.540119 L13.4590409,123.01747 C13.2521656,122.834557 13.2327403,122.518571 13.4156534,122.311695 Z M17.8002365,115.041639 C18.0533821,114.931313 18.3480344,115.047091 18.4583607,115.300236 L18.4583607,115.300236 L20.2571888,119.427678 C20.3675152,119.680824 20.2517373,119.975476 19.9985916,120.085802 C19.745446,120.196128 19.4507937,120.080351 19.3404674,119.827205 L19.3404674,119.827205 L17.5416393,115.699764 C17.431313,115.446618 17.5470909,115.151966 17.8002365,115.041639 Z" id="Combined-Shape" fill="#E62D36" fill-rule="nonzero"></path>
        <path d="M290.030963,143.133325 C290.275541,143.26153 290.36988,143.56373 290.241675,143.808307 L288.442847,147.239948 C288.314642,147.484525 288.012442,147.578864 287.767865,147.450659 C287.523287,147.322454 287.428949,147.020255 287.557153,146.775677 L289.355981,143.344037 C289.484186,143.099459 289.786386,143.00512 290.030963,143.133325 Z M287.064438,138.346529 C287.213343,138.579084 287.14553,138.888319 286.912975,139.037223 L284.05985,140.864072 C283.827295,141.012977 283.51806,140.945164 283.369156,140.712609 C283.220251,140.480053 283.288063,140.170819 283.520619,140.021914 L286.373744,138.195066 C286.606299,138.046161 286.915534,138.113973 287.064438,138.346529 Z M284.412354,131.3479 C284.688496,131.3479 284.912354,131.571758 284.912354,131.8479 C284.912354,132.124043 284.688496,132.3479 284.412354,132.3479 L284.412354,132.3479 L280.5,132.3479 C280.223858,132.3479 280,132.124043 280,131.8479 C280,131.571758 280.223858,131.3479 280.5,131.3479 L280.5,131.3479 Z M283.415653,122.311695 C283.598567,122.10482 283.914553,122.085395 284.121428,122.268308 L284.121428,122.268308 L286.974553,124.790958 C287.181428,124.973871 287.200853,125.289857 287.01794,125.496732 C286.835027,125.703607 286.519041,125.723032 286.312166,125.540119 L286.312166,125.540119 L283.459041,123.01747 C283.252166,122.834557 283.23274,122.518571 283.415653,122.311695 Z M287.800236,115.041639 C288.053382,114.931313 288.348034,115.047091 288.458361,115.300236 L288.458361,115.300236 L290.257189,119.427678 C290.367515,119.680824 290.251737,119.975476 289.998592,120.085802 C289.745446,120.196128 289.450794,120.080351 289.340467,119.827205 L289.340467,119.827205 L287.541639,115.699764 C287.431313,115.446618 287.547091,115.151966 287.800236,115.041639 Z" id="Combined-Shape-Copy" fill="#E62D36" fill-rule="nonzero" transform="translate(285.149477, 131.253894) scale(-1, 1) translate(-285.149477, -131.253894) "></path>
        <g id="Group-5" transform="translate(223.000000, 7.000000)">
            <path d="M5.1277704,-2.07168062e-16 L64.8722296,2.07168062e-16 C66.6552671,-1.2037061e-16 67.3018396,0.185651222 67.9536914,0.534265408 C68.6055433,0.882879593 69.1171204,1.39445674 69.4657346,2.04630859 C69.8143488,2.69816044 70,3.34473292 70,5.1277704 L70,64.8722296 C70,66.6552671 69.8143488,67.3018396 69.4657346,67.9536914 C69.1171204,68.6055433 68.6055433,69.1171204 67.9536914,69.4657346 C67.3018396,69.8143488 66.6552671,70 64.8722296,70 L5.1277704,70 C3.34473292,70 2.69816044,69.8143488 2.04630859,69.4657346 C1.39445674,69.1171204 0.882879593,68.6055433 0.534265408,67.9536914 C0.185651222,67.3018396 8.02470732e-17,66.6552671 -1.38112041e-16,64.8722296 L1.38112041e-16,5.1277704 C-8.02470732e-17,3.34473292 0.185651222,2.69816044 0.534265408,2.04630859 C0.882879593,1.39445674 1.39445674,0.882879593 2.04630859,0.534265408 C2.69816044,0.185651222 3.34473292,1.2037061e-16 5.1277704,-2.07168062e-16 Z" id="Rectangle" fill="#737E92"></path>
            <path d="M40.419375,28.191707 C40.419375,25.1986688 37.9930382,22.772332 35,22.772332 C32.0069618,22.772332 29.580625,25.1986688 29.580625,28.191707 L29.580625,28.191707 L29.580625,31.929207 L25.095625,31.929207 L25.095625,28.191707 C25.095625,22.7216717 29.5299647,18.287332 35,18.287332 C40.4700353,18.287332 44.904375,22.7216717 44.904375,28.191707 L44.904375,28.191707 L44.904375,31.929207 L47.2571443,31.929207 L47.2571443,51.712668 L22.7428557,51.712668 L22.7428557,31.929207 L40.419375,31.929207 Z" id="Combined-Shape" fill="#FFFFFF" fill-rule="nonzero"></path>
        </g>
    </g>
</svg>