<?xml version="1.0" encoding="UTF-8"?>
<svg width="300px" height="300px" viewBox="0 0 300 300" version="1.1" xmlns="http://www.w3.org/2000/svg" xmlns:xlink="http://www.w3.org/1999/xlink">
    <title>Delimitación de área + máquina trabajando</title>
    <g id="Delimitación-de-área-+-máquina-trabajando" stroke="none" stroke-width="1" fill="none" fill-rule="evenodd">
        <rect fill="#F9FDFF" x="0" y="0" width="300" height="300"></rect>
        <polygon id="Path-65" fill="#EDF7FF" transform="translate(150.000000, 159.911307) scale(-1, 1) translate(-150.000000, -159.911307) " points="0 65.4990234 37.391222 91.106586 86.5557854 103.135059 124.50511 128.99707 188.736328 137.837827 265 163.716309 300 147.696289 300 250.524414 0 254.32359"></polygon>
        <rect id="Rectangle-Copy-10" fill="#FFEAC0" x="0" y="245" width="300" height="55"></rect>
        <path d="M190.893261,211.068074 C190.893261,210.518698 191.338634,210.072827 191.888508,210.072827 L218.262534,210.072827 C218.812407,210.072827 219.25778,210.518698 219.25778,211.068074 L219.256796,216.884188 L225.507131,216.884293 C226.283189,216.884293 226.920835,217.476289 226.993167,218.233378 L227,218.377162 L226.999652,227.946057 L222.989954,227.946157 L214.779172,233.402097 L200.426796,233.401188 L205.098611,234.610127 C207.42898,235.212251 209.056705,237.314211 209.056705,239.721214 C209.056705,242.631811 206.688516,245 203.777421,245 L132.725297,245 C129.814201,245 127.446511,242.631811 127.446511,239.721214 L127.446511,238.746868 C127.446511,236.933031 128.359151,235.268482 129.887352,234.294136 C130.345116,234.00224 130.855696,233.697276 131.405377,233.401248 L107.292575,233.402097 L98.9337962,228.578188 L95.0717962,228.578536 L95.071647,218.377162 C95.071647,217.601104 95.6640837,216.963458 96.4208095,216.891126 L96.5645164,216.884293 L101.008647,216.884 L99.3131875,206.93183 L99.3132373,199.716295 C99.3132373,199.20616 99.6976867,198.785272 100.192469,198.727748 L100.308484,198.721048 L125.09758,198.721048 C125.607715,198.721048 126.028603,199.105498 126.086127,199.60028 L126.092826,199.716295 L126.092647,216.884 L132.919647,216.884 L132.920017,90.7369273 L134.537292,90.7369273 L134.537292,88 L137.274219,88 L137.274219,90.7369273 L138.725786,90.7369273 L138.725786,88 L140.645616,88 L140.645616,90.7369273 L145.110291,90.7369273 L145.110291,88 L147.847218,88 L147.847218,90.7369273 L150.336827,90.7369273 L150.336647,181.005 L150.371126,180.987661 L158.368647,196.364 L159.390581,195.833293 L167.840222,212.078698 L167.607866,212.198344 C167.686814,212.282308 167.75135,212.379988 167.797511,212.487438 L190.893112,212.488887 L190.893261,211.068074 Z M132.919647,217.879 L126.092647,217.879 L126.092647,225.509 L129.77902,225.509694 L129.778796,225.537188 L132.919647,225.537 L132.919647,217.879 Z M225.507131,217.879539 L219.256796,217.879188 L219.256796,225.537188 L226.004754,225.537462 L226.004754,218.377162 C226.004754,218.102972 225.781321,217.879539 225.507131,217.879539 Z M101.177647,217.879 L96.5645164,217.879539 C96.3207916,217.879539 96.1171716,218.056079 96.0749317,218.287882 L96.0668932,218.377162 L96.0667962,225.509188 L102.477647,225.509 L101.177647,217.879 Z M148.161891,199.226328 L144.876647,199.226 L144.876647,212.488 L147.629647,212.488 L147.629956,200.069607 C147.629956,199.697914 147.84724,199.376661 148.161891,199.226328 Z M138.379647,199.227 L134.412647,199.227 L134.412647,212.488 L138.379647,212.488 L138.379647,199.227 Z M150.336647,183.416 L150.336647,199.135 L151.891103,199.135568 C152.40664,199.135568 152.825141,199.554069 152.825141,200.069607 L152.824647,212.488 L156.936348,212.487438 C157.088559,212.132862 157.440804,211.884673 157.851284,211.884673 L163.846647,211.884 L156.327115,197.426679 L157.347647,196.895 L150.336647,183.416 Z M125.09758,199.218671 L100.308484,199.218671 C100.064759,199.218671 99.8611388,199.395211 99.8188988,199.627015 L99.8108604,199.716295 L99.8108604,206.434207 L125.595203,206.434207 L125.595203,199.716295 C125.595203,199.442104 125.37177,199.218671 125.09758,199.218671 Z M138.379647,182.534 L134.412647,182.534 L134.412647,198.076 L138.379647,198.076 L138.379647,182.534 Z M148.843647,182.534 L144.876647,182.534 L144.876647,198.076 L148.843647,198.076 L148.843647,182.534 Z M138.379647,165.841 L134.412647,165.841 L134.412647,181.383 L138.379647,181.383 L138.379647,165.841 Z M148.843647,165.841 L144.876647,165.841 L144.876647,181.383 L148.843647,181.383 L148.843647,165.841 Z M138.379647,149.148 L134.412647,149.148 L134.412647,164.69 L138.379647,164.69 L138.379647,149.148 Z M148.843647,149.148 L144.876647,149.148 L144.876647,164.69 L148.843647,164.69 L148.843647,149.148 Z M138.379647,132.567 L134.412647,132.567 L134.412647,147.771 L138.379647,147.771 L138.379647,132.567 Z M148.843647,132.567 L144.876647,132.567 L144.876647,147.771 L148.843647,147.771 L148.843647,132.567 Z M138.379647,115.874 L134.412647,115.874 L134.412647,131.191 L138.379647,131.191 L138.379647,115.874 Z M148.843647,115.874 L144.876647,115.874 L144.876647,131.191 L148.843647,131.191 L148.843647,115.874 Z M138.379647,101.187 L134.412886,101.187013 L134.412647,114.498 L138.379647,114.498 L138.379647,101.187 Z M148.843957,101.187013 L144.876647,101.187 L144.876647,114.498 L148.843647,114.498 L148.843957,101.187013 Z" id="Combined-Shape" fill="#B4CBDB"></path>
        <rect id="Rectangle" fill="#8E929B" x="234.422914" y="129.519842" width="3.08982675" height="121.180158"></rect>
        <g id="Group-8" transform="translate(2.000000, 212.958984)">
            <path d="M69,0 C70.1045695,0 71,0.554914676 71,1.23943662 L71,42.7605634 C71,43.4450853 70.1045695,44 69,44 L2,44 C0.8954305,44 0,43.4450853 0,42.7605634 L0,1.23943662 C0,0.554914676 0.8954305,0 2,0 L69,0 Z M5.73,1.239 L2.5,1.239 L2.5,42.76 L5.73,42.76 L5.73,1.239 Z M47.576,1.239 L44.346,1.239 L44.346,42.76 L47.576,42.76 L47.576,1.239 Z M26.653,1.239 L23.423,1.239 L23.423,42.76 L26.653,42.76 L26.653,1.239 Z M68.5,1.239 L65.269,1.239 L65.269,42.76 L68.5,42.76 L68.5,1.239 Z M16.192,1.239 L12.961,1.239 L12.961,42.76 L16.192,42.76 L16.192,1.239 Z M58.038,1.239 L54.807,1.239 L54.807,42.76 L58.038,42.76 L58.038,1.239 Z M37.115,1.239 L33.884,1.239 L33.884,42.76 L37.115,42.76 L37.115,1.239 Z M10.961,1.239 L7.73,1.239 L7.73,42.76 L10.961,42.76 L10.961,1.239 Z M52.807,1.239 L49.576,1.239 L49.576,42.76 L52.807,42.76 L52.807,1.239 Z M31.884,1.239 L28.653,1.239 L28.653,42.76 L31.884,42.76 L31.884,1.239 Z M21.423,1.239 L18.192,1.239 L18.192,42.76 L21.423,42.76 L21.423,1.239 Z M63.269,1.239 L60.038,1.239 L60.038,42.76 L63.269,42.76 L63.269,1.239 Z M42.346,1.239 L39.115,1.239 L39.115,42.76 L42.346,42.76 L42.346,1.239 Z" id="Combined-Shape" fill="#FFB116" fill-rule="nonzero"></path>
            <path d="M144,0 C145.104569,0 146,0.554914676 146,1.23943662 L146,42.7605634 C146,43.4450853 145.104569,44 144,44 L77,44 C75.8954305,44 75,43.4450853 75,42.7605634 L75,1.23943662 C75,0.554914676 75.8954305,0 77,0 L144,0 Z M80.73,1.239 L77.5,1.239 L77.5,42.76 L80.73,42.76 L80.73,1.239 Z M122.576,1.239 L119.346,1.239 L119.346,42.76 L122.576,42.76 L122.576,1.239 Z M101.653,1.239 L98.423,1.239 L98.423,42.76 L101.653,42.76 L101.653,1.239 Z M143.5,1.239 L140.269,1.239 L140.269,42.76 L143.5,42.76 L143.5,1.239 Z M91.192,1.239 L87.961,1.239 L87.961,42.76 L91.192,42.76 L91.192,1.239 Z M133.038,1.239 L129.807,1.239 L129.807,42.76 L133.038,42.76 L133.038,1.239 Z M112.115,1.239 L108.884,1.239 L108.884,42.76 L112.115,42.76 L112.115,1.239 Z M85.961,1.239 L82.73,1.239 L82.73,42.76 L85.961,42.76 L85.961,1.239 Z M127.807,1.239 L124.576,1.239 L124.576,42.76 L127.807,42.76 L127.807,1.239 Z M106.884,1.239 L103.653,1.239 L103.653,42.76 L106.884,42.76 L106.884,1.239 Z M96.423,1.239 L93.192,1.239 L93.192,42.76 L96.423,42.76 L96.423,1.239 Z M138.269,1.239 L135.038,1.239 L135.038,42.76 L138.269,42.76 L138.269,1.239 Z M117.346,1.239 L114.115,1.239 L114.115,42.76 L117.346,42.76 L117.346,1.239 Z" id="Combined-Shape-Copy" fill="#FFB116" fill-rule="nonzero"></path>
            <path d="M219,0 C220.104569,0 221,0.554914676 221,1.23943662 L221,42.7605634 C221,43.4450853 220.104569,44 219,44 L152,44 C150.895431,44 150,43.4450853 150,42.7605634 L150,1.23943662 C150,0.554914676 150.895431,0 152,0 L219,0 Z M155.73,1.239 L152.5,1.239 L152.5,42.76 L155.73,42.76 L155.73,1.239 Z M197.576,1.239 L194.346,1.239 L194.346,42.76 L197.576,42.76 L197.576,1.239 Z M176.653,1.239 L173.423,1.239 L173.423,42.76 L176.653,42.76 L176.653,1.239 Z M218.5,1.239 L215.269,1.239 L215.269,42.76 L218.5,42.76 L218.5,1.239 Z M166.192,1.239 L162.961,1.239 L162.961,42.76 L166.192,42.76 L166.192,1.239 Z M208.038,1.239 L204.807,1.239 L204.807,42.76 L208.038,42.76 L208.038,1.239 Z M187.115,1.239 L183.884,1.239 L183.884,42.76 L187.115,42.76 L187.115,1.239 Z M160.961,1.239 L157.73,1.239 L157.73,42.76 L160.961,42.76 L160.961,1.239 Z M202.807,1.239 L199.576,1.239 L199.576,42.76 L202.807,42.76 L202.807,1.239 Z M181.884,1.239 L178.653,1.239 L178.653,42.76 L181.884,42.76 L181.884,1.239 Z M171.423,1.239 L168.192,1.239 L168.192,42.76 L171.423,42.76 L171.423,1.239 Z M213.269,1.239 L210.038,1.239 L210.038,42.76 L213.269,42.76 L213.269,1.239 Z M192.346,1.239 L189.115,1.239 L189.115,42.76 L192.346,42.76 L192.346,1.239 Z" id="Combined-Shape-Copy-2" fill="#FFB116" fill-rule="nonzero"></path>
            <path d="M294,0 C295.104569,0 296,0.554914676 296,1.23943662 L296,42.7605634 C296,43.4450853 295.104569,44 294,44 L227,44 C225.895431,44 225,43.4450853 225,42.7605634 L225,1.23943662 C225,0.554914676 225.895431,0 227,0 L294,0 Z M230.73,1.239 L227.5,1.239 L227.5,42.76 L230.73,42.76 L230.73,1.239 Z M272.576,1.239 L269.346,1.239 L269.346,42.76 L272.576,42.76 L272.576,1.239 Z M251.653,1.239 L248.423,1.239 L248.423,42.76 L251.653,42.76 L251.653,1.239 Z M293.5,1.239 L290.269,1.239 L290.269,42.76 L293.5,42.76 L293.5,1.239 Z M241.192,1.239 L237.961,1.239 L237.961,42.76 L241.192,42.76 L241.192,1.239 Z M283.038,1.239 L279.807,1.239 L279.807,42.76 L283.038,42.76 L283.038,1.239 Z M262.115,1.239 L258.884,1.239 L258.884,42.76 L262.115,42.76 L262.115,1.239 Z M235.961,1.239 L232.73,1.239 L232.73,42.76 L235.961,42.76 L235.961,1.239 Z M277.807,1.239 L274.576,1.239 L274.576,42.76 L277.807,42.76 L277.807,1.239 Z M256.884,1.239 L253.653,1.239 L253.653,42.76 L256.884,42.76 L256.884,1.239 Z M246.423,1.239 L243.192,1.239 L243.192,42.76 L246.423,42.76 L246.423,1.239 Z M288.269,1.239 L285.038,1.239 L285.038,42.76 L288.269,42.76 L288.269,1.239 Z M267.346,1.239 L264.115,1.239 L264.115,42.76 L267.346,42.76 L267.346,1.239 Z" id="Combined-Shape-Copy-3" fill="#FFB116" fill-rule="nonzero"></path>
            <rect id="Rectangle" fill="#ECA20F" x="71" y="11.7746479" width="4" height="16.1126761"></rect>
            <rect id="Rectangle-Copy-4" fill="#ECA20F" x="146" y="11.7746479" width="4" height="16.1126761"></rect>
            <rect id="Rectangle-Copy-6" fill="#ECA20F" x="221" y="11.7746479" width="4" height="16.1126761"></rect>
        </g>
        <rect id="Rectangle" stroke="#000000" fill="#FFFFFF" x="217.631594" y="139.5" width="36.6724657" height="36.6724657" rx="3"></rect>
        <g id="Group" transform="translate(201.076923, 99.519842)">
            <rect id="Rectangle" stroke="#979797" fill="#000000" x="-0.5" y="-0.5" width="70.7692308" height="31" rx="2"></rect>
            <ellipse id="Oval" stroke="#FFFFFF" fill="#E62D36" cx="34.8846154" cy="15" rx="31.4298672" ry="9.75"></ellipse>
            <text id="PELIGRO" font-family="OpenSans-ExtraBold, Open Sans" font-size="10" font-weight="600" fill="#FFFFFF">
                <tspan x="12.8846154" y="19">PELIGRO</tspan>
            </text>
        </g>
        <circle id="Oval" stroke="#E62D36" stroke-width="3" cx="235.967827" cy="157.836233" r="12.7115385"></circle>
        <line x1="227" y1="150" x2="243.192308" y2="167.192308" id="Line-41" stroke="#E62D36" stroke-width="4" stroke-linecap="square"></line>
        <g id="Group-13" transform="translate(223.000000, 7.000000)">
            <path d="M5.1277704,-2.07168062e-16 L64.8722296,2.07168062e-16 C66.6552671,-1.2037061e-16 67.3018396,0.185651222 67.9536914,0.534265408 C68.6055433,0.882879593 69.1171204,1.39445674 69.4657346,2.04630859 C69.8143488,2.69816044 70,3.34473292 70,5.1277704 L70,64.8722296 C70,66.6552671 69.8143488,67.3018396 69.4657346,67.9536914 C69.1171204,68.6055433 68.6055433,69.1171204 67.9536914,69.4657346 C67.3018396,69.8143488 66.6552671,70 64.8722296,70 L5.1277704,70 C3.34473292,70 2.69816044,69.8143488 2.04630859,69.4657346 C1.39445674,69.1171204 0.882879593,68.6055433 0.534265408,67.9536914 C0.185651222,67.3018396 8.02470732e-17,66.6552671 -1.38112041e-16,64.8722296 L1.38112041e-16,5.1277704 C-8.02470732e-17,3.34473292 0.185651222,2.69816044 0.534265408,2.04630859 C0.882879593,1.39445674 1.39445674,0.882879593 2.04630859,0.534265408 C2.69816044,0.185651222 3.34473292,1.2037061e-16 5.1277704,-2.07168062e-16 Z" id="Rectangle-Copy-7" fill="#FF6060"></path>
            <g id="Group-10" transform="translate(20.077256, 14.598573)" fill="#FFFFFF">
                <path d="M21.994,20.2953051 L24.648,30.9503051 L28.6892308,30.9503125 L31.0892308,37.0796875 L31.0892308,38.0926562 L-1.70530257e-13,38.0926562 L-1.70530257e-13,37.0796875 L1.8190024,30.9503125 L6.44,30.9503051 L9.093,20.2953051 L21.994,20.2953051 Z M19.37,9.75930508 L20.631,14.8223051 L10.457,14.8223051 L11.718,9.75930508 L19.37,9.75930508 Z M16.0086779,0.480683665 C16.6978865,0.652354683 17.2360187,1.19048689 17.4076897,1.87969554 L18.409,5.90130508 L12.679,5.90130508 L13.681541,1.87969554 C13.9378357,0.850747988 14.9797303,0.224389038 16.0086779,0.480683665 Z" id="Combined-Shape"></path>
            </g>
        </g>
    </g>
</svg>