<?xml version="1.0" encoding="UTF-8"?>
<svg width="86px" height="87px" viewBox="0 0 86 87" version="1.1" xmlns="http://www.w3.org/2000/svg" xmlns:xlink="http://www.w3.org/1999/xlink">
    <title>7</title>
    <g id="Page-1" stroke="none" stroke-width="1" fill="none" fill-rule="evenodd">
        <g id="7" transform="translate(1.000000, 1.282278)">
            <polygon id="Fill-144" fill="#FFFFFF" points="-7.10542736e-15 84.033 84.033 84.033 84.033 0 -7.10542736e-15 0"></polygon>
            <polygon id="Stroke-145" stroke="#000000" stroke-width="1.006" points="-7.10542736e-15 84.033 84.033 84.033 84.033 0 -7.10542736e-15 0"></polygon>
            <g id="Group-178" transform="translate(6.150000, 5.158000)">
                <path d="M32.4288,25.099 C31.0498,23.537 27.7348,21.658 19.7458,21.658 L19.5578,21.658 C11.5688,21.658 8.2488,23.534 6.8748,25.099 C6.9628,25.271 7.0188,25.458 7.0598,25.65 L7.6858,28.873 L31.6178,28.873 L32.2438,25.65 C32.3068,25.399 32.4128,25.136 32.4288,25.099 C32.4288,25.099 32.4288,25.099 32.4288,25.099 L32.4288,25.099 Z M13.2678,12.491 L12.9988,12.491 C12.9838,12.677 12.9708,12.865 12.9708,13.056 C12.9708,16.745 15.9618,19.737 19.6518,19.737 C23.3418,19.737 26.3328,16.745 26.3328,13.056 C26.3328,12.865 26.3198,12.677 26.3048,12.491 L26.0358,12.491 L25.3348,13.193 L13.9698,13.193 L13.2678,12.491 Z M28.4688,10.212 C28.4688,9.869 28.3048,9.565 28.0508,9.371 L28.0518,9.37 L27.0488,8.635 L27.0478,8.635 C27.0478,6.063 25.7138,3.804 23.7018,2.507 C23.5598,4.356 23.1098,6.12 22.4038,7.746 C22.4018,7.749 22.3998,7.756 22.3998,7.756 C22.3708,7.816 22.3098,7.859 22.2378,7.859 C22.1398,7.859 22.0608,7.78 22.0608,7.682 C22.0608,7.668 22.0638,7.654 22.0678,7.641 C22.0708,7.627 22.0738,7.614 22.0748,7.612 C22.6298,5.969 22.9318,4.21 22.9318,2.38 C22.9318,2.276 22.9288,2.173 22.9268,2.07 C22.9268,2.07 22.9258,2.069 22.9258,2.069 C22.9238,1.969 22.9208,1.869 22.9178,1.769 C22.9168,1.763 22.9168,1.758 22.9158,1.752 C22.9018,1.456 22.7108,1.206 22.4458,1.107 C22.4398,1.104 22.4348,1.102 22.4298,1.1 C21.5948,0.804 20.6958,0.643 19.7598,0.643 C18.8218,0.643 17.9228,0.805 17.0868,1.101 C17.0818,1.103 17.0768,1.105 17.0708,1.108 C16.8078,1.208 16.6178,1.456 16.6028,1.752 C16.6018,1.758 16.6018,1.763 16.6018,1.769 C16.5978,1.869 16.5948,1.969 16.5928,2.069 C16.5928,2.069 16.5878,2.276 16.5878,2.38 C16.5878,4.21 16.8888,5.969 17.4438,7.612 C17.4458,7.616 17.4498,7.631 17.4498,7.631 C17.4548,7.647 17.4578,7.664 17.4578,7.682 C17.4578,7.78 17.3788,7.859 17.2808,7.859 C17.2088,7.859 17.1478,7.816 17.1198,7.756 C17.1198,7.756 17.1168,7.749 17.1148,7.746 C16.4088,6.12 15.9588,4.356 15.8168,2.507 C13.8048,3.804 12.4708,6.063 12.4708,8.635 L12.4698,8.635 L11.4668,9.37 L11.4678,9.371 C11.2148,9.565 11.0508,9.869 11.0508,10.212 C11.0508,10.797 11.5248,11.272 12.1098,11.272 L13.8748,11.272 L14.5808,11.978 L24.9378,11.978 L25.6438,11.272 L27.4088,11.272 C27.9938,11.272 28.4688,10.797 28.4688,10.212 L28.4688,10.212 Z" id="Fill-146" fill="#D8D8D8"></path>
                <path d="M39.0755,26.3445 C38.8595,27.7655 37.4165,28.8655 35.6765,28.8735 L3.6275,28.8725 C1.8875,28.8655 0.4445,27.7655 0.2285,26.3445 L3.7095,44.3385 C4.1575,46.2115 5.8475,47.6085 7.8575,47.6085 C9.5445,47.6085 29.0945,47.6085 31.4465,47.6085 C33.4565,47.6085 35.1465,46.2115 35.5935,44.3385 L39.0755,26.3445 Z" id="Fill-148" fill="#EE7402"></path>
                <path d="M39.0755,26.3445 C38.8595,27.7655 37.4165,28.8655 35.6765,28.8735 L3.6275,28.8725 C1.8875,28.8655 0.4445,27.7655 0.2285,26.3445 L3.7095,44.3385 C4.1575,46.2115 5.8475,47.6085 7.8575,47.6085 C9.5445,47.6085 29.0945,47.6085 31.4465,47.6085 C33.4565,47.6085 35.1465,46.2115 35.5935,44.3385 L39.0755,26.3445 Z" id="Stroke-150" stroke="#FFFFFF" stroke-width="0.601" stroke-linecap="round" stroke-linejoin="round"></path>
                <path d="M35.6956,25.1538 C35.5856,25.7568 35.1626,26.3338 34.4516,26.5318 C33.5796,26.7728 32.7036,26.3618 32.4956,25.6118 C32.4226,25.3458 32.4536,25.0768 32.5536,24.8268 C32.4176,25.0838 32.3066,25.3558 32.2436,25.6508 L31.6176,28.8728 L34.9796,28.8728 C34.9806,28.8658 35.7206,25.0168 35.6956,25.1538 M4.3236,28.8728 L7.6856,28.8728 L7.0596,25.6498 C6.9976,25.3558 6.8856,25.0838 6.7506,24.8268 C6.8506,25.0768 6.8816,25.3458 6.8076,25.6118 C6.5996,26.3618 5.7236,26.7728 4.8516,26.5318 C4.1416,26.3338 3.7186,25.7568 3.6076,25.1538 C3.5826,25.0168 4.3226,28.8658 4.3236,28.8728" id="Fill-152" fill="#EE7402"></path>
                <path d="M35.6956,25.1538 C35.5856,25.7568 35.1626,26.3338 34.4516,26.5318 C33.5796,26.7728 32.7036,26.3618 32.4956,25.6118 C32.4226,25.3458 32.4536,25.0768 32.5536,24.8268 C32.4176,25.0838 32.3066,25.3558 32.2436,25.6508 L31.6176,28.8728 L34.9796,28.8728 C34.9806,28.8658 35.7206,25.0168 35.6956,25.1538 Z M4.3236,28.8728 L7.6856,28.8728 L7.0596,25.6498 C6.9976,25.3558 6.8856,25.0838 6.7506,24.8268 C6.8506,25.0768 6.8816,25.3458 6.8076,25.6118 C6.5996,26.3618 5.7236,26.7728 4.8516,26.5318 C4.1416,26.3338 3.7186,25.7568 3.6076,25.1538 C3.5826,25.0168 4.3226,28.8658 4.3236,28.8728 Z" id="Stroke-154" stroke="#FFFFFF" stroke-width="0.601" stroke-linecap="round" stroke-linejoin="round"></path>
                <path d="M39.0953,25.9734 C39.0953,24.3714 37.5563,23.0734 35.6583,23.0734 C34.2343,23.0734 33.1063,23.7754 32.5513,24.8324 C32.4533,25.0814 32.4223,25.3474 32.4963,25.6114 C32.7043,26.3614 33.5793,26.7734 34.4513,26.5314 C35.1623,26.3344 35.5853,25.7574 35.6953,25.1534 C35.7203,25.0174 34.9813,28.8654 34.9793,28.8734 L35.6763,28.8734 C37.4163,28.8654 38.8593,27.7654 39.0753,26.3444 C39.0943,26.2234 39.0953,26.0994 39.0953,25.9734 L39.0953,25.9734 Z M32.3793,25.2074 C32.4273,25.0774 32.4883,24.9534 32.5513,24.8324 C32.5523,24.8304 32.5523,24.8294 32.5533,24.8274 C32.4883,24.9504 32.4303,25.0764 32.3793,25.2074 L32.3793,25.2074 Z M32.2443,25.6504 C32.2443,25.6494 32.2443,25.6494 32.2443,25.6494 C32.2443,25.6494 32.2443,25.6494 32.2443,25.6504 L31.6183,28.8734 L32.2443,25.6504 Z M7.0593,25.6504 L7.6853,28.8734 L7.0593,25.6504 C7.0593,25.6494 7.0593,25.6494 7.0593,25.6484 C7.0593,25.6494 7.0593,25.6494 7.0593,25.6504 L7.0593,25.6504 Z M6.7523,24.8324 C6.1973,23.7754 5.0693,23.0724 3.6453,23.0724 C1.7473,23.0724 0.2083,24.3714 0.2083,25.9734 C0.2083,26.0994 0.2103,26.2234 0.2283,26.3444 C0.4443,27.7654 1.8873,28.8654 3.6273,28.8734 L4.3243,28.8734 C4.3223,28.8654 3.5833,25.0174 3.6083,25.1534 C3.7183,25.7574 4.1413,26.3344 4.8523,26.5314 C5.7243,26.7734 6.5993,26.3614 6.8073,25.6114 C6.8813,25.3474 6.8503,25.0804 6.7523,24.8324 L6.7523,24.8324 Z M6.7523,24.8324 C6.8153,24.9534 6.8763,25.0774 6.9243,25.2074 C6.8733,25.0764 6.8153,24.9504 6.7503,24.8274 C6.7513,24.8284 6.7513,24.8304 6.7523,24.8324 L6.7523,24.8324 Z" id="Fill-156" fill="#EE7402"></path>
                <path d="M39.0953,25.9734 C39.0953,24.3714 37.5563,23.0734 35.6583,23.0734 C34.2343,23.0734 33.1063,23.7754 32.5513,24.8324 C32.4533,25.0814 32.4223,25.3474 32.4963,25.6114 C32.7043,26.3614 33.5793,26.7734 34.4513,26.5314 C35.1623,26.3344 35.5853,25.7574 35.6953,25.1534 C35.7203,25.0174 34.9813,28.8654 34.9793,28.8734 L35.6763,28.8734 C37.4163,28.8654 38.8593,27.7654 39.0753,26.3444 C39.0943,26.2234 39.0953,26.0994 39.0953,25.9734 Z M32.3793,25.2074 C32.4273,25.0774 32.4883,24.9534 32.5513,24.8324 C32.5523,24.8304 32.5523,24.8294 32.5533,24.8274 C32.4883,24.9504 32.4303,25.0764 32.3793,25.2074 Z M32.2443,25.6504 C32.2443,25.6494 32.2443,25.6494 32.2443,25.6494 C32.2443,25.6494 32.2443,25.6494 32.2443,25.6504 L31.6183,28.8734 L32.2443,25.6504 Z M7.0593,25.6504 L7.6853,28.8734 L7.0593,25.6504 C7.0593,25.6494 7.0593,25.6494 7.0593,25.6484 C7.0593,25.6494 7.0593,25.6494 7.0593,25.6504 Z M6.7523,24.8324 C6.1973,23.7754 5.0693,23.0724 3.6453,23.0724 C1.7473,23.0724 0.2083,24.3714 0.2083,25.9734 C0.2083,26.0994 0.2103,26.2234 0.2283,26.3444 C0.4443,27.7654 1.8873,28.8654 3.6273,28.8734 L4.3243,28.8734 C4.3223,28.8654 3.5833,25.0174 3.6083,25.1534 C3.7183,25.7574 4.1413,26.3344 4.8523,26.5314 C5.7243,26.7734 6.5993,26.3614 6.8073,25.6114 C6.8813,25.3474 6.8503,25.0804 6.7523,24.8324 Z M6.7523,24.8324 C6.8153,24.9534 6.8763,25.0774 6.9243,25.2074 C6.8733,25.0764 6.8153,24.9504 6.7503,24.8274 C6.7513,24.8284 6.7513,24.8304 6.7523,24.8324 Z" id="Stroke-158" stroke="#FFFFFF" stroke-width="0.601" stroke-linecap="round" stroke-linejoin="round"></path>
                <path d="M37.8364,32.7625 C37.8354,32.7625 37.8354,32.7625 37.8344,32.7625 L37.4504,34.7075 L35.6014,34.4135 C32.8314,34.0975 32.5154,36.8685 32.5154,36.8685 C32.1994,39.6395 34.9704,39.9545 34.9704,39.9545 L36.6754,40.1405369 C37.3844,40.1455 38.0304,39.6425 38.1694,38.9205 L39.0254,34.5215 C39.1834,33.7085 38.6504,32.9195 37.8364,32.7625 M6.7884,36.8685 C6.7884,36.8685 6.4724,34.0975 3.7024,34.4135 L1.8534,34.7075 L1.4694,32.7625 C1.4684,32.7625 1.4684,32.7625 1.4674,32.7625 C0.6534,32.9195 0.1204,33.7085 0.2784,34.5215 L1.1344,38.9205 C1.2734,39.6425 1.9184,40.1455 2.6284,40.1405369 L4.3334,39.9545 C4.3334,39.9545 7.1044,39.6395 6.7884,36.8685" id="Fill-160" fill="#D8D8D8"></path>
                <path d="M37.8364,32.7625 C37.8354,32.7625 37.8354,32.7625 37.8344,32.7625 L37.4504,34.7075 L35.6014,34.4135 C32.8314,34.0975 32.5154,36.8685 32.5154,36.8685 C32.1994,39.6395 34.9704,39.9545 34.9704,39.9545 L36.6754,40.1405369 C37.3844,40.1455 38.0304,39.6425 38.1694,38.9205 L39.0254,34.5215 C39.1834,33.7085 38.6504,32.9195 37.8364,32.7625 Z M6.7884,36.8685 C6.7884,36.8685 6.4724,34.0975 3.7024,34.4135 L1.8534,34.7075 L1.4694,32.7625 C1.4684,32.7625 1.4684,32.7625 1.4674,32.7625 C0.6534,32.9195 0.1204,33.7085 0.2784,34.5215 L1.1344,38.9205 C1.2734,39.6425 1.9184,40.1455 2.6284,40.1405369 L4.3334,39.9545 C4.3334,39.9545 7.1044,39.6395 6.7884,36.8685 Z" id="Stroke-162" stroke="#FFFFFF" stroke-width="0.601" stroke-linecap="round" stroke-linejoin="round"></path>
                <path d="M55.1467,43.5348 C54.9957,42.6798 55.5677,41.8628 56.4227,41.7118 C57.2787,41.5618 58.0957,42.1328 58.2457,42.9878 C58.3967,43.8438 57.8247,44.6608 56.9697,44.8118 C56.1137,44.9628 55.2977,44.3908 55.1467,43.5348 L55.1467,43.5348 Z M49.3737,72.4098 C49.6157,73.7798 50.9207,74.6938 52.2907,74.4518 L71.5047,71.0638 C72.8747,70.8228 73.7877,69.5178 73.5467,68.1478 L69.0557,42.6808 C68.8147,41.3108 67.5097,40.3968 66.1397,40.6378 L61.0877,41.5288 C60.2867,39.4848 58.1267,38.2168 55.8767,38.6138 C53.6277,39.0098 52.0307,40.9398 51.9777,43.1348 L46.9257,44.0258 C45.5557,44.2678 44.6417,45.5728 44.8837,46.9428 L49.3737,72.4098 Z" id="Fill-164" fill="#EE7402"></path>
                <path d="M52.4317,46.3232 L52.6387,47.4362 C52.7727,48.1922 53.4877,48.6932 54.2437,48.5602 L60.8127,47.4012 C61.5687,47.2682 62.0697,46.5532 61.9357,45.7972 L61.7407,44.6902 L66.1487,43.9172 C66.9047,43.7842 67.6197,44.2842 67.7527,45.0402 L71.7887,67.8982 C71.9217,68.6542 71.4217,69.3682 70.6647,69.5022 L52.5447,72.6972 C51.7887,72.8302 51.0737,72.3302 50.9407,71.5742 L46.9097,48.7122 C46.7757,47.9552 47.2757,47.2412 48.0327,47.1082" id="Fill-166" fill="#FFFFFF"></path>
                <path d="M55.1623,50.2759 C54.7973,50.1059 54.3653,50.2569 54.1833,50.6129 L54.1823,50.6119 L52.6973,53.7959 L51.9573,53.0549 L51.9563,53.0559 C51.6633,52.7839 51.2053,52.7899 50.9203,53.0749 C50.6353,53.3599 50.6303,53.8169 50.9023,54.1099 L50.9013,54.1109 L50.9203,54.1299 L50.9203,54.1299 L50.9203,54.1299 L52.4173,55.6269 L52.4183,55.6269 C52.4733,55.6769 52.5363,55.7209 52.6083,55.7539 C52.9813,55.9279 53.4253,55.7659 53.6003,55.3929 C53.6013,55.3889 53.6033,55.3849 53.6043,55.3809 L53.6053,55.3819 L55.5233,51.2679 C55.5233,51.2679 55.5233,51.2679 55.5233,51.2679 C55.5233,51.2679 55.5233,51.2679 55.5233,51.2679 L55.5353,51.2429 L55.5333,51.2429 C55.6893,50.8739 55.5273,50.4459 55.1623,50.2759" id="Fill-168" fill="#234483"></path>
                <path d="M65.0702,50.3396 L58.3752,51.5206 C57.9992,51.5866 57.7472,51.9456 57.8132,52.3216 C57.8802,52.6986 58.2392,52.9506 58.6162,52.8836 L65.3102,51.7036 C65.6872,51.6366 65.9382,51.2776 65.8722,50.9016 C65.8062,50.5246 65.4462,50.2736 65.0702,50.3396" id="Fill-170" fill="#5F5E5E"></path>
                <path d="M56.4006,57.2984 C56.0356,57.1284 55.6036,57.2794 55.4216,57.6354 L55.4206,57.6344 L53.9356,60.8184 L53.1956,60.0774 L53.1946,60.0784 C52.9016,59.8064 52.4436,59.8124 52.1586,60.0974 C51.8736,60.3824 51.8686,60.8394 52.1406,61.1324 L52.1396,61.1334 L52.1586,61.1524 L52.1586,61.1524 L52.1586,61.1524 L53.6556,62.6494 L53.6566,62.6494 C53.7116,62.6994 53.7746,62.7434 53.8466,62.7764 C54.2196,62.9504 54.6636,62.7884 54.8386,62.4154 C54.8396,62.4114 54.8416,62.4074 54.8426,62.4034 L54.8436,62.4044 L56.7616,58.2904 C56.7616,58.2904 56.7616,58.2904 56.7616,58.2904 L56.7616,58.2904 L56.7736,58.2654 L56.7716,58.2654 C56.9276,57.8964 56.7656,57.4684 56.4006,57.2984" id="Fill-172" fill="#234483"></path>
                <path d="M66.3084,57.3621 L59.6134,58.5431 C59.2374,58.6091 58.9854,58.9681 59.0514,59.3451 C59.1184,59.7211 59.4774,59.9731 59.8544,59.9061 L66.5484,58.7261 C66.9254,58.6591 67.1764,58.3001 67.1104,57.9241 C67.0444,57.5471 66.6844,57.2961 66.3084,57.3621" id="Fill-174" fill="#5F5E5E"></path>
                <path d="M67.5467,64.3846 L60.8517,65.5646 C60.4757,65.6316 60.2237,65.9906 60.2897,66.3666 C60.3567,66.7436 60.7157,66.9956 61.0927,66.9286 L67.7867,65.7486 C68.1637,65.6816 68.4147,65.3226 68.3487,64.9466 C68.2827,64.5696 67.9227,64.3186 67.5467,64.3846" id="Fill-176" fill="#5F5E5E"></path>
            </g>
        </g>
    </g>
</svg>