<?xml version="1.0" encoding="UTF-8"?>
<svg width="300px" height="300px" viewBox="0 0 300 300" version="1.1" xmlns="http://www.w3.org/2000/svg" xmlns:xlink="http://www.w3.org/1999/xlink">
    <title>Atrapamiento/Aplastamiento</title>
    <g id="Atrapamiento/Aplastamiento" stroke="none" stroke-width="1" fill="none" fill-rule="evenodd">
        <g id="Group-2" transform="translate(1.702623, 16.837686)">
            <path d="M148.17541,-1.70530257e-13 C162.634426,-1.70530257e-13 175.17541,8.21652893 181.504918,20.261157 L181.504918,20.261157 L291.181967,211.8 L291.478172,212.326474 C294.49798,217.793003 296.242623,224.070713 296.242623,230.771901 C296.242623,251.771901 279.363934,268.790083 258.536066,268.790083 L258.536066,268.790083 L258.536066,268.844628 L37.7114754,268.844628 C16.8836066,268.844628 -5.68434189e-14,251.821488 -5.68434189e-14,230.821488 C-5.68434189e-14,223.889256 1.87377049,217.408264 5.0852459,211.814876 L5.0852459,211.814876 L5.06557377,211.8 L115.47541,18.9818182 L115.544262,19.0264463 C122.065574,7.6661157 134.218033,-1.70530257e-13 148.17541,-1.70530257e-13 Z M148.174426,13.2575207 C139.085902,13.2575207 131.167869,18.2509091 126.918689,25.6492562 L126.854754,25.6095868 L16.444918,218.427769 L16.4645902,218.437686 C14.3695082,222.082314 13.1498361,226.307107 13.1498361,230.824463 C13.1498361,244.500496 24.1465574,255.58314 37.7104918,255.58314 L37.7154098,255.58314 L37.7154098,255.588099 L258.535082,255.588099 L258.535082,255.533554 C272.099016,255.533554 283.095738,244.44595 283.095738,230.769917 C283.095738,226.193058 281.841639,221.918678 279.692459,218.239339 L169.926885,26.5517355 C165.825246,18.652562 157.626885,13.2575207 148.174426,13.2575207 Z" id="Combined-Shape" fill="#000000"></path>
            <path d="M273.565082,221.27405 L163.981475,29.898843 C161.040492,24.0971901 155.074918,20.1203306 148.174918,20.1203306 C141.604426,20.1203306 135.879836,23.7302479 132.810984,29.0757025 L132.751967,29.0459504 L22.3470492,221.859174 L22.3568852,221.864132 C20.8372131,224.502149 19.9568852,227.556694 19.9568852,230.824463 C19.9568852,240.712066 27.9044262,248.725289 37.7109836,248.725289 C37.7109836,248.725289 37.7159016,248.725289 37.7159016,248.725289 L258.535574,248.725289 L258.535574,248.670744 C268.342131,248.670744 276.289672,240.657521 276.289672,230.774876 C276.289672,227.279008 275.281475,224.031074 273.565082,221.27405" id="Fill-46" fill="#FFDF00"></path>
            <g id="Group" transform="translate(76.511311, 94.162314)" fill="#1A1919">
                <path d="M113.299577,49.23996 C114.570077,47.83548 117.018677,45.18822 118.677257,44.91102 C121.190537,44.4906 130.680017,43.5666 133.336517,43.09536 C135.711197,42.67494 137.526857,41.2104 136.967837,38.346 C136.459637,35.74956 134.066477,35.2737 131.105057,35.2737 C128.448557,35.2737 115.253837,35.76342 112.671257,37.7916 C110.504477,39.48714 108.342317,41.0025 107.224277,41.83872 C106.106237,42.67494 104.433797,41.349 105.408617,39.88446 C106.388057,38.41992 108.619517,34.7193 110.716997,32.2014 C112.703597,29.8221 117.240437,25.1328 118.815857,22.5687 C119.933897,20.75304 120.072497,18.23976 117.697817,16.77522 C115.193777,15.22752 113.341157,16.52574 110.578397,19.635 C108.342317,22.14828 105.829037,24.73548 104.013377,26.89764 C103.010837,28.09422 99.5458371,31.7856 97.3097571,34.9965 C95.2769571,37.92096 94.3806771,39.81516 90.7493571,41.56152 C90.2919771,41.77866 89.3633571,42.06972 88.0789971,42.40698 L89.4234171,44.75394 C87.3120771,47.5629 84.7341171,50.0115 81.7634571,51.93804 L77.1342171,48.82878 L77.0926371,54.40512 C74.2282371,55.61094 71.1374571,56.4102 67.8711171,56.68278 C67.5292371,56.7105 67.1965971,56.70126 66.8547171,56.71512 L64.3922571,51.68856 L61.5232371,56.53494 C57.9704571,56.07756 54.6024771,54.98262 51.5209371,53.37948 L51.7750371,49.8036 C51.2991771,49.896 50.9295771,49.96992 50.7401571,50.00688 C48.0882771,50.5659 32.7591171,54.20646 22.7429571,60.76224 C13.2488571,66.97614 2.66905706,73.42104 0.959657056,75.6294 C-1.41502294,78.7017 0.821057056,89.31384 5.42719706,95.87886 C10.0379571,102.44388 14.3668971,106.1445 16.4597571,104.74464 C18.5526171,103.3494 25.2562371,96.9969 28.0513371,95.67096 C29.8207971,94.83012 33.7755171,97.1355 37.4068371,97.2741 C41.0381571,97.4127 45.3670971,97.69452 48.0189771,100.3464 C50.6708571,103.0029 55.4202171,109.98372 57.2358771,117.03384 C59.0007171,123.90378 62.3548371,123.68664 63.6576771,123.10914 C65.5426371,122.27292 71.2206171,118.17498 67.2889971,105.37296 C64.0087971,94.69152 61.2829971,94.97334 61.4215971,88.20042 C61.5463371,82.26372 65.7505371,74.70078 72.5742771,69.47556 L71.9736771,67.55364 C75.2723571,63.81606 79.4534571,60.8916 84.1981971,59.09442 L88.9983771,62.86434 C89.5065771,62.76732 90.0147771,62.67492 90.5275971,62.58714 L93.4012371,57.1494 C93.9833571,57.11706 94.5608571,57.06162 95.1522171,57.06162 C99.7491171,57.06162 104.096537,58.08726 108.014297,59.88444 L108.115937,60.74838 C112.070657,60.55896 115.350857,60.52662 117.282017,60.54972 C123.283397,60.61902 133.059317,61.24734 135.152177,61.24734 C137.249657,61.24734 141.019577,61.24734 141.717197,57.75924 C142.414817,54.26652 140.497517,52.65876 135.641897,52.03044 C131.312957,51.47604 123.703817,50.4273 120.631517,50.4273 C118.534037,50.4273 116.163977,50.98632 115.115237,51.40212 C113.641457,51.99348 111.973637,50.7045 113.299577,49.23996" id="Fill-271"></path>
                <path d="M87.3998571,17.36196 C86.8870371,16.1469 86.2771971,14.98728 85.5841971,13.88772 L87.3213171,11.33748 C85.9537971,9.38784 84.3552771,7.623 82.5396171,6.10764 L79.8276771,7.63686 C78.7604571,6.82836 77.6331771,6.10302 76.4458371,5.48394 L76.6675971,2.38854 C74.5423971,1.39986 72.2785971,0.693 69.9131571,0.28644 L68.3515971,2.92908 C67.0256571,2.76276 65.6627571,2.73042 64.2813771,2.7951 L62.9138571,0 C60.4975971,0.22176 58.1922171,0.77154 56.0254371,1.58004 L56.0023371,4.67082 C54.7549371,5.1975 53.5629771,5.82582 52.4403171,6.54654 L49.8900771,4.83252 C47.9496771,6.2139 46.1986971,7.8309 44.6971971,9.66042 L46.2402771,12.3585 C45.4594971,13.398 44.7664971,14.50218 44.1612771,15.6618 L41.0658771,15.44466 C40.0818171,17.5791 39.3841971,19.86138 38.9868771,22.23606 L41.6295171,23.77914 C41.4816771,25.0404 41.4585771,26.334 41.5140171,27.64146 L38.7004371,28.99974 C38.9129571,31.42986 39.4673571,33.73986 40.2712371,35.92512 L43.3527771,35.94822 C43.8655971,37.16328 44.4708171,38.3229 45.1684371,39.42246 L43.4313171,41.9727 C44.7942171,43.92234 46.3927371,45.68718 48.2083971,47.20254 L50.9249571,45.67332 C51.9875571,46.48644 53.1148371,47.20716 54.3067971,47.83086 L54.0850371,50.92626 C56.2056171,51.91494 58.4740371,52.61718 60.8348571,53.02374 L62.4010371,50.3811 C63.7269771,50.54742 65.0898771,50.57976 66.4666371,50.51508 L67.8387771,53.3148 C70.2550371,53.09304 72.5557971,52.53864 74.7271971,51.73014 L74.7502971,48.64398 C75.9976971,48.11268 77.1896571,47.48898 78.3076971,46.76364 L80.8625571,48.47766 C82.8029571,47.09628 84.5493171,45.47928 86.0554371,43.65438 L84.5123571,40.9563 C85.2885171,39.91218 85.9861371,38.808 86.5867371,37.64838 L89.6821371,37.86552 C90.6708171,35.73108 91.3684371,33.45342 91.7657571,31.07412 L89.1184971,29.53104 C89.2709571,28.26978 89.2940571,26.97618 89.2386171,25.66872 L92.0475771,24.31044 C91.8350571,21.88494 91.2852771,19.57032 90.4813971,17.38506 L87.3998571,17.36196 Z M83.2464771,25.16976 C84.0688371,35.0427 76.7322771,43.70982 66.8593371,44.52756 C56.9910171,45.34992 48.3238971,38.01336 47.5015371,28.14042 C46.6837971,18.26748 54.0203571,9.60036 63.8886771,8.78262 C73.7616171,7.96026 82.4287371,15.29682 83.2464771,25.16976 L83.2464771,25.16976 Z" id="Fill-273"></path>
                <path d="M118.966469,85.990212 C118.795529,83.957412 118.365869,82.003152 117.723689,80.145912 L120.306269,76.907292 C118.934129,73.793412 117.012209,70.979832 114.646769,68.600532 L110.687429,69.834072 C109.135109,68.508132 107.411849,67.390092 105.559229,66.489192 L105.083369,62.372772 C102.024929,61.190052 98.7123891,60.510912 95.2381491,60.501672 L93.2977491,64.179192 C91.1586891,64.340892 89.1074091,64.789032 87.1623891,65.482032 L83.9052891,62.922552 C80.8145091,64.308552 78.0147891,66.235092 75.6585891,68.605152 L76.9013691,72.569112 C75.5800491,74.126052 74.4758691,75.858552 73.5842091,77.720412 L69.4816491,78.200892 C68.3174091,81.250092 67.6521291,84.539532 67.6521291,87.995292 C67.6521291,88.027632 67.6567491,88.059972 67.6567491,88.092312 L71.3435091,90.000372 C71.5098291,92.037792 71.9394891,93.992052 72.5862891,95.849292 L70.0037091,99.087912 C71.3758491,102.201792 73.2977691,105.015372 75.6632091,107.394672 L79.6225491,106.156512 C81.1748691,107.487072 82.8981291,108.605112 84.7507491,109.506012 L85.2266091,113.622432 C88.2850491,114.805152 91.5975891,115.479672 95.0718291,115.493532 L97.0122291,111.816012 C99.1512891,111.649692 101.202569,111.201552 103.147589,110.513172 L106.404689,113.072652 C109.495469,111.682032 112.295189,109.755492 114.651389,107.385432 L113.408609,103.426092 C114.725309,101.869152 115.834109,100.132032 116.721149,98.270172 L120.828329,97.789692 C121.987949,94.745112 122.653229,91.451052 122.653229,87.995292 C122.653229,87.962952 122.648609,87.935232 122.648609,87.902892 L118.966469,85.990212 Z M113.089829,87.995292 C113.089829,97.900572 105.060269,105.930132 95.1549891,105.930132 C85.2497091,105.930132 77.2201491,97.900572 77.2201491,87.995292 C77.2201491,78.090012 85.2497091,70.060452 95.1549891,70.060452 C105.060269,70.060452 113.089829,78.090012 113.089829,87.995292 L113.089829,87.995292 Z" id="Fill-275"></path>
            </g>
        </g>
    </g>
</svg>