<?xml version="1.0" encoding="UTF-8"?>
<svg width="300px" height="300px" viewBox="0 0 300 300" version="1.1" xmlns="http://www.w3.org/2000/svg" xmlns:xlink="http://www.w3.org/1999/xlink">
    <title>Caídas de aceros de perforación</title>
    <g id="Caídas-de-aceros-de-perforación" stroke="none" stroke-width="1" fill="none" fill-rule="evenodd">
        <path d="M149.878033,16.837686 C164.337049,16.837686 176.878033,25.0542149 183.207541,37.098843 L183.207541,37.098843 L292.88459,228.637686 L293.180795,229.16416 C296.200603,234.630689 297.945246,240.908399 297.945246,247.609587 C297.945246,268.609587 281.066557,285.627769 260.238689,285.627769 L260.238689,285.627769 L260.238689,285.682314 L39.4140984,285.682314 C18.5862295,285.682314 1.70262295,268.659174 1.70262295,247.659174 C1.70262295,240.726942 3.57639344,234.24595 6.78786885,228.652562 L6.78786885,228.652562 L6.76819672,228.637686 L117.178033,35.8195041 L117.246885,35.8641322 C123.768197,24.5038017 135.920656,16.837686 149.878033,16.837686 Z M149.877049,30.0952066 C140.788525,30.0952066 132.870492,35.088595 128.621311,42.4869421 L128.557377,42.4472727 L18.147541,235.265455 L18.1672131,235.275372 C16.0721311,238.92 14.852459,243.144793 14.852459,247.662149 C14.852459,261.338182 25.8491803,272.420826 39.4131148,272.420826 L39.4180328,272.420826 L39.4180328,272.425785 L260.237705,272.425785 L260.237705,272.37124 C273.801639,272.37124 284.798361,261.283636 284.798361,247.607603 C284.798361,243.030744 283.544262,238.756364 281.395082,235.077025 L171.629508,43.3894215 C167.527869,35.4902479 159.329508,30.0952066 149.877049,30.0952066 Z" id="Combined-Shape" fill="#000000"></path>
        <path d="M275.267705,238.111736 L165.684098,46.7365289 C162.743115,40.934876 156.777541,36.9580165 149.877541,36.9580165 C143.307049,36.9580165 137.582459,40.5679339 134.513607,45.9133884 L134.45459,45.8836364 L24.0496721,238.69686 L24.0595082,238.701818 C22.5398361,241.339835 21.6595082,244.39438 21.6595082,247.662149 C21.6595082,257.549752 29.6070492,265.562975 39.4136066,265.562975 C39.4136066,265.562975 39.4185246,265.562975 39.4185246,265.562975 L260.238197,265.562975 L260.238197,265.50843 C270.044754,265.50843 277.992295,257.495207 277.992295,247.612562 C277.992295,244.116694 276.984098,240.86876 275.267705,238.111736" id="Fill-46" fill="#FFDF00"></path>
        <g id="Group-13" transform="translate(69.000000, 98.000000)" fill="#000000">
            <g id="Group-3">
                <path d="M118.661053,57.2692778 C120.782918,57.2692778 122.512012,58.9722706 122.544283,61.0938903 L122.555314,61.9132778 L129.718177,60.7693474 C130.573646,60.6327485 131.437142,60.9619107 131.984606,61.6333034 L138.08311,69.1123143 C138.931223,70.1524138 138.775588,71.6831128 137.735489,72.5312264 C137.377191,72.8233879 136.942985,73.0072767 136.483837,73.0613075 L122.750314,74.6772778 L123.447137,120.44984 C123.487343,123.093121 121.377134,125.268518 118.733853,125.308724 L118.661053,125.309278 L118.661053,125.309278 C116.017466,125.309278 113.874415,123.166227 113.874415,120.52264 L113.874969,120.44984 L113.874969,120.44984 L114.556314,75.6412778 L107.738308,76.4439785 C106.405453,76.6008241 105.197812,75.6474801 105.040966,74.3146249 C105.020693,74.1423494 105.018925,73.9683983 105.035692,73.7957463 L105.750419,66.4361549 C105.85731,65.3354931 106.693873,64.4458065 107.785879,64.2714379 L114.746314,63.1602778 L114.777822,61.0938903 C114.810094,58.9722706 116.539188,57.2692778 118.661053,57.2692778 Z" id="Combined-Shape" transform="translate(121.827116, 91.289278) rotate(-135.000000) translate(-121.827116, -91.289278) "></path>
                <path d="M33.1707297,80.1808804 C36.5672224,80.0903765 39.6183415,82.2456422 40.668288,85.4770453 L43.228241,93.3557704 C43.829878,95.2074188 42.8165436,97.1961995 40.9648953,97.7978365 C40.8022502,97.8506831 40.6359752,97.8916244 40.4673875,97.9203361 C38.1891434,98.3083375 36.5817697,100.368287 36.7592803,102.672508 L39.3385913,136.153889 C39.5294847,138.631828 37.6754679,140.795344 35.1975289,140.986238 C35.0825275,140.995097 34.967228,140.999532 34.8518858,140.999532 C32.2274641,140.999532 30.09995,138.872018 30.09995,136.247596 C30.09995,136.211981 30.1003504,136.176367 30.1011511,136.14076 L30.825096,103.948622 C30.9003542,100.602064 29.6094302,97.3691853 27.2497819,94.9949127 L25.7129947,93.448601 C24.3951113,92.1225498 23.9547042,90.1580976 24.5803357,88.3963333 L25.5263596,85.7323509 C26.6815691,82.4793065 29.7198818,80.2728326 33.1707297,80.1808804 Z" id="Rectangle" transform="translate(33.850865, 110.588834) rotate(-72.000000) translate(-33.850865, -110.588834) "></path>
                <path d="M82.0422928,68.7616045 L82.0422928,66.5247388 C82.0422928,65.0636298 82.3885268,63.6233165 83.0526175,62.3218469 C83.7129982,61.027648 84.7220255,59.9438306 85.9657843,59.192753 L86.710076,58.7432922 C88.372849,57.7391816 90.4161776,57.5929717 92.204976,58.3501061 L93.9080782,59.0709683 C95.878625,59.9050303 97.6100224,61.2174169 98.9455057,62.8893018 L99.5937499,63.7008355 C100.491427,64.8246332 100.980393,66.2202192 100.980393,67.6585327 L100.980393,67.6687351 C100.980393,69.1189637 100.609305,70.5450708 99.9024368,71.8113647 C99.2036656,73.0631537 98.1087431,74.0472601 96.7897664,74.6090048 L94.9377358,75.3977743 C92.676775,76.3607048 90.2446167,76.8570557 87.7871426,76.8570557 L86.8860765,76.8570557 C85.1856191,76.8570557 83.661166,75.8087335 83.0526175,74.2208972 C82.3847381,72.4782536 82.0422928,70.6278492 82.0422928,68.7616045 Z" id="Path-2"></path>
                <path d="M65.5613093,65.0478763 C66.8404197,63.493412 70.2196547,63.7687659 71.774119,65.0478763 C73.3285832,66.3269868 74.1922919,70.2322801 72.9131815,71.7867444 L72.9131815,71.7867444 L50.438065,96.7437817 C49.2512907,98.1860328 47.166358,98.4978341 45.6095671,97.4658828 C35.1292713,92.0456932 29.3298182,88.9648512 28.2112076,88.2233569 C26.5332917,87.1111155 25.3571497,82.0642855 26.4693912,80.3863696 C27.5816326,78.7084538 31.1236543,77.2291655 32.8015701,78.341407 L32.8015701,78.341407 L42.0312694,85.0645205 C44.0591978,86.5417076 46.8782548,86.2324733 48.5377355,84.3507987 L48.5377355,84.3507987 Z M36.6886287,72.8728385 C37.0365214,71.5766617 38.369303,70.8079256 39.6654797,71.1558183 L39.6654797,71.1558183 L48.6373767,73.5638677 C49.9335534,73.9117604 50.7022895,75.244542 50.3543968,76.5407187 C50.0065041,77.8368954 48.6737225,78.6056315 47.3775458,78.2577388 L47.3775458,78.2577388 L38.4056488,75.8496895 C37.1094721,75.5017968 36.340736,74.1690152 36.6886287,72.8728385 Z M46.6833089,61.6910416 C47.0312016,60.3948649 48.3639832,59.6261288 49.6601599,59.9740215 L49.6601599,59.9740215 L58.6320569,62.3820708 C59.9282336,62.7299635 60.6969697,64.0627451 60.349077,65.3589218 C60.0011843,66.6550985 58.6684027,67.4238346 57.372226,67.0759419 L57.372226,67.0759419 L48.400329,64.6678926 C47.1041523,64.3199999 46.3354162,62.9872183 46.6833089,61.6910416 Z" id="Combined-Shape" fill-rule="nonzero"></path>
                <g id="Group-2" transform="translate(46.842888, 0.000000)">
                    <path d="M25.6607671,45.9386186 L23.4302326,44.32021 C20.4032172,42.1238989 17.5664857,39.6766382 14.9500926,37.0043562 L10.6009937,32.562356 L10.6009937,32.562356 L17.136958,32.562356 L24.1940213,31.6220578 C26.7109566,31.286696 29.1882198,30.7014132 31.5891101,29.8748804 L33.0885439,29.3586839 C34.3515756,28.9238714 35.1994043,27.7353343 35.1994043,26.3995532 C35.1994043,24.9629436 34.6645665,23.5777872 33.6990976,22.5139653 L33.0775181,21.8290649 C31.7004662,20.3117317 29.866831,19.2839992 27.8538529,18.9012575 L23.6388098,18.0998218 L23.6388098,18.0998218 L33.7680171,16.3976538 C37.2755823,15.8082232 40.8396264,15.6271427 44.3888703,15.8580341 C47.8147821,16.0809022 51.0193771,17.6286804 53.323817,20.1734985 L54.1375049,21.072063 L54.1375049,21.072063 L55.4831884,24.1160732 C56.1300872,25.5793939 56.2175277,27.2292242 55.7289294,28.7527258 L55.6136129,29.1122953 C55.2303956,30.3072078 54.1192243,31.1177637 52.8643652,31.1177637 L52.8643652,31.1177637 L52.8643652,31.1177637 L52.4313515,33.2913175 C52.0751412,35.0793493 51.5327747,36.8251906 50.813115,38.5003125 C50.1016603,40.1563356 49.0070509,41.6196981 47.6194045,42.7699231 L46.8044455,43.4454456 C44.8751927,45.0446101 42.6313137,46.2203502 40.2183683,46.896396 L36.3514888,47.9797969 C34.53884,48.4876549 32.6316051,48.5584887 30.7862787,48.1864861 C28.9363068,47.8135471 27.1882406,47.0469073 25.6607671,45.9386186 Z" id="Path-5"></path>
                    <path d="M23.0944922,18.0998218 L18.3248497,20.4233543 C17.0125106,21.0626606 15.862165,21.9911364 14.960286,23.1389868 L13.9936065,24.369311 C13.7244412,24.7118862 13.4537913,25.0532923 13.1816643,25.3935197 L12.1449625,26.6896582 C11.2055996,27.8640986 10.6598504,29.3044846 10.5851187,30.806526 L10.5025308,32.46647 L10.5025308,32.46647 L5.91244629,29.8659814 C4.15566089,29.0836272 2.93957325,28.332459 2.26418335,27.6124768 C1.80461643,27.1225672 1.17215475,25.9030877 0.366798303,23.9540382 C-0.0764261496,22.8813594 0.433836169,21.6524724 1.50651089,21.2092381 C1.82536908,21.0774844 2.17176094,21.0262597 2.51510528,21.0600865 L3.34324248,21.1416758 C5.03093006,21.3079491 6.73378373,21.0631073 8.30625732,20.4280774 C9.89459752,19.7866399 11.5635466,19.3665038 13.266274,19.179458 L23.0944922,18.0998218 L23.0944922,18.0998218 Z" id="Path-6"></path>
                    <path d="M1.59489159,23.4545059 C1.73220405,22.3234221 2.22035226,21.2637566 2.99078184,20.4243261 L4.10070945,19.2149917 C5.6587421,17.5174192 6.72504988,15.5041976 8.06971283,13.6330751 L8.90265228,12.7975027 C9.85865014,11.4672146 11.1492159,10.9885442 12.6997156,10.4598203 L13.0965762,10.3244899 C14.2625292,9.92689729 15.894856,9.75010628 16.9017484,10.4598203 C18.1543982,11.3427579 19.0206908,12.6424328 20.1900232,13.6330751 L20.5168442,13.9099534 C22.0066558,15.1721012 24.1807817,15.2054043 25.7085521,13.9894795 L29.122262,11.2725699 C30.6628581,10.0464375 32.1150456,8.49428393 33.5442041,7.13990479 C34.7712613,5.97705212 36.4322207,5.589 38.122752,5.589 L39.6814265,5.589 C43.1725416,5.589 46.7714289,7.74470233 48.0910001,10.976825 L50.1216489,15.4880425 C50.9715298,16.5905926 51.4057662,17.1622312 51.424358,17.2029584 C52.2357242,18.9803382 53.0464248,21.1358601 53.8564599,23.669524 C54.0237321,24.0357471 54.4562154,24.1970287 54.8224385,24.0297565 C55.1886615,23.8624843 55.3499431,23.430001 55.1826709,23.063778 L51.424358,14.8353862 L48.9506851,10.3081636 C47.442511,6.60181906 43.7649478,4.131 39.6814265,4.131 L38.122752,4.131 C36.0590868,4.131 34.0739597,4.92220495 32.5760665,6.34172235 C31.1773611,7.66724182 30.0593971,9.10815813 28.5516287,10.3081636 L24.8065158,13.3329639 C23.8232622,14.1155175 22.4181209,13.6098049 21.4592971,12.7975027 L21.1324761,12.5206244 C19.9301798,11.5020556 18.6832046,10.5374293 17.3952422,9.62960139 C16.0068185,8.65096282 14.2337579,8.39626906 12.6260024,8.94451732 L12.2291418,9.0798477 C10.3915973,9.70645456 8.79518476,10.8904773 7.66220252,12.4670423 L7.27466025,13.0063143 C5.96388172,14.830286 5.20932292,16.4450268 3.69055145,18.0998218 L2.26701996,19.6541675 C1.29060591,20.7180307 0.32154283,21.8453023 0.147518077,23.2787961 C0.0989971747,23.6784773 0.38366881,24.0418169 0.783349969,24.0903378 C1.18303113,24.1388587 1.54637069,23.854187 1.59489159,23.4545059 Z" id="Path-7" fill-rule="nonzero"></path>
                    <path d="M31.6846318,31.2699353 C31.6846318,28.7772377 30.5030315,26.0264809 28.1398309,23.0176648 L26.4777341,21.5588775 C27.7946896,23.7351219 28.5554241,24.9101612 28.7599377,25.0839954 C29.7377338,27.0004144 30.2266318,29.0623943 30.2266318,31.2699353 C30.2266318,31.6725509 30.5530163,31.9989353 30.9556318,31.9989353 C31.3582474,31.9989353 31.6846318,31.6725509 31.6846318,31.2699353 Z" id="Path-8" fill-rule="nonzero"></path>
                </g>
            </g>
            <polygon id="Path-9" points="66.3417883 12.7431134 66.6740149 14.3211896 66.3417883 16.0549969 67.2711328 15.1788977 67.2711328 13.7780585"></polygon>
            <polygon id="Path-10" points="58.4937209 26.7789064 58.9418866 29.198562 59.5441956 30.9980731 59.5441956 29.198562 59.2334747 26.169071"></polygon>
        </g>
    </g>
</svg>