<?xml version="1.0" encoding="UTF-8"?>
<svg width="300px" height="300px" viewBox="0 0 300 300" version="1.1" xmlns="http://www.w3.org/2000/svg" xmlns:xlink="http://www.w3.org/1999/xlink">
    <title>Falla Terreno</title>
    <g id="Falla-Terreno" stroke="none" stroke-width="1" fill="none" fill-rule="evenodd">
        <g id="Group" transform="translate(1.702623, 16.837686)">
            <path d="M148.17541,-1.70530257e-13 C162.634426,-1.70530257e-13 175.17541,8.21652893 181.504918,20.261157 L181.504918,20.261157 L291.181967,211.8 L291.478172,212.326474 C294.49798,217.793003 296.242623,224.070713 296.242623,230.771901 C296.242623,251.771901 279.363934,268.790083 258.536066,268.790083 L258.536066,268.790083 L258.536066,268.844628 L37.7114754,268.844628 C16.8836066,268.844628 1.70530257e-13,251.821488 1.70530257e-13,230.821488 C1.70530257e-13,223.889256 1.87377049,217.408264 5.0852459,211.814876 L5.0852459,211.814876 L5.06557377,211.8 L115.47541,18.9818182 L115.544262,19.0264463 C122.065574,7.6661157 134.218033,-1.70530257e-13 148.17541,-1.70530257e-13 Z M148.174426,13.2575207 C139.085902,13.2575207 131.167869,18.2509091 126.918689,25.6492562 L126.854754,25.6095868 L16.444918,218.427769 L16.4645902,218.437686 C14.3695082,222.082314 13.1498361,226.307107 13.1498361,230.824463 C13.1498361,244.500496 24.1465574,255.58314 37.7104918,255.58314 L37.7154098,255.58314 L37.7154098,255.588099 L258.535082,255.588099 L258.535082,255.533554 C272.099016,255.533554 283.095738,244.44595 283.095738,230.769917 C283.095738,226.193058 281.841639,221.918678 279.692459,218.239339 L169.926885,26.5517355 C165.825246,18.652562 157.626885,13.2575207 148.174426,13.2575207 Z" id="Combined-Shape" fill="#000000"></path>
            <path d="M273.565082,221.27405 L163.981475,29.898843 C161.040492,24.0971901 155.074918,20.1203306 148.174918,20.1203306 C141.604426,20.1203306 135.879836,23.7302479 132.810984,29.0757025 L132.751967,29.0459504 L22.3470492,221.859174 L22.3568852,221.864132 C20.8372131,224.502149 19.9568852,227.556694 19.9568852,230.824463 C19.9568852,240.712066 27.9044262,248.725289 37.7109836,248.725289 C37.7109836,248.725289 37.7159016,248.725289 37.7159016,248.725289 L258.535574,248.725289 L258.535574,248.670744 C268.342131,248.670744 276.289672,240.657521 276.289672,230.774876 C276.289672,227.279008 275.281475,224.031074 273.565082,221.27405" id="Fill-46" fill="#FFDF00"></path>
            <path d="M173.770102,242.758814 L36.622377,242.758814 L36.622377,242.743814 L36.617377,242.743814 C30.917377,242.743814 26.297377,238.123814 26.297377,232.423814 C26.297377,230.488814 26.842377,228.688814 27.762377,227.143814 L89.9805524,119.37681 L103.939377,117.792314 L108.299377,101.432314 L119.209377,86.162314 L145.464377,89.072314 L154.519377,123.262314 L161.129377,122.782314 L171.769377,135.387314 L159.189377,148.942314 L140.804377,149.912314 L137.309377,135.062314 L125.484377,135.062314 L116.249377,148.202314 L135.669377,167.622314 L136.079377,184.607314 L136.359377,184.327314 L147.089377,195.062314 L154.554377,195.062314 L173.770102,242.758814 Z M125.089377,152.562314 L124.719377,145.547314 L131.009377,144.072314 L134.709377,148.132314 L135.074377,153.302314 L130.274377,157.362314 L125.089377,152.562314 Z M147.054377,176.537314 L141.764377,173.017314 L135.899377,161.877314 L142.949377,152.492314 L153.519377,160.702314 L157.039377,173.017314 L147.054377,176.537314 Z M160.109377,174.172314 L168.704377,176.147314 L173.994377,184.732314 L168.704377,192.652314 L160.769377,189.022314 L156.809377,182.092314 L160.109377,174.172314 Z M172.094377,170.127314 L164.779377,167.692314 L163.039377,159.702314 L163.389377,154.137314 L168.264377,152.057314 L173.134377,156.227314 L175.569377,156.227314 L176.614377,165.957314 L172.094377,170.127314 Z" id="Shape" fill="#000000"></path>
        </g>
    </g>
</svg>