<?xml version="1.0" encoding="utf-8"?>
<!-- Generator: Adobe Illustrator 25.4.1, SVG Export Plug-In . SVG Version: 6.00 Build 0)  -->
<svg version="1.1" id="Capa_1" xmlns="http://www.w3.org/2000/svg" xmlns:xlink="http://www.w3.org/1999/xlink" x="0px" y="0px"
	 viewBox="0 0 560 560" style="enable-background:new 0 0 560 560;" xml:space="preserve">
<style type="text/css">
	.st0{fill:#FFFFFF;}
	.st1{fill:#FFE812;}
</style>
<g>
	<path d="M531.3,417.1L531.3,417.1L337.6,81.5C326.4,60.4,304.3,46,278.7,46c-24.7,0-46.1,13.4-57.6,33.3l-0.1-0.1l-195,337.8l0.1,0
		c-5.7,9.8-9,21.2-9,33.3c0,36.8,29.8,66.6,66.6,66.6h0v0h390v-0.1c36.8,0,66.6-29.8,66.6-66.6C540.3,438.2,537,426.8,531.3,417.1"
		/>
	<path class="st0" d="M511,428.3L317.2,92.5c-7.2-13.8-21.7-23.3-38.4-23.3c-16.1,0-30,8.8-37.5,21.7l-0.1-0.1L46,428.7l0.1,0
		c-3.7,6.4-5.9,13.8-5.9,21.7c0,24,19.4,43.4,43.4,43.4h0v0h390v-0.1c24,0,43.4-19.4,43.4-43.4C517,442.3,514.8,434.8,511,428.3"/>
	<path class="st1" d="M500.2,433.7L306.6,98.4c-5.2-10.2-15.7-17.1-27.9-17.1c-11.6,0-21.7,6.3-27.1,15.7l-0.1-0.1l-195,337.8l0,0
		c-2.7,4.6-4.2,10-4.2,15.7c0,17.3,14,31.3,31.3,31.3c0,0,0,0,0,0h390v-0.1c17.3,0,31.3-14,31.3-31.4
		C505,444.2,503.2,438.5,500.2,433.7"/>
	<path class="st1" d="M488.4,440L295,105.1c-2.8-6.2-9.1-10.4-16.3-10.4c-6.7,0-12.4,3.6-15.5,9l-0.1-0.1L68.2,441.2
		c-1.6,2.7-2.6,5.8-2.6,9.2c0,9.9,8,17.9,17.9,17.9v0h390v-0.1c9.9,0,17.9-8,17.9-17.9C491.6,446.5,490.4,443,488.4,440"/>
</g>
<g>
	<path d="M221.6,305.2l-14.1-34.1c-1.7-4.1-6.4-6.1-10.5-4.4h0c-4.1,1.7-6.1,6.4-4.4,10.5l1,2.5l8.6,29.9l28.7,28.7h7.1l0.4,0.2
		l10.3-17.8L221.6,305.2z"/>
	<path d="M335.6,305.2l14.1-34.1c1.7-4.1,6.4-6.1,10.5-4.4h0c4.1,1.7,6.1,6.4,4.4,10.5l-1,2.5l-8.6,29.9l-28.7,28.7h-7.1l-0.4,0.2
		l-10.3-17.8L335.6,305.2z"/>
	<path d="M424.6,392.9h-49.1c-0.3,0.2-0.5,0.3-0.8,0.5v-8.2h2.5c3.6,0,6.4-2.9,6.4-6.4V343c0-2.2-1.8-3.9-3.9-3.9h-15.8
		c-2.2,0-3.9,1.8-3.9,3.9v0.6h-43.8l-13.4-23.1c-1.2-2-3.3-3.3-5.7-3.3h-36.9c-2.3,0-4.5,1.2-5.7,3.3l-13.4,23.1h-44V343
		c0-2.2-1.8-3.9-3.9-3.9h-15.8c-2.2,0-3.9,1.8-3.9,3.9v35.8c0,3.6,2.9,6.4,6.4,6.4h2.5v8.2c-0.3-0.2-0.5-0.3-0.8-0.5h-49.1
		c-3.3,1.9-5.3,4.2-5.3,6.7c0,6.5,13.3,11.9,29.8,11.9c10.7,0,20.1-2.2,25.3-5.6v5.6c0,1.4,1.1,2.6,2.6,2.6c1.4,0,2.6-1.1,2.6-2.6
		v-5.6c5.3,3.4,14.6,5.6,25.3,5.6c16.5,0,29.8-5.3,29.8-11.9c0-2.5-1.9-4.8-5.3-6.7h-49.1c-0.3,0.2-0.5,0.3-0.8,0.5v-8.2h3.1
		c3.6,0,6.5-2.9,6.5-6.5v-10.2h44.5l12.9,22.4c1.2,2,3.3,3.3,5.7,3.3h36.9c2.3,0,4.5-1.2,5.7-3.3l12.9-22.4H360v10.2
		c0,3.6,2.9,6.5,6.5,6.5h3.1v8.2c-0.3-0.2-0.5-0.3-0.8-0.5h-49.1c-3.3,1.9-5.3,4.2-5.3,6.7c0,6.5,13.3,11.9,29.8,11.9
		c10.7,0,20.1-2.2,25.3-5.6v5.6c0,1.4,1.1,2.6,2.6,2.6c1.4,0,2.6-1.1,2.6-2.6v-5.6c5.3,3.4,14.6,5.6,25.3,5.6
		c16.5,0,29.8-5.3,29.8-11.9C429.9,397.1,427.9,394.8,424.6,392.9z M278.8,376.8c-11.7,0-21.1-9.5-21.1-21.1s9.5-21.1,21.1-21.1
		s21.1,9.5,21.1,21.1S290.4,376.8,278.8,376.8z"/>
	<circle cx="278.8" cy="355.6" r="16.3"/>
</g>
<g>
	<rect x="134.1" y="343" width="7" height="34"/>
	<rect x="151.1" y="343" width="7" height="34"/>
</g>
<g>
	<rect x="399.1" y="343" width="7" height="34"/>
	<rect x="416.1" y="343" width="7" height="34"/>
</g>
<g>
	<rect x="276.1" y="213.5" width="7" height="57"/>
	<rect x="249.1" y="217.5" width="7" height="57"/>
	<rect x="225.1" y="219.5" width="7" height="57"/>
	<rect x="301.1" y="217.5" width="7" height="57"/>
	<rect x="325.1" y="219.5" width="7" height="57"/>
</g>
</svg>
