<svg width="300" height="300" viewBox="0 0 300 300" fill="none" xmlns="http://www.w3.org/2000/svg">
<g id="Impacto Equipo">
<rect width="300" height="300" fill="none"/>
<g id="Group 2">
<path id="Combined Shape" fill-rule="evenodd" clip-rule="evenodd" d="M183.208 37.0988L292.885 228.638C296.086 234.226 297.945 240.692 297.945 247.61C297.945 268.61 281.067 285.628 260.239 285.628V285.682H39.419H39.4141C18.5862 285.682 1.70264 268.659 1.70264 247.659C1.70264 240.727 3.57641 234.246 6.78788 228.653L6.76821 228.638L117.178 35.8195L117.247 35.8641C123.768 24.5038 135.921 16.8376 149.878 16.8376C164.337 16.8376 176.878 25.0542 183.208 37.0988ZM171.63 43.3894L281.395 235.077C283.544 238.756 284.798 243.031 284.798 247.608C284.798 261.284 273.802 272.371 260.238 272.371V272.426H39.418V272.421H39.4131C25.8492 272.421 14.8525 261.338 14.8525 247.662C14.8525 243.145 16.0721 238.92 18.1672 235.275L18.1476 235.265L128.557 42.4472L128.621 42.4869C132.87 35.0886 140.789 30.0952 149.877 30.0952C159.33 30.0952 167.528 35.4902 171.63 43.3894Z" fill="black"/>
<path id="Fill 46" fill-rule="evenodd" clip-rule="evenodd" d="M275.268 238.112L165.684 46.7365C162.743 40.9349 156.778 36.958 149.878 36.958C143.307 36.958 137.582 40.5679 134.514 45.9134L134.455 45.8836L24.0497 238.697L24.0595 238.702C22.5399 241.34 21.6595 244.394 21.6595 247.662C21.6595 257.55 29.6071 265.563 39.4136 265.563H39.4186H260.238V265.508C270.045 265.508 277.992 257.495 277.992 247.613C277.992 244.117 276.984 240.869 275.268 238.112Z" fill="#FFDF00"/>
<g id="Group">
<path id="Fill 446" fill-rule="evenodd" clip-rule="evenodd" d="M121.865 167.017L104.53 198.54L121.543 196.601L111.311 209.46L121.518 212.608L114.851 218.909L127.834 224.813L118.529 229.567L122.936 235.838L113.215 236.943L138.551 264.837L126.733 242.173L138.417 242.074L130.228 235.005L169.241 226.25L126.867 216.306L146.765 207.269L125.687 205.975L159.242 176.302L118.683 187.693L121.865 167.017Z" fill="black"/>
<path id="Fill 447" fill-rule="evenodd" clip-rule="evenodd" d="M231.755 189.4C231.721 189.385 207.302 179.887 207.302 179.887C205.834 179.148 204.089 178.975 202.419 179.555C202.384 179.565 169.949 190.763 169.949 190.763L163.133 178.088L142.684 197.103L146.179 203.612L146.214 203.592C147.428 205.694 149.154 207.31 151.117 208.46L178.495 223.208L196.619 249.57L196.624 249.565C196.644 249.595 196.658 249.63 196.678 249.66C198.641 252.52 202.562 253.249 205.423 251.281C208.288 249.313 209.012 245.396 207.044 242.531C207.024 242.501 206.999 242.482 206.979 242.452L206.984 242.447L187.939 214.731L187.894 214.766C187.274 213.839 186.422 213.051 185.336 212.545C185.242 212.5 169.597 204.197 169.597 204.197L204.288 192.216C204.288 192.216 227.165 201.114 227.195 201.124C230.432 202.383 234.08 200.782 235.34 197.545C236.599 194.303 234.993 190.659 231.755 189.4ZM192.053 146.208C193.778 143.982 193.367 140.775 191.141 139.055C188.915 137.329 185.713 137.736 183.988 139.962C183.958 139.996 172.457 154.893 172.457 154.893L137.807 166.488L130.524 152.945C130.524 152.945 130.068 152.265 129.771 151.958C129.746 151.938 107.885 129.502 107.885 129.502C105.907 127.623 102.829 127.673 100.861 129.591C98.8876 131.51 98.833 134.618 100.662 136.645L100.632 136.67L121.973 158.571L132.924 178.95L159.742 171.777L158.89 170.191C158.89 170.191 177.216 164.014 177.256 163.999C178.297 163.627 179.06 162.904 179.645 162.061C179.645 162.061 192.038 146.223 192.053 146.208ZM160.575 145.687C160.605 138.965 155.177 133.488 148.455 133.463C141.733 133.433 136.255 138.856 136.225 145.583C136.195 152.305 141.624 157.783 148.351 157.813C155.072 157.842 160.545 152.414 160.575 145.687Z" fill="black"/>
<path id="Combined Shape_2" fill-rule="evenodd" clip-rule="evenodd" d="M26.9102 244.746C31.2313 250.443 38.0741 254.124 45.7775 254.124C58.8497 254.124 69.4432 243.525 69.4432 230.458C69.4432 218.382 60.4033 208.418 48.7203 206.969L38.9412 223.907C40.6645 222.109 43.0901 220.99 45.7776 220.99C51.0074 220.99 55.2458 225.228 55.2458 230.458C55.2458 235.683 51.0074 239.921 45.7776 239.921C40.5477 239.921 36.3093 235.683 36.3093 230.458C36.3093 229.543 36.439 228.658 36.6811 227.821L26.9102 244.746ZM52.4982 200.425C66.2582 203.491 76.5419 215.773 76.5419 230.458C76.5419 230.805 76.5199 231.148 76.4979 231.49C76.4869 231.662 76.4758 231.833 76.4676 232.005H104.035C108.684 232.005 108.684 227.355 108.684 227.355V212.473C108.684 207.823 104.035 207.823 104.035 207.823H101.705V179.577H101.695C101.591 175.076 99.4541 171.215 99.4541 171.215L84.7126 144.627L81.2634 150.601L85.9755 159.119C88.2261 163.189 88.2261 166.912 88.2261 166.912V169.807C88.2261 170.63 87.4032 170.63 87.4032 170.63H69.7003L52.4982 200.425Z" fill="black"/>
<mask id="mask0" mask-type="alpha" maskUnits="userSpaceOnUse" x="26" y="144" width="83" height="111">
<path id="Combined Shape_3" fill-rule="evenodd" clip-rule="evenodd" d="M26.9102 244.746C31.2313 250.443 38.0741 254.124 45.7775 254.124C58.8497 254.124 69.4432 243.525 69.4432 230.458C69.4432 218.382 60.4033 208.418 48.7203 206.969L38.9412 223.907C40.6645 222.109 43.0901 220.99 45.7776 220.99C51.0074 220.99 55.2458 225.228 55.2458 230.458C55.2458 235.683 51.0074 239.921 45.7776 239.921C40.5477 239.921 36.3093 235.683 36.3093 230.458C36.3093 229.543 36.439 228.658 36.6811 227.821L26.9102 244.746ZM52.4982 200.425C66.2582 203.491 76.5419 215.773 76.5419 230.458C76.5419 230.805 76.5199 231.148 76.4979 231.49C76.4869 231.662 76.4758 231.833 76.4676 232.005H104.035C108.684 232.005 108.684 227.355 108.684 227.355V212.473C108.684 207.823 104.035 207.823 104.035 207.823H101.705V179.577H101.695C101.591 175.076 99.4541 171.215 99.4541 171.215L84.7126 144.627L81.2634 150.601L85.9755 159.119C88.2261 163.189 88.2261 166.912 88.2261 166.912V169.807C88.2261 170.63 87.4032 170.63 87.4032 170.63H69.7003L52.4982 200.425Z" fill="white"/>
</mask>
<g mask="url(#mask0)">
</g>
</g>
</g>
</g>
</svg>
