<?xml version="1.0" encoding="UTF-8"?>
<svg width="300px" height="300px" viewBox="0 0 300 300" version="1.1" xmlns="http://www.w3.org/2000/svg" xmlns:xlink="http://www.w3.org/1999/xlink">
    <title>Liberación Descontrolada Energía</title>
    <g id="Liberación-Descontrolada-Energía" stroke="none" stroke-width="1" fill="none" fill-rule="evenodd">
        <g id="Group-3" transform="translate(1.702623, 16.837686)">
            <g id="Group-2">
                <path d="M148.17541,-1.70530257e-13 C162.634426,-1.70530257e-13 175.17541,8.21652893 181.504918,20.261157 L181.504918,20.261157 L291.181967,211.8 L291.478172,212.326474 C294.49798,217.793003 296.242623,224.070713 296.242623,230.771901 C296.242623,251.771901 279.363934,268.790083 258.536066,268.790083 L258.536066,268.790083 L258.536066,268.844628 L37.7114754,268.844628 C16.8836066,268.844628 1.70530257e-13,251.821488 1.70530257e-13,230.821488 C1.70530257e-13,223.889256 1.87377049,217.408264 5.0852459,211.814876 L5.0852459,211.814876 L5.06557377,211.8 L115.47541,18.9818182 L115.544262,19.0264463 C122.065574,7.6661157 134.218033,-1.70530257e-13 148.17541,-1.70530257e-13 Z M148.174426,13.2575207 C139.085902,13.2575207 131.167869,18.2509091 126.918689,25.6492562 L126.854754,25.6095868 L16.444918,218.427769 L16.4645902,218.437686 C14.3695082,222.082314 13.1498361,226.307107 13.1498361,230.824463 C13.1498361,244.500496 24.1465574,255.58314 37.7104918,255.58314 L37.7154098,255.58314 L37.7154098,255.588099 L258.535082,255.588099 L258.535082,255.533554 C272.099016,255.533554 283.095738,244.44595 283.095738,230.769917 C283.095738,226.193058 281.841639,221.918678 279.692459,218.239339 L169.926885,26.5517355 C165.825246,18.652562 157.626885,13.2575207 148.174426,13.2575207 Z" id="Combined-Shape" fill="#000000"></path>
                <path d="M273.565082,221.27405 L163.981475,29.898843 C161.040492,24.0971901 155.074918,20.1203306 148.174918,20.1203306 C141.604426,20.1203306 135.879836,23.7302479 132.810984,29.0757025 L132.751967,29.0459504 L22.3470492,221.859174 L22.3568852,221.864132 C20.8372131,224.502149 19.9568852,227.556694 19.9568852,230.824463 C19.9568852,240.712066 27.9044262,248.725289 37.7109836,248.725289 C37.7109836,248.725289 37.7159016,248.725289 37.7159016,248.725289 L258.535574,248.725289 L258.535574,248.670744 C268.342131,248.670744 276.289672,240.657521 276.289672,230.774876 C276.289672,227.279008 275.281475,224.031074 273.565082,221.27405" id="Fill-46" fill="#FFDF00"></path>
            </g>
            <g id="Group" transform="translate(66.297377, 74.162314)" fill="#000000">
                <path d="M49.2401241,84.843 C49.3553241,83.7102 51.1217241,83.5806 51.0113241,84.987 C51.0113241,84.987 50.4497241,88.4478 51.2561241,89.3934 C51.4193241,89.3886 51.5873241,89.3502 51.7409241,89.3742 C52.1969241,87.6318 53.2913241,85.7982 53.4689241,85.467 C54.0353241,84.4782 55.7009241,85.0782 55.0289241,86.3166 C55.0289241,86.3166 53.2433241,89.0526 53.4353241,90.315 C53.6849241,90.579 53.8721241,90.8718 54.0017241,91.203 C55.3217241,90.8142 56.9105241,89.8158 56.9105241,89.8158 C58.1585241,89.1678 58.7297241,90.843 57.7361241,91.395 C57.4145241,91.5582 55.6817241,92.547 53.9921241,93.0174 C53.8961241,93.267 53.8193241,93.5262 53.6273241,93.7662 C51.3041241,96.6846 47.5313241,101.043 41.3249241,104.259 C25.2113241,112.611 6.37612409,119.3166 6.46252409,129.4974 C6.53932409,138.6942 19.2449241,139.3134 31.2305241,149.8158 C35.5324212,153.582919 37.0980421,157.440952 37.1530408,161.020032 L30.962459,161.020741 C30.7117329,159.056011 29.6434823,157.001952 27.3137241,154.9662 C16.2833241,145.3326 0.760124086,141.3198 0.0353240855,131.4174 C-0.929475914,118.2606 18.0497241,107.7102 34.8449241,100.8462 C43.0049241,97.515 46.4129241,93.9486 48.1553241,91.3086 C48.5345241,90.7278 48.9521241,90.3102 49.3793241,89.9982 C48.7889241,88.1358 49.2065241,85.2798 49.2401241,84.843 Z" id="Combined-Shape"></path>
                <path d="M117.616124,69.8784 L117.616124,5.1456 L117.596924,5.1456 C117.491324,2.2896 115.158524,2.23820962e-13 112.273724,2.23820962e-13 C109.388924,2.23820962e-13 107.056124,2.2896 106.950524,5.1456 L106.931324,5.1456 L106.931324,57.8064 L95.6273241,57.8064 L85.9553241,52.392 L80.0849241,61.3488 L89.3153241,66.5184 L89.3105241,79.2192 L103.796924,78.7008 L89.3105241,86.3616 L89.3057241,97.584 L80.8577241,101.6016 L90.2657241,111.72 L95.8337241,109.0704 L65.6177241,150.0528 L65.6273241,150.0576 C65.6033241,150.0864 65.5793241,150.1104 65.5553241,150.1392 C63.3953241,153.0672 64.0193241,157.1952 66.9473241,159.3552 C69.8753241,161.5152 74.0033241,160.8912 76.1633241,157.9584 C76.1825241,157.9296 76.1969241,157.896 76.2161241,157.8672 L76.2257241,157.872 L114.913724,105.3984 L114.908924,105.3888 C116.521724,103.1616 117.510524,100.4544 117.596924,97.512 L117.616124,97.512 L117.616124,69.8784 Z M98.9249241,51.9312 C100.600124,51.9312 102.193724,51.6 103.657724,51.0144 L103.657724,27.3408 C102.193724,26.7552 100.600124,26.424 98.9249241,26.424 C91.8833241,26.424 86.1713241,32.136 86.1713241,39.1776 C86.1713241,46.224 91.8833241,51.9312 98.9249241,51.9312 L98.9249241,51.9312 Z M83.9345241,51.2592 L57.1601241,36.264 L56.9921241,36.168 L56.9825241,36.1872 C54.4337241,34.8816 51.2993241,35.7984 49.8881241,38.3184 C48.4817241,40.8336 49.3361241,43.9872 51.7793241,45.4752 L51.7697241,45.4944 L51.9425241,45.5904 L73.3889241,57.6 L83.9345241,51.2592 Z M33.8081241,123.9936 L33.8129241,124.0032 C33.7793241,124.0176 33.7409241,124.0224 33.7073241,124.0416 C30.4241241,125.6016 29.0273241,129.5328 30.5921241,132.8208 C32.1569241,136.1088 36.0881241,137.5056 39.3713241,135.9408 C39.4049241,135.9216 39.4337241,135.8976 39.4673241,135.8832 L39.4721241,135.8928 L87.3521241,113.1072 L74.2145241,104.7648 L33.8081241,123.9936 Z" id="Fill-101"></path>
                <polygon id="Fill-103" points="58.9178745 57.0384576 54.2714745 76.3104576 63.0362745 72.8160576 59.4602745 81.1344576 65.3402745 81.3264576 62.7098745 85.6416576 70.4714745 86.9040576 66.2090745 90.7776576 69.4634745 93.4752576 64.4522745 95.4720576 81.9674745 106.627258 72.4010745 96.2928576 78.5978745 94.5456576 73.2170745 91.9728576 92.6906745 81.6672576 68.7194745 82.5216576 77.9930745 74.8320576 66.5978745 77.1984576 80.1338745 56.5584576 60.2234745 68.4912576"></polygon>
                <path d="M14.0962256,65.0767054 C24.2921048,63.4067344 32.9535143,51.260835 40.8756441,54.4123392 C47.3364441,57.3115392 44.8500441,73.1947392 44.7204441,75.0475392 C44.7204441,75.0811392 44.6964441,75.1003392 44.6964441,75.1339392 C45.7668441,76.7275392 46.2660441,79.3627392 46.3716441,79.7707392 C46.6308441,80.8747392 45.0036441,81.5707392 44.6484441,80.2123392 C44.6484441,80.2123392 44.2308441,77.9755392 43.5012441,76.7899392 C43.1364441,76.9819392 42.7236441,77.0923392 42.2868441,77.1259392 C41.8884441,78.4939392 42.0420441,80.8075392 42.0420441,80.8075392 C41.9988441,82.2187392 40.2564441,81.9067392 40.2612441,80.7691392 C40.2708441,80.4139392 40.2612441,78.5227392 40.6452441,76.8523392 C40.4148441,76.7467392 40.1844441,76.6411392 39.9972441,76.4779392 C38.7492441,77.0539392 37.1124441,79.0603392 37.1124441,79.0603392 C36.1428441,80.0827392 35.0580441,78.6811392 35.8212441,77.8411392 C36.0948441,77.5531392 37.6212441,75.7147392 39.2292441,74.7643392 C39.2244441,74.7019392 39.1956441,74.6635392 39.1956441,74.6011392 C39.1956441,74.6011392 41.6532441,60.8059392 37.6884441,59.8075392 C33.5146647,58.6318267 21.8695895,71.032274 10.9374103,70.5476252 Z" id="Combined-Shape"></path>
            </g>
        </g>
    </g>
</svg>