<?xml version="1.0" encoding="utf-8"?>
<!-- Generator: Adobe Illustrator 25.4.1, SVG Export Plug-In . SVG Version: 6.00 Build 0)  -->
<svg version="1.1" id="Capa_1" xmlns="http://www.w3.org/2000/svg" xmlns:xlink="http://www.w3.org/1999/xlink" x="0px" y="0px"
	 viewBox="0 0 560 560" style="enable-background:new 0 0 560 560;" xml:space="preserve">
<style type="text/css">
	.st0{fill:#FFFFFF;}
	.st1{fill:#FFE812;}
</style>
<g>
	<path d="M531.3,417.1L531.3,417.1L337.6,81.5C326.4,60.4,304.3,46,278.7,46c-24.7,0-46.1,13.4-57.6,33.3l-0.1-0.1l-195,337.8l0.1,0
		c-5.7,9.8-9,21.2-9,33.3c0,36.8,29.8,66.6,66.6,66.6h0v0h390v-0.1c36.8,0,66.6-29.8,66.6-66.6C540.3,438.2,537,426.8,531.3,417.1"
		/>
	<path class="st0" d="M511,428.3L317.2,92.5c-7.2-13.8-21.7-23.3-38.4-23.3c-16.1,0-30,8.8-37.5,21.7l-0.1-0.1L46,428.7l0.1,0
		c-3.7,6.4-5.9,13.8-5.9,21.7c0,24,19.4,43.4,43.4,43.4h0v0h390v-0.1c24,0,43.4-19.4,43.4-43.4C517,442.3,514.8,434.8,511,428.3"/>
	<path class="st1" d="M500.2,433.7L306.6,98.4c-5.2-10.2-15.7-17.1-27.9-17.1c-11.6,0-21.7,6.3-27.1,15.7l-0.1-0.1l-195,337.8l0,0
		c-2.7,4.6-4.2,10-4.2,15.7c0,17.3,14,31.3,31.3,31.3c0,0,0,0,0,0h390v-0.1c17.3,0,31.3-14,31.3-31.4
		C505,444.2,503.2,438.5,500.2,433.7"/>
	<path class="st1" d="M488.4,440L295,105.1c-2.8-6.2-9.1-10.4-16.3-10.4c-6.7,0-12.4,3.6-15.5,9l-0.1-0.1L68.2,441.2
		c-1.6,2.7-2.6,5.8-2.6,9.2c0,9.9,8,17.9,17.9,17.9v0h390v-0.1c9.9,0,17.9-8,17.9-17.9C491.6,446.5,490.4,443,488.4,440"/>
</g>
<g>
	<g>
		<g>
			<path d="M264.2,272.3c-11.2-7.2-23.3-10.9-36.9-10.9c-13.6,0-25.7,3.7-36.8,10.9c-3.6-3.6-7-7.1-10.8-10.9
				c13.1-8.9,27.7-13.7,44.1-14.3c18.9-0.7,35.7,4.2,51.1,14.3C271.3,265.1,267.9,268.5,264.2,272.3z"/>
			<path d="M209.2,292.1c-0.8-0.8-1.5-1.3-2.1-1.9c-2.8-2.8-5.5-5.7-8.3-8.5c9.5-12,45.5-12.1,57.2-0.1c-3.1,3.1-6.2,6.4-9.4,9.5
				c-0.4,0.4-1.8,0.6-2.3,0.3C232.6,284.9,220.9,285.5,209.2,292.1z"/>
		</g>
		<path d="M233.8,305.3c1.5-1.5,2.9-3,4.4-4.5c-6.3-4.5-17-4.4-21.5,0.2c1.4,1.4,2.8,2.9,4.3,4.3H233.8z"/>
	</g>
	<path d="M245.2,325.3h-35.5c-3.3,0-5.3,3.5-3.7,6.3l5.6,9.7v13.9c0,3,2.4,5.4,5.4,5.4h4.6c0.1,0.3,0.2,0.6,0.2,0.9
		c0,2.1,0,4.2,0.1,6.3c0,1-0.3,1.5-1.2,1.8c-2.1,0.7-3.8,1.9-5.4,3.4c-0.5,0.5-0.8,1-0.6,1.8c0.3,0.8,0.9,0.8,1.6,0.9
		c0.7,0.1,1.4,0.2,2,0.5c1.1,0.7,2.2,1.5,3.3,2.3c0.3,0.2,0.6,0.7,0.6,1c0.1,2.6,0.1,5.2,0,7.8c0,0.3-0.2,0.8-0.5,1
		c-0.8,0.6-1.7,1-2.6,1.5c-1.4,0.7-2.8,1.4-3.7,2.7c-0.7,1-0.3,2.2,0.9,2.6c0.8,0.3,1.5,0.8,2.1,1.3c1,0.7,1.9,1.6,2.9,2.3
		c0.7,0.5,1,1,1,1.8c0,2.2,0,4.4,0,6.6c0,0.2-0.1,0.6-0.3,0.7c-1.6,0.9-3.2,1.7-4.7,2.7c-0.7,0.4-1.3,1-1.8,1.6
		c-0.4,0.6-0.2,1.7,0.3,1.9c1.1,0.3,2,0.8,2.6,1.7c0.1,0.2,0.5,0.4,0.7,0.5c0.9,0.7,1.9,1.3,2.7,2c0.3,0.2,0.5,0.7,0.5,1
		c0.1,2.3,0.1,4.7,0,7c0,0.4-0.3,0.9-0.6,1.1c-1.5,0.9-3.1,1.8-4.6,2.7c-0.6,0.4-1.1,1-1.5,1.5c-0.4,0.6,0.1,1.9,0.9,1.9
		c1.6,0,3.2-0.1,4.8-0.3c0.9-0.1,1-0.2,1.1,0.8c0.2,2.3-0.3,4.7,0.6,7c0.5,1.3,0.7,2.7,1.2,4c0.8,1.8,1.5,3.5,1.9,5.5
		c0,0.3,0.3,0.6,0.6,0.9c0.4,0.4,0.8,0.4,0.9-0.2c0.5-1.6,1-3.1,1.5-4.7c0.3-1,0.6-2,0.9-3c0.4-1.1,0.9-2.3,1-3.4
		c0.2-2.9,0.2-5.9,0.3-8.8c0-0.7,0.1-1.4,0.9-1.6c0.6-0.2,1.1-0.4,1.7-0.7c1.5-0.8,3-1.7,4.4-2.6c1.6-1,1.7-2.4,0.2-3.5
		c-2.1-1.5-4.2-3-6.3-4.5c-0.3-0.2-0.6-0.7-0.7-1.1c-0.1-2,0-4,0-6c0-0.3,0.1-0.6,0.3-0.7c1-0.6,2-1.2,3.1-1.6
		c1.7-0.5,3-1.6,4.2-2.7c1-0.8,0.5-2.4-0.7-2.9c-0.6-0.2-1.2-0.6-1.8-1c-1.3-0.8-2.6-1.7-3.9-2.6c-0.8-0.5-1.5-0.9-1.4-2.1
		c0.1-1.4,0.1-2.7,0-4.1c-0.1-1.6,0.2-2.7,2-3.2c1.4-0.4,2.6-1.5,4-2.1c1.2-0.5,1.8-1.5,2.6-2.4c0.2-0.2,0.1-0.8,0-1
		c-0.8-0.9-1.6-1.8-2.6-2.5c-1.6-1.2-3.3-2.2-5-3.4c-0.6-0.4-0.9-0.9-0.9-1.7c0.1-1.5,0.2-3,0.1-4.5c0-0.9,0.5-1.3,1.1-1.6
		c1.4-0.7,2.9-1.3,4.3-2c1.1-0.6,2-1.4,2.9-2.2c0.7-0.6,0.5-1.5-0.1-2.1c-1.8-1.8-4.1-3-6.2-4.2h4.3c3,0,5.4-2.4,5.4-5.4v-13.9
		l5.6-9.7C250.5,328.9,248.4,325.3,245.2,325.3z"/>
	<path d="M280.4,402.6l-9.5-16.4h-22.6v16.4v0.9v50.3h-42v-50.3v-0.9v-16.4h-22.4l-9.5,16.4H145V464h164.8v-61.4H280.4z
		 M172.6,441.4c0,1.7-1.4,3.2-3.2,3.2h-13.1c-1.7,0-3.2-1.4-3.2-3.2v-6c0-1.7,1.4-3.2,3.2-3.2h13.1c1.7,0,3.2,1.4,3.2,3.2V441.4z
		 M198.2,415.8c0,1.7-1.4,3.2-3.2,3.2h-13.1c-1.7,0-3.2-1.4-3.2-3.2v-6c0-1.7,1.4-3.2,3.2-3.2h13.1c1.7,0,3.2,1.4,3.2,3.2V415.8z
		 M255.3,463.9l1.8-5h17.1l1.8,5H255.3z M266.9,423.1c-1.7,0-3.2-1.4-3.2-3.2v-6c0-1.7,1.4-3.2,3.2-3.2H280c1.7,0,3.2,1.4,3.2,3.2v6
		c0,1.7-1.4,3.2-3.2,3.2H266.9z M300.6,446.5c0,1.7-1.4,3.2-3.2,3.2h-13.1c-1.7,0-3.2-1.4-3.2-3.2v-6c0-1.7,1.4-3.2,3.2-3.2h13.1
		c1.7,0,3.2,1.4,3.2,3.2V446.5z"/>
</g>
<g>
	<path d="M468.7,429.7c-2.9-3.1-5.8-6.2-8.5-9.4c-2.7-3.2-5.2-6.4-7.7-9.8c-2.9-4-5.7-8.1-8.4-12.2c-2.1-3.2-4.1-6.5-6.2-9.7
		c-0.3-0.5-0.7-1-0.9-1.6c-0.1-0.4-0.1-1,0.1-1.4c1.1-2.3,1.6-4.7,1.1-7.2c-0.4-1.7-1.1-3.5-1.9-5c-3.6-6.8-9-11.8-16.2-14.8
		c-4.2-1.7-8.4-2.9-12.9-3.1c-4.5-0.2-8.9,0.1-13.1,1.6c-4.9,1.7-8.2,5.2-9,10.4c-0.7,4.4,1.3,8.4,5.6,10.5c0.1,0.1,0.3,0.1,0.4,0.1
		c1.6,0.4,1.6,0.4,1.6,2c0,2.3,0.2,4.6-0.3,6.7c-0.6,2.6-1.6,5.2-2.8,7.6c-1.5,3-3.4,5.9-5.1,8.8c-0.2,0.4-0.3,0.8-0.6,1.2
		c-0.2,0.3-0.5,0.5-0.8,0.7c-0.1-0.1-0.3-0.2-0.4-0.3c0.4-0.8,0.6-1.6,1.1-2.3c2.5-3.8,4.6-7.8,6.5-12.1c1.5-3.4,1.5-6.9,1.4-10.5
		c0-0.3-0.4-0.6-0.7-0.8c-1.4-0.8-2.8-1.6-4.2-2.5c0.1,0.8,0.1,1.7,0.3,2.6c0.5,4,0.8,8.1,0.2,12.1c-0.6,3.7-2.4,6.9-4.1,10.1
		c-1.1,2-2.4,3.9-3.5,5.9c-0.4,0.7-0.9,1.4-1.1,2.1c-0.6,3.1-2.3,5.7-3.6,8.5c-4.8,10-9.7,19.9-14.5,29.8c-0.3,0.5-0.3,1.2-0.4,1.8
		c0,0.6,0.4,0.9,1,1c1.8,0.2,1.8,0.1,2.7-1.5c5.8-10.1,10.4-20.8,15.5-31.3c0.3-0.6,0.6-1.2,1-1.9c2.3,1.2,4.5,1.2,6.4-0.6
		c0.9-0.9,1.4-2.1,2.2-3.2c0.3-0.4,0.7-0.8,1.1-0.9c1.6-0.3,2.8-1.3,3.6-2.6c3.3-5,6.2-10.1,8.1-15.9c0.5-1.4,1.1-2.8,1.3-4.3
		c0.3-2.5,0.3-5,0.4-7.5c0-0.5,0-1.1,0-1.6c-0.1-0.8,0.2-1,0.9-0.9c3.1,0.5,6.2,0.9,8.9,2.7c0.4,0.3,0.9,0.6,1.3,0.9
		c1,0.6,1.1,1.4,0.8,2.6c-1.6,5.6-3.2,11.1-4.5,16.8c-1,4.2-1.5,8.5-2.1,12.8c-0.1,0.8,0,1.6,0.3,2.4c1.7,5.3,3.3,10.7,5.2,16
		c0.4,1,0.7,2,1.1,3l0,0c0.7,1.6,1.3,3.1,2,4.7c1.8,4.4,7,6.1,11.1,3.1c2.8-2,3.7-5.7,2.2-9.1c-0.3-0.7-0.6-1.5-1-2.3l-0.1,0
		c-0.9-2.2-1.8-4.5-2.6-6.7c-1.3-3.4-2.3-6.9-3.4-10.4c-0.2-0.7-0.2-1.5-0.1-2.2c0.9-4.5,1.8-9,2.7-13.4c0.1-0.4,0.4-0.8,0.5-1.2
		c0.1,0,0.2,0,0.3,0c0.2,0.4,0.5,0.8,0.7,1.2c2,3.1,4,6.3,6.2,9.4c4.2,5.9,8.3,11.8,12.7,17.5c3.4,4.3,7.1,8.3,10.8,12.4
		c0.9,1,1.9,2,3,2.7c4.3,2.6,10.1,0.1,10.8-5.3C471.3,433.5,470.4,431.5,468.7,429.7z"/>
	<path d="M358.4,376.6c3,1.5,5.8,3.2,8.8,4.4c3.4,1.3,6.8,0.9,10-0.9c2.6-1.5,4.5-3.6,5.5-6.5c1.4-3.9,1-7.6-1.3-11.1
		c-1.2-2-3-3.3-5-4.4c-0.6-0.3-1.1-0.8-1.7-1.2c-4.7-3.6-11.2-3.5-15.8,0.2c-4.5,3.7-5.9,10.1-3.3,15.4c0.3,0.7,0.3,1.2,0.1,1.9
		c-0.7,1.9-1.3,3.9-2,5.8c-0.3,0.8-0.2,1.4,0.6,1.7c0.8,0.3,1.4,0,1.8-0.8C356.9,379.6,357.7,378,358.4,376.6z"/>
	<path d="M386.2,440h-44.4c-2.6,0-4.8,2.1-4.8,4.8v2.4c0,2.6,2.1,4.8,4.8,4.8h44.4c2.6,0,4.8-2.1,4.8-4.8v-2.4
		C391,442.1,388.9,440,386.2,440z"/>
</g>
</svg>
