<?xml version="1.0" encoding="utf-8"?>
<!-- Generator: Adobe Illustrator 25.4.1, SVG Export Plug-In . SVG Version: 6.00 Build 0)  -->
<svg version="1.1" id="Capa_1" xmlns="http://www.w3.org/2000/svg" xmlns:xlink="http://www.w3.org/1999/xlink" x="0px" y="0px"
	 viewBox="0 0 560 560" style="enable-background:new 0 0 560 560;" xml:space="preserve">
<style type="text/css">
	.st0{fill:#FFFFFF;}
	.st1{fill:#FFE812;}
</style>
<g>
	<path d="M531.3,417.1L531.3,417.1L337.6,81.5C326.4,60.4,304.3,46,278.7,46c-24.7,0-46.1,13.4-57.6,33.3l-0.1-0.1l-195,337.8l0.1,0
		c-5.7,9.8-9,21.2-9,33.3c0,36.8,29.8,66.6,66.6,66.6h0v0h390v-0.1c36.8,0,66.6-29.8,66.6-66.6C540.3,438.2,537,426.8,531.3,417.1"
		/>
	<path class="st0" d="M511,428.3L317.2,92.5c-7.2-13.8-21.7-23.3-38.4-23.3c-16.1,0-30,8.8-37.5,21.7l-0.1-0.1L46,428.7l0.1,0
		c-3.7,6.4-5.9,13.8-5.9,21.7c0,24,19.4,43.4,43.4,43.4h0v0h390v-0.1c24,0,43.4-19.4,43.4-43.4C517,442.3,514.8,434.8,511,428.3"/>
	<path class="st1" d="M500.2,433.7L306.6,98.4c-5.2-10.2-15.7-17.1-27.9-17.1c-11.6,0-21.7,6.3-27.1,15.7l-0.1-0.1l-195,337.8l0,0
		c-2.7,4.6-4.2,10-4.2,15.7c0,17.3,14,31.3,31.3,31.3c0,0,0,0,0,0h390v-0.1c17.3,0,31.3-14,31.3-31.4
		C505,444.2,503.2,438.5,500.2,433.7"/>
	<path class="st1" d="M488.4,440L295,105.1c-2.8-6.2-9.1-10.4-16.3-10.4c-6.7,0-12.4,3.6-15.5,9l-0.1-0.1L68.2,441.2
		c-1.6,2.7-2.6,5.8-2.6,9.2c0,9.9,8,17.9,17.9,17.9v0h390v-0.1c9.9,0,17.9-8,17.9-17.9C491.6,446.5,490.4,443,488.4,440"/>
</g>
<g>
	<path d="M214.9,312L194,294.5c-2.5-2.1-6.3-1.8-8.4,0.7l0,0c-2.1,2.5-1.8,6.3,0.7,8.4l1.6,1.3l15.9,16.7l28.6,9l4.7-2.4l0.3,0
		L238,313L214.9,312z"/>
	<path d="M289.6,273l-2.4-27.2c-0.3-3.3,2.1-6.2,5.4-6.5l0,0c3.3-0.3,6.2,2.1,6.5,5.4l0.2,2l4.6,22.5l-9,28.6l-4.7,2.4l-0.2,0.3
		l-12.8-8.1L289.6,273z"/>
	<path d="M377.9,300l-32.1,16.8c-0.1,0.2-0.2,0.4-0.3,0.6l-2.8-5.4l1.7-0.9c2.3-1.2,3.2-4.1,2-6.4l-12.2-23.4
		c-0.7-1.4-2.5-2-3.9-1.2l-10.4,5.4c-1.4,0.7-2,2.5-1.2,3.9l0.2,0.4l-28.7,15l-16.7-10.6c-1.5-0.9-3.3-1-4.8-0.2l-24.2,12.6
		c-1.5,0.8-2.5,2.4-2.6,4.1l-0.8,19.7L212,345.4l-0.2-0.4c-0.7-1.4-2.5-2-3.9-1.2l-10.4,5.4c-1.4,0.7-2,2.5-1.2,3.9l12.2,23.4
		c1.2,2.3,4.1,3.2,6.4,2l1.7-0.9l2.8,5.4c-0.2,0-0.4,0-0.7,0l-32.1,16.8c-1.5,2.4-2,4.6-1.2,6.2c2.2,4.3,12.8,3.2,23.6-2.4
		c7-3.7,12.4-8.3,14.7-12.3l1.9,3.7c0.5,0.9,1.6,1.3,2.6,0.8c0.9-0.5,1.3-1.6,0.8-2.6l-1.9-3.7c4.6,0.4,11.5-1.3,18.5-5
		c10.8-5.6,17.7-13.7,15.5-18c-0.9-1.6-2.9-2.5-5.8-2.6l-32.1,16.8c-0.1,0.2-0.2,0.4-0.3,0.6L220,376l2.1-1.1c2.3-1.2,3.3-4.1,2-6.5
		l-3.5-6.7l29.1-15.2l16.1,10.2c1.5,0.9,3.3,1,4.8,0.2l24.2-12.6c1.5-0.8,2.5-2.4,2.6-4.1l0.8-19.1l29-15.1l3.5,6.7
		c1.2,2.3,4.1,3.3,6.5,2l2.1-1.1l2.8,5.4c-0.2,0-0.4,0-0.7,0l-32.1,16.8c-1.5,2.4-2,4.6-1.2,6.2c2.2,4.3,12.8,3.2,23.6-2.4
		c7-3.7,12.4-8.3,14.7-12.3l1.9,3.7c0.5,0.9,1.6,1.3,2.6,0.8c0.9-0.5,1.3-1.6,0.8-2.6l-1.9-3.7c4.6,0.4,11.5-1.3,18.5-5
		c10.8-5.6,17.7-13.7,15.5-18C382.8,301,380.7,300.1,377.9,300z M276.8,339.4c-7.7,4-17.1,1-21.1-6.6c-4-7.7-1-17.1,6.6-21.1
		c7.7-4,17.1-1,21.1,6.6C287.4,325.9,284.5,335.4,276.8,339.4z"/>
	<circle cx="269.6" cy="325.5" r="12.1"/>
</g>
<g>
	<path d="M403.2,463.7l-50.5-4.2c-4.8-0.4-8.4-4.6-8-9.4l6.4-76.9c0.4-4.8,4.6-8.4,9.4-8l50.5,4.2c4.8,0.4,8.4,4.6,8,9.4l-6.4,76.9
		C412.2,460.6,408,464.1,403.2,463.7z M360.3,369c-2.7-0.2-5.1,1.8-5.3,4.5l-6.4,76.9c-0.2,2.7,1.8,5.1,4.5,5.3l50.5,4.2
		c2.7,0.2,5.1-1.8,5.3-4.5l6.4-76.9c0.2-2.7-1.8-5.1-4.5-5.3L360.3,369z"/>
	<path d="M419.3,361.2l-11.6-1l0.1-1.7c0.3-3.9-2.6-7.4-6.5-7.7l-27.9-2.3c-3.9-0.3-7.4,2.6-7.7,6.5l-0.1,1.7l-11.6-1
		c-5.3-0.4-10.1,3.5-10.5,8.9l-7.8,92.8c-0.4,5.3,3.5,10.1,8.9,10.5l65.4,5.5c5.3,0.4,10.1-3.5,10.5-8.9l7.8-92.8
		C428.6,366.3,424.6,361.6,419.3,361.2z M369.4,355.3c0.2-1.9,1.8-3.2,3.6-3.1l27.9,2.3c1.9,0.2,3.2,1.8,3.1,3.6l-0.1,1.7l-34.6-2.9
		L369.4,355.3z M416.6,464.1c-0.3,3.3-3.2,5.7-6.4,5.4l-65.4-5.5c-3.3-0.3-5.7-3.2-5.4-6.4l7.8-92.8c0.3-3.3,3.2-5.7,6.4-5.4
		l65.4,5.5c3.3,0.3,5.7,3.2,5.4,6.4L416.6,464.1z"/>
	<g>
		
			<rect x="393.8" y="380.1" transform="matrix(8.344351e-02 -0.9965 0.9965 8.344351e-02 -27.8193 752.6011)" width="2.8" height="22.7"/>
		
			<rect x="391.4" y="388.4" transform="matrix(8.344351e-02 -0.9965 0.9965 8.344351e-02 -36.4686 756.0737)" width="2.8" height="18.9"/>
	</g>
	<g>
		
			<rect x="392" y="401.7" transform="matrix(8.344351e-02 -0.9965 0.9965 8.344351e-02 -51.0798 770.6569)" width="2.8" height="22.7"/>
		
			<rect x="389.5" y="410.1" transform="matrix(8.344351e-02 -0.9965 0.9965 8.344351e-02 -59.7292 774.1295)" width="2.8" height="18.9"/>
	</g>
	<g>
		
			<rect x="390.3" y="421.5" transform="matrix(8.344351e-02 -0.9965 0.9965 8.344351e-02 -72.3177 787.1428)" width="2.8" height="22.7"/>
		
			<rect x="387.9" y="429.9" transform="matrix(8.344351e-02 -0.9965 0.9965 8.344351e-02 -80.9671 790.6154)" width="2.8" height="18.9"/>
	</g>
	<path d="M367.7,393.3c0.5-0.5,1-1.1,1.5-1.6c2.6-2.7,5.2-5.4,7.8-8.1c0.7-0.7,1.8-0.7,2.5,0c0.7,0.7,0.7,1.8,0,2.5
		c-1.7,1.8-3.4,3.5-5.1,5.3c-2.1,2.1-4.1,4.3-6.2,6.4c-0.7,0.7-1.5,0.6-2-0.2c-1.1-1.9-2.3-3.8-3.4-5.7c-0.7-1.2,0-2.6,1.4-2.7
		c0.7,0,1.2,0.3,1.5,0.9c0.6,1,1.2,2,1.8,2.9C367.5,393,367.6,393.1,367.7,393.3z"/>
	<path d="M365.9,414.9c0.5-0.5,1-1.1,1.5-1.6c2.6-2.7,5.2-5.4,7.8-8.1c0.7-0.7,1.8-0.7,2.5,0c0.7,0.7,0.7,1.8,0,2.5
		c-1.7,1.8-3.4,3.5-5.1,5.3c-2.1,2.1-4.1,4.3-6.2,6.4c-0.7,0.7-1.5,0.6-2-0.2c-1.1-1.9-2.3-3.8-3.4-5.7c-0.7-1.2,0-2.6,1.4-2.7
		c0.7,0,1.2,0.3,1.5,0.9c0.6,1,1.2,2,1.8,2.9C365.7,414.7,365.8,414.8,365.9,414.9z"/>
	<path d="M364.2,434.7c0.5-0.5,1-1.1,1.5-1.6c2.6-2.7,5.2-5.4,7.8-8.1c0.7-0.7,1.8-0.7,2.5,0c0.7,0.7,0.7,1.8,0,2.5
		c-1.7,1.8-3.4,3.5-5.1,5.3c-2.1,2.1-4.1,4.3-6.2,6.4c-0.7,0.7-1.5,0.6-2-0.2c-1.1-1.9-2.3-3.8-3.4-5.7c-0.7-1.2,0-2.6,1.4-2.7
		c0.7,0,1.2,0.3,1.5,0.9c0.6,1,1.2,2,1.8,2.9C364.1,434.5,364.1,434.6,364.2,434.7z"/>
</g>
</svg>
