<?xml version="1.0" encoding="utf-8"?>
<!-- Generator: Adobe Illustrator 25.4.1, SVG Export Plug-In . SVG Version: 6.00 Build 0)  -->
<svg version="1.1" id="Capa_1" xmlns="http://www.w3.org/2000/svg" xmlns:xlink="http://www.w3.org/1999/xlink" x="0px" y="0px"
	 viewBox="0 0 560 560" style="enable-background:new 0 0 560 560;" xml:space="preserve">
<style type="text/css">
	.st0{fill:#FFFFFF;}
	.st1{fill:#FFE812;}
</style>
<g>
	<path d="M531.3,417.1L531.3,417.1L337.6,81.5C326.4,60.4,304.3,46,278.7,46c-24.7,0-46.1,13.4-57.6,33.3l-0.1-0.1l-195,337.8l0.1,0
		c-5.7,9.8-9,21.2-9,33.3c0,36.8,29.8,66.6,66.6,66.6h0v0h390v-0.1c36.8,0,66.6-29.8,66.6-66.6C540.3,438.2,537,426.8,531.3,417.1"
		/>
	<path class="st0" d="M511,428.3L317.2,92.5c-7.2-13.8-21.7-23.3-38.4-23.3c-16.1,0-30,8.8-37.5,21.7l-0.1-0.1L46,428.7l0.1,0
		c-3.7,6.4-5.9,13.8-5.9,21.7c0,24,19.4,43.4,43.4,43.4h0v0h390v-0.1c24,0,43.4-19.4,43.4-43.4C517,442.3,514.8,434.8,511,428.3"/>
	<path class="st1" d="M500.2,433.7L306.6,98.4c-5.2-10.2-15.7-17.1-27.9-17.1c-11.6,0-21.7,6.3-27.1,15.7l-0.1-0.1l-195,337.8l0,0
		c-2.7,4.6-4.2,10-4.2,15.7c0,17.3,14,31.3,31.3,31.3c0,0,0,0,0,0h390v-0.1c17.3,0,31.3-14,31.3-31.4
		C505,444.2,503.2,438.5,500.2,433.7"/>
	<path class="st1" d="M488.4,440L295,105.1c-2.8-6.2-9.1-10.4-16.3-10.4c-6.7,0-12.4,3.6-15.5,9l-0.1-0.1L68.2,441.2
		c-1.6,2.7-2.6,5.8-2.6,9.2c0,9.9,8,17.9,17.9,17.9v0h390v-0.1c9.9,0,17.9-8,17.9-17.9C491.6,446.5,490.4,443,488.4,440"/>
</g>
<g>
	<path d="M233.5,255.7L223,230.4c-1.3-3-4.8-4.5-7.8-3.3l0,0c-3,1.3-4.5,4.8-3.3,7.8l0.7,1.9L219,259l21.3,21.3h5.3l0.3,0.1
		l7.7-13.2L233.5,255.7z"/>
	<path d="M318.2,255.7l10.5-25.4c1.3-3,4.8-4.5,7.8-3.3l0,0c3,1.3,4.5,4.8,3.3,7.8l-0.7,1.9l-6.4,22.2l-21.3,21.3H306l-0.3,0.1
		l-7.7-13.2L318.2,255.7z"/>
	<path d="M384.4,320.9h-36.5c-0.2,0.1-0.4,0.2-0.6,0.4v-6.1h1.9c2.7,0,4.8-2.2,4.8-4.8v-26.6c0-1.6-1.3-2.9-2.9-2.9h-11.7
		c-1.6,0-2.9,1.3-2.9,2.9v0.4h-32.6l-10-17.2c-0.9-1.5-2.5-2.5-4.2-2.5h-27.4c-1.7,0-3.3,0.9-4.2,2.5l-10,17.2h-32.7v-0.4
		c0-1.6-1.3-2.9-2.9-2.9h-11.7c-1.6,0-2.9,1.3-2.9,2.9v26.6c0,2.7,2.2,4.8,4.8,4.8h1.9v6.1c-0.2-0.1-0.4-0.2-0.6-0.4h-36.5
		c-2.5,1.4-3.9,3.1-3.9,5c0,4.8,9.9,8.8,22.2,8.8c8,0,14.9-1.6,18.8-4.2v4.2c0,1,0.8,1.9,1.9,1.9c1,0,1.9-0.8,1.9-1.9v-4.2
		c3.9,2.5,10.9,4.2,18.8,4.2c12.3,0,22.2-3.9,22.2-8.8c0-1.9-1.4-3.6-3.9-5h-36.5c-0.2,0.1-0.4,0.2-0.6,0.4v-6.1h2.3
		c2.7,0,4.8-2.2,4.8-4.8v-7.6h33.1l9.6,16.7c0.9,1.5,2.5,2.5,4.2,2.5h27.4c1.7,0,3.3-0.9,4.2-2.5l9.6-16.7h33v7.6
		c0,2.7,2.2,4.8,4.8,4.8h2.3v6.1c-0.2-0.1-0.4-0.2-0.6-0.4h-36.5c-2.5,1.4-3.9,3.1-3.9,5c0,4.8,9.9,8.8,22.2,8.8
		c8,0,14.9-1.6,18.8-4.2v4.2c0,1,0.8,1.9,1.9,1.9c1,0,1.9-0.8,1.9-1.9v-4.2c3.9,2.5,10.9,4.2,18.8,4.2c12.3,0,22.2-3.9,22.2-8.8
		C388.3,324.1,386.8,322.3,384.4,320.9z M276,309c-8.7,0-15.7-7.1-15.7-15.7s7.1-15.7,15.7-15.7s15.7,7.1,15.7,15.7
		S284.6,309,276,309z"/>
	<circle cx="276" cy="293.2" r="12.1"/>
</g>
<g>
	<rect x="280.2" y="398.7" transform="matrix(0.9762 -0.217 0.217 0.9762 -78.8713 84.7943)" width="133" height="5.7"/>
	<rect x="299.1" y="420.7" transform="matrix(0.9762 -0.2168 0.2168 0.9762 -83.1407 89.3278)" width="133" height="5.7"/>
	<rect x="320.2" y="442.8" transform="matrix(0.9762 -0.2168 0.2168 0.9762 -87.4162 94.4379)" width="133" height="5.7"/>
	<rect x="261.3" y="376.6" transform="matrix(0.9762 -0.217 0.217 0.9762 -74.5382 80.1754)" width="133" height="5.7"/>
	<rect x="399.4" y="361.6" transform="matrix(0.7452 -0.6668 0.6668 0.7452 -148.3243 364.0677)" width="5.7" height="29.1"/>
	<rect x="288.6" y="412" transform="matrix(0.7619 -0.6476 0.6476 0.7619 -207.1663 290.3881)" width="5.7" height="30"/>
	<rect x="438.3" y="404.4" transform="matrix(0.725 -0.6887 0.6887 0.725 -168.0586 419.3764)" width="5.7" height="31.5"/>
	<g>
		<circle class="st0" cx="263" cy="393.7" r="6.4"/>
		<path d="M263,400.7c-3.9,0-7-3.1-7-7c0-3.9,3.1-7,7-7s7,3.1,7,7C270,397.6,266.9,400.7,263,400.7z M263,387.9
			c-3.2,0-5.8,2.6-5.8,5.8s2.6,5.8,5.8,5.8s5.8-2.6,5.8-5.8S266.2,387.9,263,387.9z"/>
	</g>
	<g>
		<circle class="st0" cx="282.4" cy="416.4" r="6.4"/>
		<path d="M282.4,423.4c-3.9,0-7-3.1-7-7c0-3.9,3.1-7,7-7c3.9,0,7,3.1,7,7C289.4,420.3,286.3,423.4,282.4,423.4z M282.4,410.6
			c-3.2,0-5.8,2.6-5.8,5.8s2.6,5.8,5.8,5.8s5.8-2.6,5.8-5.8S285.6,410.6,282.4,410.6z"/>
	</g>
	<g>
		<circle class="st0" cx="301.9" cy="437" r="6.4"/>
		<path d="M301.9,444c-3.9,0-7-3.1-7-7s3.1-7,7-7s7,3.1,7,7S305.7,444,301.9,444z M301.9,431.2c-3.2,0-5.8,2.6-5.8,5.8
			s2.6,5.8,5.8,5.8s5.8-2.6,5.8-5.8S305.1,431.2,301.9,431.2z"/>
	</g>
	<g>
		<circle class="st0" cx="320.1" cy="461" r="6.4"/>
		<path d="M320.1,468c-3.9,0-7-3.1-7-7s3.1-7,7-7s7,3.1,7,7S324,468,320.1,468z M320.1,455.2c-3.2,0-5.8,2.6-5.8,5.8
			s2.6,5.8,5.8,5.8s5.8-2.6,5.8-5.8S323.4,455.2,320.1,455.2z"/>
	</g>
	<g>
		<circle class="st0" cx="450.6" cy="431.3" r="6.4"/>
		<path d="M450.6,438.3c-3.9,0-7-3.1-7-7c0-3.9,3.1-7,7-7c3.9,0,7,3.1,7,7C457.6,435.1,454.4,438.3,450.6,438.3z M450.6,425.5
			c-3.2,0-5.8,2.6-5.8,5.8s2.6,5.8,5.8,5.8s5.8-2.6,5.8-5.8S453.8,425.5,450.6,425.5z"/>
	</g>
	<g>
		<circle class="st0" cx="428.9" cy="408.4" r="6.4"/>
		<path d="M428.9,415.4c-3.9,0-7-3.1-7-7c0-3.9,3.1-7,7-7s7,3.1,7,7C435.9,412.3,432.7,415.4,428.9,415.4z M428.9,402.6
			c-3.2,0-5.8,2.6-5.8,5.8s2.6,5.8,5.8,5.8s5.8-2.6,5.8-5.8S432.1,402.6,428.9,402.6z"/>
	</g>
	<g>
		<circle class="st0" cx="411.7" cy="386.7" r="6.4"/>
		<path d="M411.7,393.7c-3.9,0-7-3.1-7-7c0-3.9,3.1-7,7-7c3.9,0,7,3.1,7,7C418.7,390.6,415.6,393.7,411.7,393.7z M411.7,380.9
			c-3.2,0-5.8,2.6-5.8,5.8s2.6,5.8,5.8,5.8s5.8-2.6,5.8-5.8S414.9,380.9,411.7,380.9z"/>
	</g>
	<g>
		<circle class="st0" cx="391.1" cy="364" r="6.4"/>
		<path d="M391.1,371c-3.9,0-7-3.1-7-7s3.1-7,7-7s7,3.1,7,7S395,371,391.1,371z M391.1,358.2c-3.2,0-5.8,2.6-5.8,5.8
			s2.6,5.8,5.8,5.8s5.8-2.6,5.8-5.8S394.4,358.2,391.1,358.2z"/>
	</g>
	<g>
		<circle class="st0" cx="334.3" cy="377.9" r="3"/>
		<path d="M334.3,381.3c-1.9,0-3.4-1.5-3.4-3.4s1.5-3.4,3.4-3.4s3.4,1.5,3.4,3.4S336.2,381.3,334.3,381.3z M334.3,375.3
			c-1.4,0-2.6,1.2-2.6,2.6s1.2,2.6,2.6,2.6s2.6-1.2,2.6-2.6S335.7,375.3,334.3,375.3z"/>
	</g>
	<g>
		<circle class="st0" cx="356" cy="399.6" r="3"/>
		<path d="M356,403c-1.9,0-3.4-1.5-3.4-3.4c0-1.9,1.5-3.4,3.4-3.4s3.4,1.5,3.4,3.4C359.4,401.5,357.9,403,356,403z M356,397
			c-1.4,0-2.6,1.2-2.6,2.6s1.2,2.6,2.6,2.6s2.6-1.2,2.6-2.6S357.4,397,356,397z"/>
	</g>
	<g>
		<circle class="st0" cx="374.3" cy="421.3" r="3"/>
		<path d="M374.3,424.7c-1.9,0-3.4-1.5-3.4-3.4s1.5-3.4,3.4-3.4s3.4,1.5,3.4,3.4S376.2,424.7,374.3,424.7z M374.3,418.7
			c-1.4,0-2.6,1.2-2.6,2.6s1.2,2.6,2.6,2.6s2.6-1.2,2.6-2.6S375.7,418.7,374.3,418.7z"/>
	</g>
	<g>
		<circle class="st0" cx="391.4" cy="444.1" r="3"/>
		<path d="M391.4,447.6c-1.9,0-3.4-1.5-3.4-3.4s1.5-3.4,3.4-3.4c1.9,0,3.4,1.5,3.4,3.4S393.3,447.6,391.4,447.6z M391.4,441.6
			c-1.4,0-2.6,1.2-2.6,2.6s1.2,2.6,2.6,2.6s2.6-1.2,2.6-2.6S392.8,441.6,391.4,441.6z"/>
	</g>
	<g>
		<circle class="st0" cx="439.4" cy="419" r="3"/>
		<path d="M439.4,422.4c-1.9,0-3.4-1.5-3.4-3.4s1.5-3.4,3.4-3.4c1.9,0,3.4,1.5,3.4,3.4S441.3,422.4,439.4,422.4z M439.4,416.4
			c-1.4,0-2.6,1.2-2.6,2.6s1.2,2.6,2.6,2.6s2.6-1.2,2.6-2.6S440.8,416.4,439.4,416.4z"/>
	</g>
	<g>
		<circle class="st0" cx="401.7" cy="375.6" r="3"/>
		<path d="M401.7,379c-1.9,0-3.4-1.5-3.4-3.4c0-1.9,1.5-3.4,3.4-3.4s3.4,1.5,3.4,3.4C405.1,377.5,403.6,379,401.7,379z M401.7,373
			c-1.4,0-2.6,1.2-2.6,2.6s1.2,2.6,2.6,2.6s2.6-1.2,2.6-2.6S403.1,373,401.7,373z"/>
	</g>
	<g>
		<circle class="st0" cx="290.9" cy="427" r="3"/>
		<path d="M290.9,430.4c-1.9,0-3.4-1.5-3.4-3.4s1.5-3.4,3.4-3.4s3.4,1.5,3.4,3.4S292.7,430.4,290.9,430.4z M290.9,424.4
			c-1.4,0-2.6,1.2-2.6,2.6s1.2,2.6,2.6,2.6s2.6-1.2,2.6-2.6S292.3,424.4,290.9,424.4z"/>
	</g>
</g>
</svg>
