<?xml version="1.0" encoding="utf-8"?>
<!-- Generator: Adobe Illustrator 25.4.1, SVG Export Plug-In . SVG Version: 6.00 Build 0)  -->
<svg version="1.1" id="Capa_1" xmlns="http://www.w3.org/2000/svg" xmlns:xlink="http://www.w3.org/1999/xlink" x="0px" y="0px"
	 viewBox="0 0 560 560" style="enable-background:new 0 0 560 560;" xml:space="preserve">
<style type="text/css">
	.st0{fill:#19479D;}
	.st1{fill:#FFFFFF;}
</style>
<path class="st0" d="M280,528.8c137.4,0,248.8-111.4,248.8-248.8c0-137.4-111.4-248.8-248.8-248.8C142.6,31.2,31.2,142.6,31.2,280
	C31.2,417.4,142.6,528.8,280,528.8"/>
<g id="APOYO">
	<path class="st1" d="M395.4,466.7c-11.9,0-16.2-0.1-28.1-0.1c-34,0-68.1,0-102.1,0c-6.5,0-7.6-1-7.6-7.4c0-7,0-14,0-21
		c0-4.6,1.3-5.9,5.9-6c3.8,0,7.5,0,11.4,0c-0.3-2-2-2.5-2.9-3.7c-3.2-4.5-4.2-9.3-3.1-14.8c4.8-23.2,9.6-46.5,14.3-69.7
		c0.3-1.7,1.1-2.7,2.6-3.4c8.6-4.6,17.2-9.2,25.8-14c2-1.1,2.9-0.5,3.9,1.1c2.3,3.7,3.4,7.6,2.5,12c-4,19.8-8,39.5-12.1,59.3
		c-1.1,5.5-2.3,10.9-3.4,16.4c-1.1,6-2.1,12-7.1,16.8h6.3c8.1,0,16.3-0.2,24.4,0.1c3.3,0.1,4-1,3.9-4.1c-0.2-8-0.1-16-0.1-24
		c0-5.1,1.2-6.3,6.3-6.3c19.6,0,39.1,0,58.7,0"/>
	<path class="st1" d="M403.1,254.8c-60.2,32.8-120.4,65.5-180.6,98.3c-9.8,5.3-19.6,10.8-29.5,15.9c-2.8,1.5-3.6,3.2-3.6,6.2
		c0.1,25.8,0.1,51.6,0.1,77.4c0,6.9-3.4,11.8-9.1,13.4c-8.1,2.3-15.9-3.3-16-12c-0.2-10.3,0-20.6-0.1-30.9c0-19.2,0.1-38.4,0-57.6
		c0-6.6,2.7-11,8.4-14.1c44.1-23.9,88.1-47.8,132.1-71.9c1.9-1,3.7-1.3,5.8-1.1c9.2,1.1,18.4,2.1,27.6,3.2
		c20.2,2.3,35.3-14.1,31.3-34c-0.3-1.4-1.1-2.8,1-3.9c10.9-5.7,21.4-12.1,32.6-17.3V254.8z"/>
	<path class="st1" d="M301.2,220.7c-9.9-11.1-19.3-21.6-28.9-32.3c-0.6,1.5,0.4,2.4,0.9,3.3c6.7,13.2,13.5,26.4,20.2,39.7
		c1.1,2.2,2.5,3.2,4.9,3.4c14.4,1.5,28.8,3.2,43.2,4.8c8.3,0.9,13.7,5.1,15,11.7c1.8,9.4-5.8,18-15.5,17
		c-18.3-1.9-36.6-4.2-54.9-6.2c-6.7-0.7-11.1-4.1-14.1-10.1c-7.5-15-15.2-29.8-22.8-44.7c-0.6-1.1-1.2-2.2-2.4-3.1
		c1.6,6.7,3.2,13.4,4.9,20c2.4,10,5,19.9,7.4,29.9c2.6,11.2,9.8,17.7,20.6,20.5c0.6,0.2,1.2,0.3,1.8,0.5c0.2,0.1,0.5,0.2,1.1,0.5
		c-4.1,2.2-8,4.3-11.8,6.4c-7.7,4.2-15.5,8.2-23.1,12.5c-1.9,1-3.1,1.2-4.4-0.8c-1.1-1.8-2.7-2.5-4.8-2.4c-0.1,0.2-0.2,0.3-0.2,0.4
		c2.3,6.7-1.9,9.2-7,11.6c-7,3.3-13.7,7.2-20.5,11c-2.2,1.2-3.2,1.2-3.5-1.6c-0.9-7.4-2.1-14.8-3-22.3c-0.5-3.8,0-7.6,0.9-11.3
		c5.5-23.5,10.9-47,16.3-70.4c0.1-0.6,0.2-1.2,0.4-2.9c-6.1,3.9-11.7,7.2-17.1,10.8c-0.8,0.5-1.1,2-1.5,3
		c-6.1,15.2-12.2,30.4-18.3,45.5c-3.2,7.8-9.9,11.6-17.2,9.8c-8.5-2.1-13-10.8-9.7-19.5c4.1-10.7,8.4-21.2,12.7-31.8
		c2.7-6.7,5.5-13.4,8.1-20.1c1.6-4.2,4.3-7.4,8.1-9.8c16.6-10.3,33.3-20.5,49.9-30.9c4.8-3,9.8-3.8,15.3-2.5
		c12.6,3,25.2,5.8,37.8,8.8c13,3.1,19.6,13,17.1,26.1C305.4,203.7,303.3,211.7,301.2,220.7"/>
	<path class="st1" d="M247.5,361.3c0.9,4.3,1.6,8.3,1.2,12.4c-2.7,25.6-5.3,51.2-8,76.8c-1,9.9-9,16.9-17.9,15.9
		c-10.1-1.1-16.3-9.2-15.2-19.5c2.2-20.9,4.4-41.9,6.5-62.9c0.3-3.6,1.5-5.8,5-7.5C228.5,371.8,237.8,366.5,247.5,361.3"/>
	<path class="st1" d="M319.1,124.8c0,17.2-14.6,31.7-31.6,31.5c-17.2-0.1-31.7-14.8-31.4-31.7c0.3-17.2,14.3-31.2,31.4-31.3
		C304.6,93.2,319.2,107.7,319.1,124.8"/>
</g>
</svg>
