<?xml version="1.0" encoding="utf-8"?>
<!-- Generator: Adobe Illustrator 25.4.1, SVG Export Plug-In . SVG Version: 6.00 Build 0)  -->
<svg version="1.1" id="Capa_1" xmlns="http://www.w3.org/2000/svg" xmlns:xlink="http://www.w3.org/1999/xlink" x="0px" y="0px"
	 viewBox="0 0 560 560" style="enable-background:new 0 0 560 560;" xml:space="preserve">
<style type="text/css">
	.st0{fill:#19479D;}
	.st1{fill:#FFFFFF;}
</style>
<path class="st0" d="M280,528.8c137.4,0,248.8-111.4,248.8-248.8c0-137.4-111.4-248.8-248.8-248.8C142.6,31.2,31.2,142.6,31.2,280
	C31.2,417.4,142.6,528.8,280,528.8"/>
<g id="BARANDA">
	<path class="st1" d="M374.9,312.9c2.7,0,5.5,0,8.3,0c1,0,1.2-0.2,0.7-1.2c-7.2-16.2-14.4-32.5-21.4-48.8c-0.4-0.9-0.8-1.1-1.7-1.1
		c-5.4-0.2-10.9,0-16.4,0c-1,0-1.1,0.3-0.7,1.2c0.8,1.7,1.6,3.4,2.3,5.2c6.4,14.6,12.9,29.2,19.2,43.9c0.4,0.8,0.8,0.9,1.5,0.9
		C369.5,312.9,372.2,312.9,374.9,312.9 M235.7,261.8L235.7,261.8c-2.6,0-5.2-0.1-7.8,0c-1.7,0-1.7,0-1,1.6
		c4.5,10.1,9,20.2,13.5,30.4c2.6,5.9,5.2,11.9,7.8,17.8c0.3,0.6,0.5,1.3,1.5,1.3c5.6,0,11.2,0,16.8,0c0.9,0,0.9-0.3,0.6-1
		c-7.3-16.3-14.5-32.7-21.5-49.2c-0.3-0.7-0.6-0.9-1.3-0.9C241.3,261.8,238.5,261.8,235.7,261.8 M293,261.9c0-0.1,0-0.1,0-0.2
		c-2.7,0-5.5,0-8.3,0c-1,0-1.3,0.2-0.9,1.2c1,2.7,2.4,5.1,3.5,7.8c6,13.7,12,27.4,18,41.1c0.4,0.8,0.8,1.1,1.7,1.1
		c5.4,0,10.8,0,16.2,0c1.1,0,1.2-0.2,0.7-1.2c-7.2-16.3-14.4-32.6-21.5-48.9c-0.3-0.7-0.6-0.9-1.4-0.9
		C298.5,261.9,295.8,261.9,293,261.9 M198,312.9L198,312.9c2.7,0,5.3,0,8,0c1.5,0,1.5,0,0.9-1.4c-7.1-16.2-14.4-32.3-21.2-48.7
		c-0.3-0.9-0.9-1-1.6-1c-5.4,0-10.8,0-16.2-0.1c-1.3,0-1.4,0.4-0.9,1.5c3.2,7,6.3,14.1,9.4,21.1c4,9.1,8,18.3,12,27.5
		c0.4,0.9,0.9,1.2,1.8,1.1C192.8,312.8,195.4,312.9,198,312.9 M280,317.4c-48,0-96.1,0-144.1,0c-1.3,0-1.7-0.3-1.7-1.7
		c0-18.8,0-37.6,0-56.4c0-1.4,0.3-1.8,1.8-1.8c41.9,0,83.7,0,125.6,0c51.6,0,103.2,0,154.8,0c2.7,0,5.4,0.1,8.1,0
		c1.2,0,1.4,0.3,1.4,1.4c0,9.6,0,19.3,0,28.9c0,9.3,0,18.6,0,27.9c0,1.4-0.4,1.6-1.7,1.6C376.1,317.4,328,317.4,280,317.4"/>
	<path class="st1" d="M293,175.1L293,175.1c-2.7,0-5.4,0-8.1-0.1c-1.3,0-1.4,0.3-0.8,1.4c0.5,0.9,0.8,1.8,1.2,2.7
		c6.7,15.2,13.4,30.5,20.1,45.8c0.4,1,1,1.4,2,1.4c5.2,0,10.5,0,15.7,0c1.6,0,1.6,0,0.9-1.4c-7.1-16.2-14.2-32.4-21.3-48.7
		c-0.4-0.8-0.8-1.1-1.7-1.1C298.3,175.1,295.6,175.1,293,175.1 M175.9,175.1L175.9,175.1c-2.7-0.1-5.4,0-8.1-0.1
		c-1.2,0-1.4,0.3-0.9,1.4c2.1,4.5,4.1,9,6.1,13.6c5.1,11.7,10.2,23.4,15.3,35.1c0.3,0.7,0.6,1.2,1.5,1.2c5.6-0.1,11.1,0,16.7,0
		c0.8,0,1.1-0.2,0.7-1c-0.5-0.9-0.9-1.9-1.3-2.9c-6.8-15.5-13.6-31-20.3-46.4c-0.3-0.8-0.8-0.9-1.5-0.9
		C181.3,175.1,178.6,175.1,175.9,175.1 M258.1,226.3L258.1,226.3c2.6,0,5.2-0.1,7.8,0c1.2,0,1.4-0.2,0.9-1.4
		c-7.2-16.2-14.3-32.4-21.3-48.7c-0.3-0.8-0.8-1.2-1.7-1.2c-5.5,0-11,0-16.5-0.1c-0.9,0-1.1,0.2-0.7,1c0.8,1.5,1.5,3.1,2.1,4.6
		c6.4,14.7,13,29.2,19.2,44c0.5,1.1,1.1,1.6,2.3,1.6C252.8,226.2,255.5,226.3,258.1,226.3 M374.9,226.3L374.9,226.3c2.7,0,5.3,0,8,0
		c1.6,0,1.6,0,0.9-1.4c-7.2-16.3-14.3-32.6-21.5-48.9c-0.3-0.8-0.7-0.9-1.5-0.9c-5.4,0-10.7,0-16.1,0c-1.3,0-1.4,0.3-0.9,1.4
		c7.2,16.3,14.3,32.6,21.4,48.9c0.3,0.8,0.8,0.9,1.5,0.9C369.5,226.3,372.2,226.3,374.9,226.3 M279.8,230.5c-47.6,0-95.2,0-142.8,0
		c-2.8,0-2.8,0-2.8-2.8c0-18,0-36.1,0-54.1c0-2.8,0-2.8,2.8-2.8c20.3,0,40.6,0,61,0c74.6,0,149.2,0,223.7,0c1.1,0,2.2,0.1,3.3,0.1
		c0.7,0,1,0.3,1,1c0,0.3,0,0.6,0,0.9c0,18.6,0,37.2,0,55.8c0,1.9,0,2-1.9,2c-44.6,0-89.1,0-133.7,0
		C286.8,230.5,283.3,230.5,279.8,230.5z"/>
	<path class="st1" d="M276.3,330.5h99.1c3.7,0,3.7,0,3.7,3.7c0,1.8-0.1,3.6,0,5.4c0,1-0.3,1.4-1.3,1.3c-1.4-0.1-2.9,0-4.3,0
		c-1-0.1-1.3,0.2-1.3,1.2c0,12.7,0,25.4,0,38c0,8.9,0,17.8-0.1,26.8c0,1,0.2,1.3,1.3,1.3c1.6-0.1,3.2,0.1,4.8,0
		c0.7,0,0.9,0.3,0.9,0.9c0,2.8,0,5.7,0,8.5c0,0.9-0.6,0.9-1.2,0.9c-3.5,0-7,0-10.5,0c-5.4,0-10.9,0-16.4,0c-1.8,0-1.8,0-1.8-1.9
		c0-2.3,0-4.7,0-7c0-1.1,0.3-1.6,1.4-1.5c1.3,0.1,2.7,0,4,0.1c0.9,0.1,1.2-0.2,1.2-1.2c0-12,0-23.9,0-35.9c0-9.6,0-19.2,0-28.8
		c0-1.4-0.5-1.6-1.7-1.6c-51.9,0-103.9,0-155.8,0c-1.1,0-1.4,0.3-1.4,1.4c0,11.6,0,23.2,0,34.7c0,10.1,0.1,20.2,0,30.3
		c0,0.8,0.3,1,1,1c1.6,0,3.1,0,4.7,0c0.9,0,1.3,0.2,1.2,1.2c-0.2,2.6,0,5.2,0,7.8c0,0.9-0.3,1.3-1.3,1.3c-9.2,0-18.4,0-27.6,0
		c-0.9,0-1.1-0.3-1.1-1.2c0-2.7,0-5.3,0-8c0-1,0.3-1.4,1.3-1.3c1.5,0.1,3,0,4.6,0c0.8,0,1-0.2,1-1c0-20.1,0-40.3,0-60.4
		c0-1.5-0.1-3,0-4.5c0.1-1-0.2-1.4-1.2-1.4c-1.5,0.1-3,0-4.4,0c-0.9,0-1.3-0.1-1.2-1.2c0.1-2.7,0-5.3,0-8c0-0.9,0.2-1.2,1.2-1.2
		C208.8,330.5,242.6,330.5,276.3,330.5L276.3,330.5z"/>
</g>
</svg>
