<?xml version="1.0" encoding="utf-8"?>
<!-- Generator: Adobe Illustrator 25.4.1, SVG Export Plug-In . SVG Version: 6.00 Build 0)  -->
<svg version="1.1" id="Capa_1" xmlns="http://www.w3.org/2000/svg" xmlns:xlink="http://www.w3.org/1999/xlink" x="0px" y="0px"
	 viewBox="0 0 560 560" style="enable-background:new 0 0 560 560;" xml:space="preserve">
<style type="text/css">
	.st0{fill:#19479D;}
	.st1{fill:#FFFFFF;}
</style>
<path class="st0" d="M280,528.8c137.4,0,248.8-111.4,248.8-248.8c0-137.4-111.4-248.8-248.8-248.8C142.6,31.2,31.2,142.6,31.2,280
	C31.2,417.4,142.6,528.8,280,528.8"/>
<g id="BOTAS">
	<path class="st1" d="M443.1,399.5c-1.5,0-3,0-4.5,0c-6-0.5-12-0.7-18-1.9c-2.3-0.5-3.8-1.2-4-3.9c-0.8-10-7.8-15.1-15.8-19.1
		c-7.5-3.6-15.6-5-23.8-5.6c-9.4-0.7-18.8-0.9-28.1-1.8c-3-0.3-5.2-1.8-7.2-3.6c-2.7-2.5-5.2-5.1-7.4-8.1
		c-9.1-12.4-20.8-22.2-31.6-32.9c-3.8-3.7-8.7-6.4-13-9.8c-12.4-9.7-17.6-23.4-19.2-38.1c-1.5-14-2.4-28.2-1.7-42.4
		c0.2-5,0.8-9.9,1.7-14.7c2.1-10.6-2.8-24.7-16.9-27.4c-2-0.4-2.2-1.3-2.2-3c0.6-15.4,1.2-30.8,1.6-46.3c0.1-2.2,0.9-2.4,2.8-2.1
		c9.2,1.8,18.5,3.5,27.7,5.2c9.6,1.8,19.2,3.6,28.8,5.4c7.8,1.5,15.7,3,23.5,4.8c4.4,1,6.8,4.3,7.5,8.6c0.7,4.1,0.5,8.1-1.2,12
		c-5.3,12.2-7.8,25.2-10.2,38.2c-1.5,7.9-2.9,15.8-3.6,23.7c-1,11.7,0.6,23.1,5.7,33.8c1.3,2.7,2.8,5.3,5,7.3
		c7.9,7.2,13.4,16.3,19.1,25.2c6,9.2,12.2,18.2,16.7,28.3c4.9,10.8,13.1,17.4,25.1,20c12,2.6,23.7,6.3,34.5,12.4
		c1.9,1.1,3.7,2.3,5.4,3.7c3,2.5,4.8,5.5,3.9,9.6c-0.3,1.2-0.4,2.3-0.6,3.5c-0.9,5.4-1.9,10.6,1.8,15.6
		C447,398.6,446.2,399.4,443.1,399.5 M403.7,414.6c-10.9,2.4-21.9,4.1-33.1,4.7c-21.7,1.2-43.1-1-64-7.1
		c-11.1-3.2-21.8-7.5-33.2-9.9c-11.7-2.5-23.4-4.8-35.3-6.2c-15.9-1.8-31.9-2.6-48-2.4c11.5-2.3,23.1-2.5,34.8-2
		c13.7,0.6,27.2,2,40.6,4.8c8.4,1.8,16.5,4.9,24.7,7.4c15,4.5,29.9,9.1,45.3,11.6c5.8,0.9,11.7,0.5,17.5,0.6
		c15.4,0.4,30.6-0.6,45.7-3.6c4.4-0.9,4.8-1.5,3.9-5.8c-3.5-16.9-13.5-25.9-30.9-27.8c-0.7-0.1-1.3-0.2-2-0.3
		c-0.1-1.1,0.7-1.1,1.2-1.1c8.7,0.7,17.3,1.7,24.6,7.4c3,2.3,5.2,5.1,6.7,8.5c2.5,5.6,4.2,11.3,4.2,17.5
		C406.4,413.1,406,414.1,403.7,414.6 M453.1,382.5c2.2-8.5-0.6-15.5-6.7-21.5c-6.2-6-14.1-8.6-21.8-11.6c-9.2-3.5-18.7-5.8-27.9-9.1
		c-4.1-1.4-8.6-2.7-10.6-7.4c-3.4-8-7.5-15.7-12-23.1c-8.5-13.8-18.4-26.7-28-39.7c-3.6-4.9-6.6-10.4-7.4-16.4
		c-1.9-13.7-0.6-27.4,2.6-40.9c3.8-15.8,8.9-31.3,11.4-47.5c0.3-1.9,0.6-3.8-0.1-5.8c-2.6-8.1-8.3-12.5-16.3-14.3
		c-4.2-1-8.5-1.8-12.8-2.6c-7-1.4-13.9-2.8-20.9-4.1c-9.6-1.8-19.2-3.6-28.8-5.4c-6.8-1.3-13.5-3-20.3-4.3c-7.4-1.4-9.8,0.8-10,8.1
		c-0.6,16.6-1.3,33.2-1.9,49.8c-0.1,2.2-0.7,3-3.1,3c-14.2,0-28.5-0.1-42.7,0.4c-11.6,0.4-23.2,0.1-34.7,1.7c-3.6,0.5-5,2-4.6,5.5
		c0.3,3,1,6,1.6,9c2.9,14,6.6,27.9,8.3,42.1c1.8,15.5,3.5,31.1,2.5,46.8c-0.8,12.1-2.4,24.1-5.3,36c-2.3,9.4-6.9,18.1-8.9,27.6
		c-1.6,7.9-3,15.7,0.8,23.5c4.9,9.9,7.1,20.5,7.8,31.4c0.3,4.2,0.4,8.3,0.5,12.5c0,1.3-0.1,2.8,1.5,3.2c1.9,0.5,3.7,1.4,5.7,1.4
		c8.3,0,16.6,0.1,24.9,0.2c2,0,3.9-0.1,5.6-1.4c1.6-1.3,3.3-1.2,4.9,0c1.7,1.4,3.3,1.2,5.1-0.1c2.1-1.6,4.4-1.7,6.5,0.3
		c1.5,1.4,3.1,1.2,4.5,0c2.1-1.7,3.9-1.5,6.1,0.2c4,3.1,9.6,0.7,10.9-4.2c1.1-4.2,0.6-8.5,1.4-12.7c0.4-2.1,1.2-3,3.3-2.7
		c2.4,0.3,4.9,0.6,7.4,0.9c11.4,1.1,22.6,3,33.1,7.7c8.2,3.7,16.4,7.5,25.3,9c4.4,0.8,8.7,3.1,13.2,0.6c1.1-0.6,2.5-0.3,3.6,0.8
		c2.2,2.2,4.5,2.1,6.9,0.2c1.7-1.3,3.3-1.6,4.9,0.3c1.7,2,3.8,2.2,5.8,0.6c2.1-1.6,3.9-1.5,6-0.3c2.1,1.2,4.4,1.3,6.3-0.4
		c2-1.7,3.9-1.7,5.9,0c1.8,1.5,3.6,1.5,5.4,0c2-1.8,4-1.8,6.2-0.3c2.1,1.5,4,1.4,5.6-0.8c1.2-1.8,3.1-2.1,4.7-1c2,1.4,4,1.3,6.2,0.8
		c2.3-0.5,4.7-0.8,7-1.2c7.8-1.5,15.5-2.8,22.8-6.3c1.8-0.9,2.5-2.1,2.6-3.9c0.3-3.1-0.6-5.9-2.3-8.8c0.9,0,1.3-0.1,1.7,0
		c8,1.9,16.2,1.1,24.2,0.8c8.5-0.3,11.8-8.8,8.1-14.4C452.2,391,452,386.8,453.1,382.5"/>
	<path class="st1" d="M395.5,385c-7.3-5.7-15.9-6.6-24.6-7.4c-0.5,0-1.3,0-1.2,1.1c0.6,0.1,1.3,0.2,2,0.3
		c17.4,1.8,27.5,10.9,30.9,27.8c0.9,4.2,0.4,4.9-3.9,5.8c-15.1,3-30.4,4-45.7,3.6c-5.8-0.1-11.7,0.3-17.5-0.6
		c-15.5-2.5-30.4-7.1-45.3-11.6c-8.2-2.5-16.3-5.6-24.7-7.4c-13.3-2.8-26.9-4.2-40.6-4.8c-11.7-0.5-23.3-0.3-34.8,2
		c16.1-0.2,32,0.6,48,2.4c11.9,1.3,23.6,3.7,35.3,6.2c11.3,2.4,22.1,6.7,33.2,9.9c20.9,6.1,42.2,8.4,64,7.1
		c11.2-0.6,22.2-2.3,33.1-4.7c2.3-0.5,2.7-1.6,2.8-3.6c0.1-6.2-1.7-11.9-4.2-17.5C400.8,390.1,398.5,387.3,395.5,385"/>
</g>
</svg>
