<?xml version="1.0" encoding="utf-8"?>
<!-- Generator: Adobe Illustrator 25.4.1, SVG Export Plug-In . SVG Version: 6.00 Build 0)  -->
<svg version="1.1" id="Capa_1" xmlns="http://www.w3.org/2000/svg" xmlns:xlink="http://www.w3.org/1999/xlink" x="0px" y="0px"
	 viewBox="0 0 560 560" style="enable-background:new 0 0 560 560;" xml:space="preserve">
<style type="text/css">
	.st0{fill:#19479D;}
	.st1{fill:#FFFFFF;}
</style>
<path class="st0" d="M280,528.8c137.4,0,248.8-111.4,248.8-248.8c0-137.4-111.4-248.8-248.8-248.8C142.6,31.2,31.2,142.6,31.2,280
	C31.2,417.4,142.6,528.8,280,528.8"/>
<g id="CARETA">
	<path class="st1" d="M314.5,217c0.3,10.4-8.2,106.9-14,170.6l0,0.2c-2.2,39.6-34.7,43.5-36,43.6l-0.5,0.1l-0.5,0.2
		c-28.2,9.1-96.4,16.3-97.1,16.3l-2.8,0.2c-12.2,0-14.4-9.6-14.6-10.6l-0.1-0.5c-16.5-59.1-15.4-141.7-15.4-142.5
		c0.8-42,7.3-87.9,7.4-88.4c1.3-9.7,6.4-14.6,15.2-14.6c1.6,0,2.7,0.2,2.7,0.2l0.4,0.1l134.7,5.9c8.7,0.2,14.7,2.4,18,6.4
		c3.7,4.6,2.7,10.5,2.7,10.5l-0.3,1.6L314.5,217z M436.4,216c0-6.8-4.4-6.7-4.4-6.7H324.2c-0.4-3.4-1.7-7.5-4.7-11.2
		c-5.1-6.4-13.7-9.9-25.3-10.2l-134-5.8c-0.7-0.1-2.2-0.3-4.2-0.3c-13.7,0-23,8.6-24.9,23.1c-0.1,0.5-6.6,46.9-7.5,89.5
		c0,3.4-1.1,84.6,15.7,145.1c1.3,6.6,7.8,18.5,24.2,18.5c1.2,0,2.5-0.1,3.8-0.2c2.8-0.3,69.2-7.2,98.7-16.6c2.4-0.3,11.6-1.9,21-8.1
		c9.9-6.5,21.9-19.6,23.3-44.6c0.2-2.2,4-43.6,7.6-85c1.8-21.3,3.3-38.9,4.4-52.7l104.3-2.5c8.7-1,8.4-10.4,8.4-10.4L436.4,216z"/>
	<path class="st1" d="M178.5,175.2l0.1,0c2.3,0.8,4.9-0.3,6-2.5c6.2-12.9,30.2-53.3,92.7-59.8c0.6-0.1,56.8-5.8,83.6,9.9
		c6,3.6,22.1,13.4,25.2,15.7l0.5,0.4l0.6,0.2c8,3,17.7,7.1,19.6,8.4l0.3,0.2c0.2,0.1,17.5,12,17.9,53.2c0,2.6,2.1,4.7,4.8,4.8h0.1
		c2.7,0.1,5-2.2,5-4.9c-0.4-45.6-20.3-59.9-22.4-61.3c-3.6-2.4-16-7.3-20.5-9.1l-1-0.5c-5.5-3.8-22.8-14.2-25-15.5
		c-29.7-17.4-87.2-11.5-89.7-11.3c-41.8,4.4-67.5,23.1-81.6,38.1c-10.3,10.9-16.1,21.4-19,27.3C174.5,171.2,175.8,174.3,178.5,175.2
		"/>
	<path class="st1" d="M392.2,375.3l0,0.3c0,0-0.3,1-3.1,2.3l-59.3,29c-2.4,1.2-3.4,4.1-2.2,6.5l0,0.1c1.2,2.4,4.1,3.4,6.5,2.2
		l59.2-28.9c4.7-2.2,7.5-5.1,8.4-8.8c0.8-3.3-0.2-6.5-1.5-8.3l-7.3-12.3v0l-0.1-1l0.3-1.5c0.5-29.8,10.7-46.2,10.8-46.3l0.1-0.2
		c7.6-12.9,16.5-38.3,20-48.8c0.9-2.6-0.6-5.3-3.1-6.2l-0.1,0c-2.5-0.8-5.2,0.6-6.1,3.1c-3.4,10.2-12,34.9-19.1,46.9
		c-1,1.6-11.2,18.6-12.3,49c-19.2-8.9-41.4-26.4-41.6-26.5c-10.7-8.7-6.6-26.7-5.9-29.6l0.1-0.5c6.7-17.8,2.8-31.5-0.4-38.5
		c-1.3-2.8-4.8-3.7-7.3-1.9l-0.1,0.1c-1.8,1.4-2.5,3.8-1.5,5.9c2.4,5.3,5.7,16.5,0,31.4l-0.1,0.4c-0.3,1.1-7.7,26.8,9,40.4
		c1.2,0.9,26.9,21.2,48.3,29.8l2.4,2l3.2,5.4"/>
	<path class="st1" d="M306.2,263.3l-0.1-0.4l-0.9-3.4l-0.2-0.2l-7.3-1.2c-3.5,1.3-7.1,2.6-16.2,13.9l-0.1,0.1
		c-1.3,1.3-3.1,2.3-3.7,2.2c-0.3-0.1-1.7-1.3-2.8-5.9l0-0.1c-0.3-1.5-2.1-13.2,0-28.9l0-0.1c1.5-7.6,3.3-16,3.7-17.5l0-0.1
		c0.6-1.7,2.7-8.5-1.1-13.4c-1.5-2-4.6-4.3-10.4-3.8l-0.5,0.1c-2.1,0.4-20.6,4.2-26.7,6.5l-0.2,0.1c-0.5,0.2-11.6,4.8-26.8-3.3
		l-0.4-0.2l-0.5-0.1c-3.2-0.9-17.5-4.9-27.3-2.4l-1.4-0.3l-1.8-1.6l-3.3-2.8l-0.6-0.6l-0.7-0.6l-1.6-1.3l-0.4-0.3l-0.2-0.1l-1.2-1
		l0,0c-1.8-1.4-4.4-1.2-5.8,0.6l-0.9,1.2c-1.4,1.8-1.2,4.4,0.6,5.8l1.6,1.3l2.5,2.1l5.6,4.8l-0.3,0.6c-2.7,6.7-6.8,21.3-6.6,48.5
		l0,0.5c0,0.1,0.7,7.3-3.3,12.1l-18.2,24.8l-0.2,0.2c-1.2,1.5-5.4,7.1-4.2,13.7c0.6,3.1,2.7,7.4,9.2,10.6l0.7,0.3l0.2,0
		c0.3,0.3,1.5,1.8,1.5,6.4c0,1,0.1,10.2,4.8,17.2l0,0l0,0l0.1,0.2l-0.2-0.2c0.4,0.9,2.7,7.4-2.6,22.3l-0.1,0.3
		c-0.2,0.6-4,13.9,3.2,23.4c4.4,5.8,11.6,8.8,21.4,8.8l0.4,0c3.7,0.4,25,1.8,50.6-9.4l0.1,0c0.5-0.2,12.5-5.6,22.3,2.7l0.4,0.4
		l15.8,17.4c1.6,1.7,4.3,1.9,6,0.3l1-0.9c1.7-1.6,1.9-4.3,0.3-6l-16.2-17.8l-0.4-0.4c-14.4-12.9-31.8-5.3-33.4-4.6
		c-25,11-45.7,8.6-46,8.6l-0.3,0l-0.3,0c-6.8,0-11.5-1.6-14-4.8c-3.8-5-2.1-12.9-1.7-14.5l0.1-0.4c7.1-20.1,2.6-28.8,1.6-30.4
		l-0.1-0.1c-2.6-3.9-3.2-9.9-3.3-12c0-11.3-5.3-14.7-8-15.6L157,314c-1.4-0.8-3-1.9-3.2-3.3c-0.4-1.9,1.3-4.6,2.1-5.5l0.2-0.2
		l18.3-24.9c5.9-7.2,5.6-16.7,5.4-18.9l0-0.3c-0.1-25.4,3.7-38.7,5.9-44.2l0.3-1.8c4.3-2,15.7-0.2,22.7,1.8l0.3,0.1
		c18.5,9.5,32.8,4.2,34.6,3.4c4.6-1.7,19.2-4.8,24.8-6h0l1.6,1.6l-0.5,2.6c-0.2,0.6-0.8,2.6-4.1,19.1l0,0.3
		c-2.5,18.6-0.1,31.9,0,32.4l0,0.2c1.8,7.6,5.2,12.1,10,13.3l2.5,0.3c5.8,0,10.5-4.9,11-5.6l0.2-0.2c7.2-9,13.7-12.5,16.3-13.6
		L306.2,263.3l0.2,1L306.2,263.3z"/>
</g>
</svg>
