<?xml version="1.0" encoding="utf-8"?>
<!-- Generator: Adobe Illustrator 25.4.1, SVG Export Plug-In . SVG Version: 6.00 Build 0)  -->
<svg version="1.1" id="Capa_1" xmlns="http://www.w3.org/2000/svg" xmlns:xlink="http://www.w3.org/1999/xlink" x="0px" y="0px"
	 viewBox="0 0 560 560" style="enable-background:new 0 0 560 560;" xml:space="preserve">
<style type="text/css">
	.st0{fill:#19479D;}
	.st1{fill:#FFFFFF;}
</style>
<path class="st0" d="M280,528.8c137.4,0,248.8-111.4,248.8-248.8c0-137.4-111.4-248.8-248.8-248.8C142.6,31.2,31.2,142.6,31.2,280
	C31.2,417.4,142.6,528.8,280,528.8"/>
<g id="CARGA">
	<path class="st1" d="M311.2,429c-38.5,0-76.9,0-115.4,0c-4.1,0-4.1,0-4.1-4c0-1.8-0.2-3.6,0-5.4c0.9-7.6-2.2-14.4-4.3-21.5
		c-0.6-2-2-2-3.5-2c-9.9-0.2-19.8-0.5-29.8-0.5c-2.5,0-3.2-0.8-3.2-3.2c0.1-9.1,0.1-18.2,0-27.2c0-2.2,0.7-3,2.9-3
		c7.9,0.1,15.9,0,23.8,0.1c2.4,0,3.5-0.4,2.8-3.2c-1.3-5.3-2.2-10.7-3.4-16.1c-0.5-2.2,0.1-2.9,2.3-2.9c8.8,0.1,17.6,0,26.4,0
		c1.8,0,2.7,0.7,3.2,2.4c6.7,19.7,13.5,39.3,20.3,58.9c0.9,2.5,1.8,5,2.5,7.5c0.6,2.2,1.9,2.8,4.1,2.8c25.3-0.1,50.7,0,76,0
		c38.5,0,76.9,0,115.4-0.1c3.1,0,5.8,0.5,8.1,2.8c4.3,4.4,2.8,11.5-3,13.7c-2.1,0.8-4.2,1-6.4,1C387.7,429,349.5,429,311.2,429
		L311.2,429z"/>
	<path class="st1" d="M164.2,151.3c1.5,0,3,0.2,4.4-0.7c11.3-7,20.6-15.8,26.3-28.1c0.5-1.1,1.4-2.4,0.4-3.4c-1-1-2.4-0.1-3.4,0.4
		c-13.1,5.8-22.9,15.4-30,27.7C159.7,151,160,151.3,164.2,151.3 M162.5,361.3c-2.8,0-5.7-0.1-8.5,0c-2.1,0.1-2.9-0.6-2.7-2.8
		c1.5-13.2,2.9-26.5,4.4-39.7c0.2-1.5,0.2-3,1.5-4.1c0.9-0.8,0.6-1.9,0.6-2.9c0-48.7,0-97.4,0-146c0-1.8-0.5-2.9-2.3-3.6
		c-3.8-1.6-5.6-5.5-5.1-9.9c0.4-3.9,1.9-7.5,3.9-10.8c8.4-13.6,19.4-24.3,34.2-30.7c1.9-0.8,4-1.2,6.1-1.4
		c6.9-0.6,11.6,4.5,10.5,11.4c-1.2,7.6-5.4,13.7-10.1,19.4c-7,8.4-15,15.7-25.1,20.4c-2.1,1-2.1,2.6-2.1,4.4c0,33.1,0,66.2,0,99.2
		c0,9.3,0,18.7,0,28.1c0,9.7,0.1,19.3,1.8,29c2.2,12.3,2.9,24.9,4.3,37.4c0.2,1.9-0.6,2.6-2.3,2.6
		C168.5,361.2,165.5,361.2,162.5,361.3L162.5,361.3z"/>
	<path class="st1" d="M167.6,428c4.4,0,8.1-3.7,8-8.1c-0.1-4.1-3.7-7.5-8-7.5c-4.3,0-7.8,3.5-7.9,7.7
		C159.7,424.4,163.3,428,167.6,428 M190.2,420.4c0,12.3-10.1,22.6-22.1,22.5c-12.8,0-22.9-10-22.9-22.4c0-12.8,9.8-22.9,22.4-22.9
		C180.2,397.5,190.2,407.5,190.2,420.4"/>
	<path class="st1" d="M397.3,430.2c1.9-0.3,3.6,0.1,5,2.7c1.5,2.8,5.9,2.8,7.3,0c1.3-2.5,3-2.7,5.2-2.6c5.3,0.1,6,1.1,3.5,5.9
		c-2.7,5.3-7.1,8-13.1,7.9c-5.7-0.1-10.5-4-12.5-9.6c-1.3-3.6-0.9-4.1,2.8-4.1H397.3z"/>
</g>
</svg>
