<?xml version="1.0" encoding="utf-8"?>
<!-- Generator: Adobe Illustrator 25.4.1, SVG Export Plug-In . SVG Version: 6.00 Build 0)  -->
<svg version="1.1" id="Capa_1" xmlns="http://www.w3.org/2000/svg" xmlns:xlink="http://www.w3.org/1999/xlink" x="0px" y="0px"
	 viewBox="0 0 560 560" style="enable-background:new 0 0 560 560;" xml:space="preserve">
<style type="text/css">
	.st0{fill:#19479D;}
	.st1{fill:#FFFFFF;}
</style>
<path class="st0" d="M280,528.8c137.4,0,248.8-111.4,248.8-248.8c0-137.4-111.4-248.8-248.8-248.8C142.6,31.2,31.2,142.6,31.2,280
	C31.2,417.4,142.6,528.8,280,528.8"/>
<g id="CASCO">
	<path class="st1" d="M390.6,226.1c-0.7-4.8-1.5-14-1.2-30.8c0.2-9.8-2.2-19.6-7-28.1c-12-21.6-41.1-57-103.3-60H279h-0.1
		c-62.2,3-91.3,38.4-103.3,60c-4.8,8.6-7.2,18.3-7,28.1c0.4,16.7-0.4,25.9-1.2,30.8c-0.4,2.7-1.6,5.2-3.3,7.2
		c-10.2,12.3-10.4,19.4-10,22l1.3,1.2c63.8,6,91.4,12.2,91.4,12.2c9,2.6,30,2.8,32,2.8h0.1h0.1c2.1,0,23-0.2,32-2.8
		c0,0,27.6-6.2,91.4-12.2l1.3-1.2c0.4-2.6,0.3-9.7-10-22C392.2,231.3,391,228.8,390.6,226.1"/>
	<path class="st1" d="M393.2,264.3c-2-1.2-4.5-1.9-7.3-1.9c-6.6,0-13.1,3.5-14.3,4.2l0,0c-2,1.1-2.7,3.6-1.6,5.6l1.1,1.9
		c1.2,2,3.8,2.7,5.9,1.6l0,0c1.4-0.8,5.8-2.8,8.9-2.8l1.5,0.3c0.4,0.3,1.1,1.6,0.9,5l0,0.2v0.1c0,0.1,0.1,13.9-2.7,28.6
		c-2.7,14.1-7.3,24.4-13.1,29.8c-1.9,1.7-5.1,1-5.9-1.3l0-0.1l-0.1-0.2c-0.7-2.2-2.7-3.6-5.1-3.6c-1.6,0-3.1,0.6-4.1,1.7
		c-1,1.1-1.5,2.5-1.3,4l0,0.2c0.1,0.5,5,52-23,82.3c-12.9,14-31.1,21.6-54.1,22.5H279c-22.9-0.9-41.1-8.5-54-22.5
		c-28-30.4-23.1-81.8-23-82.3l0-0.2c0.2-1.5-0.3-2.9-1.3-4c-1-1.1-2.5-1.7-4.1-1.7c-2.4,0-4.4,1.4-5.1,3.6l-0.1,0.2l0,0.1
		c-0.8,2.4-4,3.1-5.9,1.3c-5.8-5.4-10.4-15.6-13.1-29.8c-2.8-14.7-2.7-28.5-2.7-28.6v-0.1l0-0.2c-0.2-3.4,0.5-4.7,1-5l1.5-0.3
		c3.1,0,7.5,2,8.9,2.8l0,0c2.1,1.2,4.7,0.5,5.9-1.6l1.1-1.9c1.2-2,0.4-4.4-1.6-5.6l0,0c-1.2-0.7-7.8-4.2-14.3-4.2
		c-2.8,0-5.2,0.6-7.3,1.9c-4.3,2.6-6.3,7.4-6,14.2c0,6.6,0.3,60.7,27.9,71.3l0,0l1.5,0.3l0.5,0h0c1.1,0,1.9,0.8,2,1.8
		c0.6,20.3,5.1,52.1,26.1,74.8c15,16.3,36,25.1,62.2,26c26.2-0.9,47.1-9.7,62.2-26c20.9-22.7,25.5-54.5,26-74.8c0-1,0.9-1.8,2-1.8h0
		l0.5,0h0l1.5-0.3l0,0c27.5-10.6,27.9-64.7,27.9-71.3C399.6,271.7,397.5,266.9,393.2,264.3"/>
</g>
</svg>
