<?xml version="1.0" encoding="utf-8"?>
<!-- Generator: Adobe Illustrator 25.4.1, SVG Export Plug-In . SVG Version: 6.00 Build 0)  -->
<svg version="1.1" id="Capa_1" xmlns="http://www.w3.org/2000/svg" xmlns:xlink="http://www.w3.org/1999/xlink" x="0px" y="0px"
	 viewBox="0 0 560 560" style="enable-background:new 0 0 560 560;" xml:space="preserve">
<style type="text/css">
	.st0{fill:#19479D;}
	.st1{fill:#FFFFFF;}
</style>
<path class="st0" d="M280,528.8c137.4,0,248.8-111.4,248.8-248.8c0-137.4-111.4-248.8-248.8-248.8C142.6,31.2,31.2,142.6,31.2,280
	C31.2,417.4,142.6,528.8,280,528.8"/>
<g id="DELIM">
	<path class="st1" d="M317.3,396.9L317.3,396.9c10.2-0.1,20.5,0,30.7-0.1c10.8,0,21.5,0,32.3,0c3.5,0,4.4-0.6,4.5-3.5
		c0.1-3.4,0.3-6.8-0.2-10.2c-0.1-0.6-0.2-1.1-0.7-1.6c-1.7-1.5-3.4-2.5-5.9-2.5c-11.6,0.1-23.2,0.1-34.9,0
		c-18.7-0.1-37.4,0.3-56.1-0.2c-4-0.1-8.1,0.2-12.1,0.2c-5.4,0.1-10.9,0-16.3-0.2c-6.4-0.2-12.9,0.2-19.3,0.2c-17.5,0.1-35,0-52.6,0
		c-2,0-4,0-6,0.1c-2.2,0.1-4.8,2.2-5.1,4.1c-0.6,3.5-0.6,7.1-0.1,10.6c0.2,1.7,1.3,2.4,2.8,2.7c0.9,0.1,1.8,0.1,2.6,0.1
		c8.8,0,17.6,0,26.5,0c21.3,0,42.5,0.1,63.8,0.1C286.6,396.9,302,396.9,317.3,396.9 M280.2,371c18.8-0.2,37.6,0,56.5,0
		c3.2,0,6.4,0,9.6,0c1.8,0,2.3-0.7,2-2.5c-0.2-1.2-0.3-2.4-0.7-3.6c-1.9-5.7-3.2-11.5-4.7-17.3c-1.1-4.3-2.6-8.5-3.1-12.9
		c0-0.1,0-0.2-0.1-0.3c-1.9-3.9-2.3-8.3-3.7-12.4c-1.4-3.9-1.9-8.2-3-12.2c-0.5-1.7-0.5-3.6-1.3-5.3c-1.9-4.4-2.4-9.2-3.9-13.7
		c-0.6-2-0.3-4.3-1.3-6.1c-0.8-1.5-1.4-3.1-1.6-4.8c-0.7-4.7-2.9-9-3.4-13.8c0-0.2-0.1-0.3-0.2-0.5c-2-4.8-2.4-9.9-4.1-14.8
		c-0.8-2.4-1.3-5.1-2-7.6c-2-7-3.9-14-5.6-21.1c-0.8-3.2-2.1-6.2-2.6-9.4c-0.8-5.4-3.3-10.3-3.8-15.8c0-0.1-0.1-0.2-0.1-0.3
		c-2.3-4.6-2.5-9.8-4-14.6c-1.4-4.6-2.9-9.2-3.7-14c-0.4-2.6-2.2-4.6-5.3-4.8c-2.9-0.2-5.8-0.1-8.8-0.1c-4,0-8.1-0.3-12.1,0.4
		c-1.1,0.2-2,0.5-2.6,1.5c-1.4,2.6-2.5,5.2-2.7,8.2c-0.1,1.1-0.4,2.2-0.9,3.2c-0.8,1.7-1.2,3.5-1.6,5.4c-0.9,4.6-2.3,9-3.5,13.5
		c-1.3,5-1.1,5.6,4.1,5.6c0.8,0,1.5,0,2.3,0c8.1,0,16.1-0.5,24.2-0.3c2.1,0,4.1,0.1,5.7,1.9c0.9,1,1.5,1.9,1.1,3.2
		c-0.6,2.1-1.2,2.6-3.7,2.6c-5,0-9.9,0-14.9,0c-6.5,0-13,0.1-19.4,0.1c-1.8,0-3.1,1-3.3,2.6c-0.6,3.9-2.9,7.3-3.1,11.3
		c0,1.3-0.3,2.6-0.9,3.7c-1,1.6-1.2,3.3-1.5,5c-0.3,1.8-0.2,3.8-1.3,5.4c-0.8,1.1-0.9,2.2-1.1,3.5c-0.2,1.7,0.6,2.5,2.2,2.7
		c1.4,0.2,2.7-0.1,4-0.1c13,0,26,0,38.9,0c3.5,0,7-0.1,10.5,0c3.5,0.1,4.8,2,4.2,5.4c-0.3,1.5-0.9,2.3-2.5,2.3c-1.3,0-2.7,0.2-4,0.2
		c-15.1,0-30.3,0-45.4,0c-2.9,0-5.7,0-8.6,0.1c-1.1,0-1.9,0.5-2.2,1.6c-0.9,3.3-2.5,6.4-2.9,9.9c-0.2,1.5-0.8,2.9-1.1,4.4
		c-1.3,5-2.7,9.9-3.9,14.9c-0.4,1.7-0.8,3.4-1.5,5c-1,2.4-1.3,4.9-1.5,7.4c-0.2,2,1,3.8,2.4,3.7c3.8-0.4,7.6,0.3,11.4,0.3
		c18.1,0.1,36.2,0,54.3,0c0.9,0,1.9-0.2,2.8-0.3c4.9-0.6,9.8-0.5,14.7,0.2c1.9,0.3,3.5,3.1,2.5,4.2c-1,1.2-2.1,2.5-3.9,2.7
		c-4.4,0.3-8.7,0.5-13.1,0.6c-12.9,0-25.7,0-38.6,0.1c-10.7,0-21.4-0.5-32.1-0.3c-2.5,0.1-4.3,1-4.7,3.1c-0.7,3.7-1.9,7.2-2.7,10.8
		c-1.2,5.4-3,10.5-4.1,15.9c-0.3,1.2-0.1,2.1,0.8,3c0.8,0.9,1.8,1.1,3,1.1c4.1,0.2,8.1-0.6,12.1-0.6c8.1,0.1,16.2,0.2,24.3,0.4
		c17.4,0.5,34.8,0.4,52.2,0.2c4.6-0.1,9.2,0,13.8,0c3.1,0.1,4.9,1.7,4.6,4.2c-0.1,1.2-3.2,3.5-4.9,3.5c-6.3,0.1-12.6,0.3-18.9,0
		c-7.5-0.3-15.1,0.1-22.6,0c-5.8-0.1-11.7,0.3-17.5,0.3c-13.8,0-27.7,0.2-41.5-0.2c-2.2,0-4.4-0.3-6.6,0.1c-1.7,0.3-2.7,1.2-2.9,3
		c-0.1,1.5-0.4,2.9-0.9,4.3c-2,4.7-2.3,9.9-4.1,14.6c-0.6,1.6,0.1,2.4,1.9,2.5c2.2,0.1,4.3,0.2,6.5,0.2c11.7-0.3,23.4,0.3,35,0
		C263.7,370.8,271.9,371,280.2,371 M280.1,404.5c-34.9,0-69.8,0-104.6,0c-0.7,0-1.4,0-2.1,0c-3.6-0.1-5.8-2.1-5.8-5.7
		c0-5.3-0.6-10.7,0.3-15.9c0.8-4.6,3.2-8,7.6-10.1c3.3-1.6,6.5-1.8,9.8-1.7c4.8,0.1,9.7,0.2,14.5,0.2c3.3,0,3.4-0.6,4.4-3.6
		c1.7-5.1,2.2-10.4,4.3-15.3c0.1-0.2,0.2-0.3,0.2-0.5c0.4-4.8,2.7-9,3.3-13.7c0.2-1.4,0.5-2.7,1.1-4c0.8-1.6,1.3-3.3,1.4-5.1
		c0.1-3.5,2-6.4,2.7-9.8c1.2-5.5,2.4-11,4.4-16.3c0.1-0.2,0.1-0.3,0.2-0.5c0.4-5.2,2.4-10,3.7-14.9c1.3-4.8,1.9-9.7,3.9-14.3
		c0.1-0.3,0.3-0.6,0.3-0.8c0.5-4.6,2.2-8.9,3.4-13.4c1.4-5.2,2.2-10.5,4.2-15.5c0.1-0.2,0.2-0.3,0.2-0.5c0.6-5,2.4-9.7,3.7-14.6
		c1.2-4.9,2-9.9,4-14.6c0.1-0.2,0.2-0.4,0.2-0.7c0.5-4.9,2.4-9.5,3.6-14.2c1.2-4.8,2.1-9.8,4-14.4c0.1-0.3,0.3-0.7,0.3-1
		c0.7-5.2,2.7-10.2,3.8-15.3c0.7-3.3,1.8-6.6,4.3-9.2c2.2-2.3,4.8-3.4,7.8-3.3c7.5,0.5,14.9-0.2,22.4,0c4.7,0.1,7.9,2.3,9.8,6.6
		c1.1,2.4,1.6,5,2.4,7.5c1.6,5,2.2,10.3,4.2,15.2c0.3,0.7,0.4,1.6,0.6,2.4c0.4,2.4,0.7,4.8,1.9,6.9c0.1,0.1,0.1,0.2,0.1,0.3
		c0.6,5.2,3,9.9,3.6,15.1c0.1,1.2,0.5,2.3,0.9,3.4c0.3,0.7,0.7,1.4,0.8,2.1c0.7,4.8,2.5,9.3,3.6,14.1c1.1,4.9,2.6,9.8,4,14.7
		c0.1,0.3,0.2,0.5,0.3,0.8c0.6,5,2.9,9.6,3.6,14.6c0.2,1.3,0.6,2.5,1.2,3.6c0.2,0.4,0.5,0.9,0.6,1.3c0.3,4.8,2.3,9.3,3.5,13.9
		c1.3,5,2.3,10.1,4,15c0.3,0.9,0.7,1.8,0.8,2.7c0.4,4.8,2.1,9.3,3.4,13.9c1.1,4,2,8,3.2,12c0.8,2.5,1.5,4.9,1.8,7.5
		c0.2,1.3,0.5,2.5,1.2,3.6c0.9,1.4,1,3,1.2,4.5c0.2,1.9,0.6,3.7,1.6,5.3c0.6,1.1,0.8,2.3,0.9,3.5c0.3,2.3,0.6,4.6,1.8,6.7
		c0.2,0.3,0.3,0.6,0.3,1c0.5,4.7,2.6,9,3.3,13.6c0.5,3,1.4,3.7,4.5,3.8c3.3,0,6.5-0.1,9.8-0.1c2.9,0,5.7-0.1,8.6,0
		c3.9,0.1,7.3,1.5,10,4.3c2.3,2.4,3.8,5.2,3.7,8.8c-0.1,5.1,0,10.2,0,15.2c0,3-2.2,5.1-5.1,5.1C351.7,404.5,315.9,404.5,280.1,404.5
		z"/>
</g>
</svg>
