<?xml version="1.0" encoding="utf-8"?>
<!-- Generator: Adobe Illustrator 25.4.1, SVG Export Plug-In . SVG Version: 6.00 Build 0)  -->
<svg version="1.1" id="Capa_1" xmlns="http://www.w3.org/2000/svg" xmlns:xlink="http://www.w3.org/1999/xlink" x="0px" y="0px"
	 viewBox="0 0 560 560" style="enable-background:new 0 0 560 560;" xml:space="preserve">
<style type="text/css">
	.st0{fill:#19479D;}
	.st1{fill:#FFFFFF;}
</style>
<path class="st0" d="M280,528.8c137.4,0,248.8-111.4,248.8-248.8c0-137.4-111.4-248.8-248.8-248.8C142.6,31.2,31.2,142.6,31.2,280
	C31.2,417.4,142.6,528.8,280,528.8"/>
<g id="FULLFACE">
	<polygon class="st1" points="282.4,209.5 283.2,209.5 284.1,209.5 	"/>
	<path class="st1" d="M398.9,300.1L398.9,300.1c-5.2,12.5-16.3,23.8-24.1,30.6l-0.7-2c-0.9-2-1.4-4.2-1.4-6.3v-91.8
		c0,0,2.9-18.5-65.3-20.7l-24.2-0.4l-24.8,0.4c-69.9,2.2-66.9,20.7-66.9,20.7v91.8c0,2.2-0.5,4.4-1.5,6.4l-0.6,1.5
		c-7.7-6.9-18.5-17.9-23.5-30.1l0-0.1c-5-11.7-8.2-27.3-4.6-31c1.2-1.3,5.2-1.6,12.9,1.4l2.5,1c3.7,1.4,7.4-1.7,6.8-5.6l-0.5-2.7
		c0-0.2-2.8-16.6-0.5-37.2c3-26.9,12.8-48,29.2-62.5c0.7-0.6,23.6-19.3,70.8-20.2c47.2,0.9,70.1,19.6,70.8,20.2
		c16.4,14.5,26.2,35.5,29.2,62.5c2.3,20.6-0.5,37.1-0.5,37.2l-0.5,2.7c-0.7,3.9,3.1,7,6.8,5.6l2.5-1c7.7-2.9,11.7-2.6,12.9-1.4
		C407.1,272.8,404,288.4,398.9,300.1 M326.5,295.7c-17.4,0-31.6-12.7-31.6-28.3c0-15.6,14.1-28.3,31.6-28.3
		c17.4,0,31.6,12.7,31.6,28.3C358.1,283.1,343.9,295.7,326.5,295.7 M347.5,382.1L347.5,382.1c-1.4,2-4,2.5-6,1.3
		C315,367,286.3,362.2,256.1,369c-17.1,3.9-30,10.6-35.7,14c-1.9,1.1-4.4,0.6-5.7-1.2l0-0.1c-1.5-2-0.9-4.8,1.3-6.1
		c6.3-3.8,20-10.9,38.3-15c22.5-5.1,56.5-6.4,92.1,15.5C348.3,377.4,348.9,380.1,347.5,382.1 M206.7,266.1
		c0-15.6,14.1-28.3,31.6-28.3c17.4,0,31.6,12.7,31.6,28.3c0,15.6-14.1,28.3-31.6,28.3C220.8,294.4,206.7,281.7,206.7,266.1
		 M413.1,260.1c-3.6-3.8-8.7-5.4-15.1-4.8c-1.1,0.1-2-0.8-1.9-1.8c0.5-7.2,0.6-17.2-0.6-28.4c-3.3-30.1-14.9-54.7-33.6-71.3
		c-1.1-0.9-26.4-22.5-79.4-23.5h-0.1h-0.1c-53,0.9-78.3,22.5-79.4,23.5c-18.7,16.6-30.3,41.2-33.6,71.3c-1.2,11.2-1.1,21.2-0.6,28.4
		c0.1,1.1-0.9,1.9-1.9,1.8c-6.4-0.6-11.4,1.1-15.1,4.8c-11.4,11.9-0.3,39.7,2.1,45.2c8.4,20.2,28.5,36.6,34.9,41.5
		c-0.1,20,15.4,40.3,21.1,47.2c1.4,1.6,2.1,3.7,2.1,5.9v20.8l1.1,0.7c9.4-5.1,75.3-38.2,138.4-0.1l1.2-0.7v-20.8
		c0-2.1,0.7-4.2,2.1-5.8c5.6-6.8,20.4-26.8,20.6-46.7c5.4-4.1,26.9-21,35.6-42C413.4,299.7,424.5,272,413.1,260.1"/>
	<path class="st1" d="M337.4,440.3c-3.4,0-6.2-2-6.2-4.5c0-2.5,2.8-4.5,6.2-4.5c3.4,0,6.2,2,6.2,4.5
		C343.5,438.2,340.8,440.3,337.4,440.3 M323.5,425.8c-4,0-7.2-1.8-7.2-3.9c0-2.2,3.2-3.9,7.2-3.9c4,0,7.2,1.8,7.2,3.9
		C330.7,424,327.5,425.8,323.5,425.8 M317.3,456.9c-3.7,0-6.7-1.6-6.7-3.7c0-2,3-3.7,6.7-3.7c3.7,0,6.7,1.7,6.7,3.7
		C324,455.3,321,456.9,317.3,456.9 M303.5,442c0-2,2.5-3.6,5.6-3.6c3.1,0,5.6,1.6,5.6,3.6c0,2-2.5,3.6-5.6,3.6
		C306,445.6,303.5,444,303.5,442 M296.2,427.9c-4.4,0-8-1.9-8-4.2c0-2.3,3.6-4.2,8-4.2c4.4,0,8,1.9,8,4.2
		C304.2,426,300.6,427.9,296.2,427.9 M293.9,451.9c-3.3,0-6-1.9-6-4.3c0-2.4,2.7-4.3,6-4.3c3.3,0,6,1.9,6,4.3
		C299.9,450,297.2,451.9,293.9,451.9 M280.9,461.8c-2.4,0-4.4-1.4-4.4-3.2c0-1.8,2-3.2,4.4-3.2c2.4,0,4.4,1.4,4.4,3.2
		C285.3,460.3,283.3,461.8,280.9,461.8 M280.8,431.7c2.4,0,4.4,1.4,4.4,3.2c0,1.8-2,3.2-4.4,3.2c-2.4,0-4.4-1.4-4.4-3.2
		C276.4,433.2,278.4,431.7,280.8,431.7 M268.6,451.8c-3.7,0-6.7-1.6-6.7-3.7c0-2,3-3.7,6.7-3.7c3.7,0,6.7,1.6,6.7,3.7
		C275.2,450.1,272.3,451.8,268.6,451.8 M271,418.9c5.2,0,9.4,1.8,9.4,4.1c0,2.3-4.2,4.1-9.4,4.1s-9.4-1.8-9.4-4.1
		C261.7,420.7,265.8,418.9,271,418.9 M252.3,444.3c-4.2,0-7.7-1.8-7.7-3.9c0-2.2,3.4-3.9,7.7-3.9c4.2,0,7.7,1.8,7.7,3.9
		C260,442.6,256.6,444.3,252.3,444.3 M243,456.8c-3.3,0-6-2.3-6-5.1c0-2.8,2.7-5.1,6-5.1c3.3,0,6,2.3,6,5.1
		C249,454.5,246.3,456.8,243,456.8 M243.6,418.4c3.7,0,6.7,1.6,6.7,3.7c0,2-3,3.7-6.7,3.7c-3.7,0-6.7-1.7-6.7-3.7
		C236.9,420,239.9,418.4,243.6,418.4 M226.9,439.7c-4.2,0-7.7-1.8-7.7-3.9c0-2.2,3.4-3.9,7.7-3.9c4.2,0,7.7,1.8,7.7,3.9
		C234.6,438,231.2,439.7,226.9,439.7 M258.1,430.7c0,2-3,3.7-6.7,3.7c-3.7,0-6.7-1.6-6.7-3.7c0-2,3-3.7,6.7-3.7
		C255.2,427,258.1,428.7,258.1,430.7 M284,413.8c3.3,0,6,1.2,6,2.6c0,1.4-2.7,2.6-6,2.6c-3.3,0-6-1.2-6-2.6
		C278.1,415,280.7,413.8,284,413.8 M313.8,428c4,0,7.2,1.8,7.2,3.9c0,2.2-3.2,3.9-7.2,3.9c-4,0-7.2-1.8-7.2-3.9
		C306.6,429.8,309.8,428,313.8,428 M283.1,410.1c-38.9,0-70.5,12-70.5,26.8c0,14.8,31.6,26.8,70.5,26.8c38.9,0,70.5-12,70.5-26.8
		C353.6,422.1,322,410.1,283.1,410.1"/>
</g>
</svg>
