<?xml version="1.0" encoding="utf-8"?>
<!-- Generator: Adobe Illustrator 25.4.1, SVG Export Plug-In . SVG Version: 6.00 Build 0)  -->
<svg version="1.1" id="Capa_1" xmlns="http://www.w3.org/2000/svg" xmlns:xlink="http://www.w3.org/1999/xlink" x="0px" y="0px"
	 viewBox="0 0 560 560" style="enable-background:new 0 0 560 560;" xml:space="preserve">
<style type="text/css">
	.st0{fill:#19479D;}
	.st1{fill:#FFFFFF;}
</style>
<path class="st0" d="M280,528.8c137.4,0,248.8-111.4,248.8-248.8c0-137.4-111.4-248.8-248.8-248.8C142.6,31.2,31.2,142.6,31.2,280
	C31.2,417.4,142.6,528.8,280,528.8"/>
<g id="GUANTES_VARIOS">
	<path class="st1" d="M247.4,213.4c0,0-11,5-7.7,15.7l20,43.9c0,0,2.1,3.5-1.4,5.3c0,0-3.3,2.2-5.5-2.1l-26.6-61.8
		c0,0-5.3-10.1-16.1-6.3c0,0-12.9,4-8.5,17l27.1,64.5c0,0,1.4,2.5-1.1,4.3c0,0-2.4,2.2-4.7-2l-25.9-62.5c0,0-5.2-10.2-16.9-5.3
		c0,0-9.7,3.8-7.7,15.2l28.3,67.2c0,0,2,3.8-1.2,5.2c0,0-3.2,2.3-5.4-2.3l-21.9-55.5c0,0-4.1-9.4-15.4-6c0,0-12.9,3.9-9.5,15.4
		l79.9,205l127.9-44.7L263.7,218C263.7,218,258.8,208.7,247.4,213.4"/>
	<path class="st1" d="M244.3,200.2c0,0,0.1,6.1,5.9,6.6c0,0,8.1,1,7.8-6.3l0.3-58c0,0-1.4-10.3,7.7-10.5c0,0,9.2-1.4,8.9,9.6v59.5
		c0,0,0.1,5.3,6.4,5.3c0,0,7.7,0.6,7.4-5.3l0.3-69.1c0,0,0.3-12,12.5-13.7c0,0,12.4-2.2,12,12.7l-1.8,47.8c0,0,0,5.3,6,5.7
		c0,0,7,0.6,7.4-6.1l2.4-53.4c0,0,0.1-10.7,11-11c0,0,9.6-2,9.6,9.9v57.3c0,0,0.4,5.3,6.7,5.7c0,0,7,0.8,7.1-6.4l0.8-41
		c0,0-0.8-10,9.2-10.6c0,0,9.3-1.8,10,13.2v77c0,0,1.9,93.5,6.4,145.9l-37.9,9.5c0,0-5.6,3.9,0,7.2l51.8-5c0,0-9.5-131.5-7.2-138.2
		c0,0-2.8-53.5-0.6-94.2c0,0,1.3-24.8-16.4-26.5c0,0-12.6-1.5-17.4,2.1c0,0-0.8-18.2-20.3-18c0,0-14.6-1-21.2,9.5
		c0,0-7.4-7.4-20.5-4.7c0,0-14.9,2.9-20.3,16.2c0,0-11.9-5.7-21.2-1.5c0,0-13.5,5.6-12.7,28.8V200.2z"/>
	<path class="st1" d="M336.7,296c0,0,1.1-1.1,1.5-13.2v-44c0,0,0.3-17.7-16.7-22.7c0,0-11-2.5-20.3,5.4c0,0-11.7,12.6-13.5,21.9
		c0,0-0.7,4.5,0.3,6.4c0,0,3.1,3.8,5.6-3.4c0,0,4.7-11.1,16-17.4c0,0,8.1-4.5,12.8,2.7c0,0,4.5,3.4,4.9,22.1c0,0,0.3,28.1,0.1,31.6
		c0,0-0.3,5.7-2.7,11.7c0,0-3.1,9.9-4.2,15.3c0,0-1.4,5.1-0.6,19.2c0,0,0.8,6.1,8.1,12.4c0,0-0.6-13.2,0.6-18.4
		C328.6,325.6,329.2,315.2,336.7,296"/>
</g>
</svg>
