<?xml version="1.0" encoding="utf-8"?>
<!-- Generator: Adobe Illustrator 25.4.1, SVG Export Plug-In . SVG Version: 6.00 Build 0)  -->
<svg version="1.1" id="Capa_1" xmlns="http://www.w3.org/2000/svg" xmlns:xlink="http://www.w3.org/1999/xlink" x="0px" y="0px"
	 viewBox="0 0 560 560" style="enable-background:new 0 0 560 560;" xml:space="preserve">
<style type="text/css">
	.st0{fill:#19479D;}
	.st1{fill:#FFFFFF;}
</style>
<path class="st0" d="M280,528.8c137.4,0,248.8-111.4,248.8-248.8c0-137.4-111.4-248.8-248.8-248.8C142.6,31.2,31.2,142.6,31.2,280
	C31.2,417.4,142.6,528.8,280,528.8"/>
<g id="CAJA">
	<polygon class="st1" points="202.4,166.7 204.5,166.7 205,166.7 205.4,166.7 206,166.7 206.6,166.7 207.7,166.8 208.5,166.9 
		210.9,167.1 211.4,167.2 212.1,167.3 213.5,167.4 214.8,167.7 219.9,168.8 220.9,169.2 221.8,169.8 222.3,170.6 222.4,171.5 
		222.1,172.4 221.4,173.1 220.6,173.6 219.4,173.9 214.3,174.5 213.6,174.6 212.7,174.8 212,175 211.3,175.1 209.4,175.4 
		209.1,175.5 208.7,175.7 208,176 207.3,176.1 206.8,176.4 205.5,176.7 204.4,177.2 203.7,177.5 203.3,177.6 201.9,178.2 
		200.8,178.9 200.7,178.9 198.9,179.9 198.5,180.2 198,180.5 197.6,180.8 197.3,181.1 196,182 194.8,182.9 194.4,183.2 193.6,184 
		192.6,184.9 192.3,185.3 191.9,185.6 191.2,186.4 190,188 189.1,189.2 188.3,190.3 188,190.9 187.7,191.5 187.5,191.8 187.3,192.1 
		187.2,192.5 187.1,192.7 186.9,193.1 186.7,193.5 186.7,193.7 187.7,194.3 188.8,195 228.6,225.6 225.9,232.7 221.4,231.7 
		219.7,231.4 218,231.3 215.4,231.6 212.9,232.2 210.8,233.3 208.8,234.7 172.8,207.1 172.2,206.7 171.8,206.2 169.9,207 
		169.9,208.2 169.4,209.7 168.4,211.3 167.2,212.9 165.5,214.7 163.5,216.6 161.4,218.4 159.1,220.4 156.6,222.4 154,224.3 
		151.5,226.2 149,228.2 120.4,206.3 124.1,203.5 127.6,200.8 130.8,198.4 133.8,196.2 136.6,194.3 139.3,192.8 141.7,191.5 
		144,190.7 146.1,190.3 148.1,190.4 149.7,188.2 151.2,186.3 153.1,184.7 157.1,181.6 159.2,180.3 161.5,179.3 163.9,178.4 
		166.4,178 167,177.5 167.9,177.1 169.7,176 169.8,175.9 169.9,175.8 170,175.8 171.8,174.7 173.7,173.9 175.4,173 176.7,172.4 
		176.9,172.3 178.1,171.8 180.3,171 182.5,170.2 182.7,170.1 185.5,169.3 188.4,168.5 189.3,168.2 190.3,168 191.6,167.8 
		194.2,167.4 196.8,167 199.3,166.8 200.2,166.7 	"/>
	<polygon class="st1" points="403.6,174.2 429.6,174.2 429.6,184.1 427.1,183.8 424.5,184 422.2,184.5 419.8,185.6 417.8,187.1 
		416,188.9 398.4,212 381,208.6 375.5,195.7 403.6,195.7 	"/>
	<polygon class="st1" points="213.1,196.9 225.1,212 228.6,196.9 	"/>
	<path class="st1" d="M233.9,262.4l-1.7,0.1l-1.6,0.6l-1.3,0.7l-1,1.1l-0.7,1.4l-9.4,27.6h13.4l8.5-24.4l0.2-1.5l-0.1-1.4l-0.7-1.3
		l-1-1.1l-1.2-0.9l-1.6-0.7L233.9,262.4z M213.1,257l-1.7,0.1l-1.5,0.5l-1.4,0.8l-1.1,1.1l-0.7,1.4l-11.3,32.9h13.4l10.2-29.8
		l0.3-1.4l-0.2-1.5l-0.6-1.3l-1-1.2l-1.2-0.9l-1.7-0.6L213.1,257z M258.9,144l10.5,2.7l-2.4,16.6l-6.3,10.6l-0.8-0.1l-24.5,71.3
		l9,2.4l1.4,0.5l1.3,0.9l0.9,1.1l0.5,1.3l0.2,1.3l-0.3,1.4l-0.7,1.4l-1,1l-1.2,0.8l0.5,2.3v2.5l-0.5,2.6l-10.2,29.5h23.5l-13.7-11.8
		l5.2-15l0.7-2.3l0.2-2.4l-0.1-2.3l1.3-1.7l1.1-2l0.3-1.9v-1.9l-0.5-1.9l-0.9-1.8l-1.2-1.6l-1.6-1.4l-1.8-1.1l-2.1-0.8l-3.9-0.9
		l1.5-4.4l57.4,49.6l1.7,1.8l1.2,1.7l1,1.9h4.5l-0.9-2.1l-1.2-2.1l-1.5-2l-1.8-1.8l-10.1-8.7l41.7-42.9l1.8-1.8l-1.8-3.6l-1.6-3.8
		l-1-3.9l-0.6-3.9l-0.3-3.9l0.2-3.9l0.7-3.9l1-3.9l1.5-3.8l1.9-3.8l2.4-3.6l2.9-3.5l3.1-3.1l3.5-2.7l3.7-2.5l4-2.1l4.1-1.8l4.4-1.4
		l4.5-1.1l4.6-0.7l4.8-0.4l1.2,0.1l1,0.4l1,0.7l0.7,0.8l0.4,1v1l-0.3,1.1l-0.6,0.9l-20.7,22.6l11.3,21.7l27,4.5l20.8-22.7l0.9-0.7
		l1.1-0.5l1.1-0.2l1.1,0.1l1.1,0.4l1,0.6l0.6,0.8l0.4,1l0.8,4l0.2,4.2l-0.2,4.1l-0.6,3.9l-1.1,3.9l-1.6,3.9l-1.9,3.7l-2.5,3.5
		l-2.7,3.3l-3.2,3.2l-3.5,2.9l-3.8,2.4l-4,2.2l-4.1,1.7l-4.3,1.4l-4.5,1.1l-4.5,0.7l-4.5,0.4l-4.5-0.1l-4.6-0.5l-4.5-0.8l-1.7,2.1
		l-32.3,37.9h68.9v-38.8h-3.1l4.5-1.4l4.3-1.8l4.2-2.1l3.9-2.4l3.7-2.7l3.5-2.9l3.2-3.2l1.4-1.6v56.8h8.4v77.8l-0.3,4.8l-0.9,4.7
		l-1.4,4.5l-2,4.2l-2.4,4.1l-2.9,3.9l-3.2,3.6l-3.7,3.2l-4.1,2.9l-4.5,2.5l-4.6,2.1l-5.1,1.7l-5.1,1.2l-5.4,0.8L386,416h-191
		l-5.6-0.3l-5.4-0.8l-5.2-1.2l-5-1.7L169,410l-4.5-2.5l-4-2.9l-3.7-3.3l-3.4-3.6l-2.8-3.8l-2.5-4.1l-1.9-4.2l-1.4-4.5l-1-4.7
		l-0.3-4.8v-77.8h8.3V238l7.8-6.7l3.2-3l2.9-2.9l2.5-2.8l2.4-2.7l2.4-2.8l27.4,24.4l-0.8,1.1l-0.6,0.8l-0.5,0.8l-0.4,0.9l-0.4,1.1
		l-3,8.9h-17.1v38.8h12.9l13.7-40.1l0.8-1.8l1.1-1.7l1.4-1.5l1.6-1.4l-0.5-1.2l-0.2-1.3l0.3-1.4l0.7-1.3l1-1.1l1.2-0.8l1.5-0.5
		l1.6-0.1l1.6,0.2l9.5,2.4l24.4-71.3l-0.8-0.1l1.4-11.9L258.9,144z"/>
	<polygon class="st1" points="261.7,196.9 326.3,196.9 325.5,201.1 325.3,205.4 325.5,209.7 326.2,214 327.4,218.2 329.1,222.3 
		300.7,249.8 283.6,249.8 251.8,223.9 	"/>
</g>
</svg>
