<?xml version="1.0" encoding="utf-8"?>
<!-- Generator: Adobe Illustrator 25.4.1, SVG Export Plug-In . SVG Version: 6.00 Build 0)  -->
<svg version="1.1" id="Capa_1" xmlns="http://www.w3.org/2000/svg" xmlns:xlink="http://www.w3.org/1999/xlink" x="0px" y="0px"
	 viewBox="0 0 560 560" style="enable-background:new 0 0 560 560;" xml:space="preserve">
<style type="text/css">
	.st0{fill:#19479D;}
	.st1{fill:#FFFFFF;}
</style>
<path class="st0" d="M280,528.8c137.4,0,248.8-111.4,248.8-248.8c0-137.4-111.4-248.8-248.8-248.8C142.6,31.2,31.2,142.6,31.2,280
	C31.2,417.4,142.6,528.8,280,528.8"/>
<g id="HYFLEX">
	<path class="st1" d="M294.1,423c4.3-7.4,4.3-16.4,4.1-24.9c-0.2-10.1-0.6-20.3-0.9-30.4c-0.2-6.2-0.4-12.5-1.5-18.6
		c-1.6-8.4-4.9-16.3-7-24.5c-2-8.1-2.9-16.4-3.6-24.8c-1.8-20.2,0.9-40.2-3-60.1c-1.9-9.9-3.7-19.9-4.6-30
		c-0.6-6.9-0.6-13.7-0.5-20.5c0.1-5.1,2.7-10.8,7.7-12.7c2.4-0.9,5.5-0.6,7.8,0.5c4.8,2.1,6.3,10.3,6.3,14.7
		c-0.2,8.7,2.3,16.7,3.8,25.1c1.6,8.4,3.1,16.8,5,25.2c3.1-1.6,3-5.9,2.6-9.3c-2.9-24.5-3.6-49.2-2.1-73.7c0.2-3,0.4-6,1.7-8.8
		c1.5-3.3,4.7-5.9,8.4-6.2c4.6-0.3,8.9,3.2,10.9,7.4c2,4.2,2.3,9,2.5,13.6c1,21.1,1.9,42.2,2.9,63.4c0,0.5,0.1,1,0.5,1.3
		c0.9,0.6,1.8-0.9,1.9-2c1.7-23.3-0.4-46.8-0.6-70.2c0-4.7,0-9.5,1.8-13.9c1.8-4.4,5.6-8.2,10.3-8.6c4.6-0.3,9,2.7,11.4,6.7
		c2.4,3.9,3.3,8.6,3.9,13.2c3.4,23.6,3.3,47.7-0.3,71.2c-0.2,1.3-0.1,3,1.2,3.3c1.2,0.2,1.9-1.2,2.3-2.3c6.1-20.1,4.9-41.6,8.1-62.4
		c1.1-7.1,4.3-15.6,11.4-16.4c4.1-0.5,8.2,2.2,10.5,5.7c2.3,3.5,3.1,7.7,3.6,11.9c4.7,37.4-12.5,75.2-7.1,112.5
		c1.6,11,9-4.7,10.3-7.2l12.7-23c3.4-6.2,7.2-12.7,13.4-16.1c6.2-3.4,15.6-1.9,18.1,4.7c3,7.9-0.7,16.8-3.9,24
		c-0.4-0.1-0.7-0.3-1.1-0.4c-5.3,4.8-7.2,14.7-10.1,21c-3.7,8-7.4,15.9-11.1,23.9c-1.4,3-2.9,6.1-4.7,8.9c-2.1,3.1-4.6,5.8-7.1,8.4
		c-5.3,5.6-11,10.8-16.3,16.3c-2.8,2.8-6,5.3-8.5,8.5c-1.4,1.7-2.6,3.5-3.3,5.6c-0.8,2.4-0.8,2.4-2.1,3.9c-4.5,5.2-4.6,9.9-6.2,16.5
		c-1.4,5.5-2.6,11.1-3.5,16.7c-1.7,11.4-1.7,23.3,2.1,34.3"/>
	<path class="st1" d="M265.7,224.7c-4.5-0.8-8.7,2.7-11.5,6.3c-10.3,13.7-11.4,32.6-21.3,46.6c-3.3-9.2-3.3-19.2-2.8-29
		c1.6-28.4,8.1-57.2,1.7-85c-1.4-6.1-4.3-12.9-10.3-14.5c-6.4-1.7-12.8,3.8-14.8,10.1c-2,6.3-0.9,13.1-0.3,19.7
		c1.4,14.9,0.2,30-3.6,44.4c-0.1-20.3-0.1-40.5-0.2-60.8c0-5.7-0.1-11.5-2.5-16.6c-2.4-5.1-7.9-9.2-13.5-8.2
		c-4.3,0.8-7.6,4.6-9.2,8.7c-1.5,4.1-1.6,8.6-1.7,13c-0.2,9.2-0.3,18.5-0.4,27.7c-0.1,8.6,1.1,18.6-0.7,26.9
		c-5.4-2.9-2.7-20.4-3-26.2c-0.7-10.5-1.3-21-2-31.4c-0.2-3.2-0.4-6.4-1.8-9.2c-7.5-15.2-20.1,3.1-20.7,12
		c-1.4,20.7-1.1,41.6,0.9,62.3c0.6,5.9,1.3,12-1,17.5c-1.8,0.2-2.7-2.1-3-4c-2.6-15.5-5.2-30.9-7.8-46.4c-0.7-4.2-1.8-9.1-5.6-11.2
		c-4.4-2.4-10.1,0.4-12.6,4.8c-2.5,4.3-2.5,9.6-2.3,14.6c0.5,15.7,2.1,31.3,4.7,46.7c2.2,13,2.3,25.5,4.1,38.5
		c0.7,5.5,0.8,11,1.7,16.5c0.7,4,0.7,8.3,1.5,12.2c2.7,12.1,6.4,24,9.7,35.9c1.7,6.2,2.1,12.5,1.5,18.9c-0.5,4.5-1,9.1-0.5,13.7
		c0.8,7.4,1.7,14.8,1.5,22.3c-0.1,4.3-0.2,8.5-0.2,12.8c0,3.5,0.4,7.5-2.3,10.5l73.7-2.5c0.6-5.2,0.2-10.3,0.4-15.5
		c0.1-4.2-0.1-8.4,0.7-12.4c0.9-4.1,0.7-8.2,1.3-12.3c0.6-4.2,2.3-8.3,2.6-12.5c1.4-17,11.1-33.2,22.7-45.5
		c4.7-4.9,9.9-9.4,13.9-14.8c5.2-7.1,8.1-15.5,10.8-23.8c4.9-14.6,9.6-29.6,10.2-45C274,234.1,272.1,225.9,265.7,224.7z
		 M187.4,370.2l-7.5,4.3l7.5,4.3v5.2l-10.8-6.4l-11.7,7.1v-5.8l8.4-4.9l-8.4-4.9v-5.2l11.6,7.2l11-6.6V370.2z M187.4,362.3h-4v-9.6
		h-5.3v7.7h-3.7v-7.7h-5.6v10.1h-4v-15.2h22.6V362.3z M187.4,335.9h-18.6v9.2h-4v-14.3h22.6V335.9z M187.4,328.4h-4V319h-6v7.4h-3.9
		V319h-8.7v-5.1h22.6V328.4z M187.4,298l-8.7,4.6l8.7,4.5v5l-12.9-7h-9.7v-5.1h9.7l12.9-7.5V298z M187.4,276.3h-9.2v9.1h9.2v5.1
		h-22.6v-5.1h9.3v-9.1h-9.3v-5.1h22.6V276.3z"/>
</g>
</svg>
