<?xml version="1.0" encoding="utf-8"?>
<!-- Generator: Adobe Illustrator 25.4.1, SVG Export Plug-In . SVG Version: 6.00 Build 0)  -->
<svg version="1.1" id="Capa_1" xmlns="http://www.w3.org/2000/svg" xmlns:xlink="http://www.w3.org/1999/xlink" x="0px" y="0px"
	 viewBox="0 0 560 560" style="enable-background:new 0 0 560 560;" xml:space="preserve">
<style type="text/css">
	.st0{fill:#19479D;}
	.st1{fill:#FFFFFF;}
</style>
<path class="st0" d="M280,528.8c137.4,0,248.8-111.4,248.8-248.8c0-137.4-111.4-248.8-248.8-248.8C142.6,31.2,31.2,142.6,31.2,280
	C31.2,417.4,142.6,528.8,280,528.8"/>
<g id="LENTES">
	<path class="st1" d="M473.3,270.9c3.5-0.5,8.7,0.7,8.6-4.1c-0.1-4.6-5.3-3.8-8.6-3.8c-3.3,0-8.7-1.1-9,3.3
		C464,272.4,470.1,270,473.3,270.9 M88.1,278.7c3.6-0.7,9.2,1.2,9.4-4.5c0.2-5.4-5.2-5.1-9-5.2c-3.8-0.1-9.2-1-9.4,4.5
		C78.8,279.3,84.4,278.1,88.1,278.7 M98.9,302.9c1.1-7.2-2.4-10.7-10.5-10.7c-7.2,0-10.7,2.7-10.7,10.1c0,6.6,1.3,11.4,9.4,11.4
		C94.2,313.8,99.7,312.6,98.9,302.9 M472,284.9c-7.8-1.1-9.9,3.7-9.9,11.1c0,8.4,4.7,10.2,11.9,10.2c7.6,0,9.6-4.1,9.7-10.8
		C483.9,287.4,480.5,284,472,284.9 M446.7,286.3L446.7,286.3c0.1-8.4,0.2-16.9,0.1-25.4c-0.3-18.9-7.7-26.8-27-26.8
		c-93-0.2-186.1-0.2-279.1,0c-18.2,0-26.5,7.6-27.3,25.7c-0.9,17.7-1,35.6-0.1,53.4c1.2,22.6,15.6,35.6,38.1,36
		c12.5,0.2,24.9-0.3,37.4,0.2c30,1.2,53.2-10.8,71.1-34.8c14.5-19.5,27.9-18.9,42.1,0.8c15.8,22.1,37,34,64.6,33.8
		c15.1-0.1,30.3,0.3,45.4-0.1c19.3-0.5,33.5-14.1,34.7-33.4C447.2,305.9,446.7,296.1,446.7,286.3 M279.5,220.1
		c46.3,0,92.6,0.2,138.9-0.1c17.2-0.1,31.8,3.7,40,20.6c3.3,6.8,9.5,7,15.9,7.2c23.3,0.6,23.3,0.7,23.3,24.2
		c0,11.6-0.3,23.1,0.1,34.7c0.4,9.9-3.3,15.8-13.8,14.6c-14.4-1.7-23,2.7-29.4,17.3c-7.4,16.7-23.1,25.5-42.1,25.9
		c-15.1,0.3-30.3,0.2-45.4,0c-30.9-0.4-55.9-12.7-74.7-37.4c-11-14.4-12.4-14.1-24.1,0.5c-17.7,22.3-40.8,35.5-69.7,36.8
		c-15.5,0.6-31.1-0.1-46.7,0.3c-20.2,0.5-35.4-8.5-45.6-25.1c-4.9-8-10.5-10.6-19.4-10.5c-23.7,0.3-24.6-0.9-24.6-24.9
		c0-11.1,0.3-22.2,0-33.4c-0.2-10.5,4-16.6,15-15.2c13.7,1.7,21.7-2.4,26.8-16.5c5.1-14.4,18.8-18.9,33.8-18.9
		C185.1,220.2,232.3,220.1,279.5,220.1L279.5,220.1z"/>
	<path class="st1" d="M194.4,249.3c14.2,0,28.4-0.2,42.6,0.1c5.4,0.1,13.2-1.2,12.9,7.3c-0.2,7.2-7.4,6.4-12.5,6.4
		c-25.3,0.1-50.6,0-75.9,0.1c-17.5,0.1-19.1,1.7-19.3,18.9c-0.1,5.3,0,10.7-0.4,15.9c-0.3,3.9-2.4,6.9-6.6,6.9c-3.5,0-6-2.5-6.2-5.9
		c-0.7-12.3-2.8-24.9,1.5-36.9c3.4-9.4,11.6-12.8,21.3-12.8C166,249.3,180.2,249.3,194.4,249.3L194.4,249.3z"/>
	<path class="st1" d="M280.3,249.2c5.1,0.9,13-1.7,12.9,7c-0.1,7.1-6.9,7-12.3,6.8c-5.5-0.1-13.1,1.5-13.1-7.1
		C267.9,248.4,275.1,249.8,280.3,249.2"/>
</g>
</svg>
