<?xml version="1.0" encoding="utf-8"?>
<!-- Generator: Adobe Illustrator 25.4.1, SVG Export Plug-In . SVG Version: 6.00 Build 0)  -->
<svg version="1.1" id="Capa_1" xmlns="http://www.w3.org/2000/svg" xmlns:xlink="http://www.w3.org/1999/xlink" x="0px" y="0px"
	 viewBox="0 0 560 560" style="enable-background:new 0 0 560 560;" xml:space="preserve">
<style type="text/css">
	.st0{fill:#19479D;}
	.st1{fill:#FFFFFF;}
</style>
<path class="st0" d="M280,528.8c137.4,0,248.8-111.4,248.8-248.8c0-137.4-111.4-248.8-248.8-248.8C142.6,31.2,31.2,142.6,31.2,280
	C31.2,417.4,142.6,528.8,280,528.8"/>
<g id="PASILLO">
	<path class="st1" d="M151.6,101v135.5c1.7-0.6,1.6-1.8,1.9-2.7c6.9-20.8,13.8-41.7,20.7-62.5c0.8-2.5,1.2-5.1,1.2-7.7
		c0-24.5,0-49-0.1-73.4c0-3.2,0.8-4.9,3.9-6.1c6.7-2.7,6.7-2.8,6.7,4.3c0,25.7,0,51.5,0,77.2c0,2.6-0.4,5-1.2,7.4
		c-10.1,29.9-20.1,59.8-30.1,89.7c-0.8,2.4-1.8,3.4-4.5,3.4c-27-0.1-54-0.1-81,0c-2.9,0-3.7-0.9-3.6-3.7c0.1-8.6,0-8.7,8.6-8.6
		c21.2,0,42.3,0,63.5,0.2c3.3,0,4.2-0.8,4.2-4.2c-0.1-45.2,0-90.4-0.2-135.5c0-4.1,0.9-7,4.3-9.3c1.8-1.2,3.3-2.8,4.9-4.2
		C151,100.8,151.3,100.9,151.6,101"/>
	<path class="st1" d="M132.8,488.5c-5.1,0,1-7.1-4.1-6.9c-3,0.1-3.4-0.7-2.7-3.5c7.2-26.4,14.2-52.7,21.2-79.1
		c3.5-13.1,7.1-26.2,10.5-39.4c0.6-2.5,1.8-3.3,4.2-3.2c8,0.1,16,0.2,24,0c3.2-0.1,3.5,1.1,2.9,3.8c-7.2,33.4-14.3,66.8-21.4,100.3
		c-1.3,6.1-2.7,12.3-3.8,18.5c-0.4,2.2-3.9,26.3-5.9,26.3c-5.4-0.1-19.6,0-25,0V488.5z"/>
	<path class="st1" d="M418.8,500.3c-5.3,0-9.5,11.7-14.7,11.8c-1.9,0-7.4-30.9-7.8-33c-8.4-39.9-16.9-79.8-25.5-119.8
		c-0.6-2.8,0.5-3,2.7-3c8,0.1,16,0.2,24,0c2.9-0.1,3.9,0.9,4.6,3.6c7.8,29.6,15.8,59.2,23.7,88.8c2.6,9.7,5.1,19.5,7.9,29.1
		c0.9,3.2,0.1,3.9-3,3.7C425.6,481.4,423.9,500.3,418.8,500.3"/>
	<path class="st1" d="M145.5,323.8c-10.8,8.1-22.5,10.5-34.8,10.8c-14.4,0.4-28.4-0.9-40.6-9.7c-1.6-1.2-1.9-0.3-1.9,1.2
		c0,3,0.3,6,0,8.9c-0.8,6.3,2.5,10.2,7.6,13c2,1.1,4.1,2.1,6.2,2.8c11.9,4.2,24.2,4.7,36.6,3.1c7.7-1,15.1-2.9,21.5-7.4
		c2.8-1.9,5.2-4.3,5.4-7.9C145.7,334,145.5,329.4,145.5,323.8 M108.2,330.9c2.4-0.2,5.9-0.3,9.4-0.8c7.7-1,15.1-2.7,21.7-6.9
		c3-1.9,5.9-4.3,6.2-8.2c0.3-4.5,0.1-9.1,0.1-13.7c0-1.7-0.6-2.1-2-1c-2.8,2.2-5.9,3.9-9.3,5c-21.9,6.6-43.4,7.3-63.9-5
		c-1.5-0.9-2-0.6-2,1.1c0,4.5,0,8.9,0.1,13.4c0,2.2,1.2,3.9,2.6,5.5c2.2,2.4,4.9,4.1,7.9,5.4C87.8,329.4,97.3,330.6,108.2,330.9
		 M145.5,348c-10.5,7.7-21.9,10.3-33.8,10.8c-14.6,0.6-28.8-0.8-41.3-9.4c-1.8-1.2-2.1-0.5-2.1,1.2c0,4.6,0.1,9.2,0,13.7
		c-0.1,3.3,1.2,5.7,3.6,7.8c3.5,3.1,7.7,5,12.1,6.3c11.4,3.5,23.1,4,35,2.4c7.3-1,14.4-2.8,20.6-6.9c2.9-1.9,5.8-4.2,5.9-8
		C145.7,360.2,145.5,354.5,145.5,348 M149.5,328c0,11.8-0.2,23.6,0.1,35.3c0.1,5.7-2.2,9.9-6.6,13.2c-3.2,2.4-6.9,4.1-10.7,5.3
		c-16.8,5.3-33.7,5.3-50.6,0.1c-3.6-1.1-7-2.7-10.2-4.9c-4.9-3.4-7.5-7.8-7.4-14.1c0.2-23.3,0.2-46.6,0-70c0-6.1,2.5-10.3,7.2-13.4
		c8.1-5.4,17.4-7.5,26.9-8.4c13.7-1.2,27.2-0.1,39.9,5.8c2.6,1.2,5,2.7,7.2,4.7c2.9,2.7,4.3,5.9,4.3,10
		C149.4,303.7,149.5,315.9,149.5,328"/>
	<path class="st1" d="M397.3,237.4c0,3.4,0.3,6.7-0.1,10c-0.9,7.4,3,11.6,9.1,14.5c2.5,1.1,5,2.2,7.6,3c11.8,3.5,23.8,3.9,35.9,1.9
		c6.8-1.1,13.4-3,19.2-7c2.9-2,5.3-4.4,5.4-8.3c0.1-4,0.1-8,0-12c0-0.6,0.3-1.5-0.5-1.8c-0.7-0.3-1.2,0.4-1.8,0.8
		c-2.4,1.8-5,3.3-7.8,4.3C441.5,250.7,419.2,250.1,397.3,237.4 M474.5,212.9c-25.9,13.4-51.3,13.4-77.2-0.2c0,3.1,0.3,6.6-0.1,9.9
		c-0.9,7.7,2.9,12.4,9.5,15.3c2.6,1.2,5.3,2.3,8,3c12.6,3.4,25.3,3.6,38,1.1c6.1-1.2,12-3.1,17-6.9c2.5-1.9,4.6-4.2,4.7-7.6
		C474.5,222.7,474.5,217.8,474.5,212.9 M397.3,261.4c0,4.6,0.3,9.2-0.1,13.7c-0.6,6.2,2.5,9.9,7.4,12.7c2.9,1.6,6,2.9,9.2,3.8
		c13.9,4,28,4.1,42,0.6c4.9-1.2,9.6-3,13.7-6c2.7-2,5-4.4,5-8.1c0-4.8,0-9.6,0-14.4c0-0.7,0.3-1.5-0.4-1.9c-0.9-0.5-1.4,0.4-2,0.9
		c-3.8,2.8-8.1,4.9-12.6,6C438,274,417.2,273.7,397.3,261.4 M478.6,241c0,11.7-0.2,23.3,0.1,35c0.2,6.4-2.6,10.7-7.5,14.1
		c-6.9,4.7-14.7,6.7-22.8,7.8c-13,1.7-25.8,1-38.3-3.1c-2.9-1-5.7-2.3-8.4-3.9c-5.7-3.5-8.6-8.1-8.5-15.2c0.3-23.1,0.3-46.2,0-69.3
		c-0.1-6.9,2.9-11.3,8.3-14.6c7-4.3,14.7-6.2,22.7-7.2c14.2-1.7,28.1-0.9,41.4,4.7c3,1.2,5.7,2.9,8.1,5c3.3,2.9,5,6.3,4.9,10.8
		C478.5,217,478.6,229,478.6,241L478.6,241z"/>
	<path class="st1" d="M380.4,336.5c-3.9,0-7.8-0.1-11.7,0c-1.9,0-2.9-0.4-3.3-2.5c-5.1-24.5-10.4-48.9-15.6-73.4
		c-0.3-1.6,0-2.4,1.7-2.4c7.1,0,14.1,0,21.2,0c2.7,0,2.6,2.2,3,3.8c2.7,9.7,5.2,19.4,7.8,29.1c3.8,14,7.4,28,11.3,42
		c0.8,2.8,0,3.4-2.6,3.3C388.4,336.4,384.4,336.5,380.4,336.5"/>
	<path class="st1" d="M179,336.5c-3.6,0-7.1,0-10.6,0c-4.3,0-4.3,0-3.2-4c6.2-23.2,12.6-46.3,18.6-69.6c1-3.7,2.5-4.9,6.2-4.7
		c5.8,0.3,11.7,0.2,17.5,0.1c2.4,0,3,0.9,2.5,3.1c-5.2,24.1-10.3,48.3-15.4,72.4c-0.4,2.1-1.4,2.7-3.5,2.7
		C187,336.4,183,336.5,179,336.5"/>
	<path class="st1" d="M389.1,147.8c1-2.1,0.7-3.5,0.7-4.8c0-17.3,0-34.5,0-51.8c0-3.7,0-3.5,3.3-2c3.1,1.4,4.2,3.3,4.2,6.8
		c-0.2,20.8-0.1,41.6-0.2,62.4c0,2.8,0.8,3.5,3.5,3.4c12.5-0.1,24.9,0,37.4-0.1c3.1,0,4,0.9,3.8,3.9c-0.3,6.8,0.9,6-6,6
		c-14.6,0-29.3,0-43.9,0.1c-2.3,0-3.4-0.6-4.1-2.9c-7.4-22.7-14.9-45.4-22.4-68.1c-0.5-1.4-0.7-2.9-0.7-4.4c0-4.3-0.2-8.7,0.1-13
		c0.1-1.7-1.6-4.6,1.3-5c3.2-0.4,6.5,2.9,6.3,5.9c-0.8,9.4,1.2,18.3,4.5,27.1C381.1,123.1,384.9,135.1,389.1,147.8"/>
	<path class="st1" d="M358.2,243.3c-3.1,0-6.2-0.1-9.3,0c-1.9,0.1-2.9-0.5-3.3-2.5c-3.3-15.9-6.7-31.7-10.1-47.5
		c-0.5-2.2,0.3-2.8,2.4-2.8c5.4,0.1,10.7,0.1,16.1,0c1.9,0,2.9,0.6,3.4,2.5c4.2,15.9,8.4,31.8,12.7,47.6c0.6,2.4-0.3,2.8-2.3,2.7
		C364.6,243.2,361.4,243.3,358.2,243.3"/>
	<path class="st1" d="M201.5,243.3c-3.3,0-6.6-0.1-9.9,0c-1.9,0-2.4-0.6-1.9-2.5c4.4-16.1,8.7-32.2,13-48.3c0.4-1.5,1.1-2.1,2.6-2.1
		c5.7,0,11.4,0,17.1,0c2,0,2.3,0.9,1.9,2.6c-3.4,16-6.8,31.9-10.2,47.9c-0.4,1.8-1.3,2.4-3,2.3C207.9,243.2,204.7,243.3,201.5,243.3
		"/>
	<path class="st1" d="M216.7,179.3c-2.6,0-5.3,0-7.9,0c-1.8,0-2.6-0.4-2-2.4c3.5-12.8,6.9-25.6,10.3-38.4c0.4-1.4,1.1-2.1,2.6-2.1
		c4.7,0,9.4,0,14.1,0c1.8,0,2.4,0.5,2,2.4c-2.7,12.7-5.4,25.5-8.1,38.2c-0.3,1.7-1.2,2.3-2.8,2.2
		C222.2,179.2,219.5,179.3,216.7,179.3L216.7,179.3z"/>
	<path class="st1" d="M342.2,179.3c-2.7-0.2-6.7,1.3-9.1-0.6c-2.4-1.9-1.9-6.1-2.6-9.3c-2.2-9.9-4.2-19.9-6.4-29.8
		c-0.6-2.4-0.1-3.3,2.5-3.2c4.2,0.2,8.5,0.1,12.7,0c2-0.1,3,0.5,3.6,2.6c3.2,12.4,6.5,24.8,10,37.1c0.7,2.5,0.1,3.3-2.4,3.2
		C347.9,179.2,345.3,179.3,342.2,179.3"/>
	<path class="st1" d="M230.3,121.2c-2.2-0.3-6.2,1.3-7.6-0.6c-1.6-2.1,0.7-5.5,1.5-8.3c2.6-10.2,5.6-20.3,8-30.5
		c0.9-3.8,2.6-5.1,6.3-4.7c2.6,0.3,5.3,0.1,7.9,0c1.8,0,2.5,0.5,2.1,2.4c-2.8,13.1-5.6,26.1-8.4,39.2c-0.4,1.8-1.2,2.5-3,2.4
		C235,121.2,233,121.2,230.3,121.2"/>
	<path class="st1" d="M329,121.3c-8.7,0-8.7,0-10.6-8.7c-2.3-10.7-4.5-21.5-6.9-32.2c-0.5-2.4-0.1-3.3,2.5-3.2
		c3.2,0.2,6.4,0.1,9.6,0c2-0.1,2.8,0.8,3.3,2.6c3.4,12.9,6.9,25.8,10.4,38.7c0.6,2.3-0.1,2.9-2.2,2.7
		C333.1,121.2,331.1,121.3,329,121.3"/>
	<path class="st1" d="M316.2,67.8c-7.4,0-7.4,0-8.8-7c-1.8-8.7-3.6-17.4-5.5-26.1c-0.6-2.6,0-3.4,2.7-3.4c9.3,0,9.3-0.1,11.7,8.9
		c2.1,7.8,4.3,15.6,6.4,23.4c1.1,4.1,1.1,4.1-3,4.2C318.5,67.8,317.3,67.8,316.2,67.8"/>
	<path class="st1" d="M243.7,67.8c-7.5,0-7.5,0-5.6-7.1c2.3-8.8,4.8-17.6,7-26.4c0.6-2.1,1.5-2.9,3.7-3c9.9-0.1,9.9-0.2,7.9,9.4
		c-1.6,7.7-3.5,15.3-4.9,23.1c-0.6,3.3-1.9,4.5-5.1,4.1C245.8,67.7,244.7,67.8,243.7,67.8"/>
</g>
</svg>
