<?xml version="1.0" encoding="utf-8"?>
<!-- Generator: Adobe Illustrator 25.4.1, SVG Export Plug-In . SVG Version: 6.00 Build 0)  -->
<svg version="1.1" id="Capa_1" xmlns="http://www.w3.org/2000/svg" xmlns:xlink="http://www.w3.org/1999/xlink" x="0px" y="0px"
	 viewBox="0 0 560 560" style="enable-background:new 0 0 560 560;" xml:space="preserve">
<style type="text/css">
	.st0{fill:#19479D;}
	.st1{fill:#FFFFFF;}
</style>
<path class="st0" d="M280,528.8c137.4,0,248.8-111.4,248.8-248.8c0-137.4-111.4-248.8-248.8-248.8C142.6,31.2,31.2,142.6,31.2,280
	C31.2,417.4,142.6,528.8,280,528.8"/>
<g id="PROT_AUD">
	<path class="st1" d="M348.8,406.4L348.8,406.4c-2-0.6-3.9,0.4-4.7,2.2c-1.8,4.5-5.9,13.2-13.3,21.8c-14.1,16.3-32.9,24.5-56.1,24.7
		c-23.1-0.1-42-8.4-56.1-24.7c-7.4-8.6-11.5-17.3-13.3-21.8c-0.7-1.8-2.7-2.8-4.6-2.2l-0.1,0c-2.1,0.6-3.3,3-2.4,5
		c2,5.1,6.4,14.4,14.4,23.7c10.7,12.4,30,27.2,61.6,27.5v0l0.5,0l0.5,0v0c31.6-0.3,50.9-15.1,61.6-27.5c8-9.3,12.4-18.7,14.4-23.7
		C352.1,409.4,351,407,348.8,406.4"/>
	<path class="st1" d="M421.3,248c-3.5-8.7-11.1-11.5-11.1-11.5c-16-7.5-14.6-17-14.6-17c-1-9.1,2.8-25.1,2.8-25.1
		c4.9-13.6,0-27.2,0-27.2c-16-35.2-56.4-49.4-56.4-49.4c-23.2-8.9-51.3-10.2-67.2-10.2c-15.9-0.1-44,1.2-67.2,10.2
		c0,0-40.4,14.3-56.4,49.4c0,0-4.9,13.6,0,27.2c0,0,3.8,16,2.8,25.1c0,0,1.4,9.6-14.6,17c0,0-7.7,2.8-11.1,11.5
		c0,0-27.5,50.5,2.4,114.5c0,0,12.8,37.1,62.4,31.8c0,0,6-36.9,1.9-90.3c0,0-3.3-52.7-7.7-69.2c0,0-4.9-9.6-10.7-15.9
		c0,0-4.2-20.1-0.3-37.5c0,0,1-22.3,39-40.7c0,0,17.4-7.8,59.5-9.2c42.1,1.4,59.5,9.2,59.5,9.2c38,18.5,39,40.7,39,40.7
		c3.8,17.4-0.3,37.5-0.3,37.5c-5.7,6.3-10.7,15.9-10.7,15.9c-4.4,16.5-7.7,69.2-7.7,69.2c-4.2,53.4,1.9,90.3,1.9,90.3
		c49.7,5.3,62.4-31.8,62.4-31.8C448.8,298.5,421.3,248,421.3,248"/>
</g>
</svg>
