<?xml version="1.0" encoding="utf-8"?>
<!-- Generator: Adobe Illustrator 25.4.1, SVG Export Plug-In . SVG Version: 6.00 Build 0)  -->
<svg version="1.1" id="Capa_1" xmlns="http://www.w3.org/2000/svg" xmlns:xlink="http://www.w3.org/1999/xlink" x="0px" y="0px"
	 viewBox="0 0 560 560" style="enable-background:new 0 0 560 560;" xml:space="preserve">
<style type="text/css">
	.st0{fill:#19479D;}
	.st1{fill:#FFFFFF;}
</style>
<path class="st0" d="M280,528.8c137.4,0,248.8-111.4,248.8-248.8c0-137.4-111.4-248.8-248.8-248.8C142.6,31.2,31.2,142.6,31.2,280
	C31.2,417.4,142.6,528.8,280,528.8"/>
<g id="RESPIRADOR">
	<path class="st1" d="M417.4,384.7c-4.5,19.2-11.7,30.2-17.3,36.2c-10.1-28.2-10.4-53-0.7-71.8c5.5-10.6,12.9-16.9,16.9-19.7
		l0.5,0.9C421.6,342.7,418.9,373.5,417.4,384.7 M381,429l-0.6-0.1l-0.6,0.1c-4.2,0.4-8.7-3.8-12.4-8.5c-1.8-3.3-3.5-6.8-3.5-6.8
		l9.4-0.5l-2.6-10.8l-9.4-1l-1-1.5c-0.5-3-0.9-5.8-1.1-8.6l9.3,0.9l-0.7-9.9l-8.8-2.5c0.1-3.2,0.4-6.3,0.8-9.2l8.5,2.1l1.6-11.6
		l-7.5-3.8c1-3.6,2-6.4,2.8-8.5l7,3.7l5.1-9.5l-6.6-6.1c1-1.8,2.1-3.4,3.2-5l0.3-0.3l6.6,4.6l5.1-6l-6.1-5.2
		c1.3-1.4,2.7-2.6,3.9-3.8l5.7,3l4.1-3.9l-4.4-3.3c1.6-1.1,2.8-1.9,3.5-2.3c6-1.3,11.3,1.3,15.4,4.8c-5.2,3.9-13.3,11.2-19.5,22.9
		c-8.6,16.1-15.3,44.1,0.7,86.2C385.8,429.3,382.3,429.2,381,429 M349,372.9c-1.2-3-2-4.9-2.2-5.4c-0.9-2.1-1.9-3.9-3.1-5.4
		l11.5-37.1c5.4-15.8,5.8-28,4.4-36.8c5.7,3.8,14.7,11.1,20.4,22.6c-7,5.5-16.8,15.2-22.5,29.8C356.5,342.5,350.8,354.8,349,372.9
		 M351.2,415.5l-1.1,1.8l-53.6,0.7c4.5-9.4,6.3-18,6.6-19.6c2.6-10.2,6.7-18.4,10.1-23.9l0.3,0.3c3-2.9,10.7-8.7,15.4-8.7l0.3,0
		l0.4-0.1c1-0.1,5.3-0.2,7.5,5.4l0.1,0.1c0.1,0.2,9.6,22.3,15.1,43.9l0.1,0.5l0.2,0.5l0,0.1L351.2,415.5z M334.4,443.3l-54.3-0.4
		l-1.8-3.2c5.1-3.2,9.2-7.5,12.5-12.1v0.8l52.9-0.7L334.4,443.3z M268.1,434c-7.2,1.5-14.1,2.1-20.4,1.8c5.8-3.9,8.9-9.1,9.7-10.8
		c16.5-23.1,5.1-56.8,4.6-58.2c-5.5-16.2-14.3-27.4-26.3-33.3c-5.3-2.6-10.7-3.9-15.5-4.3l0.6-0.4c11.2-5.8,22.8-8.6,29.4-9.9
		l4.2,3.3l-8.1,3.9l4.1,4.8l9.4-3.9l4.6,3.9l-7.6,4.4l6,7.3l8-4.8l5.5,4.6l-8.5,6l6.9,9.9l9.9-4.4l4.1,8.3l-11.5,4.6l1.8,11.3
		l14.7-2.5l0.5,10.1l-14,2.1l-0.9,10.6l13.3,0.2l0.3,0l-0.2,0.9l-0.1-0.9l-1.7,7l-1,2.8h-13.1l-4.7,11.2l11.8,0.8
		C280.3,426.3,275.1,431.6,268.1,434 M238.5,429.7c-5.5,1.9-12.2,0.9-19.7-3l-0.1,0c-22.2-14.9-27.9-43.6-28.4-46.4
		c-1.1-16.2,3.9-29.7,14.7-40.2c2.7-0.8,14.8-3.6,26.5,2.2c9.5,4.7,16.7,14,21.3,27.7c0.1,0.3,10.3,30.7-3.5,49.7l-0.3,0.4l-0.2,0.4
		C248.9,420.6,245.7,427.2,238.5,429.7 M180.8,370.7c-3.9-4.6-8-12.4-7.8-24.2v-0.1l-0.2-24.2l-0.2-8.3l-1.1-1.3
		c-7.3-8.6-27-34.1-29.8-48.9l-0.1-0.4c-0.1-0.3-6.9-25.1,7.2-31c0.7,0.4,2.4,1.5,5,4.7l0.2,0.3l0.2,0.2l0.6,0.6
		c2.3,2.5,10.8,12.7,8.4,28.4l9.6,1.4c0.7-4.6,0.6-8.9,0.1-12.8c1.7,1.5,3.4,3.1,5.2,4.7l-4,20.9l9.5,1.8l3-15.3
		c16.9,14.4,38.1,30.9,58,41.8l1.1,1.1c-7.4,1.5-18.2,4.5-28.9,10.1C194.7,331.6,182.5,348.9,180.8,370.7 M151.4,209.3
		c17.9,19,66.3,68,107.7,88.5c-2.3,1.9-4.6,3.8-6.7,5.5l-2.1-2.1l-0.6-0.3c-37.7-20.3-82.4-63.9-88.2-69.6l-0.5-0.5
		c-4.2-5.1-7.6-7.3-10.3-8C150.7,219.9,150.7,215.2,151.4,209.3 M159.4,179.3c14.2-32.7,43.3-53.5,86.6-61.9l0.2-0.1
		c0.3-0.1,33-7.7,66.4,14.8l0.3,0.2c0.2,0.1,15.2,8.9,30.1,30c5.4,7.6,11.1,17.3,16,29.5c-3.6-4.9-6.3-7.8-6.6-8.1l-3.4-3.6
		l-3.5,3.5c-19.2,19.2-61,22.8-84.7,23.2c5.9-5.3,10.8-11.2,12.3-13.1l15.8-19.8l-22,12.6c-23.9,13.6-67.6,6-68,5.9l-5.5-1l-0.2,5.6
		c-0.6,15.2-5.6,26.4-8.6,32c-15.2-14.4-26.7-26.8-31.1-31.6C154.7,191.7,156.6,185.6,159.4,179.3 M310.3,361.8
		c-1.6,2.1-4.2,5.6-6.9,10.5c-2.1-7.2-14.3-42.8-42.3-64.1l-2,2l0.1,0.1c2.3-1.8,5.4-4.4,8.5-7.1
		C276.9,311.9,302.1,337.4,310.3,361.8 M274.7,296.6c1.8-1.8,3.3-3.5,4.3-5c6-6.5,22.6-22.8,32-25.5l0.3-0.1
		c0.2-0.1,20.7-6.9,32.7,9.3l0.1,0.2l0.3,0.3c0.5,0.5,12.7,13.5,1.6,46l-10.7,34.5c-2.6-0.8-5-0.9-6.8-0.7c-3.1,0.1-6.3,1.1-9.3,2.6
		C310.3,332,284.8,306.1,274.7,296.6 M371.3,243.9c0.7,7.4,1,15.3,0.9,23.6l-16,9.1c-1.9-4.1-3.9-6.5-4.6-7.3
		c-12.9-17.2-33.9-15.8-43.3-12.5c-13.8,4-34.3,26-36.6,28.5l-0.3,0.3l-0.2,0.4c-0.8,1.2-2.4,2.9-4.3,4.9
		c-24.5-11.2-52.6-34.4-75-55.1c3.1-5.1,9-16.7,10.6-33.1c9.5,1.3,30,3.2,48.9-0.6c-3.4,2.7-6.4,4.5-8.3,4.5l-0.3,9.6
		c3.1,0.2,72.9,4.5,105.6-22.3c6.2,7.8,20,27.2,22.3,50.1L371.3,243.9z M380,275.6L368.4,286c-2.4-1.9-4.7-3.4-6.5-4.6l15.4-8.8
		L380,275.6z M384.2,281.1c6.2,9.5,7.6,18.2,7.8,23.1l-2.8,0.6l-0.6,0.2l-0.5,0.3c-0.2,0.1-1,0.6-2.4,1.4c-3.4-6.6-7.8-12-12-16.1
		L384.2,281.1z M426.3,326.2l-0.2-0.5c-0.5-0.9-10.6-19.4-27.2-21.5c-0.3-7.5-2.9-22.5-17-36.7c0.6-54.1-16.5-90.1-31.1-110.7
		c-15.5-21.8-31.1-31.6-33-32.7c-36.3-24.4-71-16.8-73.8-16.1c-25.4,5-46.7,14.2-63.1,27.6c-13.3,10.8-23.5,24.2-30.3,39.9
		c-10.2,23.5-9.7,44.6-9.3,50c-5.5,3.6-10.6,10.4-11,23c-0.3,8.4,1.6,15.9,2,17.3c3.6,18.2,25.5,45.4,30.8,51.8l0.1,4.7l0.2,24
		c-0.4,23.1,12.6,34,17.9,37.5c1.7,8.1,9,35.2,32,50.8l0.8,0.5v0l0,0c10.6,6.9,22.9,10.4,36.7,10.4c5.7,0,11.7-0.6,18-1.8l5.3,9.5
		l66.2,0.5l15.9-26.2l3.4,0l0-0.4c4.7,6,11.5,12.3,19.8,12.3l1,0c0.7,0.1,2,0.2,3.6,0.2c3.2,0,7.8-0.4,11.9-2.4
		c2.6-1.1,22.8-11,31.9-50.3l0.1-0.5C427.9,384.6,433.3,343.4,426.3,326.2"/>
</g>
</svg>
