<?xml version="1.0" encoding="utf-8"?>
<!-- Generator: Adobe Illustrator 25.4.1, SVG Export Plug-In . SVG Version: 6.00 Build 0)  -->
<svg version="1.1" id="Capa_1" xmlns="http://www.w3.org/2000/svg" xmlns:xlink="http://www.w3.org/1999/xlink" x="0px" y="0px"
	 viewBox="0 0 560 560" style="enable-background:new 0 0 560 560;" xml:space="preserve">
<style type="text/css">
	.st0{fill:#19479D;}
	.st1{fill:#FFFFFF;}
</style>
<path class="st0" d="M280,528.8c137.4,0,248.8-111.4,248.8-248.8c0-137.4-111.4-248.8-248.8-248.8C142.6,31.2,31.2,142.6,31.2,280
	C31.2,417.4,142.6,528.8,280,528.8"/>
<g id="SUPERFICIE">
	<path class="st1" d="M113.1,283.6c18.2,10.9,35.9,21.5,53.7,32.2c31.8,19.1,63.6,38.2,95.4,57.3c9.8,5.9,19.6,11.7,29.3,17.6
		c1.9,1.2,3.2,1.1,5,0c45.7-27.5,91.4-54.9,137.2-82.4c13.6-8.1,27.1-16.3,41.1-24.7c-3.2-2-6.2-3.8-9.2-5.6
		c-58-34.8-116-69.6-173.9-104.4c-1.2-0.7-2.4-1.5-3.5-2.5c-4.2-3.7-4.8-8.7-1.5-13.1c2.7-3.6,8-4.6,12.4-2
		c7.2,4.2,14.3,8.5,21.4,12.7c55.7,33.4,111.5,66.9,167.2,100.4c3.3,2,6.6,3.9,9.8,5.9c7.2,4.5,7.3,12.8,0,17.2
		c-22.6,13.6-45.3,27.2-67.9,40.8c-40.2,24.1-80.4,48.3-120.6,72.4c-3,1.8-6,3.5-9,5.4c-4,2.5-7.8,2.4-11.9,0
		c-30.3-18.2-60.6-36.4-90.9-54.6c-34.9-20.9-69.8-41.9-104.7-62.8c-3.4-2-6.6-4.1-7.1-8.4c-0.6-4.8,1.8-8,5.8-10.4
		c15.8-9.4,31.6-18.9,47.4-28.4c6.5-3.9,12.8-7.9,19.4-11.6c6.2-3.5,12.8-0.2,14.2,6.7c0.8,3.9-1.2,7.6-5.5,10.2
		c-14.2,8.5-28.4,17-42.7,25.6C120.5,279.2,117,281.3,113.1,283.6"/>
	<path class="st1" d="M249,307.6c-3.5-9.4-6.8-18.2-10-26.9c-0.7-1.9-1.6-2.8-3.4-3.4c-8.8-3.2-17.6-6.4-26.9-9.9
		c7-2.6,13.3-5.5,20-7.2c7.2-1.8,11.2-5.6,13-12.9c1.7-6.7,4.7-13.1,7.3-20.3c2.7,7.3,5.7,13.8,7.4,20.6c1.8,6.9,5.4,10.6,12.3,12.4
		c6.8,1.8,13.3,4.7,20.6,7.4c-4.2,1.6-7.8,3-11.5,4.3c-5.2,1.9-10.4,3.9-15.6,5.7c-1.8,0.6-2.6,1.6-3.2,3.3
		C255.8,289.4,252.5,298.1,249,307.6"/>
	<path class="st1" d="M283.5,229.1c-1.6-4.4-2.9-7.8-4.1-11.3c-0.7-2-1.7-3.3-3.9-3.9c-3.6-1.1-7.1-2.6-11.4-4.2
		c4-1.5,7.4-3,10.9-4.1c2.4-0.7,3.7-2.1,4.5-4.5c1.1-3.4,2.4-6.7,3.9-10.9c1.6,4.4,3.1,7.9,4.3,11.6c0.6,2,1.7,3,3.6,3.7
		c3.7,1.2,7.3,2.6,11.6,4.2c-4.3,1.6-7.9,3.1-11.6,4.3c-2,0.6-3,1.8-3.6,3.7C286.6,221.2,285.1,224.6,283.5,229.1"/>
	<path class="st1" d="M214.7,215.6c-1.3-3.5-2.4-6.2-3.3-8.9c-0.6-2.2-1.8-3.4-4-4.2c-2.8-1-5.8-1.7-8.6-3.4c1.7-0.6,3-1.3,4.5-1.6
		c5.4-1.1,8.7-4.3,9.6-9.8c0.2-1.3,1-2.6,1.8-4.5c1.2,3.1,2.4,5.6,3,8.2c0.7,2.8,2.3,4.2,5,4.9c2.6,0.7,5,1.8,8.2,3
		c-3.5,1.3-6.4,2.5-9.4,3.4c-1.8,0.6-2.9,1.6-3.5,3.4C217.2,209,216,211.9,214.7,215.6"/>
</g>
</svg>
