<?xml version="1.0" encoding="utf-8"?>
<!-- Generator: Adobe Illustrator 25.4.1, SVG Export Plug-In . SVG Version: 6.00 Build 0)  -->
<svg version="1.1" id="Capa_1" xmlns="http://www.w3.org/2000/svg" xmlns:xlink="http://www.w3.org/1999/xlink" x="0px" y="0px"
	 viewBox="0 0 560 560" style="enable-background:new 0 0 560 560;" xml:space="preserve">
<style type="text/css">
	.st0{fill:#19479D;}
	.st1{fill:#FFFFFF;}
</style>
<path class="st0" d="M280,528.8c137.4,0,248.8-111.4,248.8-248.8c0-137.4-111.4-248.8-248.8-248.8C142.6,31.2,31.2,142.6,31.2,280
	C31.2,417.4,142.6,528.8,280,528.8"/>
<g id="TRAJE">
	<path class="st1" d="M313.5,164.1l-13.3,0.3c0,0-3.2,0.5-3.4-3.6c0,0-0.5-4,2.9-4.5l13.4,0c0,0,3,0,3.8,3.1
		C316.9,159.5,317.5,163.7,313.5,164.1 M387.8,256.9l0.5-0.9L347,135c-4.8-17.4-18.5-17.5-18.5-17.5l-21.4-0.6l-2.2-1.6
		c-4.8-13.2-17.5-12.4-17.5-12.4l0.1,145.8c0,5.4-4.1,5-4.1,5c-4,0.2-4.2-4.5-4.2-4.5l-0.3-145.9c-10.7-0.1-15.6,9-17.1,12.6
		l-2.2,1.5h-22.5c-13,1.4-18.3,19-18.3,19l-39.7,120.5l0.5,0.7l30.4,4.2l0.6-0.4l32.8-91.5l0.3,0l0.7,86c0,5.6-0.4,11.2-1.3,16.7
		l-30.9,183.4l1.2,1.4l42.3,0.5l1.2-1l26.3-154.5l26.7,154.8l1.3,1.1l42-1l1.3-1.5l-31.2-185.5c-0.9-5.2-1.3-10.5-1.3-15.7
		l-0.1-85.8l0.3-0.1l34.2,93.2l0.7,0.4L387.8,256.9z"/>
</g>
</svg>
